<?xml version="1.0" encoding="UTF-8" standalone="no"?>
<!-- Created with Inkscape (http://www.inkscape.org/) -->

<svg
   xmlns:dc="http://purl.org/dc/elements/1.1/"
   xmlns:cc="http://creativecommons.org/ns#"
   xmlns:rdf="http://www.w3.org/1999/02/22-rdf-syntax-ns#"
   xmlns:svg="http://www.w3.org/2000/svg"
   xmlns="http://www.w3.org/2000/svg"
   version="1.1"
   width="375"
   height="375"
   id="svg2"
   xml:space="preserve"><metadata
     id="metadata8"><rdf:RDF><cc:Work
         rdf:about=""><dc:format>image/svg+xml</dc:format><dc:type
           rdf:resource="http://purl.org/dc/dcmitype/StillImage" /><dc:title></dc:title></cc:Work></rdf:RDF></metadata><defs
     id="defs6"><clipPath
       id="clipPath16"><path
         d="M 150,300 C 67.157,300 0,232.843 0,150 l 0,0 C 0,67.157 67.157,0 150,0 l 0,0 c 82.843,0 150,67.157 150,150 l 0,0 c 0,82.843 -67.157,150 -150,150 z"
         id="path18" /></clipPath></defs><g
     transform="matrix(1.25,0,0,-1.25,0,375)"
     id="g10"><g
       id="g12"><g
         clip-path="url(#clipPath16)"
         id="g14"><path
           d="m 449.686,0.034 -599.685,0 0,299.966 599.685,0 0,-299.966 z"
           id="path20"
           style="fill:#ffffff;fill-opacity:1;fill-rule:nonzero;stroke:none" /><g
           transform="translate(119.8556,120.1107)"
           id="g22"><path
             d="m 0,0 0,-120.077 59.975,0 0,120.077 269.856,0 0,59.969 -269.856,0 0,119.92 -59.975,0 0,-119.92 -269.856,0 0,-59.969 L 0,0 z"
             id="path24"
             style="fill:#cf142b;fill-opacity:1;fill-rule:nonzero;stroke:none" /></g><g
           transform="translate(199.8298,202.9006)"
           id="g26"><path
             d="m 0,0 0,97.099 194.16,0 L 0,0 z"
             id="path28"
             style="fill:#00247d;fill-opacity:1;fill-rule:nonzero;stroke:none" /></g><g
           transform="translate(199.8298,97.1333)"
           id="g30"><path
             d="m 0,0 0,-97.099 194.16,0 L 0,0 z"
             id="path32"
             style="fill:#00247d;fill-opacity:1;fill-rule:nonzero;stroke:none" /></g><g
           transform="translate(99.8564,97.1333)"
           id="g34"><path
             d="m 0,0 0,-97.099 -194.16,0 L 0,0 z"
             id="path36"
             style="fill:#00247d;fill-opacity:1;fill-rule:nonzero;stroke:none" /></g><g
           transform="translate(99.8564,202.9006)"
           id="g38"><path
             d="m 0,0 0,97.099 -194.16,0 L 0,0 z"
             id="path40"
             style="fill:#00247d;fill-opacity:1;fill-rule:nonzero;stroke:none" /></g><g
           transform="translate(449.6857,300)"
           id="g42"><path
             d="m 0,0 -33.308,0 -199.578,-99.986 33.308,0 L 0.314,0"
             id="path44"
             style="fill:#cf142b;fill-opacity:1;fill-rule:nonzero;stroke:none" /></g><g
           transform="translate(82.8855,100.025)"
           id="g46"><path
             d="m 0,0 -33.308,0 -199.578,-99.986 33.308,0 L 0.314,0"
             id="path48"
             style="fill:#cf142b;fill-opacity:1;fill-rule:nonzero;stroke:none" /></g><g
           transform="translate(16.5345,199.9361)"
           id="g50"><path
             d="M 0,0 33.308,0 -166.534,100.064 -166.535,83.294 0,0 z"
             id="path52"
             style="fill:#cf142b;fill-opacity:1;fill-rule:nonzero;stroke:none" /></g><g
           transform="translate(283.0451,100.0638)"
           id="g54"><path
             d="m 0,0 -33.308,0 199.842,-100.064 0.001,16.77 L 0,0 z"
             id="path56"
             style="fill:#cf142b;fill-opacity:1;fill-rule:nonzero;stroke:none" /></g></g></g></g></svg>