<?xml version="1.0" encoding="utf-8"?>
<!-- Generator: Adobe Illustrator 25.2.3, SVG Export Plug-In . SVG Version: 6.00 Build 0)  -->
<svg version="1.1" id="Layer_1" xmlns="http://www.w3.org/2000/svg" xmlns:xlink="http://www.w3.org/1999/xlink" x="0px" y="0px"
	 viewBox="0 0 1000 1000" style="enable-background:new 0 0 1000 1000;" xml:space="preserve">
<style type="text/css">
	.st0{fill:#FFFFFF;}
</style>
<g>
	<rect width="1000" height="1000"/>
</g>
<g>
	<g>
		<path class="st0" d="M557.6,593c-2-6.1-4.8-10.5-8.5-13.2c-3.7-2.7-8.6-4.1-14.6-4.1c-6.1,0-10.9,1.4-14.6,4.1
			c-3.7,2.7-6.5,7.2-8.5,13.2c-2,6.1-3.3,13.8-4,23.3c-0.7,9.5-1,21-1,34.7c0,13.6,0.3,25.2,1,34.8c0.7,9.6,2,17.3,4,23.3
			c2,6,4.8,10.3,8.5,13.1c3.7,2.7,8.6,4.1,14.6,4.1c6.1,0,10.9-1.4,14.6-4.1c3.7-2.7,6.5-7.1,8.5-13.1c2-6,3.3-13.7,4-23.3
			c0.7-9.6,1-21.2,1-34.8c0-13.6-0.3-25.2-1-34.7C560.9,606.8,559.6,599.1,557.6,593z"/>
		<g>
			<path class="st0" d="M294.3,508.9v281.8H900V508.9H294.3z M415.4,752.4h-40.9v-79.8l-52.6-123h46l26.7,78.4h0.6l28.4-78.4H468
				l-52.6,123V752.4z M601.3,693.6c-1.4,12.9-4.5,24-9.4,33.2c-4.8,9.3-11.8,16.4-20.9,21.3c-9.1,4.9-21.3,7.4-36.7,7.4
				c-15.3,0-27.6-2.5-36.7-7.4c-9.1-4.9-16.1-12-20.9-21.3c-4.8-9.3-8-20.4-9.4-33.2c-1.4-12.9-2.1-27.1-2.1-42.6
				c0-15.3,0.7-29.5,2.1-42.5c1.4-13,4.5-24.1,9.4-33.4c4.8-9.3,11.8-16.5,20.9-21.7c9.1-5.2,21.3-7.8,36.7-7.8
				c15.3,0,27.6,2.6,36.7,7.8c9.1,5.2,16.1,12.5,20.9,21.7c4.8,9.3,8,20.4,9.4,33.4c1.4,13,2.1,27.1,2.1,42.5
				C603.5,666.5,602.7,680.7,601.3,693.6z M747.5,691c0,12.9-1.8,23.5-5.4,32c-3.6,8.4-8.4,15.1-14.5,20c-6.1,4.9-13,8.2-20.7,9.9
				c-7.8,1.7-15.8,2.6-24.2,2.6c-8.3,0-16.4-0.8-24.1-2.3c-7.8-1.5-14.7-4.6-20.7-9.2c-6.1-4.6-10.9-11.2-14.5-19.7
				c-3.6-8.5-5.4-19.6-5.4-33.2V549.5h40.9V691c0,5.1,0.3,9.8,1,14.1c0.7,4.3,1.9,8,3.7,11.1c1.8,3.1,4.3,5.6,7.4,7.4
				c3.1,1.8,7.1,2.7,11.8,2.7c4.9,0,8.9-0.9,11.9-2.7c3-1.8,5.4-4.3,7.2-7.4c1.8-3.1,3-6.8,3.7-11.1c0.7-4.3,1-9,1-14.1V549.5h40.9
				V691z M820.4,636.7c-25.7,0-46.6-20.9-46.6-46.6s20.9-46.6,46.6-46.6c25.7,0,46.6,20.9,46.6,46.6S846.1,636.7,820.4,636.7z"/>
			<path class="st0" d="M833.5,587l-10-10l14.3-14.3c-5-3.2-11-5-17.3-5c-17.9,0-32.4,14.5-32.4,32.4c0,17.9,14.5,32.4,32.4,32.4
				c17.9,0,32.4-14.5,32.4-32.4c0-6.4-1.9-12.3-5-17.3L833.5,587z"/>
		</g>
	</g>
	<g>
		<path class="st0" d="M531.5,293.4c-2-6.1-4.8-10.5-8.5-13.2c-3.7-2.7-8.6-4.1-14.6-4.1c-6.1,0-10.9,1.4-14.6,4.1
			c-3.7,2.7-6.5,7.2-8.5,13.2c-2,6.1-3.3,13.8-4,23.3c-0.7,9.5-1,21-1,34.7c0,13.6,0.3,25.2,1,34.8c0.7,9.6,2,17.3,4,23.3
			c2,6,4.8,10.3,8.5,13.1c3.7,2.7,8.6,4.1,14.6,4.1c6.1,0,10.9-1.4,14.6-4.1c3.7-2.7,6.5-7.1,8.5-13.1c2-6,3.3-13.7,4-23.3
			c0.7-9.6,1-21.2,1-34.8c0-13.6-0.3-25.2-1-34.7C534.8,307.2,533.5,299.5,531.5,293.4z"/>
		<path class="st0" d="M377.8,368c-2.7-2.4-6-4-9.8-5c-3.8-0.9-8-1.4-12.5-1.4h-17.6v61.1h15.9c9.8,0,17.8-2.2,23.9-6.5
			c6.1-4.4,9.1-12.4,9.1-24.2c0-5.9-0.8-10.7-2.4-14.6C382.8,373.5,380.6,370.3,377.8,368z"/>
		<path class="st0" d="M374.4,327.1c5.2-4.1,7.8-10.9,7.8-20.6c0-9.7-2.4-16.5-7.1-20.5c-4.7-4-12.2-6-22.4-6h-14.8v53.1h11.6
			C360.9,333.2,369.2,331.1,374.4,327.1z"/>
		<polygon class="st0" points="203.5,285.1 183.9,376.4 223.7,376.4 204.1,285.1 		"/>
		<path class="st0" d="M100,209.3v281.8h800V209.3H100z M240.2,452.8l-9.4-42.9h-54l-9.4,42.9h-42.6l53.7-202.9h50.6l53.7,202.9
			H240.2z M426.3,416.1c-2.1,7.2-5.6,13.5-10.7,18.9c-5,5.4-11.6,9.7-19.6,12.9c-8.1,3.2-18,4.8-30,4.8h-69V249.9h68.5
			c8.3,0,16.1,0.9,23.2,2.6c7.1,1.7,13.2,4.5,18.3,8.5c5.1,4,9.1,9.3,11.9,15.9c2.8,6.6,4.3,14.8,4.3,24.4c0,11-2.6,20.4-7.7,28.3
			c-5.1,7.9-12.8,13.2-23,16.1v0.6c11.4,1.5,20.4,6.3,27,14.5c6.6,8.1,9.9,19,9.9,32.7C429.4,401.4,428.4,408.9,426.3,416.1z
			 M575.2,394c-1.4,12.9-4.5,24-9.4,33.2c-4.8,9.3-11.8,16.4-20.9,21.3c-9.1,4.9-21.3,7.4-36.7,7.4c-15.3,0-27.6-2.5-36.7-7.4
			s-16.1-12-20.9-21.3c-4.8-9.3-8-20.4-9.4-33.2c-1.4-12.9-2.1-27.1-2.1-42.6c0-15.3,0.7-29.5,2.1-42.5c1.4-13,4.5-24.1,9.4-33.4
			c4.8-9.3,11.8-16.5,20.9-21.7c9.1-5.2,21.3-7.8,36.7-7.8c15.3,0,27.6,2.6,36.7,7.8c9.1,5.2,16.1,12.5,20.9,21.7
			c4.8,9.3,8,20.4,9.4,33.4c1.4,13,2.1,27.1,2.1,42.5C577.4,366.9,576.7,381.1,575.2,394z M721.8,391.4c0,12.9-1.8,23.5-5.4,32
			c-3.6,8.4-8.4,15.1-14.5,20c-6.1,4.9-13,8.2-20.7,9.9c-7.8,1.7-15.8,2.6-24.2,2.6c-8.3,0-16.4-0.8-24.2-2.3
			c-7.8-1.5-14.7-4.6-20.7-9.2c-6.1-4.6-10.9-11.2-14.5-19.7c-3.6-8.5-5.4-19.6-5.4-33.2V249.9h40.9v141.5c0,5.1,0.3,9.8,1,14.1
			c0.7,4.3,1.9,8,3.7,11.1c1.8,3.1,4.3,5.6,7.4,7.4c3.1,1.8,7.1,2.7,11.8,2.7c4.9,0,8.9-0.9,11.9-2.7c3-1.8,5.4-4.3,7.2-7.4
			c1.8-3.1,3-6.8,3.7-11.1c0.7-4.3,1-9,1-14.1V249.9h40.9V391.4z M862.5,283.4h-44.3v169.3h-40.9V283.4h-44.3v-33.5h129.6V283.4z"/>
	</g>
</g>
</svg>
