<?xml version="1.0" encoding="utf-8"?>
<!-- Generator: Adobe Illustrator 25.2.3, SVG Export Plug-In . SVG Version: 6.00 Build 0)  -->
<svg version="1.1" id="Layer_1" xmlns="http://www.w3.org/2000/svg" xmlns:xlink="http://www.w3.org/1999/xlink" x="0px" y="0px"
	 viewBox="0 0 1000 1000" style="enable-background:new 0 0 1000 1000;" xml:space="preserve">
<style type="text/css">
	.st0{fill:#0083D4;}
	.st1{fill:#FFFFFF;}
</style>
<g>
	<rect class="st0" width="1000" height="1000"/>
</g>
<g>
	<path class="st1" d="M949.1,361.9c-82.2,5.3-200.2,60.8-277,151c-14.3,16.1-26.8,32.2-36.7,49.2h264.5
		C935.7,490.6,954.4,420,949.1,361.9z"/>
	<path class="st1" d="M747.2,733.7H566.6c-5.3,28.6-5.3,55.4-5.3,75.1C614,805.2,683.7,781.1,747.2,733.7z"/>
	<path class="st1" d="M364.6,562.1c-9.8-16.9-23.3-33.1-36.6-49.2c-76.9-90.2-195.7-145.7-277.1-151C45.6,420,63.4,490.6,99.2,562.1
		H364.6z"/>
	<path class="st1" d="M614,562.1c1.8-20.6,3.6-40.2,3.6-63.4c0-125.1-56.3-254.7-118-312.8c-62.6,58.1-118,187.7-118,312.8
		c0,23.2,0,42.9,3.6,63.4H614z"/>
	<path class="st1" d="M436.1,808.8c0.9-19.6,0.9-46.4-2.7-75.1H251.1C315.5,781.1,385.2,805.2,436.1,808.8z"/>
	<path class="st1" d="M882.1,596.1H117c5.4,11.6,17.9,27.7,23.3,34.8h717.6C866.9,622,876.7,606.8,882.1,596.1z"/>
	<path class="st1" d="M828.5,667.6H169.8c10.7,12.5,22.3,24.1,33.9,32.1h588.1C806.1,691.7,819.5,680.1,828.5,667.6z"/>
	<path class="st1" d="M499.6,814.1c18.7-19.6,38.4-46.5,56.3-80.4H442.4C461.2,767.6,479,794.5,499.6,814.1z"/>
</g>
</svg>
