<svg id="Layer_1" data-name="Layer 1" xmlns="http://www.w3.org/2000/svg" viewBox="0 0 600 600"><defs><style>.cls-1{fill:#0064c4;}</style></defs><path class="cls-1" d="M0,0V252.25L22.48,200H61.26L74,229.32V200H122.2l7.6,21.21L137.14,200H353.69v10.67A46.62,46.62,0,0,1,383.78,200l70.26.26,12.52,28.93V200h40.37l11.12,16.61V200H558.8v94H518.05l-10.67-16.67V294H448.1l-5.94-14.82h-16L420.31,294H380.07a39.75,39.75,0,0,1-26.38-10.41V294H293.07L281,279.14V294H55.51l-5.94-14.82H33.66L27.72,294H0V598.53H598.53V410.6s-9.45,6.39-20.38,6.46H378.22l-12.07-14.82v14.82H326.73v-25.3s-5.36,3.51-17.05,3.51H296.26v21.79H236.54l-10.67-14.25-10.79,14.25H116.19v-94h99.52L226.38,337l11.05-13.93H598.59V0Z"/><path id="path3046" class="cls-1" d="M30.41,211.56.13,281.89H19.8l5.56-14.12H57.81l5.56,14.12H83.49L53.27,211.5l-22.86.06Zm11.17,16.35,9.91,24.6H31.68Z"/><path id="path3048" class="cls-1" d="M85.66,281.89V211.56l28,.13L129.93,257l15.9-45.48h27.79V282H156V230.09L137.34,282H121.88l-18.72-51.86V282H85.66Z"/><path id="path3050" class="cls-1" d="M185.63,281.89V211.56h57.42v15.72h-39.6v12h38.71V254.1H203.45v12.52h39.6v15.27Z"/><path id="path3052" class="cls-1" d="M253.21,211.56v70.33h17.57v-25h7.41l21.08,25h21.52L297.67,256A21.42,21.42,0,0,0,317,234.37c0-14.82-11.63-22.81-24.59-22.81Zm17.63,15.72H291c4.86,0,8.31,3.76,8.31,7.41,0,4.66-4.54,7.41-8,7.41H270.84V227.28Z"/><path id="path3054" class="cls-1" d="M342.13,281.89H324.18V211.56h17.95Z"/><path id="path3056" class="cls-1" d="M384.67,281.89h-3.83c-18.78,0-30.15-14.75-30.15-34.88,0-20.63,11.24-35.45,34.94-35.45h19.42v16.67H384.93c-9.65,0-16.42,7.48-16.42,19,0,13.6,7.79,19.35,19,19.35h4.6Z"/><path id="path3058" class="cls-1" d="M423,211.56l-30.28,70.33h19.67L418,267.77h32.51L456,281.89h20.12L445.93,211.5l-22.93.06Zm11.17,16.35,9.91,24.6H424.27l9.9-24.6Z"/><path id="path3060" class="cls-1" d="M478.19,281.89V211.56h22.35l28.56,44.2v-44.2h17.56V282H525L495.75,236.6V282H478.19Z"/><path id="path3062" class="cls-1" d="M128.27,405.05v-70.4h57.42v15.72h-39.6v12h38.64V377.2H146v12.52h39.61V405Z"/><path id="path3064" class="cls-1" d="M409.52,405.05v-70.4h57.42v15.72h-39.6v12h38.45V377.2H427.28v12.52h39.6V405Z"/><path id="path3066" class="cls-1" d="M187.86,405.05l28-34.75-28.62-35.65h22.17l17.06,22,17.11-22h21.28l-28.3,35.2,28,35.2H242.35l-16.54-21.66-16.16,21.66Z"/><path id="path3068" class="cls-1" d="M266.62,334.72v70.39H284.7V382.88h18.53c15.65,0,27.53-8.3,27.53-24.46,0-13.42-9.33-23.64-25.23-23.64H266.62Zm18.08,15.9h19.48c5.05,0,8.69,3.13,8.69,8.12,0,4.72-3.58,8.11-8.75,8.11H284.7V350.62Z"/><path id="path3072" class="cls-1" d="M338.42,334.65v70.4H356v-25h7.41l21.08,25H406l-23.12-25.94a21.41,21.41,0,0,0,19.29-21.59c0-14.82-11.62-22.8-24.59-22.8l-39.16-.07ZM356,350.43h20.12c4.85,0,8.3,3.77,8.3,7.41,0,4.66-4.53,7.41-8,7.41H356Z"/><path id="path3074" class="cls-1" d="M475.06,405.05V389.78h35.19c5.24,0,7.48-2.81,7.48-5.88s-2.24-5.94-7.48-5.94h-15.9c-13.8,0-21.53-8.43-21.53-21.08,0-11.3,7-22.16,27.6-22.16h34.23l-7.41,15.84H497.6c-5.68,0-7.41,3-7.41,5.81a6.13,6.13,0,0,0,6.46,6.13h16.67c15.39,0,22.1,8.76,22.1,20.19,0,12.33-7.47,22.42-22.93,22.42H475.06Z"/><path id="path3076" class="cls-1" d="M539.64,405.05V389.78h35.19c5.24,0,7.48-2.81,7.48-5.88s-2.24-5.94-7.48-5.94h-15.9c-13.8,0-21.53-8.43-21.53-21.08,0-11.3,7-22.16,27.6-22.16h34.23l-7.41,15.84H562.18c-5.68,0-7.41,3-7.41,5.81a6.13,6.13,0,0,0,6.46,6.13H577.9c15.39,0,22.1,8.76,22.1,20.19,0,12.33-7.47,22.42-22.93,22.42H539.64Z"/></svg>