<?xml version="1.0" encoding="utf-8"?>
<!-- Generator: Adobe Illustrator 23.1.1, SVG Export Plug-In . SVG Version: 6.00 Build 0)  -->
<svg version="1.1" id="Layer_1" xmlns="http://www.w3.org/2000/svg" xmlns:xlink="http://www.w3.org/1999/xlink" x="0px" y="0px"
	 viewBox="0 0 1000 1000" style="enable-background:new 0 0 1000 1000;" xml:space="preserve">
<style type="text/css">
	.st0{fill:#016FD0;}
</style>
<g>
	<path class="st0" d="M30.8,32v394.9L66,345.1h60.7l19.9,45.9v-45.9h75.5l11.9,33.2l11.5-33.2h339v16.7c0,0,17.8-16.7,47.1-16.7
		l110,0.4l19.6,45.3v-45.7h63.2l17.4,26v-26h63.8v147.1h-63.8l-16.7-26.1v26.1h-92.8l-9.3-23.2h-25l-9.2,23.2h-63
		c-25.2,0-41.3-16.3-41.3-16.3v16.3h-94.9L470.7,469v23.2h-353l-9.3-23.2H83.5l-9.3,23.2H30.8V969h937V674.8c0,0-14.8,10-31.9,10.1
		H622.9L604,661.7v23.2h-61.7v-39.6c0,0-8.4,5.5-26.7,5.5h-21v34.1h-93.5l-16.7-22.3l-16.9,22.3H212.7V537.8h155.8l16.7,21.8
		l17.3-21.8h565.4V32H30.8z"/>
</g>
<path id="path3046" class="st0" d="M78.4,363.2L31,473.3h30.8l8.7-22.1h50.8l8.7,22.1h31.5l-47.3-110.2L78.4,363.2L78.4,363.2z
	 M95.9,388.8l15.5,38.5h-31L95.9,388.8z"/>
<path id="path3048" class="st0" d="M164.9,473.3V363.2l43.8,0.2l25.5,71l24.9-71.2h43.5v110.2H275v-81.2l-29.2,81.2h-24.2
	l-29.3-81.2v81.2H164.9z"/>
<path id="path3050" class="st0" d="M321.4,473.3V363.2h89.9v24.6h-62v18.8h60.6v23.2h-60.6v19.6h62v23.9L321.4,473.3z"/>
<path id="path3052" class="st0" d="M427.2,363.2v110.1h27.5v-39.1h11.6l33,39.1H533l-36.2-40.6c14.9-1.3,30.2-14,30.2-33.8
	c0-23.2-18.2-35.7-38.5-35.7L427.2,363.2L427.2,363.2z M454.8,387.8h31.5c7.6,0,13,5.9,13,11.6c0,7.3-7.1,11.6-12.6,11.6h-31.9
	L454.8,387.8L454.8,387.8z"/>
<path id="path3054" class="st0" d="M566.4,473.3h-28.1V363.2h28.1V473.3z"/>
<path id="path3056" class="st0" d="M633,473.3H627c-29.4,0-47.2-23.1-47.2-54.6c0-32.3,17.6-55.5,54.7-55.5h30.4v26.1h-31.5
	c-15.1,0-25.7,11.7-25.7,29.7c0,21.3,12.2,30.3,29.7,30.3h7.2L633,473.3z"/>
<path id="path3058" class="st0" d="M693,363.2l-47.4,110.1h30.8l8.7-22.1H736l8.7,22.1h31.5l-47.3-110.2L693,363.2L693,363.2z
	 M710.5,388.8l15.5,38.5h-31L710.5,388.8L710.5,388.8z"/>
<path id="path3060" class="st0" d="M779.4,473.3V363.2h35l44.7,69.2v-69.2h27.5v110.2h-33.9l-45.8-71v71H779.4z"/>
<path id="path3062" class="st0" d="M231.6,666.1V555.9h89.9v24.6h-62v18.8H320v23.2h-60.6v19.6h62v23.9L231.6,666.1z"/>
<path id="path3064" class="st0" d="M671.9,666.1V555.9h89.9v24.6h-62v18.8H760v23.2h-60.3v19.6h62v23.9L671.9,666.1z"/>
<path id="path3066" class="st0" d="M324.9,666.1l43.8-54.4l-44.8-55.8h34.7l26.7,34.5l26.8-34.5h33.3L401.1,611l43.8,55.1h-34.7
	l-25.9-33.9l-25.3,33.9L324.9,666.1z"/>
<path id="path3068" class="st0" d="M448.2,556v110.2h28.3v-34.8h29c24.5,0,43.1-13,43.1-38.3c0-21-14.6-37-39.5-37H448.2L448.2,556z
	 M476.5,580.9H507c7.9,0,13.6,4.9,13.6,12.7c0,7.4-5.6,12.7-13.7,12.7h-30.4V580.9L476.5,580.9z"/>
<path id="path3072" class="st0" d="M560.6,555.9v110.2h27.5V627h11.6l33,39.1h33.7l-36.2-40.6c14.9-1.3,30.2-14,30.2-33.8
	c0-23.2-18.2-35.7-38.5-35.7L560.6,555.9L560.6,555.9z M588.1,580.6h31.5c7.6,0,13,5.9,13,11.6c0,7.3-7.1,11.6-12.6,11.6h-31.9
	V580.6z"/>
<path id="path3074" class="st0" d="M774.5,666.1v-23.9h55.1c8.2,0,11.7-4.4,11.7-9.2c0-4.6-3.5-9.3-11.7-9.3h-24.9
	c-21.6,0-33.7-13.2-33.7-33c0-17.7,11-34.7,43.2-34.7h53.6l-11.6,24.8h-46.4c-8.9,0-11.6,4.7-11.6,9.1c0,4.6,3.4,9.6,10.1,9.6h26.1
	c24.1,0,34.6,13.7,34.6,31.6c0,19.3-11.7,35.1-35.9,35.1H774.5z"/>
<path id="path3076" class="st0" d="M875.6,666.1v-23.9h55.1c8.2,0,11.7-4.4,11.7-9.2c0-4.6-3.5-9.3-11.7-9.3h-24.9
	c-21.6,0-33.7-13.2-33.7-33c0-17.7,11-34.7,43.2-34.7h53.6l-11.6,24.8h-46.4c-8.9,0-11.6,4.7-11.6,9.1c0,4.6,3.4,9.6,10.1,9.6h26.1
	c24.1,0,34.6,13.7,34.6,31.6c0,19.3-11.7,35.1-35.9,35.1H875.6z"/>
</svg>
