<?xml version="1.0" encoding="utf-8"?>
<!-- Generator: Adobe Illustrator 24.3.0, SVG Export Plug-In . SVG Version: 6.00 Build 0)  -->
<svg version="1.1" id="Layer_1" xmlns="http://www.w3.org/2000/svg" xmlns:xlink="http://www.w3.org/1999/xlink" x="0px" y="0px"
	 viewBox="0 0 1000 1000" style="enable-background:new 0 0 1000 1000;" xml:space="preserve">
<style type="text/css">
	.st0{fill:#FFFFFF;}
	.st1{fill:#FF0000;}
</style>
<path d="M861.4,941.6H138.7c-53.4,0-96.7-43.3-96.7-96.7V130.7C42,77.3,85.3,34,138.7,34h722.6c53.4,0,96.7,43.3,96.7,96.7v714.1
	C958.1,898.3,914.8,941.6,861.4,941.6z"/>
<g>
	<g>
		<path class="st0" d="M138.9,396.5L83.4,559.3H116l15.7-47.5h45.2l16.1,47.5h33.3l-55.7-162.8H138.9z M168.9,484.7h-29.2l12.2-35.8
			c0.8-2.5,1.7-4.9,2.4-7.2c0.8,2.5,1.5,5,2.5,7.6L168.9,484.7z"/>
		<path class="st0" d="M281.2,485.1c-15-6-16.7-8.8-16.7-13.1c0-5.6,4.6-8.9,12.1-8.9c8.8,0,15.7,3.5,19,5.6l6.4,4l8.5-25.8
			l-3.9-2.5c-7.4-4.9-18.5-7.6-29.7-7.6c-25.1,0-43.3,15.8-43.3,37.8c0,20.1,17.8,30.8,32.8,36.3c14.9,5.6,16.1,9.4,16.1,14.2
			c0,8.9-9.3,10.1-14.9,10.1c-8.6,0-17.9-3.6-23.2-6.8l-6.4-3.8l-8.3,26.3l4,2.4c9.2,5.4,21.4,8.5,33.5,8.5
			c27.6,0,46.3-15.6,46.3-38.6C313.4,499.9,294.9,490.3,281.2,485.1z"/>
		<path class="st0" d="M362.5,410.9l-31.1,9.4V439h-16.8v26.8h16.8V519c0,14.9,2.9,25.4,9.2,32.5c6.1,6.5,15.1,10.3,25.7,10.3
			c9.4,0,16.3-1.9,19.5-3.1l4.2-1.4l-1.7-27l-7.2,2.1c-2.1,0.6-4.6,1.1-9.7,1.1c-3.8,0-8.9,0-8.9-15.1v-52.7h28.2V439h-28.1V410.9
			L362.5,410.9z"/>
		<path class="st0" d="M466.5,437.9l-5.7-0.8c-1.7-0.3-3.3-0.4-5.6-0.4c-9.9,0-18.9,4-25.8,11.1L429,439h-29.2l0.4,6.3
			c0.6,9.3,1,19.9,1,33.5v80.6h31.5v-63.6c0-2.9,0.3-6,0.6-8.1c2.4-12.5,10.1-20.3,20.7-20.3c2.5,0,4,0,5.4,0.3l7.2,1.5L466.5,437.9
			L466.5,437.9z"/>
		<path class="st0" d="M523.9,436.8c-35.1,0-59.7,26-59.7,63.4c0,36.4,23.8,61.7,57.9,61.7c28.9,0,59.9-19.9,59.9-63.5
			C582.1,462.1,558.2,436.8,523.9,436.8z M550.2,499c0,21-11.4,36.3-27,36.3s-26.8-15.1-26.8-35.7c0-13.3,5.7-36,27.2-36
			C544.6,463.3,550.2,486.7,550.2,499z"/>
		<path class="st0" d="M685.5,409.4c-10.3-9.3-26-14-46.3-14c-13.6,0-26.5,1-38.5,2.9l-4.9,0.8v160.2h31.3v-59.5
			c3.2,0.3,6.5,0.4,9.9,0.4c21.1,0,39-6.5,50.4-18.3c8.9-9.2,13.3-21.4,13.3-36.4C700.6,431,695.2,418.2,685.5,409.4z M669.4,446.5
			c0,22.8-20,26.1-32,26.1c-4,0-7.4-0.1-10.1-0.6v-48.9c3.1-0.4,7.2-0.6,12.5-0.6C653.1,422.6,669.4,426.8,669.4,446.5z"/>
		<path class="st0" d="M796.5,527.4v-40.6c0-32.4-16.8-50-47.1-50c-14,0-28.8,3.9-38.9,10.3l-4,2.5l8.5,25l6.4-4.3
			c6.5-4.4,16-7.1,25.1-7.1c6.4-0.1,11,1.4,14,4.3c2.5,2.5,4,6.3,4.6,11c-24.6,0.7-42.5,6.5-53.6,17.5c-7.6,7.6-11.5,17.2-11.5,28.8
			c0,18.5,13.3,37.1,39.2,37.1c11,0,21.3-3.5,29.3-9.6l0.8,7.2h29.9l-1.1-6.8C797,546,796.5,537.5,796.5,527.4z M744,535.4
			c-4.7,0-12.5-1.7-12.5-12.9c0-4.3,1.3-7.8,4-10.4c3.6-3.6,11.8-7.8,30.1-8.1v12.9c0,1-0.1,2.6-0.6,4.3
			C762.9,527.8,756,535.4,744,535.4z"/>
		<path class="st0" d="M883.3,439l-22.9,67.7c-0.6,1.7-1.1,3.5-1.7,5.1c-0.6-1.7-1.1-3.3-1.8-4.9l-25-67.9h-34.3L840.7,547l0.1,0.3
			c0.7,1.4,1,2.2,1,2.5c-0.3,0.6-0.7,1.7-1,2.4c-3.8,7.9-9.3,15.4-14.9,19.9l-0.1,0.1c-6.3,5.4-12.6,7.8-15.3,8.5l-5.6,1.8l8.1,27
			l5.1-1c3.2-0.6,14.3-3.2,27.1-13.9c15.3-13.6,25.4-35.1,38.8-70.2l32.6-85.3H883.3L883.3,439z"/>
		<path class="st1" d="M198.4,441.2c20.3-20.7,54.7-33.1,92.1-33.1c14.6,0,28.8,1.8,42.2,5.6l1.1,0.3l23.9-7.2l-10.7-4.2
			c-20.4-7.8-43.9-11.9-68.1-11.9c-35.1,0-67.9,8.5-92.2,23.9l-2.6,1.7l10.1,29.6L198.4,441.2z"/>
	</g>
</g>
</svg>
