<?xml version="1.0" encoding="utf-8"?>
<!-- Generator: Adobe Illustrator 22.1.0, SVG Export Plug-In . SVG Version: 6.00 Build 0)  -->
<svg version="1.1" id="Layer_1" xmlns="http://www.w3.org/2000/svg" xmlns:xlink="http://www.w3.org/1999/xlink" x="0px" y="0px"
	 viewBox="0 0 1000 1000" style="enable-background:new 0 0 1000 1000;" xml:space="preserve">
<style type="text/css">
	.st0{fill:#0081B4;}
	.st1{fill:#FFFFFF;}
</style>
<path class="st0" d="M867.3,946H132.7c-44,0-79.7-35.7-79.7-79.7V131.7c0-44,35.7-79.7,79.7-79.7h734.7c44,0,79.7,35.7,79.7,79.7
	v734.7C947,910.3,911.3,946,867.3,946z"/>
<g id="surface1">
	<path class="st1" d="M757.2,456.6c0,0,60.2,3,60.2-32.3c0-46.3-80.1-88-80.1-88s12.6-26.6,20.4-41.5c7.9-14.9,29.9-73,31.9-86.2
		c2.5-16.7-1.3-21.9-1.3-21.9c-5.4,35.7-63.6,138.6-68.2,142.1c-56.8-26.6-134.7-34-134.7-34S509,134,437.2,134
		c-71.2,0-70.8,137.6-70.8,137.6s-20.1-39-45.3-39c-36.9,0-49,55.9-49,116.4c-72.9,0-134.2,16.3-139.7,17.8
		c-5.5,1.6-22.7,14.1-14.9,12.6c16-5.1,90.8-16.7,156.4-11c3.6,57.5,37.2,132.5,37.2,132.5s-72,104.3-72,178.8
		c0,19.6,8.5,55.5,60.2,55.5c43.3,0,91.9-26,101.1-31.3c-8,11.4-13.9,33.1-13.9,43.1c0,8.2,4.8,31.3,38.2,31.3
		c42.9,0,90.8-32.9,90.8-32.9s45.2,75.2,83.9,109.7c10.4,9.3,20.4,11,20.4,11s-38.4-37-89.1-132.3c47.1-29.1,96-97.6,96-97.6
		s5.8,0.2,50.5,0.2c70,0,169.4-14.7,169.4-70.4C846.6,508.5,757.2,456.6,757.2,456.6z M765,422c0,20.3-19.3,20-19.3,20l-14.7,1
		c0,0-27.9-14.7-44.7-21.5c0,0,26.2-40.4,32.3-51.6C723.2,372.6,765,398.8,765,422z M472.2,215c32.9,0,79.8,77.7,79.8,77.7
		s-73.3-6.6-133.6,28.9C420.1,265.6,438.9,215,472.2,215z M341.8,277.9c10.5,0,20.7,12.7,25,23.5c0,7.1,3.7,48.7,3.7,48.7l-60.4-2.3
		C310,293.4,331.4,277.9,341.8,277.9z M335.6,656.3c-33,0-39.9-18.4-39.9-35c0-37.5,29.9-89.9,29.9-89.9s33.5,70.5,92.1,100.3
		C388.7,648.7,364.7,656.3,335.6,656.3z M442.8,730.1c-23.2,0-26-15-26-18.5c0-10.8,8.4-23.5,8.4-23.5s38.9-26.3,41.4-29.1
		l28.7,53.6C495.3,712.7,465.9,730.1,442.8,730.1z M515,700.9c-14.1-24.7-24.5-50.4-24.5-50.4s57.8,3.8,88.9-28.4
		c-19.4,8.7-50.3,19.7-86.2,16.4c75.1-66.2,119-114.1,156-163.8c-3.2-3.8-20.1-15.7-24.3-17.6c-22.3,26.9-109.4,120-189.9,166
		c-102-55.6-123.4-219.3-125.6-253.4l55.8,5.4c0,0-21,37.1-21,64.5c0,27.3,3.3,28.8,3.3,28.8s-0.7-47.7,28.7-84.4
		c22.4,119.3,45.8,180.4,64,216.8c9.2-3.8,26.5-11.5,26.5-11.5S415.2,440.8,418,340.4c23.4-12.5,57.9-25.3,96.9-25.3
		c102.6,0,185.1,44.2,185.1,44.2l-32.3,45.1c0,0-28.8-52.1-69.4-61.4c21.4,16,45.5,37.1,57.9,67.5c-85.1-33.2-187.7-50.8-220.6-54.7
		c-2.9,12.2-2.5,29.5-2.5,29.5s137.7,25.4,237.9,82.7C670.3,593.4,533.8,689.7,515,700.9z M645.4,607.2c0,0,42.7-56.1,42.1-130.4
		c0,0,69,42.8,69,84.5C756.5,607.9,645.4,607.2,645.4,607.2z"/>
</g>
</svg>
