<?xml version="1.0" encoding="utf-8"?>
<!-- Generator: Adobe Illustrator 23.0.1, SVG Export Plug-In . SVG Version: 6.00 Build 0)  -->
<svg version="1.1" id="Layer_1" xmlns="http://www.w3.org/2000/svg" xmlns:xlink="http://www.w3.org/1999/xlink" x="0px" y="0px"
	 viewBox="0 0 1000 1000" style="enable-background:new 0 0 1000 1000;" xml:space="preserve">
<style type="text/css">
	.st0{fill-rule:evenodd;clip-rule:evenodd;fill:#D91918;}
	.st1{fill-rule:evenodd;clip-rule:evenodd;fill:#FFFFFF;}
</style>
<title>bliep</title>
<g id="layer1">
	<g id="g1945">
		<path id="_81408128" class="st0" d="M76.8,35.9H925c0,355.6,0,648.4,0,928.1H76.8V35.9L76.8,35.9z"/>
		<path id="_81405672" class="st1" d="M519.1,830h83.5V152.7h-83.5V830z M363.3,793.2c0,20.2-16.3,36.5-36.4,36.5H162.3l0.1-677.1
			h164.7c19.9,0,36.1,16.3,36.2,36.5v237.3c0,19.1-15.7,34.6-34.8,34.6l-3.7,0c21.1,0,38.5,17.2,38.5,38.3v14.9V793.2L363.3,793.2z
			 M245.8,236.3h34.3v192.9h-34.3V236.3z M245.8,512.1h34.3V746h-34.3V512.1z M839.6,830V152.7h-83.5v117.9h-81.3
			c-19.9,0-36,16.3-36.1,36.5l-0.1,486.1c0.1,20.2,16.3,36.5,36.4,36.5L839.6,830L839.6,830z M756.1,353.3h-34.3V746h34.3V353.3z
			 M399.4,236.3h83.5v-83.6h-83.5V236.3z M399.4,830h83.5V270.6h-83.5V830z"/>
	</g>
</g>
</svg>
