<?xml version="1.0" encoding="utf-8"?>
<!-- Generator: Adobe Illustrator 23.0.1, SVG Export Plug-In . SVG Version: 6.00 Build 0)  -->
<svg version="1.1" id="Layer_1" xmlns="http://www.w3.org/2000/svg" xmlns:xlink="http://www.w3.org/1999/xlink" x="0px" y="0px"
	 viewBox="0 0 1000 1000" style="enable-background:new 0 0 1000 1000;" xml:space="preserve">
<style type="text/css">
	.st0{fill:#517EDB;}
	.st1{fill-rule:evenodd;clip-rule:evenodd;fill:#FFFFFF;}
	.st2{fill-rule:evenodd;clip-rule:evenodd;fill:#F08900;}
</style>
<path class="st0" d="M92.2,0h815.5c50.9,0,92.2,41.3,92.2,92.2v815.5c0,50.9-41.3,92.2-92.2,92.2H92.2C41.3,1000,0,958.7,0,907.8
	V92.2C0,41.3,41.3,0,92.2,0z"/>
<g id="Symbols">
	<g id="Logotipo">
		<g id="Group-3" transform="translate(1.000000, 0.000000)">
			<path id="BITSA" class="st1" d="M82.4,387.3h99.3c24.5,0,41.4,4.3,50.8,12.9c9.4,8.6,14.1,21,14.1,36.9c0,5.9-0.5,11.5-1.3,16.7
				c-1.9,11.1-6.8,21-14.5,29.5s-17.6,14-29.7,16.6c12.5,3.3,21.6,8.5,27.1,15.6c5.5,7,8.3,17.2,8.3,30.4c0,6.3-0.6,13.2-1.9,20.5
				c-3.2,20.2-12.4,34.4-27.5,42.8c-15,8.3-36.4,12.4-64.1,12.4H44.7L82.4,387.3z M164.2,479.4c5.8,0,10.1-1.3,12.8-4
				c2.7-2.6,4.6-6.1,5.7-10.6c1.1-4.8,1.6-8.4,1.6-10.8c0-4.5-1.3-7.5-3.9-9.3c-2.6-1.8-6.6-2.7-12-2.7h-31.8l-6.1,37.2L164.2,479.4
				L164.2,479.4z M151.2,566.8c8.6,0,14.8-1.5,18.6-4.5s6.2-8.4,7.3-16.4c0.2-1.5,0.3-3.6,0.3-6.3c0-5-1.6-8.6-4.7-10.8
				c-3.2-2.1-8.5-3.2-16-3.2h-33.8l-6.5,41L151.2,566.8L151.2,566.8z M293,387.3h63l-38.3,234.5h-63L293,387.3z M430.9,442.2h-59.7
				l9.1-54.9h182.4l-9.1,54.9h-59.7l-29.2,179.6h-63L430.9,442.2z M634.5,623.6c-21.2,0-48.6,0-82.1,0l7.8-54.9
				c29.6,0,53.8,0,72.7,0c12.3,0,21-1.1,25.8-3.3s7.9-6.1,8.9-11.9l0.6-3.4c0.2-1,0.3-2.4,0.3-4.1c0-4.2-1.8-7.1-5.4-8.8
				c-3.5-1.7-9.4-2.5-17.3-2.5h-13c-19.3,0-34.5-5.2-45.6-15.5s-16.7-23.6-16.7-39.8c0-4.5,0.3-8.9,0.9-13.5l2.9-18
				c3.7-21.9,13.2-37.7,28.6-47.7c15.4-9.9,36.4-14.8,63.3-14.8c16.9,0,42,0,75.3,0l-7.8,54.9c-30.3,0-55.6,0-75.6,0
				c-14.9,0-23.3,4.9-24.9,14.8l-0.6,3.4c-0.5,2.5-0.6,4.3-0.6,5.4c0,8.6,5.5,12.9,16.5,12.9h14.3c21.2,0,37.7,5,49.5,15
				s17.7,23,17.7,39c0,3.8-0.3,7.9-0.9,12.3l-3.5,22.1c-2.1,13.3-6.3,24.1-12.5,32.5c-6.1,8.4-15.6,14.8-28.2,19.3
				C671.9,621.4,655.2,623.6,634.5,623.6z M835.6,387.3h78.6l33.1,234.5h-65.2l-3.5-37.2h-72.3l-15.6,37.2H726L835.6,387.3z
				 M872.6,529.6l-6.8-90.2l-36.4,90.2H872.6z"/>
			<path id="Path-9" class="st2" d="M123,346.4l-31.3-9.6c8.8-19.7,22.8-29.5,42-29.5c28.8,0,28.2,14.8,47.9,14.8
				c7.4,0,13-3.7,16.9-11.2l30.9,11c-11.6,19.3-26.6,28.9-45,28.9c-27.6,0-28.8-15-46.8-14C131.4,337,126.5,340.3,123,346.4z"/>
		</g>
	</g>
</g>
</svg>
