<?xml version="1.0" encoding="utf-8"?>
<!-- Generator: Adobe Illustrator 23.0.1, SVG Export Plug-In . SVG Version: 6.00 Build 0)  -->
<svg version="1.1" id="Layer_1" xmlns="http://www.w3.org/2000/svg" xmlns:xlink="http://www.w3.org/1999/xlink" x="0px" y="0px"
	 viewBox="0 0 1000 1000" style="enable-background:new 0 0 1000 1000;" xml:space="preserve">
<style type="text/css">
	.st0{fill:#00ACE8;}
	.st1{fill:#723789;}
</style>
<title>bouygues</title>
<g>
	<path class="st0" d="M204.9,381.9c0-12.2-6.6-20-15.1-20h-30.2v41.8h29C198.5,403.6,204.9,394.9,204.9,381.9z"/>
	<path class="st0" d="M581.5,433c-18.9,0-32.7,13-32.7,31.9c0,19.1,13.8,31.9,32.7,31.9c17.6,0,33.3-12.7,33.3-31.9
		C614.7,446,599,433,581.5,433z"/>
	<path class="st0" d="M198.1,454.5h-38.5v47.8h37.8c13,0,20.1-9.4,20.1-24.4C217.5,463.6,209.6,454.5,198.1,454.5z"/>
	<path class="st0" d="M24.2,275.1v449.8h951.5V275.1H24.2z M219.3,564.2H53.8v-61.8h25.4V369.4H53.8v-67.7h165.1
		c49.5,0,81.8,28.6,81.8,71.7c0,36-20.2,49.3-38.3,51.2v1.6c25,2,46,24.8,46,64.3C308.4,534,278.1,564.2,219.3,564.2z M433.7,564.2
		h-84.2V368.5h-27.2v-66.7h27.2h84.2V564.2z M697.5,570.1h-80.8v-16.5c-15,14.4-35.1,22.7-60.2,22.7c-51.3,0-94.5-44.2-94.5-109.8
		c0-65.2,43.2-109.8,94.5-109.8c25.1,0,45.1,8.3,60.2,22.7v-16.5h80.8V570.1z M947.5,565.2h-81.4v-19.4
		c-16.2,16.2-34.9,25.5-61.8,25.5c-50,0-74.3-33.6-74.3-84.7V361.8h83.1v114.7c0,13,10.5,23.5,23.5,23.5h0c13,0,23.5-10.5,23.5-23.5
		V361.8h87.5V565.2z"/>
</g>
<rect x="53.8" y="623.5" class="st1" width="893.7" height="76.2"/>
</svg>
