<?xml version="1.0" encoding="utf-8"?>
<!-- Generator: Adobe Illustrator 23.0.1, SVG Export Plug-In . SVG Version: 6.00 Build 0)  -->
<svg version="1.1" id="Layer_1" xmlns="http://www.w3.org/2000/svg" xmlns:xlink="http://www.w3.org/1999/xlink" x="0px" y="0px"
	 viewBox="0 0 1000 1000" style="enable-background:new 0 0 1000 1000;" xml:space="preserve">
<style type="text/css">
	.st0{fill:#001589;}
	.st1{fill:#FFFFFF;}
</style>
<rect class="st0" width="1000" height="1000"/>
<path class="st1" d="M24.2,769.7h50.6v41.7c9.7-3.7,19.9-5.5,30.2-5.5c20.5,0.2,37.1,6.6,49.8,19.4c12.9,12.8,19.5,29.4,19.7,49.8
	c0,16-5.3,30.7-15.9,44.1c-10.9,14.3-28.2,21.6-51.7,21.9H24.2V769.7z M74.8,897.2c6.8,1.2,12.6,1.7,17.4,1.7
	c9.8,0,17.4-2.4,22.9-7.1c5.6-4.4,8.5-10.6,8.7-18.3c0-7.8-2.7-14-8-18.7c-5.6-4.5-12.9-6.8-21.9-6.9c-5.9,0-12.3,1-19.1,3.1V897.2
	L74.8,897.2L74.8,897.2z M181.3,874.5c-0.2-17.9,6-33.7,18.6-47.3c12.3-13.9,31.9-21,58.7-21.4c27.8,0.5,47.8,7.9,59.8,22.3
	c11.8,13.8,17.6,29.3,17.5,46.5c0,18.3-6.2,34.1-18.7,47.3c-12.6,13.9-32,21.1-58.1,21.4c-27.5-0.5-47.4-7.9-59.7-22.4
	C187.1,906.9,181.1,891.5,181.3,874.5L181.3,874.5z M231.8,874.5c0,7.6,2.5,13.8,7.5,18.5c4.8,4.9,11.2,7.3,19.2,7.3
	c8.1,0,14.6-2.4,19.4-7.3c4.9-4.7,7.3-10.8,7.3-18.5s-2.4-13.9-7.3-18.6c-4.8-4.8-11.3-7.1-19.4-7.1c-8,0-14.4,2.4-19.2,7.1
	C234.3,860.6,231.8,866.8,231.8,874.5z M342.3,769.7h50.6V941h-50.6V769.7z M432.1,881.6c8.6,0.2,15.6,3.1,21.1,8.7
	c5.5,5.7,8.4,13.1,8.5,22c-0.2,8.7-3,15.9-8.5,21.6c-5.5,6-12.6,9-21.1,9.2c-8.5-0.2-15.4-3.2-20.9-9.2c-6-5.7-9-12.9-9-21.6
	c0-8.9,3-16.3,9-22C416.7,884.7,423.7,881.8,432.1,881.6z M578.1,935c-15.1,5.6-28.7,8.4-40.9,8.2c-21.7-0.1-39.2-6.5-52.5-19
	c-13.5-12.5-20.3-28.7-20.4-48.8c0-17.4,5.7-33.2,17.2-47.3c11.6-14.3,29.7-21.8,54.3-22.3c14.1,0,27.9,2.3,41.4,6.9V857
	c-10.9-5.5-21.6-8.2-32.1-8.2c-9.1,0-16.4,2.4-21.8,7.1c-5.6,4.7-8.4,11-8.4,18.9c0,7.8,3,13.9,9,18.2c5.6,4.9,13.2,7.3,22.6,7.3
	c8.5,0.2,19-2.6,31.7-8.2L578.1,935L578.1,935z M587.2,874.5c-0.2-17.9,6-33.7,18.6-47.3c12.3-13.9,31.9-21,58.8-21.4
	c27.8,0.5,47.8,7.9,59.8,22.3c11.8,13.8,17.6,29.3,17.5,46.5c0,18.3-6.2,34.1-18.7,47.3c-12.6,13.9-32,21.1-58.1,21.4
	c-27.5-0.5-47.4-7.9-59.7-22.4C593.1,906.9,587,891.5,587.2,874.5L587.2,874.5z M637.8,874.5c0,7.6,2.5,13.8,7.5,18.5
	c4.8,4.9,11.2,7.3,19.2,7.3c8.1,0,14.6-2.4,19.4-7.3c4.9-4.7,7.3-10.8,7.3-18.5s-2.4-13.9-7.3-18.6c-4.8-4.8-11.3-7.1-19.4-7.1
	c-8,0-14.4,2.4-19.2,7.1C640.3,860.6,637.8,866.8,637.8,874.5z M750.4,808.2H801v17.5c12-13.3,25.9-19.9,41.9-19.9
	c17.8-0.2,31.2,7.7,40.3,23.6c13.7-15.6,29.7-23.5,47.8-23.6c14.7,0.2,25.3,5.1,32,14.9c6.7,9.8,10,21.5,10,35.3v85h-50.6v-76.1
	c0-4.9-1.2-8.8-3.7-11.6c-2.6-2.9-6.3-4.3-10.8-4.3c-8.1,0.3-15,4.8-20.8,13.6V941h-50.6v-75c0-5.2-1.3-9.4-3.9-12.4
	c-2.7-2.8-6.5-4.3-11.4-4.5c-7.2,0.3-13.9,4.8-20.1,13.6V941h-50.6L750.4,808.2L750.4,808.2z"/>
<g>
	<path class="st1" d="M497.4,83.2c160.9,0,293.9,112.9,323,271.5c28.8,157.2-62.7,315.2-213.2,368.1c-176.6,62-369-38.3-420.1-220.3
		C135.7,319.7,245.2,138,420.5,92.8C446.6,86.1,473.2,82.7,497.4,83.2z M194.1,412.5c0,27,3.6,53.6,10.4,79.7
		c42.7,164.6,213.4,263.7,376.2,218.2C777.4,655.5,867.4,425,760.3,249.9c-67.9-111-194.8-166.8-319-141.6
		C296.5,137.7,193.9,264.7,194.1,412.5z"/>
	<path class="st1" d="M435.3,199.1c-5.5,3.4-9.7,6.1-14,8.6c-41.3,24.4-78.1,54-106.5,93.1c-14.2,19.6-25.1,40.8-28.6,65.1
		c-0.6,4.1-0.9,8.4-0.9,12.5c0.2,22.9,10.4,34.4,33.1,38.8c17.9,3.4,35.2,1.9,52.1-4c35.4-12.3,66.9-31.3,94.1-57.1
		c5.8-5.5,10.9-11.7,15.6-18.1c3.6-5.1,6.7-10.8,8.8-16.6c7.2-19.6-1.7-35.2-22.3-37.4c-12.4-1.3-25.4-1.3-37.6,1
		c-38.9,7.3-65.9,29.8-79.9,67.2c-1.9,5.2-3.5,9.7-10.4,7.3c-6-2-7.3-6.4-6-12c0.4-1.6,0.9-3.2,1.3-4.9
		c4.9-19.1,14.1-35.9,26.8-50.8c15.5-18.2,34.6-30.3,58.2-35c26.2-5.2,49.1,1.2,68.9,18.8c18.4,16.4,24.7,36.7,17.1,60.3
		c-3,9.5-6.9,19.3-12.7,27.2c-36.9,49.6-86.1,76.4-148.4,77c-20.4,0.2-38.6-7.5-54.6-20.2c-25.8-20.5-30.8-47.7-24.2-78.3
		c4.4-20.4,13.2-39,25-56c30.6-44.4,70.9-78.3,117.4-105c9.2-5.3,12.5-4.5,19.2,4C430.2,188.9,432.3,193.9,435.3,199.1z"/>
	<path class="st1" d="M562,369.6c-3,3.2-6.2,6.4-9.2,9.8c-15.3,17.6-9.2,37.4,13.4,43.3c13,3.5,26.1,1.6,38.7-1.2
		c44.7-9.8,78.5-34.9,100.6-75.1c6.7-12.2,11.1-25.4,8.6-39.8c-3.3-19.4-14.6-30.6-34.2-33c-23.2-2.8-45.1,1.8-66.1,11.6
		c-27.1,12.6-49.7,31.1-69.4,53.4c-8.5,9.6-10.1,10.1-16.9,4.3c-9.9-8.6-11.8-16.8-5.1-24.7c17.3-20.3,37.3-37.4,60.3-51.1
		c24.8-14.7,51-23.1,80.4-19.5c43.2,5.3,72,41.3,69.4,85.8c-1.6,25.8-12.1,48.1-29.7,66.5c-35.9,37.6-79.6,52.1-130.5,40
		c-23.9-5.7-39.4-21.3-44.5-46.2c-1.8-8.8-0.1-16.7,4.2-24.2C540.2,355.7,551.1,355.6,562,369.6z"/>
	<path class="st1" d="M496.1,443c-6.1,5.4-10.4,8.8-14.2,12.5c-22.1,21.2-44.9,41.7-65.7,64.1c-11.6,12.4-20.8,27.4-29,42.4
		c-5.2,9.6-8.1,21.2-9.3,32.3c-2.2,19.2,7.8,32.8,26.8,36.6c10.9,2.2,22.5,2.6,33.7,1.7c32.9-2.4,64.4-11,95.2-22.6
		c3.1-1.2,6.2-2.5,9.4-3.7c10.4-3.9,20.1,2,21.8,13.2c0.7,4.8-2.2,6.8-5.7,8.6c-23.8,12.7-48.6,22.5-75.6,26.5
		c-22.7,3.3-45.1,3.9-67.4-2.6c-5.6-1.6-11.2-3.5-16.5-5.9c-32-14.5-46.8-43.5-40.4-78.2c3.8-20.7,13.1-38.9,25-55.9
		c22.3-32,50.9-57.9,81.3-81.9c6-4.7,11.6-4.6,17.1-0.3C486.8,433.4,490.6,437.8,496.1,443z"/>
</g>
</svg>
