<?xml version="1.0" encoding="utf-8"?>
<!-- Generator: Adobe Illustrator 25.2.3, SVG Export Plug-In . SVG Version: 6.00 Build 0)  -->
<svg version="1.1" id="Layer_1" xmlns="http://www.w3.org/2000/svg" xmlns:xlink="http://www.w3.org/1999/xlink" x="0px" y="0px"
	 viewBox="0 0 1000 1000" style="enable-background:new 0 0 1000 1000;" xml:space="preserve">
<style type="text/css">
	.st0{fill:#FFFFFF;}
	.st1{fill:#164280;}
	.st2{fill:#FD9732;}
	.st3{fill:none;}
</style>
<g>
	<rect class="st0" width="1000" height="1000"/>
</g>
<path class="st0" d="M532.4,589.2l-28.9,1c0,0,5,40.9,10,37.9C518.4,625.1,532.4,589.2,532.4,589.2z"/>
<g>
	<circle class="st1" cx="419.7" cy="647.7" r="72.3"/>
	<path class="st1" d="M52,281h65.5c36.9,0,61.4,6.7,73.6,20.2c12.1,13.5,18.2,29.7,18.2,48.7c0,12.7-2.6,24.7-7.7,36
		c-5.1,11.3-13.3,19.7-24.5,25.3c16.6,4.6,28.8,12.6,36.6,24c8.2,11.9,13.9,25.8,14.7,40.3c1.6,29.1-13.5,59.1-39,73.1
		c-14.7,8.1-36,12.2-63.8,12.2H52V281z M129.5,390.9c11.4,0,19.6-3.1,24.4-9.5c4.8-6.3,7.2-14.3,7.2-24c0-17.4-11-26-32.9-26h-21.7
		v59.5H129.5z M136.8,511.2c15.9,0,26.7-3.6,32.2-10.7c5.5-7.2,8.3-16.2,8.3-27.2c0-10.4-3.2-18.4-9.5-24.1
		c-6.3-5.7-15.8-8.5-28.6-8.5h-32.6v70.7H136.8z"/>
	<path class="st2" d="M688.7,340.7c-6.7-6.7-10-14.9-10-24.7c0-8.9,3.3-16.5,10-22.8c6.7-6.3,14.9-9.5,24.7-9.5
		c9.5,0,17.6,3.2,24.3,9.5c6.7,6.3,10,14,10,22.8c0,9.8-3.3,18.1-9.8,24.7c-6.5,6.7-14.7,10-24.5,10
		C703.6,350.7,695.4,347.3,688.7,340.7z"/>
	<rect x="687.9" y="366.7" class="st2" width="51.4" height="212"/>
	<polygon class="st1" points="386,353.9 440.6,353.9 308.9,639.7 254.3,639.7 299.3,546.6 219,353.9 273.6,353.9 328.2,485.5 	"/>
	<path class="st2" d="M942.5,413.7c-3.7-16.2-9.4-28.3-20.2-37.3c-6-5-13.3-8.4-20.7-10.6c-4.3-1.3-8.8-2.2-13.3-2.7
		c-3.2-0.4-6.5-0.8-9.8-0.9c-3-0.1-6,0.2-9,0.4c-2.9,0.3-5.8,0.4-8.6,1c-4.1,0.8-8.2,2.1-12.1,3.7c-7.2,3-13.9,7-20.1,11.5
		c-2.3,1.7-4.5,3.4-6.7,5.2c-1.4,1.2-2.8,2.7-4.3,3.8c-0.9,0.7-1.5,1.2-1.5,1.4c0,0,0-22.5,0-22.5l-53.5,1v210.9c0,0,53.5,0,53.5,0
		c0-15.3,0-30.7,0-46c0-19.2-0.3-38.4,0-57.6c0.3-17.7,1.9-39,15.3-52.2c7.2-7,19.1-9.5,29-9.8c10.1-0.4,20.5,2.6,27.1,10.7
		c3.3,4.1,5.4,9.1,6.7,14.2c1.6,10.9,2.3,24.7,2.3,41.3v99.6H948V477.1C948,451.1,946.2,429.9,942.5,413.7z"/>
	<path class="st3" d="M564.5,324.5c-9.9,0-19.3,2.5-28,7.4c-8.7,5-15.6,12-20.7,21.2c-5.1,9.2-7.7,19.9-7.7,32.1v3
		c0,12.2,2.6,23,7.7,32.5c5.1,9.5,12,16.8,20.5,22.1c8.5,5.2,17.9,7.8,28.2,7.8c18,0,31.8-5.9,41.4-17.6
		c9.7-11.7,14.5-26.8,14.5-45.2c0-19.3-4.8-34.6-14.3-46.1C596.6,330.2,582.7,324.5,564.5,324.5z"/>
	<path class="st2" d="M645.7,307.4c-17.4-18.2-40.1-27.4-68.2-27.4c-28.8,0-51.1,10.5-67,31.3v-26h-12.1v0h-40.8v276.3
		c23.6,10.4,42.1,30.2,50.8,54.7h1.7V468.8c5.9,6.6,13.1,12.1,21.5,16.3c12.3,6.1,26.9,9.1,43.7,9.1c18,0,34.2-4.5,48.9-13.4
		c14.6-8.9,26.2-21.5,34.8-37.8c8.5-16.3,12.8-35.2,12.8-56.6C671.8,352,663.1,325.7,645.7,307.4z M605.9,433
		c-9.7,11.8-23.5,17.6-41.4,17.6c-10.2,0-19.6-2.6-28.2-7.8c-8.6-5.2-15.4-12.6-20.5-22.1c-5.1-9.5-7.7-20.3-7.7-32.5v-3
		c0-12.2,2.6-22.9,7.7-32.1c5.1-9.2,12-16.3,20.7-21.2c8.7-4.9,18-7.4,28-7.4c18.2,0,32.1,5.7,41.7,17.2
		c9.5,11.5,14.3,26.8,14.3,46.1C620.4,406.2,615.6,421.2,605.9,433z"/>
	<g>
		<path class="st2" d="M515.6,670.8h-4.4v-36.5h4.4v4.6c0.9-1.6,1.8-2.7,2.6-3.3c0.8-0.6,1.8-1.1,2.8-1.5c1-0.3,2.1-0.5,3.2-0.5
			c2,0,3.9,0.5,5.6,1.6c1.7,1.1,3,2.7,3.9,4.9c0.9,2.2,1.4,4.6,1.4,7.3c0,4-1,7.3-2.9,10c-1.9,2.6-4.7,4-8.2,4
			c-1.1,0-2.2-0.2-3.2-0.5c-1-0.3-1.9-0.8-2.7-1.4c-0.8-0.6-1.6-1.8-2.6-3.4V670.8z M515.6,647.5c0,3,0.6,5.4,2,7.3
			c1.3,1.9,3.1,2.9,5.5,2.9c2.2,0,3.9-0.8,5.4-2.5c1.4-1.7,2.1-4.2,2.1-7.6c0-3.9-0.8-6.7-2.3-8.2c-1.5-1.5-3.2-2.3-5.2-2.3
			c-1.4,0-2.7,0.4-3.9,1.3c-1.2,0.8-2.1,2.1-2.7,3.7C515.9,643.7,515.6,645.5,515.6,647.5z"/>
		<path class="st2" d="M550.3,661.3c-3.4,0-6.4-1.2-8.8-3.5c-2.4-2.3-3.6-5.8-3.6-10.4c0-4.6,1.2-8,3.6-10.4
			c2.4-2.3,5.4-3.5,8.8-3.5c3.4,0,6.3,1.2,8.8,3.5c2.4,2.3,3.6,5.8,3.6,10.4c0,4.6-1.2,8.1-3.6,10.4
			C556.6,660.2,553.7,661.3,550.3,661.3z M550.3,657.7c2.4,0,4.2-0.9,5.7-2.8c1.4-1.9,2.2-4.3,2.2-7.4c0-3.1-0.7-5.5-2.2-7.4
			c-1.4-1.9-3.3-2.8-5.7-2.8c-2.4,0-4.3,0.9-5.7,2.8c-1.4,1.9-2.2,4.3-2.2,7.4c0,3.1,0.7,5.5,2.2,7.4
			C546,656.8,547.9,657.7,550.3,657.7z"/>
		<path class="st2" d="M571.6,660.6l-7.5-26.3h4.6l4.6,16.3l0.6,3.9h0.5l0.7-3.9l4.7-16.3h4.4l5.5,16.3l0.8,4h0.4l0.6-4l4.6-16.3
			h4.1l-7.5,26.3h-4.4l-5.7-17.2l-0.6-3.8h-0.3l-0.7,3.8l-4.9,17.2H571.6z"/>
		<path class="st2" d="M619.8,653.9h4.4v0.2c0,1.2-0.5,2.3-1.4,3.6s-2.1,2.1-3.6,2.8s-3.2,0.9-5.2,0.9c-3.9,0-7-1.3-9.1-3.9
			c-2.1-2.6-3.2-5.9-3.2-9.8c0-4,1.1-7.4,3.4-10.1c2.3-2.7,5.2-4,8.7-4c2,0,3.7,0.4,5.3,1.3c1.6,0.9,2.8,2.2,3.8,4
			c0.9,1.8,1.4,4.4,1.4,7.6v1.5h-18.3c0,2.8,0.7,5.1,2.2,6.9c1.5,1.8,3.5,2.7,6.1,2.7c1.9,0,3.2-0.4,4.1-1.1
			c0.9-0.7,1.3-1.6,1.3-2.5V653.9z M606.3,644.7h13.8v-0.5c0-1.2-0.3-2.4-0.9-3.6c-0.6-1.2-1.4-2-2.4-2.6c-1-0.6-2.2-0.8-3.5-0.8
			c-1.6,0-3.1,0.7-4.4,2C607.6,640.5,606.8,642.4,606.3,644.7z"/>
		<path class="st2" d="M633.7,660.6h-4.4v-26.3h4.4v4.6c0.7-1.3,1.5-2.4,2.4-3.1c0.9-0.7,1.8-1.3,2.8-1.7c1-0.4,2-0.6,3-0.6
			c0.9,0,1.7,0.1,2.4,0.4v4.5c-1.1-0.5-2.2-0.8-3.4-0.8c-1.7,0-3.3,0.7-4.9,2.2c-1.6,1.4-2.4,4-2.4,7.7V660.6z"/>
		<path class="st2" d="M663.2,653.9h4.4v0.2c0,1.2-0.5,2.3-1.4,3.6c-0.9,1.2-2.1,2.1-3.6,2.8c-1.5,0.6-3.2,0.9-5.2,0.9
			c-3.9,0-7-1.3-9.1-3.9c-2.1-2.6-3.2-5.9-3.2-9.8c0-4,1.1-7.4,3.4-10.1c2.3-2.7,5.2-4,8.7-4c2,0,3.7,0.4,5.3,1.3
			c1.6,0.9,2.8,2.2,3.8,4c0.9,1.8,1.4,4.4,1.4,7.6v1.5h-18.3c0,2.8,0.7,5.1,2.2,6.9c1.5,1.8,3.5,2.7,6.1,2.7c1.9,0,3.2-0.4,4.1-1.1
			c0.9-0.7,1.3-1.6,1.3-2.5V653.9z M649.8,644.7h13.8v-0.5c0-1.2-0.3-2.4-0.9-3.6c-0.6-1.2-1.4-2-2.4-2.6c-1-0.6-2.2-0.8-3.5-0.8
			c-1.6,0-3.1,0.7-4.4,2C651.1,640.5,650.2,642.4,649.8,644.7z"/>
		<path class="st2" d="M691,622.6h4.4v38H691V656c-0.9,1.7-1.8,2.9-2.6,3.5c-0.9,0.7-1.8,1.1-2.9,1.4c-1.1,0.3-2.1,0.4-3.2,0.4
			c-2,0-3.8-0.5-5.5-1.6c-1.7-1.1-3-2.7-3.9-4.9c-0.9-2.2-1.4-4.6-1.4-7.3c0-4,1-7.3,2.9-10c1.9-2.6,4.7-4,8.1-4
			c1.1,0,2.2,0.2,3.2,0.5c1,0.3,1.9,0.8,2.7,1.4c0.8,0.6,1.6,1.8,2.6,3.4V622.6z M691,647.5c0-3-0.6-5.4-2-7.3
			c-1.3-1.9-3.1-2.9-5.5-2.9c-2.2,0-4,0.8-5.4,2.5c-1.4,1.7-2.1,4.2-2.1,7.6c0,3.9,0.7,6.7,2.1,8.2c1.4,1.5,3.2,2.3,5.3,2.3
			c1.4,0,2.7-0.4,3.9-1.3c1.2-0.8,2.1-2.1,2.7-3.7C690.7,651.2,691,649.4,691,647.5z"/>
		<path class="st2" d="M718.9,660.6h-4.4c0.1-0.9,0.1-1.9,0.2-3.2c0.1-1.2,0.1-2.2,0.1-3c0-0.8,0-1.3,0-1.6v-30.2h4.4v16.3
			c0.9-1.5,1.8-2.6,2.7-3.2c0.8-0.7,1.7-1.2,2.7-1.5s2-0.5,3.1-0.5c2,0,3.8,0.5,5.4,1.6c1.6,1.1,2.9,2.7,3.8,4.9
			c0.9,2.2,1.4,4.6,1.4,7.3c0,4-1,7.3-2.9,10c-1.9,2.6-4.6,4-8,4c-1.1,0-2.2-0.2-3.1-0.5s-1.9-0.8-2.6-1.4c-0.8-0.6-1.6-1.8-2.5-3.4
			l-0.1,1.9C719.1,659,719,659.9,718.9,660.6z M719.3,647.5c0,3,0.6,5.4,1.9,7.3c1.3,1.9,3.1,2.9,5.4,2.9c2.1,0,3.9-0.8,5.3-2.5
			c1.4-1.7,2.1-4.2,2.1-7.6c0-3.9-0.7-6.7-2.1-8.2c-1.4-1.5-3.1-2.3-5.1-2.3c-1.4,0-2.7,0.4-3.9,1.3c-1.2,0.8-2.1,2.1-2.7,3.7
			C719.6,643.7,719.3,645.5,719.3,647.5z"/>
		<path class="st2" d="M751.4,659.5l-11.3-25.1h4.8l8.8,19.5l8.2-19.5h4.4l-11.1,26.3c-1.5,3.6-2.7,5.9-3.7,7.1
			c-1,1.2-2.1,2-3.2,2.4c-1.1,0.5-2.6,0.7-4.5,0.7h-3.3v-3.6h2.5c1.2,0,2.3-0.2,3.2-0.5c0.9-0.3,1.7-0.8,2.3-1.5
			c0.6-0.7,1.4-2.3,2.4-4.7L751.4,659.5z"/>
		<path class="st2" d="M783.6,660.6v-36.5h20.6v4h-15.9v11.5h13.9v3.6h-13.9v13.3h17.1v4H783.6z"/>
		<path class="st2" d="M812.6,660.6h-4.4v-26.3h4.4v4.5c0.9-1.4,1.8-2.5,2.7-3.2c0.9-0.7,1.8-1.2,2.7-1.6c1-0.4,2-0.5,3.2-0.5
			c1.6,0,3.1,0.3,4.4,1c1.3,0.7,2.3,1.7,3,3c0.7,1.3,1.1,3.4,1.1,6.3v16.7h-4.4v-14.8c0-2.4-0.2-4-0.5-5c-0.3-1-0.9-1.7-1.8-2.3
			c-0.9-0.6-1.9-0.8-3-0.8c-1.3,0-2.5,0.4-3.7,1.1c-1.2,0.8-2.1,1.8-2.8,3.2c-0.7,1.3-1,3.3-1,5.8V660.6z"/>
		<path class="st2" d="M841.9,659.5l-11.3-25.1h4.8l8.8,19.5l8.2-19.5h4.4l-11.1,26.3c-1.5,3.6-2.7,5.9-3.7,7.1
			c-1,1.2-2.1,2-3.2,2.4c-1.1,0.5-2.6,0.7-4.5,0.7h-3.3v-3.6h2.5c1.2,0,2.3-0.2,3.2-0.5c0.9-0.3,1.7-0.8,2.3-1.5
			c0.6-0.7,1.4-2.3,2.4-4.7L841.9,659.5z"/>
		<path class="st2" d="M874.4,653.9h4.4v0.2c0,1.2-0.4,2.4-1.3,3.6c-0.9,1.2-2.1,2.1-3.5,2.7c-1.4,0.6-3.2,1-5.2,1
			c-3.9,0-6.9-1.2-9-3.7c-2.1-2.5-3.2-5.9-3.2-10.2c0-4.3,1.1-7.7,3.2-10.2c2.1-2.5,5.1-3.7,9-3.7c2,0,3.8,0.3,5.2,1
			c1.4,0.6,2.6,1.5,3.5,2.6c0.9,1.1,1.3,2.3,1.3,3.7v0.2h-4.4v-0.2c0-1-0.4-1.8-1.3-2.5c-0.9-0.7-2.3-1.1-4.2-1.1
			c-2.2,0-4.1,0.8-5.6,2.4c-1.5,1.6-2.3,4.2-2.3,7.8c0,3.6,0.8,6.2,2.3,7.8s3.4,2.4,5.6,2.4c1.9,0,3.3-0.4,4.1-1.1s1.3-1.6,1.3-2.5
			V653.9z"/>
		<path class="st2" d="M896.9,660.6c-0.5-1.4-0.7-2.6-0.7-3.6c-1.9,1.9-3.5,3.1-4.8,3.6c-1.3,0.5-2.6,0.8-3.8,0.8
			c-2,0-3.8-0.6-5.2-1.9c-1.5-1.3-2.2-3-2.2-5.3c0-2.5,1-4.5,3.1-5.9c2.1-1.4,5.6-2.6,10.6-3.6l2.3-0.4v-3c0-1.6-0.5-2.7-1.6-3.4
			c-1-0.6-2.3-1-3.8-1c-1.8,0-3.1,0.4-4.1,1.2s-1.5,1.7-1.5,2.8v0.4h-4.8v-0.4c0-1.2,0.5-2.4,1.4-3.6c1-1.2,2.2-2.2,3.8-2.8
			c1.6-0.6,3.3-0.9,5.2-0.9c1.9,0,3.6,0.3,5.1,0.9c1.5,0.6,2.7,1.4,3.4,2.4c0.7,1,1.1,2.9,1.1,5.7v10.2c0,1.1,0,2.3,0.1,3.5
			c0.1,1.2,0.3,2.7,0.8,4.3H896.9z M896.2,647.4l-1.3,0.3c-4.3,1.1-7,2.1-8.2,3.1c-1.2,1-1.8,2.1-1.8,3.5c0,0.7,0.2,1.3,0.5,1.9
			c0.4,0.6,0.9,1.1,1.6,1.4c0.7,0.3,1.4,0.5,2.1,0.5c1.2,0,2.3-0.4,3.5-1.1c1.1-0.7,2-1.7,2.7-2.9c0.6-1.2,1-2.6,1-4.2V647.4z"/>
		<path class="st2" d="M903.1,653.7h4.4v0.1c0,1.1,0.4,2.1,1.3,2.8c0.9,0.7,2.3,1.1,4.3,1.1c1.8,0,3.2-0.4,4.4-1.3
			c1.1-0.9,1.7-1.9,1.7-3.1c0-1.6-1.1-2.8-3.3-3.4l-2.2-0.7l-1.5-0.5l-3-0.9c-3.4-1.3-5.2-3.4-5.2-6.3c0-2.1,0.8-3.9,2.5-5.5
			c1.7-1.6,4.1-2.4,7.4-2.4c3.2,0,5.6,0.7,6.9,2c1.4,1.3,2.1,2.8,2.1,4.5v0.1h-4.4v-0.1c0-0.9-0.4-1.6-1.3-2.1
			c-0.9-0.5-2.1-0.8-3.5-0.8c-1.7,0-3.1,0.4-4,1.1c-0.9,0.7-1.4,1.6-1.4,2.7c0,0.8,0.3,1.5,0.9,2c0.6,0.5,1.6,1,3,1.4l2.1,0.6
			l1.5,0.4c2.1,0.6,3.4,1,4,1.3c0.5,0.3,1,0.6,1.6,1c0.7,0.6,1.3,1.2,1.6,2s0.5,1.7,0.5,2.8c0,2.5-0.9,4.6-2.7,6.3
			c-1.8,1.7-4.4,2.5-7.8,2.5c-2.2,0-3.9-0.3-5.4-1s-2.5-1.5-3.4-2.7C903.5,656.6,903.1,655.3,903.1,653.7L903.1,653.7z"/>
		<path class="st2" d="M930.6,660.6h-4.4v-38h4.4v16.2c0.9-1.4,1.8-2.5,2.7-3.2c0.9-0.7,1.8-1.2,2.7-1.6c1-0.4,2-0.5,3.2-0.5
			c1.6,0,3.1,0.3,4.4,1c1.3,0.7,2.3,1.7,3,3c0.7,1.3,1.1,3.4,1.1,6.3v16.7h-4.4v-14.8c0-2.4-0.2-4-0.5-5c-0.3-1-0.9-1.7-1.8-2.3
			c-0.9-0.6-1.9-0.8-3-0.8c-1.3,0-2.5,0.4-3.7,1.1c-1.2,0.8-2.1,1.8-2.8,3.2c-0.7,1.3-1,3.3-1,5.8V660.6z"/>
	</g>
</g>
</svg>
