<?xml version="1.0" encoding="utf-8"?>
<!-- Generator: Adobe Illustrator 23.1.1, SVG Export Plug-In . SVG Version: 6.00 Build 0)  -->
<svg version="1.1" id="Layer_1" xmlns="http://www.w3.org/2000/svg" xmlns:xlink="http://www.w3.org/1999/xlink" x="0px" y="0px"
	 viewBox="0 0 1000 1000" style="enable-background:new 0 0 1000 1000;" xml:space="preserve">
<style type="text/css">
	.st0{fill:#00ADEE;}
	.st1{fill:#E93A26;}
	.st2{fill:#FFC627;}
</style>
<path class="st0" d="M142.1,186.2l-14.2,0.7c-13.7,0.7-26.7,4.3-38.5,10.2C77.5,203,66.8,211.2,58,221.2
	c-8.8,10-15.8,21.7-20.5,34.5c-4.6,12.8-6.9,26.6-6.3,40.8l22.6,511c0.6,12.7,3.7,24.3,9.1,34.4c5.3,10.1,12.6,18.8,21.5,25.5
	c8.9,6.7,19.2,11.6,30.6,14.3c11.2,2.6,23.4,3,36.1,0.9l108-18.8l142.1-24.6l104.2-18c-4-0.5-7.9-1.1-11.8-1.8
	c-3.9-0.7-7.7-1.5-11.4-2.5c-3.7-0.9-7.4-2-11-3.2c-3.6-1.2-7.1-2.5-10.6-4c-7-3-13.7-6.2-20.1-9.8c-6.3-3.6-12.3-7.6-18-11.8
	c-5.6-4.3-10.8-8.8-15.8-13.7c-4.9-4.9-9.4-10.2-13.6-15.7c-6.2-8.3-12.5-17.9-19.1-28.9c-6.6-11.1-13.5-23.5-20.5-37.2
	c-7.1-13.9-14.4-29.3-22-46c-7.6-16.9-15.4-35.2-23.6-55.1L142.1,186.2z"/>
<path class="st1" d="M643.6,161.7l-320.8,15.7L452.7,522c5.7,15.1,10.9,28.8,15.8,41c4.9,12.2,9.3,22.9,13.4,32.3
	c4,9.3,7.6,17.2,10.9,23.8c3.2,6.5,6.1,11.8,8.5,15.6c4,6.2,8.4,11.6,13.2,16.5c4.8,4.8,9.9,9,15.3,12.6c5.4,3.6,11.2,6.5,17.3,8.8
	c6.1,2.4,12.6,4,19.4,5.2c2.4,0.3,4.9,0.7,7.4,0.9c2.5,0.2,5,0.3,7.6,0.3c2.6,0,5.2-0.1,7.8-0.3c2.6-0.2,5.3-0.5,8-0.9
	c4.8-0.7,9.8-1.8,14.9-3.1c5.1-1.3,10.3-3.1,15.6-5c5.3-2,10.7-4.3,16.2-7c5.5-2.6,11.1-5.5,16.9-8.7c9-5.1,17.3-10.4,24.9-15.8
	c7.6-5.4,14.4-11,20.5-16.7c6.1-5.7,11.5-11.6,16.1-17.6c4.7-6,8.7-12.2,11.9-18.6c3.3-6.3,6-12.6,8.2-19c2.3-6.3,4-12.5,5.1-18.8
	c1.2-6.3,1.9-12.5,2-18.7c0.1-6.2-0.2-12.5-1.1-18.6c-0.9-6.2-2.2-13.3-4-21.3c-1.7-8-3.9-16.9-6.5-26.8c-2.7-9.9-5.7-20.6-9.1-32.4
	c-3.6-11.8-7.5-24.6-11.9-38.3L643.6,161.7z"/>
<path class="st2" d="M901.9,149.1l-108,5.3l44,150.6c6.1,20.8,11.5,40.1,16.2,57.9c4.7,17.6,8.7,33.8,12.1,48.5
	c3.3,14.7,6,27.9,8.1,39.7c2,11.7,3.4,22.1,4.2,31.2c0.7,9,1.1,17.8,1,26.6c-0.1,8.7-0.6,17.3-1.6,25.7c-1,8.4-2.4,16.7-4.2,24.9
	c-1.8,8.1-4.1,16.2-6.8,24.1c-2.7,7.9-5.8,15.7-9.4,23.4c-3.6,7.8-7.6,15.5-12.1,23.1c-4.5,7.7-9.4,15.2-14.8,22.7
	c-5.4,7.5-11.3,15-17.6,22.4c-6.3,7.4-13.3,14.8-21.1,22.1c-7.7,7.3-16.2,14.6-25.3,21.8c-9.2,7.3-19.1,14.5-29.7,21.6
	c-10.7,7.2-22.1,14.3-34.2,21.4c-6.7,4-13.4,7.7-19.9,11.3c-6.5,3.5-12.8,6.9-19,10.1c-6.2,3.2-12.3,6.2-18.2,9
	c-5.9,2.8-11.7,5.4-17.4,7.8l243.4-42.2c9.6-1.7,18.8-5.5,27.3-10.8c8.4-5.4,16.1-12.4,22.7-20.5c6.6-8.2,12-17.4,16.1-27.4
	c4-9.9,6.4-20.6,7.1-31.4l25-434.1c0.7-12-0.7-23.3-3.7-33.6c-3.1-10.3-7.7-19.5-13.9-27.2c-6.1-7.7-13.6-13.8-22.1-17.9
	C921.6,150.7,912,148.6,901.9,149.1"/>
</svg>
