<?xml version="1.0" encoding="utf-8"?>
<!-- Generator: Adobe Illustrator 23.0.1, SVG Export Plug-In . SVG Version: 6.00 Build 0)  -->
<svg version="1.1" id="Layer_1" xmlns="http://www.w3.org/2000/svg" xmlns:xlink="http://www.w3.org/1999/xlink" x="0px" y="0px"
	 viewBox="0 0 1000 1000" style="enable-background:new 0 0 1000 1000;" xml:space="preserve">
<style type="text/css">
	.st0{fill-rule:evenodd;clip-rule:evenodd;}
	.st1{fill:#FFFFFF;}
</style>
<title>bliep</title>
<rect id="rect8" x="53.8" y="65.3" class="st0" width="892.5" height="869.5"/>
<path id="path6811" class="st1" d="M617.5,694.8c-5,0-9,4-9,9v71.9c0,16.7,9.7,27.1,25,27.1h18.9c4.8,0,8.8-4,8.8-8.8
	c0-4.8-4-8.8-8.8-8.8h-17.1c-6.6,0-8.6-1.9-8.6-7.7v-38.8h25.7c4.8,0,8.8-3.7,8.8-8.6c0-4.8-4-8.8-8.8-8.8h-25.7v-17.6
	C626.7,698.8,622.5,694.8,617.5,694.8z M289.9,719.8c-23.6,0-42.2,18.4-42.2,42.2c0,23.7,18.5,42.5,42.2,42.5
	c23.6,0,42.1-18.7,42.1-42.5C332,738.2,313.5,719.8,289.9,719.8z M707.3,721.3c-24.7,0-42,17.2-42,41.7c0,23,17.6,39.8,42,39.8
	c6.5,0,12.8-1.9,17.8-4.9c1.4,3.3,4,5.9,7.7,5.9c5,0,9.1-4,9.1-9v-73.4H707.3z M221.2,721.4c-20.1,0-40.8,15.1-40.8,40.6
	s20.7,40.9,40.8,40.9h11c4.8,0,8.8-4,8.8-8.8c0-4.8-4-8.8-8.8-8.8h-8.3c-12.3,0-24.8-8-24.8-23.3s12.5-23.2,24.8-23.2h8.3
	c4.8,0,8.8-3.7,8.8-8.6c0-4.8-4-8.8-8.8-8.8H221.2z M346.7,721.4v72.4c0,5,4.2,9,9.2,9c5,0,9-4,9-9c0,0,0-51.4,0-55.1
	c3.2,0,16.9,0,16.9,0c9.5,0,16.9,8.2,16.9,18.5v36.5c0,5,4,9,9,9c5,0,9.3-4,9.3-9v-36.5c0-20.8-14.9-35.9-35.2-35.9H346.7z
	 M474.2,721.4c-24.7,0-42.2,17.2-42.2,41.7c0,23,17.8,39.7,42.2,39.7c5.9,0,11.2-1.3,16.2-3.2c-0.1,20.2-17.3,22.6-24.8,22.6
	c-7,0-14.2-2-21-3.9l-1.1-0.4c-2.3-0.6-4.6-0.3-6.5,0.9c-2,1.2-3.5,3.2-4,5.4c-0.6,2.2-0.3,4.6,0.9,6.6c1.2,2,3,3.5,5.2,4l1.2,0.2
	c9.3,3.1,17.7,4.5,25.9,4.5c26.2,0,42.6-17.2,42.6-44.9v-73.3H474.2z M549.9,721.4c-14,0-25,10.6-25,24.3c0,13.8,11.2,25.1,25,25.1
	c-0.5,0,3.9-0.1,18.5,0c4.3,0,7.9,3.3,7.9,7.6c0,4.7-4.2,6.8-7.9,6.8h-30.4c-4.8,0-8.7,4-8.7,8.8c0,4.8,3.9,8.8,8.7,8.8h30.4
	c14.2,0,25.3-10.8,25.3-24.4c0-14-11.3-25.3-25.3-25.3c0.5,0-3.9,0.1-18.5,0c-4.1,0-7.4-3.3-7.4-7.4c0-4,3.1-7,7.4-7h30.8
	c4.8,0,8.8-3.7,8.8-8.6c0-4.8-4-8.8-8.8-8.8H549.9z M762.4,721.4v72.4c0,5,4,9,9,9c5,0,9-4,9-9c0,0,0-51.4,0-55.1c2.2,0,5.9,0,5.9,0
	c10,0,14.7,4.7,14.7,14.2c0,5,4,9,9,9c5,0,9.2-4,9.2-9c0-20-12.1-31.6-32.9-31.6H762.4z M289.9,737.2c13.8,0,23.2,10.2,23.2,24.8
	c0,14.6-9.4,25.1-23.2,25.1c-13.8,0-23.5-10.5-23.5-25.1C266.5,747.3,276.2,737.2,289.9,737.2z M473.5,738.8c0,0,13.9,0,17.1,0v40.9
	c-4.2,3.4-9.6,5.6-16.4,5.6c-14.6,0-23.9-8.4-23.9-21.5C450.3,748.1,459,738.8,473.5,738.8z M723.7,738.8v39.5
	c-3.8,3.9-9.5,7-16.2,7c-14.6,0-24-8.5-24-21.5c0-15.7,8.7-25,23.2-25C706.6,738.9,720.5,738.8,723.7,738.8z"/>
<path id="path6835" class="st1" d="M556.9,293.2c4.4,4.7,16.8,12.5,28.7,8.3l113.6-41.8c-77.1-95-217.4-121.2-326.6-56.7
	c-117.5,69.5-154.4,217.7-82.4,331.1c72,113.4,225.6,149,343.1,79.5c39.7-23.5,70.1-56,90.4-93l-99.4-27c-10.7-3-21.5,2.4-25.4,10.2
	l-55.4,110.8c-2.7,5.9-9.5,8.4-15.4,5.6c-3.3-1.5-5.7-4.6-6.6-7.8l-26-136.7c-2.7-14.5-16.4-21.8-23.9-23.8l-134.3-36.3
	c-3.5-1.1-6.6-4-7.8-7.8c-2-6.2,1.4-12.7,7.5-14.7l117.5-43.4c8.7-3.2,14.7-13.6,12.9-23.8l-22.1-120.8c-1.1-5.7,2.2-11.5,7.9-13.3
	c4.5-1.4,9.2-0.1,12.2,3.2L556.9,293.2z"/>
</svg>
