<?xml version="1.0" encoding="utf-8"?>
<!-- Generator: Adobe Illustrator 24.3.0, SVG Export Plug-In . SVG Version: 6.00 Build 0)  -->
<svg version="1.1" id="Layer_1" xmlns="http://www.w3.org/2000/svg" xmlns:xlink="http://www.w3.org/1999/xlink" x="0px" y="0px"
	 viewBox="0 0 1000 1000" style="enable-background:new 0 0 1000 1000;" xml:space="preserve">
<style type="text/css">
	.st0{fill:#0B1C26;}
	.st1{fill:#FFFFFF;}
</style>
<polygon class="st0" points="0,500 0,1000 499.9,1000 1000,1000 1000,500 1000,0 499.9,0 0,0 "/>
<path class="st1" d="M877.5,287.9v166.3l-22.5,22.5l-22.6,22.6l22.6,22.6l22.5,22.5v166.3v166.1H499.8H122.3V711.1V544.6l22.5-22.5
	l22.6-22.6l-22.6-22.6l-22.5-22.5V287.9V121.8H500h377.7v166.1H877.5z M158.9,298.3v139.9l30.6,30.6l30.7,30.7l-30.7,30.7
	l-30.6,30.6v139.9v139.9h341h341V700.7V560.8l-30.6-30.6l-30.7-30.7l30.7-30.7l30.6-30.6V298.3V158.4h-341h-341V298.3z"/>
<path class="st1" d="M432.1,269.2l23.8,23.8v56.6v56.6l-23.6,23.6l-23.8,23.8h-63.2H282V349.4V245.2h63.2h63.2L432.1,269.2z
	 M318.7,349.6V417h37h37l12.1-13.1l12.1-12.9v-41.4V308l-12.3-13.1l-12.3-13.1h-37h-36.7V349.6z"/>
<path class="st1" d="M691.3,349.4c23.6,56.9,42.9,103.5,42.9,103.8c0,0.3-8.9,0.5-19.9,0.5h-19.9l-5.2-12.3l-5.2-12.3h-52.9h-52.9
	l-4.9,12l-4.9,12l-20.2,0.3c-16,0.2-20.2,0-19.7-1.1c0.3-0.8,19.4-47.1,42.5-102.7c23.1-55.8,42.2-101.9,42.5-102.7
	c0.5-1,4.7-1.3,17.8-1.1l17,0.3L691.3,349.4z M613.1,345.8c-9.5,23.1-17.8,42.9-18.1,44c-0.6,1.9,1.5,2.1,36.2,2.1
	c29.6,0,36.7-0.3,36.4-1.5c-0.8-3.2-35.7-86.7-36.4-86.7C630.8,303.8,622.8,322.9,613.1,345.8z"/>
<polygon class="st1" points="440.1,563.4 440.1,581.7 385.5,649.1 331.4,716.4 385.5,716.7 440.1,716.9 440.1,735.3 440.1,753.6 
	361,753.6 282,753.6 282,734.9 282.2,716.4 336.9,649.4 391.5,582.5 336.7,582.2 282,581.8 282,563.6 282,545.3 361,545.3 
	440.1,545.3 "/>
<polygon class="st1" points="627.9,619.4 679.8,693.8 680.1,619.4 680.3,545.3 698.7,545.3 717,545.3 717,649.4 717,753.6 
	696.1,753.6 675.2,753.6 628.8,686.2 582.4,618.9 582.1,686.3 581.9,753.6 562.5,753.6 542.9,753.6 542.9,649.4 542.9,545.3 
	559.4,545.3 575.8,545.3 "/>
</svg>
