<?xml version="1.0" encoding="utf-8"?>
<!-- Generator: Adobe Illustrator 23.0.1, SVG Export Plug-In . SVG Version: 6.00 Build 0)  -->
<svg version="1.1" id="Layer_1" xmlns="http://www.w3.org/2000/svg" xmlns:xlink="http://www.w3.org/1999/xlink" x="0px" y="0px"
	 viewBox="0 0 1000 1000" style="enable-background:new 0 0 1000 1000;" xml:space="preserve">
<style type="text/css">
	.st0{fill-rule:evenodd;clip-rule:evenodd;fill:#00603F;}
</style>
<title>bliep</title>
<g id="layer1">
	<path id="path10" class="st0" d="M646.5,545.8c0,25.2-8,49.9-26.3,49.9c-21.9,0-20.8-30-20.8-43.4V432.5l-54.1,13.3v125.5
		c0,14.6,2.5,27.7,7.5,38.3v0c8.2,17,23.1,27.5,45.4,27.5c14.4,0,34.2-5.2,47.8-27.5h0c1.6-2.5,3-5.3,4.4-8.2l0.7,8.2l1.9,23.4h47.5
		V432.5l-54.1,13.3V545.8z M809.1,508.8l-7.3-5.3c-18.3-13.4-21.6-19.1-21.6-26c0-8.1,5.8-15.8,19.4-15.8c12.8,0,23.4,4.9,30,8.5
		l11-31.3c-14.3-6.5-28.9-10.6-44.2-10.6c-39.8,0-65,27.6-65,59.3c0,27.2,15.4,45.5,40.2,62.9l7,4.9c15.7,11,23.4,17.9,23.4,29.6
		c0,12.6-9.9,18.7-20.5,18.7c-15.7,0-30-7.7-38-12.6l-7.2,18.4l-4.9,12.5c16.5,9.7,34,15,53,15c27,0,45.6-11.3,56.1-27.5
		c7-10.7,10.4-23.6,10.4-36.7C850.7,543.7,833.5,526.7,809.1,508.8z M453.4,633h54.1V338.7L453.4,352V633z M58.8,504
		c0.7-21.1,6.2-44.7,26.3-44.7c23.4,0,23.4,36.9,23.4,44.7H58.8z M84.4,428.4C40.2,428.4,0,465,0,532.4c0,32,9.1,58.8,25.1,77.3h0
		c15,17.4,36.2,27.5,61.5,27.5c29.2,0,53-14.6,63.6-21.5l-2.9-6L135.5,586c-6.9,4.5-23.4,15.4-38,15.4c-24.5,0-40.5-20.7-40.5-68.2
		h100.1v-11.8C157.1,477.6,138.8,428.4,84.4,428.4L84.4,428.4z M207.8,508.1c-13.4,0-24.3,10.9-24.3,24.3
		c0,13.4,10.9,24.3,24.3,24.3c13.4,0,24.3-10.9,24.3-24.3C232.1,519,221.2,508.1,207.8,508.1z M914.7,253.1
		c12.8,0,23.3,10.4,23.3,23.3v38.7h38.7c12.9,0,23.3,10.4,23.3,23.3c0,12.8-10.4,23.3-23.3,23.3H938v38.7
		c0,12.9-10.4,23.3-23.3,23.3c-12.8,0-23.3-10.5-23.3-23.3v-38.7h-38.7c-12.9,0-23.3-10.4-23.3-23.3c0-12.8,10.5-23.3,23.3-23.3
		h38.7v-38.7C891.5,263.5,901.9,253.1,914.7,253.1L914.7,253.1z M359.3,637.1c-19,0-33.7-10.9-43-27.5l-1.6-3v100.3h-54.1V444.3
		l47.5-11.8l2.6,32.1c10.6-23.5,30-36.1,50.4-36.1c33.2,0,61,29.2,61,100.3c0,33.1-6.1,61.5-18,80.9
		C393.6,626.9,378.6,637.1,359.3,637.1z M340.3,595.7c19,0,24.8-27.2,24.8-64.1c0-41-5.8-61.7-23.7-61.7c-23,0-26.7,36.5-26.7,63.7
		C314.8,554.7,316.6,595.7,340.3,595.7z"/>
</g>
</svg>
