<?xml version="1.0" encoding="utf-8"?>
<!-- Generator: Adobe Illustrator 23.0.1, SVG Export Plug-In . SVG Version: 6.00 Build 0)  -->
<svg version="1.1" id="Layer_1" xmlns="http://www.w3.org/2000/svg" xmlns:xlink="http://www.w3.org/1999/xlink" x="0px" y="0px"
	 viewBox="0 0 1000 1000" style="enable-background:new 0 0 1000 1000;" xml:space="preserve">
<style type="text/css">
	.st0{fill:#E53238;}
	.st1{fill:#0064D2;}
	.st2{fill:#F5AF02;}
	.st3{fill:#86B817;}
</style>
<path id="e" class="st0" d="M134.6,375.8C65,375.8,7.1,405.3,7.1,494.3c0,70.5,39,114.9,129.3,114.9c106.3,0,113.1-70,113.1-70H198
	c0,0-11,37.7-64.7,37.7c-43.7,0-75.2-29.5-75.2-71h196.8v-26C254.9,439,228.9,375.8,134.6,375.8L134.6,375.8z M132.8,409.1
	c41.6,0,70,25.5,70,63.7H59.2C59.2,432.2,96.2,409.1,132.8,409.1z"/>
<path id="b" class="st1" d="M254.8,289.7v274.9c0,15.6-1.1,37.5-1.1,37.5h49.1c0,0,1.8-15.7,1.8-30.1c0,0,24.3,38,90.3,38
	c69.5,0,116.7-48.2,116.7-117.4c0-64.3-43.4-116-116.6-116c-68.6,0-89.9,37-89.9,37V289.7H254.8z M382.3,410.5
	c47.2,0,77.2,35,77.2,82c0,50.4-34.7,83.4-76.9,83.4c-50.4,0-77.5-39.3-77.5-82.9C305.1,452.4,329.5,410.5,382.3,410.5z"/>
<path id="a" class="st2" d="M633.6,375.8c-104.6,0-111.3,57.3-111.3,66.4h52.1c0,0,2.7-33.4,55.7-33.4c34.4,0,61,15.7,61,46v10.8
	h-61c-81,0-123.9,23.7-123.9,71.8c0,47.3,39.6,73.1,93.1,73.1c72.9,0,96.4-40.3,96.4-40.3c0,16,1.2,31.8,1.2,31.8h46.3
	c0,0-1.8-19.6-1.8-32.1V461.7C741.4,390.8,684.1,375.8,633.6,375.8L633.6,375.8z M691.1,497.9v14.4c0,18.7-11.6,65.3-79.6,65.3
	c-37.3,0-53.2-18.6-53.2-40.2C558.2,498.2,612,497.9,691.1,497.9L691.1,497.9z"/>
<path id="y" class="st3" d="M713.3,384.8h58.6L856,553.2l83.9-168.4h53.1L840.1,684.7h-55.7l44.1-83.6L713.3,384.8z"/>
</svg>
