<?xml version="1.0" encoding="utf-8"?>
<!-- Generator: Adobe Illustrator 23.0.4, SVG Export Plug-In . SVG Version: 6.00 Build 0)  -->
<svg version="1.1" id="Layer_1" xmlns="http://www.w3.org/2000/svg" xmlns:xlink="http://www.w3.org/1999/xlink" x="0px" y="0px"
	 viewBox="0 0 1000 1000" style="enable-background:new 0 0 1000 1000;" xml:space="preserve">
<style type="text/css">
	.st0{fill:#033564;}
	.st1{fill:#8CC23C;}
	.st2{fill:#FFFFFF;}
</style>
<path class="st0" d="M892.5,986.9H107.3c-52,0-94.3-42.3-94.3-94.3V107.4c0-52,42.3-94.3,94.3-94.3h785.3c52,0,94.3,42.3,94.3,94.3
	v785.3C986.8,944.7,944.4,986.9,892.5,986.9z"/>
<g>
	<path class="st1" d="M177.7,423.5c-59.5,0-107.6,28.2-107.6,63.2c0,14.8,8.7,28.4,23.5,39.3c-7.3-8.9-11.3-19-11.3-29.7
		c0-36.2,47.1-65.6,105.2-65.6c37.5,0,70.3,12.1,89,30.6C259.7,439,221.8,423.5,177.7,423.5z"/>
	<path class="st2" d="M168.3,504.5c4.3,0,7.9-0.9,10.5-2.7c3.1-2,4.6-5,4.6-8.9c0-7.2-2.4-13.8-7-19.9c-4.7-6.1-10.7-10.7-18.1-13.8
		c-5.1-2.1-10.8-3.2-17.1-3.2c-12.7,0-23.1,4.2-31.3,12.4c-8.2,8.2-12.2,18.2-12.2,29.9c0,11.7,4.3,21.6,12.8,29.6s19.2,12,32,12
		c6.8,0,13.4-1,19.7-2.9c7.4-2.2,12.9-5.5,16.3-9.7c1.9-2.3,2.9-4.7,2.9-7c0-6.1-3.5-9.1-10.3-9.1c-1.5,0-5.3,1.3-11.5,3.9
		s-11.4,3.9-15.9,3.9c-5.2,0-9.7-1.2-13.3-3.6c-3.6-2.4-5.7-5.9-6.2-10.5h43.9v-0.4H168.3z M129.9,479c3.1-2.6,6.9-3.9,11.5-3.9
		c4.5,0,8.3,1.3,11.4,3.9c3.2,2.7,4.9,5.9,5.2,10h-34C124.9,484.9,126.8,481.5,129.9,479z"/>
	<path class="st2" d="M197.9,527.5c7.9,8.1,18.3,12,31.4,12c7.8,0,14.3-1.2,19.5-3.5c7.3-3.3,10.9-7.4,10.9-12c0-2.8-1-5.2-2.8-7.2
		c-1.9-1.9-4.3-3-7.3-3c-2,0-4.6,0.6-7.7,1.8c-3.1,1.2-6.5,1.8-10.1,1.8c-6.2,0-11-1.9-14.4-5.8c-3-3.5-4.5-8.2-4.5-14
		c0-5.5,1.4-10.1,4.3-13.8c3.2-4.1,7.7-6.1,13.6-6.1c3.6,0,7.1,0.6,10.4,1.9c3.3,1.2,5.9,1.9,7.9,1.9c3.1,0,5.7-1,7.7-2.9
		s3-4.3,3-7.1c0-5.4-3.5-9.5-10.5-12.2c-5.2-1.9-11.3-2.9-18.4-2.9c-13.5,0-24.2,3.9-32.3,11.7c-8.2,7.8-12.1,17.9-12.1,30.2
		C186.4,509.9,190.2,519.7,197.9,527.5L197.9,527.5z"/>
	<path class="st2" d="M272.5,527.7c8.3,8.2,19,12.4,31.8,12.4c13,0,23.7-4.1,31.8-12.2c7.9-8,11.9-17.9,11.9-29.9s-4-22.1-12-30.1
		c-8-8.1-18.6-12-31.7-12c-12.9,0-23.5,4.1-31.6,12.1c-8.2,8.1-12.2,18.1-12.2,30C260.5,509.8,264.5,519.7,272.5,527.7L272.5,527.7z
		 M291.2,484.3c3.1-4.2,7.4-6.3,13.1-6.3c5.6,0,9.8,2.1,12.9,6.4c2.7,3.7,4.2,8.2,4.2,13.4c0,5.4-1.3,9.9-4,13.6
		c-3.1,4.3-7.4,6.4-13.1,6.4c-5.6,0-9.8-2.1-12.9-6.4c-2.7-3.7-4.2-8.2-4.2-13.6C287.3,492.5,288.6,488,291.2,484.3L291.2,484.3z"/>
	<path class="st1" d="M341.5,449.1l35.7,81.3c2.7,6,6.9,9,12.7,9c6.1,0,10.5-3.3,13.5-9.9l34.6-79.9c1.2-2.7,1.8-5.5,1.8-8.3
		c0-7.4-4.2-11.2-12.5-11.2c-6.2,0-10.7,3.8-13.6,11.3l-22.9,59.4L366,440.6c-2.9-7-7.1-10.5-12.7-10.5c-4,0-7.2,1.2-9.6,3.4
		c-2.5,2.2-3.7,5.1-3.7,8.8C340.1,444.6,340.5,446.9,341.5,449.1L341.5,449.1z"/>
	<path class="st1" d="M443.5,527.7c8.3,8.2,19,12.4,31.8,12.4c13,0,23.7-4.1,31.8-12.2c7.9-8,11.9-17.9,11.9-29.9s-4-22.1-12-30.1
		c-8-8.1-18.6-12-31.7-12c-12.9,0-23.5,4.1-31.6,12.1c-8.2,8.1-12.2,18.1-12.2,30C431.5,509.8,435.5,519.7,443.5,527.7L443.5,527.7z
		 M462.2,484.3c3.1-4.2,7.4-6.3,13.1-6.3c5.6,0,9.8,2.1,12.9,6.4c2.7,3.7,4.2,8.2,4.2,13.4c0,5.4-1.3,9.9-4,13.6
		c-3.1,4.3-7.4,6.4-13.1,6.4c-5.6,0-9.8-2.1-12.9-6.4c-2.7-3.7-4.2-8.2-4.2-13.6C458.3,492.5,459.6,488,462.2,484.3L462.2,484.3z"/>
	<path class="st1" d="M536.5,531.2c6.8,5.8,16.5,8.8,29,8.8s22.2-2.9,28.9-8.8s10.2-14.4,10.2-25.7v-31.3c0-11.3-4.3-17-12.8-17
		c-8.7,0-12.9,5.7-12.9,17v26.4c0,5.2-0.7,9.1-2.2,11.8c-2,3.5-5.7,5.4-11.1,5.4c-5.3,0-9-1.8-11.1-5.4c-1.5-2.6-2.2-6.6-2.2-11.8
		v-26.5c0-11.3-4.3-17-12.9-17c-8.7,0-12.9,5.7-12.9,17v31.3C526.3,516.8,529.7,525.4,536.5,531.2z"/>
	<path class="st1" d="M623.4,527.5c7.9,8.1,18.3,12,31.4,12c7.8,0,14.3-1.2,19.5-3.5c7.3-3.3,10.9-7.4,10.9-12c0-2.8-1-5.2-2.8-7.2
		c-1.9-1.9-4.3-3-7.3-3c-2,0-4.6,0.6-7.7,1.8c-3.1,1.2-6.5,1.8-10.1,1.8c-6.2,0-11-1.9-14.4-5.8c-3-3.5-4.5-8.2-4.5-14
		c0-5.5,1.4-10.1,4.3-13.8c3.2-4.1,7.7-6.1,13.6-6.1c3.6,0,7.1,0.6,10.4,1.9c3.3,1.2,5.9,1.9,7.9,1.9c3.1,0,5.7-1,7.7-2.9
		s3-4.3,3-7.1c0-5.4-3.5-9.5-10.5-12.2c-5.2-1.9-11.3-2.9-18.4-2.9c-13.5,0-24.2,3.9-32.3,11.7c-8.2,7.8-12.1,17.9-12.1,30.2
		C611.9,509.9,615.7,519.7,623.4,527.5L623.4,527.5z"/>
	<path class="st1" d="M718.2,441c0-11.4-4.3-17.2-13-17.2c-8.8,0-13.2,5.8-13.2,17.2v80.7c0,11.4,4.4,17.2,13.2,17.2
		c8.7,0,13-5.8,13-17.2v-26.9c0-11.5,4.5-17.3,13.6-17.3c5.8,0,9.6,1.8,11.6,5.2c1.5,2.4,2.2,6.6,2.2,12.4v26.7
		c0,11.4,4.3,17.2,12.9,17.2c8.6,0,12.9-5.8,12.9-17.2v-33.9c0-20.4-10.5-30.6-31.5-30.6c-9.7,0-17.1,2.3-22.1,7V441H718.2z"/>
	<path class="st1" d="M849.5,504.5c4.3,0,7.9-0.9,10.5-2.7c3.1-2,4.6-5,4.6-8.9c0-7.2-2.4-13.8-7-19.9c-4.7-6.1-10.7-10.7-18.1-13.8
		c-5.1-2.1-10.8-3.2-17.1-3.2c-12.7,0-23.1,4.2-31.3,12.4c-8.2,8.2-12.2,18.2-12.2,29.9c0,11.7,4.3,21.6,12.8,29.6s19.2,12,32,12
		c6.8,0,13.4-1,19.7-2.9c7.4-2.2,12.9-5.5,16.3-9.7c1.9-2.3,2.9-4.7,2.9-7c0-6.1-3.5-9.1-10.3-9.1c-1.5,0-5.3,1.3-11.5,3.9
		s-11.4,3.9-15.9,3.9c-5.2,0-9.7-1.2-13.3-3.6c-3.6-2.4-5.7-5.9-6.2-10.5h43.9v-0.4H849.5z M811.2,479c3.1-2.6,6.9-3.9,11.5-3.9
		c4.5,0,8.3,1.3,11.4,3.9c3.2,2.7,4.9,5.9,5.2,10h-34.1C806.1,484.9,808.1,481.5,811.2,479z"/>
	<path class="st1" d="M885.1,538.9c8.7,0,13-5.8,13-17.2v-24.5c0-4.2,0.4-7.2,1.2-9c1.1-2.3,4.2-4.4,9.2-6.3
		c8.1-2.8,12.4-4.3,12.9-4.5c4.3-2.2,6.6-5.2,6.6-8.9c0-3.4-1.2-6.2-3.8-8.3c-2.6-2.2-5.7-3.3-9.5-3.3c-6.3,0-12.1,2.6-17.5,7.7
		c-3.1-5-7.2-7.4-12.3-7.4c-8.8,0-13.1,5.7-13.1,17v47.4C871.9,533.1,876.4,538.9,885.1,538.9L885.1,538.9z"/>
</g>
</svg>
