<svg id="svg4719" xmlns="http://www.w3.org/2000/svg" viewBox="0 0 893 893"><title>final-fantasy-xiv</title><path d="M163.23,274.92c4.63,3.13,8.43,7.13,13,8.44,5.51,1.57,12.45,2.76,17.39.74,9.78-4,10.31-11.45,1.88-17.86-5.84-4.43-7.2-9.35-5.83-16.15,3.48-17.2-2.38-30.52-17.55-39.48-9.27-5.48-10.54-14.86-11.54-24.07-.2-1.9,3-5.37,5.22-6a22.49,22.49,0,0,1,10.85-.05c15.13,3.26,23.5-4.63,30.65-16.61,11.38-19.09,23.64-37.66,35.53-56.45a4.27,4.27,0,0,1,1.1-1.28c3.73-2.49,7.5-4.94,11.25-7.39,3.06,5.1,6.28,10.13,9.07,15.38.69,1.28-.19,3.33-.1,5,.75,15.66,7,22.35,22.53,24.27,1.4.18,2.82.23,4.23.35,6.69.55,13.95-.1,15.75,9.17,1.71,8.84-1.58,14.35-9.63,18.31a53.6,53.6,0,0,0-14.19,10.45c-6.34,6.47-5.94,13.27,1.13,19,12.82,10.49,28.19,15.82,44.33,17,5.72.4,13.85-3.7,17.44-8.38a258.81,258.81,0,0,0,23.62-37.73c4.66-8.91,7.26-19,10.25-28.65,5.14-16.67,17.24-24.94,34.57-22.29,8.33,1.28,16.53,3.6,24.69,5.82,27.31,7.44,59.93-5.09,75.15-29.11,4.68-7.39,8.78-15.17,13.87-22.26,4.08-5.68,9.19-10.64,14-15.81,4.37-4.75,9.21-5,14.23-1,19.14,15.31,37.86,10.7,56.2-1.46a99.05,99.05,0,0,0,15.91-12.58c5.28-5.34,10.43-6.84,17.33-3.62,21.1,9.84,39.16,3.53,54.81-11.61,7.67-7.42,14-16.19,21.29-24,2-2.2,5.23-3.33,7.89-4.95.89,2.8,2.67,5.66,2.5,8.39-.72,11.54-1.65,23.08-3.21,34.53a61.47,61.47,0,0,1-18.47,36.31,140.57,140.57,0,0,0-31.6,46.66c-3.05,7.31-8,10.39-15.78,10a101.87,101.87,0,0,0-15.23,0c-4.13.39-9.77.44-12,3-6.46,7.61-12.67,5-20,2.37-11.54-4.18-22.42-2.64-33,4.32-3.83,2.5-10,2.76-14.78,2.13-5.16-.66-10-3.55-15-5.51-12.47-4.9-24.19-3.26-35.69,3.33-31,17.78-33.77,42.35-21,73.21,4.58,11.1,10.44,14.1,22.17,12.54,9.92-1.32,18.56.72,26.13,6.93,5,4,9.24,3.87,14.51.42s11.41-5.89,17-9a7.19,7.19,0,0,0,3.21-4.05c.59-2.42.14-5.07.43-7.58.68-6-.15-13.73,8.9-13.35,8.06.33,14.08,9.6,12.54,17.44-2.34,11.9,8.92,36.21,18.52,43.85,9.77,7.78,28.52-4.51,29.81-15.64.48-4.13,1.37-8.21,2.33-13.84,14.76,7.11,29.25,4.88,43.83,3.86,3.63-.25,8.75,2.46,11.07,5.46,6.6,8.53,14.18,11.63,24.38,7.81a8.86,8.86,0,0,1,3.27-.85c9.71.38,12.5-5.15,13.51-13.85.54-4.6,4.36-8.74,6.15-13.3,1.23-3.12,2.47-6.72,2.08-9.91-3.51-28.57,3.48-24.13,24.56-21.74a12.84,12.84,0,0,0,8.57-2.6c10-8.12,19.65-16.7,31.05-26.51,2,10.62,1.81,18.55-1.22,26.66a81.32,81.32,0,0,0-5,18.5c-.59,5-2.38,6.92-7.07,7.44-14.54,1.62-25.77,9.28-35.29,19.91-6.46,7.21-5.47,12.45,3.33,16,4.1,1.68,9,2,8.5,8.47s-3.35,10.73-9.4,12.64c-4.3,1.36-8.73,2.29-13.12,3.33-31.42,7.46-49.24,46.28-23,73.57a160.74,160.74,0,0,1,18.19,22.18c5.2,7.86,3.09,12.11-5.8,15.41-2.91,1.08-5.88,2-8.79,3.06-5,1.87-6.72,5.3-5.57,10.67s2.56,9.7,9.08,10.42c3.61.39,9.91,1.47,10.15,3,1,6.41,2.59,14.69-.49,19.37a83.7,83.7,0,0,0-12.93,34.47c-.68,4.52-2.21,6.71-6.82,8-11.18,3.2-10.08,12.76-9.9,21.48-10.81,4.67-13.32,25.75-3.1,32.86,5.6,3.89,5,8,5,12.94-.22,18.9,10.52,35.64,27.55,42.84,17.23,7.28,47.72-.39,57-17,7.95-14.3,12.06-30.73,17.81-46.24,1-2.72,1.68-5.56,2.51-8.34l2.19-.13c.76,1.81,1.86,3.55,2.23,5.44,3.32,17.05,4.58,34.52,14.31,50,4.84,7.67.5,18.1-7.82,22.29-16.49,8.33-31.56,18.44-44.66,31.69-5.87,5.93-13.47,10.16-20.41,15-10.76,7.48-19.16,16.17-21,30.18-1.54,11.75-18.61,25.54-31.91,24.62-15.84-1.1-25.66,7.49-30.46,19.56-4.7,11.83-5.33,25.53-6.21,38.52-.48,7.1,2,14.46,3.51,21.63,1.59,7.74-.89,12.12-9,13.89-9.34,2.06-18.53,4.87-27.71,7.64-41.12,12.39-64.44,40.62-72.71,82.12a55.36,55.36,0,0,0-1.38,7.49c-.38,6.38-4.22,7.58-9.33,6.11-5.68-1.64-11.11-4.11-16.78-5.75s-11.48-2.19-16.93-4.08c-3.08-1.07-6.75-3.29-8.09-6-10-20.42-27.36-31.08-47.68-39.39-16.17-6.62-46.25,5.45-52.64,20.68-1.53,3.64-3.38,7.14-5,10.71-6.6,14.07-13.83,18.32-29,14.81-8.09-1.87-15.78-5.81-23.35-9.43a118,118,0,0,1-16.74-9.9c-11.79-8.25-22.88-6.15-34.91.07a457.7,457.7,0,0,1-42.41,18.7c-7.87,3.11-10.66.92-12.32-7.41a41,41,0,0,1-.8-8.41c.18-16.39-7.81-28-20.3-37.88-24.51-19.44-53.08-28.3-83.19-33.14-15.3-2.46-30.84-3.43-46.24-5.29-3.85-.47-8.23-.86-11.19-3a12,12,0,0,1-4.43-9c.12-2.18,3.91-5.2,6.63-6,15.52-4.78,22.59-12.72,23.62-29,1.51-23.91-6.67-44.39-23.64-61.15a38.58,38.58,0,0,0-28.3-11.43c-3.25,0-7.66-1.39-9.57-3.74C55,651.21,42.07,634.89,29.93,618c-3.41-4.74-4.39-11.45-5.69-17.43-1-4.76,1.29-7.31,6.7-6.86a78.39,78.39,0,0,0,14.37-.08c37.51-3.76,59.21-30,56.06-69.73-1.13-14.14-6-28-8.7-42-.84-4.39-1.2-9.34,0-13.56,2.66-9.78,1.79-14.8-6.45-20.6-5.75-4-12.2-7.09-18.07-11-10.3-6.81-10.2-17.39-.5-24.88,8.24-6.36,16.79-12.62,23.72-20.27,12.49-13.81,9.11-26.34-8.64-32.23A60.52,60.52,0,0,0,59.51,357c-6.23.47-8.94-1.43-8.71-6.84C51.06,344,53,338,53.36,331.85A40.1,40.1,0,0,0,52,318.49c-1.47-5.09-4.58-9.7-6.06-14.79-.65-2.27.13-6.17,1.76-7.51,1.33-1.1,5.27-.17,7.39,1,8.81,5,17.05,11.14,26.07,15.71,28,14.18,50.32,8.6,68.78-16.86C154.56,289.72,158.34,282.76,163.23,274.92Zm244.1-9.22c-133.58-1.07-251.1,118.52-255.54,253.82C146.22,689,287.65,792.16,408.38,793.11c132.9,1,271-100.5,270.82-249.8C678.91,345,538.56,268.89,407.33,265.7Z" style="fill:#3b3b3b"/><path d="M253.12,618.52H224.51l62.19-90.14-58.3-85.57h29.68L302.42,510l44-67.22h28.24l-58.26,85.56,61.11,90.15H348.05l-46.81-72.25Z" style="fill:#3b3b3b"/><path d="M420.73,618.52H400.28V440.3h20.45Z" style="fill:#3b3b3b"/><path d="M479.28,442.81l50.48,149.64,49.88-149.64h26.67L542.2,618.52H517L453,442.81Z" style="fill:#3b3b3b"/></svg>