<?xml version="1.0" encoding="utf-8"?>
<!-- Generator: Adobe Illustrator 23.0.1, SVG Export Plug-In . SVG Version: 6.00 Build 0)  -->
<svg version="1.1" id="Layer_1" xmlns="http://www.w3.org/2000/svg" xmlns:xlink="http://www.w3.org/1999/xlink" x="0px" y="0px"
	 viewBox="0 0 1000 1000" style="enable-background:new 0 0 1000 1000;" xml:space="preserve">
<style type="text/css">
	.st0{fill:#372922;}
	.st1{fill:#19B4CF;}
</style>
<title>bliep</title>
<path id="path9886" class="st0" d="M952.7,442.2c-1.5-11.6-3.4-23.1-5.7-34.5C904.4,199.2,719.9,42.4,498.8,42.4
	c-252.6,0-457.4,204.8-457.4,457.4s204.8,457.4,457.4,457.4c221,0,405.4-156.7,448.1-365.1c2.3-11.3,4.2-22.8,5.7-34.5
	c2.4-19,3.6-38.3,3.6-57.9C956.2,480.3,955,461.1,952.7,442.2"/>
<path id="path9888" class="st1" d="M325.6,442.2l-0.9,1.2v113.2l0.9,1.2h75.6l0.9-1.2V443.3l-0.9-1.2H325.6z M287.2,568.1l0-136.2
	c0-13.4,10.1-24.2,22.5-24.2h107.5c12.3,0,22.4,10.8,22.4,24.1l0,136.4c-0.1,13.2-10.2,23.9-22.5,23.9H309.6
	C297.4,592.2,287.3,581.4,287.2,568.1"/>
<path id="path9890" class="st1" d="M139.9,407.7c-12.8,0-23.2,10.9-23.2,24.2c0,0,0,146.2,0,160.3c9.3,0,29.5,0,38.8,0
	c0-11.6,0-65.8,0-65.8s51.4,0,62.7,0c0-27,0-7.5,0-34.5c-11.3,0-62.7,0-62.7,0v-48.6l0.9-1.2h100v-34.5
	C243.3,407.7,139.9,407.7,139.9,407.7"/>
<path id="path9892" class="st1" d="M598.7,407.7c0,38.7,0,124.7,0,124.7l-69.4-113.3c-4.1-7.1-11.1-11.4-18.7-11.4
	c0,0-19.3,0-28.4,0c0,12.4,0,148.2,0,184.4H519c0-25,0-124.5,0-124.5s53.2,87,76.2,124.5h40.4c0-44.3,0-145.8,0-184.4L598.7,407.7"
	/>
<path id="path9894" class="st1" d="M681.6,592.2h40.5V407.7h-40.5V592.2z"/>
<path id="path9896" class="st1" d="M810.2,557.7l-1-1.2V443.3l1-1.2h81.3v-34.5h-98.5c-13.4,0-24.2,10.9-24.2,24.2v136.2
	c0.1,13.3,11,24,24.2,24h98.5v-34.5L810.2,557.7"/>
</svg>
