<?xml version="1.0" encoding="utf-8"?>
<!-- Generator: Adobe Illustrator 23.0.1, SVG Export Plug-In . SVG Version: 6.00 Build 0)  -->
<svg version="1.1" id="Layer_1" xmlns="http://www.w3.org/2000/svg" xmlns:xlink="http://www.w3.org/1999/xlink" x="0px" y="0px"
	 viewBox="0 0 1000 1000" style="enable-background:new 0 0 1000 1000;" xml:space="preserve">
<style type="text/css">
	.st0{fill:#FFFFFF;}
	.st1{fill:#FD0000;}
</style>
<circle cx="500" cy="500" r="444.3"/>
<g id="layer1" transform="translate(-81.145616,-438.12442)">
	<path id="text2396" class="st0" d="M286.2,915.6h-38v-11.8c0-7.4-0.4-12.1-1.1-14c-0.7-1.9-2.4-2.8-5.1-2.8c-2.3,0-3.9,0.8-4.8,2.4
		c-0.8,1.6-1.3,5.7-1.3,12.4v62.3c0,5.8,0.4,9.7,1.3,11.5c0.8,1.8,2.5,2.8,5.1,2.8c2.8,0,4.6-1,5.6-3.1c1-2.1,1.5-6.1,1.5-12.2
		v-15.4h-7.7v-19.7h44.5v69.7h-23.9l-3.5-9.3c-2.6,4-5.9,7-9.8,9c-3.9,2-8.6,3-13.9,3c-6.4,0-12.3-1.4-17.9-4.1
		c-5.6-2.8-9.8-6.2-12.7-10.2c-2.9-4.1-4.7-8.3-5.4-12.8c-0.7-4.5-1.1-11.2-1.1-20.1v-38.6c0-12.4,0.8-21.4,2.3-27
		c1.5-5.6,5.8-10.8,12.9-15.4c7.1-4.7,16.3-7,27.7-7c11.1,0,20.4,2,27.7,6.1c7.3,4.1,12.1,8.9,14.3,14.5c2.2,5.6,3.3,13.7,3.3,24.3
		V915.6L286.2,915.6z M329.3,932.4h-34.2v-7.1c0-8.2,1.1-14.6,3.2-19c2.1-4.5,6.4-8.4,12.9-11.8c6.4-3.4,14.8-5.1,25.1-5.1
		c12.3,0,23.2,1.9,29.5,5.8c6.3,3.9,10,8.6,11.3,14.3c1.3,5.6,1.9,17.3,1.9,34.8v53.4h-37v-9.5c-2.2,3.8-5.1,6.6-8.6,8.5
		c-3.5,1.9-7.7,2.8-12.6,2.8c-6.4,0-12.2-1.6-17.6-4.8s-8-10.1-8-20.9v-8.7c0-8,1.4-13.4,4.2-16.3c2.8-2.9,9.8-6.3,21-10.1
		c12-4.2,18.4-7,19.2-8.4c0.8-1.4,1.3-4.4,1.3-8.8c0-5.6-0.5-9.2-1.4-10.9c-0.9-1.7-2.5-2.5-4.6-2.5c-2.5,0-4,0.7-4.6,2.1
		c-0.6,1.4-0.9,5.1-0.9,11V932.4z M340.8,947c-5.8,3.8-9.2,7-10.2,9.5c-0.9,2.6-1.4,6.3-1.4,11.1c0,5.5,0.4,9.1,1.2,10.7
		c0.8,1.6,2.4,2.4,4.8,2.4c2.3,0,3.8-0.6,4.5-1.9c0.7-1.3,1-4.6,1-9.9L340.8,947L340.8,947z M425.8,891.2l-0.6,10.1
		c2.8-4,6.2-7,10.1-9c3.9-2,8.4-3,13.4-3c9.7,0,17.4,4,23,12c3.1-4,6.5-7,10.4-9c3.8-2,8.1-3,12.8-3c6.2,0,11.3,1.3,15.4,4
		c4.1,2.7,6.7,5.9,7.8,9.8c1.1,3.9,1.7,10.2,1.7,18.9v75.6h-35.4v-69.4c0-9.1-0.3-14.7-1-16.9c-0.7-2.2-2.3-3.2-4.8-3.2
		c-2.6,0-4.3,1.1-5,3.2c-0.8,2.1-1.1,7.8-1.1,16.9v69.4H437V930c0-10.4-0.3-16.7-0.9-18.8c-0.6-2.1-2.2-3.1-4.7-3.1
		c-1.6,0-3,0.5-4.2,1.6c-1.1,1.1-1.8,2.4-1.9,4c-0.1,1.6-0.2,4.9-0.2,10.1v73.8h-36.6V891.2L425.8,891.2L425.8,891.2z M615,946.3
		h-47.2v23c0,4.8,0.4,7.9,1.2,9.3c0.8,1.4,2.3,2.1,4.5,2.1c2.8,0,4.6-0.9,5.5-2.8c0.9-1.8,1.4-5.4,1.4-10.7v-14H615v7.9
		c0,6.6-0.5,11.6-1.4,15.2c-0.9,3.5-3.1,7.3-6.5,11.3c-3.4,4-7.8,7-13,9c-5.3,2-11.9,3-19.8,3c-7.7,0-14.5-1-20.4-3
		c-5.9-2-10.5-4.7-13.8-8.1c-3.3-3.4-5.5-7.2-6.8-11.4c-1.3-4.1-1.9-10.2-1.9-18.1v-31c0-9.3,1.4-16.6,4.2-22
		c2.8-5.4,7.5-9.5,13.9-12.4c6.4-2.9,13.8-4.3,22.2-4.3c10.2,0,18.7,1.7,25.3,5.2c6.6,3.4,11.3,8,14,13.7c2.7,5.7,4,13.7,4,24
		L615,946.3L615,946.3z M578.4,928.9v-7.8c0-5.5-0.3-9.1-1-10.7c-0.7-1.6-2-2.4-4.1-2.4c-2.5,0-4.1,0.7-4.7,2c-0.6,1.4-0.9,5-0.9,11
		v7.8L578.4,928.9L578.4,928.9z"/>
	<path id="path2405" class="st1" d="M708.6,904.1h-35.3v-9.6c0-4.5-0.5-7.4-1.4-8.6c-0.9-1.2-2.4-1.8-4.5-1.8c-2.3,0-4,0.8-5.2,2.5
		c-1.2,1.7-1.8,4.2-1.8,7.5c0,4.3,0.7,7.6,2,9.8c1.3,2.2,4.8,4.8,10.7,7.9c16.9,8.9,27.6,16.3,31.9,22c4.4,5.7,6.6,14.9,6.6,27.7
		c0,9.2-1.2,16.1-3.7,20.5c-2.4,4.4-7.1,8.1-14.1,11c-7,3-15.1,4.5-24.4,4.5c-10.2,0-18.8-1.7-26-5.1c-7.2-3.4-11.9-7.8-14.1-13.1
		c-2.2-5.3-3.3-12.8-3.3-22.5v-8.5h35.3v15.8c0,4.9,0.5,8,1.5,9.4c1,1.4,2.8,2.1,5.3,2.1c2.5,0,4.4-0.9,5.6-2.6
		c1.2-1.8,1.8-4.4,1.8-7.9c0-7.6-1.2-12.6-3.5-15c-2.4-2.4-8.3-6.3-17.8-11.8c-9.4-5.6-16.9-9.6-20-12.1c-3.1-2.5-5.6-6-7.6-10.4
		c-2-4.4-3-10.1-3-17c0-9.9,1.4-18.8,4.3-23.4c2.9-4.6,7.5-8.2,13.9-10.8c6.4-2.6,15.3-3.9,24.3-3.9c9.9,0,18.3,1.4,25.2,4.3
		c6.9,2.8,11.5,6.4,13.8,10.7c2.3,4.3,3.4,13.2,3.4,23.5L708.6,904.1L708.6,904.1z M762.6,874v12.8h10.2v16.8h-10.2v60.9
		c0,7,0.4,10.9,1.2,11.7c0.8,0.8,2.6,1.2,8.6,1.2v17.2h-14.7c-8.3,0-14.2-0.3-17.8-0.9c-3.5-0.6-6.7-2-9.4-4.3s-4.4-4.8-5.1-7.6
		c-0.7-2.9-1-9.6-1-20.2v-58h-7.9v-16.8h7.9V874L762.6,874L762.6,874z M864.2,925.6v26.1c0,9.6-0.5,16.6-1.6,21.1
		c-1.1,4.5-3.4,8.6-6.9,12.5c-3.5,3.9-8.1,6.7-13.7,8.6c-5.6,1.8-12,2.8-19.2,2.8c-8.1,0-14.9-0.8-20.5-2.4c-5.6-1.6-9.9-4-13-7.1
		s-5.3-7-6.6-11.5c-1.3-4.5-2-11.3-2-20.3v-27.3c0-9.9,1.2-17.6,3.6-23.2c2.4-5.6,6.7-10,13-13.4c6.3-3.4,14.3-5.1,24-5.1
		c8.2,0,15.2,1.1,21.1,3.2c5.9,2.2,10.4,5,13.6,8.5c3.2,3.5,5.4,7.1,6.5,10.7C863.6,912.4,864.2,918,864.2,925.6L864.2,925.6
		L864.2,925.6z M827.7,917.5c0-5.5-0.3-8.9-1-10.3c-0.7-1.4-2.1-2.1-4.2-2.1c-2.2,0-3.6,0.7-4.3,2.1c-0.7,1.4-1.1,4.9-1.1,10.3v48
		c0,5,0.4,8.3,1.1,9.8c0.7,1.5,2.1,2.3,4.2,2.3c2.2,0,3.6-0.7,4.3-2.1c0.7-1.4,1-4.4,1-9L827.7,917.5L827.7,917.5z M911.4,888.2
		l-0.6,9.4c3.2-3.8,6.8-6.6,10.7-8.5c3.9-1.9,8.2-2.8,12.8-2.8c21.6-0.8,29.2,11.1,29.4,31.4v44.8c0,9.7-0.6,16.6-1.9,20.7
		c-7.2,14.3-26.8,16.5-40.5,10.6c-3.9-1.9-7.4-4.7-10.6-8.3v24.4h-36.5V888.2H911.4z M921.8,919.2c0-6.6-0.3-10.6-0.8-11.9
		c-0.5-1.4-2-2.1-4.5-2.1c-2.4,0-4,0.8-4.6,2.4c-0.7,1.6-1,5.5-1,11.6v44.1c0,6.4,0.4,10.4,1.1,12c0.7,1.6,2.3,2.4,4.7,2.4
		c2.3,0,3.8-0.7,4.4-2.2c0.6-1.5,0.9-5,0.9-10.7V919.2z"/>
</g>
</svg>
