<?xml version="1.0" encoding="utf-8"?>
<!-- Generator: Adobe Illustrator 22.1.0, SVG Export Plug-In . SVG Version: 6.00 Build 0)  -->
<svg version="1.1" id="Layer_1" xmlns="http://www.w3.org/2000/svg" xmlns:xlink="http://www.w3.org/1999/xlink" x="0px" y="0px"
	 viewBox="0 0 1000 1000" style="enable-background:new 0 0 1000 1000;" xml:space="preserve">
<style type="text/css">
	.st0{fill:#B22D29;}
	.st1{fill:#FFFFFF;}
</style>
<path id="rect80" class="st0" d="M145.1,68h709.8c42.6,0,77.1,34.5,77.1,77.1v709.8c0,42.6-34.5,77.1-77.1,77.1H145.1
	c-42.6,0-77.1-34.5-77.1-77.1V145.1C68,102.5,102.5,68,145.1,68z"/>
<path class="st1" d="M831,684.9c-56.5,69.6-121.9,120.6-216.5,120.3c-51.2-0.2-101.8-6.5-152.4-12.9c-30.9-3.9-61.7-7.9-92.7-10.6
	c-47.3-4.1-110.7,2.8-166.4,28.3c-2.4-13.8-5.1-27.2-6.9-40.7c-3.3-25.4-2.8-50.8,1.9-76.2c5.8-31.3,20.7-56.9,45.5-77.2
	c45.2-37,92.8-70.3,143.9-98.8c33.2-18.5,65-39.7,96.4-61.2c22.6-15.5,38.7-37.1,48.6-63c8.5-22.3,6.5-43-6.7-63.3
	c-11.2-17.1-23.1-33-42.2-42c-0.3,0.6-0.7,1.1-0.6,1.5c4.3,26-4.6,41.7-29.2,51.3c-3.6,1.4-7.4,2.6-11.2,3.6
	c-12.5,3.3-17.5,8.7-18.7,21.9c-1.7,18.7,7.1,32.9,20.3,44.9c1.9,1.8,4,3.3,5.1,6.5c-8-3.8-15.9-7.6-24.9-11.9
	c-8.3,21.2-26.7,20.4-46,20.7c2.2-4.7,3.7-8.6,5.7-12.1c4.3-7.4,7.6-14.4-3.9-19.1c9-11.1,10.7-22.3,3.8-36.2
	c-2.7,3.8-4.9,6.6-6.9,9.5c-8.5,13.1-16.3,26.7-25.4,39.4c-8.6,12.2-21.9,17.5-36.1,19.2c-17.2,2-34.6,2.6-51.9,3.7
	c-1.2,0.1-2.4-0.5-3.8-1.6c34.8-2.7,63.7-15,81.8-46.5c9.5-16.6,15.8-33.8,12.5-53.5c-24.8,7.1-54,31.1-55.2,43.9
	c-8.1,3-16.7,4.4-22.9,9.1c-6.4,4.9-12,12.5-4.7,21.6c-18.9,7.5-36.6-0.4-44.3-19.1c-5.5-13.6-6.8-42.5-2.3-58.5
	c2.5,6.5,4.5,12.5,7.2,18.2c2.6,5.5,5.5,12,13.2,10.6c7.4-1.3,8.4-8.2,9.8-14.2c0.4-1.9,0.5-3.8,1.1-8.1c2,4.7,3.1,7.3,5.1,12.1
	c8.6-13,16.1-25.3,24.7-36.7c7.1-9.5,7.8-18.2,3.6-29.3c-2.4-6.1-0.1-14,0-21.1c1.1,0,2.1-0.1,3.2-0.1c1.7,6.4,3.4,12.7,5.2,19.3
	c10.2-9.4,12.2-19.7,7.4-31.2c-1.1-2.6-0.7-7.6,1.2-9.3c11.9-11.4,24.3-22.2,37.8-32.2c-4.9,7.4-9.7,14.9-14.6,22.3
	c36.9-33.6,87.2-38.9,129-61.5c-16.5,14-33.1,28.1-48.2,40.9c16.6-4,34.4-9.7,52.6-12.4c82.5-12.4,168.2,37.2,199.8,114.4
	c11.8,28.9,12.2,57.9,0.8,86.9c-19.6,49.8-48.5,93.3-92.1,124.9c-34.4,25-71,47-106.6,70.3c-2.3,1.5-4.8,2.7-6.9,4.6
	c11.9-3.5,23.7-7.4,35.7-10.4c24.8-6.2,49.6-6.6,74.9-0.8c50.8,11.8,97.5,1.5,138.9-30.3c38-29.1,70.4-64.2,103-98.9
	c1.8-1.9,3.6-3.9,5.3-5.7C793.5,573.2,723,661.6,608,717.4c21.8,11.8,42.7,15.9,64.5,16c24.2,0.2,47.3-5.9,69.7-14.1
	C771.7,708.7,800.6,696.7,831,684.9z M368.6,266.9c-25.6,6.9-30.3,12-24,21.2C356.5,286.1,364.7,279.7,368.6,266.9z"/>
</svg>
