<?xml version="1.0" encoding="utf-8"?>
<!-- Generator: Adobe Illustrator 25.4.1, SVG Export Plug-In . SVG Version: 6.00 Build 0)  -->
<svg version="1.1" id="Layer_1" xmlns="http://www.w3.org/2000/svg" xmlns:xlink="http://www.w3.org/1999/xlink" x="0px" y="0px"
	 viewBox="0 0 1000 1000" style="enable-background:new 0 0 1000 1000;" xml:space="preserve">
<style type="text/css">
	.st0{fill:#FFFFFF;}
	.st1{fill-rule:evenodd;clip-rule:evenodd;fill:#E71D2C;}
</style>
<g>
	<rect class="st0" width="1000" height="1000"/>
</g>
<g>
	<path class="st1" d="M683.2,217.8c32.7-16.4,49.5-13.9,50,2.5c0.4,21.4-2.9,50-5,70.5c-12.6,111.7-32.7,202.8-34.4,317.8
		c54.2-140.2,99.1-236.8,157.4-356.4c18.5-38.2,30.6-31.1,45.8-38.2c59.2-26.5,61.3-10.1,53.3,22.7
		c-28.5,118.8-101.6,494.6-112.9,552.1c-3.4,16.8-21.8,10.1-26,3.4c-21.8-29-45.3-29.4-42.8-49.1c13.4-95.7,61.3-338,73.5-395.1
		C778.5,477.3,713,639.7,679.4,731.2c-7.1,19.3-20.2,18.1-28.1,3.8c-11.8-20.6-33.6-30.6-36.9-54.2c-11.8-75.2,13-218.7,16.4-309.8
		c-34,99.1-91.9,292.2-117.1,379.1c-10.5,36.1-45.3,29.8-36.1-4.6C516.1,599,598.8,340.8,634.5,248
		C642.9,225.8,665.2,227,683.2,217.8L683.2,217.8z"/>
	<path class="st1" d="M474.1,199.7c-11.3-2.5-44.1,15.1-64.2,18.1c-6.3,1.7-12.2,8-14.3,13c-31.9,73.5-60.5,143.2-84.8,206.1
		c-31.9,5.9-68.9,13-110,21.8c29.8-75.6,59.6-150.7,88.6-222.5c14.3-36.1-23.5-39.5-38.2-3.4c-18.9,46.6-54.6,134.3-94,236.4
		c-29,7.1-60.5,15.1-92.4,24.8c-23.5,6.3-24.4,12.6-14.3,26.9c5.9,7.6,16.8,6.7,22.3,12.6c13.9,14.3,22.3,31.5,47,34
		C97.1,626.3,75.3,686.3,56,743.8c-12.6,36.5,23.1,44.1,36.5,5.5c21.8-61.7,44.9-124.3,68.9-187.7c19.7-4.2,67.2-14.3,111.3-24.3
		c-34.8,96.6-57.5,169.2-66.8,204.9c-1.7,6.7,1.7,10.1,2.9,13.4c11.3,16.8,23.1,17.6,38.2,39c3.8,5.9,17.6,8.8,22.7-5.5
		c32.3-98.2,65.1-189.8,96.1-272c13-3.4,36.5-8.8,50.8-29.8c25.2-37.8,32.3-30.2,39.1-41.6c7.6-14.7,2.1-27.7-24.8-24.8
		c0,0-10.1,0.8-29.4,2.9c30.2-76.8,57.1-141.9,75.6-191.9C483.4,214.9,484.2,202.3,474.1,199.7L474.1,199.7z"/>
	<path class="st1" d="M444.6,676.8c4.4-5.5,8.3-11.3,11.9-16.5c15.9-23.5,0.4-37.4-16-23.5c-2.3,2.2-4.8,4.5-7.2,6.9
		c-2.7-8.3-5.5-17.2-8-25.2c7.5-9.2,14.8-18.6,21-28.3c26.3-40.8-25.2-64.2-47.4-37.8c-11.7,13.9-8.8,27.7-5.5,39.9
		c1,3.7,2.5,8.9,4.4,15.2c-6.3,6.6-13.8,14.7-23.7,26.3c-25.6,29.4-18.5,67.2,8.4,75.6c16.2,5,31.5-2.3,44.8-14
		c0.6,1.7,1.3,3.3,1.8,4.8c7.1,17.6,29.4,12.2,20.6-9.2C448.4,687.3,446.6,682.5,444.6,676.8L444.6,676.8z M408.2,639.8
		c2.2,6.9,4.5,14.1,6.9,20.9c-2.9,2.4-5.9,4.9-8.9,6.6c-10.4,6-18.1-0.4-4.6-18.5C403.7,645.8,406,642.8,408.2,639.8L408.2,639.8z
		 M416.6,588.4c-0.8-2-1.2-3.9-1.6-5.4c-7.5-28.1,24.7-20.6,8.4-2.1C421,583.6,418.9,586.2,416.6,588.4L416.6,588.4z"/>
</g>
</svg>
