<?xml version="1.0" encoding="utf-8"?>
<!-- Generator: Adobe Illustrator 25.1.0, SVG Export Plug-In . SVG Version: 6.00 Build 0)  -->
<svg version="1.1" id="Layer_1" xmlns="http://www.w3.org/2000/svg" xmlns:xlink="http://www.w3.org/1999/xlink" x="0px" y="0px"
	 viewBox="0 0 1000 1000" style="enable-background:new 0 0 1000 1000;" xml:space="preserve">
<style type="text/css">
	.st0{fill-rule:evenodd;clip-rule:evenodd;fill:#0058AB;}
	.st1{fill-rule:evenodd;clip-rule:evenodd;fill:#FBD914;}
	.st2{fill:#0058A3;}
</style>
<g id="logo">
	<g id="IKEA_Color">
		<polygon id="Shape" class="st0" points="999.9,700 0,700 0,300 1000,300 1000,700 		"/>
		<path id="path7_1_" class="st1" d="M20,500c0,98.3,201.2,180,480.1,180C779,680,980,598.3,980,500S778.8,320,500.1,320
			C221.3,320,20,401.7,20,500z"/>
		<path id="path9_1_" class="st2" d="M464.5,560c3.2,4.5,6.6,8.7,10.6,12.5H366.9c0-4.2-4.2-12.7-8.7-19.4
			c-4.6-6.7-29.4-43.5-29.4-43.5V560c0,4.2,0,8.3,2.1,12.5h-90.2c2.2-4.2,2.2-8.3,2.2-12.5V440c0-4.2,0-8.3-2.2-12.5h90.2
			c-2.1,4.2-2.1,8.3-2.1,12.5v52.5c0,0,28.8-36.7,35.4-45.2c5-6.4,11.2-15.5,11.2-19.7h94c-6.5,4.2-13.6,11.8-19.5,18.7
			c-5.2,6.2-34.4,41-34.4,41S458.7,551.8,464.5,560L464.5,560z M492.9,440v120c0,4.2,0,8.3-2.1,12.5h174v-40.3
			c-4.3,2.1-8.5,2.1-12.8,2.1h-73.2v-19h70.4v-30.5h-70.4v-19.2H652c4.3,0,8.5,0,12.8,2v-40.2h-174
			C492.9,431.8,492.9,435.8,492.9,440z M905.8,560c1.4,4.6,3.9,8.8,7,12.5h-94.3c0.4-4.2-1.1-8.3-2.9-12.5c0,0-1.4-3.4-3.4-8.3
			l-0.9-2.1H757l-0.9,2.2c0,0-1.6,4.1-3,8.3s-3,8.3-2.4,12.5h-74.4c3-3.7,5.3-7.9,6.7-12.5l44.6-120c1.6-4.2,3.2-8.3,2.6-12.5h125.7
			c-1.1,4.2,1.1,8.3,2.7,12.5C862.4,449.2,902.6,551.9,905.8,560z M799.4,519.1l-13.2-33.6c-1.1-3.1-2.1-6.3-2.9-9.5
			c-0.6,3.2-1.4,6.4-2.6,9.5c-0.4,1.4-6,16.1-12.5,33.6C768.3,519.1,799.4,519.1,799.4,519.1z M198,427.6h-98
			c2.2,4.2,2.2,8.3,2.2,12.5v120c0,4.2,0,8.3-2.2,12.5h98c-2.1-4.2-2.1-8.3-2.1-12.5V440C195.9,435.8,195.9,431.8,198,427.6z
			 M875.7,439c-0.4-10.2,7.7-18.7,18.2-19h1.3c10.6-0.1,19.3,8,19.5,18.3v0.7c0.3,10.5-8.2,19.3-19.1,19.6
			c-10.8,0.3-19.8-8-20.1-18.6C875.7,439.7,875.7,439.3,875.7,439L875.7,439z M879.6,439c0,8.4,7,15.2,15.6,15.2
			c8.6,0,15.6-6.9,15.6-15.2s-7-15.2-15.6-15.2c-8.3-0.3-15.3,6-15.6,14.1C879.6,437.9,879.6,439,879.6,439z M891.3,450.4h-3.4
			v-22.9h8.7c4.2,0.1,7.3,3.4,7.3,7.4c0,2.8-1.6,5.3-4.2,6.7l5,8.8h-3.9l-4.6-8.1h-5C891.3,442.2,891.3,450.4,891.3,450.4z
			 M891.3,439h4.7c2.3,0.1,4.3-1.5,4.3-3.8c0-2.2-1.6-4.2-3.9-4.2h-5.2V439z"/>
	</g>
</g>
</svg>
