<?xml version="1.0" encoding="utf-8"?>
<!-- Generator: Adobe Illustrator 25.2.3, SVG Export Plug-In . SVG Version: 6.00 Build 0)  -->
<svg version="1.1" id="Layer_1" xmlns="http://www.w3.org/2000/svg" xmlns:xlink="http://www.w3.org/1999/xlink" x="0px" y="0px"
	 viewBox="0 0 1000 1000" style="enable-background:new 0 0 1000 1000;" xml:space="preserve">
<style type="text/css">
	.st0{fill:#FF6300;}
	.st1{fill:#FFFFFF;}
</style>
<path class="st0" d="M878.2,944.2H121.8c-36.4,0-66-29.5-66-66V121.8c0-36.4,29.5-66,66-66h756.5c36.4,0,66,29.5,66,66v756.5
	C944.2,914.7,914.7,944.2,878.2,944.2z"/>
<g>
	<path class="st1" d="M326.8,226.6c-3.8-1-4.5-6-1.1-8c75.4-45.5,168.7-61.5,260.8-37.2c92,24.3,164.7,84.3,207,160.8
		c1.9,3.4-1.2,7.4-5,6.4L326.8,226.6z"/>
	<path class="st1" d="M227.4,314l602.9,159.4c1.8,0.5,3.2,2.1,3.3,4c2.5,35.4-0.8,71.8-10.6,108c-9.8,36.1-25.4,69.3-45.5,98.7
		c-1.1,1.6-3.1,2.3-4.9,1.8L169.7,526.6c-1.8-0.5-3.2-2.1-3.3-4c-2.5-35.4,0.8-71.9,10.6-108s25.4-69.3,45.5-98.7
		C223.6,314.3,225.6,313.6,227.4,314z"/>
	<path class="st1" d="M673.2,773.4c3.8,1,4.5,6,1.1,8c-75.4,45.5-168.7,61.5-260.8,37.2c-92-24.3-164.7-84.3-207-160.8
		c-1.9-3.4,1.2-7.4,5-6.4L673.2,773.4z"/>
</g>
</svg>
