<?xml version="1.0" encoding="utf-8"?>
<!-- Generator: Adobe Illustrator 22.1.0, SVG Export Plug-In . SVG Version: 6.00 Build 0)  -->
<svg version="1.1" id="Layer_1" xmlns="http://www.w3.org/2000/svg" xmlns:xlink="http://www.w3.org/1999/xlink" x="0px" y="0px"
	 viewBox="0 0 1000 1000" style="enable-background:new 0 0 1000 1000;" xml:space="preserve">
<g>
	<path d="M14,497.5C14,629.9,67,750,153,837.6V157.4C67,245,14,365.1,14,497.5z"/>
	<path d="M834.6,848.8C927.3,760.4,985,635.7,985,497.5c0-128.1-49.6-244.7-130.7-331.4L551.8,518.9L834.6,848.8z"/>
	<path d="M227,897.8v1.5c77.7,52.8,171.5,83.6,272.5,83.6c103.3,0,199.1-32.3,277.8-87.3L503.1,575.8L227,897.8z"/>
	<path d="M799.8,116C717.1,50.8,612.9,12,499.5,12c-101,0-194.8,30.9-272.5,83.6v688.5L799.8,116z"/>
</g>
</svg>
