<?xml version="1.0" encoding="utf-8"?>
<!-- Generator: Adobe Illustrator 23.0.1, SVG Export Plug-In . SVG Version: 6.00 Build 0)  -->
<svg version="1.1" id="Layer_1" xmlns="http://www.w3.org/2000/svg" xmlns:xlink="http://www.w3.org/1999/xlink" x="0px" y="0px"
	 viewBox="0 0 1000 1000" style="enable-background:new 0 0 1000 1000;" xml:space="preserve">
<style type="text/css">
	.st0{fill-opacity:0;stroke:#6BD102;stroke-width:1.9723;stroke-miterlimit:10;}
	.st1{fill:#6BD102;}
	.st2{fill:#F68911;}
</style>
<g>
	<path d="M915.1,181.8H82.3c-33.2,0-60.2,27-60.2,60.1v482.9c0,33.2,27,60.3,60.2,60.3h757l136-139.7V241.9
		C975.3,208.7,948.3,181.8,915.1,181.8z M443.2,471.7l-59.6,71.8H163.7c-13.3,0-24.2-10.8-24.2-24.1V371.3
		c0-13.3,10.9-24.1,24.2-24.1H419c13.3,0,24.1,10.8,24.1,24.1V471.7z"/>
	<path d="M419,365.4H163.7c-3.3,0-5.9,2.6-5.9,5.9v148.1c0,3.2,2.7,5.9,5.9,5.9H375l49.9-60.2v-93.8
		C424.9,368.1,422.3,365.4,419,365.4z"/>
</g>
<title>bliep</title>
<g id="layer1" transform="translate(-218.30162,-504.09031)">
	<path id="path2919" class="st0" d="M284.5,730.7c6.1-6.4,14.3-7,14.3-7l835.5,0.2c0,0,10.2,1,16.3,8c4.6,5.4,5,12.9,5,12.9
		l-0.1,389.5l-113.8,116.8H298.8c0,0-6.9,0.5-13.5-5.7c-7.2-6.9-6.9-14-6.9-14v-488C278.5,743.3,279.2,736.2,284.5,730.7
		L284.5,730.7z"/>
	<path id="path2917" class="st1" d="M284.5,730.7c6.1-6.4,14.3-7,14.3-7l835.5,0.2c0,0,10.2,1,16.3,8c4.6,5.4,5,12.9,5,12.9
		s0,95.2,0,191.5c0,98.5,0,198.1,0,198.1l-113.8,116.8H298.8c0,0-6.9,0.5-13.5-5.7c-7.2-6.9-6.9-14-6.9-14v-488
		C278.5,743.3,279.2,736.2,284.5,730.7L284.5,730.7z"/>
	<g id="path2925">
		<path d="M601.9,1047.6H382c-13.3,0-24.2-10.8-24.2-24.1V875.4c0-13.3,10.9-24.1,24.2-24.1h255.3c13.3,0,24.1,10.8,24.1,24.1v100.4
			L601.9,1047.6z M382,869.5c-3.3,0-5.9,2.6-5.9,5.9v148.1c0,3.2,2.7,5.9,5.9,5.9h211.3l49.9-60.2v-93.8c0-3.2-2.6-5.9-5.9-5.9H382z
			"/>
	</g>
</g>
<path id="path2927" class="st2" d="M158.8,366.5c1.9-1.9,4.4-2.1,4.4-2.1h256.1c0,0,3.1,0.3,5,2.4c1.4,1.6,1.6,4,1.6,4v97.5
	l-48.6,57.7H163.1c0,0-2.1,0.2-4.1-1.8c-2.2-2.1-2.1-4.3-2.1-4.3V370.3C156.9,370.3,157.2,368.3,158.8,366.5L158.8,366.5z"/>
</svg>
