<?xml version="1.0" encoding="utf-8"?>
<!-- Generator: Adobe Illustrator 23.0.1, SVG Export Plug-In . SVG Version: 6.00 Build 0)  -->
<svg version="1.1" id="Layer_1" xmlns="http://www.w3.org/2000/svg" xmlns:xlink="http://www.w3.org/1999/xlink" x="0px" y="0px"
	 viewBox="0 0 1000 1000" style="enable-background:new 0 0 1000 1000;" xml:space="preserve">
<style type="text/css">
	.st0{fill:#00407D;}
	.st1{fill:#DD9F05;}
	.st2{fill:url(#SVGID_1_);}
	.st3{fill:url(#SVGID_2_);}
	.st4{opacity:0.3;fill:#3A1414;}
	.st5{fill:#2D6595;}
	.st6{fill:#0277BD;}
	.st7{opacity:0.6;}
	.st8{fill:#01579B;}
	.st9{fill:url(#SVGID_3_);}
	.st10{fill:url(#SVGID_4_);}
	.st11{fill:url(#SVGID_5_);}
	.st12{fill:url(#SVGID_6_);}
</style>
<title>Artboard 1</title>
<circle class="st0" cx="501.5" cy="546.2" r="405.9"/>
<path class="st1" d="M501.5,94.6C252.2,94.6,50,296.8,50,546.2s202.2,451.5,451.5,451.5s451.5-202.2,451.5-451.5
	S750.9,94.6,501.5,94.6z M501.5,952.1c-224.2,0-405.9-181.7-405.9-405.9s181.7-405.9,405.9-405.9S907.5,322,907.5,546.2
	S725.7,952.1,501.5,952.1z"/>
<linearGradient id="SVGID_1_" gradientUnits="userSpaceOnUse" x1="275.732" y1="155.0691" x2="727.348" y2="937.2909">
	<stop  offset="0" style="stop-color:#51290E"/>
	<stop  offset="0.547" style="stop-color:#E6C48F"/>
	<stop  offset="0.6446" style="stop-color:#D08E29"/>
	<stop  offset="1" style="stop-color:#452A15"/>
</linearGradient>
<path class="st2" d="M501.5,94.6C252.2,94.6,50,296.8,50,546.2s202.2,451.5,451.5,451.5s451.5-202.2,451.5-451.5
	S750.9,94.6,501.5,94.6z M501.5,952.1c-224.2,0-405.9-181.7-405.9-405.9s181.7-405.9,405.9-405.9S907.5,322,907.5,546.2
	S725.7,952.1,501.5,952.1z"/>
<linearGradient id="SVGID_2_" gradientUnits="userSpaceOnUse" x1="275.7321" y1="937.2909" x2="727.348" y2="155.0691">
	<stop  offset="0" style="stop-color:#51290E"/>
	<stop  offset="0.2756" style="stop-color:#D08E29"/>
	<stop  offset="0.4633" style="stop-color:#E1D02D"/>
	<stop  offset="0.5896" style="stop-color:#F6E57F"/>
	<stop  offset="0.7415" style="stop-color:#D08E29"/>
	<stop  offset="1" style="stop-color:#452A15"/>
</linearGradient>
<path class="st3" d="M501.5,94.6C252.2,94.6,50,296.8,50,546.2s202.2,451.5,451.5,451.5s451.5-202.2,451.5-451.5
	S750.9,94.6,501.5,94.6z M501.5,976.5c-237.7,0-430.3-192.7-430.3-430.3s192.7-430.3,430.3-430.3s430.3,192.7,430.3,430.3
	S739.2,976.5,501.5,976.5z"/>
<path class="st4" d="M242.7,176.1v57.3c72.7-60.4,164.3-93.4,258.8-93.2c17.5,0,35.1,1.1,52.5,3.4v-46c-17.4-2-34.9-3-52.5-3
	C408.9,94.5,318.5,123,242.7,176.1z"/>
<path class="st4" d="M482.2,951.7c-87.8-4.1-171.8-36.6-239.5-92.8v57.3c70.4,49.4,153.5,77.5,239.5,81.1V951.7z"/>
<path class="st5" d="M872,709.8c22.5-51.1,34.2-106.2,34.3-162c-0.4-0.5-0.7-1.1-1.1-1.7c0,0-258.8,13.7-356.9,91.2
	C472.1,697.7,356.6,842.6,309,904.2c19.6,10.5,40,19.4,61,26.5c-1.7-29.8,25.7-83,176-166.7c0,0,33.1,74.1,132.3,36.5
	c0,0,77.5-34.2,59.3-109.5C737.6,691,813.2,686.8,872,709.8z"/>
<path class="st5" d="M804.5,277.2c-12.5-14.1-25.9-27.3-40.2-39.5c-79.6,21.5-146.5,72.4-146.5,72.4c3.4-38.8-22.8-68.4-22.8-68.4
	c24.8-24.8,88.2-51.6,95.2-54.5c-102.5-54.1-223.3-61.9-331.9-21.4l11,477.3c215.5-153.9,237.2-263.4,237.2-263.4
	C673.2,321.2,768.8,287.7,804.5,277.2z"/>
<path class="st6" d="M95.6,546.2c0,135.7,66.6,255.8,168.8,329.5l5.5-662.9C164.6,286.1,95.6,408.1,95.6,546.2z M207.4,725.2
	c0,0-52.4-78.7-50.2-181.3s50.2-174.5,50.2-174.5V725.2z"/>
<g class="st7">
	<path class="st8" d="M501.5,203c188.9,0.3,341.7,153.7,341.4,342.6C842.7,734.4,689.3,887.3,500.4,887
		C311.5,886.7,158.7,733.3,159,544.4c0.2-137.3,82.5-261.1,209-314.5C410.3,212.1,455.7,202.9,501.5,203 M501.5,140.3
		C277.4,140.2,95.6,322,95.6,546.2s181.7,405.9,405.9,405.9s405.9-181.7,405.9-405.9S725.7,140.2,501.5,140.3L501.5,140.3z"/>
</g>
<linearGradient id="SVGID_3_" gradientUnits="userSpaceOnUse" x1="158.4145" y1="12.6514" x2="636.378" y2="1086.1749">
	<stop  offset="0" style="stop-color:#51290E"/>
	<stop  offset="0.2756" style="stop-color:#D08E29"/>
	<stop  offset="0.5896" style="stop-color:#F6E57F"/>
	<stop  offset="0.7415" style="stop-color:#D08E29"/>
	<stop  offset="1" style="stop-color:#452A15"/>
</linearGradient>
<polygon class="st9" points="186.8,0 471.9,0 471.9,858.6 946.2,858.6 829.9,1000 186.8,1000 264.4,904.2 264.4,96.9 "/>
<linearGradient id="SVGID_4_" gradientUnits="userSpaceOnUse" x1="584.5096" y1="771.1923" x2="742.7775" y2="1014.9034">
	<stop  offset="0" style="stop-color:#51290E"/>
	<stop  offset="0.3374" style="stop-color:#F6E57F"/>
	<stop  offset="0.5824" style="stop-color:#D08E29"/>
	<stop  offset="0.7415" style="stop-color:#D08E29"/>
	<stop  offset="1" style="stop-color:#452A15"/>
</linearGradient>
<polygon class="st10" points="903.6,910.5 946.2,858.6 471.9,858.6 370,910.5 "/>
<linearGradient id="SVGID_5_" gradientUnits="userSpaceOnUse" x1="237.4829" y1="61.7984" x2="586.2208" y2="809.6693">
	<stop  offset="0" style="stop-color:#51290E"/>
	<stop  offset="0.2576" style="stop-color:#8D5E1F"/>
	<stop  offset="0.547" style="stop-color:#E6C48F"/>
	<stop  offset="0.6649" style="stop-color:#D08E29"/>
	<stop  offset="1" style="stop-color:#452A15"/>
</linearGradient>
<polygon class="st11" points="471.9,858.6 471.9,0 370,0 370,910.5 "/>
<g>
	<linearGradient id="SVGID_6_" gradientUnits="userSpaceOnUse" x1="224.4905" y1="1021.7433" x2="728.7682" y2="148.3087">
		<stop  offset="0" style="stop-color:#51290E"/>
		<stop  offset="0.2756" style="stop-color:#D08E29"/>
		<stop  offset="0.5896" style="stop-color:#F6E57F"/>
		<stop  offset="0.7415" style="stop-color:#D08E29"/>
		<stop  offset="1" style="stop-color:#452A15"/>
	</linearGradient>
	<path class="st12" d="M463.9,8v850.6v8h8h457.4L826.2,992H203.6l67-82.7l1.8-2.2v-2.8V96.9v-2.8l-1.8-2.2L203.5,8H463.9 M471.9,0
		H186.8l77.5,96.9v807.3l-77.5,95.8h643.1l116.3-141.4H471.9V0L471.9,0z"/>
</g>
</svg>
