<svg id="svg4719" xmlns="http://www.w3.org/2000/svg" viewBox="0 0 893 893"><title>lebara</title><path d="M782.83,212.6c-15.63-26.93-35.47-52.06-58.3-74.79-58.29-58.06-133.41-95.7-213.35-107.1a279.07,279.07,0,0,0-31.25-12A351.41,351.41,0,0,0,373,2c-92.54,0-180.89,38.92-241.58,108.3A315.5,315.5,0,0,0,55.65,265.85C23.2,322.69,5.17,388.5,5.17,458.5c0,170.53,109.37,315.92,262,369.77a409.09,409.09,0,0,0,217.56,62.82C708.91,891.09,891,709.8,891,486.63c0-105.9-40.85-201.64-108.17-274ZM61.06,276A379.46,379.46,0,0,1,184.26,141.4L174.65,151C104.33,228.16,70.07,328.08,77.29,432.18a307.32,307.32,0,0,1-16.83-69.4,300,300,0,0,1,.6-86.76ZM531,48.09a302.24,302.24,0,0,1,66.7,50.25c-27-7.82-55.89-12.6-85.34-15a397.54,397.54,0,0,0-228.36,0A373.33,373.33,0,0,1,456.5,40.91c12,0,24.63.56,37.26,1.76S518.4,45.7,531,48.09ZM398.21,76.16a407.81,407.81,0,0,1,72.71,6.62C286.42,89.32,133.18,218,90.51,390.3c3.6-85.56,36.05-165.74,94.35-229.76a350.16,350.16,0,0,1,59.49-52A377.19,377.19,0,0,1,398.21,76.16Zm316.7,71.23c6,6.57,12,12.56,17.43,19.14a424.57,424.57,0,0,0-120.79-64,328.66,328.66,0,0,0-58.3-49.07A368.13,368.13,0,0,1,714.91,147.39ZM136.18,114.48A318.09,318.09,0,0,1,373,8.61,337.81,337.81,0,0,1,478.13,25.36c2.4.56,4.81,1.76,7.82,2.39-10.22-.63-19.84-.63-29.45-.63-87.14,0-171.28,29.35-238,83.17C156,142,103.73,190.46,65.87,249.09A312.86,312.86,0,0,1,136.18,114.48Zm-122,344A383.5,383.5,0,0,1,52,292.78,353.73,353.73,0,0,0,53.24,364a321.14,321.14,0,0,0,26.45,91.54c0,.6.6,1.2.6,1.8-1.2,9.58-1.2,19.75-1.2,29.32a401,401,0,0,0,154.45,317.1C103.73,742.71,14.19,610.48,14.19,458.5Z" style="fill:#00adee"/><path d="M720.33,424.4a40,40,0,0,0-9-.6c-22.84,0-34.25,12-40.27,20.95h-.6V428H644V541.67h26.44V481.24c0-7.77,0-29.91,33.66-30.51a53,53,0,0,1,16.23,2.39Z" style="fill:#fefefe"/><path d="M292.44,423.8c-42.67,0-63.71,28.72-63.71,61,0,35.3,24.64,61,65.51,61,42.07,0,57.69-28.72,59.49-38.29H324.89c-4.22,9-15,16.76-31.85,16.76-32.46-1.2-36.67-25.14-37.27-32.32H356.14C356.14,451.33,335.1,424.4,292.44,423.8Zm-36.07,47.87c5.41-21.54,21-26.32,34.86-26.32,19.23,0,32.46,7.17,36.66,26.32Z" style="fill:#fefefe"/><path d="M434.86,423.8c-22.23,0-33.05,7.78-43.87,16.16V387.31H364.55V541.67h25.84V527.32c5.41,5.38,19.24,18.54,45.07,18.54,32.45,0,60.7-23.34,60.7-61.63C496.16,449.53,472.12,423.8,434.86,423.8Zm-4.8,99.33c-18.63,0-28.85-8.38-39.07-16.76V462.09c7.82-6.58,18.64-15.55,37.86-15.55,20.43,0,40.27,12.56,40.27,38.29C469.12,510,450.49,523.13,430.06,523.13Z" style="fill:#fefefe"/><path d="M606.14,541.67h26.44V427.39H606.14V437c-7.22-7.78-22.24-13.17-37.86-13.17-45.68,0-64.31,30.52-64.31,61,0,45.48,33.06,61,64.31,61,13.22,0,30-6,37.86-15Zm-37.86-18.54c-23.44,0-37.26-14.36-37.26-38.9,0-26.92,16.83-37.69,37.26-37.69,19.83,0,37.26,10.77,37.26,37.69C605.54,508.77,592.32,523.13,568.28,523.13Z" style="fill:#fefefe"/><path d="M818.92,541.67h26.43V427.39H818.92V437c-6.65-7.78-22.27-13.17-37.9-13.17-45.67,0-64.3,30.52-64.3,61,0,45.48,33,61,64.3,61,13.23,0,30.05-6,37.9-15ZM781,523.13c-23.44,0-37.26-14.36-37.26-38.9,0-26.92,17.43-37.69,37.26-37.69,20.43,0,37.26,10.77,37.26,37.69C818.28,508.77,805.06,523.13,781,523.13Z" style="fill:#fefefe"/><path d="M222.72,515.34H158.41v-128h-27V541.67H243.75A59.74,59.74,0,0,1,222.72,515.34Z" style="fill:#fefefe"/><path d="M720.33,424.4a40,40,0,0,0-9-.6c-22.84,0-34.25,12-40.27,20.95h-.6V428H644V541.67h26.44V481.24c0-7.77,0-29.91,33.66-30.51a53,53,0,0,1,16.23,2.39Z" style="fill:#fefefe"/><path d="M292.44,423.8c-42.67,0-63.71,28.72-63.71,61,0,35.3,24.64,61,65.51,61,42.07,0,57.69-28.72,59.49-38.29H324.89c-4.22,9-15,16.76-31.85,16.76-32.46-1.2-36.67-25.14-37.27-32.32H356.14C356.14,451.33,335.1,424.4,292.44,423.8Zm-36.07,47.87c5.41-21.54,21-26.32,34.86-26.32,19.23,0,32.46,7.17,36.66,26.32Z" style="fill:#fefefe"/><path d="M434.86,423.8c-22.23,0-33.05,7.78-43.87,16.16V387.31H364.55V541.67h25.84V527.32c5.41,5.38,19.24,18.54,45.07,18.54,32.45,0,60.7-23.34,60.7-61.63C496.16,449.53,472.12,423.8,434.86,423.8Zm-4.8,99.33c-18.63,0-28.85-8.38-39.07-16.76V462.09c7.82-6.58,18.64-15.55,37.86-15.55,20.43,0,40.27,12.56,40.27,38.29C469.12,510,450.49,523.13,430.06,523.13Z" style="fill:#fefefe"/><path d="M606.14,541.67h26.44V427.39H606.14V437c-7.22-7.78-22.24-13.17-37.86-13.17-45.68,0-64.31,30.52-64.31,61,0,45.48,33.06,61,64.31,61,13.22,0,30-6,37.86-15Zm-37.86-18.54c-23.44,0-37.26-14.36-37.26-38.9,0-26.92,16.83-37.69,37.26-37.69,19.83,0,37.26,10.77,37.26,37.69C605.54,508.77,592.32,523.13,568.28,523.13Z" style="fill:#fefefe"/><path d="M818.92,541.67h26.43V427.39H818.92V437c-6.65-7.78-22.27-13.17-37.9-13.17-45.67,0-64.3,30.52-64.3,61,0,45.48,33,61,64.3,61,13.23,0,30.05-6,37.9-15ZM781,523.13c-23.44,0-37.26-14.36-37.26-38.9,0-26.92,17.43-37.69,37.26-37.69,20.43,0,37.26,10.77,37.26,37.69C818.28,508.77,805.06,523.13,781,523.13Z" style="fill:#fefefe"/><path d="M222.72,515.34H158.41v-128h-27V541.67H243.75A59.74,59.74,0,0,1,222.72,515.34Z" style="fill:#fefefe"/></svg>