<?xml version="1.0" encoding="utf-8"?>
<!-- Generator: Adobe Illustrator 24.1.2, SVG Export Plug-In . SVG Version: 6.00 Build 0)  -->
<svg version="1.1" id="Layer_1" xmlns="http://www.w3.org/2000/svg" xmlns:xlink="http://www.w3.org/1999/xlink" x="0px" y="0px"
	 viewBox="0 0 1000 1000" style="enable-background:new 0 0 1000 1000;" xml:space="preserve">
<style type="text/css">
	.st0{fill:#244F9A;}
	.st1{fill:#FFC10E;}
</style>
<path class="st0" d="M872,952.4H128c-44.4,0-80.4-36-80.4-80.4V128c0-44.4,36-80.4,80.4-80.4h744c44.4,0,80.4,36,80.4,80.4v744
	C952.4,916.4,916.4,952.4,872,952.4z"/>
<g>
	<path class="st1" d="M139.4,499.5c0-199.2,161.4-360.5,360.5-360.5c199.3,0,360.6,161.4,360.6,360.5
		c0,199.2-161.4,360.5-360.6,360.5c-39.3,0-77.1-6.3-112.5-17.8C413.1,693.4,507,572,631.2,520.5c14.8,17.1,36.5,27.8,60.7,27.8
		c44.2,0,80.1-35.9,80.1-80.2c0-44.3-35.8-80.2-80.1-80.2c-44.3,0-80.1,35.8-80.2,80c-158.5,47.7-286.9,158.3-352,300.4
		c-20.7-18.5-39.2-39.3-55.1-62.1c3.7-138.4,72.2-259.4,174.8-330.7c14.7,16.5,36.1,27,59.9,27c44.3,0,80.1-36,80.1-80.2
		c0-44.3-35.9-80.2-80.1-80.2c-44.3,0-80.2,35.9-80.2,80.2c0,2.3,0.2,4.7,0.3,6.9c-95.5,33.5-173.9,99.8-219.8,184.3
		C139.4,508.9,139.4,504.2,139.4,499.5"/>
</g>
</svg>
