<svg id="svg4719" xmlns="http://www.w3.org/2000/svg" viewBox="0 0 893 893"><title>lyca</title><path d="M443.11,192.43c-350.42-235.82-511.87,230,.38,664.68,3.73,3.12,1.3,7.07-2.23,4.85-826-508.64-293.83-1092.07,3.35-671.91,1.48,2.16,0,3.66-1.5,2.38" style="fill:#11a53c"/><path d="M449.63,192.43c350.42-235.82,512.24,230,0,664.68-3.71,3.12-1.31,7.07,2.25,4.85,826-508.64,293.43-1092.07-3.73-671.91-1.68,2.16-.18,3.66,1.48,2.38" style="fill:#005b9c"/><path d="M620.18,339.15c-22.22-15-32.46,14.59,0,42.16.24.2.09.45-.14.31-52.38-32.26-18.63-69.27.22-42.62.09.14,0,.23-.1.15" style="fill:#11a53c"/><path d="M620.59,339.15c22.23-15,32.49,14.59,0,42.16-.23.2-.08.45.15.31,52.38-32.26,18.61-69.27-.24-42.62-.11.14,0,.23.09.15" style="fill:#005b9c"/><path d="M375,425c-.3,5.39-3.8,8.09-8.32,8.09-3.61,0-6.2-2.4-6.2-4.8,0-3.49,2.3-4.58,6.71-5.58a33.78,33.78,0,0,0,7.81-2.5V425Zm21.43,18.46c-2.19-3.29-2.4-7.68-2.4-11.57V410.65c0-10,.21-20.25-24.64-20.25-12.33,0-26.14,2.39-26.74,17h18.43c.11-2.19,1.3-5.29,7.41-5.29,3.21,0,6.51,1.3,6.51,4.79,0,3.3-2.69,4.09-5.41,4.59-10.11,1.9-29.35,1.3-29.35,17.66,0,10.88,8.33,15.67,18.33,15.67,6.42,0,12.53-1.4,16.73-6.19h.21a13.34,13.34,0,0,0,.7,4.89Z" style="fill:#11a53c"/><polygon points="178.97 443.48 232.66 443.48 232.66 425.22 201.02 425.22 201.02 372.24 178.97 372.24 178.97 443.48 178.97 443.48" style="fill:#11a53c"/><path d="M287.87,391.7H267.32l-8.41,29.73h-.2L250.4,391.7H229.17l8.8,23.84c1.11,3,8.72,22.06,8.72,24.55,0,2.3-.69,3.29-1.9,3.89-1.41.7-4,.5-6,.5h-4.62v15.77h9c7.71,0,15.72.1,20.93-6.39,3.11-3.89,4.91-9.78,6.52-14.37l17.23-47.79Z" style="fill:#11a53c"/><path d="M338.13,411.36c-1.19-14.27-12.81-21-26.44-21-15.62,0-28.14,10.88-28.14,27.24s12.52,27.14,28.14,27.14c14,0,25.14-7.88,27.06-22H319.82c-.41,4.1-3.41,7.59-7.73,7.59-7.61,0-8.7-6.48-8.7-12.77s1.09-12.87,8.7-12.87a7.2,7.2,0,0,1,5,1.69,6.9,6.9,0,0,1,2.2,4.9Z" style="fill:#11a53c"/><path d="M699.38,411.94h-19c.92-5.62,4.32-8.72,10.27-8.72a8.56,8.56,0,0,1,8.75,8.72m19.11,10.32c0-20.24-9-31.78-29.68-31.78-16.49,0-27.56,12.34-27.56,27.47,0,17.34,12.57,27.16,29.28,27.16,11.86,0,22.82-5.21,26.85-16.44H698.76c-1.59,2.51-5.12,3.72-8.33,3.72-6.24,0-9.67-4.21-10.17-10.13Z" style="fill:#005b9c"/><path d="M585.7,417.75c0,6.22-1.62,12.93-8.76,12.93s-8.74-6.71-8.74-12.93,1.61-12.83,8.74-12.83,8.76,6.71,8.76,12.83m19.89-.2c0-12.23-4.68-27.07-22.22-27.07a17.07,17.07,0,0,0-14.28,7h-.19V372.25H549v71.56H568.2V438.1h.2c2.51,3.3,5.53,7,15.27,7,14.8,0,21.92-14.53,21.92-27.56" style="fill:#005b9c"/><path d="M400.9,443.81h19.92V415.65c0-5.42,1.71-9.33,6.74-9.33,6,0,6.54,4.42,6.54,9.33v28.16H454V415.65c0-5.42,1.72-9.33,6.75-9.33,6,0,6.55,4.42,6.55,9.33v28.16h19.9V408.13c0-8.42-4.52-17.64-17.88-17.64-13,0-17,7.51-17.82,8.11-2.42-5.21-8.47-8.11-14.08-8.11-7.25,0-13.1,2.21-17.11,8.22h-.2v-6.92H400.9v52Z" style="fill:#005b9c"/><path d="M525.57,417.75c0,5.51-1,12.93-8.54,12.93s-8.56-7.42-8.56-12.93,1-12.83,8.56-12.83,8.54,7.32,8.54,12.83m19.93,0c0-14.43-8.85-27.27-28.47-27.27s-28.47,12.84-28.47,27.27,8.84,27.36,28.47,27.36,28.47-12.93,28.47-27.36" style="fill:#005b9c"/><polygon points="610.53 443.81 630.47 443.81 630.47 391.79 610.53 391.79 610.53 443.81 610.53 443.81" style="fill:#005b9c"/><polygon points="638.22 443.81 658.12 443.81 658.12 372.24 638.22 372.24 638.22 443.81 638.22 443.81" style="fill:#005b9c"/></svg>