<?xml version="1.0" encoding="utf-8"?>
<!-- Generator: Adobe Illustrator 23.0.1, SVG Export Plug-In . SVG Version: 6.00 Build 0)  -->
<svg version="1.1" id="Layer_1" xmlns="http://www.w3.org/2000/svg" xmlns:xlink="http://www.w3.org/1999/xlink" x="0px" y="0px"
	 viewBox="0 0 378 427.2" style="enable-background:new 0 0 378 427.2;" xml:space="preserve">
<style type="text/css">
	.st0{fill:#1A75BB;}
</style>
<path class="st0" d="M0,366.7c0-81.7,0-163.3,0-245c1.3-0.1,2.7-0.1,4-0.3c17.3-3.5,34.5-7,51.8-10.5c10.6-2.1,10.9-2.1,10.6-12.9
	C65.8,72.9,73.2,50.4,89,30.9C104.5,11.8,123.9-0.6,149.4,0c36.1,0.8,66.8,25.7,75.8,60.7c1.3,4.9,2,10,3,15.6
	c8.4-1.7,16.6-3.3,25-5c-5.2-16.2-14.8-28.2-28-37.8c-8.5-6.2-16.1-13.7-24.1-20.6c11.4,1.1,21.4,5.3,30.6,11.4
	c16.2,10.9,26.8,26,32.7,44.7c13-2.6,25.5-5.1,38-7.4c2-0.4,4.6,0.2,6.3,1.2c9,5.7,17.7,11.9,26.7,17.5c2.7,1.7,6,2.7,9.2,3.3
	c11,1.8,22,3.3,33.1,4.9c0.1,1.5,0.2,2.6,0.2,3.8c0,101.3,0,202.6,0.1,303.9c0,3-1,4.3-3.7,5.3c-21.7,8.3-43.4,16.7-65.2,24.9
	c-2.2,0.8-4.9,1-7.2,0.5c-24.1-4.7-48.2-9.6-72.3-14.4c-53.9-10.8-107.8-21.7-161.7-32.5C45.3,375.6,22.6,371.2,0,366.7z
	 M78.4,106.1c0.8-0.1,1.6-0.2,2.4-0.3c4.9-1,9.8-2,14.6-2.9c10.5-2.1,10-2.2,11.7-12.6c5.1-30.5,20.2-54.5,46.9-70.7
	c1.4-0.8,3.2-1.8,4.6-1.5c5.1,1.2,10.1,2.9,15.1,4.4c-16.5,5.7-29.2,15.8-39.1,29.5s-16,28.8-16.9,46.5
	c33.3-6.7,65.9-13.3,98.5-19.8c-0.1-11.8-3.1-21.9-8.3-31.3c-18.3-33.4-60.4-46-90.7-27.1C90.6,37,73.8,70.1,78.4,106.1z
	 M225.7,246.5c0-26.1,0-51.9,0-77.8c-29.4,4.2-58.4,8.3-87.4,12.4c0,22.1,0,43.6,0,65.4C167.5,246.5,196.4,246.5,225.7,246.5z
	 M138.4,249.9c0,22.1,0,43.8,0,65.4c29.3,4.1,58.2,8.2,87.3,12.3c0-26.1,0-51.8,0-77.8C196.6,249.9,167.6,249.9,138.4,249.9z
	 M67.3,190.9c0,18.8,0,37.2,0,55.4c22.7,0,45.1,0,67.3,0c0-21.8,0-43.1,0-64.9C112,184.6,89.8,187.7,67.3,190.9z M67.3,249.9
	c0,18.8,0,37.2,0,55.6c22.6,3.2,44.9,6.3,67.5,9.4c0-22,0-43.4,0-65C112.2,249.9,90,249.9,67.3,249.9z"/>
</svg>
