<?xml version="1.0" encoding="utf-8"?>
<!-- Generator: Adobe Illustrator 25.4.1, SVG Export Plug-In . SVG Version: 6.00 Build 0)  -->
<svg version="1.1" id="Layer_1" xmlns="http://www.w3.org/2000/svg" xmlns:xlink="http://www.w3.org/1999/xlink" x="0px" y="0px"
	 viewBox="0 0 1000 1000" style="enable-background:new 0 0 1000 1000;" xml:space="preserve">
<style type="text/css">
	.st0{fill:#2D98CE;}
	.st1{fill:#FFFFFF;}
</style>
<g>
	<rect class="st0" width="1000" height="1000"/>
</g>
<g>
	<path class="st1" d="M299.2,631.5c0.3,50.9-75.9,52-77.6,1.4C221.2,582.5,298,580.7,299.2,631.5z"/>
	<path class="st1" d="M777.7,367c0,49.3-75.3,49.2-75.3,0C703.4,317.3,776.8,317.4,777.7,367z"/>
	<path class="st1" d="M646.4,357.8c43.9,0.3,43.2,66.7-0.3,66.8C602.4,423.7,602.2,358.1,646.4,357.8z"/>
	<path class="st1" d="M357.3,576.6c44,0.7,43.5,66.6-0.5,66.7C313.2,643.1,313.6,576.2,357.3,576.6z"/>
	<path class="st1" d="M830.2,423.5c-40.9,0-40.4-62.5,0.2-62.3C871.3,361.9,871.3,423.3,830.2,423.5z"/>
	<path class="st1" d="M464.2,561.9c0.3,39-59.1,39.1-59.7,0.6C404.4,523.9,463.8,522.9,464.2,561.9z"/>
	<path class="st1" d="M169.3,581.1c36.5,0,36.2,55,0,55.3C133.1,636,132.7,581.3,169.3,581.1z"/>
	<path class="st1" d="M844.9,466.2c0.8-36,55.7-35.3,55.1,1.2C899.3,502.8,844.2,502.3,844.9,466.2z"/>
	<path class="st1" d="M127.1,563.6c-35.9,0-36.3-54.8,0.2-54.4C162.4,508.4,164.1,563.2,127.1,563.6z"/>
	<path class="st1" d="M565.4,465.6c-35.2,0.2-35.2-53.1-0.4-53.5C599.9,412,600.6,465.3,565.4,465.6z"/>
	<path class="st1" d="M530.1,501.7c-0.2,34-52.4,33.5-52.2-0.5C478.4,467.2,530.2,467.5,530.1,501.7z"/>
	<path class="st1" d="M872.8,517.4c30-1,29.3,46.1,0.2,45.8C843.4,563.6,842.3,516.7,872.8,517.4z"/>
	<path class="st1" d="M149.4,461.4c1.2,29.8-46.7,29.1-45.9-0.2C102.9,432.4,150.7,431.4,149.4,461.4z"/>
	<path class="st1" d="M167.4,384.7c28.4,0.2,29.3,43.3,0.2,43.6C139.2,429.1,140.1,384.3,167.4,384.7z"/>
	<path class="st1" d="M832,615.7c-28.8,1.2-28.1-44,0.3-42.8C860.3,572.5,860.5,616.7,832,615.7z"/>
	<path class="st1" d="M724.8,621.4c24.6-1.2,22.6,37.1-0.2,36.7C701.5,657.7,700.2,620.8,724.8,621.4z"/>
	<path class="st1" d="M275,343.9c25,0.4,23.3,35.6-0.2,36.5C251.7,380.2,250.2,342.9,275,343.9z"/>
	<path class="st1" d="M201.5,372.1c-1.2-24.1,37.6-22.7,36.6,0.3C237.5,395.8,201,396.5,201.5,372.1z"/>
	<path class="st1" d="M780.1,611c24.3-1,23.2,36.8,0,36.3C756.7,647.6,756,610.4,780.1,611z"/>
	<path class="st1" d="M686.2,636.7c0.2,20.2-29,19.7-29.6,0.4C656.5,618.4,686.4,617.1,686.2,636.7z"/>
	<path class="st1" d="M342.7,364.1c0.6,19.4-30.2,18.5-29.8-0.1C312.6,345.6,343.8,344.7,342.7,364.1z"/>
	<path class="st1" d="M625.7,605.7c16.2,0,16.3,25.8,0.1,25.8C609,631.2,609,606.1,625.7,605.7z"/>
	<path class="st1" d="M412.7,393.8c16.6-0.3,16.7,25.2,0.2,25.2C396.7,420.2,396.4,392.9,412.7,393.8z"/>
	<path class="st1" d="M586.8,607.4c-16.1,0.2-16.5-25.9,0.3-25.1C603.5,581.6,603,608.3,586.8,607.4z"/>
	<path class="st1" d="M374.1,394.8c-16.9,0.7-16.2-25.1,0-24.9C390,369.3,390.9,395.7,374.1,394.8z"/>
	<path class="st1" d="M447.7,446.5c-13.9,0.2-14.1-21.6-0.1-21.7C462,425.1,462.3,446.3,447.7,446.5z"/>
</g>
</svg>
