<?xml version="1.0" encoding="utf-8"?>
<!-- Generator: Adobe Illustrator 23.0.1, SVG Export Plug-In . SVG Version: 6.00 Build 0)  -->
<svg version="1.1" id="Layer_1" xmlns="http://www.w3.org/2000/svg" xmlns:xlink="http://www.w3.org/1999/xlink" x="0px" y="0px"
	 viewBox="0 0 1000 1000" style="enable-background:new 0 0 1000 1000;" xml:space="preserve">
<style type="text/css">
	.st0{fill:#FFFFFF;}
	.st1{fill:#1D3D7D;}
	.st2{fill:#1E376A;}
	.st3{fill:#265EA8;}
	.st4{fill:#306BB3;}
	.st5{fill:#99D4E5;}
	.st6{fill:#2756A1;}
	.st7{clip-path:url(#SVGID_2_);}
	.st8{clip-path:url(#SVGID_4_);}
	.st9{fill:url(#SVGID_5_);stroke:#1E376A;stroke-width:7.1281;stroke-miterlimit:10;}
	.st10{fill:url(#SVGID_6_);}
	.st11{fill:url(#SVGID_7_);}
	.st12{fill:url(#SVGID_8_);}
	.st13{fill:url(#SVGID_9_);}
	.st14{fill:url(#SVGID_10_);}
	.st15{fill:url(#SVGID_11_);}
</style>
<polygon class="st0" points="120,297.3 505.7,76.4 881.7,297.3 874.4,736.6 497.3,938.6 136.6,730.4 "/>
<g>
	<g>
		<g>
			<path class="st1" d="M500,890.7c-4.6,0-9.2-1.2-13.3-3.6l-315.4-182c-2.8-1.6-5.2-3.7-7.2-6.2l-75.5,44.7
				c6.3,9.3,14.6,17.2,24.6,23l349.3,201.7c11.6,6.7,24.5,10,37.5,10V890.7z"/>
		</g>
		<g>
			<path class="st2" d="M886.8,766.6c12.2-7,21.9-17.2,28.4-29.2l-76-43.5c-2.3,4.6-5.9,8.5-10.5,11.1L513.3,887.2
				c-4.1,2.4-8.7,3.6-13.3,3.6v87.5c12.9,0,25.9-3.3,37.5-10L886.8,766.6z"/>
		</g>
		<g>
			<path class="st3" d="M842,317.9v364.2c0,3.9-0.9,7.7-2.5,11.2l76.1,43.3c5.6-10.6,8.7-22.6,8.7-34.9V298.3
				c0-12.9-3.3-25.3-9.3-36.2l-76,43.5C840.9,309.4,842,313.6,842,317.9z"/>
		</g>
		<g>
			<path class="st4" d="M886.8,233.4L537.5,31.8c-11.6-6.7-24.5-10-37.5-10v87.5c4.6,0,9.2,1.2,13.3,3.6L828.7,295
				c4.5,2.6,8,6.4,10.3,10.8l76-43.5C908.4,250.4,898.8,240.4,886.8,233.4z"/>
		</g>
		<g>
			<path class="st5" d="M162.2,303.7c2.3-3.6,5.3-6.6,9.1-8.8l315.4-182.1c4.1-2.4,8.7-3.6,13.3-3.6V21.7c-12.9,0-25.9,3.3-37.5,10
				L113.2,233.4c-11.2,6.5-20.3,15.6-26.7,26.3L162.2,303.7z"/>
		</g>
		<g>
			<path class="st6" d="M158,682.1V317.9c0-5.1,1.5-10,4.1-14.2l-75.7-44c-6.9,11.5-10.7,24.8-10.7,38.7v403.3
				c0,15.3,4.7,29.9,13,42.2l75.5-44.7C160.3,694.4,158,688.4,158,682.1z"/>
		</g>
	</g>
	<g>
		<g>
			<g>
				<g>
					<defs>
						<path id="SVGID_1_" d="M502.9,100c6.2,0,12.4,1.6,17.9,4.8l315.4,182.1c11,6.4,17.9,18.3,17.9,31v364.2
							c0,12.7-6.9,24.6-17.9,31L520.7,895.2c-11,6.4-24.8,6.4-35.8,0L169.5,713.1c-11-6.4-17.9-18.3-17.9-31V317.9
							c0-12.7,6.9-24.6,17.9-31L485,104.8C490.5,101.6,496.7,100,502.9,100z M502.9,881.5c3,0,6-0.8,8.6-2.3l315.4-182.1
							c5.3-3.1,8.6-8.8,8.6-14.9V317.9c0-6.1-3.3-11.9-8.6-14.9L511.5,120.8c-5.3-3.1-11.9-3.1-17.3,0L178.8,302.9
							c-5.3,3.1-8.6,8.8-8.6,14.9V682c0,6.1,3.3,11.9,8.6,14.9L494.2,879C496.9,880.7,499.9,881.5,502.9,881.5z"/>
					</defs>
					<clipPath id="SVGID_2_">
						<use xlink:href="#SVGID_1_"  style="overflow:visible;"/>
					</clipPath>
					<g class="st7">
						<g>
							<g>
								<defs>
									<rect id="SVGID_3_" x="146.6" y="95" width="712.4" height="810"/>
								</defs>
								<clipPath id="SVGID_4_">
									<use xlink:href="#SVGID_3_"  style="overflow:visible;"/>
								</clipPath>
								<g class="st8">
								</g>
							</g>
						</g>
					</g>
				</g>
			</g>
		</g>
	</g>
	<g>
		
			<linearGradient id="SVGID_5_" gradientUnits="userSpaceOnUse" x1="255.8" y1="501.45" x2="750.5" y2="501.45" gradientTransform="matrix(1 0 0 -1 0 1000)">
			<stop  offset="0" style="stop-color:#6BC6DF"/>
			<stop  offset="9.668465e-02" style="stop-color:#99D4E5"/>
			<stop  offset="1" style="stop-color:#3274B9"/>
		</linearGradient>
		<path class="st9" d="M301.6,342.6c-0.3,0-0.7,0-1,0h-1.8c-23.7,0-43,19.3-43,43v225.9c0,23.7,19.3,43,43,43h3.8
			c23.7,0,43-19.3,43-43V463.3l336.9,185.9c6.3,3.5,13.5,5.3,20.7,5.3h0.3c0.1,0,0.1,0,0.2,0h3.8c23.7,0,43-19.3,43-43V385.6
			c0-23.7-19.3-43-43-43h-3.8c-23.7,0-43,19.3-43,43v149L328.4,351.3c-7.4-5.6-16.1-8.6-25.4-8.7C302.5,342.6,302,342.6,301.6,342.6
			L301.6,342.6z"/>
	</g>
	
		<linearGradient id="SVGID_6_" gradientUnits="userSpaceOnUse" x1="430.3" y1="923.575" x2="564.2999" y2="923.575" gradientTransform="matrix(1 0 0 -1 0 1000)">
		<stop  offset="0.1667" style="stop-color:#96D1E3"/>
		<stop  offset="0.9009" style="stop-color:#306BB3"/>
	</linearGradient>
	<path class="st10" d="M462.5,31.8l-32.2,18.6l24.8,80.7l31.6-18.3c8.2-4.7,18.3-4.7,26.5,0l28.6,16.5l22.5-82l-26.9-15.5
		C514.3,18.4,485.7,18.4,462.5,31.8z"/>
	
		<linearGradient id="SVGID_7_" gradientUnits="userSpaceOnUse" x1="817.6305" y1="757.0305" x2="910.1306" y2="664.5305" gradientTransform="matrix(1 0 0 -1 0 1000)">
		<stop  offset="0.1667" style="stop-color:#306BB3"/>
		<stop  offset="0.8027" style="stop-color:#265EA8"/>
	</linearGradient>
	<path class="st11" d="M924.2,321.4v-23.1c0-26.8-14.3-51.5-37.5-64.9L849,211.6l-52,65l31.7,18.3c8.2,4.7,13.3,13.5,13.3,23v31.7
		L924.2,321.4z"/>
	
		<linearGradient id="SVGID_8_" gradientUnits="userSpaceOnUse" x1="897.7441" y1="346.32" x2="835.4229" y2="229.1108" gradientTransform="matrix(1 0 0 -1 0 1000)">
		<stop  offset="0.1667" style="stop-color:#265EA8"/>
		<stop  offset="0.8027" style="stop-color:#1E376A"/>
	</linearGradient>
	<path class="st12" d="M886.8,766.6c23.2-13.4,37.5-38.1,37.5-64.9v-33.9l-82.3-20v34.3c0,9.5-5.1,18.2-13.3,23L799.4,722l58.8,61
		L886.8,766.6z"/>
	
		<linearGradient id="SVGID_9_" gradientUnits="userSpaceOnUse" x1="433.3" y1="76.2251" x2="568.5" y2="76.2251" gradientTransform="matrix(1 0 0 -1 0 1000)">
		<stop  offset="0.1667" style="stop-color:#1D3D7D"/>
		<stop  offset="0.1746" style="stop-color:#1D3D7D"/>
		<stop  offset="0.8027" style="stop-color:#1E376A"/>
	</linearGradient>
	<path class="st13" d="M568.5,950.3l-24.8-80.7l-30.4,17.6c-8.2,4.7-18.3,4.7-26.5,0l-31-17.9l-22.5,82l29.3,16.9
		c23.2,13.4,51.8,13.4,75,0L568.5,950.3z"/>
	
		<linearGradient id="SVGID_10_" gradientUnits="userSpaceOnUse" x1="159.3535" y1="219.9787" x2="115.5372" y2="340.3632" gradientTransform="matrix(1 0 0 -1 0 1000)">
		<stop  offset="0.1746" style="stop-color:#1D3D7D"/>
		<stop  offset="0.1885" style="stop-color:#1D3D7D"/>
		<stop  offset="0.8027" style="stop-color:#2756A1"/>
	</linearGradient>
	<path class="st14" d="M197.4,720.1l-26-15c-8.2-4.7-13.3-13.5-13.3-23v-36.2l-82.3,28.2v27.6c0,26.8,14.3,51.5,37.5,64.9l32.1,18.5
		L197.4,720.1z"/>
	
		<linearGradient id="SVGID_11_" gradientUnits="userSpaceOnUse" x1="165.1771" y1="765.9313" x2="98.4993" y2="654.9609" gradientTransform="matrix(1 0 0 -1 0 1000)">
		<stop  offset="0.1452" style="stop-color:#99D4E5"/>
		<stop  offset="0.8027" style="stop-color:#2756A1"/>
	</linearGradient>
	<path class="st15" d="M158,351.4v-33.6c0-9.5,5.1-18.2,13.3-23l26.6-15.4l-58.8-61l-25.8,14.9c-23.2,13.4-37.5,38.1-37.5,64.9v33.2
		L158,351.4z"/>
	<g>
		<g>
			<path class="st1" d="M505.7,118.8c2,0.3,4,1,5.8,2l315.4,182.1c1.8,1.1,3.4,2.5,4.7,4.1l16-9.5c-3-4.3-6.9-7.9-11.5-10.6
				L520.7,104.8c-4.7-2.7-9.8-4.2-15-4.7V118.8z"/>
		</g>
		<g>
			<path class="st2" d="M485,104.8L169.5,286.9c-5.6,3.2-10.1,7.9-13.2,13.3l16.1,9.2c1.5-2.6,3.7-4.9,6.4-6.5l315.4-182.1
				c2.7-1.5,5.6-2.3,8.6-2.3c1,0,1.9,0.1,2.9,0.3v-18.7C498.6,99.5,491.3,101.1,485,104.8z"/>
		</g>
		<g>
			<path class="st3" d="M170.2,682.1V317.9c0-2.8,0.7-5.4,1.9-7.8l-16.1-9.2c-2.8,5.1-4.3,11-4.3,17v364.2c0,6.4,1.7,12.6,4.9,18
				l16.1-9.2C171,688.3,170.2,685.2,170.2,682.1z"/>
		</g>
		<g>
			<path class="st4" d="M169.5,713.1L485,895.2c5.5,3.2,11.7,4.8,17.9,4.8c1,0,1.9-0.1,2.9-0.1v-18.7c-3.9,0.6-8,0-11.5-2L178.8,697
				c-2.6-1.5-4.7-3.6-6.2-6.2l-16.1,9.2C159.6,705.4,164.1,709.9,169.5,713.1z"/>
		</g>
		<g>
			<path class="st5" d="M833.4,690.4c-1.5,2.7-3.7,5-6.5,6.6L511.5,879.2c-1.8,1-3.8,1.7-5.8,2v18.7c5.2-0.4,10.4-2,15-4.7
				l315.4-182.1c5.6-3.2,10.1-7.9,13.2-13.4L833.4,690.4z"/>
		</g>
		<g>
			<path class="st6" d="M835.5,317.9v364.2c0,3-0.8,5.8-2.2,8.3l16,9.3c3-5.3,4.7-11.4,4.7-17.6V317.9c0-7.5-2.4-14.6-6.5-20.6
				l-16,9.5C834,309.9,835.5,313.8,835.5,317.9z"/>
		</g>
	</g>
</g>
</svg>
