<?xml version="1.0" encoding="utf-8"?>
<!-- Generator: Adobe Illustrator 25.2.3, SVG Export Plug-In . SVG Version: 6.00 Build 0)  -->
<svg version="1.1" id="Layer_1" xmlns="http://www.w3.org/2000/svg" xmlns:xlink="http://www.w3.org/1999/xlink" x="0px" y="0px"
	 viewBox="0 0 1000 1000" style="enable-background:new 0 0 1000 1000;" xml:space="preserve">
<style type="text/css">
	.st0{fill:#FF4100;}
	.st1{fill:#FFFFFF;}
</style>
<g>
	<rect class="st0" width="1000" height="1000"/>
</g>
<path class="st1" d="M950,342.5L291.6,622.9C237,646,191.1,657.5,154,657.5c-42.1,0-72.5-14.7-91.4-44.1
	c-11.9-18.9-15.4-42.8-10.5-71.9s17.8-60.1,38.8-92.9c17.6-26.6,46.3-61.6,86.2-105c-13.5,21.3-23.5,44.7-29.4,69.3
	c-10.5,44.8-1.1,77.7,28.3,98.7c14,9.8,33.2,14.7,57.7,14.7c22.4-0.4,44.6-3.6,66.1-9.4L950,342.5z"/>
</svg>
