<?xml version="1.0" encoding="utf-8"?>
<!-- Generator: Adobe Illustrator 23.0.4, SVG Export Plug-In . SVG Version: 6.00 Build 0)  -->
<svg version="1.1" id="svg4719" xmlns="http://www.w3.org/2000/svg" xmlns:xlink="http://www.w3.org/1999/xlink" x="0px" y="0px"
	 viewBox="0 0 893 893" style="enable-background:new 0 0 893 893;" xml:space="preserve">
<style type="text/css">
	.st0{fill:#E60012;}
	.st1{fill:#FFFFFF;}
</style>
<title>nintendo</title>
<g id="layer1">
	<rect id="rect80" class="st0" width="893" height="893"/>
</g>
<g>
	<g>
		<path class="st1" d="M618.1,775.6c90,0,162.9-72.9,162.9-162.9V280.3c0-90-72.9-162.9-162.9-162.9H475.4v658.1H618.1z
			 M618.7,409.8c34.1,0,61.7,27.6,61.7,61.7c0,34.1-27.6,61.7-61.7,61.7c-34.1,0-61.7-27.6-61.7-61.7
			C557,437.4,584.7,409.8,618.7,409.8z"/>
	</g>
	<g>
		<path class="st1" d="M398.4,136.7v619.6H275c-79.2,0-143.6-64.4-143.6-143.6V280.3c0-79.2,64.4-143.6,143.6-143.6H398.4
			 M417.6,117.4H275c-90,0-162.9,72.9-162.9,162.9v332.4c0,90,72.9,162.9,162.9,162.9h142.7V117.4L417.6,117.4z"/>
	</g>
	<circle class="st1" cx="274.3" cy="321.8" r="61.7"/>
</g>
</svg>
