<?xml version="1.0" encoding="utf-8"?>
<!-- Generator: Adobe Illustrator 23.0.1, SVG Export Plug-In . SVG Version: 6.00 Build 0)  -->
<svg version="1.1" id="Layer_1" xmlns="http://www.w3.org/2000/svg" xmlns:xlink="http://www.w3.org/1999/xlink" x="0px" y="0px"
	 viewBox="0 0 1000 1000" style="enable-background:new 0 0 1000 1000;" xml:space="preserve">
<style type="text/css">
	.st0{fill:#000166;}
</style>
<title>bliep</title>
<g>
	<path class="st0" d="M767.4,370.6c-5.3-48.1-18.4-95.5-40.4-138.6c-23.7-46.8-58-88.2-100.1-119.5c-25.3-18.9-53.3-34.1-82.8-45.3
		c-49.6-18.9-103.1-26.6-156-25c-59.8,1.5-119.7,15.6-172.4,44.1c-41.1,22.1-77.4,52.8-106,89.6C72.7,223.4,49,280.5,38.3,339.6
		c-4.5,24.5-6.7,49.3-7.3,74.1v15.5c0.7,29.7,4.2,59.4,11,88.4c14.1,59.6,42.2,116.1,82.7,162.3c33,37.8,74.1,68.5,119.8,89.2
		c39.6,18,82.4,28.5,125.7,31.8c42.6,3.2,85.8-0.1,127.3-10.7c56.5-14.4,109.4-42.9,152.2-82.6c44.7-41.1,78.3-93.9,98.2-151.2
		c12.6-36.4,19.9-74.6,21.7-113.1C771,419,770,394.7,767.4,370.6z M624.4,467.9c-6.3,48.6-22.2,96.5-50.4,136.8
		c-21.9,31.3-52,57.2-87.4,72.1c-23.4,10-48.8,15.1-74.2,16.3c-27.3,1.2-54.9-1.9-81-10.4c-28.4-9.2-54.7-25-76.2-45.7
		c-20.3-19.4-36.5-42.9-48.9-68.1c-14.5-29.7-23.8-61.7-28.6-94.4c-3.7-25.5-4.8-51.4-3-77.1c3.2-43.7,14.7-87,35.3-125.9
		c13.5-25.4,31-48.9,52.5-68.2c17.1-15.5,36.8-28.1,58.1-37c20.1-8.5,41.6-13.4,63.4-15.2c28.7-2.1,57.8,1,85,10.5
		c29.4,10.1,56.2,27.3,78,49.4c20.3,20,36.4,44,48.9,69.5C623.6,338.5,632.7,404.5,624.4,467.9z"/>
	<path class="st0" d="M762.4,660.4c26.7-13.3,56.1-21.3,86-22.7c15.2-0.9,30.7,0.2,45.5,3.9c15.3,3.9,30.1,11.1,41.2,22.6
		c9.4,9.2,15.8,21.1,19.5,33.7c4.4,15.5,5.6,32,3.5,48c-1.9,14.4-6.8,28.3-13.1,41.4c-11.9,24-28.6,45.3-46.4,65.2
		c-19.1,21.3-39.8,41.3-60.4,61.2c41.5-0.1,83,0,124.6-0.1c2.3,0,4.6-0.1,6.8,0.5v50.3c-1.3,0.2-2.5,0.3-3.7,0.4
		c-70.3,0-140.6,0-210.9,0c0-18.1,0-36.1,0-54.2c4.8-4.8,9.9-9.2,14.9-13.9c21.4-19.5,42.4-39.4,62.3-60.5
		c19.1-20.7,37.7-42.4,51-67.4c6-11.7,11.1-24.5,11-37.9c-0.1-9.6-3.5-19.2-10.1-26.2c-8.6-9.3-21.1-14-33.4-15.5
		c-16.7-1.8-33.5,1.7-49,7.7c-12,4.5-23.1,11-34,17.6C765.8,696.4,764.1,678.4,762.4,660.4z"/>
</g>
</svg>
