<?xml version="1.0" encoding="utf-8"?>
<!-- Generator: Adobe Illustrator 23.1.1, SVG Export Plug-In . SVG Version: 6.00 Build 0)  -->
<svg version="1.1" id="Layer_1" xmlns="http://www.w3.org/2000/svg" xmlns:xlink="http://www.w3.org/1999/xlink" x="0px" y="0px"
	 viewBox="0 0 1000 1000" style="enable-background:new 0 0 1000 1000;" xml:space="preserve">
<style type="text/css">
	.st0{fill:#315A76;}
	.st1{fill:#FFBD00;}
	.st2{fill:#FFFFFF;}
</style>
<path class="st0" d="M887.5,954.5h-775c-37,0-67-30-67-67v-775c0-37,30-67,67-67h775c37,0,67,30,67,67v775
	C954.5,924.5,924.5,954.5,887.5,954.5z"/>
<g>
	<circle class="st1" cx="500" cy="500" r="352.5"/>
	<g>
		<path class="st2" d="M608.9,500c0,60-48.8,108.9-108.9,108.9c-14.7,0-29-2.9-42.4-8.5c-10.8-4.6-20.7-10.8-29.5-18.6
			c-18.3-16.1-46.1-14.3-62.2,4c-16.1,18.3-14.3,46.1,4,62.2c15.9,14,33.9,25.3,53.4,33.6c24.3,10.3,50.1,15.5,76.7,15.5
			c93.5,0,171.9-65.4,192-152.9h157.8c1.8-14.4,2.7-29.1,2.7-44c0-14.9-0.9-29.6-2.7-44H652.9C628.6,456,608.9,475.7,608.9,500z"/>
		<path class="st2" d="M633.7,352.1c-15.9-14-33.9-25.3-53.4-33.6C556,308.3,530.2,303,503.6,303c-93.5,0-171.9,65.4-192,152.9
			H150.2c-1.8,14.4-2.7,29.1-2.7,44c0,14.9,0.9,29.6,2.7,44h200.5c24.3,0,44-19.7,44-44c0-60,48.8-108.9,108.9-108.9
			c14.7,0,29,2.9,42.4,8.5c10.8,4.6,20.7,10.8,29.5,18.6c18.3,16.1,46.1,14.3,62.2-4C653.7,396,651.9,368.2,633.7,352.1z"/>
	</g>
</g>
</svg>
