<?xml version="1.0" encoding="utf-8"?>
<!-- Generator: Adobe Illustrator 22.1.0, SVG Export Plug-In . SVG Version: 6.00 Build 0)  -->
<svg version="1.1" id="Layer_1" xmlns="http://www.w3.org/2000/svg" xmlns:xlink="http://www.w3.org/1999/xlink" x="0px" y="0px"
	 viewBox="0 0 1000 1000" style="enable-background:new 0 0 1000 1000;" xml:space="preserve">
<style type="text/css">
	.st0{fill:#F15A23;}
</style>
<g id="_x23_f15a23ff">
	<path class="st0" d="M482.6,16.3c5.3-3,13.2-0.8,15,5.4c2,5.1-1.4,9.7-4.2,13.7c-19.8,28.1-33,60.7-39.2,94.5
		c-3.8,1.6-4.9,5.6-3.7,9.3c1.9,0.7,3.7,1.3,5.6,1.9c38.5-3.4,77.5-2.7,115.3,5.4c68.9,13.9,133.3,48.7,182.7,98.6
		c49.3,49.3,84,113.2,98,181.6c15.5,74,6.9,152.8-24.2,221.8c-65.9,140.8-176.9,259.9-312.8,335.4c-4.4,2-10.7,2.1-13.7-2.2
		c-3.5-4.6-2.1-11.1,1.4-15.2c18.3-25.6,31.1-55,38.1-85.6c1.3-6.4,3.2-12.8,2.6-19.3c-2.2-2.9-5.9-2-9.1-1.9
		c-66,6.6-133.8-5.2-193.4-34.3c-63.8-30.8-118-81-153.8-142.2c-33.2-56.2-50.6-121.7-49.4-187c0.2-60,16.6-119.4,45.4-171.9
		C250.2,195.1,355.5,86.5,482.6,16.3 M478.9,360.3c-39.2,5.3-75.4,28.3-97.4,61.1c-14.9,22.5-23.9,49.3-23.7,76.5
		c-1.1,36.3,13.4,72.7,38.5,98.9c21.9,23.6,52.4,39,84.4,43.1c32.5,4.3,66.5-3.3,94-21.2c28-17.8,49.3-45.8,58.9-77.6
		c17.9-55.2-3.6-119.8-50.3-153.9C553.9,364.9,515.4,355,478.9,360.3z"/>
</g>
</svg>
