<?xml version="1.0" encoding="utf-8"?>
<!-- Generator: Adobe Illustrator 23.0.1, SVG Export Plug-In . SVG Version: 6.00 Build 0)  -->
<svg version="1.1" id="Layer_1" xmlns="http://www.w3.org/2000/svg" xmlns:xlink="http://www.w3.org/1999/xlink" x="0px" y="0px"
	 viewBox="0 0 1000 1000" style="enable-background:new 0 0 1000 1000;" xml:space="preserve">
<style type="text/css">
	.st0{fill:#ED1C24;}
	.st1{fill:#0F2A52;}
</style>
<g id="layer1" transform="translate(-173.50567,-428.29906)">
	<path id="path72" class="st0" d="M1163,773.5c-20.3-57.9-99-81.7-217.3-80.8c105.3,3.7,173.8,27.8,191.1,77.1
		c32.6,93-145.6,237.9-406.3,312.6c-260.6,74.6-478.3,59.8-510.9-33.2c-19.9-56.8,31.3-132.9,133.4-200.5
		c-125.9,72.9-196.6,157.9-173.1,224.9c36.6,104.2,287.3,125.4,560,47.2C1012.8,1042.7,1199.5,877.7,1163,773.5"/>
	<path id="path76" class="st0" d="M475.1,803.8c0,21.2-6.2,37.9-18.5,50.1c-12.4,12.2-29.7,18.3-52.1,18.3c-22.3,0-39.7-6.1-52-18.3
		C340.2,841.7,334,825,334,803.8c0-21.4,6.2-38.2,18.7-50.3c12.4-12.2,29.7-18.3,51.9-18.3c22.5,0,39.9,6.1,52.2,18.4
		C469,765.8,475.1,782.6,475.1,803.8 M424.3,835.2c2.7-3.3,4.7-7.3,6-11.9c1.4-4.7,2-11.1,2-19.3c0-7.6-0.7-13.9-2.1-19.1
		c-1.4-5.1-3.3-9.2-5.7-12.3c-2.4-3.1-5.4-5.4-8.8-6.7c-3.4-1.3-7.2-2-11.1-2s-7.5,0.5-10.6,1.6c-3.1,1.1-6.1,3.2-8.9,6.4
		c-2.5,3-4.5,7.1-6,12.3c-1.5,5.2-2.2,11.8-2.2,19.7c0,7.1,0.6,13.2,1.9,18.3c1.3,5.2,3.2,9.3,5.8,12.5c2.4,3,5.4,5.2,8.8,6.6
		c3.4,1.4,7.3,2.1,11.7,2.1c3.7,0,7.3-0.6,10.7-1.9C419.1,840.3,421.9,838.2,424.3,835.2"/>
	<path id="path80" class="st0" d="M595.8,778.6h-3.7c-1.7-0.6-4.6-1-8.5-1.3c-3.9-0.3-7.1-0.5-9.7-0.5c-5.9,0-11.1,0.4-15.5,1.2
		c-4.5,0.8-9.4,2.1-14.5,3.9v86.3h-41.5V739.3h41.5v18.9c9.1-7.8,17-13,23.7-15.6c6.7-2.6,12.9-3.9,18.6-3.9c1.4,0,3.1,0,4.9,0.1
		c1.8,0,3.4,0.2,4.8,0.4L595.8,778.6L595.8,778.6z"/>
	<path id="path84" class="st1" d="M721.9,867.1c-4.4,1.1-9.2,2-14.1,2.7c-5,0.6-11.1,1-18.2,1c-16.1,0-28-3.3-35.9-9.7
		c-7.8-6.5-11.8-17.6-11.8-33.4v-60.3h-17v-28h17v-36.8h41.5v36.8h38.6v28h-38.6v45.8c0,4.5,0,8.5,0.1,11.9c0.1,3.4,0.7,6.4,1.8,9.1
		c1,2.7,2.9,4.9,5.7,6.4c2.7,1.6,6.7,2.4,11.8,2.4c2.1,0,5-0.5,8.4-1.4c3.5-0.9,5.9-1.8,7.3-2.6h3.4L721.9,867.1L721.9,867.1z"/>
	<path id="path88" class="st1" d="M882,811.3h-94.5c0.6,10.1,4.5,17.9,11.5,23.3c7.1,5.4,17.5,8.1,31.3,8.1c8.7,0,17.2-1.6,25.4-4.7
		c8.2-3.1,14.6-6.5,19.4-10.1h4.6V861c-9.4,3.7-18.2,6.5-26.4,8.1c-8.3,1.7-17.4,2.5-27.4,2.5c-25.9,0-45.7-5.8-59.4-17.5
		c-13.8-11.6-20.7-28.2-20.7-49.7c0-21.3,6.5-38.1,19.6-50.6c13-12.4,30.9-18.7,53.7-18.7c21,0,36.7,5.3,47.3,15.9
		c10.6,10.6,15.9,25.8,15.9,45.7L882,811.3L882,811.3z M840.9,787.1c-0.2-8.7-2.3-15.2-6.4-19.5c-4.1-4.3-10.4-6.5-18.9-6.5
		c-7.9,0-14.5,2-19.6,6.2c-5.1,4.2-8,10.8-8.6,19.9L840.9,787.1L840.9,787.1z"/>
	<path id="path90" class="st1" d="M947.8,868.2h-41.5V692.6h41.5V868.2z"/>
	<g id="g92" transform="matrix(1.25,0,0,-1.25,256.7277,518.44872)">
		<path id="path94" class="st1" d="M140.5-361.1h-15.2v39.7l-11-25.8h-10.6l-11,25.8v-39.7H78.3v59.3h17.8l13.4-29.8l13.3,29.8h17.8
			V-361.1z"/>
	</g>
	<g id="g98">
		<g id="g104" transform="translate(419.12151,1115.0657)">
			<path id="path106" class="st1" d="M130.5-182.3c0,11.8-3.4,21.2-10.2,28.1c-6.8,6.9-16.1,10.4-28.1,10.4
				c-11.9,0-21.3-3.5-28.1-10.4c-6.8-7-10.2-16.3-10.2-28.1c0-11.9,3.4-21.4,10.2-28.3c6.8-6.9,16.1-10.4,28.1-10.4
				c11.9,0,21.2,3.4,28,10.4C127.1-203.6,130.5-194.2,130.5-182.3 M105.1-163.5c1.9-2.3,3.2-5,4.1-8c0.9-3.1,1.3-6.7,1.3-10.8
				c0-4.5-0.5-8.2-1.5-11.3c-1-3.1-2.4-5.6-4-7.6c-1.7-2-3.7-3.5-5.8-4.3c-2.2-0.9-4.5-1.4-6.9-1.4c-2.4,0-4.7,0.4-6.8,1.3
				c-2.2,0.9-4.1,2.3-5.9,4.3c-1.7,1.9-3,4.4-4.1,7.7c-1,3.3-1.6,7.1-1.6,11.4c0,4.4,0.5,8.2,1.5,11.2c1,3.1,2.3,5.6,4,7.6
				c1.6,2,3.6,3.4,5.8,4.3c2.2,0.9,4.5,1.4,7,1.4c2.4,0,4.8-0.5,7-1.4C101.5-160.1,103.5-161.6,105.1-163.5"/>
		</g>
		<g id="g108" transform="translate(446.8688,1111.4214)">
			<path id="path110" class="st1" d="M211.7-164.3c0,3.6-0.7,6.8-2.2,9.6c-1.4,2.8-3.4,5.1-6,7c-2.9,2.2-6.1,3.8-9.6,4.7
				c-3.5,0.9-7.9,1.4-13.3,1.4h-32.3v-74.2h28.8c6,0,10.3,0.2,13.1,0.6c2.8,0.4,5.5,1.3,8.2,2.7c2.8,1.4,4.9,3.3,6.3,5.7
				c1.4,2.4,2.1,5.1,2.1,8.2c0,3.6-1,6.8-2.9,9.5c-1.9,2.7-4.6,4.9-8,6.4v0.4c4.8,1,8.7,3,11.5,6
				C210.3-173.2,211.7-169.3,211.7-164.3 M187.2-194.8c0-1.2-0.3-2.5-0.9-3.7c-0.6-1.2-1.7-2.1-3.3-2.7c-1.4-0.6-3.1-0.8-5.2-0.9
				c-2.1,0-5-0.1-8.7-0.1h-1.8v15.7h3c3,0,5.6,0,7.7-0.2c2.1-0.1,3.8-0.4,5-1c1.7-0.8,2.8-1.8,3.4-3
				C187-191.8,187.2-193.2,187.2-194.8 M191.8-164.6c0-2.3-0.4-4.2-1.4-5.4c-0.9-1.3-2.5-2.2-4.6-2.9c-1.5-0.4-3.6-0.7-6.1-0.7
				c-2.6,0-5.3,0-8.2,0h-4.2v18.5h1.4c5.4,0,9.2,0,11.5,0c2.3,0,4.4-0.5,6.4-1.3c2-0.8,3.3-1.9,4.1-3.3
				C191.5-161.2,191.8-162.8,191.8-164.6"/>
		</g>
	</g>
	<g id="g112" transform="matrix(1.25,0,0,-1.25,357.43583,518.44872)">
		<path id="path114" class="st1" d="M313.1-361.1h-34.8v10.5h9.7v38.3h-9.7v10.5h34.8v-10.5h-9.8v-38.3h9.8V-361.1z"/>
	</g>
	<g id="g116" transform="matrix(1.25,0,0,-1.25,391.53047,518.44872)">
		<path id="path118" class="st1" d="M371.5-361.1h-42.7v59.3h15.3v-47.9h27.5V-361.1z"/>
	</g>
	<g id="g120" transform="matrix(1.25,0,0,-1.25,421.36859,518.44872)">
		<path id="path122" class="st1" d="M422.7-361.1h-42.9v59.3h42.9v-11.5H395v-10.2h25.7v-11.5H395v-14.7h27.7V-361.1z"/>
	</g>
</g>
</svg>
