<?xml version="1.0" encoding="utf-8"?>
<!-- Generator: Adobe Illustrator 23.0.1, SVG Export Plug-In . SVG Version: 6.00 Build 0)  -->
<svg version="1.1" id="Layer_1" xmlns="http://www.w3.org/2000/svg" xmlns:xlink="http://www.w3.org/1999/xlink" x="0px" y="0px"
	 viewBox="0 0 1000 1000" style="enable-background:new 0 0 1000 1000;" xml:space="preserve">
<style type="text/css">
	.st0{fill:#141006;}
	.st1{fill:#FFFFFF;}
	.st2{fill:#F89728;}
</style>
<title>bliep</title>
<g id="g3105" transform="matrix(1.25,0,0,-1.25,195.86613,689.03593)">
	<path id="path3107" class="st0" d="M-125.1,393.7c0,72.3,59.2,131.5,131.5,131.5h473.9c72.3,0,131.5-59.2,131.5-131.5V-86.1
		c0-72.3-59.2-131.5-131.5-131.5H6.4c-72.3,0-131.5,59.2-131.5,131.5C-125.1-86.1-125.1,393.7-125.1,393.7z"/>
</g>
<g id="g3129" transform="matrix(1.25,0,0,-1.25,205.28262,692.29106)">
	<path id="path3131" class="st1" d="M366.6,232.1V63.8c0-19.6-15.9-35.4-35.4-35.4H146c-19.6,0-35.4,15.8-35.4,35.4V249
		c0,19.6,15.8,35.4,35.4,35.4l166.2,0.1v107.9H144.3C66,392.4,2.7,329,2.7,250.8V62C2.7-16.1,66-79.5,144.3-79.5H333
		c78.2,0,141.6,63.4,141.6,141.5v170.1C474.5,232.1,366.6,232.1,366.6,232.1z"/>
</g>
<g id="g3133" transform="matrix(1.25,0,0,-1.25,205.27725,689.43405)">
	<path id="path3135" class="st2" d="M366.3,389.7V282h107.4C460.3,334.6,418.8,376.2,366.3,389.7"/>
</g>
</svg>
