<?xml version="1.0" encoding="utf-8"?>
<!-- Generator: Adobe Illustrator 23.0.1, SVG Export Plug-In . SVG Version: 6.00 Build 0)  -->
<svg version="1.1" id="Layer_1" xmlns="http://www.w3.org/2000/svg" xmlns:xlink="http://www.w3.org/1999/xlink" x="0px" y="0px"
	 viewBox="0 0 1000 1000" style="enable-background:new 0 0 1000 1000;" xml:space="preserve">
<style type="text/css">
	.st0{fill:#E2185E;}
</style>
<g>
	<path d="M979.7,399.6c-0.6-16.1-11.8-26.3-27.3-25.1c-14.1,1.2-23.5,13.9-21.5,29.1c9.1,71.7-47.3,139.6-132.4,122.6
		c-26.4-5.3-46.1-21.4-64.2-39.3l-14-13.1l65.5-95.2c2.6-3.8-0.1-8.9-4.7-8.9h-39.7c-1.9,0-3.6,0.9-4.7,2.5l-49,71.2l-5.2-4.8
		c-14.7-14.8-29.3-29.6-44.3-44.1c-12.9-12.4-26.8-24-45.2-26.4c-13-1.7-26.4-1.9-39.4-0.8c-31.3,2.6-52.6,19.5-64.7,48.3
		c-5.8,13.7-7.7,28.1-7.7,42.9c0,31.4,0,62.7,0,94.1c0,3.3,0,6.6,0.4,9.9c1.3,11.6,10.4,20.1,21.8,20.6c12,0.6,21.8-6.9,24.2-18.6
		c0.6-3,0.8-6.1,0.8-9.2c0.1-33.4-0.4-66.9,0.4-100.3c0.5-18.5,9.5-33.2,27.2-40c17.5-6.8,34.5-4.7,48.8,8.8
		c13.7,12.9,27.3,25.8,40.9,38.7c5.8,5.5,11.5,10.9,17.5,16.5l-61.4,89.2c-2.6,3.8,0.1,8.9,4.7,8.9h39.7c1.9,0,3.6-0.9,4.7-2.5
		l43.8-63.6c8.6,7.7,16.5,14.5,24.2,21.6c86.9,80.3,227.8,38.6,256.9-76.1C981.9,431.6,979.7,399.6,979.7,399.6z"/>
	<path d="M108.4,370.4c-58.2,11.5-87.3,65.3-86.3,106.1c1.2,50.1,0.5,100.2,0.7,150.3c0,2.9,0.2,5.8,0.7,8.6
		c1.5,8.7,6.7,14.5,14.8,17.5c15.1,5.6,30.9-5.5,31-21.8c0.1-25.7,0-51.5,0-78.7c3.4,3.1,5.6,5.1,7.9,7.2
		c20.7,19,45.1,24.9,72.2,19.7c47.1-9.1,79.4-44.8,84.9-93.7C242.5,414.2,179,356.5,108.4,370.4z M128.7,539
		c-34.1-0.2-62.4-29.5-62.4-64.5c0-34.4,28.9-63.3,62.9-63.1c33.2,0.2,60,28.6,59.8,63.6C188.9,510.3,161.7,539.1,128.7,539z"/>
	<path d="M338.5,367.9c-56.1,11-93.3,62-86,119c5.3,41.5,28.1,71,66.3,87.2c37.4,15.9,73.3,11.7,106.3-12.8
		c10.5-7.8,12.8-20.2,5.7-29.8c-7.1-9.7-19.4-10.9-30.1-3.3c-16,11.4-33.7,16-53.3,12.3c-24.2-4.5-45.3-25.6-47.7-48.4l143.4,0
		c3.3,0,6.6,0,9.9-0.4c5.6-0.7,9.2-3.7,9.2-9.7c0-6.8,0.2-13.6-0.3-20.4C457.5,400.5,398.9,356,338.5,367.9z M301.2,452.5
		c2.4-21.7,29.1-43.8,54.7-45.4c28.5-1.8,54.6,17.2,61.2,45.4C378.2,452.5,339.7,452.5,301.2,452.5z"/>
</g>
<path class="st0" d="M882.8,373.3c0,14-11.4,25.6-25.2,25.8c-13.8,0.1-26.1-12.2-26-26c0.1-14.3,11.6-25.4,26.2-25.4
	C872,347.8,882.8,358.8,882.8,373.3z"/>
</svg>
