<?xml version="1.0" encoding="utf-8"?>
<!-- Generator: Adobe Illustrator 23.0.1, SVG Export Plug-In . SVG Version: 6.00 Build 0)  -->
<svg version="1.1" id="Layer_1" xmlns="http://www.w3.org/2000/svg" xmlns:xlink="http://www.w3.org/1999/xlink" x="0px" y="0px"
	 viewBox="0 0 400 396.2" style="enable-background:new 0 0 400 396.2;" xml:space="preserve">
<style type="text/css">
	.st0{fill:url(#SVGID_1_);}
	.st1{fill:url(#SVGID_2_);}
	.st2{fill:url(#SVGID_3_);}
	.st3{fill:url(#SVGID_4_);}
	.st4{fill:url(#Face_2_);}
	.st5{fill:#D07500;}
</style>
<g id="_x33_D_Sides">
	
		<linearGradient id="SVGID_1_" gradientUnits="userSpaceOnUse" x1="263.7386" y1="224.7585" x2="378.2614" y2="266.4415" gradientTransform="matrix(1 0 0 1 0 2)">
		<stop  offset="0" style="stop-color:#D39D04"/>
		<stop  offset="0.4727" style="stop-color:#C06C11"/>
	</linearGradient>
	<path class="st0" d="M392.9,225.8c-0.4,0.2-0.8,0.3-1.1,0.4c-0.4,0.1-0.8,0.2-1.2,0.3c-0.4,0.1-0.8,0.1-1.3,0.2l-86.6,7.5L248,270
		l83.4-8.1c0.4,0,0.8-0.1,1.2-0.2c0.4-0.1,0.8-0.2,1.2-0.3c0.4-0.1,0.8-0.3,1.1-0.4c0.3-0.2,0.7-0.3,1-0.5
		c19.4-11.8,38.7-23.5,58.1-35.3C393.6,225.4,393.3,225.6,392.9,225.8z"/>
	
		<linearGradient id="SVGID_2_" gradientUnits="userSpaceOnUse" x1="83.8838" y1="65.0362" x2="161.1808" y2="93.17" gradientTransform="matrix(1 0 0 1 0 2)">
		<stop  offset="0" style="stop-color:#D39D04"/>
		<stop  offset="0.4727" style="stop-color:#C06C11"/>
	</linearGradient>
	<path class="st1" d="M132.3,15.8c-0.3-1.2-0.4-2.3-0.4-3.4s0.1-2.2,0.4-3.2c0.3-1,0.6-1.9,1-2.8c0.5-0.9,1-1.7,1.7-2.4
		c-15,16.2-30,32.5-45,48.7c-0.6,0.7-1.2,1.5-1.6,2.3c-0.5,0.8-0.8,1.8-1,2.7c-0.3,1-0.4,2-0.4,3s0.1,2.1,0.3,3.3l20,93.2l47.1-43.4
		L132.3,15.8z"/>
	
		<linearGradient id="SVGID_3_" gradientUnits="userSpaceOnUse" x1="126.0946" y1="299.9956" x2="314.8659" y2="368.7027" gradientTransform="matrix(1 0 0 1 0 2)">
		<stop  offset="0" style="stop-color:#D39D04"/>
		<stop  offset="0.4727" style="stop-color:#C06C11"/>
	</linearGradient>
	<path class="st2" d="M320.5,353.7c-0.3,0.1-0.7,0.3-1,0.4s-0.7,0.2-1,0.3c-0.3,0.1-0.7,0.1-1.1,0.2l-90.3,11.6
		c-2.1,0.3-4.3,0-6.4-0.6c-2-0.6-4-1.7-5.8-3.1s-3.3-3.1-4.6-5.1s-2.2-4.2-2.8-6.6l-23.9-106.4l-49.9,36.7l21.6,100.6
		c0.5,2.3,1.4,4.4,2.5,6.2c1.2,1.9,2.7,3.5,4.3,4.8s3.5,2.3,5.5,2.9s4,0.8,6.1,0.5l86.6-11.8c0.3,0,0.7-0.1,1-0.2s0.7-0.2,1-0.3
		c0.3-0.1,0.6-0.2,1-0.3c0.3-0.1,0.6-0.3,0.9-0.4c19-9.9,38-19.9,57-29.8C321.1,353.5,320.8,353.6,320.5,353.7z"/>
	
		<linearGradient id="SVGID_4_" gradientUnits="userSpaceOnUse" x1="-5.9995" y1="187.5886" x2="179.005" y2="254.9248" gradientTransform="matrix(1 0 0 1 0 2)">
		<stop  offset="0" style="stop-color:#D39D04"/>
		<stop  offset="0.4727" style="stop-color:#C06C11"/>
	</linearGradient>
	<path class="st3" d="M83.5,253.1c-2.3,0.2-4.6-0.1-6.8-0.8c-2.2-0.7-4.2-1.8-6-3.3s-3.4-3.2-4.7-5.2c-1.3-2-2.2-4.3-2.7-6.6
		L42.6,135.3c-0.3-1.3-0.4-2.6-0.3-3.8c0-1.2,0.2-2.4,0.5-3.5c0.3-1.1,0.7-2.2,1.3-3.1c0.5-1,1.2-1.9,2-2.7
		C31.8,137,17.7,151.8,3.6,166.6c-0.8,0.8-1.4,1.6-1.9,2.5s-1,1.9-1.3,3s-0.5,2.2-0.5,3.3s0,2.4,0.3,3.6L19,275.4
		c0.5,2.3,1.3,4.4,2.5,6.3s2.7,3.5,4.4,4.9c1.7,1.3,3.7,2.4,5.7,3s4.2,0.9,6.4,0.7l95.7-9.3l49.9-36.7L83.5,253.1z"/>
</g>
<linearGradient id="Face_2_" gradientUnits="userSpaceOnUse" x1="135.6845" y1="305.3067" x2="313.1017" y2="51.9287" gradientTransform="matrix(1 0 0 1 0 2)">
	<stop  offset="0.1636" style="stop-color:#FBF6C8"/>
	<stop  offset="0.4848" style="stop-color:#FACC00"/>
</linearGradient>
<path id="Face_1_" class="st4" d="M399.2,213.3L399.2,213.3L399.2,213.3c-0.1-1-0.3-2.1-0.5-3.1l-23.9-90.7c-0.3-1-0.6-2-1-3l0,0
	l0,0c-0.4-1-0.9-1.9-1.5-2.8c-1.1-1.8-2.5-3.3-4.1-4.6c-0.8-0.6-1.6-1.2-2.4-1.7l0,0l0,0c-0.8-0.5-1.7-0.9-2.6-1.3
	c-0.9-0.3-1.8-0.6-2.7-0.8l0,0l0,0c-0.9-0.2-1.8-0.2-2.8-0.2l-85.6,3.5l-23.2-94.2c-0.5-2-1.4-4-2.5-5.8c-0.6-0.9-1.2-1.7-1.9-2.5
	l0,0l0,0c-0.7-0.8-1.5-1.5-2.3-2.2c-1.6-1.3-3.4-2.4-5.3-3.1C236,0.4,235,0.1,234.1,0l0,0l0,0c-1-0.2-1.9-0.3-2.9-0.3L144,0.1
	c-1,0-2,0.1-2.9,0.3l0,0l0,0c-0.9,0.2-1.8,0.5-2.6,0.9c-1.6,0.8-3,1.9-4,3.3s-1.8,3-2.1,4.9c-0.2,0.9-0.3,1.9-0.3,2.9l0,0l0,0
	c0,1,0.2,2,0.4,3.1l22,98L55.6,118c-2.3,0.1-4.3,0.7-6.1,1.6c-0.9,0.5-1.7,1-2.5,1.6l0,0l0,0c-0.8,0.6-1.4,1.3-2,2.1
	c-1.2,1.6-2,3.4-2.5,5.4c-0.2,1-0.3,2.1-0.3,3.2l0,0l0,0c0,1.1,0.1,2.2,0.3,3.4l20.8,101.9c0.3,1.2,0.6,2.3,1,3.5l0,0l0,0
	c0.5,1.1,1,2.2,1.6,3.2s1.3,2,2.1,2.8l0,0l0,0c0.8,0.9,1.6,1.7,2.5,2.4c1.8,1.5,3.9,2.5,6,3.3c2.2,0.7,4.5,1,6.8,0.8l100.2-8.6
	L207.4,351c0.3,1.2,0.6,2.3,1.1,3.4l0,0l0,0c0.5,1.1,1,2.1,1.6,3.1s1.3,1.9,2.1,2.8l0,0l0,0c0.8,0.8,1.6,1.6,2.5,2.3
	c0.9,0.7,1.8,1.3,2.8,1.8l0,0l0,0c1,0.5,2,0.9,3,1.3c1,0.3,2.1,0.5,3.1,0.6l0,0l0,0c1,0.1,2.1,0.1,3.2,0l90.4-11.6
	c1-0.1,2-0.4,2.8-0.7l0,0l0,0c0.9-0.3,1.7-0.8,2.5-1.3s1.5-1.2,2.1-1.8l0,0l0,0c0.6-0.7,1.2-1.5,1.6-2.3c1-1.7,1.5-3.6,1.8-5.7
	s0.1-4.3-0.5-6.6l-25-101.9l86.6-7.5c1.8-0.2,3.5-0.8,4.9-1.7s2.5-2.2,3.4-3.7c0.4-0.8,0.8-1.5,1-2.4l0,0l0,0
	c0.3-0.9,0.5-1.8,0.5-2.7C399.3,215.3,399.3,214.3,399.2,213.3z"/>
<g id="Icons">
	<path class="st5" d="M156.5,214.1l-13.4-68.7L76,149.6l13.4,70L156.5,214.1z M135,155.8l9.7,49.4l-47.3,4l-9.7-50.4L135,155.8z"/>
	<path class="st5" d="M371,167.9c-2.1-19.9-19.9-36-39.8-36c-9.6,0-18.1,3.7-24.2,10.4c-6.1,6.8-8.9,15.8-7.9,25.4
		c2.1,19.9,19.9,36,39.8,36c9.6,0,18.1-3.7,24.2-10.4C369.2,186.6,372,177.5,371,167.9z M355.8,186.8c-4.2,4.6-10.2,7.2-16.9,7.2
		c-14.8,0-28.6-12.5-30.1-27.3c-0.7-6.8,1.2-13.2,5.4-17.9c4.2-4.6,10.2-7.2,16.9-7.2c14.8,0,28.6,12.5,30.1,27.3
		C361.9,175.8,360,182.1,355.8,186.8z"/>
	<polygon class="st5" points="289.2,326.8 295.3,318.8 266.9,298.2 287.4,269.8 279.3,263.7 258.8,292.1 227.2,268.4 221.1,276.5 
		252.7,300.2 229,331.8 237.1,337.9 260.8,306.3 	"/>
	<path class="st5" d="M197.5,14.8L167,88.6l79.3-4.5L197.5,14.8z M231.7,76.3l-48.9,1.8l17-45.1L231.7,76.3z"/>
</g>
</svg>
