<?xml version="1.0" encoding="utf-8"?>
<!-- Generator: Adobe Illustrator 22.1.0, SVG Export Plug-In . SVG Version: 6.00 Build 0)  -->
<svg version="1.1" id="Layer_1" xmlns="http://www.w3.org/2000/svg" xmlns:xlink="http://www.w3.org/1999/xlink" x="0px" y="0px"
	 viewBox="0 0 1000 1000" style="enable-background:new 0 0 1000 1000;" xml:space="preserve">
<style type="text/css">
	.st0{fill:#231F20;}
	.st1{fill:#FF5F00;}
	.st2{fill:#EB001B;}
	.st3{fill:#F79E1B;}
</style>
<g transform="translate(1565.7 -1106.8)">
	<g transform="matrix(3.1437 0 0 3.1437 -4835.7 -1027.6)">
		<g transform="matrix(1.25 0 0 -1.25 1102.5 727.74)">
			<path class="st0" d="M9.6-169.9c0,3.4,2.2,6.3,5.9,6.3c3.5,0,5.9-2.7,5.9-6.3s-2.4-6.3-5.9-6.3C11.9-176.1,9.6-173.3,9.6-169.9
				 M25.4-169.9v9.8h-4.2v-2.4c-1.3,1.8-3.4,2.9-6.2,2.9c-5.5,0-9.8-4.3-9.8-10.3c0-6,4.3-10.3,9.8-10.3c2.8,0,4.8,1.1,6.2,2.9v-2.4
				h4.2V-169.9z M168.9-169.9c0,3.4,2.2,6.3,5.9,6.3c3.5,0,5.9-2.7,5.9-6.3s-2.4-6.3-5.9-6.3C171.2-176.1,168.9-173.3,168.9-169.9
				 M184.7-169.9v17.6h-4.3v-10.2c-1.3,1.8-3.4,2.9-6.2,2.9c-5.5,0-9.8-4.3-9.8-10.3c0-6,4.3-10.3,9.8-10.3c2.8,0,4.8,1.1,6.2,2.9
				v-2.4h4.3V-169.9z M78.1-163.4c2.7,0,4.5-1.7,4.9-4.7H73C73.4-165.3,75.1-163.4,78.1-163.4 M78.2-159.6c-5.7,0-9.7-4.2-9.7-10.3
				c0-6.2,4.2-10.3,10-10.3c2.9,0,5.6,0.7,8,2.7l-2.1,3.1c-1.6-1.3-3.7-2-5.7-2c-2.7,0-5.2,1.3-5.8,4.8h14.5c0,0.5,0.1,1.1,0.1,1.6
				C87.5-163.8,83.7-159.6,78.2-159.6 M129.5-169.9c0,3.4,2.2,6.3,5.9,6.3c3.5,0,5.9-2.7,5.9-6.3s-2.4-6.3-5.9-6.3
				C131.8-176.1,129.5-173.3,129.5-169.9 M145.3-169.9v9.8h-4.2v-2.4c-1.4,1.8-3.4,2.9-6.2,2.9c-5.5,0-9.8-4.3-9.8-10.3
				c0-6,4.3-10.3,9.8-10.3c2.8,0,4.8,1.1,6.2,2.9v-2.4h4.2V-169.9z M105.5-169.9c0-5.9,4.1-10.3,10.4-10.3c2.9,0,4.9,0.7,7,2.3
				l-2,3.4c-1.6-1.1-3.3-1.8-5.1-1.8c-3.4,0-5.9,2.5-5.9,6.3s2.5,6.2,5.9,6.3c1.8,0,3.5-0.6,5.1-1.8l2,3.4c-2.1,1.7-4.1,2.3-7,2.3
				C109.6-159.6,105.5-164,105.5-169.9 M160.3-159.6c-2.5,0-4-1.1-5.1-2.9v2.4h-4.2v-19.5h4.3v10.9c0,3.2,1.4,5,4.2,5
				c0.9,0,1.8-0.1,2.7-0.5l1.3,4C162.4-159.8,161.1-159.6,160.3-159.6 M46.4-161.7c-2,1.3-4.9,2-8,2c-4.9,0-8.1-2.4-8.1-6.3
				c0-3.2,2.4-5.1,6.7-5.8l2-0.3c2.3-0.3,3.4-0.9,3.4-2c0-1.5-1.6-2.4-4.5-2.4c-2.9,0-5.1,0.9-6.5,2l-2-3.3c2.3-1.7,5.3-2.5,8.5-2.5
				c5.6,0,8.9,2.7,8.9,6.4c0,3.4-2.6,5.2-6.8,5.8l-2,0.3c-1.8,0.2-3.3,0.6-3.3,1.9c0,1.4,1.4,2.3,3.7,2.3c2.5,0,4.9-0.9,6.1-1.7
				L46.4-161.7z M101.2-159.6c-2.5,0-4-1.1-5.1-2.9v2.4h-4.2v-19.5h4.2v10.9c0,3.2,1.4,5,4.2,5c0.9,0,1.8-0.1,2.7-0.5l1.3,4
				C103.3-159.8,102.1-159.6,101.2-159.6 M65-160.1H58v5.9h-4.3v-5.9h-4v-3.9h4v-8.9c0-4.5,1.8-7.2,6.8-7.2c1.8,0,4,0.6,5.3,1.5
				l-1.2,3.6c-1.3-0.7-2.7-1.1-3.8-1.1c-2.1,0-2.8,1.3-2.8,3.3v8.8H65L65-160.1z M1.5-179.6v12.3c0,4.6-2.9,7.7-7.7,7.8
				c-2.5,0-5.1-0.7-6.9-3.5c-1.3,2.2-3.5,3.5-6.5,3.5c-2.1,0-4.1-0.6-5.7-2.9v2.4h-4.3v-19.5h4.3v10.8c0,3.4,1.9,5.2,4.8,5.2
				c2.8,0,4.2-1.8,4.2-5.1v-10.9h4.3v10.8c0,3.4,2,5.2,4.8,5.2c2.9,0,4.3-1.8,4.3-5.1v-10.9L1.5-179.6z"/>
		</g>
		<path class="st1" d="M1239.5,886.4H1159V741.9h80.4V886.4z"/>
		<g transform="matrix(1.25 0 0 -1.25 1064.5 698.59)">
			<path class="st2" d="M79.7-92.4c0,23.5,11,44.4,28.1,57.8c-12.5,9.8-28.3,15.7-45.5,15.7c-40.6,0-73.5-32.9-73.5-73.6
				S21.7-166,62.4-166c17.2,0,32.9,5.9,45.5,15.7C90.7-136.8,79.7-115.9,79.7-92.4"/>
		</g>
		<g transform="matrix(1.25 0 0 -1.25 1103.8 698.59)">
			<path class="st3" d="M195.3-92.4c0-40.6-32.9-73.6-73.5-73.6c-17.2,0-32.9,5.9-45.5,15.7c17.1,13.5,28.1,34.4,28.1,57.8
				s-11,44.4-28.1,57.8c12.5,9.8,28.3,15.7,45.5,15.7C162.4-18.9,195.3-51.8,195.3-92.4"/>
		</g>
	</g>
</g>
</svg>
