<?xml version="1.0" encoding="utf-8"?>
<!-- Generator: Adobe Illustrator 23.0.1, SVG Export Plug-In . SVG Version: 6.00 Build 0)  -->
<svg version="1.1" id="svg4719" xmlns="http://www.w3.org/2000/svg" xmlns:xlink="http://www.w3.org/1999/xlink" x="0px" y="0px"
	 viewBox="0 0 893 893" style="enable-background:new 0 0 893 893;" xml:space="preserve">
<style type="text/css">
	.st0{fill:#F7CC22;}
	.st1{fill:url(#SVGID_1_);}
	.st2{fill:url(#SVGID_2_);}
	.st3{fill:#5C360A;}
	.st4{fill:url(#SVGID_3_);}
	.st5{opacity:0.6;}
	.st6{fill:url(#SVGID_4_);}
	.st7{fill:#985708;}
	.st8{fill:#825200;}
</style>
<title>rixty</title>
<circle class="st0" cx="446.5" cy="446.5" r="421.6"/>
<linearGradient id="SVGID_1_" gradientUnits="userSpaceOnUse" x1="82.0202" y1="594.7594" x2="810.9798" y2="300.2406" gradientTransform="matrix(1 0 0 -1 0 894)">
	<stop  offset="0" style="stop-color:#E28B09"/>
	<stop  offset="0.312" style="stop-color:#F1C749"/>
	<stop  offset="0.5287" style="stop-color:#F6ECCC"/>
	<stop  offset="0.7447" style="stop-color:#EFA112"/>
	<stop  offset="1" style="stop-color:#FFD332"/>
</linearGradient>
<circle class="st1" cx="446.5" cy="446.5" r="393"/>
<g>
	
		<linearGradient id="SVGID_2_" gradientUnits="userSpaceOnUse" x1="149.0288" y1="555.6854" x2="743.9806" y2="339.1407" gradientTransform="matrix(1 0 0 -1 0 894)">
		<stop  offset="0" style="stop-color:#F7E7B0"/>
		<stop  offset="1" style="stop-color:#F68C00"/>
	</linearGradient>
	<path class="st2" d="M446.5,141.3c168.6,0,305.2,136.6,305.2,305.2S615.1,751.7,446.5,751.7S141.3,615.1,141.3,446.5
		S277.9,141.3,446.5,141.3 M446.5,130.1c-42.7,0-84.2,8.4-123.2,24.9c-37.7,15.9-71.5,38.8-100.6,67.8
		c-29.1,29.1-51.9,62.9-67.8,100.6c-16.5,39-24.9,80.5-24.9,123.2s8.4,84.2,24.9,123.2c15.9,37.7,38.8,71.5,67.8,100.6
		c29.1,29.1,62.9,51.9,100.6,67.8c39,16.5,80.5,24.9,123.2,24.9s84.2-8.4,123.2-24.9c37.7-15.9,71.5-38.8,100.6-67.8
		c29.1-29.1,51.9-62.9,67.8-100.6c16.5-39,24.9-80.5,24.9-123.2s-8.4-84.2-24.9-123.2c-15.9-37.7-38.8-71.5-67.8-100.6
		c-29.1-29.1-62.9-51.9-100.6-67.8C530.7,138.4,489.2,130.1,446.5,130.1L446.5,130.1z"/>
</g>
<path class="st3" d="M446.5,141.3c-168.6,0-305.2,136.6-305.2,305.2s136.6,305.2,305.2,305.2s305.2-136.6,305.2-305.2
	S615.1,141.3,446.5,141.3z M446.5,739.8c-162,0-293.3-131.3-293.3-293.3s131.3-293.3,293.3-293.3s293.3,131.3,293.3,293.3
	S608.5,739.8,446.5,739.8z"/>
<linearGradient id="SVGID_3_" gradientUnits="userSpaceOnUse" x1="446.5" y1="154.2" x2="446.5" y2="740.8" gradientTransform="matrix(1 0 0 -1 0 894)">
	<stop  offset="0" style="stop-color:#F1C749"/>
	<stop  offset="1" style="stop-color:#E28B09"/>
</linearGradient>
<circle class="st4" cx="446.5" cy="446.5" r="293.3"/>
<g class="st5">
	
		<radialGradient id="SVGID_4_" cx="447.2982" cy="544.7405" r="233.8236" gradientTransform="matrix(1 0 0 -1 0 894)" gradientUnits="userSpaceOnUse">
		<stop  offset="0.4166" style="stop-color:#FAF0CE"/>
		<stop  offset="1" style="stop-color:#F7CC22"/>
	</radialGradient>
	<path class="st6" d="M350.8,185.4c-66.1,22.4-139.7,94.6-163,160.3c-23,64.7-22.6,128-5.2,183.7h129.1c10.5,0,20.2-5.4,25.8-14.2
		l29.7-47h140.7l-38.7,61.2h220.4c13.7,0,25.6-9.5,28.5-22.8c4.3-19.4,6.5-39.5,6.5-60.1C724.7,262.1,544.7,119.7,350.8,185.4z"/>
</g>
<g>
</g>
<g>
	<path class="st7" d="M300.8,618.8h246.9l42.6-66.7H430l36-60.6H515l21.8-35H344.1l-21.8,35H376
		C347.4,539.2,300.8,618.8,300.8,618.8z"/>
	<path class="st8" d="M592.2,274.2H345.3l-42.6,66.7H463l-36,60.6H378l-21.8,35h192.6l21.8-35H517
		C545.6,353.8,592.2,274.2,592.2,274.2z"/>
</g>
</svg>
