<svg id="svg4719" xmlns="http://www.w3.org/2000/svg" viewBox="0 0 893 893"><title>skype</title><path d="M457.88,807.79c-179.51,0-383.48-216.23-367.17-395.74C107,240.71,335.49,81.6,504.79,106.08c148.91,20.38,281.52,208.06,273.33,357-8.13,157-163.18,344.74-320.24,344.74Z" style="fill:#fff"/><path d="M584,886.67c-12.08-4-30.18-8-40.22-12.07-12.07-6-26.15-6-70.37-4-42.22,2-64.35,0-94.49-4C218.07,838.43,89.38,721.81,43.14,561c-8-30.16-10-46.23-10-118.62,0-78.43-2-84.44-12.07-116.62C-37.27,166.88,81.35,0,250.24,0c34.18,0,76.4,10.07,100.53,22.11,16.1,8.05,26.14,10,88.46,10,56.3,0,78.41,2,106.56,10.06C672.47,74.4,775,156.83,829.28,271.43c34.18,70.37,46.26,142.77,38.19,225.18-4,44.26-4,48.27,6,74.4,32.17,94.51,2,203.07-76.4,267.42C773,858.54,724.73,880.65,694.57,888.7c-30.18,6-78.42,6-108.6-2h-2Zm-54.3-154.82c66.37-14.06,124.65-54.28,146.78-102.52,28.14-58.32,20.09-126.69-18.1-168.91-32.17-36.19-80.43-56.29-195-84.43-76.42-18.09-94.51-26.14-110.59-44.24-14.08-16.09-16.1-28.14-4-46.24,12.07-20.11,42.22-32.17,82.43-34.17,58.32-4,84.45,10,118.62,64.33C576,355.9,602.07,366,636.28,349.85c44.22-22.11,40.21-94.49-8.06-136.72-46.24-38.19-96.5-54.28-181-54.28-88.46,0-148.8,18.09-189,58.3-32.17,32.17-38.18,50.27-38.18,100.52,0,52.27,6,68.35,40.2,98.53,36.19,34.17,66.35,46.26,174.91,72.38,76.41,18.1,96.53,28.14,114.6,48.26,8.07,10.06,12.08,18.09,12.08,36.19,0,20.11-2,24.12-18.09,40.22-24.13,24.11-60.32,34.16-106.56,32.18-54.28-4-78.41-20.11-106.55-76.42-20.12-38.19-36.2-52.27-62.34-52.27-58.32,0-78.41,48.26-48.25,110.57,26.14,54.31,78.41,90.5,144.76,104.56,40.21,8,128.69,8,166.89,0h-2Z" style="fill:#00aff0"/></svg>