<svg id="Layer_1" data-name="Layer 1" xmlns="http://www.w3.org/2000/svg" viewBox="0 0 1000 1000"><title>t-mobile</title><path id="path18" d="M94,456.38H294.27V660.75H94Z" style="fill:#999b9e"/><path id="path20" d="M575,48.43h23.76c153.48,0,225,82.1,254.9,301.05l47.52-2.1L894.82,0H113.87l-7.7,347.38,45.73,2.1c7.93-82.1,17.42-126.32,38-170.53,36.44-82.11,112.5-130.52,206-130.52h33.27V804.22c0,80-4.75,105.26-23.74,124.21-15.86,14.73-47.55,21.05-84,21.05H285V1000H719.18V949.48H682.51c-36.22,0-68.14-6.33-83.75-21.05C579.74,909.48,575,884.2,575,804.22V48.43" style="fill:#ed008c"/><path id="path22" d="M706.67,456.38H906.94V660.75H706.67Z" style="fill:#999b9e"/></svg>