<?xml version="1.0" encoding="utf-8"?>
<!-- Generator: Adobe Illustrator 24.2.1, SVG Export Plug-In . SVG Version: 6.00 Build 0)  -->
<svg version="1.1" id="Layer_1" xmlns="http://www.w3.org/2000/svg" xmlns:xlink="http://www.w3.org/1999/xlink" x="0px" y="0px"
	 viewBox="0 0 1000 1000" style="enable-background:new 0 0 1000 1000;" xml:space="preserve">
<style type="text/css">
	.st0{fill:#E6E6E6;stroke:#000000;stroke-miterlimit:10;}
	.st1{fill:#1FB54C;}
	.st2{fill:#FFFFFF;}
</style>
<rect class="st0" width="1000" height="1000"/>
<path class="st1" d="M153.9,295h777.2l0,0v330.9c0,48.4-38.1,87.6-85.1,87.6H68.8l0,0V382.6C68.8,334.2,106.9,295,153.9,295z"/>
<path class="st2" d="M442.3,561.3c2.8-2.2,6.1-5.1,9.6-7.9c5.8-4.8,12.2-8.1,19.9-8.7c12.2-0.9,19.9,4.3,23.5,16
	c0.6,2,1.1,4.1,1.7,6.4c3.8-4.4,7.2-8.6,11-12.4c6.5-6.5,15.2-10.2,24.3-10.2c14.4-0.3,24.9,8.7,25.4,23.8c0.3,12.8-1,25.9-2.2,38.7
	c-1.3,14-3.4,27.9-4.9,41.8c-0.3,3.4-1.3,4.8-4.8,4.7c-7-0.2-14-0.1-22-0.1c0.7-6.4,1.2-12.2,1.8-18c2.1-18.6,4.2-37.3,6.2-55.9
	c0.4-4.5,1.1-9.7-3.6-12.2c-5.1-2.5-10.3-0.8-14.6,2.8c-9.8,8.6-14.6,19.9-16.1,32.7c-1.9,15.6-3.5,31.1-5.6,46.7
	c-0.6,1.8-2,3.1-3.8,3.6c-7.2,0.3-14.4,0.2-22.5,0.2c0.5-5.3,0.9-10.3,1.4-15.2c2.2-19.1,4.4-37.9,6.6-56.9c0.2-1.6,0.3-3.3,0.3-4.8
	c-0.4-9.4-6.4-13.1-14.6-8.5c-4,2.4-7.5,5.6-10.2,9.3c-9.9,13.1-18.8,26.9-29.1,39.7c-14,17.2-31.7,29.6-53.2,35.5
	c-17.1,4.7-33.8,3.8-47.2-10.2c-7.8-8.1-11.1-18.1-11.2-29.1c-0.4-26.5,8.3-48.6,32.2-62.5c12.8-7.8,28.5-8.8,42.2-2.9
	c9.9,4.1,16.4,11.6,16.9,22.5c0.5,10.6-3.9,19.2-13.4,24.8c-11.7,6.9-24.7,9.5-37.9,11.6c-2,0.3-3.9,0.6-5.9,0.9
	c-8.6,1.1-8.8,1.4-7.3,10c1.7,9.9,8.1,15.7,18.2,15.9c23.8,0.3,43.1-9.4,57.6-27.9c3.1-3.9,3-10.5,3.8-16c1.7-13,3.2-26.1,4.7-39.2
	c0.3-3.4,1.6-4.9,5.3-4.9C440.8,545.7,440.8,545.6,442.3,561.3z M336.9,591.6c8.7-2,16.6-3.5,24.3-5.7c3.4-1,6.6-2.7,9.6-4.8
	c3.8-2.5,5.3-7.3,3.5-11.6c-1.5-4.2-5.2-5.6-9.5-5.8C351.8,563.2,339.7,574.7,336.9,591.6z"/>
<path class="st2" d="M762.7,653.2h-26.3c4.4-35.9,8.7-71.1,13.1-107c5.6,0,10.8-0.4,16,0.1c4.9,0.5,6.7,4.3,6.8,9v7.8
	c2.8-3,5.1-5.6,7.5-7.8c6.4-6,13.5-10,22.5-10.5c11.4-0.7,19.1,4.3,22.6,15.2c0.8,2.4,1.3,4.8,2.1,7.6c2.8-3.4,5.2-6.9,8-10
	c8.4-9.2,18.6-14,31.3-12.7c9.2,0.9,15.4,5.7,18.9,14c4,9.5,3.5,19.3,2.2,29.3c-2.3,17.5-4.1,35.1-6.6,52.5
	c-2.1,14.6-13.3,24.7-28.8,26.6c0.5-5.6,0.9-11.1,1.6-16.6c2.7-23.6,5.6-47.2,8.1-70.9c0.5-4.5,0.8-9.7-4-12.1
	c-4.7-2.4-10-1-14.1,2.4c-8.8,7.4-14.5,17.9-16,29.2c-2.3,15.9-3.8,31.8-5.7,47.8c-0.3,2-0.7,3.9-1.1,6.1h-26
	c1.3-10.5,2.3-20.6,3.5-30.8c1.6-14.3,3.4-28.6,4.8-42.9c0.4-4.4,0.9-9.7-4.1-12c-5.2-2.4-10.3-0.7-14.5,3.1
	c-10.9,9.9-15.2,22.9-16.7,37C766.5,622.8,764.5,638,762.7,653.2z"/>
<path class="st2" d="M119.2,653.6c1.9-15.6,3.5-30.3,5.3-44.9c3.1-25,6.2-50.1,9.3-75.1c1.1-9.1,2.1-18.3,3.4-27.3
	c0.2-1.3,2.3-3.4,3.5-3.4c18.4,0,36.9-0.9,55.1,0.9c30.3,3.2,40.6,24.1,36.4,51.1c-4.4,27.9-24.1,43.7-54.8,45.4
	c-6.1,0.3-12.2,0.4-18.4,0.1c-4.3-0.2-6,1.3-6.4,5.6c-1.6,14.5-3.4,29-5.4,43.5c-0.2,1.5-1.9,3.9-2.9,4
	C136.3,653.7,128.2,653.6,119.2,653.6z M156.6,578.4h16.7c21.9,0,34-13.6,31.3-35.5c-1.3-10.9-8.3-17.5-19.3-18.1
	c-6.1-0.3-12.2,0-18.4-0.3c-3.4-0.1-4.2,1.5-4.5,4.5c-0.8,7.7-2,15.3-2.9,23C158.6,560.5,157.6,569.1,156.6,578.4z"/>
<path class="st2" d="M663,545.9c-1.3,11.2-2.5,21.5-3.7,31.8c-1.6,13.6-3.3,27.2-4.7,40.8c-0.5,4.7-0.8,9.8,4,12.7
	c5,3.1,10.3,1.8,14.8-1.1c11-6.9,18.5-18.3,20.5-31.2c2.7-15.8,4-31.8,5.8-47.7c0.4-3.5,1.4-5.5,5.6-5.3c7,0.3,14,0.1,22,0.1
	c-4.4,36.1-8.6,71.6-12.9,106.8c-17.8,3.6-22.2,0.4-24.7-17.8c-0.9,1.6-1.8,3.2-3,4.7c-8,8.5-17.4,14.7-29.5,15
	c-17.6,0.6-29.1-9.9-28.7-27.7c0.3-14.1,2.1-28.4,3.4-42.5c1.1-11.1,2.8-22.2,3.9-33.3c0.4-4.1,1.8-5.6,6-5.4
	C648.4,546.2,655.4,545.9,663,545.9z"/>
<path class="st2" d="M236.6,653.6c4.4-36.3,8.8-71.7,13.1-107.5c5.4,0,10.5-0.3,15.4,0.1c4.6,0.3,7.1,3.1,7,7.9c0,4.3,0,8.6,0,13.8
	c9.6-13.1,18.6-26.7,38.6-20.6c-1.6,8.5-3.1,16.5-4.7,24.8c-0.9,0-1.9,0-2.8-0.2c-11.8-2.8-18.9-0.1-25.4,10.1
	c-6.1,9.8-9.1,20.7-10.4,32.1c-1.4,11.8-2.9,23.6-4.2,35.4c-0.3,2.4-0.7,4.1-3.7,4.1C252.3,653.5,245,653.6,236.6,653.6z"/>
<path class="st2" d="M612.6,545.9c-1,9.2-1.9,17.6-2.8,26c-3.1,25.8-6.4,51.5-9.4,77.3c-0.4,3.5-1.6,4.6-5.1,4.5
	c-7-0.2-14-0.1-21.8-0.1c0.9-8.9,1.7-17,2.8-25.1c3.1-25.8,6.4-51.5,9.3-77.3c0.5-4.2,2-5.5,6-5.3
	C598.2,546.2,604.9,545.9,612.6,545.9z"/>
<path class="st2" d="M619,515.6c-0.2,9.1-7.4,16.4-16.5,16.6c-8.7,0-16.6-8-16.5-16.7c0.3-9.1,7.6-16.4,16.6-16.6
	C611.8,499.1,619,506.5,619,515.6z"/>
<path class="st2" d="M407.1,653.6c-0.1-6,0.3-11,4.1-15.6c7.9-9.3,15.3-19.1,22.9-28.7c1.1-1.6,2.6-2.8,4.2-3.6
	c-0.7,6.4-1.3,12.7-2.1,18.9c-1,8.4-2,16.8-3.2,25.2c-0.2,1.4-1.7,3.6-2.7,3.6C422.8,653.7,415.1,653.6,407.1,653.6z"/>
<g>
	<path class="st2" d="M354.3,402.4l-23.8,28.5l25.7,37.4c-6.4,0-11.6,0.4-16.6-0.2c-2-0.3-4.2-2.3-5.5-4.2
		c-5.1-7.1-9.9-14.4-14.7-21.7c-2.1-3.2-4.5-4.7-8.8-3.1c0,7.9-0.3,16.2,0.1,24.3c0.2,4.2-1.4,5.4-5.4,5.3
		c-13.8-0.3-11.6,1.7-11.6-11.7c-0.1-26.3,0.1-52.5-0.2-78.7c0-4.9,1.1-6.8,6.3-6.6c10.8,0.3,10.8,0.1,10.8,10.9v45.3
		c3.2-1.9,5.7-2.7,7.2-4.3c4.5-4.9,8.7-10.1,12.6-15.4c3.7-5.2,8.3-7.8,14.7-6.9c2.8,0.2,5.6,0.3,8.4,0.1L354.3,402.4z"/>
	<path class="st2" d="M141,389.7c-8,0-15.3-0.2-22.7,0c-3.9,0.1-5.8-0.8-5.6-5.2c0.3-12.5-1.2-10.5,10.7-10.6
		c19.2-0.1,38.5,0.1,57.9-0.1c4.9-0.1,6.8,1.2,6.6,6.4c-0.5,10.6,1.4,9.4-9.6,9.5c-6,0-12.2,0-18.8,0v6.3c0,22.4-0.1,44.8,0.1,67.3
		c0,4.2-1.2,5.3-5.3,5.3c-13.1,0-13.1,0.2-13.1-12.8L141,389.7L141,389.7z"/>
	<path class="st2" d="M373.9,437.3c-0.1,13.6,9.8,21.3,22.6,18c2.5-0.8,4.9-1.7,7.2-3c6-3,7.2-2.7,11.5,2.5c2.2,2.8,1.7,4.5-0.8,6.5
		c-11.7,8.9-24.7,10.3-38.1,5.4c-12.8-4.6-18.3-15.3-19.6-28c-1.9-18.3,6.5-32.2,21.6-36.9c22-6.9,40.4,7.1,39.7,29.8
		c-0.2,4.2-1.7,5.9-6,5.8C399.3,437.1,386.8,437.3,373.9,437.3z M402.3,426.2c-0.9-9.7-5.4-13.7-14.7-13.3
		c-7.7,0.3-12.7,5.5-12.8,13.3H402.3z"/>
	<path class="st2" d="M450.8,381.6c0,5.3,0.2,10.3,0,15.3c-0.2,3.7,0.9,5.5,5,5.2c3.8-0.3,7.7-0.1,12-0.1v12.2
		c-4.3,0-8.5,0.2-12.6,0c-3.1-0.2-4.4,0.9-4.4,4.1c0.1,10.2-0.1,20.3,0.1,30.4c0.1,6.3,3,8.2,8.8,5.8c3.1-1.3,4.9-0.8,6.5,2
		c1.2,2.2,2.5,4.1,3.7,6.1c-10.4,11-30.5,8.4-34.8-4.4c-0.9-3.2-1.3-6.6-1.2-9.8c-0.2-9.6-0.2-19.2,0-28.9c0.1-3.8-0.6-6-5.2-5.4
		c-3.7,0.4-4.8-2-4.9-5.2c-0.1-3.3-0.2-6,4.4-6c5.2,0.1,7.8-2.7,7.9-7.8c0.1-1.6,0.3-3.1,0.8-4.7C438.8,380.2,439,380,450.8,381.6z"
		/>
	<path class="st2" d="M283.8,458c-9.4,12.9-32.7,15.3-45.2,4.6c-14.4-12.4-15.4-40.2-1.9-53.6c12.2-12.1,35.4-11.6,46.7,1.3
		c-1.2,1.8-2.7,3.8-4.1,5.7c-1.9,2.6-4.1,2.8-6.9,1.3c-2.4-1.4-4.9-2.5-7.6-3.4c-9-2.2-16,1.9-18.7,10.7c-2.2,6.7-2.1,14,0.2,20.6
		c3.5,10.3,14.3,14.7,23.2,8.3C276.6,448.4,279.4,449.8,283.8,458z"/>
	<path class="st2" d="M214.7,434.4c0,9.7-0.2,19.2,0.1,28.9c0.1,4.2-1.4,5.3-5.4,5.3c-11.6,0-11.6,0.1-11.6-11.6
		c0-16.8,0.1-33.6-0.1-50.4c0-3.8,0.7-5.6,5.1-5.6c12,0.1,12-0.1,12,11.9C214.7,420,214.7,427.2,214.7,434.4z"/>
	<path class="st2" d="M206.5,371.7c5.9,0.1,10.6,4.9,10.4,10.8c-0.1,5.9-4.9,10.6-10.8,10.4c-5.9-0.1-10.5-4.9-10.5-10.8
		C195.8,376.4,200.7,371.7,206.5,371.7z"/>
</g>
</svg>
