<?xml version="1.0" encoding="utf-8"?>
<!-- Generator: Adobe Illustrator 24.1.2, SVG Export Plug-In . SVG Version: 6.00 Build 0)  -->
<svg version="1.1" id="Layer_1" xmlns="http://www.w3.org/2000/svg" xmlns:xlink="http://www.w3.org/1999/xlink" x="0px" y="0px"
	 viewBox="0 0 1000 1000" style="enable-background:new 0 0 1000 1000;" xml:space="preserve">
<style type="text/css">
	.st0{fill:#F89840;}
</style>
<path class="st0" d="M370.2,207.3c0,0-362.6,138.6-370.2,335.3c0,0-6.5,122,254.1,105.5l-15.4-17.8c0,0-184.8,20.2-188.4-71.1
	c0,0-27.2-112.5,372-271.3l-71-24.9L370.2,207.3z"/>
<path class="st0" d="M443.7,177.7l-21.3,55.7l58.1,22.5c0,0,394.6-139.8,469.2-10.7c0,0,42.7,50.9-85.3,160l-8.3,23.1
	c0,0,180.1-123.2,137.4-213.9C993.5,214.4,934.2,39.1,443.7,177.7z"/>
<path d="M272,299h87.8v141.4h128.5v85.7H357.7v244.2c0,0-2.1,40.7,36.4,40.7h94.2v79.3H357.7c0,0-85.7,6.4-85.7-113.6V299z"/>
<path class="st0" d="M654.9,519.6h179.9v-79.3H618.5c0,0-85.7-6.4-85.7,113.5v224.9c0,120,85.7,113.5,85.7,113.5h216.4v-79.3H654.9
	c-38.6,0-36.4-40.7-36.4-40.7V560.3C618.5,560.3,616.3,519.6,654.9,519.6z"/>
</svg>
