<?xml version="1.0" encoding="utf-8"?>
<!-- Generator: Adobe Illustrator 24.2.1, SVG Export Plug-In . SVG Version: 6.00 Build 0)  -->
<svg version="1.1" id="Layer_1" xmlns="http://www.w3.org/2000/svg" xmlns:xlink="http://www.w3.org/1999/xlink" x="0px" y="0px"
	 viewBox="0 0 1000 1000" style="enable-background:new 0 0 1000 1000;" xml:space="preserve">
<style type="text/css">
	.st0{fill:#8C45F8;}
	.st1{fill:#FFFFFF;}
</style>
<path class="st0" d="M944.3,1000H55.7C24.9,1000,0,975.1,0,944.3V55.7C0,24.9,24.9,0,55.7,0h888.7c30.7,0,55.7,24.9,55.7,55.7v888.7
	C1000,975.1,975.1,1000,944.3,1000z"/>
<polygon class="st1" points="265.2,219.4 791.6,219.4 791.6,570.3 679.9,682 504.5,682 408.9,777.6 408.9,682 265.2,682 "/>
<g>
	<path d="M201.5,155.6l-47.9,127.6v510.4H329v95.8h95.8l95.7-95.8H664l191.4-191.3V155.6H201.5z M265.2,219.4h526.4v351L679.9,682
		H504.5l-95.6,95.6V682H265.2V219.4z M440.7,538.5h63.8V347.1h-63.8V538.5z M616.1,538.5h63.8V347.1h-63.8V538.5z"/>
</g>
</svg>
