<?xml version="1.0" encoding="utf-8"?>
<!-- Generator: Adobe Illustrator 23.1.1, SVG Export Plug-In . SVG Version: 6.00 Build 0)  -->
<svg version="1.1" id="Layer_1" xmlns="http://www.w3.org/2000/svg" xmlns:xlink="http://www.w3.org/1999/xlink" x="0px" y="0px"
	 viewBox="0 0 1000 1000" style="enable-background:new 0 0 1000 1000;" xml:space="preserve">
<style type="text/css">
	.st0{fill:#191F71;}
	.st1{fill:#F4A929;}
	.st2{fill:#FFFFFF;}
</style>
<path class="st0" d="M15.1,265.1h968.7c8.6,0,15.6,7,15.6,15.6v437.6c0,8.6-7,15.6-15.6,15.6H15.1c-8.6,0-15.6-7-15.6-15.6V280.7
	C-0.5,272.1,6.5,265.1,15.1,265.1z"/>
<path class="st1" d="M67,370.9c11.6-6,24.9-3.6,37.3-3.8c28.5,0.7,57.1-0.7,85.7,0.6c12.9-0.1,23.9,10.6,25.7,23.1
	c9,43.4,17.2,87,26,130.5c-14.5-51-52.9-92.6-98-119.1C119.9,387.9,93.3,379.6,67,370.9z"/>
<path class="st2" d="M315.4,367.3c24.8,0.3,49.4,0.2,74.1,0c-37.6,89.8-72.6,180.6-111,270c-24.1-0.7-48.2-0.4-72.4-0.4
	c-21.4-78-41.3-156.5-62.5-234.6c45.1,26.5,83.4,68.1,98,119.1c2.2,9.9,3.7,20,5.6,30C269.8,489.9,292.6,428.6,315.4,367.3z"/>
<path class="st2" d="M417.3,367.1c23.3,0.2,46.5,0.2,69.8,0c-14.3,89.9-29.3,179.8-43.3,269.8c-23.1,0.1-46.3,0.1-69.5,0
	C387.6,546.9,403.3,457.1,417.3,367.1z"/>
<path class="st2" d="M553.2,384.1c41.7-27.4,96.2-26.6,142.3-11.4c-2.1,19.9-5.5,39.7-8.9,59.4c-24.5-11.8-53.1-17-79.8-10.2
	c-12.6,3-25,18.6-14.5,30.3c21.5,22,55.3,27,75.5,50.9c23.4,22.9,22.6,61.5,6.6,88.3c-16.9,28.3-49.4,43.1-81,47.4
	c-35.8,3.7-73.1,1.5-106.6-12.3c3.6-20.1,6.5-40.3,10.2-60.4c29,15,62.7,22.5,95,15.3c11-3.7,22.3-12.7,21.3-25.6
	c-3.6-15.3-19.6-21.9-32.1-28.8c-24.2-11.9-50.2-26.5-61-52.6C506.6,441.4,524.5,402.8,553.2,384.1z"/>
<path class="st2" d="M874.5,367.5c-21.4,0.4-42.8-0.9-64.2,0.6c-14.5,0.7-23.7,14.2-28.4,26.6c-33.6,80.9-67.6,161.6-101.3,242.4
	c24.4-0.1,48.7-0.1,73.1-0.1c5.1-13.5,10.1-27.1,14.8-40.7c29.7,0.2,59.5,0.1,89.3,0.1c2.8,13.6,5.6,27.2,8.7,40.7
	c21.5-0.1,43-0.1,64.4-0.1C912.2,547.2,893.7,457.3,874.5,367.5z M788.8,540.9c13-33.4,23.6-67.7,38.1-100.4
	c4.3,33.9,12.7,67.1,19.7,100.5C827.4,540.9,808.1,540.9,788.8,540.9z"/>
</svg>
