<svg id="svg4719" xmlns="http://www.w3.org/2000/svg" viewBox="0 0 893 893"><title>vodafone</title><path id="path2333-2" d="M893,446.54c0,246.61-199.85,446.54-446.46,446.54S0,693.15,0,446.54,199.93,0,446.54,0,893,199.93,893,446.54" style="fill:#ee3023"/><path id="path2337-8" d="M450.07,695.53c-122.65.42-250.3-104.27-250.88-272.45-.41-111.17,59.64-218.23,136.27-281.73,74.82-61.86,177.29-101.64,270.16-102,12,0,24.53,1,32.16,3.61C556.56,59.8,491.91,135.44,492.15,221.18a39.43,39.43,0,0,0,.58,7.3c135.94,33.14,197.63,115.18,198,228.64S601.51,695,450.07,695.53" style="fill:#fff"/></svg>