<?xml version="1.0" encoding="utf-8"?>
<!-- Generator: Adobe Illustrator 25.0.1, SVG Export Plug-In . SVG Version: 6.00 Build 0)  -->
<svg version="1.1" id="Layer_1" xmlns="http://www.w3.org/2000/svg" xmlns:xlink="http://www.w3.org/1999/xlink" x="0px" y="0px"
	 viewBox="0 0 2500 2472" style="enable-background:new 0 0 2500 2472;" xml:space="preserve">
<style type="text/css">
	.st0{fill:#555553;}
	.st1{fill:#FFFFFF;}
</style>
<path class="st0" d="M355.2,130.5h1789.5c123.3,0,223.3,100,223.3,223.3v1764.5c0,123.3-100,223.3-223.3,223.3H355.2
	c-123.3,0-223.3-100-223.3-223.3V353.7C132,230.4,231.9,130.5,355.2,130.5z"/>
<g>
	<path class="st1" d="M1342.7,1161.7C1342.2,1162.7,1343.1,1160.7,1342.7,1161.7c-29.3-24.9-60.4-47.4-92.6-73.3
		c-29.4,23.8-58.5,48-87.2,72.5c0,0,0-0.1,0-0.1c-209.5,184.8-477.3,429.3-474.3,658c146.3,138.9,344.9,224.5,563.8,224.5
		c218.4,0,416.6-85.2,562.8-223.6C1817.8,1591,1551.3,1346.5,1342.7,1161.7z"/>
	<path class="st1" d="M824.6,553.5c0.3-0.2,1.1,0.2,1.5,0c172.1-5.1,330.1,72.4,426.5,132.1c96.7-59.9,254.3-137.1,426-132l1.1-0.5
		c-124.3-76-270.7-119.9-427.5-119.9c-156.8,0-303.3,43.9-427.5,119.9L824.6,553.5z"/>
	<path class="st1" d="M1033.6,900c-3.2-5.3-6.5-10.6-10-15.9c-70.9-94-200.1-207.5-329-232.3c-157.9,146.8-256.7,355.2-256.7,586.4
		c0,187.9,65.3,360.7,174.5,497.6C581.3,1448,926.9,1028.9,1033.6,900z"/>
	<path class="st1" d="M1480.7,886c-3.2,5-6.2,9.9-9.2,14.8c37.2,45.2,103.2,125.5,172,223.1c0.6,0.8,1.2,1.7,1.7,2.5
		c5.7,8.1,11.5,16.4,17.2,24.7c1.1,1.6,2.3,3.3,3.4,5c5.2,7.6,10.4,15.3,15.6,23.1c1.5,2.2,3,4.5,4.4,6.7c4.8,7.3,9.6,14.6,14.4,22
		c1.8,2.7,3.5,5.5,5.3,8.2c4.5,7,9,14,13.4,21.2c1.9,3.1,3.8,6.2,5.8,9.3c4.2,6.8,8.4,13.7,12.6,20.6c2.1,3.4,4.1,6.8,6.1,10.3
		c4,6.7,7.9,13.4,11.8,20.1c2.1,3.7,4.2,7.3,6.3,11c3.7,6.6,7.4,13.1,11,19.7c2.1,3.9,4.2,7.8,6.3,11.6c3.5,6.5,6.9,12.9,10.3,19.4
		c2.1,4.1,4.2,8.1,6.3,12.2c3.2,6.3,6.4,12.7,9.5,19.1c2.1,4.2,4.1,8.4,6.1,12.6c3,6.2,5.9,12.5,8.8,18.7c2,4.3,4,8.7,5.9,13
		c2.7,6.1,5.4,12.3,8,18.4c1.9,4.4,3.7,8.8,5.5,13.2c2.5,6.1,4.8,12.1,7.2,18.2c1.7,4.5,3.5,9,5.1,13.5c2.2,6,4.2,11.9,6.3,17.8
		c1.6,4.5,3.1,9.1,4.6,13.6c1.9,5.9,3.6,11.7,5.4,17.6c1.4,4.5,2.8,9.1,4,13.6c1.6,5.8,3,11.5,4.5,17.3c1.1,4.5,2.3,9,3.3,13.5
		c1.3,5.8,2.4,11.4,3.5,17.2c0.9,4.4,1.8,8.9,2.6,13.2c1,5.7,1.7,11.4,2.5,17.1c0.6,4.3,1.3,8.6,1.8,12.8c0.7,5.8,1,11.5,1.4,17.3
		c0.3,4,0.7,8.1,0.9,12c0.3,6.2,0.2,12.4,0.2,18.5c0,3.4,0.2,6.8,0.1,10.2c-0.3,9-0.9,17.9-1.8,26.7c0,0.2,0,0.3,0,0.5
		c109.9-137.2,175.7-310.5,175.7-499.2c0-231-98.5-439-256.1-585.8C1681.2,677.3,1551.7,791.4,1480.7,886z"/>
</g>
</svg>
