<?xml version="1.0" encoding="utf-8"?>
<!-- Generator: Adobe Illustrator 23.0.1, SVG Export Plug-In . SVG Version: 6.00 Build 0)  -->
<svg version="1.1" id="Layer_1" xmlns="http://www.w3.org/2000/svg" xmlns:xlink="http://www.w3.org/1999/xlink" x="0px" y="0px"
	 viewBox="0 0 1000 1000" style="enable-background:new 0 0 1000 1000;" xml:space="preserve">
<style type="text/css">
	.st0{fill-rule:evenodd;clip-rule:evenodd;fill:#FF6900;}
</style>
<path class="st0" d="M260.2,950.3c-32.9,0-51.2-7.8-61-13.5c-13.5-7.9-38.4-28.1-60.7-87.7c-35.8-95.6-57-212.3-57.9-349.4v-0.5
	c0.9-137.4,22.1-254,57.9-349.6c22.3-59.5,47.2-79.7,60.8-87.6c9.6-5.8,27.9-13.5,60.7-13.5c12.6,0,27.3,1.1,44.4,3.9
	c99.4,16.4,209.6,56.1,327,123.9l0.4,0.2C748.4,245.9,837.3,322.9,901,402.1c39.7,49.5,44.4,81.4,44.4,97.2
	c0,15.8-4.7,47.9-44.4,97.2c-63.7,79.3-152.6,156.2-269.1,225.6l-0.5,0.3C514,890.3,403.9,930,304.4,946.3
	C287.3,949.2,272.6,950.3,260.2,950.3"/>
</svg>
