<?xml version="1.0" encoding="utf-8"?>
<!-- Generator: Adobe Illustrator 22.0.1, SVG Export Plug-In . SVG Version: 6.00 Build 0)  -->
<svg version="1.1" id="Layer_1" xmlns="http://www.w3.org/2000/svg" xmlns:xlink="http://www.w3.org/1999/xlink" x="0px" y="0px"
	 viewBox="0 0 158.4 45.7" style="enable-background:new 0 0 158.4 45.7;" xml:space="preserve">
<style type="text/css">
	.st0{fill:#ffffff;}
	.st1{fill:#BD202E;}
</style>
<g>
	<path class="st0" d="M3.9,36.1V13.8H0v-3.4h3.9V7.6c0-1.7,0.2-3,0.5-3.9C4.7,2.6,5.5,1.7,6.5,1C7.6,0.4,9.1,0,11,0
		c1.4,0,2.7,0.2,4.1,0.4l-0.7,3.8C13.5,4.1,12.7,4,11.8,4C10.5,4,9.5,4.3,9,4.8C8.4,5.4,8.2,6.5,8.2,8v2.4h5v3.4h-5v22.3L3.9,36.1
		L3.9,36.1z"/>
	<path class="st0" d="M16.5,36.1V0.6h4.4v35.5H16.5z"/>
	<path class="st0" d="M45.2,27.8l4.5,0.6c-0.7,2.6-2,4.7-4,6.1c-1.9,1.5-4.4,2.2-7.4,2.2c-3.8,0-6.8-1.2-9-3.5s-3.3-5.6-3.3-9.8
		c0-4.3,1.1-7.7,3.4-10.1c2.2-2.4,5.1-3.6,8.7-3.6c3.4,0,6.3,1.2,8.4,3.5c2.2,2.3,3.3,5.6,3.3,9.9c0,0.3,0,0.7,0,1.2H30.7
		c0.2,2.8,1,5,2.4,6.5c1.4,1.5,3.2,2.2,5.4,2.2c1.6,0,3-0.4,4.1-1.3C43.7,31,44.6,29.7,45.2,27.8z M30.9,20.8h14.4
		c-0.2-2.2-0.7-3.8-1.6-4.9c-1.4-1.7-3.2-2.5-5.4-2.5c-2,0-3.7,0.7-5,2S31,18.5,30.9,20.8z"/>
	<path class="st0" d="M52.3,36.1l9.4-13.4L53,10.4h5.4l4,6c0.7,1.2,1.3,2.1,1.8,2.9c0.7-1.1,1.4-2,2-2.8l4.3-6.1h5.2l-8.9,12.1
		l9.6,13.6H71l-5.3-8L64.4,26l-6.8,10.1H52.3L52.3,36.1z"/>
	<path class="st0" d="M98.8,45.7V10.1h4v3.4c0.9-1.3,2-2.3,3.2-3c1.2-0.7,2.6-1,4.3-1c2.2,0,4.1,0.6,5.8,1.7c1.7,1.1,3,2.7,3.8,4.8
		s1.3,4.3,1.3,6.8c0,2.6-0.5,5-1.4,7.1c-0.9,2.1-2.3,3.7-4.1,4.8c-1.8,1.1-3.7,1.7-5.7,1.7c-1.4,0-2.7-0.3-3.9-0.9
		c-1.1-0.6-2.1-1.4-2.8-2.3v12.5L98.8,45.7L98.8,45.7z M102.8,23.1c0,3.3,0.7,5.8,2,7.3c1.3,1.6,3,2.4,4.9,2.4c1.9,0,3.6-0.8,5-2.4
		c1.4-1.6,2.1-4.2,2.1-7.6c0-3.3-0.7-5.7-2-7.4c-1.3-1.6-3-2.4-4.8-2.4c-1.9,0-3.5,0.9-4.9,2.6C103.5,17.3,102.8,19.8,102.8,23.1
		L102.8,23.1z"/>
	<path class="st0" d="M126.5,5.3v-5h4.4v5H126.5z M126.5,35.8V10.1h4.4v25.7H126.5L126.5,35.8z"/>
	<path class="st0" d="M137.5,35.8V10.1h3.9v3.7c1.9-2.8,4.6-4.2,8.2-4.2c1.5,0,2.9,0.3,4.3,0.8c1.3,0.6,2.3,1.3,2.9,2.2
		c0.7,1,1.1,2.1,1.4,3.2c0.2,0.8,0.3,2.2,0.3,4.2v15.8H154V20.2c0-1.8-0.2-3.1-0.5-4c-0.4-0.9-1-1.6-1.8-2.1
		c-0.9-0.5-1.9-0.8-3.1-0.8c-1.9,0-3.5,0.6-4.8,1.8c-1.3,1.2-2,3.4-2,6.7v14L137.5,35.8L137.5,35.8L137.5,35.8z"/>
	<path class="st1" d="M82.7,28.2c0,0,6.6-2.4,9.5-6.4c2.9-4,3.6-9.6-2.8-11.4c-6.1-1.7-10.8,3.4-12.4,8.9c-1,3.3-4.4,21.6,15.1,15.6
		c0,0,3.2-1.3,7-4.4v-6.8C99.1,23.7,86.5,35.3,82.7,28.2z M82,23.7c0,0-0.2-8.7,5.7-8.4C93.6,15.6,84.9,24.1,82,23.7z"/>
</g>
</svg>
