<svg width="342" height="115" viewBox="0 0 342 115" fill="none" xmlns="http://www.w3.org/2000/svg">
<path d="M283.971 42.5127C284.188 40.4748 284.466 38.5742 284.584 36.6735C284.782 33.7539 284.426 30.8931 283.733 28.0519C282.941 24.858 281.436 22.0364 279.179 19.6459C276.407 16.7263 272.981 14.9628 268.942 14.3554C265.437 13.8263 262.012 14.081 258.646 15.0999C254.349 16.3932 250.785 18.8033 247.835 22.154C242.944 27.7384 239.816 34.185 238.113 41.3566C237.558 43.7079 237.261 46.0789 237.103 48.489C236.984 50.3309 236.944 52.1336 237.123 53.9558C237.538 58.2078 239.024 61.9896 241.776 65.3011C244.964 69.1416 249.161 70.6699 254.032 70.8267C258.507 70.9639 262.408 69.3179 266.091 67.0254C268.863 65.3207 271.358 63.2436 273.714 61.0491C277.951 57.091 281.852 52.7998 285.713 48.489C287.475 46.5099 289.277 44.5897 291.059 42.6106C293.99 39.3775 296.96 36.2032 299.811 32.9114C303.434 28.7377 307.81 25.7398 313.057 23.9959C315.038 23.3492 317.077 23.0945 319.176 22.9769C321.948 22.8006 324.661 23.0553 327.314 23.8783C333.016 25.6418 336.917 29.4039 339.254 34.7532C340.699 38.0647 341.352 41.5721 341.511 45.1579C341.57 46.5295 341.748 47.9207 341.709 49.2924C341.55 55.9153 340.343 62.3227 337.174 68.2598C334.581 73.0997 331.274 77.3321 326.799 80.624C323.215 83.2692 319.255 84.9347 314.8 85.4834C311.434 85.8949 308.147 85.7381 304.88 84.8956C301.732 84.0726 298.94 82.5638 296.603 80.2909C296.029 79.7422 295.475 79.174 294.722 78.449C292.584 88.5793 290.485 98.4941 288.386 108.429C282.862 108.429 277.496 108.429 272.031 108.429C272.407 106.645 272.764 104.902 273.12 103.158C274.169 98.1023 275.239 93.0273 276.288 87.9719C276.466 87.1293 276.783 86.4043 277.397 85.7577C280.862 82.0544 284.268 78.2922 287.673 74.5497C290.96 70.9443 294.247 67.3193 297.653 63.5767C297.811 63.949 297.95 64.243 298.069 64.5565C299.078 67.2409 300.484 69.6314 302.84 71.395C306.266 73.9618 309.969 74.1774 313.83 72.5314C317.216 71.101 319.552 68.5341 321.235 65.3598C323.492 61.1274 324.878 56.6207 325.532 51.8984C325.948 48.9201 325.888 45.9417 325.076 43.0025C324.522 41.0039 322.225 39.162 320.126 39.0052C317.631 38.8093 315.434 39.6323 313.315 40.8275C310.721 42.3167 308.424 44.1978 306.246 46.1964C302.484 49.6842 299.197 53.6031 296.069 57.6396C292.742 61.9308 289.436 66.222 285.97 70.3956C283.456 73.4328 280.822 76.3719 277.773 78.9388C275.852 80.5456 273.754 81.7996 271.397 82.6618C267.358 84.1314 263.22 85.2091 258.923 85.4246C256.626 85.5422 254.329 85.7185 252.032 85.6206C244.251 85.2875 237.202 82.9949 231.202 77.8219C226.47 73.7463 223.5 68.6909 221.797 62.793C220.609 58.6977 219.995 54.5045 220.173 50.2329C220.371 46.0005 220.965 41.8073 222.015 37.6924C223.144 33.2249 224.609 28.8553 226.688 24.7404C229.282 19.6263 232.549 14.9824 236.865 11.1419C242.607 6.0081 249.221 2.53987 256.844 1.0115C259.18 0.541235 261.556 0.34529 263.933 0.129751C266.526 -0.124978 269.081 0.0317784 271.635 0.286507C278.387 0.95272 284.505 3.20609 289.772 7.57566C294.96 11.8865 298.286 17.3141 300.108 23.7215C300.266 24.3094 300.187 24.7208 299.771 25.1715C297.098 28.0715 294.425 30.9911 291.772 33.9107C289.475 36.4384 287.198 38.9661 284.901 41.4741C284.683 41.866 284.367 42.1404 283.971 42.5127Z" fill="white"/>
<path fill-rule="evenodd" clip-rule="evenodd" d="M26.0023 0.0131778H24.3653C19.8675 21.5052 15.3812 42.8701 10.8978 64.2215C9.45859 71.0754 8.01967 77.9279 6.58076 84.7828C6.5674 84.8629 6.5717 84.9518 6.57616 85.0436C6.57844 85.0907 6.58076 85.1386 6.58076 85.1864C6.58962 85.213 6.5946 85.2356 6.59909 85.2561C6.60485 85.2823 6.60983 85.305 6.62118 85.3277C6.63128 85.3377 6.64643 85.3478 6.66915 85.363C6.69189 85.3781 6.72221 85.3983 6.76265 85.4286H24.0217C25.0791 80.5321 26.1118 75.6439 27.144 70.7583C28.4002 64.812 29.6556 58.8696 30.9537 52.9211H32.7726C35.2786 52.8969 37.7847 52.8662 40.2907 52.8355C44.0497 52.7895 47.8086 52.7435 51.5676 52.7193C55.1245 52.6991 58.641 52.2754 62.1171 51.5489C66.1186 50.7014 69.8978 49.3697 73.2526 46.9483C77.2339 44.0627 80.1037 40.3095 82.1651 35.8905C84.9338 29.9378 86.0454 23.743 85.0955 17.2254C83.8627 8.71009 78.1838 2.7978 69.7563 1.0221C65.8357 0.194784 61.8948 0.0535347 57.9337 0.0333562C50.341 -0.00988064 42.7381 -0.00164824 35.1323 0.00658735C32.0893 0.0098823 29.0458 0.0131778 26.0023 0.0131778ZM35.5217 38.8369H33.7432C34.4038 35.7042 35.0559 32.6161 35.7028 29.5529C36.7977 24.3684 37.8775 19.2553 38.9573 14.1183C39.1543 14.1107 39.3427 14.1003 39.5247 14.0902C39.8284 14.0735 40.1143 14.0577 40.3922 14.0577C41.6655 14.0577 42.9387 14.0523 44.2119 14.0468C47.1827 14.0341 50.1535 14.0214 53.1244 14.0779C55.5495 14.1183 57.9949 14.2999 60.4201 14.542C65.6544 15.0465 68.4029 18.9207 67.8573 24.2277C67.0893 31.6937 61.4912 36.7988 54.822 37.7876C52.1341 38.1911 49.426 38.4535 46.7179 38.5947C44.2243 38.7158 41.7397 38.7472 39.2522 38.7786C38.0099 38.7943 36.7669 38.81 35.5217 38.8369Z" fill="white"/>
<path fill-rule="evenodd" clip-rule="evenodd" d="M95.4217 33.0187C93.9121 35.0611 92.7703 37.2786 91.9574 39.885C96.6563 40.3048 101.261 40.6932 105.829 41.0783C106.34 41.1215 106.852 41.1646 107.363 41.2077C107.397 41.1301 107.429 41.0559 107.461 40.9846C107.625 40.6092 107.755 40.3123 107.885 40.0018C108.988 37.3758 110.904 35.703 113.633 34.9249C115.723 34.3414 117.852 34.3025 119.943 34.6137C121.046 34.7888 122.188 35.1972 123.155 35.7613C124.858 36.7534 125.807 38.3095 125.845 40.3519C125.884 41.9664 125.536 43.503 125.149 45.0591C124.994 45.7594 124.607 46.1095 123.929 46.2457C123.261 46.3671 122.596 46.507 121.93 46.6468C120.783 46.8878 119.635 47.1289 118.472 47.2766C115.721 47.6157 112.961 47.9023 110.199 48.1892C108.841 48.3302 107.483 48.4713 106.124 48.6188C102.97 48.9689 99.873 49.6497 96.8732 50.739C91.3962 52.7425 87.7384 56.4966 86.1901 62.1764C85.3192 65.3081 85.2224 68.4787 85.7643 71.6688C86.6352 76.8428 89.3641 80.7526 93.9121 83.3202C97.957 85.6155 102.312 85.8489 106.763 84.9152C111.33 83.9426 115.259 81.7446 118.568 78.4379C118.717 78.2884 118.866 78.1429 119.029 77.9835C119.226 77.7901 119.445 77.5762 119.71 77.3097C119.812 77.9365 119.895 78.5486 119.975 79.1468C120.203 80.8317 120.416 82.4057 120.988 83.8843C122.981 84.1371 135.406 84.0593 136.354 83.7676C136.321 83.6321 136.291 83.5003 136.261 83.3705C136.223 83.2023 136.185 83.0375 136.141 82.8728C135.019 78.6713 134.845 74.392 135.658 70.1126C136.14 67.5811 136.658 65.0555 137.175 62.5325C137.592 60.5 138.009 58.4691 138.406 56.4383C138.693 54.9583 139.013 53.4857 139.334 52.0136C140.18 48.1261 141.026 44.242 141.251 40.2352C141.425 37.2786 140.98 34.4775 139.49 31.9099C137.128 27.8057 133.49 25.3937 129.019 24.1488C125.942 23.2929 122.788 23.0206 119.594 23.0012C116.285 22.9817 112.995 23.1568 109.743 23.8959C103.899 25.2381 99.0408 28.1558 95.4217 33.0187ZM121.09 56.5684C121.599 56.4827 122.133 56.3926 122.711 56.3024C122.664 56.5727 122.627 56.8172 122.592 57.0432C122.526 57.4677 122.471 57.827 122.382 58.1698C122.215 58.7874 122.056 59.4079 121.896 60.0286C121.483 61.6365 121.069 63.2449 120.524 64.8027C118.821 69.6462 115.125 72.1554 110.267 73.1474C108.777 73.4586 107.306 73.517 105.816 73.1474C103.145 72.4861 101.248 70.891 100.706 68.1678C100.165 65.4641 100.687 62.9548 103.377 61.0486C105.022 59.8815 106.919 59.2785 108.835 58.7533C112.065 57.8763 115.367 57.411 118.671 56.9453C118.812 56.9256 118.952 56.9058 119.092 56.886C119.742 56.7959 120.392 56.6863 121.09 56.5684Z" fill="white"/>
<path d="M2.76517 101.851L0 115L147.255 108.416L154.429 95.2861L2.76517 101.851Z" fill="white"/>
<path d="M215.584 23.0196C210.765 23.0196 205.927 23.0394 201.109 22.9998C200.169 22.9998 199.699 23.3168 199.248 24.1293C195.233 31.7388 191.178 39.3285 187.124 46.9182C183.344 53.953 179.798 61.0869 177.154 68.6568C177.095 68.8351 176.939 68.9937 176.743 69.2909C176.233 61.4238 175.117 53.7945 174.099 46.1453C173.08 38.4764 172.022 30.7876 170.984 23.1187C165.559 23.1187 160.309 23.1187 155.021 23.1187C155.001 23.3763 154.962 23.5546 154.982 23.7131C155.902 29.0834 156.842 34.4735 157.763 39.8437C158.605 44.778 159.467 49.7123 160.309 54.6466C161.249 60.1159 162.19 65.5852 163.13 71.0546C163.815 75.0575 165.167 83.0633 165.167 83.0633L151.143 108.428C161.308 108.428 167.635 108.428 167.635 108.428C167.635 108.428 191.002 69.7665 196.859 59.2242C203.381 47.4928 209.903 35.7615 216.426 24.0302C216.583 23.7726 216.681 23.4753 216.857 23.079C216.367 23.0592 215.975 23.0196 215.584 23.0196Z" fill="white"/>
</svg>
