<?xml version="1.0" encoding="UTF-8" standalone="no"?>
<svg
   version="1.1"
   id="Layer_1"
   x="0px"
   y="0px"
   viewBox="0 0 5654 1254"
   enable-background="new 0 0 5654 1254"
   xml:space="preserve"
   sodipodi:docname="outofstock2 (1).svg"
   inkscape:version="1.2.2 (b0a8486541, 2022-12-01)"
   xmlns:inkscape="http://www.inkscape.org/namespaces/inkscape"
   xmlns:sodipodi="http://sodipodi.sourceforge.net/DTD/sodipodi-0.dtd"
   xmlns="http://www.w3.org/2000/svg"
   xmlns:svg="http://www.w3.org/2000/svg"><defs
   id="defs926" /><sodipodi:namedview
   id="namedview924"
   pagecolor="#505050"
   bordercolor="#ffffff"
   borderopacity="1"
   inkscape:showpageshadow="0"
   inkscape:pageopacity="0"
   inkscape:pagecheckerboard="1"
   inkscape:deskcolor="#505050"
   showgrid="false"
   inkscape:zoom="0.18819777"
   inkscape:cx="2728.5127"
   inkscape:cy="401.17373"
   inkscape:window-width="1704"
   inkscape:window-height="1369"
   inkscape:window-x="1708"
   inkscape:window-y="32"
   inkscape:window-maximized="1"
   inkscape:current-layer="Layer_1" />
<path
   fill="#010000"
   opacity="1.000000"
   stroke="none"
   d=" M3770.000000,1256.000000   C2513.333496,1256.000000 1257.666992,1256.000000 2.000337,1256.000000   C2.000225,838.000183 2.000225,420.000397 2.000112,2.000449   C1886.666138,2.000299 3771.332275,2.000299 5655.999023,2.000150   C5655.999023,419.999512 5655.999023,837.999023 5655.999512,1255.999268   C5027.666504,1256.000000 4399.333496,1256.000000 3770.000000,1256.000000  M4244.066406,745.566345   C4244.599609,748.008850 4245.133301,750.451416 4245.649902,754.655945   C4245.415527,778.289368 4245.527832,802.013367 4250.106934,825.219666   C4259.878418,874.738953 4287.895020,910.696899 4334.506348,930.347046   C4385.538086,951.860657 4438.513184,952.548462 4490.913574,936.885315   C4546.472656,920.278015 4581.613281,882.602356 4592.890625,825.108582   C4598.136719,798.362610 4598.117676,770.879517 4598.246094,743.637878   C4598.543945,680.645264 4598.343262,617.650146 4598.308594,554.656067   C4598.292969,525.726868 4597.977539,496.778931 4594.230469,468.055420   C4587.946777,419.881897 4563.583496,383.652740 4520.867188,360.255249   C4494.721680,345.934601 4466.267578,339.395233 4436.725586,337.938446   C4400.455078,336.149872 4364.895020,339.766541 4331.467773,355.383667   C4281.302734,378.821075 4253.864746,418.709473 4248.059570,473.300873   C4246.024902,492.428406 4246.399902,511.812164 4244.488770,532.290527   C4244.523926,536.671631 4244.559082,541.052673 4244.385742,547.368469   C4244.362793,582.529724 4244.297852,617.691040 4244.329590,652.852234   C4244.355469,681.375671 4244.497559,709.899048 4244.237793,739.778809   C4244.277832,741.191956 4244.317871,742.605103 4244.066406,745.566345  M4219.535645,470.581238   C4219.807129,469.633667 4220.314941,468.686462 4220.315918,467.738373   C4220.372559,430.113739 4220.412598,392.488983 4220.298340,354.864746   C4220.293457,353.276672 4218.796387,351.693085 4216.145508,349.780975   C4108.815430,349.749451 4001.485596,349.712769 3894.155518,349.717590   C3891.605469,349.717712 3889.055664,350.182098 3886.284668,350.451416   C3886.284668,390.899536 3886.284668,430.720947 3886.284668,471.716187   C3915.663086,471.716187 3944.470947,471.716187 3974.412598,471.716187   C3974.412598,626.347473 3974.412598,779.807190 3974.412598,933.060608   C3987.459473,935.296936 4122.935059,934.705444 4130.585938,932.332031   C4130.585938,779.373535 4130.585938,626.157776 4130.585938,471.682343   C4134.926270,471.682343 4138.491211,471.700256 4142.056152,471.679443   C4167.377441,471.531616 4192.698730,471.375854 4219.535645,470.581238  M2309.855469,934.218201   C2360.751953,934.218201 2411.648682,934.218201 2463.703613,934.218201   C2463.703613,779.689453 2463.703613,626.234070 2463.703613,471.611389   C2493.651855,471.611389 2522.461670,471.611389 2551.033936,471.611389   C2553.248047,458.958374 2552.711670,357.145111 2550.606201,350.256012   C2527.523926,348.173767 2225.461182,349.195190 2218.239502,351.379883   C2216.529297,370.128510 2217.281250,463.459839 2219.429199,471.682098   C2222.796631,471.682098 2226.400146,471.666626 2230.003662,471.684509   C2255.327393,471.810303 2280.651367,471.942963 2305.996338,473.935089   C2305.998291,595.893555 2306.000244,717.851990 2306.002197,839.810425   C2306.002686,868.134094 2305.942383,896.458069 2306.090820,924.781006   C2306.106934,927.820312 2307.338379,930.853333 2309.855469,934.218201  M3110.543945,350.977142   C3110.363770,354.957550 3110.026367,358.937927 3110.025879,362.918365   C3109.999756,548.872864 3110.002441,734.827332 3110.006592,920.781799   C3110.006592,924.113708 3109.907227,927.457947 3110.174805,930.770569   C3110.261963,931.852478 3111.366943,932.852173 3113.855713,934.218323   C3164.748535,934.218323 3215.641113,934.218323 3267.685059,934.218323   C3267.685059,853.042480 3267.685059,772.921204 3267.685059,691.640686   C3298.955566,691.640686 3329.094971,691.640686 3358.989746,691.640686   C3361.188232,679.606079 3360.729492,583.325562 3358.477539,575.683899   C3348.697266,575.683899 3338.729980,575.683899 3328.762695,575.683899   C3318.430908,575.683899 3308.098633,575.752563 3297.767578,575.664185   C3287.934814,575.580017 3278.060547,576.066223 3268.426270,575.357300   C3268.426270,540.131409 3268.426270,506.308929 3268.426270,471.440369   C3302.968018,471.440369 3336.795898,471.440369 3371.136963,471.440369   C3371.136963,430.571655 3371.136963,390.760651 3371.136963,349.683899   C3366.720459,349.683899 3362.833984,349.683868 3358.947266,349.683868   C3280.292236,349.683868 3201.637451,349.678223 3122.982422,349.701904   C3119.326416,349.703003 3115.670410,349.966492 3110.543945,350.977142  M3868.394043,771.534729   C3868.802002,750.160828 3866.547119,729.059692 3862.126709,708.154053   C3856.265869,680.437134 3844.544922,656.161621 3823.323242,636.562561   C3798.234863,613.392761 3770.231934,594.345093 3741.629883,576.011536   C3722.602051,563.814880 3702.269043,553.653320 3684.927734,538.814331   C3677.033447,532.059326 3671.541992,524.137329 3669.207275,514.072449   C3665.177002,496.698395 3664.318604,479.193298 3668.168213,461.706451   C3669.074463,457.589539 3671.148438,453.568420 3673.391357,449.939728   C3678.534180,441.618683 3686.817383,440.898987 3695.452637,441.954742   C3703.695801,442.962616 3707.508057,448.472931 3708.475342,456.143524   C3709.387451,463.378448 3709.863525,470.668335 3710.186035,479.799500   C3710.124023,494.517609 3709.985596,509.236298 3710.091064,523.953125   C3710.105225,525.937866 3711.344727,527.913696 3713.864990,530.219788   C3761.053467,530.219788 3808.242188,530.219788 3854.928223,530.219788   C3855.648926,528.334412 3856.068115,527.738770 3856.080322,527.134888   C3856.704102,496.520142 3856.989258,465.914093 3851.648926,435.593933   C3847.089844,409.708832 3836.040283,387.795013 3813.787354,372.340240   C3796.344971,360.226501 3777.391357,351.638428 3756.989014,346.122253   C3729.110596,338.584808 3700.604736,336.615021 3671.915771,337.782379   C3641.397949,339.024078 3612.044189,345.149750 3584.556396,359.417999   C3550.539795,377.075409 3530.149902,404.229462 3523.878662,442.092163   C3518.183594,476.477081 3517.407471,511.052765 3522.190918,545.443848   C3527.366455,582.655640 3543.031738,614.862427 3574.188721,637.599976   C3597.842529,654.862122 3622.135986,671.245300 3646.040527,688.166626   C3663.145752,700.274902 3680.242676,712.407471 3697.021973,724.958313   C3705.964844,731.647461 3712.762451,740.236694 3715.340088,751.539246   C3719.884766,771.469543 3721.471924,791.647095 3719.518066,811.974304   C3718.692139,820.568787 3716.659912,829.067139 3710.583252,835.889221   C3703.464844,843.880920 3694.481689,844.326782 3685.008301,841.984680   C3676.439453,839.866150 3672.640869,833.635925 3671.705811,825.256165   C3671.302002,821.635986 3670.410889,818.033386 3670.368408,814.415466   C3670.051025,787.434326 3669.888672,760.451233 3669.686523,733.468811   C3669.659668,729.905518 3669.682861,726.341858 3669.682861,723.011108   C3657.532227,720.819763 3531.336182,721.286011 3524.106689,723.378296   C3523.972168,724.609680 3523.677002,725.918518 3523.708740,727.219299   C3524.334229,752.817871 3524.973145,778.416138 3525.661865,804.013062   C3526.120850,821.072205 3529.487793,837.678223 3533.977783,854.055664   C3538.644531,871.079346 3547.224854,885.849121 3559.780518,898.410156   C3579.874023,918.511902 3604.348145,930.579773 3631.268799,938.387085   C3655.834229,945.511292 3680.973633,946.604187 3706.370605,946.431641   C3741.621338,946.192078 3774.887939,938.758057 3806.150391,922.209290   C3837.823975,905.442749 3858.230225,880.636658 3864.285156,844.631531   C3867.109375,827.837036 3868.647705,811.028503 3869.577148,792.859985   C3869.204834,786.346313 3868.832520,779.832581 3868.394043,771.534729  M5006.219727,604.161377   C5006.252441,579.830750 5006.122070,555.498596 5006.361816,531.169983   C5006.614258,505.489075 5004.470703,480.023010 4999.822266,454.799835   C4995.787598,432.909882 4988.291992,412.380676 4973.430664,395.271149   C4957.425781,376.844025 4937.854004,363.273651 4915.395996,353.885223   C4884.448730,340.947601 4851.962891,337.130249 4818.707031,337.639923   C4785.274902,338.152344 4753.310059,344.583679 4723.601074,360.399567   C4685.621094,380.618713 4660.895020,411.481415 4651.206543,453.479828   C4646.417480,474.237823 4645.787598,495.648987 4645.745117,516.921814   C4645.586426,596.915771 4645.551758,676.910583 4645.754883,756.904358   C4645.822266,783.535828 4648.807617,809.954468 4654.124023,836.064697   C4658.438965,857.256714 4666.380859,876.927856 4680.854004,893.290833   C4701.098633,916.178223 4726.811523,930.088928 4756.057617,938.182068   C4782.341797,945.455811 4809.107422,946.619202 4836.164062,946.416992   C4881.442871,946.078735 4921.917480,932.687378 4956.714355,903.422363   C4977.148438,886.237366 4992.113281,865.095825 4997.328125,838.627991   C5001.231934,818.809570 5004.145996,798.637268 5005.379883,778.492554   C5006.864746,754.251831 5006.132324,729.873718 5006.270508,705.554565   C5006.284668,703.052246 5005.691406,700.546570 5005.402344,698.221069   C4979.010254,696.241638 4858.552246,697.176147 4850.316895,699.567383   C4850.316895,702.941284 4850.316895,706.560791 4850.316895,710.180237   C4850.316895,735.845093 4850.585449,761.513977 4850.197754,787.172974   C4850.017578,799.106445 4849.017578,811.077820 4847.530762,822.924255   C4846.484375,831.262756 4844.039062,839.385254 4834.166016,842.010620   C4818.750977,846.109558 4805.284180,840.214783 4803.954590,821.876038   C4803.114746,810.284790 4801.804199,798.683228 4801.782715,787.084290   C4801.606445,691.758057 4801.602051,596.431335 4801.781250,501.105133   C4801.804688,488.504547 4802.761719,475.868073 4803.988281,463.316833   C4805.574707,447.083679 4812.707520,441.251770 4829.076660,441.687927   C4839.896484,441.976257 4845.301270,446.044525 4847.420410,456.331665   C4848.621094,462.162720 4849.497070,468.164215 4849.585938,474.102905   C4850.006348,502.085480 4850.093262,530.072937 4850.320801,558.058533   C4850.450684,574.046265 4850.621094,590.033752 4851.419434,607.533936   C4852.368164,607.802795 4853.315918,608.305908 4854.265137,608.306946   C4903.212891,608.361450 4952.160645,608.395752 5001.108398,608.289673   C5002.704590,608.286255 5004.298340,606.805603 5006.219727,604.161377  M5056.355469,350.758911   C5056.096680,354.717621 5055.612305,358.676300 5055.611816,362.635040   C5055.574219,548.798401 5055.578125,734.961731 5055.584473,921.125061   C5055.584473,924.453979 5055.500977,927.798950 5055.816406,931.101990   C5055.910645,932.090515 5057.231445,932.961914 5059.841797,934.216492   C5110.355469,934.216492 5160.869141,934.216492 5212.387695,934.216492   C5212.387695,860.450012 5212.387695,787.914795 5212.387695,715.379639   C5212.976074,715.319702 5213.563965,715.259766 5214.152344,715.199829   C5232.023438,788.053467 5249.894531,860.907104 5267.775879,933.800537   C5321.937988,933.800537 5375.124023,933.800537 5428.941895,933.800537   C5428.190430,930.620483 5427.709961,928.031494 5426.965820,925.520691   C5414.967285,885.040466 5402.937012,844.569763 5390.911133,804.097778   C5372.825684,743.233948 5354.765625,682.362549 5336.597656,621.523438   C5335.120605,616.576904 5334.948730,612.021545 5336.651855,607.031433   C5342.883789,588.774353 5348.761230,570.396851 5354.800781,552.074280   C5376.043457,487.627899 5397.304688,423.187744 5418.524414,358.734192   C5419.402344,356.069000 5419.941895,353.292511 5420.768555,350.061401   C5371.516602,350.061401 5323.286621,350.061401 5274.235840,350.061401   C5253.668945,417.059174 5234.621094,484.411835 5213.131836,551.029602   C5212.314941,517.489563 5212.360352,484.176056 5212.302734,450.862793   C5212.245117,417.368988 5212.562500,383.867981 5212.084961,349.685547   C5207.132812,349.685547 5203.512695,349.685547 5199.892578,349.685547   C5161.910645,349.685516 5123.928711,349.658142 5085.946777,349.704987   C5076.627930,349.716492 5067.309570,349.970490 5056.355469,350.758911  M1792.308472,690.560913   C1792.378784,659.654846 1792.467896,628.748840 1792.475220,597.842773   C1792.475586,595.899414 1791.836426,593.955933 1791.633179,590.141907   C1791.193970,562.536621 1791.128540,534.918396 1790.173828,507.330963   C1789.612305,491.105042 1789.052368,474.659302 1786.035034,458.779266   C1776.969482,411.070068 1749.779297,376.799133 1705.831909,356.033081   C1681.747314,344.652649 1656.128174,339.177277 1629.671997,337.950500   C1589.913208,336.106873 1551.297363,340.687836 1515.529175,359.977203   C1476.786743,380.870636 1452.635864,413.053986 1444.153931,455.894012   C1440.183350,475.948242 1439.645630,496.749725 1438.451416,517.264893   C1437.484863,533.868042 1437.650757,550.550110 1437.685303,567.196411   C1437.812988,628.828186 1437.845947,690.462097 1438.461426,752.089783   C1438.660034,771.977356 1440.340454,791.861938 1441.692749,811.724060   C1445.644165,869.758789 1488.058472,921.825134 1548.637207,938.237183   C1573.342773,944.930420 1598.305786,946.706909 1623.709106,946.424377   C1651.018066,946.120605 1677.277954,941.297058 1702.282715,930.311890   C1745.685547,911.243896 1773.099854,878.537720 1784.677979,832.610657   C1791.070679,807.252258 1789.969849,781.151062 1791.450439,755.361938   C1792.651611,734.440918 1791.632202,713.392456 1792.308472,690.560913  M3060.171631,714.277039   C3060.271729,712.951294 3060.458496,711.625610 3060.458984,710.299744   C3060.476318,665.034790 3060.488281,619.769836 3060.441406,574.504944   C3060.438965,572.216248 3059.905273,569.928040 3059.705078,565.812988   C3059.959961,535.214355 3059.341553,504.653412 3056.346924,474.167755   C3050.899902,418.717712 3023.031250,378.564423 2972.530762,355.639191   C2921.660889,332.546265 2868.570801,332.183533 2815.428467,346.849335   C2787.750732,354.487610 2763.418701,368.803070 2744.201904,390.840118   C2721.660156,416.689423 2710.435059,447.157104 2708.493652,480.957672   C2707.025635,506.509247 2707.015381,532.144592 2705.726562,559.579895   C2705.673096,613.508484 2705.612793,667.437073 2705.599609,721.365662   C2705.599121,722.993408 2706.091064,724.621338 2706.284180,728.090515   C2706.748779,744.683044 2707.073242,761.281067 2707.723877,777.866333   C2708.218018,790.458496 2708.780518,803.066284 2709.936523,815.609680   C2711.539062,832.998962 2716.623779,849.542786 2724.810547,864.916443   C2746.278320,905.230408 2780.211670,929.209595 2824.110840,940.208618   C2847.269287,946.010925 2870.736084,946.731323 2894.381836,946.339172   C2925.106934,945.829590 2954.511475,939.578979 2981.583008,924.859070   C3024.600830,901.468445 3049.399658,864.975769 3055.535645,816.522034   C3059.753418,783.217468 3060.346436,749.637573 3060.171631,714.277039  M1994.150391,349.781219   C1943.256836,349.781219 1892.363159,349.781219 1840.317139,349.781219   C1840.317139,354.733734 1840.317261,358.648041 1840.317261,362.562347   C1840.317261,475.886200 1840.230225,589.210144 1840.378418,702.533813   C1840.415405,730.812317 1840.944824,759.097595 1841.771118,787.364563   C1842.178223,801.289124 1842.681030,815.368164 1845.039673,829.049866   C1853.097534,875.789795 1880.676636,907.940063 1923.113159,927.074036   C1974.128906,950.076050 2027.525757,952.406860 2081.327637,939.579712   C2131.287842,927.668396 2165.250000,896.434265 2182.702393,848.032288   C2189.786133,828.387146 2190.154541,807.499023 2190.192627,786.943481   C2190.456543,644.289246 2190.326416,501.634308 2190.287598,358.979584   C2190.286865,356.111938 2189.862061,353.244415 2189.632812,350.348267   C2137.649414,350.348267 2086.500732,350.348267 2034.317139,350.348267   C2034.317139,354.899048 2034.317261,358.827026 2034.317261,362.755035   C2034.317261,506.743011 2034.387939,650.731079 2034.186890,794.718750   C2034.170288,806.628601 2032.893677,818.623047 2031.120239,830.415405   C2029.802979,839.174561 2023.265747,843.610962 2014.820190,843.491638   C2006.472168,843.373718 2001.255493,839.369873 1999.967285,830.312683   C1998.520996,820.146423 1998.223145,809.816956 1997.725586,797.780945   C1997.816162,793.119934 1997.985596,788.458862 1997.986084,783.797852   C1998.000854,642.578979 1997.999390,501.360077 1997.997070,360.141205   C1997.996948,357.810120 1998.151489,355.453186 1997.847900,353.159363   C1997.705078,352.080322 1996.645020,351.122650 1994.150391,349.781219  M5478.970703,42.433292   C5475.985840,42.289127 5473.001465,42.018623 5470.016602,42.018581   C4178.440918,42.001419 2886.865479,42.002666 1595.289795,42.003563   C1387.971069,42.003708 1180.652344,42.002731 973.333679,42.011173   C970.004272,42.011311 966.674805,42.125271 963.345398,42.186119   C963.652222,42.922314 963.959045,43.658504 965.060791,45.440639   C1005.350647,67.088333 1043.590698,91.908539 1078.385986,121.598763   C1087.700439,129.546631 1096.722290,132.540283 1108.752197,132.538345   C2561.221436,132.304352 4013.690918,132.314529 5466.160156,132.391098   C5473.765137,132.391495 5481.490234,132.859955 5488.951660,134.235077   C5507.219727,137.601807 5522.420410,146.561447 5534.583984,160.754303   C5548.713867,177.240555 5554.386719,196.394653 5554.378906,217.871185   C5554.282715,474.836243 5554.316895,731.801331 5554.316895,988.766418   C5554.316895,1015.429504 5554.258789,1042.092651 5554.340820,1068.755493   C5554.378906,1081.262207 5552.249512,1093.330322 5546.828613,1104.592407   C5532.927246,1133.473511 5509.451660,1148.690186 5476.096191,1151.742920   C5471.097656,1151.694946 5466.099121,1151.604980 5461.100586,1151.604980   C4009.866699,1151.598877 2558.632568,1151.598999 1107.398682,1151.599854   C1103.732300,1151.599854 1100.035522,1151.333252 1096.411133,1151.727173   C1094.298950,1151.956665 1092.302734,1153.254150 1089.007324,1154.605957   C1051.069946,1186.828247 1010.403625,1215.036011 966.256348,1238.137451   C965.322632,1238.626221 964.726257,1239.759644 962.984619,1241.683594   C967.814575,1241.683594 971.088806,1241.683716 974.363037,1241.683716   C2474.971436,1241.683838 3975.580078,1241.689453 5476.188477,1241.557739   C5485.747070,1241.556885 5495.433594,1240.314331 5504.842285,1238.514282   C5540.509277,1231.690063 5571.233398,1215.460815 5596.409668,1189.052002   C5626.923340,1157.044434 5643.488281,1118.910156 5643.533203,1074.756714   C5643.825195,786.768127 5643.691406,498.779144 5643.628418,210.790314   C5643.626953,204.507309 5643.106934,198.186829 5642.322266,191.947556   C5636.803711,148.064743 5617.155762,111.529732 5583.416504,83.158905   C5553.752441,58.214985 5519.450684,44.113148 5478.970703,42.433292  M1250.374512,627.456909   C1249.703979,614.187195 1249.178101,600.908203 1248.333618,587.649597   C1246.426270,557.706177 1241.006592,528.308838 1233.895630,499.219788   C1217.625244,432.662872 1190.908447,370.586090 1153.390137,313.226593   C1125.568726,270.691986 1093.118286,232.109421 1055.457275,197.854355   C1031.758301,176.298538 1006.766907,156.471481 980.044250,138.887863   C930.793701,106.480766 877.882629,81.813972 821.369690,64.890396   C770.776794,49.739643 719.067932,41.308048 666.326782,39.761276   C627.369202,38.618740 588.611938,41.275307 550.092285,47.696003   C492.590942,57.280685 437.646423,74.680046 385.227753,100.136017   C332.161438,125.906464 284.051697,158.861633 240.532974,198.729019   C204.489487,231.748337 173.047729,268.634705 146.066299,309.270996   C113.459213,358.380035 88.754730,411.281677 71.584724,467.729431   C57.586155,513.750793 49.490456,560.836975 46.471565,608.722168   C43.849396,650.314575 46.076515,691.870789 52.540436,733.035217   C62.411705,795.898743 81.357635,855.900391 110.069305,912.872070   C147.440552,987.026733 197.774933,1050.772583 261.327362,1104.089111   C324.911835,1157.432495 396.604828,1195.907104 476.047241,1219.822021   C513.382446,1231.061157 551.511353,1238.864014 590.384827,1241.936523   C613.565063,1243.768921 636.900879,1243.737915 660.172974,1244.277710   C692.557922,1245.028809 724.587708,1241.043091 756.316406,1235.261597   C814.603027,1224.640625 870.188904,1205.796997 923.004272,1178.759399   C987.705017,1145.637573 1044.633301,1102.261963 1093.610474,1048.725342   C1131.999023,1006.763123 1163.779419,960.108215 1188.821655,908.892517   C1227.833008,829.107361 1249.332642,745.134705 1251.575928,654.949097   C1251.188477,646.377136 1250.800903,637.805237 1250.374512,627.456909  z"
   id="path843"
   style="opacity:0.00000001" />
<path
   fill="#E00000"
   opacity="1.000000"
   stroke="none"
   d=" M1250.406006,656.144897   C1249.332642,745.134705 1227.833008,829.107361 1188.821655,908.892517   C1163.779419,960.108215 1131.999023,1006.763123 1093.610474,1048.725342   C1044.633301,1102.261963 987.705017,1145.637573 923.004272,1178.759399   C870.188904,1205.796997 814.603027,1224.640625 756.316406,1235.261597   C724.587708,1241.043091 692.557922,1245.028809 660.172974,1244.277710   C636.900879,1243.737915 613.565063,1243.768921 590.384827,1241.936523   C551.511353,1238.864014 513.382446,1231.061157 476.047241,1219.822021   C396.604828,1195.907104 324.911835,1157.432495 261.327362,1104.089111   C197.774933,1050.772583 147.440552,987.026733 110.069305,912.872070   C81.357635,855.900391 62.411705,795.898743 52.540436,733.035217   C46.076515,691.870789 43.849396,650.314575 46.471565,608.722168   C49.490456,560.836975 57.586155,513.750793 71.584724,467.729431   C88.754730,411.281677 113.459213,358.380035 146.066299,309.270996   C173.047729,268.634705 204.489487,231.748337 240.532974,198.729019   C284.051697,158.861633 332.161438,125.906464 385.227753,100.136017   C437.646423,74.680046 492.590942,57.280685 550.092285,47.696003   C588.611938,41.275307 627.369202,38.618740 666.326782,39.761276   C719.067932,41.308048 770.776794,49.739643 821.369690,64.890396   C877.882629,81.813972 930.793701,106.480766 980.044250,138.887863   C1006.766907,156.471481 1031.758301,176.298538 1055.457275,197.854355   C1093.118286,232.109421 1125.568726,270.691986 1153.390137,313.226593   C1190.908447,370.586090 1217.625244,432.662872 1233.895630,499.219788   C1241.006592,528.308838 1246.426270,557.706177 1248.333618,587.649597   C1249.178101,600.908203 1249.703979,614.187195 1250.212891,629.315186   C1250.169434,639.497253 1250.287720,647.821106 1250.406006,656.144897  M756.966431,603.990479   C736.034302,579.309570 724.290344,550.479675 719.587769,519.028198   C695.092834,516.806396 394.608704,517.799988 387.068970,520.240173   C422.780304,593.480652 458.449249,666.634216 493.881348,739.302063   C495.544067,739.492310 496.204254,739.633911 496.864410,739.633972   C598.464600,739.642517 700.064758,739.623779 801.664917,739.682861   C807.589783,739.686279 813.514282,740.315308 820.331177,740.704041   C833.400635,713.897583 846.778198,686.459106 860.593750,658.122437   C840.660034,654.651855 821.732666,650.085083 804.182251,640.949341   C786.540466,631.766052 771.084534,619.910095 756.966431,603.990479  M1002.974670,458.192627   C981.087463,397.739655 926.203979,361.485748 863.104675,368.320679   C808.643738,374.219879 770.004150,403.890747 751.568481,455.459717   C733.216431,506.794861 743.493713,554.081421 781.484802,593.851501   C835.457153,650.351257 929.950378,648.275574 981.139038,583.149597   C1010.127197,546.268799 1016.585327,504.557770 1002.974670,458.192627  M411.224854,599.648865   C384.690735,545.213989 358.022522,490.843750 331.731873,436.291565   C326.254669,424.926605 317.908600,420.169739 305.635712,420.255157   C274.979706,420.468567 244.321030,420.277466 213.663940,420.389771   C210.063141,420.402954 206.338318,420.861664 202.890533,421.866882   C192.824753,424.801422 187.043564,433.720032 188.155014,443.932373   C189.242538,453.924896 197.042725,461.419464 207.412537,462.253937   C210.393250,462.493805 213.407181,462.334869 216.405884,462.335297   C243.370773,462.338989 270.335663,462.337433 297.770355,462.337433   C299.926361,466.605865 302.062866,470.710083 304.090057,474.867584   C347.985138,564.889893 391.867645,654.918396 435.753723,744.945068   C442.460083,758.702393 449.241577,772.423523 455.855865,786.224915   C459.687317,794.219543 465.912292,798.374146 474.704041,798.754822   C477.698212,798.884521 480.697845,798.941345 483.694977,798.941650   C589.330078,798.950928 694.965149,798.954834 800.600220,798.927307   C804.255920,798.926392 807.943115,798.841248 811.561218,798.373962   C822.216431,796.997986 829.818787,788.310608 829.658386,777.973511   C829.494812,767.432312 820.795288,758.352478 810.127502,757.695679   C807.471497,757.532166 804.797241,757.663086 802.131348,757.663086   C701.161560,757.662598 600.191711,757.662659 499.221924,757.662659   C495.629547,757.662659 492.037140,757.662598 488.305908,757.662598   C462.634430,705.037598 437.259277,653.020142 411.224854,599.648865  M534.487305,827.055359   C532.576782,828.891296 530.476746,830.568848 528.787231,832.589600   C519.739868,843.411011 519.595520,858.755188 528.313110,870.244080   C536.645935,881.225769 552.181702,884.815735 564.976746,878.716125   C577.740295,872.631531 584.697144,858.345764 581.487183,844.812683   C576.686707,824.574097 555.968689,816.144775 534.487305,827.055359  M777.643738,849.549744   C776.924438,846.662598 776.457825,843.683289 775.443970,840.903625   C769.875366,825.636902 752.489685,817.590027 737.237183,823.354858   C719.896545,829.908997 714.347534,845.164307 718.744080,861.210083   C722.974915,876.650879 740.790527,885.270203 756.181152,880.258118   C770.218506,875.686646 776.541992,865.320984 777.643738,849.549744  z"
   id="path845" />
<path
   fill="#DF0000"
   opacity="1.000000"
   stroke="none"
   d=" M5477.918945,1152.115234   C5509.451660,1148.690186 5532.927246,1133.473511 5546.828613,1104.592407   C5552.249512,1093.330322 5554.378906,1081.262207 5554.340820,1068.755493   C5554.258789,1042.092651 5554.316895,1015.429504 5554.316895,988.766418   C5554.316895,731.801331 5554.282715,474.836243 5554.378906,217.871185   C5554.386719,196.394653 5548.713867,177.240555 5534.583984,160.754303   C5522.420410,146.561447 5507.219727,137.601807 5488.951660,134.235077   C5481.490234,132.859955 5473.765137,132.391495 5466.160156,132.391098   C4013.690918,132.314529 2561.221436,132.304352 1108.752197,132.538345   C1096.722290,132.540283 1087.700439,129.546631 1078.385986,121.598763   C1043.590698,91.908539 1005.350647,67.088333 965.568909,44.831875   C969.740540,44.148041 973.403992,44.007198 977.067505,44.007175   C2473.118164,43.997833 3969.168701,43.998447 5465.219238,43.982441   C5470.207031,43.982388 5475.194336,43.743885 5480.182129,43.616753   C5519.450684,44.113148 5553.752441,58.214985 5583.416504,83.158905   C5617.155762,111.529732 5636.803711,148.064743 5642.322266,191.947556   C5643.106934,198.186829 5643.626953,204.507309 5643.628418,210.790314   C5643.691406,498.779144 5643.825195,786.768127 5643.533203,1074.756714   C5643.488281,1118.910156 5626.923340,1157.044434 5596.409668,1189.052002   C5571.233398,1215.460815 5540.509277,1231.690063 5504.842285,1238.514282   C5495.433594,1240.314331 5485.747070,1241.556885 5476.188477,1241.557739   C3975.580078,1241.689453 2474.971436,1241.683838 974.363037,1241.683716   C971.088806,1241.683716 967.814575,1241.683594 962.984619,1241.683594   C964.726257,1239.759644 965.322632,1238.626221 966.256348,1238.137451   C1010.403625,1215.036011 1051.069946,1186.828247 1090.545776,1154.307495   C1092.417358,1154.005249 1092.750488,1153.998169 1093.083618,1153.998169   C2549.192139,1153.998413 4005.300781,1153.999146 5461.409180,1153.998901   C5465.075195,1153.998901 5468.757324,1154.180786 5472.400879,1153.890015   C5474.275391,1153.740601 5476.081543,1152.734497 5477.918945,1152.115234  z"
   id="path847" />
<path
   fill="#DF0000"
   opacity="1.000000"
   stroke="none"
   d=" M1997.425781,799.558472   C1998.223145,809.816956 1998.520996,820.146423 1999.967285,830.312683   C2001.255493,839.369873 2006.472168,843.373718 2014.820190,843.491638   C2023.265747,843.610962 2029.802979,839.174561 2031.120239,830.415405   C2032.893677,818.623047 2034.170288,806.628601 2034.186890,794.718750   C2034.387939,650.731079 2034.317261,506.743011 2034.317261,362.755035   C2034.317261,358.827026 2034.317139,354.899048 2034.317139,350.348267   C2086.500732,350.348267 2137.649414,350.348267 2189.632812,350.348267   C2189.862061,353.244415 2190.286865,356.111938 2190.287598,358.979584   C2190.326416,501.634308 2190.456543,644.289246 2190.192627,786.943481   C2190.154541,807.499023 2189.786133,828.387146 2182.702393,848.032288   C2165.250000,896.434265 2131.287842,927.668396 2081.327637,939.579712   C2027.525757,952.406860 1974.128906,950.076050 1923.113159,927.074036   C1880.676636,907.940063 1853.097534,875.789795 1845.039673,829.049866   C1842.681030,815.368164 1842.178223,801.289124 1841.771118,787.364563   C1840.944824,759.097595 1840.415405,730.812317 1840.378418,702.533813   C1840.230225,589.210144 1840.317261,475.886200 1840.317261,362.562347   C1840.317261,358.648041 1840.317139,354.733734 1840.317139,349.781219   C1892.363159,349.781219 1943.256836,349.781219 1995.074585,350.875000   C1995.998413,356.966583 1995.997925,361.964355 1995.997925,366.962128   C1995.998291,504.900604 1995.979736,642.839050 1996.059326,780.777466   C1996.062866,787.038086 1996.950073,793.298157 1997.425781,799.558472  z"
   id="path849" />
<path
   fill="#DF0000"
   opacity="1.000000"
   stroke="none"
   d=" M4245.675293,531.078979   C4246.399902,511.812164 4246.024902,492.428406 4248.059570,473.300873   C4253.864746,418.709473 4281.302734,378.821075 4331.467773,355.383667   C4364.895020,339.766541 4400.455078,336.149872 4436.725586,337.938446   C4466.267578,339.395233 4494.721680,345.934601 4520.867188,360.255249   C4563.583496,383.652740 4587.946777,419.881897 4594.230469,468.055420   C4597.977539,496.778931 4598.292969,525.726868 4598.308594,554.656067   C4598.343262,617.650146 4598.543945,680.645264 4598.246094,743.637878   C4598.117676,770.879517 4598.136719,798.362610 4592.890625,825.108582   C4581.613281,882.602356 4546.472656,920.278015 4490.913574,936.885315   C4438.513184,952.548462 4385.538086,951.860657 4334.506348,930.347046   C4287.895020,910.696899 4259.878418,874.738953 4250.106934,825.219666   C4245.527832,802.013367 4245.415527,778.289368 4245.833008,752.894043   C4245.897949,748.764343 4245.780273,746.396423 4245.731445,743.433960   C4245.396484,741.367065 4244.992188,739.894714 4244.587891,738.422363   C4244.497559,709.899048 4244.355469,681.375671 4244.329590,652.852234   C4244.297852,617.691040 4244.362793,582.529724 4244.857910,545.754700   C4245.445312,539.786926 4245.560059,535.432983 4245.675293,531.078979  M4439.055176,827.386963   C4440.146484,811.835754 4442.133789,796.287292 4442.181641,780.732910   C4442.474121,684.838684 4442.416504,588.942932 4442.213867,493.048218   C4442.189453,481.468384 4440.857422,469.863190 4439.619629,458.324707   C4438.894043,451.564148 4436.584961,445.011719 4429.436035,442.398224   C4417.321289,437.969696 4406.002930,444.197571 4404.076660,457.190460   C4402.041504,470.925812 4400.510254,484.879089 4400.463379,498.742950   C4400.154297,590.641418 4400.209473,682.541565 4400.394531,774.440674   C4400.425781,789.978394 4401.589355,805.517090 4402.383301,821.047485   C4402.551758,824.336060 4403.313965,827.605713 4403.942383,830.856934   C4405.062988,836.648926 4408.741211,840.178467 4414.191406,842.024109   C4425.867188,845.977722 4434.747070,841.181824 4439.055176,827.386963  z"
   id="path851" />
<path
   fill="#DF0000"
   opacity="1.000000"
   stroke="none"
   d=" M2706.356445,557.742615   C2707.015381,532.144592 2707.025635,506.509247 2708.493652,480.957672   C2710.435059,447.157104 2721.660156,416.689423 2744.201904,390.840118   C2763.418701,368.803070 2787.750732,354.487610 2815.428467,346.849335   C2868.570801,332.183533 2921.660889,332.546265 2972.530762,355.639191   C3023.031250,378.564423 3050.899902,418.717712 3056.346924,474.167755   C3059.341553,504.653412 3059.959961,535.214355 3059.206543,567.454773   C3058.458984,571.390137 3057.994873,573.683472 3057.992676,575.977295   C3057.949951,619.788940 3057.932861,663.600647 3058.027588,707.412170   C3058.033936,710.297424 3058.978516,713.180725 3059.486816,716.064941   C3060.346436,749.637573 3059.753418,783.217468 3055.535645,816.522034   C3049.399658,864.975769 3024.600830,901.468445 2981.583008,924.859070   C2954.511475,939.578979 2925.106934,945.829590 2894.381836,946.339172   C2870.736084,946.731323 2847.269287,946.010925 2824.110840,940.208618   C2780.211670,929.209595 2746.278320,905.230408 2724.810547,864.916443   C2716.623779,849.542786 2711.539062,832.998962 2709.936523,815.609680   C2708.780518,803.066284 2708.218018,790.458496 2707.723877,777.866333   C2707.073242,761.281067 2706.748779,744.683044 2706.785889,726.459229   C2707.545654,722.866394 2708.027588,720.905029 2708.029297,718.943298   C2708.069580,668.075928 2708.087402,617.208435 2707.986084,566.341248   C2707.980225,563.473938 2706.923828,560.608765 2706.356445,557.742615  M2903.710449,784.855225   C2903.710449,685.967712 2903.832031,587.079895 2903.546387,488.193237   C2903.513184,476.672516 2901.705811,465.074860 2899.715576,453.688599   C2899.062012,449.950867 2895.972656,445.548035 2892.710938,443.559326   C2882.464844,437.311829 2868.427734,443.216492 2865.889893,455.006165   C2863.810547,464.666290 2862.460693,474.688873 2862.437988,484.554535   C2862.198486,589.101746 2862.228760,693.649719 2862.387939,798.197205   C2862.402832,808.119751 2863.354980,818.099121 2864.670166,827.945496   C2866.037109,838.179016 2872.341797,843.321472 2882.197510,843.565186   C2891.573486,843.797058 2898.727783,838.404358 2900.040771,828.374573   C2901.844971,814.594238 2902.540039,800.668579 2903.710449,784.855225  z"
   id="path853" />
<path
   fill="#DF0000"
   opacity="1.000000"
   stroke="none"
   d=" M1791.597656,692.400513   C1791.632202,713.392456 1792.651611,734.440918 1791.450439,755.361938   C1789.969849,781.151062 1791.070679,807.252258 1784.677979,832.610657   C1773.099854,878.537720 1745.685547,911.243896 1702.282715,930.311890   C1677.277954,941.297058 1651.018066,946.120605 1623.709106,946.424377   C1598.305786,946.706909 1573.342773,944.930420 1548.637207,938.237183   C1488.058472,921.825134 1445.644165,869.758789 1441.692749,811.724060   C1440.340454,791.861938 1438.660034,771.977356 1438.461426,752.089783   C1437.845947,690.462097 1437.812988,628.828186 1437.685303,567.196411   C1437.650757,550.550110 1437.484863,533.868042 1438.451416,517.264893   C1439.645630,496.749725 1440.183350,475.948242 1444.153931,455.894012   C1452.635864,413.053986 1476.786743,380.870636 1515.529175,359.977203   C1551.297363,340.687836 1589.913208,336.106873 1629.671997,337.950500   C1656.128174,339.177277 1681.747314,344.652649 1705.831909,356.033081   C1749.779297,376.799133 1776.969482,411.070068 1786.035034,458.779266   C1789.052368,474.659302 1789.612305,491.105042 1790.173828,507.330963   C1791.128540,534.918396 1791.193970,562.536621 1791.151611,591.790161   C1790.456177,594.737915 1790.057861,596.037170 1790.055908,597.337097   C1790.012329,626.484436 1789.972778,655.631897 1790.073486,684.778931   C1790.082275,687.321228 1791.066406,689.860107 1791.597656,692.400513  M1592.934570,495.279999   C1592.624146,498.230072 1592.043701,501.179993 1592.042114,504.130219   C1591.996582,593.942383 1591.986816,683.754578 1592.089478,773.566711   C1592.093506,777.085510 1593.258057,780.603027 1594.202148,785.942566   C1594.231445,790.606689 1594.051147,795.283569 1594.334839,799.932129   C1594.880615,808.874023 1595.377808,817.838806 1596.487305,826.720093   C1597.381592,833.879028 1599.850586,840.011353 1608.110474,842.377014   C1620.320557,845.874084 1631.060303,838.776123 1632.167114,828.363098   C1633.533203,815.509399 1635.519897,802.620728 1635.555420,789.742554   C1635.834473,688.787903 1635.818237,587.831787 1635.553711,486.877045   C1635.525269,476.007141 1633.965088,465.024261 1631.955811,454.311249   C1630.150024,444.682587 1625.888550,441.894531 1616.781006,441.667023   C1606.464233,441.409332 1600.493286,445.269897 1597.883301,454.357117   C1596.789795,458.163971 1596.104126,462.149048 1595.763672,466.098816   C1594.966431,475.351746 1594.489624,484.632294 1592.934570,495.279999  z"
   id="path855" />
<path
   fill="#E00000"
   opacity="1.000000"
   stroke="none"
   d=" M5057.990723,350.113007   C5067.309570,349.970490 5076.627930,349.716492 5085.946777,349.704987   C5123.928711,349.658142 5161.910645,349.685516 5199.892578,349.685547   C5203.512695,349.685547 5207.132812,349.685547 5212.084961,349.685547   C5212.562500,383.867981 5212.245117,417.368988 5212.302734,450.862793   C5212.360352,484.176056 5212.314941,517.489563 5213.131836,551.029602   C5234.621094,484.411835 5253.668945,417.059174 5274.235840,350.061401   C5323.286621,350.061401 5371.516602,350.061401 5420.768555,350.061401   C5419.941895,353.292511 5419.402344,356.069000 5418.524414,358.734192   C5397.304688,423.187744 5376.043457,487.627899 5354.800781,552.074280   C5348.761230,570.396851 5342.883789,588.774353 5336.651855,607.031433   C5334.948730,612.021545 5335.120605,616.576904 5336.597656,621.523438   C5354.765625,682.362549 5372.825684,743.233948 5390.911133,804.097778   C5402.937012,844.569763 5414.967285,885.040466 5426.965820,925.520691   C5427.709961,928.031494 5428.190430,930.620483 5428.941895,933.800537   C5375.124023,933.800537 5321.937988,933.800537 5267.775879,933.800537   C5249.894531,860.907104 5232.023438,788.053467 5214.152344,715.199829   C5213.563965,715.259766 5212.976074,715.319702 5212.387695,715.379639   C5212.387695,787.914795 5212.387695,860.450012 5212.387695,934.216492   C5160.869141,934.216492 5110.355469,934.216492 5058.919922,933.122314   C5057.995605,738.056458 5057.993164,544.084717 5057.990723,350.113007  z"
   id="path857" />
<path
   fill="#DF0000"
   opacity="1.000000"
   stroke="none"
   d=" M4850.773438,606.021301   C4850.621094,590.033752 4850.450684,574.046265 4850.320801,558.058533   C4850.093262,530.072937 4850.006348,502.085480 4849.585938,474.102905   C4849.497070,468.164215 4848.621094,462.162720 4847.420410,456.331665   C4845.301270,446.044525 4839.896484,441.976257 4829.076660,441.687927   C4812.707520,441.251770 4805.574707,447.083679 4803.988281,463.316833   C4802.761719,475.868073 4801.804688,488.504547 4801.781250,501.105133   C4801.602051,596.431335 4801.606445,691.758057 4801.782715,787.084290   C4801.804199,798.683228 4803.114746,810.284790 4803.954590,821.876038   C4805.284180,840.214783 4818.750977,846.109558 4834.166016,842.010620   C4844.039062,839.385254 4846.484375,831.262756 4847.530762,822.924255   C4849.017578,811.077820 4850.017578,799.106445 4850.197754,787.172974   C4850.585449,761.513977 4850.316895,735.845093 4850.316895,710.180237   C4850.316895,706.560791 4850.316895,702.941284 4850.316895,699.567383   C4858.552246,697.176147 4979.010254,696.241638 5005.402344,698.221069   C5005.691406,700.546570 5006.284668,703.052246 5006.270508,705.554565   C5006.132324,729.873718 5006.864746,754.251831 5005.379883,778.492554   C5004.145996,798.637268 5001.231934,818.809570 4997.328125,838.627991   C4992.113281,865.095825 4977.148438,886.237366 4956.714355,903.422363   C4921.917480,932.687378 4881.442871,946.078735 4836.164062,946.416992   C4809.107422,946.619202 4782.341797,945.455811 4756.057617,938.182068   C4726.811523,930.088928 4701.098633,916.178223 4680.854004,893.290833   C4666.380859,876.927856 4658.438965,857.256714 4654.124023,836.064697   C4648.807617,809.954468 4645.822266,783.535828 4645.754883,756.904358   C4645.551758,676.910583 4645.586426,596.915771 4645.745117,516.921814   C4645.787598,495.648987 4646.417480,474.237823 4651.206543,453.479828   C4660.895020,411.481415 4685.621094,380.618713 4723.601074,360.399567   C4753.310059,344.583679 4785.274902,338.152344 4818.707031,337.639923   C4851.962891,337.130249 4884.448730,340.947601 4915.395996,353.885223   C4937.854004,363.273651 4957.425781,376.844025 4973.430664,395.271149   C4988.291992,412.380676 4995.787598,432.909882 4999.822266,454.799835   C5004.470703,480.023010 5006.614258,505.489075 5006.361816,531.169983   C5006.122070,555.498596 5006.252441,579.830750 5005.126465,605.083313   C4952.946777,606.010620 4901.859863,606.015930 4850.773438,606.021301  z"
   id="path859" />
<path
   fill="#DF0000"
   opacity="1.000000"
   stroke="none"
   d=" M3710.531250,477.934082   C3709.863525,470.668335 3709.387451,463.378448 3708.475342,456.143524   C3707.508057,448.472931 3703.695801,442.962616 3695.452637,441.954742   C3686.817383,440.898987 3678.534180,441.618683 3673.391357,449.939728   C3671.148438,453.568420 3669.074463,457.589539 3668.168213,461.706451   C3664.318604,479.193298 3665.177002,496.698395 3669.207275,514.072449   C3671.541992,524.137329 3677.033447,532.059326 3684.927734,538.814331   C3702.269043,553.653320 3722.602051,563.814880 3741.629883,576.011536   C3770.231934,594.345093 3798.234863,613.392761 3823.323242,636.562561   C3844.544922,656.161621 3856.265869,680.437134 3862.126709,708.154053   C3866.547119,729.059692 3868.802002,750.160828 3868.239258,773.370972   C3868.212158,781.481873 3868.340088,787.756592 3868.467773,794.031250   C3868.647705,811.028503 3867.109375,827.837036 3864.285156,844.631531   C3858.230225,880.636658 3837.823975,905.442749 3806.150391,922.209290   C3774.887939,938.758057 3741.621338,946.192078 3706.370605,946.431641   C3680.973633,946.604187 3655.834229,945.511292 3631.268799,938.387085   C3604.348145,930.579773 3579.874023,918.511902 3559.780518,898.410156   C3547.224854,885.849121 3538.644531,871.079346 3533.977783,854.055664   C3529.487793,837.678223 3526.120850,821.072205 3525.661865,804.013062   C3524.973145,778.416138 3524.334229,752.817871 3523.708740,727.219299   C3523.677002,725.918518 3523.972168,724.609680 3524.106689,723.378296   C3531.336182,721.286011 3657.532227,720.819763 3669.682861,723.011108   C3669.682861,726.341858 3669.659668,729.905518 3669.686523,733.468811   C3669.888672,760.451233 3670.051025,787.434326 3670.368408,814.415466   C3670.410889,818.033386 3671.302002,821.635986 3671.705811,825.256165   C3672.640869,833.635925 3676.439453,839.866150 3685.008301,841.984680   C3694.481689,844.326782 3703.464844,843.880920 3710.583252,835.889221   C3716.659912,829.067139 3718.692139,820.568787 3719.518066,811.974304   C3721.471924,791.647095 3719.884766,771.469543 3715.340088,751.539246   C3712.762451,740.236694 3705.964844,731.647461 3697.021973,724.958313   C3680.242676,712.407471 3663.145752,700.274902 3646.040527,688.166626   C3622.135986,671.245300 3597.842529,654.862122 3574.188721,637.599976   C3543.031738,614.862427 3527.366455,582.655640 3522.190918,545.443848   C3517.407471,511.052765 3518.183594,476.477081 3523.878662,442.092163   C3530.149902,404.229462 3550.539795,377.075409 3584.556396,359.417999   C3612.044189,345.149750 3641.397949,339.024078 3671.915771,337.782379   C3700.604736,336.615021 3729.110596,338.584808 3756.989014,346.122253   C3777.391357,351.638428 3796.344971,360.226501 3813.787354,372.340240   C3836.040283,387.795013 3847.089844,409.708832 3851.648926,435.593933   C3856.989258,465.914093 3856.704102,496.520142 3856.080322,527.134888   C3856.068115,527.738770 3855.648926,528.334412 3854.928223,530.219788   C3808.242188,530.219788 3761.053467,530.219788 3712.938477,529.127197   C3712.009766,514.865845 3712.108887,501.695862 3711.937500,488.529388   C3711.891357,484.992126 3711.022461,481.465546 3710.531250,477.934082  z"
   id="path861" />
<path
   fill="#DF0000"
   opacity="1.000000"
   stroke="none"
   d=" M3112.014404,350.107758   C3115.670410,349.966492 3119.326416,349.703003 3122.982422,349.701904   C3201.637451,349.678223 3280.292236,349.683868 3358.947266,349.683868   C3362.833984,349.683868 3366.720459,349.683899 3371.136963,349.683899   C3371.136963,390.760651 3371.136963,430.571655 3371.136963,471.440369   C3336.795898,471.440369 3302.968018,471.440369 3268.426270,471.440369   C3268.426270,506.308929 3268.426270,540.131409 3268.426270,575.357300   C3278.060547,576.066223 3287.934814,575.580017 3297.767578,575.664185   C3308.098633,575.752563 3318.430908,575.683899 3328.762695,575.683899   C3338.729980,575.683899 3348.697266,575.683899 3358.477539,575.683899   C3360.729492,583.325562 3361.188232,679.606079 3358.989746,691.640686   C3329.094971,691.640686 3298.955566,691.640686 3267.685059,691.640686   C3267.685059,772.921204 3267.685059,853.042480 3267.685059,934.218323   C3215.641113,934.218323 3164.748535,934.218323 3112.928955,933.124756   C3112.006348,738.056702 3112.010254,544.082214 3112.014404,350.107758  z"
   id="path863" />
<path
   fill="#DF0000"
   opacity="1.000000"
   stroke="none"
   d=" M2305.975098,472.073425   C2280.651367,471.942963 2255.327393,471.810303 2230.003662,471.684509   C2226.400146,471.666626 2222.796631,471.682098 2219.429199,471.682098   C2217.281250,463.459839 2216.529297,370.128510 2218.239502,351.379883   C2225.461182,349.195190 2527.523926,348.173767 2550.606201,350.256012   C2552.711670,357.145111 2553.248047,458.958374 2551.033936,471.611389   C2522.461670,471.611389 2493.651855,471.611389 2463.703613,471.611389   C2463.703613,626.234070 2463.703613,779.689453 2463.703613,934.218201   C2411.648682,934.218201 2360.751953,934.218201 2308.928711,933.124634   C2308.001465,782.830505 2308.016602,633.630066 2307.914795,484.429626   C2307.912109,480.310455 2306.649902,476.192139 2305.975098,472.073425  z"
   id="path865" />
<path
   fill="#DF0000"
   opacity="1.000000"
   stroke="none"
   d=" M4218.020020,471.222595   C4192.698730,471.375854 4167.377441,471.531616 4142.056152,471.679443   C4138.491211,471.700256 4134.926270,471.682343 4130.585938,471.682343   C4130.585938,626.157776 4130.585938,779.373535 4130.585938,932.332031   C4122.935059,934.705444 3987.459473,935.296936 3974.412598,933.060608   C3974.412598,779.807190 3974.412598,626.347473 3974.412598,471.716187   C3944.470947,471.716187 3915.663086,471.716187 3886.284668,471.716187   C3886.284668,430.720947 3886.284668,390.899536 3886.284668,350.451416   C3889.055664,350.182098 3891.605469,349.717712 3894.155518,349.717590   C4001.485596,349.712769 4108.815430,349.749451 4217.072266,350.873962   C4218.005859,391.718842 4218.013184,431.470734 4218.020020,471.222595  z"
   id="path867" />
<path
   fill="#B14C4C"
   opacity="1.000000"
   stroke="none"
   d=" M5479.576172,43.025017   C5475.194336,43.743885 5470.207031,43.982388 5465.219238,43.982441   C3969.168701,43.998447 2473.118164,43.997833 977.067505,44.007175   C973.403992,44.007198 969.740540,44.148041 965.171448,44.308903   C963.959045,43.658504 963.652222,42.922314 963.345398,42.186119   C966.674805,42.125271 970.004272,42.011311 973.333679,42.011173   C1180.652344,42.002731 1387.971069,42.003708 1595.289795,42.003563   C2886.865479,42.002666 4178.440918,42.001419 5470.016602,42.018581   C5473.001465,42.018623 5475.985840,42.289127 5479.576172,43.025017  z"
   id="path869" />
<path
   fill="#E42626"
   opacity="1.000000"
   stroke="none"
   d=" M5477.007812,1151.929199   C5476.081543,1152.734497 5474.275391,1153.740601 5472.400879,1153.890015   C5468.757324,1154.180786 5465.075195,1153.998901 5461.409180,1153.998901   C4005.300781,1153.999146 2549.192139,1153.998413 1093.083618,1153.998169   C1092.750488,1153.998169 1092.417358,1154.005249 1091.169312,1154.040039   C1092.302734,1153.254150 1094.298950,1151.956665 1096.411133,1151.727173   C1100.035522,1151.333252 1103.732300,1151.599854 1107.398682,1151.599854   C2558.632568,1151.598999 4009.866699,1151.598877 5461.100586,1151.604980   C5466.099121,1151.604980 5471.097656,1151.694946 5477.007812,1151.929199  z"
   id="path871" />
<path
   fill="#E52828"
   opacity="1.000000"
   stroke="none"
   d=" M5057.172852,350.435974   C5057.993164,544.084717 5057.995605,738.056458 5057.994629,932.957520   C5057.231445,932.961914 5055.910645,932.090515 5055.816406,931.101990   C5055.500977,927.798950 5055.584473,924.453979 5055.584473,921.125061   C5055.578125,734.961731 5055.574219,548.798401 5055.611816,362.635040   C5055.612305,358.676300 5056.096680,354.717621 5057.172852,350.435974  z"
   id="path873" />
<path
   fill="#B03C3C"
   opacity="1.000000"
   stroke="none"
   d=" M3111.279297,350.542450   C3112.010254,544.082214 3112.006348,738.056702 3112.004395,932.960327   C3111.366943,932.852173 3110.261963,931.852478 3110.174805,930.770569   C3109.907227,927.457947 3110.006592,924.113708 3110.006592,920.781799   C3110.002441,734.827332 3109.999756,548.872864 3110.025879,362.918365   C3110.026367,358.937927 3110.363770,354.957550 3111.279297,350.542450  z"
   id="path875" />
<path
   fill="#B03C3C"
   opacity="1.000000"
   stroke="none"
   d=" M2305.985840,473.004272   C2306.649902,476.192139 2307.912109,480.310455 2307.914795,484.429626   C2308.016602,633.630066 2308.001465,782.830505 2308.003906,932.960144   C2307.338379,930.853333 2306.106934,927.820312 2306.090820,924.781006   C2305.942383,896.458069 2306.002686,868.134094 2306.002197,839.810425   C2306.000244,717.851990 2305.998291,595.893555 2305.985840,473.004272  z"
   id="path877" />
<path
   fill="#B46161"
   opacity="1.000000"
   stroke="none"
   d=" M1997.575684,798.669678   C1996.950073,793.298157 1996.062866,787.038086 1996.059326,780.777466   C1995.979736,642.839050 1995.998291,504.900604 1995.997925,366.962128   C1995.997925,361.964355 1995.998413,356.966583 1995.999756,351.039368   C1996.645020,351.122650 1997.705078,352.080322 1997.847900,353.159363   C1998.151489,355.453186 1997.996948,357.810120 1997.997070,360.141205   C1997.999390,501.360077 1998.000854,642.578979 1997.986084,783.797852   C1997.985596,788.458862 1997.816162,793.119934 1997.575684,798.669678  z"
   id="path879" />
<path
   fill="#E31B1B"
   opacity="1.000000"
   stroke="none"
   d=" M2706.041504,558.661255   C2706.923828,560.608765 2707.980225,563.473938 2707.986084,566.341248   C2708.087402,617.208435 2708.069580,668.075928 2708.029297,718.943298   C2708.027588,720.905029 2707.545654,722.866394 2706.820312,725.538574   C2706.091064,724.621338 2705.599121,722.993408 2705.599609,721.365662   C2705.612793,667.437073 2705.673096,613.508484 2706.041504,558.661255  z"
   id="path881" />
<path
   fill="#E32626"
   opacity="1.000000"
   stroke="none"
   d=" M4851.096680,606.777588   C4901.859863,606.015930 4952.946777,606.010620 5004.962891,606.009399   C5004.298340,606.805603 5002.704590,608.286255 5001.108398,608.289673   C4952.160645,608.395752 4903.212891,608.361450 4854.265137,608.306946   C4853.315918,608.305908 4852.368164,607.802795 4851.096680,606.777588  z"
   id="path883" />
<path
   fill="#E52B2B"
   opacity="1.000000"
   stroke="none"
   d=" M3059.829102,715.171021   C3058.978516,713.180725 3058.033936,710.297424 3058.027588,707.412170   C3057.932861,663.600647 3057.949951,619.788940 3057.992676,575.977295   C3057.994873,573.683472 3058.458984,571.390137 3059.163574,568.368103   C3059.905273,569.928040 3060.438965,572.216248 3060.441406,574.504944   C3060.488281,619.769836 3060.476318,665.034790 3060.458984,710.299744   C3060.458496,711.625610 3060.271729,712.951294 3059.829102,715.171021  z"
   id="path885" />
<path
   fill="#E42727"
   opacity="1.000000"
   stroke="none"
   d=" M4218.777832,470.901917   C4218.013184,431.470734 4218.005859,391.718842 4217.997070,351.037170   C4218.796387,351.693085 4220.293457,353.276672 4220.298340,354.864746   C4220.412598,392.488983 4220.372559,430.113739 4220.315918,467.738373   C4220.314941,468.686462 4219.807129,469.633667 4218.777832,470.901917  z"
   id="path887" />
<path
   fill="#E73C3C"
   opacity="1.000000"
   stroke="none"
   d=" M1791.953003,691.480713   C1791.066406,689.860107 1790.082275,687.321228 1790.073486,684.778931   C1789.972778,655.631897 1790.012329,626.484436 1790.055908,597.337097   C1790.057861,596.037170 1790.456177,594.737915 1791.082275,592.725464   C1791.836426,593.955933 1792.475586,595.899414 1792.475220,597.842773   C1792.467896,628.748840 1792.378784,659.654846 1791.953003,691.480713  z"
   id="path889" />
<path
   fill="#B14A4A"
   opacity="1.000000"
   stroke="none"
   d=" M3710.358643,478.866791   C3711.022461,481.465546 3711.891357,484.992126 3711.937500,488.529388   C3712.108887,501.695862 3712.009766,514.865845 3712.014648,528.964111   C3711.344727,527.913696 3710.105225,525.937866 3710.091064,523.953125   C3709.985596,509.236298 3710.124023,494.517609 3710.358643,478.866791  z"
   id="path891" />
<path
   fill="#B05050"
   opacity="1.000000"
   stroke="none"
   d=" M1250.990967,655.546997   C1250.287720,647.821106 1250.169434,639.497253 1250.232178,630.203369   C1250.800903,637.805237 1251.188477,646.377136 1250.990967,655.546997  z"
   id="path893" />
<path
   fill="#B15D5D"
   opacity="1.000000"
   stroke="none"
   d=" M3869.022461,793.445618   C3868.340088,787.756592 3868.212158,781.481873 3868.272461,774.263062   C3868.832520,779.832581 3869.204834,786.346313 3869.022461,793.445618  z"
   id="path895" />
<path
   fill="#B03D3D"
   opacity="1.000000"
   stroke="none"
   d=" M4245.082031,531.684753   C4245.560059,535.432983 4245.445312,539.786926 4244.961914,544.787354   C4244.559082,541.052673 4244.523926,536.671631 4245.082031,531.684753  z"
   id="path897" />
<path
   fill="#B04242"
   opacity="1.000000"
   stroke="none"
   d=" M4245.662598,744.028503   C4245.780273,746.396423 4245.897949,748.764343 4245.841797,752.013062   C4245.133301,750.451416 4244.599609,748.008850 4244.538086,744.793274   C4245.010254,744.020203 4245.662598,744.028503 4245.662598,744.028503  z"
   id="path899" />
<path
   fill="#B03D3D"
   opacity="1.000000"
   stroke="none"
   d=" M4245.731445,743.433960   C4245.662598,744.028503 4245.010254,744.020203 4244.684082,744.019226   C4244.317871,742.605103 4244.277832,741.191956 4244.413086,739.100586   C4244.992188,739.894714 4245.396484,741.367065 4245.731445,743.433960  z"
   id="path901" />
<path
   fill="#FFFDFD"
   opacity="1.000000"
   stroke="none"
   d=" M757.401489,604.555420   C771.084534,619.910095 786.540466,631.766052 804.182251,640.949341   C821.732666,650.085083 840.660034,654.651855 860.593750,658.122437   C846.778198,686.459106 833.400635,713.897583 820.331177,740.704041   C813.514282,740.315308 807.589783,739.686279 801.664917,739.682861   C700.064758,739.623779 598.464600,739.642517 496.864410,739.633972   C496.204254,739.633911 495.544067,739.492310 493.881348,739.302063   C458.449249,666.634216 422.780304,593.480652 387.068970,520.240173   C394.608704,517.799988 695.092834,516.806396 719.587769,519.028198   C724.290344,550.479675 736.034302,579.309570 757.401489,604.555420  z"
   id="path903" />
<path
   fill="#FFFCFC"
   opacity="1.000000"
   stroke="none"
   d=" M1003.272461,458.934021   C1016.585327,504.557770 1010.127197,546.268799 981.139038,583.149597   C929.950378,648.275574 835.457153,650.351257 781.484802,593.851501   C743.493713,554.081421 733.216431,506.794861 751.568481,455.459717   C770.004150,403.890747 808.643738,374.219879 863.104675,368.320679   C926.203979,361.485748 981.087463,397.739655 1003.272461,458.934021  M940.385681,569.680420   C951.920532,561.902161 951.328125,544.902283 941.519104,536.859802   C937.417114,533.496521 933.925903,529.388184 930.157898,525.617676   C921.990295,517.444519 913.823242,509.270782 904.089600,499.529663   C907.738831,496.771729 910.942017,494.843018 913.542725,492.298523   C923.543640,482.513733 933.576416,472.743347 943.162415,462.558228   C951.255615,453.959198 950.882935,441.706696 942.977112,433.913666   C935.104980,426.153931 923.060913,426.289551 914.227417,434.335388   C911.521057,436.800415 909.024536,439.495850 906.432556,442.086426   C896.623413,451.890350 886.814636,461.694580 876.718445,471.785767   C873.692200,468.899933 871.263489,466.667267 868.927307,464.341614   C859.247192,454.704773 849.682434,444.950256 839.907837,435.410553   C830.271851,426.006073 818.316284,425.683411 809.841614,434.336548   C801.636169,442.714935 802.015137,454.318085 810.908875,463.682037   C814.578430,467.545624 818.436646,471.229889 822.204712,475.000092   C830.651978,483.452362 839.096375,491.907379 848.286560,501.106598   C840.483032,508.602509 833.238586,515.468872 826.102234,522.445801   C820.385437,528.034790 814.520874,533.510498 809.223328,539.481262   C801.765869,547.886230 802.335205,559.888672 810.036194,567.467102   C817.544556,574.855957 828.619141,575.317627 837.119080,568.408508   C839.951294,566.106323 842.505920,563.446838 845.075867,560.840637   C855.338745,550.433105 865.557739,539.982178 876.283081,529.047546   C888.828735,541.607910 900.632263,553.270325 912.252136,565.112793   C920.061462,573.071777 928.609558,576.243713 940.385681,569.680420  z"
   id="path905" />
<path
   fill="#FFFDFD"
   opacity="1.000000"
   stroke="none"
   d=" M411.554504,600.325745   C437.259277,653.020142 462.634430,705.037598 488.305908,757.662598   C492.037140,757.662598 495.629547,757.662659 499.221924,757.662659   C600.191711,757.662659 701.161560,757.662598 802.131348,757.663086   C804.797241,757.663086 807.471497,757.532166 810.127502,757.695679   C820.795288,758.352478 829.494812,767.432312 829.658386,777.973511   C829.818787,788.310608 822.216431,796.997986 811.561218,798.373962   C807.943115,798.841248 804.255920,798.926392 800.600220,798.927307   C694.965149,798.954834 589.330078,798.950928 483.694977,798.941650   C480.697845,798.941345 477.698212,798.884521 474.704041,798.754822   C465.912292,798.374146 459.687317,794.219543 455.855865,786.224915   C449.241577,772.423523 442.460083,758.702393 435.753723,744.945068   C391.867645,654.918396 347.985138,564.889893 304.090057,474.867584   C302.062866,470.710083 299.926361,466.605865 297.770355,462.337433   C270.335663,462.337433 243.370773,462.338989 216.405884,462.335297   C213.407181,462.334869 210.393250,462.493805 207.412537,462.253937   C197.042725,461.419464 189.242538,453.924896 188.155014,443.932373   C187.043564,433.720032 192.824753,424.801422 202.890533,421.866882   C206.338318,420.861664 210.063141,420.402954 213.663940,420.389771   C244.321030,420.277466 274.979706,420.468567 305.635712,420.255157   C317.908600,420.169739 326.254669,424.926605 331.731873,436.291565   C358.022522,490.843750 384.690735,545.213989 411.554504,600.325745  z"
   id="path907" />
<path
   fill="#FDEEEE"
   opacity="1.000000"
   stroke="none"
   d=" M535.117432,826.629150   C555.968689,816.144775 576.686707,824.574097 581.487183,844.812683   C584.697144,858.345764 577.740295,872.631531 564.976746,878.716125   C552.181702,884.815735 536.645935,881.225769 528.313110,870.244080   C519.595520,858.755188 519.739868,843.411011 528.787231,832.589600   C530.476746,830.568848 532.576782,828.891296 535.117432,826.629150  z"
   id="path909" />
<path
   fill="#FDEFEF"
   opacity="1.000000"
   stroke="none"
   d=" M777.660156,850.358643   C776.541992,865.320984 770.218506,875.686646 756.181152,880.258118   C740.790527,885.270203 722.974915,876.650879 718.744080,861.210083   C714.347534,845.164307 719.896545,829.908997 737.237183,823.354858   C752.489685,817.590027 769.875366,825.636902 775.443970,840.903625   C776.457825,843.683289 776.924438,846.662598 777.660156,850.358643  z"
   id="path911" />
<path
   fill="#030000"
   opacity="1.000000"
   stroke="none"
   d=" M4438.761719,828.158325   C4434.747070,841.181824 4425.867188,845.977722 4414.191406,842.024109   C4408.741211,840.178467 4405.062988,836.648926 4403.942383,830.856934   C4403.313965,827.605713 4402.551758,824.336060 4402.383301,821.047485   C4401.589355,805.517090 4400.425781,789.978394 4400.394531,774.440674   C4400.209473,682.541565 4400.154297,590.641418 4400.463379,498.742950   C4400.510254,484.879089 4402.041504,470.925812 4404.076660,457.190460   C4406.002930,444.197571 4417.321289,437.969696 4429.436035,442.398224   C4436.584961,445.011719 4438.894043,451.564148 4439.619629,458.324707   C4440.857422,469.863190 4442.189453,481.468384 4442.213867,493.048218   C4442.416504,588.942932 4442.474121,684.838684 4442.181641,780.732910   C4442.133789,796.287292 4440.146484,811.835754 4438.761719,828.158325  z"
   id="path913"
   style="opacity:0" />
<path
   fill="#050101"
   opacity="1.000000"
   stroke="none"
   d=" M2903.710449,785.830200   C2902.540039,800.668579 2901.844971,814.594238 2900.040771,828.374573   C2898.727783,838.404358 2891.573486,843.797058 2882.197510,843.565186   C2872.341797,843.321472 2866.037109,838.179016 2864.670166,827.945496   C2863.354980,818.099121 2862.402832,808.119751 2862.387939,798.197205   C2862.228760,693.649719 2862.198486,589.101746 2862.437988,484.554535   C2862.460693,474.688873 2863.810547,464.666290 2865.889893,455.006165   C2868.427734,443.216492 2882.464844,437.311829 2892.710938,443.559326   C2895.972656,445.548035 2899.062012,449.950867 2899.715576,453.688599   C2901.705811,465.074860 2903.513184,476.672516 2903.546387,488.193237   C2903.832031,587.079895 2903.710449,685.967712 2903.710449,785.830200  z"
   id="path915"
   style="opacity:0.00000001" />
<path
   fill="#050101"
   opacity="1.000000"
   stroke="none"
   d=" M1593.883057,493.901672   C1594.489624,484.632294 1594.966431,475.351746 1595.763672,466.098816   C1596.104126,462.149048 1596.789795,458.163971 1597.883301,454.357117   C1600.493286,445.269897 1606.464233,441.409332 1616.781006,441.667023   C1625.888550,441.894531 1630.150024,444.682587 1631.955811,454.311249   C1633.965088,465.024261 1635.525269,476.007141 1635.553711,486.877045   C1635.818237,587.831787 1635.834473,688.787903 1635.555420,789.742554   C1635.519897,802.620728 1633.533203,815.509399 1632.167114,828.363098   C1631.060303,838.776123 1620.320557,845.874084 1608.110474,842.377014   C1599.850586,840.011353 1597.381592,833.879028 1596.487305,826.720093   C1595.377808,817.838806 1594.880615,808.874023 1594.334839,799.932129   C1594.051147,795.283569 1594.231445,790.606689 1594.204102,784.091187   C1594.245850,688.112732 1594.288330,593.985718 1594.306763,499.858734   C1594.307129,497.873077 1594.030518,495.887360 1593.883057,493.901672  z"
   id="path917"
   style="opacity:0" />
<path
   fill="#E41D1D"
   opacity="1.000000"
   stroke="none"
   d=" M1593.408936,494.590820   C1594.030518,495.887360 1594.307129,497.873077 1594.306763,499.858734   C1594.288330,593.985718 1594.245850,688.112732 1594.044067,783.180420   C1593.258057,780.603027 1592.093506,777.085510 1592.089478,773.566711   C1591.986816,683.754578 1591.996582,593.942383 1592.042114,504.130219   C1592.043701,501.179993 1592.624146,498.230072 1593.408936,494.590820  z"
   id="path919"
   style="opacity:0" />
<path
   fill="#E00404"
   opacity="1.000000"
   stroke="none"
   d=" M939.712708,570.033447   C928.609558,576.243713 920.061462,573.071777 912.252136,565.112793   C900.632263,553.270325 888.828735,541.607910 876.283081,529.047546   C865.557739,539.982178 855.338745,550.433105 845.075867,560.840637   C842.505920,563.446838 839.951294,566.106323 837.119080,568.408508   C828.619141,575.317627 817.544556,574.855957 810.036194,567.467102   C802.335205,559.888672 801.765869,547.886230 809.223328,539.481262   C814.520874,533.510498 820.385437,528.034790 826.102234,522.445801   C833.238586,515.468872 840.483032,508.602509 848.286560,501.106598   C839.096375,491.907379 830.651978,483.452362 822.204712,475.000092   C818.436646,471.229889 814.578430,467.545624 810.908875,463.682037   C802.015137,454.318085 801.636169,442.714935 809.841614,434.336548   C818.316284,425.683411 830.271851,426.006073 839.907837,435.410553   C849.682434,444.950256 859.247192,454.704773 868.927307,464.341614   C871.263489,466.667267 873.692200,468.899933 876.718445,471.785767   C886.814636,461.694580 896.623413,451.890350 906.432556,442.086426   C909.024536,439.495850 911.521057,436.800415 914.227417,434.335388   C923.060913,426.289551 935.104980,426.153931 942.977112,433.913666   C950.882935,441.706696 951.255615,453.959198 943.162415,462.558228   C933.576416,472.743347 923.543640,482.513733 913.542725,492.298523   C910.942017,494.843018 907.738831,496.771729 904.089600,499.529663   C913.823242,509.270782 921.990295,517.444519 930.157898,525.617676   C933.925903,529.388184 937.417114,533.496521 941.519104,536.859802   C951.328125,544.902283 951.920532,561.902161 939.712708,570.033447  z"
   id="path921" />
</svg>
