<?xml version="1.0" encoding="utf-8"?>
<!-- Generator: Adobe Illustrator 22.1.0, SVG Export Plug-In . SVG Version: 6.00 Build 0)  -->
<svg version="1.1" id="Layer_1" xmlns="http://www.w3.org/2000/svg" xmlns:xlink="http://www.w3.org/1999/xlink" x="0px" y="0px"
	 viewBox="0 0 1000 1000" style="enable-background:new 0 0 1000 1000;" xml:space="preserve">
<style type="text/css">
	.st0{fill:#FF9800;}
</style>
<path d="M793.4,660.3c-22.8-31.6-47.3-57-47.3-115.7V349c0-82.4,5.3-158.7-55.2-215.7c-48.2-45.6-128-62.2-188.5-62.2
	c-119.2,0-251.6,44.7-279.7,192c-3.5,15.8,7.9,23.7,18.4,26.3l121,13.2c11.4,0,20.2-11.4,21.9-22.8c10.5-50.8,53.5-75.4,100.8-75.4
	c25.4,0,55.2,9.6,70.1,32.4c17.5,26.3,14.9,61.4,14.9,91.2v16.7c-72.8,7.9-168.3,13.2-235.8,43c-78,33.3-133.3,102.6-133.3,204.3
	c0,130.6,82.4,195.5,187.6,195.5c88.5,0,137.6-21,206-91.2c22.8,32.4,30.7,49.1,71.9,83.3c9.6,5.3,21.9,4.4,29.8-2.6
	c25.4-21.9,70.1-61.4,97.3-83.3C803.1,684.8,801.3,671.6,793.4,660.3z M546.2,604.1c-20.2,35.1-51.7,57-86.8,57
	c-48.2,0-76.3-36.8-76.3-91.2c0-107,95.6-126.2,185.9-126.2v27.2h0.9C569.8,520,570.7,560.3,546.2,604.1z"/>
<g>
	<path class="st0" d="M863.1,806.8c-99.4,73.4-243.7,112.4-367.9,112.4c-174,0-330.8-64.2-449.2-171.4c-9.3-8.5-1.1-20,10-13.4
		C184,809,342,853.9,505.6,853.9c110.2,0,231.4-23,342.7-70.1C865.4,776.4,879.5,794.6,863.1,806.8z"/>
	<path class="st0" d="M904.3,759.7c-12.6-16.3-84.2-7.8-116.1-3.7c-9.6,1.1-11.1-7.4-2.6-13.4c56.7-40.1,150.2-28.6,161-15.2
		c10.8,13.4-3,107.2-56.4,151.7c-8.2,7-15.9,3.3-12.2-5.9C890.2,842.8,917.3,775.6,904.3,759.7z"/>
</g>
</svg>
