<?xml version="1.0" encoding="utf-8"?>
<!-- Generator: Adobe Illustrator 26.3.1, SVG Export Plug-In . SVG Version: 6.00 Build 0)  -->
<svg version="1.1" id="Layer_1" xmlns="http://www.w3.org/2000/svg" xmlns:xlink="http://www.w3.org/1999/xlink" x="0px" y="0px"
	 viewBox="0 0 1000 1000" style="enable-background:new 0 0 1000 1000;" xml:space="preserve">
<style type="text/css">
	.st0{fill:#FFFFFF;}
	.st1{fill:#20D5B3;}
</style>
<path d="M861.4,941.6H138.7c-53.4,0-96.7-43.3-96.7-96.7V130.7C42,77.3,85.3,34,138.7,34h722.6c53.4,0,96.7,43.3,96.7,96.7v714.1
	C958.1,898.3,914.8,941.6,861.4,941.6z"/>
<g>
	<path class="st0" d="M141.4,397.1L86.2,558.8h32.5l15.6-47.2H179l16,47.2h33.1l-55.2-161.7H141.4z M171.2,484.8h-29l12.1-35.6
		c0.8-2.4,1.6-4.8,2.3-7.3c0.8,2.4,1.5,5,2.4,7.5L171.2,484.8z"/>
	<path class="st0" d="M282.7,485.2c-14.9-6-16.6-8.6-16.6-13c0-5.4,4.6-8.9,11.9-8.9c8.8,0,15.6,3.5,18.9,5.6l6.3,4l8.4-25.7
		l-3.7-2.4c-7.3-4.8-18.3-7.6-29.5-7.6c-24.9,0-43,15.7-43,37.5c0,19.9,17.7,30.6,32.5,36c14.8,5.6,16,9.3,16,14.1
		c0,8.9-9.3,10.2-14.8,10.2c-8.6,0-17.8-3.7-23.1-6.7l-6.3-3.7l-8.3,26.2l4,2.4c9.1,5.3,21.2,8.4,33.2,8.4
		c27.5,0,45.9-15.4,45.9-38.3C314.7,499.8,296.3,490.3,282.7,485.2z"/>
	<path class="st0" d="M363.4,411.6l-30.9,9.3v18.5h-16.7V466h16.7v52.9c0,14.7,3,25.3,9.1,32.2c6,6.6,15,10.2,25.4,10.2
		c9.4,0,16.1-1.9,19.3-3l4.2-1.5l-1.6-26.7l-7.1,2.1c-2.1,0.6-4.6,1.1-9.6,1.1c-3.7,0-8.8,0-8.8-15V466h28v-26.7h-28L363.4,411.6
		L363.4,411.6z"/>
	<path class="st0" d="M466.6,438.3l-5.7-0.7c-1.7-0.2-3.4-0.5-5.6-0.5c-9.8,0-18.8,4-25.6,11l-0.3-8.8h-29l0.4,6.3
		c0.6,9.2,0.9,19.7,0.9,33.2v80h31.3v-63.2c0-3,0.2-6,0.5-8.1c2.3-12.4,10.1-20.1,20.5-20.1c2.4,0,4,0,5.4,0.3l7.1,1.5V438.3z"/>
	<path class="st0" d="M523.7,437.1c-34.9,0-59.3,25.8-59.3,62.9c0,36.1,23.6,61.3,57.4,61.3c28.6,0,59.5-19.7,59.5-63.1
		C581.5,462.3,557.7,437.1,523.7,437.1z M549.7,498.9c0,20.9-11.3,36-26.8,36c-15.4,0-26.7-15-26.7-35.5c0-13.3,5.7-35.7,27.1-35.7
		C544.2,463.6,549.7,486.6,549.7,498.9z"/>
	<path class="st0" d="M684.1,409.9c-10.3-9.2-25.7-14-46-14c-13.5,0-26.4,1-38.1,3l-4.9,0.8v159h31.1v-59.1c3.2,0.3,6.5,0.4,9.7,0.4
		c21,0,38.8-6.5,50-18.3c8.8-9,13.2-21.2,13.2-36.1C699.2,431.3,693.8,418.6,684.1,409.9z M668.1,446.8c0,22.6-19.9,26-31.8,26
		c-4,0-7.3-0.2-10.2-0.5v-48.5c3-0.4,7.2-0.6,12.4-0.6C652,423.1,668.1,427.2,668.1,446.8z"/>
	<path class="st0" d="M794.4,527.1v-40.3c0-32.1-16.7-49.7-46.8-49.7c-14,0-28.5,3.8-38.7,10.2l-3.9,2.4l8.4,24.8l6.4-4.4
		c6.5-4.4,15.8-7,25.1-7c6.3-0.1,10.9,1.4,13.9,4.4c2.5,2.4,4,6.2,4.5,10.9c-24.4,0.7-42.3,6.6-53.2,17.3
		c-7.6,7.5-11.4,17.1-11.4,28.5c0,18.3,13.3,36.8,38.8,36.8c10.8,0,21.2-3.4,29.1-9.6l0.8,7.1h29.6l-1-6.7
		C794.9,545.5,794.4,537.1,794.4,527.1z M742.2,535.1c-4.7,0-12.4-1.7-12.4-12.8c0-4.3,1.3-7.6,4-10.3c3.7-3.6,11.8-7.7,29.9-8.1
		v12.8c0,0.9-0.1,2.7-0.6,4.4C761,527.5,754.2,535.1,742.2,535.1z"/>
	<path class="st0" d="M880.5,439.4l-22.7,67.1c-0.6,1.7-1.1,3.4-1.7,5.1c-0.6-1.7-1.1-3.3-1.8-4.8l-24.7-67.4h-34.1l42.8,107.2
		l0.2,0.3c0.7,1.4,0.9,2.2,1,2.5c-0.2,0.6-0.7,1.7-1,2.4c-3.7,7.9-9.2,15.3-14.7,19.7l-0.2,0.2c-6.3,5.3-12.7,7.7-15.1,8.5l-5.5,1.8
		l8,26.7l5.1-0.9c3.1-0.5,14.2-3.2,26.9-13.8c15.2-13.4,25.3-34.9,38.5-69.7l32.4-84.7L880.5,439.4L880.5,439.4z"/>
	<path class="st1" d="M200.5,441.6c20.2-20.5,54.3-32.8,91.4-32.8c14.4,0,28.6,1.8,41.9,5.5l1.1,0.3l23.8-7.2l-10.7-4
		c-20.3-7.8-43.7-11.9-67.7-11.9c-34.8,0-67.4,8.4-91.7,23.7l-2.6,1.7l10,29.3L200.5,441.6z"/>
</g>
</svg>
