<?xml version="1.0" encoding="utf-8"?>
<!-- Generator: Adobe Illustrator 25.4.1, SVG Export Plug-In . SVG Version: 6.00 Build 0)  -->
<svg version="1.1" id="Layer_1" xmlns="http://www.w3.org/2000/svg" xmlns:xlink="http://www.w3.org/1999/xlink" x="0px" y="0px"
	 viewBox="0 0 1000 1000" style="enable-background:new 0 0 1000 1000;" xml:space="preserve">
<style type="text/css">
	.st0{fill:#002859;}
	.st1{fill:#FFFFFF;}
</style>
<g id="Capa_1-2">
	<circle class="st0" cx="500" cy="500" r="453.5"/>
	<path class="st1" d="M522.2,736.9l-18.3,97.6l-57.5-10.2l18.6-99l-45.2-8.4l-18.6,99.3l-64.3-11.8l19.5-104l-117.6-22.1
		c4.1-13.3,6.4-22.7,9.8-31.8c14-38,14.2-38.5,55-32.7c17.9,2.5,27.6-2.2,31.1-21.2c14.9-82.3,30.6-164.7,46.1-247
		c4.6-24.6-4.6-39.2-29.8-43c-11.8-1.9-23.5-4.4-36.7-6.8L326,233L439,254.2l19.2-104.8l64.1,11.8l-18.8,100.6l45.3,8.6l18.8-100.6
		l58,10.8l-19.2,102.3c18.1,7.5,34.2,13.5,50,20.8c39.3,18.2,72.2,43.4,74.5,90.8c2.2,47.4-13.9,87.2-60.9,106.3
		c1.4,3.3,1.6,5.6,2.9,6.5c52.6,35.3,66.7,64.9,55.8,119.6c-11.8,58-47,95.6-103,104.2C592.8,736.1,559.5,735,522.2,736.9z
		 M459.5,508.6l-24.9,135.6c39.9,2.8,77.9,8.4,115.6,7.5c34.2-0.7,53.2-18.5,58.8-44.3c6-28.4-10.6-56.7-38.3-65.2
		C534.6,528.7,497.2,519.9,459.5,508.6z M469.9,455.1c32.3,2.2,62.2,6.2,92,5.8c29.8-0.5,49.5-17.3,54.1-41.6
		c5.6-25.5-8.8-51.2-33.4-59.9c-29.4-10.5-59.4-19.5-89.7-27.1L469.9,455.1z"/>
</g>
</svg>
