<?xml version="1.0" encoding="utf-8"?>
<!-- Generator: Adobe Illustrator 23.0.1, SVG Export Plug-In . SVG Version: 6.00 Build 0)  -->
<svg version="1.1" id="Layer_1" xmlns="http://www.w3.org/2000/svg" xmlns:xlink="http://www.w3.org/1999/xlink" x="0px" y="0px"
	 viewBox="0 0 1000 1000" style="enable-background:new 0 0 1000 1000;" xml:space="preserve">
<style type="text/css">
	.st0{fill:url(#SVGID_1_);}
	.st1{opacity:0.4;fill:#164280;}
	.st2{fill:#FFFFFF;}
	.st3{fill:#F3943B;}
</style>
<radialGradient id="SVGID_1_" cx="500" cy="500" r="480" gradientUnits="userSpaceOnUse">
	<stop  offset="0" style="stop-color:#3265AC"/>
	<stop  offset="1" style="stop-color:#1A4A8B"/>
</radialGradient>
<path class="st0" d="M869.1,980H130.9C69.7,980,20,930.3,20,869.1V130.9C20,69.7,69.7,20,130.9,20h738.1
	C930.3,20,980,69.7,980,130.9v738.1C980,930.3,930.3,980,869.1,980z"/>
<path class="st1" d="M143.4,980h725.7c61.3,0,110.9-49.7,110.9-110.9V169.6C876,197.4,392.2,357.6,143.4,980z"/>
<path class="st2" d="M229.3,446.4L207.6,467c-14.7-15.6-31.3-23.4-49.7-23.4c-15.5,0-28.6,5.3-39.3,15.9c-10.6,10.6-16,23.7-16,39.3
	c0,10.9,2.4,20.5,7.1,28.9c4.7,8.4,11.4,15,20,19.8s18.2,7.2,28.7,7.2c9,0,17.2-1.7,24.6-5c7.4-3.4,15.6-9.5,24.5-18.3l21,21.9
	c-12,11.7-23.4,19.9-34.1,24.4c-10.7,4.5-22.9,6.8-36.6,6.8c-25.3,0-46-8-62.1-24.1c-16.1-16-24.2-36.6-24.2-61.7
	c0-16.2,3.7-30.6,11-43.3c7.3-12.6,17.8-22.8,31.5-30.4c13.7-7.7,28.4-11.5,44.2-11.5c13.4,0,26.4,2.8,38.8,8.5
	C209.6,427.9,220.3,435.9,229.3,446.4z"/>
<path class="st2" d="M306,417.8h31.4L400,580.5h-32.2L355.1,547h-66.4l-13.2,33.5h-32.2L306,417.8z M321.9,460.9l-21.8,55.9h43.5
	L321.9,460.9z"/>
<path class="st2" d="M509.4,439.9l-22.9,20.2c-8.1-11.2-16.3-16.8-24.6-16.8c-4.1,0-7.4,1.1-10,3.3c-2.6,2.2-3.9,4.6-3.9,7.4
	c0,2.7,0.9,5.3,2.8,7.7c2.5,3.2,10.1,10.2,22.7,20.9c11.8,9.9,19,16.1,21.5,18.7c6.3,6.3,10.7,12.4,13.4,18.2
	c2.6,5.8,3.9,12.1,3.9,19c0,13.3-4.6,24.4-13.8,33.1c-9.2,8.7-21.3,13.1-36.1,13.1c-11.6,0-21.7-2.8-30.3-8.5
	c-8.6-5.7-16-14.6-22.1-26.8l26-15.7c7.8,14.4,16.8,21.6,27,21.6c5.3,0,9.8-1.5,13.4-4.6c3.6-3.1,5.4-6.7,5.4-10.7
	c0-3.7-1.4-7.4-4.1-11.1c-2.7-3.7-8.8-9.3-18.1-16.9c-17.7-14.5-29.2-25.6-34.4-33.5c-5.2-7.9-7.8-15.7-7.8-23.5
	c0-11.3,4.3-21,12.9-29c8.6-8.1,19.2-12.1,31.8-12.1c8.1,0,15.9,1.9,23.2,5.6C492.9,423.1,500.8,430,509.4,439.9z"/>
<path class="st2" d="M541.7,417.8h31.4v61.4h54.3v-61.4h31.3v162.7h-31.3v-71.4h-54.3v71.4h-31.4V417.8z"/>
<path class="st3" d="M689.3,413.7h30.2v166.8h-30.2V413.7z"/>
<path class="st3" d="M758.7,410.6c5.3,0,9.8,1.9,13.6,5.8c3.8,3.8,5.7,8.5,5.7,13.9c0,5.4-1.9,10-5.6,13.8
	c-3.7,3.8-8.2,5.7-13.5,5.7c-5.4,0-10-1.9-13.7-5.8c-3.8-3.9-5.7-8.6-5.7-14.1c0-5.3,1.9-9.8,5.6-13.6
	C748.9,412.5,753.4,410.6,758.7,410.6z M743.6,460.2h30.2v120.4h-30.2V460.2z"/>
<path class="st3" d="M831.2,413.7v59.7c5.5-5.5,11.4-9.6,17.7-12.3c6.3-2.7,13.1-4.1,20.4-4.1c15.7,0,29.1,5.9,40,17.8
	c11,11.9,16.5,27.1,16.5,45.7c0,17.9-5.7,32.9-17,45c-11.4,12.1-24.8,18.1-40.4,18.1c-6.9,0-13.4-1.2-19.4-3.7
	c-6-2.5-11.9-6.5-17.8-12.1v12.7h-30V413.7H831.2z M863,484.9c-9.5,0-17.4,3.2-23.7,9.7c-6.3,6.5-9.4,15-9.4,25.4
	c0,10.7,3.1,19.3,9.4,25.9c6.3,6.6,14.2,9.9,23.7,9.9c9.2,0,17-3.4,23.3-10.1c6.3-6.7,9.5-15.3,9.5-25.7c0-10.3-3.1-18.8-9.3-25.4
	C880.2,488.2,872.4,484.9,863,484.9z"/>
</svg>
