<?xml version="1.0" encoding="utf-8"?>
<!-- Generator: Adobe Illustrator 27.8.0, SVG Export Plug-In . SVG Version: 6.00 Build 0)  -->
<svg version="1.1" id="svg4719" xmlns="http://www.w3.org/2000/svg" xmlns:xlink="http://www.w3.org/1999/xlink" x="0px" y="0px"
	 viewBox="0 0 893 893" style="enable-background:new 0 0 893 893;" xml:space="preserve">
<style type="text/css">
	.st0{fill:#223AAF;}
	.st1{fill:#FFFFFF;}
</style>
<g>
	<g>
		<path class="st0" d="M854,133.2v626.6c0,52-42.2,94.2-94.2,94.2H133.2c-52,0-94.2-42.2-94.2-94.2V133.2c0-52,42.2-94.2,94.2-94.2
			h626.6C811.8,39,854,81.2,854,133.2z"/>
	</g>
</g>
<g>
	<path class="st1" d="M627.4,606.5l-21-53c-3.5-7.6-9.3-11.1-16.9-11.1c-3.5,0-5.8,1.7-9.3,3.5c-21,16.9-51.3,28.6-86.9,28.6
		c-86.9,0-132.3-64.1-132.3-128.8V438c0-64.1,45.5-128.8,132.3-128.8c30.3,0,56.5,7.6,75.8,21c3.5,1.7,5.8,3.5,9.3,3.5
		c7.6,0,13.4-3.5,16.9-11.1l16.9-51.3c1.7-7.6-1.7-16.9-9.3-21c-30.3-15.2-66.5-22.7-107.8-22.7v-89.2c0-9.3-7.6-16.9-16.9-16.9
		h-47.2c-9.3,0-16.9,5.8-16.9,16.9v100.3c-90.9,26.2-149.2,102-149.2,202.3v7.6c0,100.3,56.5,176.1,149.2,202.3v103.8
		c0,9.3,7.6,16.9,16.9,16.9h47.2c9.3,0,16.9-5.8,16.9-16.9v-92.7c47.2,0,89.2-11.1,124.8-32.1C627.4,623.4,629.7,613.5,627.4,606.5z
		"/>
</g>
</svg>
