<?xml version="1.0" encoding="utf-8"?>
<!-- Generator: Adobe Illustrator 24.3.0, SVG Export Plug-In . SVG Version: 6.00 Build 0)  -->
<svg version="1.1" id="Layer_1" xmlns="http://www.w3.org/2000/svg" xmlns:xlink="http://www.w3.org/1999/xlink" x="0px" y="0px"
	 viewBox="0 0 1000 1000" style="enable-background:new 0 0 1000 1000;" xml:space="preserve">
<style type="text/css">
	.st0{fill:#CB0000;}
	.st1{fill:#FFFFFF;}
</style>
<path class="st0" d="M873.7,947H126.3C85.8,947,53,914.2,53,873.7V126.3C53,85.8,85.8,53,126.3,53h747.4c40.5,0,73.3,32.8,73.3,73.3
	v747.4C947,914.2,914.2,947,873.7,947z"/>
<path class="st1" d="M757.8,531.3c0,0-32.6-17-76.4,16.6C663.6,408.3,579.2,331.7,547,307.2l5.2-0.5
	c156.8,28,143.7-125.1,143.7-125.1s5.6-1-71,0c-76.6,1-99.9,72.9-99.9,72.9c-16.8-33.6-64.4-60.7-108.3-61.6
	c-43.9-1-84.1-11.2-84.1-11.2c12.1,171.8,117.1,143.5,147.1,131.9c0.2,29.3-6.7,114.3-83.5,193.8c-7-21.7-37.6-87.6-146.6-61.6
	c-129.8,30.8-84.1,213.8-69.1,230.7c14.9,16.8,70,106.5,217.5,63.5c0,0,103.6-47.6,73.8-151.3c0,0-5.8-30.8-53-45.4
	c0.5-0.2,0.7-0.4,0.7-0.4s85-87.7,87.8-232.8h7.1c116.8,90,128,211.4,129.1,228c-22.2-8.4-97.4-28.2-140.9,75.2
	C451.1,735.6,611.4,815,657.8,817.6c51.2,2.8,153.7-9.8,184.6-130C842.4,687.7,864,575.1,757.8,531.3z"/>
</svg>
