<?xml version="1.0" encoding="utf-8"?>
<!-- Generator: Adobe Illustrator 23.1.1, SVG Export Plug-In . SVG Version: 6.00 Build 0)  -->
<svg version="1.1" id="Layer_1" xmlns="http://www.w3.org/2000/svg" xmlns:xlink="http://www.w3.org/1999/xlink" x="0px" y="0px"
	 viewBox="0 0 1000 1000" style="enable-background:new 0 0 1000 1000;" xml:space="preserve">
<style type="text/css">
	.st0{fill:#F08723;}
</style>
<g>
	<path class="st0" d="M157,557.9c0.4-222.1,180.8-401.7,402.9-401.3c209.6,0.4,383.7,161.8,400.1,370.8V502
		c0-252.6-204.8-457.4-457.4-457.4S45.2,249.4,45.2,502s204.8,457.4,457.4,457.4H533C322,944.4,158.1,769.4,157,557.9z"/>
	<path class="st0" d="M776.9,578.2c-81,0.4-147-65-147.4-146c-0.3-61.9,38.4-117.4,96.5-138.5c-45.3-24.2-96-36.5-147.4-35.6
		c-176.8,0-320.2,143.3-320.2,320.2s143.3,320.2,320.2,320.2S898.9,755,898.9,578.2c0,0,0,0,0,0c0.8-20.5-0.9-40.9-5.1-61
		C868.8,557.3,824.1,580.6,776.9,578.2z"/>
</g>
</svg>
