<?xml version="1.0" encoding="utf-8"?>
<!-- Generator: Adobe Illustrator 22.1.0, SVG Export Plug-In . SVG Version: 6.00 Build 0)  -->
<svg version="1.1" id="Layer_1" xmlns="http://www.w3.org/2000/svg" xmlns:xlink="http://www.w3.org/1999/xlink" x="0px" y="0px"
	 viewBox="0 0 1000 1000" style="enable-background:new 0 0 1000 1000;" xml:space="preserve">
<style type="text/css">
	.st0{fill:#644CC9;}
</style>
<g>
	<path class="st0" d="M490.7,258.5c0,0-50.4-59.8-126-50.4c-75.6,9.4-151.2,59.8-151.2,179.5s97.6,173.2,154.3,170.1
		c56.7-3.1,91.3-6.3,185.8-85l44.1,126c0,0-100.8,94.5-233.1,91.3c-132.3-3.1-305.5-97.6-299.2-308.6S223,85.2,367.9,82.1
		S585.2,164,585.2,164L490.7,258.5z"/>
	<path class="st0" d="M364.7,352.9h151.2l28.3,88.2c0,0-63,56.7-116.5,72.4L364.7,352.9z"/>
	<path class="st0" d="M493.8,699.4l85,223.6h138.6l214.2-570h-148L651.3,759.2l-40.9-122.8C610.4,636.4,541.1,689.9,493.8,699.4z"/>
</g>
</svg>
