<?xml version="1.0" encoding="utf-8"?>
<!-- Generator: Adobe Illustrator 25.2.3, SVG Export Plug-In . SVG Version: 6.00 Build 0)  -->
<svg version="1.1" id="Layer_1" xmlns="http://www.w3.org/2000/svg" xmlns:xlink="http://www.w3.org/1999/xlink" x="0px" y="0px"
	 viewBox="0 0 1000 1000" style="enable-background:new 0 0 1000 1000;" xml:space="preserve">
<style type="text/css">
	.st0{fill:#007AB3;}
	.st1{fill:none;}
	.st2{fill:#FFFFFF;}
	.st3{fill:#FB002C;}
</style>
<rect class="st0" width="1000" height="1000"/>
<g>
	<g>
		<path class="st1" d="M301.6,561.5c-14.1,0-28.2,5.4-39,16.1c-10.7,10.8-16.1,24.9-16.1,39c0,14.1,5.3,28.2,16.1,38.9
			c10.8,10.7,24.9,16.1,39,16.1c14.1,0,28.2-5.4,39-16.1c10.7-10.7,16.1-24.9,16.1-38.9c0-14.1-5.3-28.2-16.1-39
			C329.8,566.9,315.7,561.5,301.6,561.5z"/>
	</g>
	<g>
		<path class="st1" d="M463.2,673.8c14.1,0,28.2-5.4,38.9-16.1c10.8-10.7,16.2-24.8,16.2-38.9c0-14.1-5.4-28.2-16.2-38.9
			c-10.7-10.8-24.8-16.1-38.9-16.1c-14.1,0-28.2,5.4-38.9,16.1c-10.8,10.7-16.1,24.9-16.1,38.9c0,14,5.4,28.2,16.1,38.9
			C435.1,668.4,449.2,673.8,463.2,673.8z"/>
	</g>
	<g>
		<path class="st1" d="M634,175.9c-4.6-4.6-10.6-6.9-16.6-6.9c-6,0-12,2.3-16.6,6.9L441.3,335.3l-46.5,46.5l223.3,223.4l19-19
			l187-187c9.2-9.2,9.2-24,0-33.2L634,175.9z"/>
	</g>
	<g>
		<path class="st2" d="M837.6,352.6L647.4,162.4c-8-8-18.7-12.4-30-12.4c-11.4,0-22,4.4-30.1,12.4L427.9,321.9L162.4,587.3
			c-16.6,16.6-16.6,43.5,0,60.1l190.2,190.2c8,8,18.7,12.4,30.1,12.4c11.4,0,22-4.4,30.1-12.4l237.9-238l187-187
			C854.1,396.1,854.1,369.1,837.6,352.6z"/>
	</g>
	<g>
		<path class="st3" d="M824.1,366.1L634,175.9c-9.2-9.2-24-9.2-33.2,0L395.2,381.5l223.3,223.4l205.6-205.6
			C833.3,390.1,833.3,375.3,824.1,366.1z M656.9,421.1c-10.8,10.8-24.9,16.1-39,16.1c-14.1,0-28.2-5.4-39-16.1
			c-10.7-10.7-16.1-24.9-16.2-38.9c0-14.1,5.4-28.2,16.2-39c10.8-10.7,24.9-16.2,39-16.2c14,0,28.2,5.4,39,16.2
			c10.7,10.7,16.1,24.9,16.1,38.9C673,396.2,667.6,410.3,656.9,421.1z"/>
	</g>
	<g>
		<path class="st0" d="M175.9,600.8c-9.2,9.2-9.2,24,0,33.2L366,824.2c4.6,4.6,10.6,6.9,16.6,6.9c6,0,12-2.3,16.6-6.9l205.5-205.5
			L381.4,395.3L175.9,600.8z M340.6,655.5c-10.8,10.7-24.9,16.1-39,16.1c-14.1,0-28.2-5.4-39-16.1c-10.8-10.7-16.1-24.9-16.1-38.9
			c0-14.1,5.4-28.2,16.1-39c10.8-10.7,24.9-16.1,39-16.1c14.1,0,28.2,5.4,39,16.1c10.7,10.8,16.1,24.9,16.1,39
			C356.6,630.7,351.3,644.8,340.6,655.5z M424.3,579.9c10.7-10.8,24.9-16.1,38.9-16.1c14.1,0,28.2,5.4,38.9,16.1
			c10.8,10.7,16.2,24.8,16.2,38.9c0,14.1-5.4,28.2-16.2,38.9c-10.7,10.7-24.8,16.1-38.9,16.1c-14.1,0-28.2-5.4-38.9-16.1
			c-10.8-10.8-16.1-24.9-16.1-38.9C408.2,604.7,413.5,590.6,424.3,579.9z"/>
	</g>
</g>
</svg>
