<?xml version="1.0" encoding="utf-8"?>
<!-- Generator: Adobe Illustrator 24.2.3, SVG Export Plug-In . SVG Version: 6.00 Build 0)  -->
<svg version="1.1" id="svg4719" xmlns="http://www.w3.org/2000/svg" xmlns:xlink="http://www.w3.org/1999/xlink" x="0px" y="0px"
	 viewBox="0 0 893 893" style="enable-background:new 0 0 893 893;" xml:space="preserve">
<style type="text/css">
	.st0{fill:#FF3008;}
</style>
<path class="st0" d="M858.5,313.9c-39-73.5-117-119.2-200.6-118.1H21.6c-8.9,0-16.7,5.6-20.1,13.4C-1.8,217,0.5,227,6,232.6
	l138.2,137.1c12.3,12.3,29,18.9,46.8,18.9h449.1c32.3,0,57.9,24.5,57.9,56.8c0,31.2-25.6,56.8-56.8,57.9H331.4
	c-8.9,0-16.7,5.6-20.1,13.4c-3.3,7.8-1.1,17.8,4.5,23.4L454,678.3c12.3,12.3,29,18.9,46.8,18.9h140.4
	C822.8,696.1,959.9,504.5,858.5,313.9"/>
</svg>
