<?xml version="1.0" encoding="utf-8"?>
<!-- Generator: Adobe Illustrator 23.1.1, SVG Export Plug-In . SVG Version: 6.00 Build 0)  -->
<svg version="1.1" id="Layer_1" xmlns="http://www.w3.org/2000/svg" xmlns:xlink="http://www.w3.org/1999/xlink" x="0px" y="0px"
	 viewBox="0 0 1000 1000" style="enable-background:new 0 0 1000 1000;" xml:space="preserve">
<style type="text/css">
	.st0{fill:#FD5A20;}
	.st1{fill:#FDBF45;}
	.st2{fill:#FA9837;}
	.st3{fill:#A30011;}
	.st4{fill:#F33D96;}
	.st5{fill:#E10D66;}
	.st6{fill:#1F9175;}
	.st7{fill:#7EF4C3;}
	.st8{fill:#4CD69E;}
</style>
<path class="st0" d="M43,498.4c-0.5,52.2,46.4,66.2,69.6,20.8c38.2-76.9,134.4-107.8,244.1-89.9C453,444.7,83.6,218.5,43,498.4z"/>
<path class="st1" d="M602.3,229.6c-15.5-30.9-39.2-57-68.6-74.9c1-2.4,2.4-4.4,3.9-6.3c6.3-6.3,8.2-15.5,5.8-23.7
	c-1.9-6.3-0.5-12.6,3.4-17.4c4.4-5.3,5.8-12.1,4.4-18.9c-1-3.9,0-8.2,1.5-12.1c3.9-8.7,9.2-23.7-1.5-29.5
	c-12.1-6.8-28.5,8.7-34.8,22.2c-1.9,4.4-5.3,7.7-9.7,9.7c-8.7,3.9-15.5,11.1-18.4,19.8c-1.5,5.8-5.8,10.2-11.1,12.6
	c-7.7,2.9-13.5,8.7-17.4,16c-61.9-9.7-125.7-1.5-183.2,23.2c-66.2,26.6-123.8,71.1-166.8,128.6C63.3,342.7,40.1,420.1,43,498.4
	c4.4-22.7,18.9-42.1,39.2-52.2c25.6-13.5,53.2-21.8,81.7-24.7c34.8-3.9,69.6-4.8,103.9-2.4c35.3,1.9,70.6,6.3,105.9,13.1
	c39.6,8.2,81.2,7.3,120.4-3.4c30.9-8.7,59-25.6,81.2-49.3c19.3-20.3,31.9-45.9,37.2-73.5C617.8,280.4,613.9,253.3,602.3,229.6z"/>
<path class="st2" d="M374.2,432.6c132,25.1,216.1-41.1,235.9-115.1c-93.3,194.3-259.1,56.1-454.4,65.3
	c-66.2,2.9-104.4-20.8-35.8-116c-53.2,65.3-80.2,147.9-76.9,232C57.5,407,241.2,407.5,374.2,432.6z"/>
<path class="st3" d="M713.5,126.6c-45-26.1-80.7,7.3-52.7,49.8c46.9,71.5,26.1,170.2-44.5,256.2C555,508,935.9,302.1,713.5,126.6z"
	/>
<path class="st4" d="M906.4,478.6c47.4-37.2,41.6-58.5-6.8-63.3c-3.4-41.6-13.5-82.7-30-120.9c-31.4-72-86.5-131-156.6-167.7
	c17.4,15,27.1,37.2,25.6,59.9c-1,29-7.7,57-19.8,83.1c-14,31.9-30.5,62.4-50.3,91.4c-19.8,29.5-41.1,58-64.3,85.1
	c-27.1,30.5-46.9,66.7-57,105.9c-7.7,31.4-7.3,63.8,1.9,94.7c8.2,27.1,23.7,50.8,45,69.1c19.8,17.4,45,27.6,71.5,29.5
	c59.5,3.4,117-21.8,155.2-67.2c10.2-11.6,19.3-23.7,27.1-36.7c2.4-3.4,5.3-6.3,8.7-8.7c83.1-49.8,93.3-76.9,40.1-82.2
	C971.6,503.7,971.2,479.5,906.4,478.6L906.4,478.6z"/>
<path class="st5" d="M605.2,446.2c-88,102-73,207.9-18.4,262C465.5,530.3,668.1,455.8,758,282.3c30.5-59,70.1-79.8,118.4,27.1
	c-30-78.8-88-143.6-162.4-182.7C785.5,185.1,693.7,344.2,605.2,446.2L605.2,446.2z"/>
<path class="st6" d="M700,892.4c45.4-26.1,34.3-73.5-16.9-70.6c-85.6,5.3-160.5-61.9-200.1-165.8C448.1,565.1,437,997.7,700,892.4
	L700,892.4z"/>
<path class="st7" d="M634.7,884.6c-24.2-15.5-45.4-35.3-62.4-58.5c-20.8-28-39.2-57.5-54.6-88.9c-16-31.9-30-64.3-41.6-98.1
	l-2.4-6.8c28.5-21.3,38.2-37.7,29.5-49.3c-7.7-9.7-29.5-16-65.3-17.9c-7.3-10.2-16-19.3-24.7-28c-23.2-22.2-51.7-38.2-83.1-45.4
	c-27.6-6.3-56.1-4.8-82.2,4.4c-25.1,8.7-46.4,25.1-61.4,47.4c-29.5,45-38.2,100.5-23.7,152.3c-21.3,29-30,49.8-27.1,61.9
	c3.4,14.5,22.7,16.9,57,8.2c23.2,38.2,53.7,71.5,88.9,99.1c56.6,44,123.8,71.5,194.8,79.8c78.3,8.7,156.6-10.2,222.8-52.2
	C678.2,900.1,654.1,897.2,634.7,884.6z"/>
<path class="st8" d="M476.6,639c-44.5-126.7-144.1-166.3-218-146.5c214.6-16.9,178.9,195.8,284.7,360.1
	c35.8,55.6,34.3,100.5-82.2,89.4c83.1,13.1,168.2-4.8,239.3-50.3C613.4,925.7,521.6,766.7,476.6,639z"/>
</svg>
