<?xml version="1.0" encoding="utf-8"?>
<!-- Generator: Adobe Illustrator 23.0.1, SVG Export Plug-In . SVG Version: 6.00 Build 0)  -->
<svg version="1.1" id="Layer_1" xmlns="http://www.w3.org/2000/svg" xmlns:xlink="http://www.w3.org/1999/xlink" x="0px" y="0px"
	 viewBox="0 0 1000 1000" style="enable-background:new 0 0 1000 1000;" xml:space="preserve">
<style type="text/css">
	.st0{fill:#EFEFEF;}
	.st1{fill:#414141;}
	.st2{fill:#BD202E;}
</style>
<g id="g10">
	<rect x="1" y="1" class="st0" width="1000" height="1000.1"/>
</g>
<g>
	<g>
		<path class="st1" d="M112.6,351.3c-17.7,0-31.1,4.9-39.8,14.7c-8.6,9.6-12.9,24.1-12.9,43v6.7l-25,7.9l-1.9,0.6v2v11.5v2.7h2.7
			h24.2v129v2.7h2.7h25.2h2.7v-2.7v-129h36.1h2.7v-2.7v-19.2v-2.7h-2.7H90.5v-7c0-11.3,1.9-19.5,5.6-24.5c3.6-4.8,9.1-7.2,16.7-7.2
			c6.2,0,13.6,1.3,22,4l2.5,0.8l0.9-2.5l6.7-19.4l0.9-2.6l-2.6-0.9C133,353,122.7,351.3,112.6,351.3L112.6,351.3z"/>
	</g>
	<g>
		<path class="st1" d="M188.8,355.2h-2.7h-25.2h-2.7v2.7v211.5v2.7h2.7h25.2h2.7v-2.7V357.9V355.2L188.8,355.2z"/>
	</g>
	<g>
		<path class="st1" d="M272.6,413.5c-21.1,0-38.1,7.5-50.6,22.4c-12.3,14.7-18.6,34.7-18.6,59.4c0,24.5,6.7,44.1,20,58.2
			c13.3,14.2,31.8,21.3,55.1,21.3c10.1,0,19-0.8,26.4-2.2c7.4-1.5,15.5-4.1,24-7.7l1.6-0.7v-1.8v-21.7v-4.1l-3.7,1.6
			c-9.5,4-17.8,6.8-24.8,8.1c-7,1.4-14.5,2.1-22.4,2.1c-14.2,0-25.3-4.2-33-12.4c-7.3-7.9-11.4-19.4-12.2-34.4h100.3h2.7V499V484
			c0-21.4-5.9-38.7-17.6-51.4C308.1,419.9,292.2,413.5,272.6,413.5L272.6,413.5z M235.1,476.7c1.5-11.5,5.3-20.6,11.2-27.2
			c6.4-7.1,14.9-10.5,26-10.5c10.8,0,18.9,3.3,24.7,10c5.4,6.3,8.5,15.6,9,27.6H235.1L235.1,476.7z"/>
	</g>
	<g>
		<path class="st1" d="M486.8,414.8h-5.3h-28.4h-1.5l-0.8,1.2l-37,54l-37.4-54l-0.8-1.2h-1.4h-28.7h-5.3l3.1,4.3l52,72.7l-54.5,76
			l-3.1,4.3h5.3h28.4h1.4l0.8-1.2l40.2-57.3l39.6,57.3l0.8,1.2h1.4h28.7h5.3l-3.1-4.3l-54.9-76l52-72.7L486.8,414.8L486.8,414.8z"/>
	</g>
	<g>
		<path class="st1" d="M796.8,393.9c-4.5,0-8.4-1.4-11.5-4.2c-3.1-2.8-4.7-7.2-4.7-13c0-5.9,1.6-10.3,4.7-13.1
			c3.1-2.7,6.9-4.1,11.5-4.1c4.2,0,8,1.4,11.2,4.1c3.2,2.7,4.9,7.1,4.9,13.1c0,5.8-1.6,10.2-4.9,13
			C804.8,392.4,801.1,393.9,796.8,393.9z"/>
		<path class="st1" d="M796.8,358.1c-4.9,0-9,1.5-12.4,4.4c-3.5,3-5.2,7.8-5.2,14.1c0,6.2,1.7,10.9,5.2,14c3.3,3,7.5,4.6,12.4,4.6
			c4.6,0,8.7-1.5,12.1-4.5c3.5-3.1,5.3-7.8,5.3-14.1c0-6.3-1.8-11.1-5.4-14.1C805.4,359.6,801.4,358.1,796.8,358.1L796.8,358.1z
			 M811.9,414.9h-2.7h-25.2h-2.7v2.7v151.8v2.7h2.7h25.2h2.7v-2.7V417.6V414.9L811.9,414.9z"/>
	</g>
	<g>
		<path class="st1" d="M902.6,414.3c-10.5,0-20.3,2.1-29.1,6.3c-7.4,3.5-13.5,8.3-18.1,14.3l-2.9-15.7l-0.4-2.2h-2.2h-20h-2.7v2.7
			v149.7v2.7h2.7h24.8h2.7v-2.7v-77.6c0-18.4,3.3-31.8,9.9-39.8c6.5-7.8,17.1-11.8,31.7-11.8c10.8,0,18.8,2.7,23.7,8.1
			c5,5.4,7.5,14,7.5,25.4v95.7v2.7h2.7h24.5h2.7v-2.7v-97.5c0-19.5-4.8-34.1-14.3-43.5C936.3,419,921.8,414.3,902.6,414.3
			L902.6,414.3z"/>
	</g>
	<g>
		<path class="st2" d="M549.2,540.4c0,0-14.5,2.2-19.6-13.5c0,0,61.8-15.8,67.4-69.2c0,0,1.9-38.1-42.4-38.9
			c-44.3-0.8-61.5,58.5-61.5,58.5s-23.4,80.3,38.9,98c0,0,39.1,13.1,96.1-35.3v-43.9C628.1,496.1,597.8,537.4,549.2,540.4z
			 M555.7,449.6c13.7-1.6,12.1,15.3,12.1,15.3c-5.1,31.7-41.9,35.7-41.9,35.7C527.5,464.1,542,451.2,555.7,449.6z"/>
	</g>
	<g>
		<path class="st1" d="M701.7,414.2c-10.3,0-19.6,1.9-27.5,5.7c-6.7,3.2-12.8,8.2-18.2,14.8l-2.5-15.5l-0.4-2.3h-2.3h-20.1h-2.7v2.7
			v217.5v2.7h2.7h24.4h2.7v-2.7v-61.7c0-5.4-0.3-11.6-1-18.4c11,12.1,25.9,18.2,44.5,18.2c20.2,0,36.2-7.3,47.5-21.7
			c11.1-14.2,16.7-34.1,16.7-59.1c0-25.1-5.6-44.9-16.7-58.9C737.7,421.4,721.8,414.2,701.7,414.2L701.7,414.2z M696.8,547.1
			c-13.9,0-23.6-4-29.6-12.2c-6.1-8.4-9.3-22.4-9.3-41.6v-4.7c0.2-16.9,3.3-29.3,9.3-37c5.8-7.5,15.6-11.3,29.1-11.3
			c11.7,0,20.5,4.3,26.9,13.2c6.5,9,9.7,22.3,9.7,39.6c0,17.2-3.3,30.8-9.8,40.3C716.7,542.6,708.1,547.1,696.8,547.1L696.8,547.1z"
			/>
	</g>
</g>
</svg>
