<?xml version="1.0" encoding="utf-8"?>
<!-- Generator: Adobe Illustrator 24.1.2, SVG Export Plug-In . SVG Version: 6.00 Build 0)  -->
<svg version="1.1" id="Layer_1" xmlns="http://www.w3.org/2000/svg" xmlns:xlink="http://www.w3.org/1999/xlink" x="0px" y="0px"
	 viewBox="0 0 1000 1000" style="enable-background:new 0 0 1000 1000;" xml:space="preserve">
<style type="text/css">
	.st0{fill:url(#SVGID_1_);stroke:#FCD109;stroke-width:0.1126;}
	.st1{fill:#F8F3B5;stroke:#F8F3B5;stroke-width:0.1126;}
	.st2{fill:#F7B402;stroke:#F7B402;stroke-width:0.1126;}
	.st3{fill:#BDA727;stroke:#BDA727;stroke-width:0.1126;}
	.st4{fill:#F7E62D;stroke:#F7E62D;stroke-width:0.1126;}
	.st5{fill:url(#SVGID_2_);stroke:#FCD109;stroke-width:0.1126;}
	.st6{fill:url(#SVGID_3_);stroke:#FCD109;stroke-width:0.1126;}
	.st7{fill:url(#SVGID_4_);stroke:#FCD109;stroke-width:0.1126;}
	.st8{fill:#0D69B3;stroke:#0D69B3;stroke-width:0.1126;}
	.st9{fill:#107BD4;stroke:#107BD4;stroke-width:0.1126;}
	.st10{fill:#FFFFFF;stroke:#FFFFFF;stroke-width:0.1126;}
</style>
<linearGradient id="SVGID_1_" gradientUnits="userSpaceOnUse" x1="499.3792" y1="-347.3394" x2="499.3792" y2="357.008" gradientTransform="matrix(1 0 0 1 0.14 566.454)">
	<stop  offset="0" style="stop-color:#F7E830"/>
	<stop  offset="1" style="stop-color:#FDCB06"/>
</linearGradient>
<path class="st0" d="M926.4,222.7c-0.4-1.2-0.7-2.4-1.2-3.6c-283.9,0.1-567.7,0-851.4,0.1c-0.7,0.8-1.2,1.7-1.3,2.8
	c0,220.1,0,440.2-0.1,660.3c1.8,11.7,8.3,22.4,16.9,30.4c0.4,0.1,1.2,0.2,1.6,0.4c4.4,4.7,10.8,7,16.8,9.1c4.4-0.2,8.7,1.7,13.2,1.2
	h352.3c3.4-0.1,6.8,0.5,10.1-0.8c0.1-0.5,0.2-1.3,0.4-1.8c0.1-0.6,0.2-1.9,0.4-2.6c7.6-42.2,14.9-84.5,22.9-126.7l0.7-5.4
	c-32.6-0.1-65.3,0-97.9-0.1c-7.9-0.2-16.1,0-24-1c-13.5-0.6-27.2-0.1-40.7-1.4c-16.8,0-33.4-1.6-50.2-1.6
	c-13.2-1.3-26.5-0.8-39.8-1.4c-8.6-1.1-17.5-0.6-26.2-1c-14.3-1.6-28.8-0.5-43-2c-15.1,0.1-30.2-1.2-45.3-1.6
	c0.1-0.1,0.2-0.6,0.2-0.7c5,0.1,9.9-0.2,15-0.4c11.1-1.4,22.4-0.5,33.6-2c11.6,0,23.1-1.6,34.8-1.6c10.3-1.4,20.7-0.6,31-2
	c12.1,0,24-1.6,36.1-1.7c9.9-1.3,20-0.6,30-1.9c11.6,0.1,23.1-1.7,34.8-1.6c11.4-1.3,23-1,34.4-2.2c-1.1-4.4-1.9-8.9-2.9-13.3
	c-0.8-2.8-4.2-2.2-6.4-2.5c-26-3.7-51.9-7.4-77.8-11c1.7-1.3,4-0.7,5.9-1c20.1-1.6,40.1-3.4,60.3-4.8c4.6-0.2,9-1.1,13.5-1.2
	c-2-6.2-3.2-13.1-6-18.8c-43-6.6-86-12.5-128.9-19.5c11.1-1.8,22.4-2.6,33.6-3.8l1-0.4c35.6-3.7,71.3-7.9,106.9-11.4
	c45.2-0.2,90.2-0.1,135.4,0c1.4-0.2,4,0.5,4.2-1.6c3.7-19.4,7.3-38.8,11-58.2c5.2-27,13.3-53.6,25.9-78.1
	c19.8-39.5,51-73.1,89.2-95.4c35.6-20.9,76.8-30.9,117.8-32.8c13.3-1.2,26.7-0.8,39.9,0.8c8.6,2,17.5,4.4,24.3,10.3
	c5.6,4.6,9,11.3,11.5,18c5.5,15.9,8.6,32.5,11.3,49.1c0.1,6.7,1.3,14.3-2.3,20.4c-3.4,6-10.1,8.9-16.4,10.7c-23.1,6-47.3,0.4-70.5,6
	c-19.1,4.1-36.8,14.6-48.9,29.8c-14.3,17.7-21.8,39.8-26,61.8c-3.2,19.7-7.3,39.3-10.5,59.1c22.8,0.1,45.7-0.1,68.5,0.1
	c9.1,0,18.5,5,22.2,13.7c4.8,11,3.7,23.5,2.2,35.1c-1.9,13.1-5,26-10.9,38c-4.9,10.2-13.1,19.5-24.2,23.1c-5.8,2.3-12,1.8-18.1,1.8
	c-20.1,0-40.3,0.2-60.4,0c-3.2,14.7-5.4,29.8-8.3,44.8c-5.3,29.1-10.4,58.4-15.7,87.6c-0.1,1-0.2,3-0.2,4.1c9.5,0.5,18.9,0,28.4,0.2
	c70.2,0,140.6-0.1,210.9,0c7.5,0.2,15.2-1.6,21.8-5.3c4-1.4,6.4-4.9,9.8-6.8c3.4-1.9,4.3-5.9,7.2-8.4c3.1-5.5,6.4-11.3,6.6-17.7
	c0.4,0,1.3-0.1,1.8-0.2C926.3,663.7,926.7,443.2,926.4,222.7z"/>
<path class="st1" d="M184.2,77.7c10.2-3.2,20.9-1.1,31.3-1.8c195.7,0.1,391.4,0,587.1,0c11.6-0.5,21.8,6.1,32.6,9.5
	c8.6,3.5,17.6,6.2,26.2,9.9c1.8,0.7,3.1,2.3,4.4,3.6c-0.1,15.8,0,31.8,0,47.7c0.1,4.2-0.6,8.5,0.8,12.6c2.5,0.4,3.8,2.3,5.5,3.8
	c7.9,3.6,14.6,9.5,21.8,14.3c10.8,7.7,22.3,14.4,32.8,22.3c0.5,3.1,0.1,6.4-0.8,9.2c-1.1,3.4-0.4,7-0.7,10.3
	c-283.9,0.1-567.7,0-851.4,0.1c-0.6-4,0.5-7.9-1.2-11.6c-0.2-3.1-1.3-7.2,1.7-9.3c12-8.4,24.7-15.9,36.4-24.8
	c7.3-4.7,14.4-9.5,21.5-14.3c1.4-2.4,1-5.4,1-8c0-17.4,0-34.8,0.1-52.1c4.1-5.3,11.1-5.9,16.8-8.5C161.4,86.2,172.9,82,184.2,77.7
	 M184.9,79.7c-15.3,5.9-30.8,11.5-46.1,17.4c-2,0.4-3.1,2.2-4.2,3.7c0.1,1,0.2,2.6,0.2,3.6c-0.1,14.4,0,28.8-0.1,43.1
	c0.1,3.6-0.4,7.2,1,10.4c-1.6,1.6-3.2,3.1-5.2,4.3c-17.4,11.3-34.2,23.5-51.5,34.6c-3,1.8-6.4,4.2-5.4,8.1c-0.6,2.2,0.5,4,2.8,3.4
	c37.6-0.2,75.1,0.2,112.8-0.4c56,0,111.8,0.1,167.8,0l0.8-0.4c2.5,0.6,5,0.4,7.7,0.4c101.4,0,202.8,0.1,304.3,0
	c31.9,0.1,63.9,0,95.9,0c52.7,0,105.6,0.5,158.3,0.2c1.6-0.4,2-1.4,1.4-3.4c-0.1-1.9,0.6-4.6-1.4-5.8c-8.4-4-15.6-10.1-23.6-14.9
	c-2.9-2.4-6.6-3.7-8.7-7c-8.3-4.7-15.9-10.4-24.1-15.6c-1.6-1-2.8-2.5-4.1-3.8c0.7-2.5,1-5.3,1-7.9c-0.1-15.2,0-30.4-0.1-45.7
	c0.4-2.4,0.2-5.2-1.9-6.7c-14.4-5.2-28.6-10.7-42.9-15.9c-4.4-2.2-9.3-3.4-14.1-4.1H192.7C190,77.8,187.5,79.1,184.9,79.7
	L184.9,79.7z"/>
<path class="st2" d="M134.8,104.4c10.5,4.4,21.8,7,32.5,11.3c5.8,2.3,7.5,8.5,10.1,13.5c-2.5,2.5-5.5,4.6-8.5,6.5
	c-11,7.4-22.3,14.6-33.2,22.3c-1.3-3.2-0.8-6.8-1-10.4C134.8,133.2,134.7,118.8,134.8,104.4z M831.6,115.7
	c10.7-4.2,21.8-7.1,32.5-11.3c0.1,15.2,0,30.4,0.1,45.7c0,2.6-0.2,5.4-1,7.9c-9.3-6.5-18.8-12.6-28.2-18.9
	c-4.6-3.4-9.6-5.9-13.7-9.9C824,124.1,825.9,118,831.6,115.7L831.6,115.7z"/>
<path class="st3" d="M317.7,120.6c13.2-3.1,27.9,8.6,26.8,22.4c0.1,13.5-14.1,24.6-27.2,21.5c-5.3-1.8-10.3-4.6-13.5-9.2
	c-4.2-6.4-5.2-14.9-1.8-21.8C304.4,126.7,310.8,122.2,317.7,120.6L317.7,120.6z M659.6,128.2c5.5-6.1,14.3-9.6,22.4-7.4
	c6.1,1.8,12.1,5.8,14.7,11.7c5.3,10.3,1.2,24.2-9.1,29.6c-9.1,5-20.6,2.6-27.6-4.7C653,149.4,652.5,136.2,659.6,128.2z"/>
<path class="st4" d="M168.8,135.7c3-1.9,6-4,8.5-6.5l0.8,0.8c0.8,6.2,0.2,12.6,0.5,18.8c-0.4,18.7,0.4,37.5-0.5,56.2
	c-34.9,0-69.7-0.2-104.6,0c-1-4,2.4-6.4,5.4-8.1c17.4-11.1,34.2-23.4,51.5-34.6c1.9-1.2,3.6-2.8,5.2-4.3
	C146.5,150.3,157.8,143.1,168.8,135.7z M820.3,133.3c0-1.6,0.4-2.9,1.2-4.2c4.1,4.1,9.1,6.6,13.7,9.9c9.3,6.4,18.8,12.5,28.2,18.9
	c1.3,1.3,2.5,2.9,4.1,3.8c8.2,5.2,15.8,10.9,24.1,15.6c2.2,3.2,5.9,4.6,8.7,7c8,4.8,15.2,10.9,23.6,14.9c2,1.2,1.3,3.8,1.4,5.8
	c-34.9,0.1-69.6-0.1-104.5,0.1c-0.6-4.8-0.2-9.6-0.4-14.3C820.4,171.7,820.1,152.5,820.3,133.3L820.3,133.3z"/>
<radialGradient id="SVGID_2_" cx="495.7062" cy="-26.0877" r="572.908" gradientTransform="matrix(1 0 0 1 0.14 566.454)" gradientUnits="userSpaceOnUse">
	<stop  offset="0.596" style="stop-color:#F29405"/>
	<stop  offset="0.736" style="stop-color:#F7D01E"/>
	<stop  offset="1" style="stop-color:#FDCB06"/>
</radialGradient>
<path class="st5" d="M925.2,205c-34.9,0.1-69.6-0.1-104.5,0.1c-0.6-4.8-0.2-9.6-0.4-14.3c0-19.2-0.2-38.3-0.1-57.5
	c0-1.6,0.4-2.9,1.2-4.2c2.5-5,4.4-11.1,10.2-13.4c10.7-4.2,21.8-7.1,32.5-11.3c0.4-2.4,0.2-5.2-1.9-6.7
	c-14.4-5.2-28.6-10.7-42.9-15.9c-4.4-2.2-9.3-3.4-14.1-4.1H192.7c-2.6,0.1-5.2,1.4-7.8,2c-15.3,5.9-30.8,11.5-46.1,17.4
	c-2,0.4-3.1,2.2-4.2,3.7c0.1,1,0.2,2.6,0.2,3.6c10.5,4.4,21.8,7,32.5,11.3c5.8,2.3,7.5,8.5,10.1,13.5l0.8,0.8
	c0.8,6.2,0.2,12.6,0.5,18.8c-0.4,18.7,0.4,37.5-0.5,56.2c-34.9,0-69.7-0.2-104.6,0c-0.6,2.2,0.5,4,2.8,3.4
	c37.6-0.2,75.1,0.2,112.8-0.4c56,0,111.8,0.1,167.8,0l0.8-0.4c2.5,0.6,5,0.4,7.7,0.4c101.4,0,202.8,0.1,304.3,0
	c31.9,0.1,63.9,0,95.9,0c52.7,0,105.6,0.5,158.3,0.2C925.4,208,925.8,206.9,925.2,205L925.2,205z M302,133.4
	c2.4-6.7,8.9-11.3,15.7-12.8c13.2-3.1,27.9,8.6,26.8,22.4c0.1,13.5-14.1,24.6-27.2,21.5c-5.3-1.8-10.3-4.6-13.5-9.2
	C299.6,148.9,298.6,140.4,302,133.4L302,133.4z M659.6,128.2c5.5-6.1,14.3-9.6,22.4-7.4c6.1,1.8,12.1,5.8,14.7,11.7
	c5.3,10.3,1.2,24.2-9.1,29.6c-9.1,5-20.6,2.6-27.6-4.7C653,149.4,652.5,136.2,659.6,128.2z"/>
<linearGradient id="SVGID_3_" gradientUnits="userSpaceOnUse" x1="695.3689" y1="-321.9192" x2="695.569" y2="-288.5654" gradientTransform="matrix(1 0 0 1 0.14 566.454)">
	<stop  offset="0" style="stop-color:#FADA1C"/>
	<stop  offset="1" style="stop-color:#FDCB06"/>
</linearGradient>
<path class="st6" d="M690.1,257.6c1.7,0.4-8.7-10-6.7-10.5c1.9,0.2,9.2-5.4,18-0.8c8.8,4.6,6.6,15.4,5.6,19.4
	c-1.2,4.8-4.2,7.8-6.6,10.2c-1.3,1.1-4.3,2.8-6.1,2.6c1.1-5.9-2.4-6.8-2.6-12.8L690.1,257.6z"/>
<linearGradient id="SVGID_4_" gradientUnits="userSpaceOnUse" x1="3054.2571" y1="-323.5173" x2="3054.4573" y2="-290.1636" gradientTransform="matrix(-1 0 0 1 3357.446 566.454)">
	<stop  offset="0" style="stop-color:#FADA1C"/>
	<stop  offset="1" style="stop-color:#FDCB06"/>
</linearGradient>
<path class="st7" d="M307,264.1c-0.2,6-3.7,7-2.6,12.8c-1.8,0.1-4.8-1.6-6.1-2.6c-2.4-2.4-5.4-5.4-6.6-10.2c-1-4-3.2-14.8,5.6-19.4
	c8.8-4.6,16.1,1,18,0.8c2,0.5-8.4,10.8-6.7,10.5L307,264.1L307,264.1z"/>
<path class="st3" d="M674.4,334.4c1.8-1.6,3-1.6,5.4-1.6c-14.4,31.2-31.2,62.3-56.4,86.6c-2.7,2.4-5.5,4.6-8.5,6.7
	c-2.9,2.1-5.7,4.1-8.5,6.1c-2.8,1.9-5.5,3.8-8.2,5.8c-6.8,3.7-12.8,8.9-20.4,11.1c-13.8,6.6-28.6,11-43.6,14.1
	c-5.9,1-11.9,2.4-17.9,2.5c-7.4,2.2-15.3,0.6-22.9,1.1c-4.2,0.7-7.9-1.7-12-1.2c-3.5-0.5-7.1-1.1-10.6-1.8
	c-3.6-0.7-7.1-1.6-10.6-2.5c-54.9-17.1-108.9-59.1-124.6-115.8c-0.7-3.8-1.1-7.7-1.1-11.6c1.7,3.4,3.4,6.7,5.2,10
	c22.3,48.7,66.7,87.1,119.1,98.6c4.3,1.9,8.9,1.3,12.9,2.9c3.7,0,7.3-0.1,10.9,1.1c12.3,0.2,24.7,0.1,37,0.1
	c1.7,0.1,3.2-0.7,4.9-1.1c20.6-0.7,40.7-6.3,59.5-14.8c3.8-1.7,7.5-3.5,11.1-5.4c3.2-1.7,6.3-3.5,9.3-5.4c3-1.9,5.9-4,8.6-6.1
	c22.2-17.6,41.4-40.3,54.4-66.5C670.1,342.7,672.4,338.3,674.4,334.4z"/>
<path class="st8" d="M654.9,440.9c35.6-20.9,76.8-30.9,117.8-32.8c13.3-1.2,26.7-0.8,39.9,0.8c8.6,2,17.5,4.4,24.3,10.3
	c-3.5,0.2-6.8-1.3-10.3-1.8c-9.8-1.9-20-1.2-30-1.4c-28.9,0-58,2.3-85.9,10.2c-14.6,4.4-29.2,9.6-42.5,17.3
	c-23,12.7-43.7,29.5-60.5,49.6c-30,34.4-47.6,78-56.1,122.5c-4.1,23.8-8.8,47.6-12.5,71.5c-6,0.6-12.1,0.2-18.1,0.2
	c-26.4-0.1-52.7-0.2-79.1-0.5c-5.6,0.2-11.1-1.1-16.8-0.7c-47.9,0.2-95.9-0.1-143.8-0.1l1-0.4c35.6-3.7,71.3-7.9,106.9-11.4
	c45.2-0.2,90.2-0.1,135.4,0c1.4-0.2,4,0.5,4.2-1.6c3.7-19.4,7.3-38.8,11-58.2c5.2-27,13.3-53.6,25.9-78.1
	C585.5,496.8,616.8,463.2,654.9,440.9z"/>
<path class="st9" d="M710.7,426.2c27.9-7.9,57-10.2,85.9-10.2c9.9,0.2,20.1-0.5,30,1.4c3.5,0.5,6.8,2,10.3,1.8
	c5.6,4.6,9,11.3,11.5,18c5.5,15.9,8.6,32.5,11.3,49.1c0.1,6.7,1.3,14.3-2.3,20.4c-3.4,6-10.1,8.9-16.4,10.7c-23.1,6-47.3,0.4-70.5,6
	c-19.1,4.1-36.8,14.6-48.9,29.8c-14.3,17.7-21.8,39.8-26,61.8c-3.2,19.7-7.3,39.3-10.5,59.1c-1.4,4.4-2.3,9.2-3.1,13.9
	c22.6,0.4,45.3,0,67.9,0.2c8.6-0.2,17.3,0.2,25.9-0.4c4.8,11,3.7,23.5,2.2,35.1c-1.9,13.1-5,26-10.9,38
	c-4.9,10.2-13.1,19.5-24.2,23.1c-5.8,2.3-12,1.8-18.1,1.8c-20.1,0-40.3,0.2-60.4,0c-3.2,14.7-5.4,29.8-8.3,44.8
	c-5.3,29.1-10.4,58.4-15.7,87.6c-0.1,1-0.2,3-0.2,4.1v0.1c-52.4,0-104.6,0.1-157,0c0.1-0.5,0.2-1.3,0.4-1.8c0.1-0.6,0.2-1.9,0.4-2.6
	c0.1,1,0.2,2.8,0.4,3.6c3.2,0.4,9.1,2,9.9-2.6c8.1-44.1,15.7-88.4,24.1-132.5c-3.2-0.7-6.6-0.7-9.9-0.1c-0.5,1.7-1,3.4-1.6,5
	l0.7-5.4c-32.6-0.1-65.3,0-97.9-0.1c-7.9-0.2-16.1,0-24-1c-13.5-0.6-27.2-0.1-40.7-1.4c-16.8,0-33.4-1.6-50.2-1.6
	c-13.2-1.3-26.5-0.8-39.8-1.4c-8.6-1.1-17.5-0.6-26.2-1c-14.3-1.6-28.8-0.5-43-2c-15.1,0.1-30.2-1.2-45.3-1.6
	c0.1-0.1,0.2-0.6,0.2-0.7c5,0.1,9.9-0.2,15-0.4c11.1-1.4,22.4-0.5,33.6-2c11.6,0,23.1-1.6,34.8-1.6c10.3-1.4,20.7-0.6,31-2
	c12.1,0,24-1.6,36.1-1.7c9.9-1.3,20-0.6,30-1.9c11.6,0.1,23.1-1.7,34.8-1.6c11.4-1.3,23-1,34.4-2.2c-1.1-4.4-1.9-8.9-2.9-13.3
	c-0.8-2.8-4.2-2.2-6.4-2.5c-26-3.7-51.9-7.4-77.8-11c1.7-1.3,4-0.7,5.9-1c20.1-1.6,40.1-3.4,60.3-4.8c4.6-0.2,9-1.1,13.5-1.2
	c-2-6.2-3.2-13.1-6-18.8c-43-6.6-86-12.5-128.9-19.5c11.1-1.8,22.4-2.6,33.6-3.8c47.9,0,95.9,0.4,143.8,0.1c5.6-0.4,11.1,1,16.8,0.7
	c26.4,0.2,52.7,0.4,79.1,0.5c6,0,12.1,0.4,18.1-0.2c3.7-24,8.4-47.7,12.5-71.5c8.5-44.5,26.1-88.1,56.1-122.5
	c16.8-20.1,37.5-36.9,60.5-49.6C681.5,435.8,696.1,430.6,710.7,426.2z"/>
<path class="st8" d="M685.1,674.1c22.8,0.1,45.7-0.1,68.5,0.1c9.1,0,18.5,5,22.2,13.7c-8.6,0.6-17.3,0.1-25.9,0.4
	c-22.6-0.2-45.3,0.1-67.9-0.2C682.8,683.4,683.6,678.6,685.1,674.1L685.1,674.1z M508.3,786.4c3.4-0.6,6.7-0.6,9.9,0.1
	c-8.4,44.1-15.9,88.4-24.1,132.5c-0.8,4.7-6.7,3-9.9,2.6c-0.1-0.8-0.2-2.6-0.4-3.6c7.5-42.2,14.9-84.5,22.9-126.7
	C507.4,789.8,507.8,788.1,508.3,786.4L508.3,786.4z"/>
<path class="st10" d="M695.6,261c-1-1.8-1.1-4-1.1-6l-1,0.1c-1.4-5.3-5.9-10.3-11.6-10.5c-4.3-0.4-9.7-0.2-12.2,3.8
	c-4.8,6.5-2.5,14.7-2.8,22c0,0.5,0.1,1.3,0.1,1.8c0,4.9-0.6,9.7-1.4,14.5c-0.7,1.4-1.1,3-1.1,4.7c-2,11.3-6.1,22.4-11.6,32.6
	c-1.1,1.4-1.9,3-2.3,4.7c-3.6,6.2-7.9,12-12.3,17.7c-0.7,0.6-1.3,1.3-1.9,2c-3.1,3.8-6.5,7.1-9.9,10.4c-0.8,0.5-1.4,1.1-2.2,1.6
	c-4.1,4-8.6,7.7-13.5,10.7c-0.6,0.4-1.2,0.8-1.9,1.3c-30.7,20.3-67.9,28.6-104.3,29c-30.8,1-61.8-5.6-89.6-18.9
	c-0.5-0.2-1.7-0.7-2.2-1c-4.7-2.5-9.5-4.7-13.8-7.8c-1-0.5-1.9-1.1-3-1.6c-4.4-2.6-8.6-5.5-12.6-8.9c-1.3-1.2-2.8-2.2-4.2-3.2
	c-4.3-3.5-8.7-7.2-12.5-11.4c-1-1.1-1.9-2-2.9-3c-13.1-13.5-23.2-30.1-28.6-48.1c-5.2-14.3-4.4-29.8-5-44.8
	c-4.3-6.6-13.4-10.3-20.6-6.2c-3,2.2-3.4,6.1-5.6,8.9c-3.7,39.5,13.2,79,40.1,107.5c0,1,0.5,1.6,1.3,1.9c4.8,4.4,9.5,9,14.3,13.3
	c0.8,0.8,1.8,1.7,2.9,2.4c4.8,4,9.9,7.5,15,11.3c1,0.7,1.9,1.3,3,1.9c6.6,3.8,12.8,8.4,19.9,11c0.5,0.4,1.3,1,1.8,1.2
	c22.8,10.9,47.3,18.3,72.5,20.7c2.8,0,5.5,0.2,8.3,0.8c12,0.7,24,0.4,36,0.1c37-3.2,75.3-12.2,106.2-34l0.4,0.5
	c1-0.8,1.8-1.6,2.8-2.3c4.9-3.6,9.7-7.4,14.5-11.4c1.1-0.8,2.3-1.8,3.4-2.9c5.3-5.8,11.4-11,15.8-17.6l0.7,0.4
	c0.4-0.6,1-1.8,1.3-2.4c4.1-5.5,7.8-11.3,11.4-17c0.2-0.4,0.8-1,1.1-1.3l-0.5-0.5c0.4-0.5,1.2-1.4,1.6-1.9
	c6.6-13.4,12.5-27.4,14.5-42.3c0.8-0.4,1.3-1.1,1.3-1.9c0.1-4.8,1.8-9.3,1.3-14.1C695.7,273,695.8,267,695.6,261L695.6,261z"/>
<g>
	<defs>
		<path id="SVGID_11_" d="M695.6,261c-1-1.8-1.1-4-1.1-6l-1,0.1c-1.4-5.3-5.9-10.3-11.6-10.5c-4.3-0.4-9.7-0.2-12.2,3.8
			c-4.8,6.5-2.5,14.7-2.8,22c0,0.5,0.1,1.3,0.1,1.8c0,4.9-0.6,9.7-1.4,14.5c-0.7,1.4-1.1,3-1.1,4.7c-2,11.3-6.1,22.4-11.6,32.6
			c-1.1,1.4-1.9,3-2.3,4.7c-3.6,6.2-7.9,12-12.3,17.7c-0.7,0.6-1.3,1.3-1.9,2c-3.1,3.8-6.5,7.1-9.9,10.4c-0.8,0.5-1.4,1.1-2.2,1.6
			c-4.1,4-8.6,7.7-13.5,10.7c-0.6,0.4-1.2,0.8-1.9,1.3c-30.7,20.3-67.9,28.6-104.3,29c-30.8,1-61.8-5.6-89.6-18.9
			c-0.5-0.2-1.7-0.7-2.2-1c-4.7-2.5-9.5-4.7-13.8-7.8c-1-0.5-1.9-1.1-3-1.6c-4.4-2.6-8.6-5.5-12.6-8.9c-1.3-1.2-2.8-2.2-4.2-3.2
			c-4.3-3.5-8.7-7.2-12.5-11.4c-1-1.1-1.9-2-2.9-3c-13.1-13.5-23.2-30.1-28.6-48.1c-5.2-14.3-4.4-29.8-5-44.8
			c-4.3-6.6-13.4-10.3-20.6-6.2c-3,2.2-3.4,6.1-5.6,8.9c-3.7,39.5,13.2,79,40.1,107.5c0,1,0.5,1.6,1.3,1.9c4.8,4.4,9.5,9,14.3,13.3
			c0.8,0.8,1.8,1.7,2.9,2.4c4.8,4,9.9,7.5,15,11.3c1,0.7,1.9,1.3,3,1.9c6.6,3.8,12.8,8.4,19.9,11c0.5,0.4,1.3,1,1.8,1.2
			c22.8,10.9,47.3,18.3,72.5,20.7c2.8,0,5.5,0.2,8.3,0.8c12,0.7,24,0.4,36,0.1c37-3.2,75.3-12.2,106.2-34l0.4,0.5
			c1-0.8,1.8-1.6,2.8-2.3c4.9-3.6,9.7-7.4,14.5-11.4c1.1-0.8,2.3-1.8,3.4-2.9c5.3-5.8,11.4-11,15.8-17.6l0.7,0.4
			c0.4-0.6,1-1.8,1.3-2.4c4.1-5.5,7.8-11.3,11.4-17c0.2-0.4,0.8-1,1.1-1.3l-0.5-0.5c0.4-0.5,1.2-1.4,1.6-1.9
			c6.6-13.4,12.5-27.4,14.5-42.3c0.8-0.4,1.3-1.1,1.3-1.9c0.1-4.8,1.8-9.3,1.3-14.1C695.7,273,695.8,267,695.6,261L695.6,261z"/>
	</defs>
	<clipPath id="SVGID_5_">
		<use xlink:href="#SVGID_11_"  style="overflow:visible;"/>
	</clipPath>
</g>
</svg>
