<?xml version="1.0" encoding="utf-8"?>
<!-- Generator: Adobe Illustrator 24.2.0, SVG Export Plug-In . SVG Version: 6.00 Build 0)  -->
<svg version="1.1" id="Layer_1" xmlns="http://www.w3.org/2000/svg" xmlns:xlink="http://www.w3.org/1999/xlink" x="0px" y="0px"
	 viewBox="0 0 1000 1000" style="enable-background:new 0 0 1000 1000;" xml:space="preserve">
<g>
	<path d="M16.9,837.8c0-116.2,0-232.3,0-348.5c0.7,0,1.5,0.1,2.2,0.1c19.4-0.4,38.8-0.7,58.3-1.3c27.8-0.8,55.6-1.7,83.3-2.5
		c1.1,0,2.1-0.1,3.2,0c1.5,0.1,2.4,0.9,2.4,2.4c0,1.5-0.1,3-0.2,4.5c-0.6,7.1-1.2,14.1-1.7,21.2c-0.1,0.7,0,1.4,0,2.6
		c6.8-3.8,13.4-6.8,19.2-11.3c2.1-1.6,4-3.5,6-5.4c1.4-1.4,1.5-3,0.5-4.7c-0.7-1.2-1.5-2.4-2.2-3.6c-0.6-0.9-1-2.2-1.8-2.6
		c-0.9-0.4-2.2,0-3.3,0c-1.8-1.7-0.7-3.2,0.4-4.5c-0.6-1-1.1-1.8-1.5-2.7c-0.6-1.3-1.3-2-2.9-1.9c-1.7,0.1-2.3-1.1-1.9-2.8
		c0.5-1.9,1-3.9,1.5-5.9c0.2-0.7,0.5-1.3,0.8-2.1c1.7,0.9,3.2,1.7,5.1,2.7c0.8-6.2-2.9-10.4-5.1-15.3c-2.2,1.6-4.2,3-6.2,4.5
		c-0.9-1.3-1.5-2.3-2.2-3.4c-1.7,2.1-3.2,4-5.2,6.5c-0.3-2.5-0.5-4.3-0.8-6.4c-2.1,1.3-3.9,2.3-5.9,3.5c-0.9-4.1,0.6-7.3,1.9-10.9
		c-2.1,0.4-3.9,0.8-5.8,1.1c-0.2-4.5,2.4-7.7,3.4-11.7c-1.6,1-2.8,1.7-4.6,2.8c1.4-4,2.5-7.3,3.8-10.9c-2.3,0.6-3.9,2.6-6.3,1.2
		c1.3-5.2,3.9-10,4.2-16c-1.9,0.9-3.4,1.6-5.3,2.4c0.7-4.4,2.9-8.1,3.1-12.7c-1.7,1.1-3.1,2-4.8,3.1c0.6-5.2,1.1-9.7,1.7-14.8
		c-1.1,1-1.9,1.8-3.1,2.8c0.1-10.4,2-19.9,5.1-30.1c3.8,7.4,9.1,12.2,16,16c-1.8,0.7-2.9,1.2-4.4,1.7c3.5,2.5,7.5,3.5,11.3,6.3
		c-2.6,0.4-4.5,0.7-6.7,1c3.6,4.9,8.9,7.4,12.9,11.4c-2.4,1.6-4.9,1-7.7,1.2c4.4,4.5,10.3,4.9,15.1,7.2c-1,2.9-3.7,3.2-6,4.5
		c2.9,2.4,6.4,2.3,9.5,3.4c-0.8,2.8-2.9,4.1-5.4,5.8c3,1.3,5.6,2.4,8.6,3.7c-2.3,0.7-4.1,1.2-6.4,1.9c2.5,1.1,4.6,2,6.9,3
		c-2.4,1.6-4.4,3-6.5,4.3c0.1,0.3,0.1,0.5,0.2,0.8c1.3,0.2,2.6,0.5,4,0.5c1.3,0,2.6-0.3,4-0.5c0.1,0.2,0.2,0.3,0.3,0.5
		c-1,1-2,2-3.1,3.1c1.7,1.5,3.3,2.9,4.8,4.2c-1.2,1.9-2.6,2.3-4.3,2.5c-2,0.3-4.4-1-5.9,1.8c-0.3,0.5-2.1,0.2-3.7,0.3
		c2.1,4.2,4.1,8.2,6.1,12.1c0.2-2.7-0.1-5.2,0.8-7.4c3.1,0.1,5,1.7,6.4,4.1c1.2-0.6,2.2-1.1,1.6-2.4c-1.6-3.4-0.2-6.4,0.7-10.2
		c2.2,2.6,4,4.7,5.8,6.9c1-0.5,1.9-1.2,2.8-1.5c2-0.7,2.5-2,2.3-4c-0.2-1.7,0-3.4,0-4.9c2.1-1.1,3.6,0,5.1,0.7
		c3,1.4,4.7,0.6,5.5-2.6c0.2-0.9,0.2-1.9,0.4-2.9c0.2-0.8,0.5-1.5,0.9-2.7c1.4,0.9,2.5,1.5,3.5,2.3c0.8,0.6,1.7,1.3,2.5,0.4
		c0.5-0.6,0.8-1.8,0.6-2.6c-1.2-5.3-2.5-10.6-3.9-15.9c-0.2-0.7-0.7-1.4-1-2.1c-0.4,0.3-0.5,0.4-0.5,0.4c-0.3,0.5-0.5,0.9-0.8,1.4
		c-1.8,3.2-3.4,3.6-6.5,1.6c-1.2-0.7-2.2-1.6-3.5-2.6c-1.8,2.9-2.8,6.2-6.7,7.3c0.2-2.3,2.3-4.2,0.5-6.6c-2.9,1.3-5.8,1.8-9,1.1
		c1-1.9,1.9-3.6,2.8-5.3c-1.1-0.6-1.7-1-2.4-1.4c1.3-3.3,3.9-5.9,3.7-9.9c-2.3,2.5-3.8,5.6-7.8,5.9c0.6-3.3,1.2-6.4,1.9-9.8
		c-1.8,0.9-3.1,1.6-5.1,2.6c1.8-5,4.6-8.8,4.7-13.5c-1.8-1.5-3.8,0-6-0.5c1.2-3,2.3-5.8,3.5-8.7c-1.8-0.5-3.2-0.8-5-1.3
		c3-3.5,7-6.2,6.3-11.9c-3,3.2-6.2,5.3-11,4c1.2-1.4,2.3-2.5,3.2-3.6c1.2-1.5,2.2-3.1,3.2-4.8c0.6-1,0.7-2-0.6-2.9
		c-1.8,0.8-3.6,2.1-5.9,0.4c4.3-3.8,8.1-7.6,9.1-13.9c-1.6,1.2-2.8,2.1-4,3c-1.3,0.9-2.8,1.5-4.9,1.3c2.4-6.2,5.7-11.9,4.7-19
		c-2,1.9-3.5,3.8-6.4,3.6c3.3-5.2,6.2-10.3,5.8-16.5c-0.9-0.1-1.6-0.1-2.4-0.2c0.6-1.9,1.1-3.5,1.5-5.2c0.4-1.6,1.2-3.1,0.7-5.1
		c-1.2,0.8-2.2,1.4-3.2,2.1c-0.2-0.1-0.3-0.3-0.5-0.4c2.1-10.2,4.2-20.4,6.4-31c0.8,0.6,1.2,0.8,1.6,1.2
		c8.2,8.3,16.5,16.6,24.7,24.9c0,0,0,0.2,0,0.3c0,0.1-0.1,0.1-0.3,0.4c-2.4-0.6-4.8-1.1-7.6-1.8c1.4,3.3,3.5,5.4,6.1,6.8
		c2.8,1.5,5.8,2.7,8.7,4.1c0.9,0.4,1.8,0.8,2.8,1.3c-2.8,3.3-6.3,3.3-10.1,3.4c0.7,1.1,1.1,2,1.8,2.6c4.8,5,11.5,6.8,17.9,9.6
		c-3.2,3.8-6.9,5.1-11.9,4.3c1.9,2.9,3.4,5.6,6.3,6.8c2.8,1.2,5.8,1.8,9,2.7c-3.3,2.5-7,4.1-10.7,6.6c5.8,3,12,2.3,18.3,3.7
		c-4.3,3.7-8.4,6.3-14.2,5.3c1.1,2.3,2.7,3.2,4.4,3.8c4.1,1.4,8.3,2.7,12.5,4c1,0.3,1.9,0.7,3,1c-1.4,5-5,5.8-9.3,5.9
		c2.7,4.2,7.3,4.2,11.2,6.1c-4.1,2.6-8.3,2.9-13.3,2.6c2.8,2.9,5.2,5.3,8,8.1c-2.7,0.5-4.7,0.8-7.1,1.3c3.7,4.1,8.6,4,13.2,5.5
		c-2.8,3.2-7,2.9-10.4,4.9c3,2,5.6,3.8,8.2,5.7c-2.5,2.7-4.2,3.2-8,2.4c-1.8-0.4-3.7-0.9-5.5-1.3c-0.3,0.7-0.5,1.1-0.6,1.5
		c-1.1,3.1-1.3,3.2-4.6,3.2c-0.8,0-1.6,0.1-2.8,0.2c0.7,6.5,3.7,12.1,5.4,18c0.1,0.3,0.8,0.5,2.1,1.4c-0.5-3.8,0-6.8,2.6-9.4
		c1.1,1.3,2.1,2.5,3,3.7c0.6,0.8,1,1.7,2.2,1.3c1.2-0.5,1.1-1.5,0.9-2.4c-0.6-2.3,0.3-4.1,1.1-6c3.4,0,4.4,3,6.3,5.1
		c1.3-6.4,1.3-6.4,3.3-8.9c1.3,1.5,2.6,3,4,4.7c0.8-3.2,0.6-6.3,2.6-9.5c1.9,2.5,3.6,4.7,5.4,7.1c1.2-0.2,1.6-0.9,1.6-2.2
		c0-1.2,0.1-2.4,0.5-3.5c0.8-2.3,2.4-2.6,4.1-0.8c0.8,0.9,1.6,1.9,2.5,2.9c1.8-2.3,1.3-6,4.8-6.6c0.4,0.3,0.6,0.4,0.9,0.7
		c2.2,2.3,2.9,2.3,5.2,0.1c1.3-1.2,2.7-2.5,4.1-3.6c1.3-1,3.1-1.7,2.3-4c-0.2-0.6,0.7-1.5,1.2-2.2c1.2-1.6,2.4-3.1,3.7-4.6
		c-1.4,0.3-2.4,1-3.6,1.5c-1.2,0.5-2.6,2-3.7,0.7c-0.7-0.8-0.4-2.4-0.5-3.8c-0.5-0.1-1.4-0.2-2.5-0.4c0.2-1.5,0.4-2.9,0.6-4.4
		c-0.8,0.5-1.5,1.4-2,1.2c-2.8-0.7-3.8,1.3-5,3c-2.6,3.6-5.1,7.1-7.8,10.7c-3.5-3.7-3.5-4.7-0.6-8.3c2.7-3.3,5.5-6.6,7.9-10.1
		c5-7.2,9.9-14.6,14.8-21.8c1.7-2.6,3.5-5.2,5.4-7.6c1.5-2,2.4-2.2,4.7-1.4c0.9,0.3,1.7,0.7,2.6,1.2c-0.8,1.1-1.4,2-2,2.9
		c-2.4,3.3-4.9,6.5-7.1,9.9c-0.8,1.2-1.5,2.8-1.4,4.1c0.2,2.1-0.3,3.8-1.1,5.6c-1,2.2-1.9,4.3-2.9,6.5c0.1,0.1,0.2,0.1,0.3,0.2
		c2.6-2.5,5.1-5,7.7-7.6c2,1.3,1.8,2.7,0.9,4.1c-1.4,2.2-2.8,4.3-4.2,6.5c-0.5,0.7-0.9,1.5-1.3,2.3c0.2,0.2,0.3,0.3,0.5,0.5
		c2.4-1.4,4.7-2.8,7.1-4.2c0.9-0.6,1.9-1.2,2.9-0.1c0.9,1,0.5,2-0.1,3c-0.6,1-1.3,2-2.3,3.5c1.6-0.8,2.5-1.6,3.5-1.8
		c0.9-0.1,1.9,0.6,2.9,0.9c2.3-1.6,4.8-3.2,7.1-4.9c3.2-2.3,3.7-5.7,1.4-8.9c-0.5-0.7-1-1.4-1.2-2.2c-1.8-6.8-2.9-13.5-1.3-20.6
		c1.6-7.1,2.4-14.4,3.4-21.6c0.3-2,0.6-4-0.6-5.9c-3.5-6-7.7-11.4-13.2-15.7c-2-1.6-4.1-2.7-6.8-2.1c-0.4,0.1-1-0.2-1.6-0.3
		c0.1-0.7,0.1-1.2,0.2-1.7c0.7-3.7,1.4-4.2,5.2-4.2c3.8,0,7.5,0,11.3,0.1c3.9,0.1,4.4-0.3,4.3-4.4c-0.2-4.2-0.4-8.4-0.5-12.5
		c0-1.2,0.1-2.4,0.4-3.5c0.3-1.4,1.3-2.1,2.8-2.2c2.2-0.1,3,0.5,3.6,2.7c0.2,1,0.4,2.3,1.1,2.8c2.1,1.6,5.5-0.1,6-2.8
		c0.4-2.2,0.8-2.6,2.8-2.7c2.5-0.2,3.2,0.4,3.6,2.9c0.2,1.3,0.2,2.7,2,2.8c1.9,0.1,3.8-0.1,5.6-0.1c0.3-1.1,0.6-1.8,0.7-2.5
		c1-8.1,1.5-16.3,0.5-24.4c-1-8.4-2.5-16.8-3.8-25.1c-0.4-2.9-1-5.7-1.4-8.6c-0.2-1.3-0.4-3,1.5-2.9c2.5,0.1,3.6-1.4,4.8-3.1
		c4.6-6.5,9.3-12.9,13.9-19.3c0.7-1,1.6-1.9,2.6-3.1c0.9,1.2,1.6,2,2.2,2.8c4.5,6.3,8.9,12.6,13.3,19c1.1,1.6,2.3,3.1,4.6,3.1
		c0.2,8.1,0.5,16,0.7,23.7c-3.7,1.1-3.7,1.1-3.7,4.6c0,1.1-0.1,2.1-0.2,3.2c-0.2,3.2,0,3.7,3,4.9c4.1,1.7,6,4.7,6.1,9
		c0,2.2-0.2,4.5-0.2,6.8c0,1.9,0,3.9,0,5.8c0,2,0.1,4,0.1,5.9c5,1.1,5.3,1,6.4-3.2c0.3-1.2,1-1.8,2.2-2.1c2.8-0.6,4.3,0.4,4.4,3.4
		c0.4,9.5,0.6,19.1-0.8,28.6c-0.6,4-0.5,8.1-0.3,12.2c0.1,3.1,0.7,6.2,1.1,9.3c0.2,1.4,0.1,2.7-1.1,3.8c-0.5,0.5-0.8,1.5-0.8,2.3
		c0,7.7,1.7,15.1,3.4,22.5c0.8-2.8,1.3-5.6,1.9-8.5c1.7-7.8,3.3-15.5,3.7-23.5c0.5-13.6,1.2-27.2,1.7-40.9
		c0.7-16.9,1.3-33.9,1.9-50.8c0.1-2.4,0.9-4.3,2.7-5.9c3.2-2.8,6.3-5.8,9.5-8.7c6.7-6.1,6.9-6.8,6.8-15.9c0-0.8,0-1.5-0.1-2.3
		c-0.8-6.1-1.5-12.1-2.4-18.2c-0.5-3.5,0.4-6.5,2.7-9.2c5.4-6.4,10.8-12.8,16.1-19.3c2.3-2.8,3.1-3,6.3-1.4
		c3.9,1.9,7.7,3.7,11.6,5.5c1,0.5,2,1.4,3.4,0.4c-0.2-2.8,1.5-6-2.2-7.8c0.8-2.6,1.7-5,2.4-7.5c0.5-1.7,1.4-2.4,3.2-2.4
		c4.1,0.1,8.2,0.1,12.2,0.1c2.6,0,2.8-0.4,3-3c0.2-3.1,0-6.4,1.1-9.2c2-5.1,2-10.2,1.3-15.5c-0.3-2.8-0.7-5.5-0.8-8.3
		c-0.1-2.2,0.7-3.1,2.8-3c1.3,0.1,2.2-0.3,3.2-1.1c4.4-3.8,9.7-5.9,15.3-7c1.7-0.3,3.3-0.8,4.9-1.2c1.3,0,2.6,0,3.9,0
		c0.2,0.1,0.3,0.3,0.5,0.4c6.8,2.3,7.4,3.2,6.6,10.5c-0.3,2.3-0.2,2.7,2.2,3.5c2.8,0.9,5.7,1.8,8.7,2.4c8.6,1.6,17.1,0.4,25.6-0.9
		c2.2-0.3,4.4-0.6,6.7-0.9c0,0.5,0,0.7-0.1,0.9c-0.3,0.4-0.7,0.8-1.1,1.2c-8.7,7.1-18.2,12.5-29.2,14.9c-7,1.5-14,2.2-21,0.4
		c-4.3-1.1-5.1-2.5-3.7-6.7c0.5-1.5,1.1-3,1.4-4.6c0.3-1.6-0.4-2.2-2-2.1c-0.5,0-1.1,0.1-1.6,0.3c-8.2,1.8-13.6,7.4-18.2,14
		c-0.4,0.6-0.4,1.9-0.1,2.3c1.1,1.2,1,2.5,0.9,3.9c-0.4,4.1,0.3,8.1,1.8,12c1.2,3,2.4,6,3.6,9c0.3,0.7,0.4,1.5,0.5,2.4
		c-3.2,0.2-3.8,0.5-3.9,2.5c-0.1,3.6-0.3,7.3,0,10.9c0.2,3.9,2.5,6.5,6.3,7.7c0.4,0.1,0.8,0.2,1.3,0.3c1.3,0.3,1.7,1.1,1.5,2.4
		c-0.1,0.7-0.3,1.5-0.4,2.2c-1.2,6.5-3,13-2.2,19.7c0.4,3.7,1,7.5,1,11.2c0,6.6,2.2,12.4,5.4,17.9c4.4,7.6,8.7,15.3,13.2,22.9
		c1.4,2.4,2.1,4.9,2.2,7.6c0.2,19.2,0.5,38.4,0.6,57.6c0,5.7-0.7,11.3-1.5,17c-1.6,11.6-2.7,23.2-1.5,35c0.7,6.4,2.1,12.7,4.9,18.6
		c0.8,1.7,1.6,3.4,3.7,4.9c0.4-4.1,1-7.7,1-11.3c0.1-9.2,0-18.5-0.2-27.7c0-2.7-0.9-5-3.5-6.4c-1.9-1.1-1.9-1.5-1-3.7
		c1.9-4.7,3.8-9.3,5.9-13.9c2.8-6.2,4.3-12.6,3.6-19.4c-0.1-0.6-0.1-1.3,0-1.9c0.2-1.5,1-2.5,2.6-2.2c2.9,0.5,4.1-1.1,5-3.4
		c1.3-3.5,2.8-7,4.3-10.4c0.3-0.7,0.8-1.4,1.3-2.3c1.1,0.6,1.9,1.1,2.7,1.6c4.5,3.2,9,6.3,13.3,9.6c2.2,1.6,4.4,2.1,7,1.5
		c1.4-0.3,2.3-1.2,2.3-2.7c0-1.1-0.1-2.1-0.2-3.2c0-0.9-0.3-1.9-0.1-2.8c0.8-3.9,0.1-7.5-2-10.8c-1.2-1.9-2.5-3.8-3.6-5.7
		c-3.8-6.6-2.9-13.4,2.6-18.8c0.9-0.9,1.9-1.7,2.9-2.5c1.1-0.9,1.6-2,1.2-3.4c-0.2-0.8-0.5-1.7-0.7-2.5c-4.1-14.5-5.1-29.1-2.1-43.9
		c0.2-1.2,0.5-2.3,1-3.4c0.9-2.2,2.3-2.6,4.4-1.5c1.2,0.7,2.3,1.6,3.4,2.5c4.3,3.8,8.3,7.8,11.6,12.5c1.9,2.7,4.4,4.3,7.7,4.7
		c2,0.2,4,0.6,6,0.9c4.4,0.7,8.9,1.5,13.3,2.2c3,0.5,3.5,0.1,4.7-2.6c0.4-0.8,0.8-1.6,1.2-2.5c3.7,3.1,9.6,9.9,10.3,11.9
		c-5.3,1.7-7,3.7-7.6,9.4c-0.9,7.4-1.6,14.7-2.5,22.1c-0.3,2.3,0.2,4.1,1.3,6.1c2.8,4.9,5.5,10,8.1,15c1.1,2.2,2,4.5,2.7,6.9
		c1,3.5,0.1,5-3.4,5.2c-3.6,0.2-7.4,0.3-10.9-0.3c-11.5-2.2-21.7-7.2-30.6-14.9c-0.8-0.7-1.7-1.4-2.6-2.1c-0.2,0.1-0.3,0.3-0.5,0.4
		c1.4,4.4,2.8,8.7,4.2,13.1c1.2,3.8,1.3,3.9,5.4,4c3.4,0.1,3.9,0.6,4,4c0.1,5.4,0.1,10.7-0.1,16.1c-0.3,7.5,0.7,14.8,3.8,21.7
		c0.2,0.5,0.4,1,0.6,1.5c0.5,1.6,0.4,3-1.3,3.8c-2.4,1.1-2.8,3.1-2.7,5.3c0.3,22,0.7,44,1,66c0,0.9,0.1,1.7,0.2,2.6
		c0.2,1.4,0.9,2.1,2.4,2c1.7-0.1,1.7-1.3,1.6-2.5c-0.2-3.2-0.6-6.4-0.4-9.6c0.2-2.7,0.6-5.6,1.7-8.1c2.1-4.7,2.8-9.6,2.9-14.7
		c0.1-9.3,0.4-18.7,0.6-28c0-1,0.3-2.1,0.4-3.4c1.7,0.1,3.2,0.1,4.7,0.3c3,0.3,6,0.7,8.9,1.1c1.7,0.2,2.9-0.4,3.6-2
		c0.6-1.3,1.2-2.5,1.6-3.9c1.6-4.8,1.5-9.7,1.1-14.7c-0.2-2-0.4-4.1-0.3-6.1c0.2-3.2,2.3-4.8,5.4-4.5c2.9,0.2,5.9,2.6,6.7,5.7
		c0.5,2.2,0.8,4.4,0.8,6.7c-0.1,5-0.2,5,4.8,5.8c4.3,0.7,6.4,2.7,7,7.1c0.3,1.9,0.1,3.8,0.1,5.8c0,1.1-0.1,2.3-0.2,3.9
		c3,0.3,5.8,0.6,8.9,1c-0.2-1-0.4-1.5-0.5-2c-0.3-1.4-0.7-2.7-0.7-4.1c0-2.6,0.8-3.5,3.4-4c1.2-0.2,1.6-0.9,1.8-1.9
		c0.4-2.9,1-5.7,1.2-8.6c0.4-8.2-1.5-16.2-2.7-24.3c-0.1-0.5-0.5-0.9-0.8-1.5c-1.2,0.1-2.4,0.2-3.6,0.4c-5.7,1-11.5,1.3-17.3,1.2
		c-2.9-0.1-3.9-1.5-2.6-4.2c0.8-1.7,1.9-3.4,3.1-4.9c8.1-9.9,18.3-14.3,31-11.5c5.2,1.1,9.8,3.7,13.6,7.5c2.9,3,2.4,5-1.5,6.2
		c-2,0.6-3.9,1.1-5.9,1.6c-3.3,0.8-6.7,1.7-10,2.4c-1.7,0.4-2.4,1.2-2.1,2.9c0.1,0.5,0.1,1.1,0.2,1.6c1.9,10.3,3.2,20.6,1.4,31
		c-0.2,1.2,0.2,2,1.3,2.6c2.9,1.6,3.3,2.5,2.3,5.6c-0.5,1.7-1.3,3.3-2,5.3c7.2,0.9,14.1,1.7,21.1,2.5c2.9,0.3,3.9,1.3,4.7,4
		c0.2,0.8,0.4,1.7,0.5,2.5c2.8,16.1,5.6,32.1,8.4,48.2c0.1,0.7,0.4,1.3,0.7,2.5c3-5,5.6-9.4,8.3-13.9c0.5,0.8,0.5,1.3,0.4,1.8
		c-0.9,5-1.8,9.9-2.8,14.9c-0.2,1.1-0.3,2.1,0.9,2.8c1.1,0.6,2.1,0.5,3-0.3c1.2-1.1,2.4-2.2,3.6-3.2c2.1-1.7,4.2-3.4,6.4-5.2
		c0.2,0.2,0.3,0.3,0.5,0.5c-2,3.9-3.9,7.7-5.9,11.6c0.6,1.3,1.5,1.7,2.5,0.6c0.7-0.7,1.1-1.6,1.6-2.4c4.5-7.3,9-14.6,13.6-21.9
		c0.6-1,1.4-1.9,2.1-2.8c-2.7,9.9-6.4,19.3-9.6,29.2c4.9-1.1,5.6-5.9,9.3-8.3c0,1.7,0.1,2.9,0,4c-0.3,2.1,0.6,3.4,2.3,4.6
		c2.5,1.8,4.9,1.9,7.5,0.3c1.7-1,3.2-2.5,6-2.7c-2.7,3.1-4.9,5.7-7.3,8.5c3.8,0.6,4.4,1.2,5.1,4.4c0.6,2.7,0.6,2.7,3.5,2.6
		c2.9,0,3.6,0.5,4.4,3.5c0.1,0.5,0.4,0.9,0.7,1.8c4.9-4.3,9.2-8.8,14.7-12c-2.9,5.3-5.8,10.6-8.9,16.2c4,1,7.5,1.9,11.4,2.9
		c4-11.1,7.9-21.8,11.7-32.4c-2.3-1.5-4.4-2.4-5.9-4c-1.7-1.8-1-4.3-1-6.6c1,2.4,2.1,4.5,4.5,5.6c2.4,1.2,3.7,1,4.3-1.7
		c0.5-2.2,0.6-4.7,0.3-7c-1.4-10.3-2.8-20.6-1.7-31.1c0.3-2.5,0.5-4.9,0.6-7.4c0.3-3.7-0.6-5.2-4-6.4c-2.5-0.9-4.4-2-5.2-4.6
		c-3.4,0.2-4-2.4-5.2-4.5c0.4,0.1,0.7,0.3,1,0.6c0.9,0.9,1.6,2.3,3.1,1.7c1.7-0.6,1.9-2.1,1.8-3.7c-0.1-1.6,0-3.2-0.1-4.8
		c0-0.3-0.2-0.6-0.3-0.9c-0.8,0.3-1.5,0.5-2.2,0.7c-1.5-1.5-0.9-3.2-1.1-4.7c-0.1-1.7-0.2-3.3-0.3-5.8c-1.2,1.4-1.7,2.4-2.5,3
		c-0.8,0.6-1.9,1.2-2.8,1c-0.6-0.1-1.2-1.3-1.5-2.2c-0.6-1.9-1-3.8-1.7-6.3c-0.9,1.2-1.4,1.9-2,2.6c-1.9,2.3-4,2.1-5.2-0.6
		c-0.5-1-0.5-2.3-1.8-3c-0.6,2.8-0.8,5.7-3.5,7.6c-1.4-0.9-2.8-1.8-4.3-2.7c-0.2,2.7,1.1,5.3-0.9,7.6c-1-0.2-2-0.4-3-0.6
		c-0.7,1.4-1.4,2.7-2.3,4.5c-1.1-1.1-2.1-1.8-2.7-2.7c-2.3-2.9-4-6.1-4.9-9.7c-3-12.1-0.7-23.4,5.6-34c2.3-3.8,5.4-7,9.1-9.4
		c6.2-3.9,11.7-8.7,16.7-14c2.8-3,6.2-4.8,10.2-5.9c3.9-1,7.8-2.3,11.7-3.6c4.4-1.5,8.9-1.7,13.3-0.1c2.3,0.8,4.6,1.8,6.7,3
		c10.1,5.8,18.5,13.5,24.8,23.4c2.1,3.3,4.3,6.7,6.8,9.7c6,7.1,9.9,15.3,13.4,23.7c1.2,2.9,1.6,6,1.1,9.1
		c-1.2,7.9-4.7,14.6-9.6,20.8c-0.4,0.5-1.1,0.8-2,1.5c-0.6-2.1-1.2-3.8-1.9-6.3c-0.9,3-1.5,5.3-2.2,7.5c-0.2,0.6-0.9,1.4-1.4,1.4
		c-0.5,0-1.2-0.6-1.7-1.2c-0.4-0.5-0.6-1.3-0.9-2.1c-1.1,1.7-2.1,3.1-3.1,4.6c-2.7-2.4-2-5.2-2-7.9c-0.3,0.1-0.5,0-0.5,0.1
		c-4.5,4.2-4.7,2.2-6.2-2c-0.8,1.8-1.4,3.4-2.3,4.8c-1.5,2.5-3.1,2.4-4.6-0.2c-0.1-0.2-0.4-0.4-0.8-0.7c-1,1.5-1.8,3-3,4.3
		c-1.3,1.4-2.8,2.6-4.4,3.5c-1.2,0.7-2.3,0.1-2.9-1.2c-0.4-1-0.7-2-1.1-3.5c-1.1,0.9-2,1.6-2.9,2.3c-2.5,2.1-3.6,1.8-4.2-1.5
		c-0.3-1.7-0.4-3.5-0.7-5.3c-2.7,0.8-3,1-3.1,3.8c-0.3,5.6-0.2,11.2-0.7,16.7c-1.3,12.5,2,24,6.8,35.2c4.4-1.4,4.3-1.4,9.1,1.1
		c0.9,0.5,2,0.9,3,1.1c1.1,0.3,2-0.3,2.2-1.4c0.3-1.5,0.7-3-0.4-4.6c-1,0.9-1.9,1.8-3,2.7c-0.6-0.8-1.1-1.4-1.5-2
		c-0.4-0.6-0.7-1.2-1-1.8c-2.4,2.6-3,3.9-4.9,0.2c-0.6,0.5-1.3,1-2.2,1.8c-0.6-1.1-1.2-2-1.5-2.9c-1.1-4.8-1.1-9.6-0.5-14.4
		c1.2-8.5,5.9-13.8,14.4-15.6c0.6-0.1,1.2-0.3,1.9-0.4c7.1-1.4,13.4-0.1,18.9,4.7c4.4,3.8,7.6,8.5,10.1,13.6
		c1.2,2.6,1.6,5.3,1.1,8.2c-1.2,6.9-4.7,12.3-10.6,16.2c-0.8,0.6-1.8,1-2.9,1.6c-0.4-1.5-0.8-2.6-1.1-3.9c-3.7,1.2-2.5-2.9-4.4-4.1
		c-1.5,0.9-3,1.8-4.8,2.8c-0.5-1.3-0.8-2.4-1.2-3.7c-3.1,1.7-5.3,3.8-5.4,7.5c-0.1,2.9,0,5.8,0,8.7c0,2.2,0.6,4.2,2.5,5.3
		c5.5,3.3,5.5,15.7,1.3,20.6c-1.8,2.2-4.3,2.8-6.9,1.9c-2.2-0.7-3.6-2.3-4.6-4.3c-3.2-6.3-1.6-14.2,3.9-18.7
		c1.1-0.9,1.8-1.9,1.8-3.2c0-3-0.2-6-0.2-9c-0.1-1.9-1.3-2.9-2.9-3.4c-0.8-0.3-1.7-0.5-2.5-0.6c-5.1-0.7-9.6,2.5-10.6,7.5
		c-1.2,6.6-2.4,13.3-3.5,20c-0.6,3.9-1,7.9-1.4,11.8c-0.2,2.5,0.2,2.9,2.6,3.7c1.8,0.6,3.7,1.4,5.6,1.6c5.4,0.5,8.4,3.6,10.5,8.3
		c2.3,5,4.9,9.8,7.3,14.7c1.1,2.2,2.7,3,5.2,2.7c9.5-1,19-1.9,28.5-2.7c15.5-1.4,31-2.8,46.5-4.2c17.6-1.6,35.3-3.3,52.9-4.9
		c4.1-0.4,8.1-0.5,12.2-0.7c0,116.6,0,233.2,0,349.8c-15.6-1.9-31.3-3.9-46.9-5.7c-12.2-1.5-24.5-2.8-36.8-4.1
		c-17.1-1.9-34.1-3.8-51.2-5.5c-15.9-1.5-31.8-2.9-47.8-4.1c-21.2-1.7-42.3-3.4-63.5-4.9c-18.4-1.3-36.8-2.3-55.3-3.2
		c-25.5-1.2-51-2.3-76.5-3.2c-16.7-0.6-33.5-1-50.2-1.2c-43.1-0.6-86.3-0.7-129.4,0.3c-17.9,0.5-35.8,0.9-53.7,1.6
		c-20.4,0.8-40.7,1.9-61.1,2.9c-10.9,0.5-21.9,1-32.8,1.6c-14.5,0.9-28.9,2-43.3,3c-11.7,0.9-23.3,1.7-35,2.7
		c-13.6,1.1-27.1,2.4-40.7,3.7c-12.2,1.1-24.3,2.3-36.5,3.6c-12.6,1.3-25.2,2.7-37.7,4.2c-11.3,1.3-22.6,2.8-33.8,4.2
		C39.5,835.1,28.2,836.4,16.9,837.8z M622.6,779.6c14.6-1.8,29-3.6,43.4-5.3c0-1.3,0-2.1,0-3c-0.1-8.6-0.3-17.2-0.4-25.8
		c0-51.4,0-102.8,0-154.3c0-21.9,0.1-43.8,0.2-65.7c0-1.2-0.1-2.5-0.2-3.8c-17.1,0-33.8,0-50.9,0c3.5,42.6,6.5,85,7.8,127.6
		c-13.3-41.3-24.4-83.2-37.7-124.8c-16.7,2.5-32.8,6.7-49.2,9.7c0,78.6,0,157,0,235.2c3.9,0.6,50.9,1.4,52.6,0.8
		c-2.2-37.1-3.4-74.4-4.3-111.6c0.7,1.4,1.2,2.8,1.7,4.2c5.6,17.9,11,35.9,16.9,53.7c4.6,13.9,9.9,27.7,13.9,41.8
		C618.3,765.3,620.4,772.1,622.6,779.6z M340.9,695.9c6.7,29.1,13.5,58.3,20.3,87.8c19.3-1.5,38.4-3.1,57.7-4.6
		c-0.4-1.3-0.6-2.4-0.9-3.4c-2-6.4-4-12.9-6.1-19.3c-8.3-25.5-16.1-51.1-23-77c-0.5-2-0.3-3.3,1.3-4.7c11.1-10.4,18.4-23.1,21-38.2
		c0.7-3.7,1.2-7.4,1.5-11.2c0.7-10.1,0.9-20.2-0.6-30.2c-3-20.3-12.2-37.6-25.9-52.6c-6.2-6.9-13.8-11.6-23-13.3
		c-5-0.9-10.2-1.6-15.3-1.9c-7.8-0.4-15.7-0.5-23.5-0.6c-10.1-0.1-20.2-0.1-30.3,0c-3.7,0-7.4,0.5-11.6,0.8
		c-0.7,82.3-1.4,164.2-2.2,246c19.3,0,38.1,0,57.3,0c-0.4-26.1-0.8-51.8-1.2-77.7C338.2,695.9,339.4,695.9,340.9,695.9z M139.2,654
		c0.2,7.1,0.4,14.2,0.6,21.2c0.5,14,1.9,27.8,4.7,41.5c2.4,11.9,6,23.5,12.1,34.1c7.9,13.8,19.1,23.3,34.8,26.9c8.5,1.9,17,2,25.6,1
		c17.2-2.1,30.5-10.2,39.4-25.2c4.1-6.9,7-14.2,9.2-21.9c5.5-18.7,7.3-37.9,8.2-57.2c0.9-17.8,0.6-35.6-0.5-53.4
		c-0.8-12.3-1.9-24.6-4.5-36.7c-2.5-11.4-5.9-22.4-12.1-32.4c-7.7-12.4-18.3-21-32.6-24.3c-9.8-2.3-19.7-2.6-29.7-0.9
		c-10.4,1.7-19.3,6.2-26.8,13.6c-6.8,6.7-11.7,14.7-15.4,23.5c-5.6,13.5-8.5,27.6-10.2,42.1C140.1,621.8,139.4,637.8,139.2,654z
		 M867.2,522.2c0,1.3,0,2.1,0,3c0.2,25.8,0.5,51.5,0.7,77.3c0.4,37.7,0.8,75.3,1,113c0.1,12.7-0.5,25.3-0.8,38
		c-0.3,12.7-0.8,25.3-1.1,38c0,0.7,0.1,1.5,0.2,2.2c32.1,2.7,64.1,5.5,96.4,8.2c0.2-24.7,0.3-49,0.5-73.5
		c-13.9-0.9-27.6-1.9-41.4-2.8c-0.8-14-1-27.6-0.8-41.5c12.1-0.1,23.9,0.9,35.6,0.3c0-18.6,0-36.8,0-54.9c-6.3,0-12.3,0-18.3,0
		c-6.1,0-12.2-0.1-18.2-0.2c-0.8-4.6-0.7-40.8,0.2-43.4c14.4-0.7,29-0.2,43.3-1.2c0-24.4,0-48.5,0-73.1
		C931.7,513.7,899.7,518.7,867.2,522.2z M141.9,508c-35.3,0.6-70.5-0.7-105.9-0.5c0,1.2,0,1.9,0,2.7c0.2,14.4,0.5,28.8,0.7,43.1
		c0.5,48.3,1.1,96.6,1.5,144.9c0.3,35.8,0.2,71.7,0.4,107.5c0,1.3,0.1,2.7,0.1,4.3c19.6-4.8,38.7-9.5,57.8-14.2
		c-0.4-36.6-0.7-72.8-1.1-109.3c11.8-0.7,23.2-0.7,34.7-0.2c0-1.3,0-2.3,0-3.2c-0.1-3.9-0.3-7.7-0.2-11.6
		c0.2-15.6,0.6-31.1,0.8-46.7c0-0.8-0.2-1.6-0.3-2.6c-6.1,0.2-12,0.5-17.9,0.6c-6,0.1-12,0-18.1,0c0-15.7,0-31.1,0-47
		c15.8-0.3,31.4-1.2,47.5-0.4C141.9,552.9,141.9,530.7,141.9,508z M502.6,773.2c-0.4-57.2-1.8-114.2-1.2-171.4
		c10-0.5,19.7,0.8,29.7,0c0-21.9,0-43.4,0-64.9c-7.3-2.1-111.9-12-117.2-11.1c0.2,21.5,0.4,43,0.6,64.7c9.8,0,19.5,0,29.5,0
		c0.7,61.2,0.8,122.2,0.5,183.3C464,773.5,483,773.4,502.6,773.2z M828.1,789.3c-0.4-62.4-1.6-124.7-0.9-187.2
		c10.7,0.2,21,0.4,31.3,0.6c0.4-21.5,0.7-42.5,1.1-63.9c-39.6,1.3-79,3-118.4,4.7c0.2,22,0.4,43.5,0.5,65.2c10.6,0,21.1,0,31.9,0
		c0,10.2,0.1,20.3,0.1,30.4c0,10.1,0,20.2,0.1,30.3c0.1,10,0.2,20,0.2,30c0.1,10.1,0.1,20.2,0.2,30.3c0,10.1,0,20.2,0,30.3
		c0,10-0.5,20.1-0.3,30.1C792.1,789.6,809.9,789.4,828.1,789.3z M678,534.3c0.4,83.2,0.8,165.9,1.3,249c19.4,0,38.8,0,58.3,0
		c-0.5-83.3-1-166.1-1.5-249C716.6,534.3,697.4,534.3,678,534.3z M203.7,487.7c0.7-0.5,1.2-0.8,1.6-1.1c7.8-6.4,15.8-12.4,24.5-17.5
		c0.4-0.2,0.7-0.4,1.1-0.7c1.7-1.4,1.7-2.1,0.1-4.4c-0.9,1-1.7,2-2.5,2.9c-1,1.2-2.3,2.1-3.9,1.6c-2.1-0.7-3.7,0.1-5.4,1.2
		c-1.2,0.9-2.4,1.7-3.8,2.7c0.7,3.8-2.5,4.2-4.7,5.6c-0.8-0.8-1.5-1.4-2.2-2c-0.8,1.3-1,1.4-0.6,2.2c1,1.9-0.3,2.8-1.5,3.7
		c-1.3,1-2.6,0.9-3.8-0.2c-0.6-0.5-1.2-1-1.8-1.5C200.8,483,201.9,485.3,203.7,487.7z M624.8,242.3c1,0.5,1.7,0.8,2.4,1.1
		c0.7-0.6,1.4-1.1,2-1.7c1-1.2,0.7-2.5-0.7-3.1c-0.5-0.2-1-0.2-1.6-0.2c-5.7,0-11.4,0-17.1,0c-0.3,0-0.5,0.3-0.9,0.5
		c0.4,0.7,0.7,1.4,1.1,2c3.6,6.1,5,6.7,11.8,4.9C623.5,245.3,624.7,244.5,624.8,242.3z M279.9,444.8c0-0.3,0-0.6-0.1-0.8
		c-1.9-0.4-2.8-1.5-2.8-3.4c0-0.5-0.6-1-1.2-1.9c-0.4,0.9-0.7,1.3-0.7,1.6c0.1,1.2,0.7,2.8,0.2,3.6c-0.5,0.9-2.1,1.2-3.3,1.7
		c-0.5,0.2-1,0.3-1.6,0.5c-0.4-0.6-0.8-1.1-1.1-1.6c-0.3-0.6-0.5-1.3-0.8-1.9c-1.5,0.3-1.3,1.2-1.1,2.1c0.5,2.7,0.5,2.7-2.2,3.7
		c-0.8,0.3-1.5,0.6-1.7,0.7c-2.4-0.1-1.6-2.9-3.9-2.8c0,1.5,0,2.9,0,4.3c-2.7,1.1-5,3.1-7.4-0.2c0.1,1.2,0.3,2.4,0.4,3.7
		c-1.1,0.6-2.1,1.2-3.2,1.7c-1.9,0.9-2.2,0.8-3.2-1.2c-0.4-0.8-0.7-1.6-1.9-1.1c-0.4,2.1-0.1,4.1,1.6,6c0.9-0.3,1.8-0.6,2.7-1
		c9.6-4.1,19.3-8.2,28.9-12.3C278.4,445.8,279.2,445.3,279.9,444.8z M632.8,245.3c-0.3,0.3-0.7,0.4-0.9,0.8
		c-1.8,3.1-3.7,6.2-5.4,9.4c-2.6,5.1-1.5,9.5,3.4,13.7c0.4-1.9,0.8-3.6,1.1-5.3c1-5,2.1-10,3.1-15
		C634.4,247.5,634.6,246.1,632.8,245.3z M222.1,464.4c-2-2.9-3.7-5.5-5.5-8c-0.8-1.1-1.9-1.9-3.3-1.1c-1.4,0.8-2.7,1.8-3.7,2.9
		c-0.5,0.5-0.6,1.6-0.4,2.3c0.7,1.9,1.4,3.8,2.4,5.6c1,1.8,2,2.2,4,1.3C217.6,466.7,219.6,465.6,222.1,464.4z M586.8,271.6
		c-3.4,0.8-5.6,2.9-6.4,6.1c-1.1,4.5,1,8,3.9,11.9c0.9-5.9,1.7-11.1,2.5-16.4C586.8,272.7,586.8,272.1,586.8,271.6z M655.9,367
		c3.3-0.2,6.2,1.5,9.6,0.5c-0.9-2.2-1.7-4.3-2.7-6.3c-0.9-1.8-2.5-2.5-4.3-2.1c-1.7,0.4-2.4,1.7-2.6,3.3
		C655.8,363.9,655.9,365.3,655.9,367z M652.4,366.4c-0.3-2.5-0.5-4.3-0.8-6.2c-0.4-2.4-1.4-2.8-3.6-1.8c-2.8,1.3-4.1,4-6.4,6.6
		C645.3,365.5,648.5,365.9,652.4,366.4z M228.4,461.5c0.6-1.2,1.2-1.8,1.1-2.2c-1.5-3.9-3-7.7-5.2-11.6c-1.2,1-2.2,1.8-3.4,2.7
		C223.3,454,225.6,457.4,228.4,461.5z M625.3,247.1c-1.1,0.6-2.1,1.2-3.1,1.8c-4.8,2.8-4.9,3.6-0.6,7.8c1.1-1.5,2.2-2.9,3.3-4.3
		c0.6-0.8,1.2-1.5,1.7-2.3C627.3,248.8,626.8,247.9,625.3,247.1z M324.2,322c0.2-0.1,0.4-0.2,0.7-0.3c0-1.5,0.1-3,0-4.5
		c-0.2-4.3-1.6-5.3-5.8-4c-0.5,0.1-0.9,0.4-1.6,0.7C319.9,316.8,322.1,319.4,324.2,322z M806.3,373.7c-0.3-0.6-0.3-0.9-0.5-1.1
		c-1.9-2.5-3.1-5-1.6-8.3c0.6-1.4-0.4-1.8-1.7-2.1c-1.5,2-1.8,4.2-1.6,6.4C801.2,372.5,801.9,373.1,806.3,373.7z M835.8,457.7
		c-0.3-1.2-0.4-2.4-0.8-3.5c-0.6-1.3-2.1-1.3-2.7,0c-1,2.4-1.1,4.8,0.1,7.1c0.6,1.2,1.9,1.2,2.5,0
		C835.4,460.3,835.5,459,835.8,457.7z M242.4,449.8c1.8,0,2.2-0.8,1.8-2.1c-0.7-2.3-1.4-4.7-2.3-7c-0.2-0.5-0.8-0.9-1.3-1.5
		c-0.4,0.7-0.9,1.2-0.8,1.5C240.6,443.9,241.5,446.9,242.4,449.8z M203.2,463.5c-1.7,0.1-2.4,0.8-1.9,1.9c1.1,2.3,2.4,4.5,3.6,6.8
		c0.2,0.3,0.9,0.4,1.3,0.5c0.2-0.5,0.7-1.2,0.5-1.6C205.6,468.5,204.3,466,203.2,463.5z M274.1,435.7c0.8-0.8,1.6-1.3,1.5-1.6
		c-0.5-2.9-0.5-5.9-1.9-8.4c-1.6,0.3-1.9,1.2-1.7,2.2C272.6,430.4,273.3,432.8,274.1,435.7z M249.9,435.9c-1.8,0.3-2,1.2-1.6,2.4
		c0.6,2.1,1.2,4.3,2,6.4c0.2,0.5,0.7,0.8,1.1,1.2c0.2-0.1,0.4-0.2,0.7-0.3C252,442.3,250.8,439.2,249.9,435.9z M280.5,422.1
		c-0.2,3.7,0.8,6.5,1.7,9.5c1.6-1.3,1.6-1.3,1.6-2C283.6,426.8,282.4,423.5,280.5,422.1z M257.1,432.8c-0.3,0.1-0.5,0.1-0.8,0.2
		c0.3,1.6,0.5,3.3,1,4.8c0.5,1.5,0.1,3.6,2,4.6C260.1,439.6,258.8,434.3,257.1,432.8z M591.6,289.6c0.2,0,0.4,0,0.6,0
		c0.2-1.8,0.6-3.5,0.6-5.3c0-2-0.7-2.4-3.2-1.9C590.3,284.8,590.9,287.2,591.6,289.6z M265,429.7c-0.7,2.9,0.6,7.6,2.5,8.8
		C267,435.5,266.8,432.4,265,429.7z M190.3,481c0-2.8-1.8-4.6-3.7-6.3C186.7,477.5,188.3,479.3,190.3,481z M233,450
		c0.2-2.3,0.3-4.5-1.8-6.8C230.4,446.2,232,448,233,450z M193,484.6c-0.3,0.2-0.6,0.3-0.8,0.5c1.1,1.8,2.2,3.6,3.4,5.4
		C195.4,488.1,194.7,486.1,193,484.6z M196,470.4c-0.2,0.1-0.4,0.3-0.6,0.4c0.5,1.9,1.2,3.6,2.6,5c0.2-0.1,0.4-0.2,0.6-0.3
		C197.7,473.8,196.9,472.1,196,470.4z M289.1,422.1c0.4-1.3,0.8-2,0.8-2.6c0-0.3-0.5-0.7-0.8-1.1c-0.3,0.4-0.8,0.7-0.8,1.1
		C288.3,420.2,288.6,420.8,289.1,422.1z M284.8,434.9c-1.7,1.3-1.7,1.3-0.9,3.1C284.2,436.9,284.5,436.2,284.8,434.9z"/>
	<path d="M335.5,582.8c6.3-0.6,10.7,1.5,13.8,6.2c2.3,3.4,3.6,7.3,4.5,11.3c2.4,11.1,2.6,22.3,0.6,33.6c-0.8,4.5-2.3,8.7-5.4,12.2
		c-3.3,3.8-7.5,5.7-12.5,5.5C336.2,628.8,335.8,606,335.5,582.8z"/>
	<path d="M215.9,649c-0.3,20.2-0.4,35.6-0.9,50.9c-0.2,8.2-0.5,16.5-2.4,24.6c-0.4,1.5-0.8,3.1-1.6,4.5c-1.9,3.2-5.5,3.4-7.7,0.5
		c-1.1-1.4-1.8-3.2-2.1-4.9c-0.8-4.9-1.7-9.7-1.9-14.7c-0.6-13.4-1.2-26.8-1.3-40.2c-0.2-18-0.1-36.1,0.2-54.1
		c0.2-9.6,1-19.3,1.7-28.9c0.1-2.1,0.7-4.2,1.4-6.3c0.4-1.3,1.2-2.6,2.1-3.5c2-2.1,5.1-2,6.8,0.2c1.2,1.6,2.2,3.5,2.5,5.5
		c0.9,4.8,1.7,9.7,1.9,14.7C215.2,616.1,215.6,635,215.9,649z"/>
</g>
</svg>
