<?xml version="1.0" encoding="utf-8"?>
<!-- Generator: Adobe Illustrator 24.1.3, SVG Export Plug-In . SVG Version: 6.00 Build 0)  -->
<svg version="1.1" id="Layer_1" xmlns="http://www.w3.org/2000/svg" xmlns:xlink="http://www.w3.org/1999/xlink" x="0px" y="0px"
	 viewBox="0 0 1000 1000" style="enable-background:new 0 0 1000 1000;" xml:space="preserve">
<style type="text/css">
	.st0{fill:#FFFFFF;}
	.st1{fill:#FFA41A;}
</style>
<path d="M866.6,958H133.4C82.9,958,42,917.1,42,866.6V133.4C42,82.9,82.9,42,133.4,42h733.3c50.5,0,91.4,40.9,91.4,91.4v733.3
	C958,917.1,917.1,958,866.6,958z"/>
<g>
	<path class="st0" d="M705.7,425.5c0.8,0,1.4,0,2.1,0c19.8,0,39.5,0,59.3,0c9.9,0,19.5,1.7,28.4,6.2c13.2,6.6,20.5,17.5,22.6,32
		c1.5,9.9,0.8,19.5-3.2,28.8c-5.3,12.4-14.7,20.2-27.9,23.3c-0.5,0.1-1,0.2-1.8,0.4c11.6,15.1,23,30,34.7,45.2c-1.2,0-2.2,0-3.3,0
		c0,2.3,0,4.4,0,6.6c-1.1,0-2,0-3,0c-0.1-0.8-0.1-1.6-0.2-2.5c-0.8,0-1.4,0-2.4,0c0,1.5,0,3.1,0,4.7c-0.9,0-1.5,0-2.2,0
		c-0.1-1.1-0.1-2.2-0.2-3.5c-1.8,0-3.5,0-5.3,0c-0.2,1.5-0.5,3.1-0.7,4.6c0,0-0.5-0.1-0.9-0.1c0-3.4,0-6.7,0-10.1
		c-3.2,0-6.3,0-9.6,0c0,4.1,0,8.1,0,12.3c-1.1,0-2,0-3.1,0c0-1.5,0-2.9,0-4.6c-1.3-0.1-2.4-0.1-3.8-0.2c0-3.2,0-6.2,0-9.5
		c-0.8-0.1-1.3-0.1-2.1-0.2c0,1.6,0,3.1,0,4.7c-0.9,0-1.5,0-2.4,0c0-2.4,0.1-4.7,0-7c-0.1-1.9-0.6-3.8-1-5.7
		c-0.1-0.3-0.6-0.8-0.9-0.8c-0.3,0-0.8,0.5-0.9,0.8c-0.4,2-0.9,4-1,6c-0.2,2.2,0,4.4,0,6.6c-1.7,0.4-2.8,0.4-3.9-1.3
		c-8.6-13.6-17.2-27-25.8-40.6c-0.3-0.5-0.7-1.1-1.4-1.5c0,19.5,0,39.1,0,58.7c-1,0-1.8,0-2.6,0c-0.1-0.9-0.2-1.8-0.3-2.8
		c-2.2,0-4.4,0-6.8,0c0-1.8,0-3.4,0-5.3c-2.8,0-5.4,0-8.2,0c0-1.8,0-3.5,0-5.2c-5.5,0-10.8,0-16.2,0c-0.1,1-0.1,2-0.2,3.2
		c-0.8,0.1-1.5,0.2-2.5,0.4c0,3.2,0,6.4,0,9.7c-1.1,0-2,0-3.1,0C705.7,527.8,705.7,476.8,705.7,425.5z M745.7,494.2
		c6.3,0.1,12.4,0.1,18.4-1.7c8.6-2.6,12.7-8,13-17c0.2-8.9-3.9-14.8-12.4-17.6c-6.1-2-12.4-2.1-18.7-1.9c-0.1,0-0.2,0.1-0.3,0.2
		C745.7,468.9,745.7,481.5,745.7,494.2z"/>
	<path class="st0" d="M270.7,568.8c-1.4-0.1-2.5-0.1-3.8-0.2c0-3.2,0-6.3,0-9.5c-0.8,0-1.3,0-2.1,0c0,1.6,0,3,0,4.6
		c-0.8,0-1.5,0-2.3,0c0-2.3,0.1-4.6,0-6.9c-0.2-2-0.6-3.9-1.1-5.9c-0.1-0.3-0.6-0.8-0.9-0.8c-0.3,0-0.7,0.5-0.8,0.8
		c-1.1,2.6-1.2,5.4-1.1,8.2c0.1,1.5,0,2.9,0,4.5c-1.7,0.4-2.9,0.3-3.9-1.4c-8.6-13.6-17.3-27.1-25.9-40.7c-0.3-0.5-0.6-0.9-1.3-1.8
		c0,20,0,39.5,0,59.2c-1,0-1.8,0-2.7,0c-0.1-0.8-0.1-1.7-0.2-2.8c-2.3,0-4.5,0-6.9,0c0-1.8,0-3.5,0-5.3c-2.8,0-5.4,0-8.2,0
		c0-1.8,0-3.5,0-5.2c-5.5,0-10.7,0-16.2,0c0,1,0,2.1,0,3.2c-0.9,0.1-1.6,0.2-2.6,0.3c0,3.2,0,6.4,0,9.8c-1.1,0-2.1,0-3.2,0
		c0-51.1,0-102.2,0-153.4c0.5,0,1.1-0.1,1.6-0.1c20.1,0,40.1-0.1,60.2,0c10.4,0.1,20.5,2,29.8,7.1c10.1,5.6,16.8,14,19.6,25.2
		c3.1,12.3,2.8,24.4-2.6,36.1c-5.4,11.7-14.6,18.9-27.1,21.8c-0.6,0.1-1.1,0.3-1.9,0.5c11.6,15.1,23,30,34.7,45.2
		c-1.3,0.1-2.2,0.1-3.4,0.2c0,2.2,0,4.3,0,6.5c-1,0-1.9,0-2.8,0c-0.1-0.8-0.1-1.5-0.2-2.4c-0.8,0-1.6,0-2.5,0c0,1.5,0,3,0,4.6
		c-0.8,0-1.4,0-2.2,0c0-1.1,0-2.2,0-3.4c-1.9,0-3.7,0-5.4,0c-1,1.5,0.7,3.7-1.7,5.1c0-3.8,0-7.1,0-10.6c-3.2,0-6.2,0-9.5,0
		c0,4,0,8.1,0,12.3c-1.2,0-2.1,0-3.2,0C270.7,572,270.7,570.5,270.7,568.8z M227.5,494.2c6.2,0.1,12.2,0.1,18-1.6
		c8.3-2.4,12.4-7.2,13.3-15.6c0.8-7.8-2.4-14.4-8.8-17.6c-7.1-3.6-14.8-3.4-22.5-3.4C227.5,468.8,227.5,481.4,227.5,494.2z"/>
	<path class="st0" d="M906,425.6c0,11.2,0,22.2,0,33.4c-13.7,0-27.4,0-41.3,0c0,9.5,0,18.8,0,28.3c13.1,0,26.2,0,39.4,0
		c0,11.3,0,22.4,0,33.7c-13.1,0-26.2,0-39.4,0c0,9.1,0,17.9,0,26.9c14,0,27.9,0,41.9,0c0,5.5,0,10.8,0,16.2c-0.5,0-0.9,0-1.5,0
		c0-1.4,0.1-2.7-0.1-4.1c-0.1-0.5-0.6-1.3-1.1-1.5c-1.5-0.6-3-1.1-4.5-1.4c-0.6-0.2-1.4-0.1-2,0.1c-1.7,0.5-4.1,0.6-5,1.8
		c-0.9,1.2-0.3,3.5-0.4,5.3c0,0.9,0,1.9,0,2.9c-1.8,0-3.4,0-5.2,0c0-1.2,0-2.4,0-3.8c-0.7-0.1-1.3-0.1-2.1-0.2c0,1.4,0,2.6,0,3.9
		c-0.8,0.1-1.4,0.2-2.1,0.3c0,2.5,0,5,0,7.7c-0.7,0-1.2,0.1-1.8,0.1c-0.1-0.7-0.2-1.2-0.3-1.9c-3.4,0-6.7,0-10.2,0
		c0,1.3,0,2.6,0,3.9c-2.9,0-5.7,0-8.7,0c0-3.5,0-6.9,0-10.5c-2.7,0-5.2,0-7.8,0c-0.1,0.5-0.2,1-0.3,1.6c-1.2,0-2.4,0-3.6,0
		c-0.1,0.7-0.2,1.3-0.3,2.1c-1.3,0-2.5,0-3.9,0c-0.1,1-0.1,1.8-0.2,2.6c-1,0.2-1,0.2-1.6-4.6c-3.4,0-6.8,0-10.3,0c0,2.9,0,5.8,0,8.8
		c-2.8,0-5.5,0-8.3,0c0-50.6,0-101.2,0-151.8C852.1,425.6,879,425.6,906,425.6z"/>
	<path class="st0" d="M306.9,425.6c27,0,53.9,0,80.9,0c0,11.1,0,22.2,0,33.4c-13.7,0-27.4,0-41.2,0c0,9.5,0,18.8,0,28.3
		c13,0,26.1,0,39.3,0c0,11.3,0,22.4,0,33.7c-13.1,0-26.2,0-39.3,0c0,9,0,17.9,0,26.9c14,0,27.9,0,41.9,0c0,5.5,0,10.8,0,16.2
		c-0.5,0-1,0-1.6,0c0-0.9,0-1.7,0-2.5c0-2.7-0.1-2.5-2.5-3.6c-3.5-1.7-6.6-0.3-9.8,0.7c-0.4,0.1-0.7,0.9-0.7,1.3
		c-0.1,2.4,0,4.8,0,7.3c-1.8,0-3.4,0-5.2,0c0-1.3,0-2.5,0-3.8c-0.8,0-1.4,0-2.2,0c0,1.3,0,2.5,0,3.8c-0.7,0.1-1.3,0.1-2.1,0.2
		c0,2.5,0,5,0,7.5c-1.9,0.8-1.9-0.4-1.9-1.6c-3.4,0-6.8,0-10.4,0c-0.1,1.3-0.1,2.5-0.2,3.9c-2.9,0-5.6,0-8.5,0c0-3.5,0-7,0-10.5
		c-2.7,0-5.1,0-7.7,0c-0.1,0.4-0.2,0.9-0.4,1.6c-1.1,0-2.3,0-3.6,0c-0.1,0.8-0.2,1.4-0.3,2.1c-1.3,0-2.6,0-4,0
		c-0.1,1-0.1,1.8-0.2,2.6c-0.9,0.2-0.9,0.2-1.8-4.6c-3.3,0-6.7,0-10.2,0c0,2.9,0,5.8,0,8.8c-2.9,0-5.6,0-8.4,0
		C306.9,526.8,306.9,476.3,306.9,425.6z"/>
	<path class="st0" d="M399.6,425.6c27,0,53.9,0,80.8,0c0,11.1,0,22.2,0,33.4c-13.7,0-27.4,0-41.2,0c0,9.5,0,18.8,0,28.3
		c13.1,0,26.1,0,39.3,0c0,11.3,0,22.4,0,33.6c-13.1,0-26.1,0-39.3,0c0,9,0,17.9,0,26.9c13.9,0,27.8,0,41.9,0c0,5.5,0,10.8,0,16.2
		c-0.5,0-0.9,0-1.5,0c0-1.2-0.1-2.3,0-3.4c0.2-1.4-0.5-1.9-1.8-2.5c-3.6-1.7-7-1.1-10.3,0.3c-0.5,0.2-1,1-1,1.5
		c-0.1,2.3,0,4.7,0,7.2c-1.8,0-3.4,0-5.2,0c0-1.2,0-2.4,0-3.8c-0.7,0-1.3-0.1-2.1-0.1c0,1.3,0,2.6,0,3.9c-0.8,0.1-1.3,0.1-2.1,0.2
		c0,2.5,0,5,0,7.7c-0.7,0.1-1.1,0.1-1.8,0.2c-0.1-0.7-0.2-1.2-0.3-1.9c-3.4,0-6.8,0-10.3,0c0,1.3,0,2.5,0,3.9c-2.9,0-5.7,0-8.6,0
		c0-3.5,0-6.9,0-10.4c-2.6,0-5.1,0-7.7,0c-0.1,0.4-0.2,0.9-0.4,1.6c-1.1,0-2.3,0-3.5,0c-0.1,0.7-0.2,1.3-0.4,2.1c-1.3,0-2.6,0-3.5,0
		c-1.2,0.9,0.5,3.1-2.1,2.7c0-1.5,0-3.1,0-4.8c-3.5,0-6.8,0-10.4,0c0,2.9,0,5.8,0,8.8c-2.9,0-5.6,0-8.4,0
		C399.6,526.8,399.6,476.3,399.6,425.6z"/>
	<path class="st0" d="M132.8,569.6c-1.2,0-2,0-3,0c0,4.4,0,8.7,0,13.1c-0.9,0-1.6,0-2.4,0c0-1.7,0-3.2,0-5.3c-2,0.3-3.7,0.5-5.4,0.9
		c-2.6,0.5-1.5,2.8-1.9,4.4c-0.7,0-1.4,0-2.3,0c0-2.3,0-4.5,0-6.7c0-2.5,0-5.1,0-7.6c0-3.4-1.4-4.8-4.8-4.7c-1.7,0-3.6-0.6-5.2,1.1
		c0-2.2,0-4.4,0-6.6c0-2.2,0-4.5,0-6.9c-2.1,0-4.1,0-6.2,0c0-1.3,0-2.5,0-3.8c-1.1,0-2.1,0-2.9,0c-1.2-1.7,0.6-4.2-1.1-5.5
		c-0.3,0.1-0.5,0.1-0.8,0.2c0,1.7,0,3.5,0,5.3c-1.3,0-2.3,0-3.4,0c0-40.5,0-80.9,0-121.4c29,0,57.9,0,86.9,0c0,12,0,24,0,36.2
		c-15.7,0-31.5,0-47.4,0c0,8.6,0,17,0,25.6c14.3,0,28.5,0,42.9,0c0,11.1,0,21.9,0,33c-14.3,0-28.5,0-43,0
		C132.8,537,132.8,553.2,132.8,569.6z"/>
	<path class="st0" d="M522.1,425.9c28.9,0,57.8,0,86.7,0c0,12.1,0,24.1,0,36.3c-15.8,0-31.5,0-47.3,0c0,8.6,0,17,0,25.6
		c14.3,0,28.6,0,42.9,0c0,11,0,21.8,0,32.8c-14.3,0-28.5,0-43,0c0,16.4,0,32.6,0,48.9c-1.1,0.1-2,0.1-3.1,0.2c0,4.3,0,8.6,0,13
		c-0.9,0-1.5,0-2.4,0c0-1.6,0-3.2,0-5.3c-2,0.3-3.7,0.6-5.4,0.9c-2.6,0.5-1.6,2.7-1.9,4.4c-0.7,0-1.3,0-2.2,0c0-0.6-0.1-1.2-0.1-1.8
		c0-4.4,0-8.8,0-13.3c0-2.2-1.7-3.9-4-3.9c-0.6,0-1.2-0.1-1.8,0c-1.3,0.2-2.6,0.5-4,0.7c0-4.1,0-8.5,0-13.1c-2.2,0-4.1,0-6.3,0
		c0-1.4,0-2.6,0-3.9c-1.1,0-2,0-3.2,0c0-1.8,0-3.4,0-5.3c-0.7,0-1.2-0.1-1.8-0.1c0,1.8,0,3.5,0,5.3c-1.1,0-2.1,0-3.2,0
		C522.1,506.9,522.1,466.5,522.1,425.9z"/>
	<path class="st1" d="M631.4,518.6c3,0,5.7,0.1,8.4,0c0.8,0,1.6-0.3,2.2-0.8c2.1-1.6,4.1-3.2,6-5c0.6-0.5,1.1-1.5,1.1-2.3
		c0.2-2.1,0.1-4.2,0.1-6.8c-2.8,2.3-5.3,4.3-8,6.5c-0.3-2.1-0.4-3.7,1.6-4.9c1.9-1.3,3.6-2.8,5.3-4.4c0.6-0.6,1-1.5,1.1-2.3
		c0.1-2.1,0-4.2,0-6.8c-2.8,2.3-5.3,4.3-7.9,6.5c-0.3-2-0.5-3.6,1.5-4.9c2-1.3,3.7-2.9,5.5-4.5c0.5-0.5,0.9-1.3,1-2.1
		c0.1-2.2,0-4.3,0-6.9c-2.8,2.3-5.3,4.3-7.9,6.5c-0.3-2-0.5-3.6,1.5-4.9c2-1.3,3.8-3,5.6-4.6c0.4-0.3,0.8-0.8,0.8-1.2
		c0.1-2.4,0-4.8,0-7.6c-2.8,2.3-5.3,4.3-7.9,6.4c-0.4-1.8-0.5-3.2,1.2-4.2c0.6-0.3,1-0.9,1.5-1.2c4.8-2.7,6.4-6.7,4.8-12.2
		c-2.4,1.9-4.9,4-7.7,6.3c0-0.9,0-1.5,0-2c0-8.7,0-17.3,0-26c0-0.6-0.1-1.2,0.1-1.8c2.5-8,5.1-15.9,10.2-22.8
		c3.3-4.5,7.3-8.4,11.9-11.5c0.3-0.2,0.7-0.4,1.3-0.7c0.7,2.8,1.3,5.5,1.9,8.1c1.8,8,3.7,16,5.5,23.9c0.3,1.1,0.4,2.3,0.4,3.5
		c0,27.4,0,54.9,0,82.3c0,0.7,0,1.4,0,2.3c3.3,0,6.4,0,9.8,0c0,2.7,0,5.1,0,7.6c0,0.5-0.5,1-0.9,1.4c-2.6,2.7-5.2,5.3-7.9,7.9
		c-0.8,0.8-1.1,1.7-1.1,2.8c0,13.2,0,26.3,0,39.5c0,1.2-0.3,2.1-1.2,2.9c-2.5,2.4-4.9,4.9-7.7,7.2c0-9,0-18,0-27
		c-1.9-0.6-2.8-0.2-3.8,1.4c-1.6,2.7-2.2,5.4-2.1,8.5c0.2,9,0.1,18,0.2,27.1c0,1.2,0,2.5,0,3.8c-2.6-0.7-3.5-1.8-3.5-4.2
		c0-6.5,0-13.1,0-19.6c0-3.8,0-3.8-3.1-6.4c-2.1,1.7-4.1,3.3-3.4,6.5c0.1,0.3,0,0.7,0,1.1c0.4,3.9-1.4,4.5-4.8,4c0-1.6,0.1-3.3,0-5
		c-0.1-0.8-0.6-1.6-0.9-2.3c-0.3-0.8-0.7-1.6-0.7-2.4c0-11.7-0.1-23.4,0-35c0-1.2-0.4-2.1-1.2-2.9c-2.5-2.5-5-5-7.5-7.6
		c-0.5-0.6-0.9-1.5-1-2.3C631.3,523.2,631.4,521,631.4,518.6z"/>
</g>
</svg>
