<?xml version="1.0" encoding="utf-8"?>
<!-- Generator: Adobe Illustrator 27.8.0, SVG Export Plug-In . SVG Version: 6.00 Build 0)  -->
<svg version="1.1" id="Layer_1" xmlns="http://www.w3.org/2000/svg" xmlns:xlink="http://www.w3.org/1999/xlink" x="0px" y="0px"
	 viewBox="0 0 1000 1000" style="enable-background:new 0 0 1000 1000;" xml:space="preserve">
<style type="text/css">
	.st0{fill:#05A77D;}
	.st1{fill:#FFFFFF;}
</style>
<rect class="st0" width="1000" height="1000"/>
<g id="Group_4713" transform="translate(0 0.002)">
	<path id="Path_905" class="st1" d="M225.7,427.9c0,6.2-1.1,10.9-3.3,13.9c-2.9,3.6-6.5,6.6-10.6,8.8c-3.4,1.9-7,3.4-10.6,4.7
		c-4.6,1.6-9.2,2.9-14,3.9c-5.3,1.1-10.6,2-15.9,2.6c-5.5,0.6-11,0.9-16.5,0.9c-13.9,0.1-27.7-1.9-41-5.9
		c-12.2-3.6-23.5-9.7-33.2-17.8c-9.6-8.2-17.2-18.3-22.3-29.8c-5.5-11.9-8.2-25.7-8.2-41.4c0-16.5,3-30.9,9-43.2
		c5.6-11.8,13.7-22.3,23.7-30.7c9.9-8.2,21.4-14.4,33.7-18.3c12.6-4,25.8-6.1,39-6c19.2,0,34.4,3.1,45.7,9.2
		c11.2,6.1,16.8,14.2,16.8,24c0.1,4.8-1.3,9.6-3.9,13.6c-2.4,3.6-5.5,6.7-9.1,9.1c-6.1-3.5-12.4-6.5-19-8.9
		c-8.2-3-16.9-4.5-25.6-4.4c-17,0-30.5,4.8-40.5,14.5c-10,9.7-15,23.1-15,40.2c-0.2,8.2,1.2,16.4,4.1,24c2.4,6.3,6.2,12,11.1,16.6
		c4.6,4.3,10.1,7.6,16.1,9.7c6.2,2.1,12.8,3.2,19.4,3.2c4,0,7.9-0.4,11.8-1.2c2.7-0.6,5.4-1.5,7.9-2.7V388h-32.5
		c-1.4-2.8-2.6-5.7-3.5-8.8c-1.1-3.7-1.7-7.6-1.7-11.5c0-7.3,1.7-12.5,5-15.7c3.5-3.3,8.1-5,12.9-4.8h51.3c6.1,0,10.8,1.7,14.1,5
		s5,8,5,14.1L225.7,427.9z M241.2,270.1c-0.2-7.2,2.6-14.2,7.7-19.4c5.2-5.2,12-7.9,20.5-7.9s15.3,2.6,20.5,7.9
		c5.1,5.1,7.9,12.1,7.7,19.4c0.2,7.2-2.6,14.2-7.7,19.4c-5.2,5.2-12,7.9-20.5,7.9s-15.3-2.6-20.5-7.9
		C243.8,284.3,241,277.3,241.2,270.1z M295.2,457.6c-2.2,0.4-5.5,1-9.9,1.7c-4.4,0.7-8.8,1.1-13.2,1.1c-4,0-8-0.3-12-0.9
		c-3.2-0.5-6.3-1.7-9-3.6c-2.5-1.9-4.4-4.5-5.6-7.4c-1.5-3.9-2.1-8.1-2-12.2V313c2.2-0.4,5.5-1,9.9-1.7c4.4-0.7,8.8-1.1,13.2-1.1
		c4,0,8,0.3,12,0.9c3.2,0.5,6.3,1.7,9,3.6c2.5,1.9,4.4,4.5,5.6,7.4c1.5,3.9,2.1,8.1,2,12.2L295.2,457.6z M314.3,310.9
		c0-10.3,1.8-19.1,5.3-26.5c3.3-7.1,8.3-13.3,14.4-18.1c6.4-4.9,13.6-8.4,21.4-10.4c8.6-2.3,17.4-3.4,26.2-3.3c15,0,26,2,33.1,5.9
		c7.1,3.9,10.6,10.6,10.6,20.1c0,6.9-3,13.6-8.2,18.1c-3.8-1-7.8-1.9-12-2.6c-4.8-0.8-9.6-1.1-14.4-1.1c-8.7,0-15.5,1.5-20.3,4.4
		c-4.9,2.9-7.3,8-7.3,15.3v9.7h83.7c1.2,2.2-1.1,6.3,0,9.6c1.1,3.3,0,5.7,0,9.7c0,7.1,3.1,11.1,0,14.2c-3.1,3.1-6.9,5.8-12.1,5.8
		h-68.9v95.9c-3.1,0.8-6.3,1.4-9.6,1.8c-4.5,0.6-9,0.9-13.5,0.9c-4,0-8-0.3-12-0.9c-3.2-0.5-6.3-1.7-9-3.6c-2.5-1.9-4.4-4.5-5.6-7.4
		c-1.5-3.9-2.1-8.1-2-12.2L314.3,310.9z M480,407.4c0,5.2,1.7,9,5,11.2c3.3,2.2,8,3.3,14.1,3.3c3.2,0,6.3-0.3,9.4-0.8
		c2.9-0.4,5.7-1.1,8.5-2c1.9,2.3,3.4,4.8,4.7,7.4c1.4,3.1,2.1,6.4,2,9.8c0.2,7.3-3,14.2-8.6,18.7c-5.8,4.8-15.9,7.3-30.5,7.3
		c-17.8,0-31.5-4-41.1-12.1S429,429.1,429,411V281.6c2.2-0.6,5.4-1.3,9.6-2c4.4-0.7,8.8-1.1,13.2-1.1c8.9,0,15.8,1.6,20.8,4.7
		c5,3.1,7.4,9.7,7.4,19.8v19.4h39.8c1.4,2.7,2.6,5.4,3.5,8.3c1.2,3.6,1.7,7.3,1.7,11c0,7.1-1.6,12.1-4.7,15.3
		c-3.1,3.1-7.3,4.7-12.6,4.7H480L480,407.4z M713,412.8c-3,2.4-6.5,4.2-10.2,5.3c-4.7,1.4-9.5,2-14.4,2c-6.1,0.2-12.2-0.7-18.1-2.7
		c-4.4-1.5-7.9-4.9-9.3-9.4c-5.7-17.7-10.3-32.1-14-43.1s-6.5-20.6-8.5-28.9h-1.5c-0.6,11.9-1.1,22.7-1.4,32.5
		c-0.3,9.8-0.5,19.3-0.6,28.6c-0.1,9.3-0.3,18.6-0.6,28.1c-0.3,9.5-0.8,20-1.4,31.4c-3.3,1.2-6.8,2.1-10.3,2.6
		c-4.2,0.7-8.5,1.1-12.7,1.1c-8.9,0-15.8-1.4-20.8-4.2c-5-2.8-7.4-8-7.4-15.4l8.8-154.2c1.6-2.6,5.2-5.4,10.6-8.5
		c5.5-3,13.1-4.5,23.1-4.5c10.7,0,19.1,1.7,25.2,5c6.1,3.3,10.5,8.7,13.4,16.2c1.8,4.8,3.8,10.4,5.9,16.6c2.1,6.2,4.2,12.7,6.4,19.4
		c2.1,6.7,4.2,13.3,6.2,19.8l5.5,17.7h1.5c4.9-16.9,9.7-33.3,14.6-49.1s9.3-29.1,13.3-39.8c3.7-1.9,7.6-3.2,11.7-4.1
		c5.2-1.2,10.6-1.7,15.9-1.7c9.9,0,18,1.5,24.3,4.4c6.3,2.9,9.9,7.1,10.9,12.5c0.8,4,1.7,10.2,2.6,18.6s1.9,17.8,2.9,28.3
		c1,10.5,2,21.6,3,33.3c1,11.7,2,22.9,2.9,33.7c0.9,10.8,1.7,20.7,2.3,29.6s1,15.9,1.2,20.7c-3.4,2-7,3.5-10.8,4.4
		c-4.7,1-9.6,1.5-14.4,1.4c-7.7,0-14.2-1.3-19.4-3.9c-5.3-2.6-8.1-7.8-8.5-15.4c-1.2-22-2-41.7-2.3-59.3
		c-0.3-17.5-0.8-32.3-1.4-44.2h-1.5c-2,7.9-5,17.7-8.8,29.6C723.1,379,718.5,394.3,713,412.8L713,412.8z M886.3,462.7
		c-11.3,0.1-22.5-1.6-33.2-5c-9.8-3.1-18.9-8.2-26.7-15c-7.8-6.9-13.9-15.5-17.9-25.1c-4.3-10.1-6.5-21.9-6.5-35.4
		c0-13.3,2.2-24.7,6.5-34.3c3.9-9,9.8-17.1,17.1-23.6c7.1-6.1,15.3-10.8,24.3-13.6c9-2.9,18.4-4.4,27.9-4.4
		c10-0.1,19.9,1.5,29.3,4.8c8.4,3,16.1,7.5,22.8,13.3c6.3,5.6,11.4,12.5,14.9,20.3c3.6,8.1,5.4,16.9,5.3,25.7
		c0,6.9-1.9,12.1-5.8,15.7c-3.8,3.6-9.2,5.9-16.1,7l-74.9,11.2c2.3,6.7,7.2,12.1,13.7,15c7.4,3.4,15.5,5.1,23.7,5
		c7.9,0,15.9-1,23.5-3.2c6.3-1.7,12.4-4.2,18.1-7.4c3.4,2.1,6.2,5,8.2,8.5c2.2,3.4,3.3,7.4,3.3,11.5c0,9.1-4.2,15.8-12.7,20.3
		c-6.8,3.5-14.2,5.9-21.8,7C901.5,462.1,893.9,462.7,886.3,462.7z M877.8,343.9c-4.3-0.1-8.6,0.7-12.6,2.4c-3.3,1.4-6.2,3.5-8.6,6.2
		c-2.2,2.5-3.9,5.3-5,8.5c-1.1,3.1-1.8,6.3-2,9.5l51.9-8.5c-0.6-4-2.8-8.1-6.7-12.1C890.9,345.9,885.3,343.9,877.8,343.9z"/>
	<path id="Path_904" class="st1" d="M152.9,556.9c-15.6,0-27.5,4.7-35.8,14.2c-8.3,9.5-12.4,22.9-12.4,40.2c0,17.5,4.6,31,13.8,40.5
		c9.2,9.5,21.6,14.2,37.2,14.2c7.2,0.2,14.3-0.9,21.1-3.3c5.7-2.2,11.2-4.7,16.5-7.6c3.4,2.8,6.1,6.2,8,10.1c2,4.3,3,9,2.9,13.8
		c0,8.3-4.6,15.3-13.8,21s-23.2,8.6-42,8.6c-13,0.1-25.9-1.8-38.2-5.7c-11.6-3.6-22.2-9.6-31.3-17.7c-9.2-8.4-16.4-18.7-21.1-30.2
		c-5.2-12.2-7.7-26.8-7.7-43.7c0-15.7,2.5-29.6,7.4-41.6c4.6-11.4,11.5-21.8,20.3-30.4c8.6-8.3,18.9-14.7,30.2-18.7
		c11.9-4.3,24.4-6.4,37-6.4c18.6,0,33,3,43.2,9.1c10.2,6,15.3,13.8,15.3,23.3c0.1,4.8-1.3,9.6-3.9,13.6c-2.4,3.6-5.5,6.7-9.1,9.1
		c-5.3-3.5-11-6.4-16.8-8.8C167,558,160,556.8,152.9,556.9z M263.3,703c-3.1,0.8-6.3,1.4-9.6,1.8c-4.5,0.6-9,0.9-13.5,0.9
		c-4,0-8-0.3-12-0.9c-3.2-0.5-6.3-1.7-9-3.6c-2.5-1.9-4.4-4.5-5.6-7.4c-1.5-3.9-2.1-8.1-2-12.2v-90.7c-0.1-4.1,0.8-8.2,2.6-11.9
		c1.8-3.5,4.4-6.5,7.4-8.9c3.7-2.9,7.7-5.3,12-7.1c5-2.2,10.1-4.1,15.3-5.6c5.6-1.6,11.2-2.9,17-3.8c5.8-0.9,11.7-1.4,17.6-1.4
		c9.7,0,17.4,1.9,23.1,5.6c5.7,3.7,8.5,9.8,8.5,18.3c0,2.8-0.4,5.6-1.2,8.3c-0.7,2.6-1.8,5.1-3,7.4c-4.2,0-8.6,0.2-13,0.6
		c-4.5,0.4-8.8,1-13.1,1.8c-4.2,0.8-8.2,1.7-12,2.6c-3.3,0.8-6.5,1.8-9.6,3.2V703z M350.1,665.8c-2.2-5-4.6-10.7-7.1-16.9
		c-2.5-6.2-5.2-13.4-7.9-21.5c-2.7-8.1-5.6-17.3-8.5-27.7c-2.9-10.4-6-22.3-9.3-35.8c7.3-6.8,17-10.6,27-10.6
		c7.1,0,12.9,1.5,17.6,4.4s8.1,8.4,10.3,16.5l24,83.2h1.2c2.4-6.9,4.8-14.3,7.1-22.4c2.3-8.1,4.6-16.4,6.8-24.9
		c2.2-8.6,4.3-17.1,6.2-25.7c1.9-8.6,3.6-17,5-25.3c7.4-3.9,15.6-5.8,24-5.7c7.1,0,12.9,1.5,17.6,4.5s7,8.3,7,15.7
		c-0.1,6.4-0.8,12.7-2.1,18.9c-1.4,7.2-3.3,14.8-5.6,22.8c-2.3,8.1-5.1,16.4-8.2,24.9c-3.1,8.6-6.4,17-9.9,25.3s-7,16.1-10.6,23.4
		c-3.6,7.4-7.2,14-10.6,19.8c-4.7,8.4-10,16.5-15.8,24.2c-4.1,5.4-8.7,10.3-14,14.7c-3.9,3.3-8.5,5.7-13.4,7.3c-4.5,1.3-9.2,2-14,2
		c-8.5,0-15.4-2.5-20.6-7.6c-5.4-5.2-8.7-12.2-9.4-19.7c6.5-5,12.9-10.6,19.4-16.8c6.3-5.9,12.1-12.2,17.6-18.9
		c-3.4-1-7.1-3.4-11.1-7.1C359,683.1,354.8,676.1,350.1,665.8L350.1,665.8z M545.5,551.8c11.4-0.1,22.8,1.5,33.8,4.7
		c9.9,2.8,19,7.7,26.9,14.4c7.6,6.7,13.7,15,17.6,24.3c4.2,9.8,6.4,21.4,6.4,34.9c0,12.9-1.8,24.2-5.5,33.9
		c-3.3,9.2-8.6,17.5-15.5,24.3c-6.8,6.6-15.1,11.7-24.1,14.7c-10.1,3.3-20.7,5-31.4,4.8c-8.3,0.1-16.5-1.3-24.3-3.9v50.2
		c-3.2,0.8-6.4,1.5-9.7,2c-4.5,0.7-9.1,1.1-13.7,1.1c-4,0-8-0.3-12-0.9c-3.2-0.5-6.3-1.7-9-3.6c-2.5-1.9-4.4-4.5-5.5-7.4
		c-1.3-3.9-2-8.1-1.8-12.2V587.8c0-5.4,1.2-9.9,3.5-13.3c2.6-3.7,5.8-6.9,9.6-9.4c7.2-4.4,15.1-7.7,23.4-9.7
		C524.5,552.9,535,551.7,545.5,551.8z M546.1,667.3c20.8,0,31.3-12.4,31.3-37.2c0-12.9-2.6-22.5-7.7-28.7S557,592,547.3,592
		c-3.5,0-7,0.4-10.3,1.4c-2.7,0.8-5.4,1.8-7.9,3.2v66.5c2.5,1.2,5.2,2.3,7.9,3C540,666.9,543,667.3,546.1,667.3L546.1,667.3z
		 M692.7,652.8c0,5.2,1.7,9,5,11.2c3.3,2.2,8,3.3,14.1,3.3c3.2,0,6.3-0.3,9.4-0.8c2.9-0.4,5.7-1.1,8.5-2c1.9,2.3,3.4,4.8,4.7,7.4
		c1.4,3.1,2.1,6.4,2,9.8c0.2,7.3-3,14.2-8.6,18.7c-5.8,4.8-15.9,7.3-30.5,7.3c-17.8,0-31.5-4-41.1-12.1s-14.4-21.2-14.4-39.3V527
		c2.2-0.6,5.4-1.3,9.6-2c4.4-0.7,8.8-1.1,13.2-1.1c8.9,0,15.8,1.6,20.8,4.7s7.4,9.7,7.4,19.8v19.4h39.8c1.4,2.7,2.6,5.4,3.5,8.3
		c1.2,3.6,1.7,7.3,1.7,11c0,7.1-1.6,12.1-4.7,15.3c-3.1,3.1-7.3,4.7-12.6,4.7h-27.6V652.8z M899,629.8c0.2,11.4-1.8,22.7-5.8,33.4
		c-3.5,9.3-9.1,17.7-16.2,24.6c-7.2,6.8-15.7,11.9-25,15.1c-10.5,3.5-21.4,5.3-32.5,5.1c-11.1,0.1-22.1-1.7-32.5-5.4
		c-9.3-3.4-17.9-8.7-25-15.6c-7.1-7-12.6-15.4-16.2-24.6c-4-10.4-5.9-21.5-5.8-32.7c-0.2-11.1,1.8-22,5.8-32.4
		c3.6-9.3,9.1-17.7,16.2-24.6c7.2-6.9,15.7-12.2,25-15.6c10.4-3.7,21.4-5.6,32.5-5.4c11.1-0.2,22.1,1.7,32.5,5.6
		c9.3,3.5,17.8,8.8,25,15.7c7.1,7,12.7,15.4,16.2,24.6C897.2,608,899.2,618.9,899,629.8z M792.8,629.8c0,12.3,2.4,21.7,7.1,28.3
		c4.8,6.6,11.4,9.8,19.9,9.8c8.5,0,15-3.3,19.6-10c4.6-6.7,6.8-16,6.8-28.1s-2.3-21.4-7-28S828,592,819.5,592
		c-8.5,0-15.1,3.3-19.7,9.8C795.1,608.4,792.8,617.7,792.8,629.8L792.8,629.8z"/>
</g>
</svg>
