<?xml version="1.0" encoding="utf-8"?>
<!-- Generator: Adobe Illustrator 23.1.1, SVG Export Plug-In . SVG Version: 6.00 Build 0)  -->
<svg version="1.1"
	 id="svg2" xmlns:cc="http://creativecommons.org/ns#" xmlns:dc="http://purl.org/dc/elements/1.1/" xmlns:inkscape="http://www.inkscape.org/namespaces/inkscape" xmlns:rdf="http://www.w3.org/1999/02/22-rdf-syntax-ns#" xmlns:sodipodi="http://sodipodi.sourceforge.net/DTD/sodipodi-0.dtd" xmlns:svg="http://www.w3.org/2000/svg"
	 xmlns="http://www.w3.org/2000/svg" xmlns:xlink="http://www.w3.org/1999/xlink" x="0px" y="0px" viewBox="0 0 325.8 325.8"
	 style="enable-background:new 0 0 325.8 325.8;" xml:space="preserve">
<style type="text/css">
	.st0{fill:#141A1F;}
	.st1{fill:url(#SVGID_1_);}
	.st2{fill:url(#SVGID_2_);}
	.st3{fill:url(#SVGID_3_);}
	.st4{fill:#FFFFFF;}
	.st5{fill:#F00010;}
</style>
<title  id="title5759">Netflix icon</title>
<sodipodi:namedview  bordercolor="#666666" borderopacity="1.0" fit-margin-bottom="0" fit-margin-left="0" fit-margin-right="0" fit-margin-top="0" id="base" inkscape:current-layer="layer1" inkscape:cx="133.94373" inkscape:cy="222.84368" inkscape:document-units="px" inkscape:pageopacity="0.0" inkscape:pageshadow="2" inkscape:window-height="705" inkscape:window-maximized="1" inkscape:window-width="1366" inkscape:window-x="-8" inkscape:window-y="-8" inkscape:zoom="0.70710678" pagecolor="#ffffff" showgrid="false">
	</sodipodi:namedview>
<g id="layer1" transform="translate(12.494543,6.7556334)" inkscape:groupmode="layer" inkscape:label="Capa 1">
	<g id="g4182">
	</g>
</g>
<path class="st0" d="M41.6,309.8c-14.1,0-25.6-11.5-25.6-25.6V41.5C16,27.5,27.5,16,41.6,16h242.7c14.1,0,25.6,11.5,25.6,25.6v242.7
	c0,14.1-11.5,25.6-25.6,25.6H41.6z"/>
<g>
	<linearGradient id="SVGID_1_" gradientUnits="userSpaceOnUse" x1="173.2791" y1="156.5522" x2="173.2791" y2="127.4902">
		<stop  offset="0" style="stop-color:#A9ACAF"/>
		<stop  offset="1" style="stop-color:#FBFBFB"/>
	</linearGradient>
	<circle class="st1" cx="173.3" cy="142" r="14.5"/>
	<linearGradient id="SVGID_2_" gradientUnits="userSpaceOnUse" x1="173.2798" y1="260.7665" x2="173.2798" y2="65.0334">
		<stop  offset="0" style="stop-color:#A9ACAF"/>
		<stop  offset="1" style="stop-color:#FBFBFB"/>
	</linearGradient>
	<path class="st2" d="M267,170.1c-2.5-2.6-6.6-3.1-9.7-0.9c-40.7,28.8-65.9,2.3-67,1.1c-2.7-3-7.4-3.3-10.5-0.6
		c-3.1,2.7-3.3,7.4-0.6,10.5c0.4,0.4,9,9.9,24.1,14.6c5.9,1.9,11.7,2.6,17.4,2.6c10.1,0,19.5-2.6,27.8-6.2
		c-11.7,30.3-41.4,51.6-74.7,51.6c-21.2,0-41.3-8.4-56.4-23.6s-23.6-35.2-23.6-56.4c0-21.2,8.4-41.3,23.6-56.4
		c15.2-15.2,35.2-23.6,56.4-23.6c29.9,0,57.1,16.5,70.9,43c2.3,4.4,7.7,6.1,12.1,3.8c4.4-2.3,6.1-7.7,3.8-12.1
		c-17-32.4-50.2-52.6-86.7-52.6c-26,0-50.5,10.2-69.1,28.8C86.2,112.4,76,136.9,76,162.9s10.2,50.5,28.8,69.1
		c18.6,18.6,43.1,28.8,69.1,28.8c23.2,0,45.8-8.4,63.6-23.7c17.6-15.1,29.3-35.8,33-58.4C271,175.3,269.6,172.1,267,170.1z"/>
	<linearGradient id="SVGID_3_" gradientUnits="userSpaceOnUse" x1="84.9376" y1="203.2064" x2="84.9376" y2="131.8168">
		<stop  offset="0" style="stop-color:#A9ACAF"/>
		<stop  offset="1" style="stop-color:#FBFBFB"/>
	</linearGradient>
	<circle class="st3" cx="84.9" cy="167.5" r="35.7"/>
	<circle class="st4" cx="84.9" cy="167.5" r="27"/>
	<circle class="st5" cx="84.9" cy="167.5" r="24.2"/>
</g>
</svg>
