<?xml version="1.0" encoding="utf-8"?>
<!-- Generator: Adobe Illustrator 22.1.0, SVG Export Plug-In . SVG Version: 6.00 Build 0)  -->
<svg version="1.1" id="Layer_1" xmlns="http://www.w3.org/2000/svg" xmlns:xlink="http://www.w3.org/1999/xlink" x="0px" y="0px"
	 viewBox="0 0 1000 1000" style="enable-background:new 0 0 1000 1000;" xml:space="preserve">
<style type="text/css">
	.st0{fill:#5BC9F4;}
	.st1{fill:#FAB318;}
	.st2{fill:#DB2F59;}
	.st3{fill:#59B16C;}
</style>
<g>
	<path class="st0" d="M102.9,53.3c-10.4,11.4-16.6,28-16.6,49.9v792.6c0,21.8,6.2,39.5,16.6,49.9l3.1,2.1l443.6-442.5V500v-5.2
		L105,50.2L102.9,53.3z"/>
	<path class="st1" d="M697.1,653.7L549.6,505.2V500v-5.2l148.5-148.5l3.1,2.1l175.6,99.7c49.9,28,49.9,74.8,0,103.9l-175.6,99.7
		L697.1,653.7z"/>
	<path class="st2" d="M701.3,651.7L549.6,500L102.9,946.7c16.6,17.7,43.6,19.7,74.8,2.1L701.3,651.7"/>
	<path class="st3" d="M701.3,348.3L177.7,51.3c-31.2-17.7-58.2-15.6-74.8,2.1L549.6,500L701.3,348.3z"/>
</g>
</svg>
