<?xml version="1.0" encoding="utf-8"?>
<!-- Generator: Adobe Illustrator 24.2.3, SVG Export Plug-In . SVG Version: 6.00 Build 0)  -->
<svg version="1.1" id="Layer_1" xmlns="http://www.w3.org/2000/svg" xmlns:xlink="http://www.w3.org/1999/xlink" x="0px" y="0px"
	 viewBox="0 0 1000 1000" style="enable-background:new 0 0 1000 1000;" xml:space="preserve">
<style type="text/css">
	.st0{fill:#F63440;}
	.st1{fill:#FFFFFF;}
</style>
<rect x="55.8" y="55.8" class="st0" width="888.5" height="888.5"/>
<path id="red" class="st1" d="M649,422.6h-26.7c-1.6,0-2.2,1.6-2.2,2.2v57.7h-26.7v-57.7c0-1.6-1.6-2.2-2.2-2.2h-26.7
	c-1.6,0-2.2,1.6-2.2,2.2v148.4c0,1.6,1.6,2.2,2.2,2.2h26.7c1.6,0,2.2-1.6,2.2-2.2V514h26.7v59.3c0,1.6,1.6,2.2,2.2,2.2H649
	c1.6,0,2.2-1.6,2.2-2.2V425C651.2,424.2,650.4,422.6,649,422.6 M425,422.6h-26.7c-1.6,0-2.2,0.8-2.2,2.2v105.2c0,5.4-1.6,9-3.8,12.2
	c-2.2,3-5.4,3.8-9,3.8c-3.6,0-6.8-1.6-9-3.8c-2.2-3-3.8-6.8-3.8-12.2V425c0-1.6-1.6-2.2-2.2-2.2h-26.7c-1.6,0-2.2,0.8-2.2,2.2v105.9
	c0,13.6,3,26.7,11.4,35.1c8.4,8.4,19.6,12.8,32.7,12.8c13.6,0,25.3-4.6,32.7-12.8c8.4-8.4,11.4-20.4,11.4-35.1V425
	C427.4,424.2,426.6,422.6,425,422.6 M164.6,420.4c-13.6,0-25.3,4.6-32.7,12.8c-8.4,8.4-11.4,20.4-11.4,35.1v63.4
	c0,13.6,3,26.7,11.4,35.1c8.4,8.4,19.6,12.8,32.7,12.8c13.6,0,25.3-4.6,32.7-12.8c8.4-8.4,11.4-20.4,11.4-35.1v-34.9
	c0-1.6-1.6-3-3-3H167c-1.6,0-3,1.6-3,3v25.9c0,1.6,1.6,3,3,3h10v6c0,5.4-1.6,10-3.8,12.8c-2.2,3-5.4,3.8-9,3.8c-3.6,0-6.8-1.6-9-3.8
	c-2.2-3-3.8-7.6-3.8-12.8v-62.5c0-5.4,1.6-10,3.8-12.8c2.2-3,5.4-3.8,9-3.8c3.6,0,6.8,1.6,9,3.8c2.2,3,3.8,7.6,3.8,12.8v6
	c0,1.6,1.6,2.2,2.2,2.2h26.7c1.6,0,2.2-0.8,2.2-2.2v-6c0-13.6-3-26.7-11.4-35.1C189.9,424.8,177.6,420.4,164.6,420.4 M507.2,541.3
	c-2.2,3-5.4,3.8-10,3.8H482V513h15.2c3.8,0,6.8,1.6,9,3.8c2.2,3,3.8,6.8,3.8,11.4C510.4,534.5,509.6,538.3,507.2,541.3z M482,453.9
	h13.6c3.8,0,6.8,0.8,9,3.8c2.2,2.2,3,6,3,10.8s-0.8,8.4-3,11.4c-2.2,2.2-5.4,3.8-8.4,3.8h-13.6v-29.9
	C482.8,453.9,482,453.9,482,453.9z M526.3,497.2c4.6-4.6,12.8-15.2,12.8-28.9c0-16-6-25.9-10.8-31.3c-8.4-9-19.6-13.6-32.7-13.6
	h-41.7c-1.6,0-2.2,1.6-2.2,2.2v148.6c0,1.6,1.6,2.2,2.2,2.2H498c13.6,0,26.7-5.4,35.1-16c4.6-6,10-16,10-31.3
	C542.3,510.8,530.9,500.2,526.3,497.2L526.3,497.2z M284.3,482.8c-2.2,3-6,4.6-10.8,4.6h-12.8v-33.5h12.8c4.6,0,8.4,1.6,10.8,4.6
	c3,3,3.8,6.8,3.8,12.2C287.9,475.9,287.3,479.8,284.3,482.8L284.3,482.8z M300.9,510.2c3-2.2,5.4-3.8,7.6-6.8
	c5.4-6,12.2-16.8,12.2-33.5c0-16-6-26.7-12.2-32.7c-7.6-9-19-13.6-32.1-14.4h-44.1c-1.6,0-2.2,1.6-2.2,2.2v148.4
	c0,1.6,1.6,2.2,2.2,2.2H259c1.6,0,2.2-1.6,2.2-2.2v-54.9h9l16.8,56.3c0,0.8,1.6,1.6,2.2,1.6h28.1c0.8,0,1.6-0.8,2.2-0.8
	c0.6,0,0.8-1.6,0.8-2.2L300.9,510.2L300.9,510.2z M843,541.3c-2.2,3-5.4,3.8-10,3.8h-15.2V513H833c3.8,0,6.8,1.6,9,3.8
	c2.2,3,3.8,6.8,3.8,11.4C846.8,534.5,845.4,538.3,843,541.3L843,541.3z M818.6,453.9h13.6c3.8,0,6.8,0.8,9,3.8c2.2,2.2,3,6,3,10.8
	s-0.8,8.4-3,11.4c-2.2,2.2-5.4,3.8-8.4,3.8h-13.6v-29.9H818.6z M862.7,497.2c4.6-4.6,12.8-15.2,12.8-28.9c0-16-6-25.9-10.8-31.3
	c-8.4-9-19.6-13.6-32.7-13.6h-41.9c-1.6,0-2.2,1.6-2.2,2.2v148.6c0,1.6,1.6,2.2,2.2,2.2h44.3c13.6,0,26.7-5.4,35.1-16
	c4.6-6,10-16,10-31.3C877.9,510.8,866.7,500.2,862.7,497.2L862.7,497.2z M760.6,422.6H734c-1.6,0-2.2,0.8-2.2,2.2v105.2
	c0,5.4-1.6,9-3.8,12.2c-2.2,3-5.4,3.8-9,3.8c-3.6,0-6.8-1.6-9-3.8c-2.2-3-3.8-6.8-3.8-12.2V425c0-1.6-1.6-2.2-2.2-2.2h-26.7
	c-1.6,0-2.2,0.8-2.2,2.2v105.9c0,13.6,3,26.7,11.4,35.1c8.4,8.4,19.6,12.8,32.7,12.8c13.6,0,25.3-4.6,32.7-12.8
	c8.4-8.4,11.4-20.4,11.4-35.1V425C763.8,424.2,762.4,422.6,760.6,422.6"/>
</svg>
