<?xml version="1.0" encoding="utf-8"?>
<!-- Generator: Adobe Illustrator 23.1.1, SVG Export Plug-In . SVG Version: 6.00 Build 0)  -->
<svg version="1.1" id="Layer_1" xmlns="http://www.w3.org/2000/svg" xmlns:xlink="http://www.w3.org/1999/xlink" x="0px" y="0px"
	 viewBox="0 0 1000 1000" style="enable-background:new 0 0 1000 1000;" xml:space="preserve">
<style type="text/css">
	.st0{fill:#1CE783;}
</style>
<path class="st0" d="M607.7,657.4h75.7v-314h-75.7V657.4z M474.3,568.1c0,11.2-9.1,20.3-20.3,20.3h-44c-11.2,0-20.3-9.1-20.3-20.3
	c0-4.2,0-126.7,0-126.7h-75.7v133c0,54.4,34.8,83,86.2,83h74.1V657c47.4,0,75.7-33.7,75.7-82.6v-133h-75.7
	C474.3,441.4,474.3,563.9,474.3,568.1z M901.3,441.4c0,0,0,122.5,0,126.7c0,11.2-9.1,20.3-20.3,20.3h-44c-11.2,0-20.3-9.1-20.3-20.3
	c0-4.2,0-126.7,0-126.7H741v133c0,54.4,34.8,83,86.2,83h74.1V657c47.4,0,75.7-33.7,75.7-82.6v-133H901.3z M173.6,441.4
	c0,0-39.4,0-48.6,0c-17,0-25.6,4.6-25.6,4.6V343.4H23.8v314h75.7V530.7c0-11.2,9.1-20.3,20.3-20.3h44.1c11.2,0,20.3,9.1,20.3,20.3
	v126.7h75.7V520.9C259.8,463.5,221.5,441.4,173.6,441.4z"/>
</svg>
