<?xml version="1.0" encoding="utf-8"?>
<!-- Generator: Adobe Illustrator 23.0.1, SVG Export Plug-In . SVG Version: 6.00 Build 0)  -->
<svg version="1.1" id="Layer_1" xmlns="http://www.w3.org/2000/svg" xmlns:xlink="http://www.w3.org/1999/xlink" x="0px" y="0px"
	 viewBox="0 0 1000 1000" style="enable-background:new 0 0 1000 1000;" xml:space="preserve">
<style type="text/css">
	.st0{fill:#4D504A;}
</style>
<g>
	<g>
		<path class="st0" d="M952.5,590.8c-6.4-29.4-16.3-58-25.2-86.8c-11.3-36.8-33.9-65-66.8-84.9c-3.3-2-6.6-3.8-10-5.8
			c0.9-2,1.7-3.6,2.5-5.2c17.1-33.4,22.3-68.5,13.3-104.9c-6.4-25.7-15-50.8-22.5-76.2C812.6,121.2,710.3,63.4,621.3,70.8
			c-34.3,2.8-66.1,12.4-95.5,29.7c-7.4,4.5-13.3,8.9-13.3,8.9c-18,0.2-30.2,1.6-30.2,1.6c-63.2,8.7-113.5,38.5-149.9,91.2
			c-1,1.4-2.1,2.8-3.6,4.8c-1.4-2.1-2.6-3.6-3.7-5.3c-43.3-67.6-132.8-90.4-203.4-51.7C44.3,192.4,18.3,290.9,64.5,366.2
			c1.9,3.1,3.4,6.8,4,10.4c1.8,11,1.7,22.4,4.7,33c10.8,37.9,22.6,75.6,34.2,113.3c12.1,39.7,36.4,69.5,72.7,89.7
			c1.9,1,3.7,2.2,5.6,3.3c-0.9,1.9-1.6,3.1-2.2,4.4c-30.2,60.2-20.8,127.4,25.3,176.8c32.9,35.3,66.4,70,99.6,105
			c40.2,42.4,89.2,58.7,146.7,48c60.2-11.2,109.4-60.8,120.7-120.8c2.1-11.1,4-22.2,6.2-34.1c2.1,1.6,3.5,2.7,4.8,3.8
			c52,44.1,111.5,64,179.7,53.8c54.8-8.2,102-31.9,137.7-75C949.2,723.3,967.7,660.8,952.5,590.8z M184,476.7
			c-11.1-35.5-21.9-71.1-32.6-106.7c-4.2-14-5.3-28.3-2-42.6c1-4.4-1.5-6.3-3.8-8.8c-41.7-43.7-29.1-117.6,24.7-144.8
			c59.4-30.2,127.8,6.7,135.2,73.2c0.9,8.3-0.9,16.9-1,25.4c0,2.3,0.4,5.3,1.9,6.8c11.4,11.5,18.8,25.2,23.4,40.6
			c10.2,33.7,20.1,67.4,30.9,100.9c18.2,56.6-23.3,119.6-89.3,120.2C231.7,541,196,515,184,476.7z M557.6,647.1
			c-8.2,46.6-16.1,93.3-24.2,140c-6.8,38.9-40.9,70.5-80.1,74.9c-34.4,3.8-61.8-8.7-85-33.7c-31.6-34-63.9-67.3-95.8-101.1
			c-24.7-26.2-33.8-57-23.2-91.8c10.9-35.6,35.7-56.9,72.1-64.8c20.6-4.5,40.2-1.2,59,7.9c1.4,0.7,2.9,1.4,4.5,2.1
			c1.1-1.7,2.1-3.2,3-4.8c21.6-38.7,61.3-49.4,88.7-45.9c41.6,5.2,71.4,32,81.1,70.8C561.5,616.2,560.3,631.6,557.6,647.1z
			 M567.6,425.2c-0.8,1.3-1.8,2.6-2.6,3.9c-17.8,30.9-44.9,46.8-80.1,45.8c-36.4-1-65.4-18.6-79.1-52.2
			c-13.3-32.8-23.3-67.4-30.6-102c-9.4-44.5,3.7-85.4,31.3-120.8c34.1-43.8,80-62.2,135.1-57.7c5.3,0.4,9.4-0.5,13.7-4
			c87.6-72.1,206.6-27.8,241.5,62.1c11.9,30.6,21.4,62.5,28.3,94.6c9.9,46.1-24.6,93.6-71,102.4c-19.8,3.8-38.6,1.2-56.6-7.8
			c-1.6-0.8-3.3-1.5-5.2-2.4C669.9,431.3,615.5,451.6,567.6,425.2z M811.5,753.5c-72.6,27.4-142.4,1.3-182.8-46.8
			c-11.7-14-20.5-29.8-26.1-47c-8.1-24.8-16-49.7-23-74.8c-13.9-49.6,17.7-101.8,68.4-114c21.3-5.1,41.8-2.9,61.4,6.8
			c1.8,0.9,3.6,1.7,4.8,2.2c6.4-8.2,11.8-16.9,18.9-24c47.7-48.2,130.4-29.7,152.4,34.3c9.5,27.7,18.1,55.9,25,84.3
			C927.2,644.2,884.7,725.8,811.5,753.5z"/>
	</g>
	<path class="st0" d="M530.6,199.7c10.3-0.2,22.8,2.8,34.8,8c3.1,1.4,4.8,1.3,6.9-1.8c23.1-34.7,56.1-49.7,96.6-43.1
		c39.7,6.5,65.9,31,78.1,69.7c6.7,21.2,13.2,42.5,19.5,63.8c6.8,22.6-5.9,41.5-29.3,43.7c-14,1.3-27.9-8.2-32.6-23.1
		c-7-22-13.4-44.1-20.5-66c-4.6-14.3-17.5-22.8-32-22.2c-14.1,0.6-26.6,10.4-29.5,24.6c-1.2,6.1-0.6,13,1,19
		c5.8,21,12.8,41.8,18.8,62.8c5.8,20.3-5.9,38.7-26.5,42.7c-15.5,3-31.2-7-36.3-23.5c-6.6-21.2-13-42.6-19.6-63.8
		c-3.6-11.7-11.4-19.5-23.2-22.7c-23.8-6.3-45.5,16.6-38.5,40.8c5.8,20.2,12.2,40.2,18.5,60.3c2.6,8.5,3.9,16.9,0.5,25.5
		c-5.5,14.1-17.2,22.2-31.9,21.7c-13.3-0.4-25.7-10.1-30-23.7c-6.9-22-13.7-44-20.2-66.1c-5-17-5.8-34.2-1.8-51.6
		C443.7,230.6,482.6,199.6,530.6,199.7z"/>
	<path class="st0" d="M419.9,697.7c3.5-20.4,6.7-39.5,9.9-58.6c1.3-7.6,2.5-15.2,3.8-22.7c3-16.9,17.4-28.7,33.9-27.9
		c17.4,0.8,32.1,14.5,32.3,31.8c0.1,10-2,20.1-3.7,30c-7.1,41.9-14.4,83.7-21.6,125.6c-2.3,13.5-9.8,22.3-23,26.2
		c-13.1,3.9-24.4,1.2-33.9-8.7c-34.5-36.2-69-72.5-103.4-108.8c-12.8-13.5-12.2-35.3,1-47.6c14.2-13.3,34.8-12.4,48.3,2
		c16.9,18,34,35.8,51.1,53.7C416.1,694.2,417.6,695.5,419.9,697.7z"/>
	<path class="st0" d="M271.8,481.8c-14.3,0-26.9-9.2-31.3-23.5c-10.7-34.8-21.4-69.6-31.9-104.5c-5.4-18.1,3.9-35.9,21.1-41.4
		c18-5.7,36.3,3.5,42.1,21.8c10.9,34.7,21.6,69.5,32,104.4C310.3,460.7,294.4,481.8,271.8,481.8z"/>
	<path class="st0" d="M180.2,255.3c0.1-18.7,14.9-33.4,33.3-33.1c18.2,0.3,33.2,15.9,33.2,34.4c-0.1,18.3-15.2,33.1-33.6,33
		C194.5,289.5,180.1,274.4,180.2,255.3z"/>
</g>
<path class="st0" d="M783.3,700.6c-12.9,5.2-24.1,6.2-30.8,6.2c-43.1-1.1-81.8-29.4-94.9-70.8c-6.8-21.6-13.4-43.3-19.8-65
	c-5.5-18.6,3.8-36.8,21.4-42.3c18.7-5.8,37,4,42.9,23.2c6.5,21,12.8,42.2,19.4,63.2c4.3,13.8,18.4,23.9,32.1,23.6
	c15.1-0.3,28.6-10.5,31.7-25.4c1.3-6,0.7-13-1-19c-5.9-21.2-12.9-42.1-18.9-63.3c-5.4-18.9,5.7-37.4,24.7-42.1
	c14.7-3.7,32.5,3.5,37.3,17.9c9.5,28.7,19.9,57.6,25,87.3C860.6,641.1,836.4,679.4,783.3,700.6z"/>
</svg>
