<?xml version="1.0" encoding="utf-8"?>
<!-- Generator: Adobe Illustrator 23.0.1, SVG Export Plug-In . SVG Version: 6.00 Build 0)  -->
<svg version="1.1" id="Layer_1" xmlns="http://www.w3.org/2000/svg" xmlns:xlink="http://www.w3.org/1999/xlink" x="0px" y="0px"
	 viewBox="0 0 1000 1000" style="enable-background:new 0 0 1000 1000;" xml:space="preserve">
<style type="text/css">
	.st0{fill:#FFFFFF;}
	.st1{fill:#FF7100;}
	.st2{fill:url(#SVGID_1_);}
	.st3{fill:url(#SVGID_2_);}
	.st4{fill:url(#SVGID_3_);}
	.st5{fill:url(#SVGID_4_);}
</style>
<g>
	<g id="XMLID_1_">
		<path id="XMLID_3_" class="st0" d="M737.1,735.5c-7.7-76.7-34.2-145.2-87-202.8c-2.9-3-2.5-11.2-0.5-15.5
			c19.6-40.1,21.4-81.2,4.3-122.2c-12.1-28.7-30.9-51.7-64.9-51.9c-33.4-0.5-52.3,21.9-65.1,49.8c-5,10.9-8.2,22.8-12.3,34.8
			c-7.3,0-15.2,0-21,0c-7.8-17.5-13.2-35.7-23.4-51.2c-29.3-45.3-80.6-45.8-110.1-0.5c-28.4,43.9-29.4,91-7.3,137.7
			c5,10.9,3.6,16.6-3.9,25c-85.6,94.4-111.5,259.3-56.5,368c11.8,23.5,32.6,46.2,46.6,66.5H664c14.6-20,30.9-38.2,43-59.2
			C738.3,858.4,743.2,797.2,737.1,735.5z"/>
		<path id="XMLID_5_" d="M784.2,589.1c-27.3-47.8-50.7-96.9-70.3-148c-12-31.9-29.1-62.6-46.6-92.4c-10.7-18.5-26.4-34.4-40-51.2
			c-55.3,41-190.1,40.5-255.6-0.5c-4.5,5.4-9.3,11.8-14.3,17.3c-27.3,30.7-47.4,66-63,104c-23.9,58.5-44.9,118.1-79.7,171.4
			c-2,2.9-3.4,5.9-4.8,8.7c-29.8,60.5-44.9,123.1-24.8,190c15,48.9,41,91,76.7,127.5c21.9,22.3,48.9,43.5,73.8,57.3
			c-13.9-20.3-34.8-43-46.6-66.5c-54.9-108.6-29.1-273.6,56.5-368c7.5-8.4,8.9-14.1,3.9-25c-22.1-46.7-21-93.8,7.3-137.7
			c29.4-45.3,80.8-44.8,110.1,0.5c10.2,15.5,15.5,33.7,23.4,51.2c5.9,0,13.7,0,21,0c4.1-12,7.3-23.9,12.3-34.8
			c12.8-27.8,31.7-50.3,65.1-49.8c34.1,0.2,52.8,23.2,64.9,51.9c17.1,41,15.3,82-4.3,122.2c-2,4.3-2.3,12.5,0.5,15.5
			c52.8,57.6,79.4,126.1,87,202.8c6.1,61.7,1.2,122.7-30.1,178.4c-12.1,21-28.4,39.2-43,59.2c10.3-6.8,21-12.8,31.2-20.5
			c64.6-48.2,109.5-109.9,125-190C832,700.6,814.9,642.8,784.2,589.1z"/>
	</g>
	<g id="XMLID_2_">
		<g>
			<path class="st1" d="M669.5,90.2l-41,199.4l-4.5,3c-25,18.5-69.6,29.4-119.9,29.4c-1.1,0-2.5,0-3.6,0V27.4v-0.2L568,187.1
				L669.5,90.2z"/>
			<path d="M607.2,422.9c12,6.2,16.6,21.8,10.2,35.9c-15.5-8.4-30.1-16.2-44.9-24.1C579.4,422,595.3,416.6,607.2,422.9z"/>
			
				<linearGradient id="SVGID_1_" gradientUnits="userSpaceOnUse" x1="576.6529" y1="485.7134" x2="576.6529" y2="399.1712" gradientTransform="matrix(1 0 0 1 0 -309.8898)">
				<stop  offset="0" style="stop-color:#690000"/>
				<stop  offset="1" style="stop-color:#F04100"/>
			</linearGradient>
			<polygon class="st2" points="579.4,89 600.8,143.5 570.1,175.8 552.5,131.8 			"/>
			<path class="st1" d="M544.3,486.5c0,11.8-1.6,17.5-12.8,12.3c-19.4-8.9-39.2-9.6-59.6-1.4c-14.3,5.9-20.5,0.9-15.5-14.1
				c4.5-13.7,11.2-27.8,20.5-38.7c13.6-16.1,31.7-14.8,46.6,0C535.4,456.9,542.7,471.9,544.3,486.5z"/>
			<path class="st1" d="M517.3,505.3c-3,12.7-10.2,18-19.6,16.2c-5.4-0.9-9.6-7.3-14.3-11.2c4.5-2.9,8.9-7,13.7-7.7
				C503.6,501.9,510.4,504.2,517.3,505.3z"/>
			
				<linearGradient id="SVGID_2_" gradientUnits="userSpaceOnUse" x1="407.5688" y1="278.7261" x2="633.2498" y2="419.7475" gradientTransform="matrix(1 0 0 1 0 -309.8898)">
				<stop  offset="0" style="stop-color:#FF7100"/>
				<stop  offset="0.5694" style="stop-color:#FFB500"/>
				<stop  offset="1" style="stop-color:#FF7100"/>
			</linearGradient>
			<polygon class="st3" points="500.8,26.9 500.8,27.2 500.6,26.9 			"/>
			<polygon class="st1" points="500.6,26.9 500.8,27.2 500.6,27.4 			"/>
			
				<linearGradient id="SVGID_3_" gradientUnits="userSpaceOnUse" x1="330.1211" y1="402.5777" x2="555.8823" y2="543.6493" gradientTransform="matrix(1 0 0 1 0 -309.8898)">
				<stop  offset="0" style="stop-color:#FF7100"/>
				<stop  offset="0.5694" style="stop-color:#FFB500"/>
				<stop  offset="1" style="stop-color:#FF7100"/>
			</linearGradient>
			<path class="st4" d="M500.6,27.4v294.8c-49.8-0.7-96.5-11.6-125.9-30.1l-4.3-2.5L331.7,90.2l101.7,96.9L500.6,27.4z"/>
			
				<linearGradient id="SVGID_4_" gradientUnits="userSpaceOnUse" x1="424.2409" y1="485.7134" x2="424.2409" y2="399.1712" gradientTransform="matrix(1 0 0 1 0 -309.8898)">
				<stop  offset="0" style="stop-color:#690000"/>
				<stop  offset="1" style="stop-color:#F04100"/>
			</linearGradient>
			<polygon class="st5" points="421.4,89 448.3,131.8 430.7,175.8 400.2,143.5 			"/>
			<path d="M392,422.7c12.1-6.4,28-0.9,34.8,11.6c-14.6,8.2-29.6,16.2-44.4,24.1C375.4,445.5,379.8,429.1,392,422.7z"/>
		</g>
	</g>
</g>
</svg>
