<?xml version="1.0" encoding="utf-8"?>
<!-- Generator: Adobe Illustrator 25.2.3, SVG Export Plug-In . SVG Version: 6.00 Build 0)  -->
<svg version="1.1" id="Layer_1" xmlns="http://www.w3.org/2000/svg" xmlns:xlink="http://www.w3.org/1999/xlink" x="0px" y="0px"
	 viewBox="0 0 1000 1000" style="enable-background:new 0 0 1000 1000;" xml:space="preserve">
<style type="text/css">
	.st0{fill:#D12130;}
	.st1{fill:#FFFFFF;}
</style>
<g>
	<rect y="0" class="st0" width="1000" height="1000"/>
</g>
<g>
	<path class="st1" d="M499.7,103.5c-219.3,0-396.5,177.9-396.5,396.5c0,219.3,177.9,396.5,396.5,396.5
		c219.3,0,397.2-177.9,397.2-396.5S718.9,103.5,499.7,103.5"/>
	<path class="st0" d="M776.9,676.5c-15.2,7.6-44.1,20-69,20c-12.4,0-24.1-3.4-35.9-11.7c-64.1-42.8-42.1-93.8,1.4-173.1
		c18.6-33.8,37.9-68.3,46.2-104.1c9-38.6,17.2-94.5-15.9-137.2c-15.9-20-39.3-35.2-71-45.5c-32.4-11-74.5-16.5-124.8-17.2h-3.4
		h-13.1c-50.3,0.7-92.4,6.2-124.8,17.2c-31.7,10.3-55.2,25.5-71,45.5c-33.1,42.8-24.8,98.6-15.9,137.2
		c8.3,35.9,27.6,70.3,46.2,104.1c44.1,79.3,65.5,130.3,1.4,173.1c-11.7,7.6-23.4,11.7-35.9,11.7c-24.8,0-53.8-12.4-69-20l3.4,6.9
		c31.7,47.6,72.4,73.1,117.9,73.1c20,0,40.7-4.8,62.1-14.5c22.8-10.3,42.8-28.3,56.5-51.7c13.8-23.4,18.6-49,15.2-71
		c-4.8-20-15.2-46.9-27.6-78.6c-31.7-82.1-75.2-193.8-37.2-248.2c15.9-22.8,44.1-34.5,86.9-34.5s71,11.7,86.9,34.5
		c37.2,54.5-6.2,166.2-37.2,248.2c-12.4,31.7-22.8,58.6-27.6,78.6c-4.1,22.8,1.4,48.3,15.2,71.7s33.8,42.1,56.5,51.7
		c21.4,9.7,42.8,14.5,62.1,14.5c45.5,0,86.2-25.5,117.9-73.1L776.9,676.5z"/>
</g>
</svg>
