<?xml version="1.0" encoding="utf-8"?>
<!-- Generator: Adobe Illustrator 23.0.1, SVG Export Plug-In . SVG Version: 6.00 Build 0)  -->
<svg version="1.1" id="Layer_1" xmlns="http://www.w3.org/2000/svg" xmlns:xlink="http://www.w3.org/1999/xlink" x="0px" y="0px"
	 viewBox="0 0 1000 1000" style="enable-background:new 0 0 1000 1000;" xml:space="preserve">
<style type="text/css">
	.st0{fill:#432A02;}
	.st1{fill:#FFFDCD;}
	.st2{fill:#FFE264;}
	.st3{fill:#CD9816;}
	.st4{fill:#B07819;}
	.st5{fill:#FEDC18;}
</style>
<g>
	<rect x="196" y="111" class="st0" width="86.4" height="86.4"/>
	<polygon class="st1" points="628.2,111 541.8,111 455.3,111 368.9,111 282.4,111 282.4,197.5 368.9,197.5 455.3,197.5 541.8,197.5 
		628.2,197.5 714.6,197.5 714.6,111 	"/>
	<rect x="714.6" y="111" class="st0" width="86.4" height="86.4"/>
	<rect x="109.6" y="197.5" class="st0" width="86.4" height="86.4"/>
	<rect x="801.1" y="197.5" class="st0" width="86.4" height="86.4"/>
	<polygon class="st2" points="714.6,197.5 628.2,197.5 541.8,197.5 455.3,197.5 455.3,283.9 541.8,283.9 628.2,283.9 714.6,283.9 
		714.6,370.3 801.1,370.3 801.1,283.9 801.1,197.5 	"/>
	<g>
		<polygon class="st3" points="628.2,283.9 628.2,370.3 541.8,370.3 541.8,456.8 628.2,456.8 628.2,543.2 628.2,629.7 628.2,716.1 
			714.6,716.1 714.6,629.7 714.6,543.2 714.6,456.8 714.6,370.3 714.6,283.9 		"/>
		<polygon class="st3" points="368.9,370.3 368.9,283.9 282.4,283.9 282.4,370.3 282.4,456.8 282.4,543.2 282.4,629.7 282.4,716.1 
			368.9,716.1 368.9,629.7 368.9,543.2 368.9,456.8 455.3,456.8 455.3,370.3 		"/>
		<polygon class="st3" points="455.3,543.2 455.3,629.7 541.8,629.7 541.8,543.2 541.8,456.8 455.3,456.8 		"/>
	</g>
	<rect x="801.1" y="629.7" class="st4" width="86.4" height="86.4"/>
	<polygon class="st0" points="887.5,283.9 887.5,370.3 887.5,456.8 887.5,543.2 887.5,629.7 887.5,716.1 973.9,716.1 973.9,629.7 
		973.9,543.2 973.9,456.8 973.9,370.3 973.9,283.9 	"/>
	<rect x="111" y="716.1" class="st0" width="86.4" height="86.4"/>
	<g>
		<polygon class="st5" points="801.1,283.9 801.1,370.3 714.6,370.3 714.6,456.8 714.6,543.2 714.6,629.7 714.6,716.1 801.1,716.1 
			801.1,629.7 887.5,629.7 887.5,543.2 887.5,456.8 887.5,370.3 887.5,283.9 		"/>
		<polygon class="st5" points="628.2,629.7 628.2,543.2 628.2,456.8 541.8,456.8 541.8,543.2 541.8,629.7 455.3,629.7 455.3,543.2 
			455.3,456.8 368.9,456.8 368.9,543.2 368.9,629.7 368.9,716.1 282.4,716.1 282.4,629.7 282.4,543.2 282.4,456.8 282.4,370.3 
			282.4,283.9 368.9,283.9 368.9,370.3 455.3,370.3 455.3,456.8 541.8,456.8 541.8,370.3 628.2,370.3 628.2,283.9 541.8,283.9 
			455.3,283.9 455.3,197.5 368.9,197.5 282.4,197.5 196,197.5 196,283.9 109.6,283.9 109.6,370.3 109.6,456.8 109.6,543.2 
			109.6,629.7 109.6,716.1 196,716.1 196,802.5 282.4,802.5 368.9,802.5 455.3,802.5 541.8,802.5 628.2,802.5 714.6,802.5 
			714.6,716.1 628.2,716.1 		"/>
	</g>
	<rect x="714.6" y="716.1" class="st4" width="86.4" height="86.4"/>
	<rect x="801.1" y="716.1" class="st0" width="86.4" height="86.4"/>
	<rect x="196" y="802.5" class="st0" width="86.4" height="86.4"/>
	<polygon class="st4" points="628.2,802.5 541.8,802.5 455.3,802.5 368.9,802.5 282.4,802.5 282.4,889 368.9,889 455.3,889 
		541.8,889 628.2,889 714.6,889 714.6,802.5 	"/>
	<rect x="714.6" y="802.5" class="st0" width="86.4" height="86.4"/>
	<g>
		<polygon class="st0" points="629.7,24.6 543.2,24.6 456.8,24.6 370.3,24.6 283.9,24.6 283.9,111 370.3,111 456.8,111 543.2,111 
			629.7,111 716.1,111 716.1,24.6 		"/>
		<polygon class="st0" points="24.6,370.3 24.6,456.8 24.6,543.2 24.6,629.7 24.6,716.1 111,716.1 111,629.7 111,543.2 111,456.8 
			111,370.3 111,283.9 24.6,283.9 		"/>
		<polygon class="st0" points="543.2,889 456.8,889 370.3,889 283.9,889 283.9,975.4 370.3,975.4 456.8,975.4 543.2,975.4 
			629.7,975.4 716.1,975.4 716.1,889 629.7,889 		"/>
	</g>
</g>
</svg>
