<?xml version="1.0" encoding="utf-8"?>
<!-- Generator: Adobe Illustrator 23.1.1, SVG Export Plug-In . SVG Version: 6.00 Build 0)  -->
<svg version="1.1" id="Layer_1" xmlns="http://www.w3.org/2000/svg" xmlns:xlink="http://www.w3.org/1999/xlink" x="0px" y="0px"
	 viewBox="0 0 1000 1000" style="enable-background:new 0 0 1000 1000;" xml:space="preserve">
<style type="text/css">
	.st0{fill:#64A43A;stroke:#64A43A;}
	.st1{fill:#5B422D;stroke:#5B422D;}
	.st2{fill:#5A9A30;stroke:#5A9A30;}
	.st3{fill:#4F3624;stroke:#4F3624;}
	.st4{fill:#3B6121;stroke:#3B6121;}
</style>
<path id="path3387" class="st0" d="M74.5,326.7l26.7,10.3v-34.9l26.7,10.3v34.9l53.4,20.5l0,34.9l26.7,10.3l0-104.6l26.7,10.2
	l0,69.8l26.7,10.3l0-34.9L288,374l0,69.8l26.7,10.3l0.1-34.9l26.6,10.2v34.9l26.7,10.3v-34.9l26.7,10.3l0-34.9l26.7,10.3l0,34.9
	l53.4,20.5l0-34.9l26.7,10.3v-69.8L74.8,222.2L74.5,326.7z"/>
<path id="path3393" class="st1" d="M101.2,302.2V337l-26.7-10.3v453.6l426.9,164.3V456.2l-26.7-10.3v34.9l-53.4-20.5v-34.9
	l-26.7-10.2V450L368,439.7v34.9l-26.7-10.3v-34.9l-26.7-10.3v34.9L288,443.8V374l-26.7-10.3v34.9l-26.7-10.3l0-69.8l-26.7-10.3V413
	l-26.7-10.3v-34.9l-53.4-20.5v-34.9L101.2,302.2L101.2,302.2z"/>
<path id="path3395" class="st2" d="M74.8,222.2l426.6,164.2L928,222.2L501.4,58L74.8,222.2z"/>
<path id="path3416" class="st3" d="M928.2,291.9l-26.7,10.3l0.1,34.9l-53.4,20.6l-0.1-34.9l-26.5,10.2l0,34.9l-26.7,10.3l0,34.9
	l-26.7,10.3l0-34.9l-26.7,10.3l-0.3,35l-26.4,10.1l0-69.8l-26.7,10.3l0,34.9l-25.6,9.9l-1-69.4l-26.7,10.3l0,104.7l-26.7,10.3
	l0-34.9l-53.4,20.6v-34.9l-26.7,10.3v34.9l-26.7,10.3v453.6l426.9-164.3L928.2,291.9z"/>
<path id="path3418" class="st4" d="M928,222.2l0.2,69.7l-26.7,10.3l0.1,34.9l-53.4,20.6l-0.1-34.9l-26.5,10.2l0,34.9l-26.7,10.3
	l0,34.9l-26.7,10.3l0-34.9l-26.7,10.3l-0.3,35l-26.4,10.1l0-69.8l-26.7,10.3l0,34.9l-25.6,9.9l-1-69.4l-26.7,10.3l0,104.7
	l-26.7,10.3l0-34.9l-53.4,20.6v-34.9l-26.7,10.3v34.9l-26.7,10.3l0-104.7L928,222.2z"/>
</svg>
