<svg id="Layer_1" data-name="Layer 1" xmlns="http://www.w3.org/2000/svg" viewBox="0 0 1000 1000"><title>mint</title><path d="M469.16,8.53,91.3,226.32a63.87,63.87,0,0,0-32,55.29L59,717.73a63.88,63.88,0,0,0,31.9,55.35L468.43,991.42a63.91,63.91,0,0,0,63.88.05L910.16,773.68a63.87,63.87,0,0,0,32-55.29l.33-436.12a63.92,63.92,0,0,0-31.9-55.35L533,8.58A63.91,63.91,0,0,0,469.16,8.53Z" style="fill:#e6f1d6;isolation:isolate"/><path d="M469.16,8.53,91.3,226.32a63.87,63.87,0,0,0-32,55.29L59,717.73a63.88,63.88,0,0,0,31.9,55.35L468.43,991.42a63.91,63.91,0,0,0,63.88.05L910.16,773.68a63.87,63.87,0,0,0,32-55.29l.33-436.12a63.92,63.92,0,0,0-31.9-55.35L533,8.58A63.91,63.91,0,0,0,469.16,8.53Z" style="fill:#d6e8bc;isolation:isolate"/><path d="M294.52,890.84,468.43,991.42a63.88,63.88,0,0,0,33.38,8.56V140.48l-207.29,122Z" style="fill:#88c14f;isolation:isolate"/><path d="M500.78,519.43,242.7,369.36V860.87L468.43,991.42a63.82,63.82,0,0,0,33.31,8.56Z" style="fill:#7fb542;isolation:isolate"/><path d="M500.73,756l-312-180.39V829.65L468.43,991.42a63.75,63.75,0,0,0,32.3,8.57Z" style="fill:#6eae44;isolation:isolate"/><path d="M709.1,890.84,535.2,991.42a63.94,63.94,0,0,1-33.39,8.56V140.48l207.29,122Z" style="fill:#68b345;isolation:isolate"/><path d="M502.85,519.43,760.92,369.36V860.87L535.2,991.42a63.84,63.84,0,0,1-33.31,8.56Z" style="fill:#5ba645;isolation:isolate"/><path d="M502.89,756l312-180.39V829.65L535.2,991.42a63.79,63.79,0,0,1-32.31,8.57Z" style="fill:#589d44;isolation:isolate"/></svg>