<?xml version="1.0" encoding="utf-8"?>
<!-- Generator: Adobe Illustrator 24.3.0, SVG Export Plug-In . SVG Version: 6.00 Build 0)  -->
<svg version="1.1" id="Layer_1" xmlns="http://www.w3.org/2000/svg" xmlns:xlink="http://www.w3.org/1999/xlink" x="0px" y="0px"
	 viewBox="0 0 1000 1000" style="enable-background:new 0 0 1000 1000;" xml:space="preserve">
<style type="text/css">
	.st0{fill:#0C0701;}
	.st1{fill:#E2C574;}
</style>
<path class="st0" d="M861.4,953.8H138.7c-53.4,0-96.7-43.3-96.7-96.7V142.9c0-53.4,43.3-96.7,96.7-96.7h722.6
	c53.4,0,96.7,43.3,96.7,96.7V857C958.1,910.5,914.8,953.8,861.4,953.8z"/>
<g>
	<polygon class="st1" points="807.7,332.2 666.8,191.3 807.7,191.3 807.7,332.2 	"/>
	<g>
		<g>
		</g>
		<g>
		</g>
		<g>
			<path class="st1" d="M807.7,737.5L692.2,622V392.4l-88.8-88.8L483.9,423.1L252.1,191.3h287.8c15.7,0,30.5,6.1,41.6,17.2l209,209
				c11.1,11.1,17.2,25.9,17.2,41.6V737.5z"/>
		</g>
	</g>
	<path class="st1" d="M756.5,808.7H449.2c-15.7,0-30.5-6.1-41.6-17.2L207.5,591.4c-11.1-11.1-17.2-25.9-17.2-41.6V260.4l92,94.5
		l2.7,226.2l93.4,93.4V430.1l110,110L596,432.4v215.8L756.5,808.7z"/>
	<path class="st1" d="M331.2,808.7H190.3V667.8L331.2,808.7z"/>
</g>
</svg>
