<?xml version="1.0" encoding="utf-8"?>
<!-- Generator: Adobe Illustrator 24.3.0, SVG Export Plug-In . SVG Version: 6.00 Build 0)  -->
<svg version="1.1" id="Layer_1" xmlns="http://www.w3.org/2000/svg" xmlns:xlink="http://www.w3.org/1999/xlink" x="0px" y="0px"
	 viewBox="0 0 1000 1000" style="enable-background:new 0 0 1000 1000;" xml:space="preserve">
<style type="text/css">
	.st0{fill:#ED348B;}
	.st1{fill:#FFFFFF;}
</style>
<path class="st0" d="M862.8,934H137.2C97.9,934,66,902.1,66,862.8V137.2C66,97.9,97.9,66,137.2,66h725.6c39.3,0,71.2,31.9,71.2,71.2
	v725.6C934,902.1,902.1,934,862.8,934z"/>
<path class="st1" d="M437.5,701.3V563c0-19.2-0.7-39.8-2.7-61.7c-2.1-21.9-4.6-46.4-8.2-72.9c9.8,26.1,21.5,51.4,35.7,75.7
	c3.4,5.9,5.7,10.7,7.3,13.9L547,658.8c7.1,14.9,17.1,27.9,29.3,39.1c9.4,6.9,20.8,10.5,32.5,10.1c13.7,0.5,27-5,36.1-15.1
	c9.4-10.7,14.4-24.9,13.7-39.6V300.5h-95.3v125.1c0,10.5,0.5,26.1,1.8,45.7c1.4,20.1,3,42.3,5,67c-4.1-12.8-9.1-25.6-14.9-38
	c-6.4-13.7-14.9-30.6-25.6-50.3l-51.9-95.1c-8.9-18.7-21.3-35.9-36.4-50.1c-11-8.7-24.9-13.5-39.3-12.8c-16.9-0.7-32.9,6.4-43.9,19
	c-11.7,14.4-17.4,32.7-16.7,51.2v339.5h95.8v-0.5H437.5z"/>
</svg>
