<?xml version="1.0" encoding="utf-8"?>
<!-- Generator: Adobe Illustrator 23.1.1, SVG Export Plug-In . SVG Version: 6.00 Build 0)  -->
<svg version="1.1"
	 id="svg2" inkscape:version="0.91 r13725" sodipodi:docname="Netflix icon.svg" xmlns:cc="http://creativecommons.org/ns#" xmlns:dc="http://purl.org/dc/elements/1.1/" xmlns:inkscape="http://www.inkscape.org/namespaces/inkscape" xmlns:rdf="http://www.w3.org/1999/02/22-rdf-syntax-ns#" xmlns:sodipodi="http://sodipodi.sourceforge.net/DTD/sodipodi-0.dtd" xmlns:svg="http://www.w3.org/2000/svg"
	 xmlns="http://www.w3.org/2000/svg" xmlns:xlink="http://www.w3.org/1999/xlink" x="0px" y="0px" viewBox="0 0 325.8 325.8"
	 style="enable-background:new 0 0 325.8 325.8;" xml:space="preserve">
<style type="text/css">
	.st0{fill:#FFFFFF;}
	.st1{fill:#E0E0E0;}
	.st2{fill:#B1060F;}
	.st3{fill:#EE101B;}
</style>
<title  id="title5759">Netflix icon</title>
<sodipodi:namedview  bordercolor="#666666" borderopacity="1.0" fit-margin-bottom="0" fit-margin-left="0" fit-margin-right="0" fit-margin-top="0" id="base" inkscape:current-layer="layer1" inkscape:cx="133.94373" inkscape:cy="222.84368" inkscape:document-units="px" inkscape:pageopacity="0.0" inkscape:pageshadow="2" inkscape:window-height="705" inkscape:window-maximized="1" inkscape:window-width="1366" inkscape:window-x="-8" inkscape:window-y="-8" inkscape:zoom="0.70710678" pagecolor="#ffffff" showgrid="false">
	</sodipodi:namedview>
<g id="layer1" transform="translate(12.494543,6.7556334)" inkscape:groupmode="layer" inkscape:label="Capa 1">
	<g id="g4182">
		<g id="rect4180">
			<path class="st0" d="M17.5,317.1c-15.4,0-28-12.6-28-28V23.2c0-15.4,12.6-28,28-28h265.9c15.4,0,28,12.6,28,28v265.9
				c0,15.4-12.6,28-28,28H17.5z"/>
			<path class="st1" d="M283.4-2.8c14.3,0,26,11.7,26,26v265.9c0,14.3-11.7,26-26,26H17.5c-14.3,0-26-11.7-26-26V23.2
				c0-14.3,11.7-26,26-26H283.4 M283.4-6.8H17.5c-16.6,0-30,13.5-30,30v265.9c0,16.6,13.5,30,30,30h265.9c16.6,0,30-13.5,30-30V23.2
				C313.4,6.6,299.9-6.8,283.4-6.8L283.4-6.8z"/>
		</g>
		<g id="g5747" transform="matrix(0.29074008,0,0,0.29074008,81.631476,113.77111)">
			<path id="path4157" inkscape:connector-curvature="0" class="st2" d="M3.7-277c0,0,0.2,845.2,0.5,845.5
				c0.3,0.3,158.1-13.4,164.4-13.5c1.8,0,1.7-832,1.7-832H3.7z"/>
			<path id="path5715_1_" inkscape:connector-curvature="0" class="st2" d="M297.6,554.6c0.2,0.2,170.8,14.3,171.3,13.9
				c0.5-0.4,0.3-844.9,0.3-844.9H303.5L297.6,554.6z"/>
			<path id="path5721" inkscape:connector-curvature="0" class="st3" d="M3.7-277l167.4,474.3v-0.2l13.2,37.4
				c73.6,208.2,113.1,319.8,113.3,320c0.2,0.2,11.3,0.8,24.7,1.5c40.8,2,91.3,6.4,129.6,11.1c8.8,1.1,16.4,1.7,17,1.3L302.8,97.2
				v0.1l-15.4-43.4c-15-42.4-25.1-70.7-85.4-241.4c-16.2-45.9-30-84.8-30.6-86.5l-1.1-3.1H87L3.7-277L3.7-277z"/>
		</g>
	</g>
</g>
</svg>
