<?xml version="1.0" encoding="utf-8"?>
<!-- Generator: Adobe Illustrator 25.4.1, SVG Export Plug-In . SVG Version: 6.00 Build 0)  -->
<svg version="1.1" id="Layer_1" xmlns="http://www.w3.org/2000/svg" xmlns:xlink="http://www.w3.org/1999/xlink" x="0px" y="0px"
	 viewBox="0 0 1000 1000" style="enable-background:new 0 0 1000 1000;" xml:space="preserve">
<style type="text/css">
	.st0{fill:#2B1BF5;}
</style>
<path id="path2513" class="st0" d="M224.4,327.5c12.3-5.8,25.3-10.1,37.6-12.3c23.2-110,120.9-192.6,237.4-192.6
	c117.3,0,215,82.5,237.4,192.6c36.2,6.5,65.9,21,88.3,42.7c0.7-21,0-41.3-2.2-60.8C808.6,130.6,668.9,0.3,498.8,0.3
	C324.3,1,181.7,139.3,174.5,313c-0.7,15.2-1.4,30.4-0.7,47.1C188.2,347,204.9,336.2,224.4,327.5"/>
<path id="path2515" class="st0" d="M689.9,352.1H299.7c-18.8,0-38.4,4.3-57.9,13s-35.5,18.8-47.8,31.1
	c-23.9,29-36.9,71.7-37.6,127.4v304.8c0.7,55.7,13,98.4,37.6,127.4c13,12.3,28.2,22.4,47.8,31.1c20.3,8.7,39.8,13,57.9,13h390.2
	c100.6-0.7,152-56.5,153.5-165.8V517.9C841.9,408.6,790.5,352.8,689.9,352.1"/>
</svg>
