<?xml version="1.0" encoding="utf-8"?>
<!-- Generator: Adobe Illustrator 23.0.1, SVG Export Plug-In . SVG Version: 6.00 Build 0)  -->
<svg version="1.1" id="Layer_1" xmlns="http://www.w3.org/2000/svg" xmlns:xlink="http://www.w3.org/1999/xlink" x="0px" y="0px"
	 viewBox="0 0 1000 1000" style="enable-background:new 0 0 1000 1000;" xml:space="preserve">
<style type="text/css">
	.st0{fill:#111417;}
	.st1{fill:#F07F28;}
</style>
<title>pcs</title>
<path class="st0" d="M69.1,4h857.8C965.1,4,996,34.9,996,73.1v857.8c0,38.2-30.9,69.1-69.1,69.1H69.1C30.9,1000,0,969.1,0,930.9
	V73.1C0,34.9,30.9,4,69.1,4z"/>
<g>
	<path class="st1" d="M74.1,429.3v144.3c0,0,6.1,21.5,27.6,21.5c0,0,15.4,0,15.4-15.4s-15.4-15.3-15.4-15.3V432.4h221.1v55.3H126.3
		c0,0-15.4,0-15.4,12.3c0,9.2,3.1,12.3,15.4,12.3h196.5c0,0,24.6,0,24.6-21.5v-61.4c0,0,0-21.5-21.5-21.5H98.7
		C98.7,407.8,74.1,407.8,74.1,429.3z"/>
	<path class="st1" d="M623.8,555.2c-15.3,0-12.3,15.4-12.3,15.4H387.3V435.5h224.2c0,0-3.1,15.4,12.3,15.4s12.3-15.4,12.3-15.4
		s3.1-24.6-24.6-24.6H387.3c0,0-21.5,0-21.5,24.6v135.1c0,24.6,21.5,24.6,21.5,24.6h224.2c27.6,0,24.6-24.6,24.6-24.6
		S639.2,555.2,623.8,555.2z"/>
	<path class="st1" d="M903.2,515.3v55.3H679.1c0,0,3.1-15.4-12.3-15.4s-12.3,15.4-12.3,15.4s-3.1,24.6,24.6,24.6h224.2
		c0,0,21.5,0,21.5-24.6v-55.3c0,0,0-24.6-24.6-24.6H676v-55.3h224.2c0,0-3.1,15.4,12.3,15.4s12.3-15.4,12.3-15.4s3.1-24.6-24.6-24.6
		H676c0,0-21.5,0-21.5,24.6v55.3c0,0-3.1,24.6,21.5,24.6H903.2z"/>
</g>
</svg>
