<?xml version="1.0" encoding="utf-8"?>
<!-- Generator: Adobe Illustrator 22.1.0, SVG Export Plug-In . SVG Version: 6.00 Build 0)  -->
<svg version="1.1" id="Layer_1" xmlns="http://www.w3.org/2000/svg" xmlns:xlink="http://www.w3.org/1999/xlink" x="0px" y="0px"
	 viewBox="0 0 1000 1000" style="enable-background:new 0 0 1000 1000;" xml:space="preserve">
<style type="text/css">
	.st0{fill:url(#SVGID_1_);}
	.st1{fill:#F58357;}
	.st2{fill:#FFFFFF;}
</style>
<g>
	<linearGradient id="SVGID_1_" gradientUnits="userSpaceOnUse" x1="197.0103" y1="227.1835" x2="790.3761" y2="934.3293">
		<stop  offset="0" style="stop-color:#11BEF1"/>
		<stop  offset="0.7249" style="stop-color:#007FC7"/>
	</linearGradient>
	<path class="st0" d="M169,253.5h586.8c0.4,0,0.7,0,1.1,0.1l75.5,9.3c4.4,0.5,7.8,4.2,8,8.6l30.2,590.8c0.2,3.3-1.4,6.4-4.2,8.2
		l-145.8,93.1c-1.9,1.2-4.1,1.7-6.3,1.3l-578-88.3c-4.6-0.7-8-4.8-7.7-9.5l31.3-604.9C160.1,257.3,164.1,253.5,169,253.5z"/>
	<path class="st1" d="M528.4,68.2c67.2,3.2,96.1,154.4,101.3,185.3h28.7c-23.6-65.7-30-206.2-126.5-214.1
		c-16-1.3-29.7,3.3-41.4,11.9c-10.6-5.8-22.7-9.5-36.7-10.2C355.9,36,352.1,253.5,352.1,253.5h28.3c3.7-65.9,17.7-185,70.8-184.1
		c6.4,0.1,12.4,1.6,18.2,4.2c-42.1,60.5-47.7,179.2-47.7,179.2l0.4,0.7h28.6c4.2-48.7,14.7-125.6,40.9-163.2
		c45,48.2,65.2,163.2,65.2,163.2h29.6c-19.9-44.6-29.4-135.9-72-183C518.7,68.8,523.4,68,528.4,68.2z"/>
</g>
<path id="path-1" class="st2" d="M674.5,669.5c-9.3,11.7-32,20.1-32,20.1l-169.2,60.8v-44.8l124.5-44.4c14.1-5.1,16.3-12.2,4.8-16
	c-11.5-3.8-32.2-2.7-46.4,2.4l-83,29.2v-46.5l4.8-1.6c0,0,24-8.5,57.7-12.2c33.7-3.7,75,0.5,107.4,12.8
	C679.7,640.8,683.8,657.8,674.5,669.5z M489.4,593.2V478.5c0-13.5-2.5-25.9-15.1-29.4c-9.7-3.1-15.7,5.9-15.7,19.3v287.1L381.1,731
	V388.7c32.9,6.1,80.9,20.6,106.7,29.2c65.6,22.5,87.8,50.5,87.8,113.7C575.6,593.1,537.6,616.5,489.4,593.2z M239.1,700.8
	c-37.5-10.6-43.7-32.6-26.6-45.2c15.8-11.7,42.7-20.5,42.7-20.5l111-39.5v45l-79.9,28.6c-14.1,5.1-16.3,12.2-4.8,16
	c11.5,3.8,32.3,2.7,46.4-2.4l38.3-13.9v40.3c-2.4,0.4-5.1,0.9-7.6,1.3C320.1,716.7,279.3,714.1,239.1,700.8L239.1,700.8z
	 M649.9,718.7c4.8,0,9.4,1.9,12.8,5.3c3.4,3.4,5.3,8,5.3,12.8c0,4.9-1.9,9.4-5.3,12.8c-3.4,3.4-8,5.3-12.8,5.3s-9.4-1.9-12.8-5.3
	c-3.4-3.4-5.3-7.9-5.3-12.8C631.7,726.8,639.9,718.7,649.9,718.7z M634.8,736.8c0,4,1.6,7.8,4.4,10.6c2.8,2.9,6.6,4.4,10.7,4.4
	c8.3,0,15.1-6.8,15.1-15.1c0-4-1.6-7.8-4.4-10.7c-2.8-2.9-6.6-4.4-10.7-4.4c-4,0-7.8,1.5-10.7,4.4
	C636.3,729,634.8,732.8,634.8,736.8z M655.3,727c2,0.9,3,2.6,3,5c0,1.2-0.3,2.3-0.8,3.1c-0.4,0.6-0.9,1.1-1.5,1.5
	c0.5,0.3,0.9,0.6,1.2,1c0.4,0.6,0.7,1.5,0.7,2.7l0.1,2.6c0,0.7,0.1,1.2,0.2,1.5c0.1,0.5,0.3,0.8,0.6,0.9l0.3,0.1v0.3v0.4v0.4h-0.4
	h-3.2h-0.3l-0.1-0.2c-0.1-0.2-0.2-0.5-0.3-0.8c-0.1-0.3-0.1-0.8-0.1-1.6l-0.2-3.2c0-1.1-0.4-1.8-1.1-2.2c-0.4-0.2-1.2-0.3-2.2-0.3
	h-5.5v7.8v0.4h-0.5h-2.6h-0.4v-0.4v-19.3v-0.4h0.4h8.9C653,726.4,654.3,726.6,655.3,727L655.3,727z M645.7,735.2h5.6
	c1.1,0,2-0.2,2.7-0.6c0.6-0.4,0.9-1.2,0.9-2.3c0-1.2-0.4-2-1.2-2.4c-0.5-0.2-1.1-0.4-1.9-0.4h-5.9V735.2L645.7,735.2z"/>
</svg>
