<?xml version="1.0" encoding="utf-8"?>
<!-- Generator: Adobe Illustrator 24.1.2, SVG Export Plug-In . SVG Version: 6.00 Build 0)  -->
<svg version="1.1" id="Layer_1" xmlns="http://www.w3.org/2000/svg" xmlns:xlink="http://www.w3.org/1999/xlink" x="0px" y="0px"
	 viewBox="0 0 1000 1000" style="enable-background:new 0 0 1000 1000;" xml:space="preserve">
<style type="text/css">
	.st0{fill:#0D0D0D;}
	.st1{fill:#FDB900;}
</style>
<path class="st0" d="M872,952.4H128c-44.4,0-80.4-36-80.4-80.4V128c0-44.4,36-80.4,80.4-80.4h744c44.4,0,80.4,36,80.4,80.4v744
	C952.4,916.4,916.4,952.4,872,952.4z"/>
<g>
	<g>
		<path class="st1" d="M355,664.8l7.9,47.5h0.2l7.9-47.5h28.2v80.2h-18.4v-59.7h-0.2l-10.5,59.7h-14.2l-10.5-59.7h-0.2v59.7h-18.4
			v-80.2H355z"/>
		<path class="st1" d="M412.3,685.7c0.9-5.3,2.4-9.6,4.6-12.9c2.1-3.3,4.9-5.8,8.4-7.3c3.5-1.5,7.7-2.3,12.7-2.3
			c5,0,9.3,0.8,12.7,2.3c3.5,1.5,6.3,4,8.4,7.3c2.1,3.3,3.6,7.6,4.6,12.9c0.9,5.3,1.4,11.7,1.4,19.1c0,7.5-0.5,13.9-1.4,19.1
			c-0.9,5.3-2.4,9.6-4.6,12.9c-2.1,3.3-4.9,5.7-8.4,7.1c-3.5,1.4-7.7,2.1-12.7,2.1c-5,0-9.3-0.7-12.7-2.1c-3.5-1.4-6.3-3.8-8.4-7.1
			c-2.1-3.3-3.6-7.6-4.6-12.9c-0.9-5.3-1.4-11.7-1.4-19.1C410.9,697.4,411.4,691,412.3,685.7z M431.5,718.3c0.1,3.6,0.4,6.4,0.9,8.5
			c0.5,2.1,1.1,3.6,2,4.4c0.9,0.8,2.1,1.2,3.6,1.2c1.5,0,2.7-0.4,3.6-1.2c0.9-0.8,1.6-2.3,2-4.4c0.5-2.1,0.8-4.9,0.9-8.5
			c0.1-3.6,0.2-8,0.2-13.4c0-5.4-0.1-9.9-0.2-13.4c-0.1-3.6-0.4-6.4-0.9-8.5c-0.5-2.1-1.1-3.6-2-4.4c-0.9-0.8-2.1-1.2-3.6-1.2
			c-1.5,0-2.7,0.4-3.6,1.2c-0.9,0.8-1.6,2.3-2,4.4c-0.5,2.1-0.8,4.9-0.9,8.5c-0.1,3.6-0.2,8-0.2,13.4
			C431.3,710.2,431.4,714.7,431.5,718.3z"/>
		<path class="st1" d="M507.8,664.8c7.1,0,12.3,1.8,15.6,5.4c3.4,3.6,5,8.5,5,14.5c0,2.1-0.2,4.1-0.7,6.1c-0.5,2-1.2,3.8-2.1,5.4
			c-1,1.6-2.2,3-3.7,4.1c-1.5,1.1-3.3,1.9-5.4,2.4v0.2c2.5,0.2,4.6,0.9,6.4,2.1c1.8,1.2,3.2,2.6,4.3,4.3c1.1,1.7,2,3.6,2.5,5.7
			c0.5,2.1,0.8,4.1,0.8,6.2c0,3.4-0.4,6.6-1.3,9.5c-0.8,2.9-2.2,5.4-4,7.5c-1.8,2.1-4.2,3.7-7,4.9c-2.9,1.2-6.4,1.7-10.5,1.7H478
			v-80.2H507.8z M502.5,696.2c2,0,3.6-0.8,4.7-2.4c1.1-1.6,1.6-3.5,1.6-5.7c0-2.2-0.5-4.2-1.6-5.8c-1.1-1.6-2.6-2.5-4.7-2.5h-4.8
			v16.4H502.5z M503.3,729.9c1.8,0,3.5-0.8,4.9-2.4c1.4-1.6,2.1-4.1,2.1-7.5c0-3.1-0.7-5.5-2.1-7.2c-1.4-1.6-3-2.5-4.9-2.5h-5.5
			v19.5H503.3z"/>
		<path class="st1" d="M562.5,664.8v80.2h-19.7v-80.2H562.5z"/>
		<path class="st1" d="M596.1,664.8v63.1h24.3v17.1h-44v-80.2H596.1z"/>
		<path class="st1" d="M675.6,664.8v17.1h-25.1v13.7H674v16.4h-23.5v15.9h26.1v17.1h-45.8v-80.2H675.6z"/>
	</g>
	<g>
		<path class="st1" d="M905.5,597.6C905.5,597.6,905.5,597.6,905.5,597.6C905.6,597.6,905.6,597.6,905.5,597.6z"/>
		<path class="st1" d="M825.8,413.6L825.8,413.6C825.6,413.7,825.6,413.7,825.8,413.6z"/>
		<path class="st1" d="M905.5,597.6c-0.2,0-1,0-1.7,0c-8.7-0.3-17.5-0.9-26.2-0.9c-4.1,0-4.7-2.4-4.4-5.4c0.4-3.9,1.6-7.7,1.6-11.6
			c0.1-6.2-0.7-12.4-0.9-18.6c-0.2-10.7-0.2-21.4-0.3-32.2c0-11.2,0-22.4,0-33.6c-0.1-16.9-0.4-33.8-0.3-50.6
			c0-6.3,0.9-12.5,1.3-18.8c0.2-3,0-6.1,0-9.5c-0.9,1.4-1.5,2.3-2.6,4c0-7.8,0.1-14.6,0-21.5c-0.1-9.4-0.1-9.4,8.9-9.4
			c0.3,0,0.7,0,1-0.1c8.4-0.5,16.7-1,24.2-1.4c0.6-1.8,1-3.1,1.5-4.2c1-2.1,3.1-4.1,3.2-6.2c0.4-9.3,0.2-18.6,0.2-28.3
			c-4.3,2.3-5,2-5.5-1.7c-0.8-5.3-2.8-6.6-7.8-5.4c-1.8,0.4-4.3,1-5.6,0.2c-3.8-2.3-6.7-1-10.1,0.7c-5.2,2.5-9.6,0.2-9.9-5
			c-0.5-9.6-0.7-19.3-1.3-28.9c-0.8-12.4,1.8-25.1-3.2-37c-1.2-2.7-2.7-5.4-4.5-7.8c-5.3-6.9-13.1-5.9-20.5-6c-4-0.1-8,0.6-11.9,0.3
			c-2.5-0.1-4.8-1.6-7.3-1.8c-5.7-0.6-11.5-0.9-17.3-1.1c-11.9-0.5-23.8-1-35.7-1.3c-7.2-0.2-14.4,0.2-21.6,0.2
			c-7.9,0-15.9-0.2-23.8-0.2c-16.5-0.1-33-0.3-49.6-0.1c-10.7,0.1-21.3,0.8-32,1.1c-7.8,0.2-15.6,0-23.4,0c-0.4,1.8-0.8,3.4-1.1,4.9
			c-0.2,0-0.5-0.1-0.7-0.1c0-1.5,0-2.9,0-4.8c-2.5,0-4.7-0.2-7,0c-8.7,0.8-17.7-2.5-26,2.7c-1.1,0.7-3.4,0.5-4.4-0.2
			c-4.9-3.4-10.4-2.9-15.8-2.9c-14.1,0-28.3,0.1-42.4,0c-7.8,0-15.5-0.3-23.3-0.3c-10.1,0-20.3,0.3-30.4,0.5
			c-4.6,0.1-9.3,0.4-13.9,0.6c-0.5,0.9-0.9,1.7-1.4,2.6c1.6,0.1,3.2,0.3,4.8,0.4c-0.4,0.6-0.8,1.2-1.2,1.9c-1.7-0.1-3.4-0.3-5.6-0.5
			c2.6-3.3,2.4-5-1.6-5c-7.8,0-15.6-0.1-23.4-0.1c-13.8,0.1-27.7,0.2-41.5,0.3c-1.3,0-2.5,0.5-4.4,0.9c1.2,1.7,1.9,2.7,3,4.1
			c-2.4,0.1-4.2,0.2-6.9,0.3c1.4-1.8,2.1-2.9,2.9-3.9c-1.3-0.4-2.7-1.1-4-1.2c-18.8-0.3-37.6-0.7-56.4-0.8
			c-20.3-0.2-40.5-0.3-60.8-0.2c-10,0-19.9,0.8-29.8,0.8c-8.3,0-16.5-0.9-24.7-1.2c-6.4-0.2-12.8-0.2-19.2-0.2
			c-16.2,0-32.5-1.6-48.5,2.9c-4.5,1.3-11.7,10.1-11.6,14.8c0.1,10.4,0.4,20.7,0.4,31.1c0,12.3-0.2,24.5-0.2,36.8
			c0,3.4-1.9,5.5-4.8,3.9c-4.7-2.5-9.2-2.9-14.2-1.1c-1.1,0.4-2.6-0.3-4-0.5c-3.7-0.6-6.6,0-7.2,4.5c-0.2,1.6-0.9,3.2-1.5,5
			c-1.5-0.8-2.5-1.3-3.2-1.7c-0.4,8-1.1,15.7-1.1,23.5c0,3.2,1.2,6.5,2.3,9.6c0.5,1.5,1.9,2.6,3,3.9c-0.3,0.6-0.6,1.2-0.9,1.9
			c10.5,0,21,0,31.9,0c-0.2,4.7-0.6,8.4-0.6,12.2c0,11.5,0.8,23.1,0,34.6c-1.1,14.5,2.9,28.7,0.3,43.3c-3.1,17.9,0.7,36.1-0.7,54.2
			c-1.2,15.5,0.1,31.3,0.3,46.9c0.1,5.1,0,10.3,0,15.6c-3,0.2-5.2,0.5-7.5,0.5c-8.7,0-17.3-1.1-25.2,5.3c-2.8,2.3-2.3,3.9-2.4,6
			c-0.2,6.9,0,13.7-0.3,20.6c-0.6,11.4,2.7,16.3,14.6,17.4c6.9,0.6,14,0.1,21.8,0.1c0,5.9,0.1,12,0,18.2c-0.3,12.5-0.7,25-1.2,37.5
			c-0.5,11.2,6.4,22.7,16.4,25.3c6.8,1.7,14,2.1,21.1,2.4c13.3,0.4,26.6,0,39.9,0.4c13.6,0.3,27.2,1.4,40.8,1.6
			c11.4,0.2,22.8-0.5,34.2-0.6c9.3-0.1,18.5-0.1,27.8-0.1v-47.4c-5.6-0.2-11.3-0.8-16.9-0.6c-17.5,0.5-35,1.4-52.4,2.1
			c-1.3,0-3-0.5-3.9-1.3c-2.8-2.6-6-2.4-8.2,0.6c-0.5,0.6-1,1.3-1.7,1.7c-0.5,0.4-1.3,0.4-2.4,0.8c0.2-1.6,0.3-2.7,0.4-4.1
			c-14.4,0-28.8,0-43.1,0c-3.6,0-3.7-2.4-3.6-5c0-6.9,0.1-13.8,0-20.7c0-1.2-0.8-2.5-1.3-3.7c-1.1,0.5-2.3,1-3.8,1.6
			c-0.1-2-0.2-3.9-0.4-7c1.9,1.8,2.8,2.7,3.8,3.6c0.5-0.1,1.1-0.2,1.6-0.3c0.4-88.7,0.7-177.3,1.1-266c-2.7-0.6-4.3-1-7.2-1.7
			c2.8-0.2,4.3-0.4,6.4-0.5c-1.5-10.6,3-21.6-2.5-32.1c-0.9-1.8,0.7-4.8,1-7.3c0.2-2.5,0.1-5,0.1-7.5c0-1.8,0-3.6,0-5.3
			c0.2-6,0.4-12,0.5-18c0.1-3.4,0-6.8,0-11.4c6.5,0.9,12,2,17.6,2.4c6.1,0.5,12.3,0.4,18.5,0.4c11.3,0.2,22.6,0.4,33.9,0.4
			c23.8,0.1,47.7,0.3,71.5,0.1c10.7-0.1,21.4-1.1,32.1-1.3c9.7-0.2,19.3,0.1,29,0.2c14.1,0.1,28.3,0.2,42.4,0.2
			c21.2-0.1,42.3-0.6,63.5-0.5c10.3,0,20.6,1,30.9,1.3c11.4,0.3,22.9,0.4,34.3,0.3c10.4-0.1,20.7-0.6,31.1-0.6
			c14.4,0,28.7,0.3,43.1,0.2c15-0.1,30-0.5,45.1-0.6c26-0.1,52-0.1,77.9-0.2c12,0,24.1-0.3,36.1-0.1c12,0.2,24,1,36.1,1.5
			c9.4,0.4,9.2,0.4,9,9.9c-0.1,6,0.8,12,0.9,18.1c0.3,10.8,0.4,21.6,0.5,32.4c0,13.8-0.2,27.6-0.1,41.4c0,2.5,1.1,4.9,1.7,7.6
			c-0.2,0.1-0.6,0.2-0.8,0.2c0,4.9-0.1,9.2,0,13.4c0.3,12.7,0.6,25.5,0.8,38.2c0,2.4-0.7,4.7-0.8,7.1c-0.2,16.6-0.4,33.2-0.4,49.8
			c0,11.1,0.4,22.2,0.5,33.2c0.1,19.8,0.1,39.7,0.3,59.5c0.1,6.6,0.7,13.1,0.7,19.7c0.1,15.4-0.1,30.7-0.2,46.1
			c0,0.5-0.4,0.9-0.4,0.9c-39.9-0.2-79.5-0.6-119.2-0.6c-3.9,0-7.7,0-11.6,0v48.5c11.9-0.1,23.7-0.5,35.6-0.6
			c13.1,0,26.2,0.2,39.3,0.4c3.1,0,6.2,0.2,9.2,0.1c5.7-0.2,11.3-0.9,17-0.7c7.2,0.3,14.4,1.9,21.7,1.8c10.9-0.1,21.7-1.4,32.6-1.7
			c13.3-0.4,23.1-9,24.2-22.3c0.7-8.5,0.9-17,0.8-25.5c-0.1-11-0.9-22-1-32.9c-0.1-6.9,1.9-7.8,8.3-5.2c2.4,0.9,5.4,0.3,8.1,0.3
			c2.2,0,4.5-0.3,6.6,0.2c4.5,0.9,7.5-0.5,7.5-4.9c0-4.7,2.1-4.2,4.6-2.9c0.4-8.1,1.1-16,1-23.9c0-3.2-1.5-6.3-2.6-9.4
			C908.1,600.8,907,599.7,905.5,597.6z"/>
		<path class="st1" d="M520,501.4c2.8,4.2,5.8,8.9,5,14.6c-0.4,3.1-0.7,6.2-0.7,9.3c0.1,7.8,0.6,15.5,0.6,23.3
			c0,19.4-0.4,38.8-0.4,58.3c0,5.1,1,10.1,1.2,15.2c0.2,5.1,0.1,10.3,0.1,15.9c2.9-0.9,4.7-1.9,6.4-1.8c8,0.4,16.1,1.5,24.1,1.5
			c18.4-0.1,36.8-0.6,55.2-1.1c13.1-0.3,24.6-11.2,25.3-24.3c0.4-6.5-0.1-13-0.1-19.4c0-10.8,0-21.7,0.1-32.5
			c0-7.6,0.1-15.2,0.1-22.9c0-9.9,0.3-19.7-0.1-29.6c-0.2-4.4-1-9.3-3.2-12.9c-3.3-5.3-8-9.6-11.9-14c2.7-2.2,5.8-3.5,6.9-5.8
			c4.2-8.5,6.8-17.5,5.7-27.1c-0.3-2.7-1.3-5.4-1.2-8.1c0.5-7.7,0-15.4,0.9-23.3c1.7-15.8,0.9-31.8,0.7-47.8
			c-0.1-5-0.4-10.6-2.7-14.8c-3.8-7.2-11.7-7.8-18.8-7.9c-12.2-0.3-24.3,0.3-36.5,0.3c-15.7,0.1-31.4,0.3-47.1-0.2
			c-5.3-0.2-5.6,2.8-5.6,5.9c-0.2,11.9-0.2,23.9,0.1,35.8c0.4,13,1.5,25.9,1.7,38.9c0.1,7.2-0.9,14.4-1.3,21.7
			c-0.1,1.3-0.3,3.2,0.4,3.9c3.7,3.4,2,6.4-0.2,9.5c-4.6-0.6-6.7,0.8-7.1,5.5c-0.5,5.5-1.4,11.1-0.8,16.5
			C517.7,489.8,516.3,495.9,520,501.4z M593.4,594c-2.4,1.9-4.6,4.6-7.3,5.4c-2.6,0.7-5.8-0.6-8.7-0.9c-1.9-0.2-4.1,0.5-5.7-0.1
			c-5.4-2.1-5.4-4.5-4.8-11.1c1-10.1,0.6-20.3,0.9-30.5c0.1-2.4,0.5-4.8,0.5-7.2c0-11.5,0-22.9-0.2-34.4c-0.1-7,3.9-12.7,8.3-10.8
			c4.2,1.8,8.1,1.2,12.9,1c0.3,2.1,0.9,4.3,1,6.4c0.1,16.5,0,33,0.3,49.5c0.1,2.8,1.9,5.5,2.9,8.3c-1.1,0.3-2.5,0.3-2.7,0.8
			C589.1,574.3,590.7,590.8,593.4,594z M567.8,424.9c0.5-11.5,0.8-23,1-34.5c0-3.9,1.6-5.1,5.3-4.9c3.6,0.2,7.2-0.2,10.8-0.1
			c6.1,0.2,7.5,2.4,6,8.1c-0.5,2,0.1,4.4,0.1,6.6c-0.2,16.6-0.5,33.2-0.6,49.7c0,4,0.7,7.9,1,11.9c-7.6,5.8-14.9,1.8-22.4-0.2
			c-1.9-10.1,1.4-21-3.2-30.6C566.5,428.9,567.7,426.9,567.8,424.9z"/>
		<path class="st1" d="M373,626.7c1.4,4.4,9.6,10.8,14.3,10.7c6.5-0.1,13.1-0.6,19.6-0.7c8.8-0.1,17.6-0.1,26.3-0.2
			c2.2,0,4.5-0.5,6.7-0.5c6.1,0,12.3,0.1,18.4,0.2c1,0,2-0.3,2.9,0c9.2,2.9,22.6-1.2,27.7-10.5c4.2-7.6,3.2-15.9,3.8-23.9
			c0.9-12.5,0.1-25.2,0.4-37.8c0.3-13.4,1.4-26.9,1.6-40.3c0.2-11.2-0.4-22.4-0.4-33.6c0.1-15.2,0.6-30.5,0.6-45.7
			c0-12.6-0.4-25.2-1-37.8c-0.4-8.3,2.4-17-2.7-24.9c-0.5-0.8-0.3-2.5,0.3-3.4c4.5-7.2-0.3-14.8,0.8-22.1c0.1-0.5-1.5-1.2-2.4-2
			c1.1-0.2,1.9-0.3,3.5-0.6c-2.1-1.6-3.6-2.6-5.4-3.9c-0.2,1.8-0.3,2.9-0.4,4.1c-1.2-0.2-2.5-0.4-4.1-0.6c0.9-1.6,1.5-2.5,1.9-3.2
			c-7.9-0.4-15.6-1-23.3-1.1c-3.5-0.1-7.9-1.2-9.6,4c-0.2,0.5-2.4,0.4-4.8,0.6c0,10,0,20.1,0,30.3c0,16.1,0,32.2,0.2,48.3
			c0.2,19.1,0.6,38.3,1,57.4c0.3,12.8,0.7,25.6,0.9,38.4c0,2.6,1.7,5.8-2.2,7.8c-0.5,0.3,0.8,4.5,1.6,6.8c0.4,1.3,1.5,2.4,2.9,4.5
			c-2.3-0.5-3.2-0.7-3.5-0.7c-0.6,15.3-0.9,30.5-1.9,45.6c-0.4,7.2-2.1,8-9.3,6c0.8-1.1,1.5-2.1,3.3-4.5c-7.6,1.2-13.5,2.1-19.5,3
			c-0.2,0.6-0.3,1.3-0.5,1.9c-1.9-2.5-5.2-5-5.3-7.5c-0.3-9,0.7-18.1,1-27.1c0.4-11.5,0.8-23.1,1.1-34.7c0.1-6.5-0.2-13-0.1-19.5
			c0-7.8,0.2-15.5,0.3-23.3c0.1-15.1,0.5-30.2,0.3-45.3c-0.1-9.1-1.3-18.2-1.4-27.3c-0.2-17,0-34,0-51c0-9-2.3-12.3-10.9-15
			c-2.5-0.8-5.5-2-7.7-1.2c-6.4,2.4-12.7,0.8-19,0.3c-5.6-0.4-7.7,0.4-7.7,6.1c-0.1,11.2,0,22.5,0.2,33.7c0,1.3,0.8,2.5,1.2,3.8
			c1.2-0.5,2.3-1,3.7-1.5c0,1.7,0,3.5,0,5.7c-1.4-1.2-2.4-2-3.7-3.1c-0.4,1.2-0.8,1.8-0.8,2.4c0,6.4,0.2,12.7,0.1,19.1
			c-0.2,13.1-0.7,26.3-0.8,39.4c-0.1,12.1,0.3,24.3,0.2,36.4c-0.1,14.1-0.5,28.3-0.7,42.4c-0.2,11.3-0.1,22.7-0.3,34
			c-0.1,5.2-0.6,10.4-0.4,15.5C370.3,596.1,368.3,611.7,373,626.7z"/>
		<path class="st1" d="M665.3,448.8c0.2,5.2,1.2,10.5,1.2,15.7c0,9.1-0.6,18.1-0.9,27.2c-0.3,8.1-0.7,16.1-1,24.2
			c-0.2,5-0.3,10-0.2,15c0.3,12.6,0.9,25.1,1,37.7c0.1,14.4-0.6,28.9-0.2,43.3c0.5,16.8,12.1,27.2,29.3,26
			c11.5-0.8,23.1-0.2,34.6-0.2c8.7,0.1,17.4,1.2,26,0.3c16.8-1.6,25.2-10.5,25.6-25.8c0.4-14.3,0.1-28.6,0.1-43
			c0-24.4,0.5-48.7-0.1-73.1c-0.3-11.6,3.2-23.9-4.4-35.1c-14.6,0.8-29.4,2.3-44.2,2c-6.1-0.1-4.8,3.8-4.9,5.9
			c-0.7,8.4-0.4,16.9-1,25.4c-0.3,4.2,1.1,6.7,4.7,7.9c5.5,1.8,5.8,5.9,5.7,10.7c-0.3,8.8-0.4,17.6-0.4,26.4
			c0,9.9,0.4,19.8,0.5,29.7c0.1,5.1-1.5,11.1,0.6,15.2c3,6.2,0.3,10-1.4,13.7c-9.8-0.8-18.6-1.4-26.7-2.1c0.9-6.6,2.3-12.2,2.4-17.9
			c0.3-14.5,0-29-0.1-43.5c-0.1-17.1-0.1-34.3-0.1-51.4c0-10.2,0.1-20.4-0.1-30.6c-0.1-5.5-0.9-10.9-1.1-16.4
			c-0.4-14.4-0.3-28.7-1.1-43.1c-0.4-6.9,0.8-8.6,7.9-8c4.7,0.4,9.6,0,14.3-0.6c5.5-0.7,8.5,2.1,8.6,7.6c0.2,6.5-1.3,13.3,2.5,18.6
			c-1,1-2.4,1.9-2.6,2.9c-0.1,0.8,1.3,2.4,2.3,2.6c2.6,0.6,5.4,1,8.1,1c8.4,0.1,16.8,0,26.5,0c0.6-4.5,1.5-8.8,1.6-13.2
			c0.4-13.1,0.2-26.1,0.9-39.2c0.4-7.6-5.2-15.1-12.4-17.6c-8.9-3.1-17.7-1.7-26.6-1.8c-16.7-0.2-33.4-0.4-50-0.6
			c-12.7-0.2-24.2,10.6-24.7,21.9c-0.2,3.2-0.7,6.5-0.9,9.7c-0.4,9.9-1.2,19.8-1.1,29.7C663.9,420.4,664.7,434.6,665.3,448.8z
			 M742.1,574.8c3,3.8,3,3.8-0.8,12.4C741.8,583.2,737.5,578.7,742.1,574.8z"/>
		<path class="st1" d="M340.2,501.2c0.6-8.8-0.3-17.6-0.2-26.4c0.1-10.2,0.7-20.5,0.8-30.7c0.1-11.6-0.3-23.1-0.4-34.7
			c-0.1-15.4,0.1-30.8-0.2-46.3c-0.2-9.5-7-15.1-16.2-15.4c-7.5-0.2-15,0.1-22.5-0.1c-3.6-0.1-7.2-1.3-10.7-1.3
			c-19.6-0.2-39.3,0-58.9-0.2c-6-0.1-7.8,1.2-7.9,7.4c-0.1,4.7-0.2,9.4-0.1,14c0.3,19.1,0.8,38.2,1,57.4c0.2,16.6,0,33.2,0,49.8
			c-0.5-0.2-1-0.4-1.5-0.6c-1.5,2.4-4.1,4.8-4.2,7.3c-0.4,11.7,0,23.4,0.1,35.1c0,0.4,0.3,0.8,0.5,1.4c0.8-0.6,1.4-1.1,2.3-1.9
			c2,3.1,3.9,6,5.9,9c-0.7,0-1.4,0.1-2.1,0.1c-0.7,1-2,2-2,3c0.1,11.7,0.5,23.3,0.5,34.9c0,14.5-0.8,28.9-0.3,43.4
			c0.3,10.3-3,21.6,5.6,30.4c1.2,1.3,3.3,2.2,5.1,2.3c6.8,0.3,13.6,0.5,20.4,0.1c4.1-0.2,9.2-0.4,12-2.8c2.8-2.5,4.1-7.5,4.5-11.6
			c0.6-5.4-0.4-11-0.5-16.5c-0.1-12.8,0.2-25.7,0-38.5c-0.3-14-0.8-28.1-1.7-42.1c-0.3-5.1,0.9-7.4,4.9-7.4
			c15.6,0,31.1,0.1,46.7-0.5C332.4,519.5,339.5,512.5,340.2,501.2z M299.3,474.3c-1.4-0.5-2.8-1.1-5.1-2c0.4,2.3,0.8,4.4,1.1,5.9
			c-5.6,0-10.8,0.3-15.9-0.1c-2.9-0.2-5.9-1.3-8.4-2.7c-4.1-2.4-4.1-5.3-0.2-8.4c0.9-0.7,0.8-2.9,0.8-4.4c-0.1-8.5-0.4-17-0.5-25.5
			c-0.1-12.4-0.1-24.8-0.2-37.2c0-3.4-0.4-6.7,0-10c0.1-1,2.3-2.4,3.6-2.5c5.5-0.3,11.2-0.7,16.5,0.2c1.6,0.3,3.5,4.8,3.5,7.4
			c0.1,7.3-1.1,14.5-1,21.8c0.1,11.9,0.9,23.9,1.2,35.8c0.1,2.7-1.1,5.4-1.1,8c0,2.6,0.7,5.2,1,7.8c0.3,0,0.7-0.1,1-0.1
			c0.2-1.7,0.4-3.4,0.6-5.2c1.2,0,2.3,0,2.9,0C299.3,466.7,299.3,470,299.3,474.3z"/>
	</g>
</g>
</svg>
