<?xml version="1.0" encoding="utf-8"?>
<!-- Generator: Adobe Illustrator 26.3.1, SVG Export Plug-In . SVG Version: 6.00 Build 0)  -->
<svg version="1.1" id="svg4719" xmlns="http://www.w3.org/2000/svg" xmlns:xlink="http://www.w3.org/1999/xlink" x="0px" y="0px"
	 viewBox="0 0 893 893" style="enable-background:new 0 0 893 893;" xml:space="preserve">
<style type="text/css">
	.st0{clip-path:url(#SVGID_00000022540113771304242830000014447216018178681733_);}
	.st1{clip-path:url(#SVGID_00000057854513933847443040000004305948787575894962_);}
	.st2{clip-path:url(#SVGID_00000034785273875355037030000009127194206894063242_);}
	.st3{fill:#E09E20;}
	.st4{fill:url(#SVGID_00000102538752665703293260000005906028132213437624_);}
	.st5{opacity:0.64;}
	
		.st6{clip-path:url(#SVGID_00000174601240428485397080000004848613698163045524_);fill:url(#SVGID_00000153665660124604583870000008114980533761151905_);}
	
		.st7{clip-path:url(#SVGID_00000110464684388908498710000010138898367886354823_);fill:url(#SVGID_00000019635898379514710240000001456521015039182503_);}
	.st8{fill:url(#SVGID_00000057865052546624782500000012884924738186820014_);}
	.st9{fill:#F5C43C;}
	
		.st10{clip-path:url(#SVGID_00000016077163633461509780000001984346316041561528_);fill:url(#SVGID_00000060019515703107879960000016578182629334554538_);}
	.st11{fill:url(#SVGID_00000033358146724190429660000017229313684792922535_);}
	.st12{clip-path:url(#SVGID_00000101813612491484909710000016745231098160754096_);}
	.st13{fill:url(#SVGID_00000132054919861437738510000002562929127391574928_);}
	.st14{fill:#8C5208;}
	.st15{clip-path:url(#SVGID_00000041986071425217208290000014489355064297378454_);}
	.st16{fill:url(#SVGID_00000137843111801066421660000009631631615511718055_);}
	.st17{fill:url(#SVGID_00000096033341441168618380000005708821801094320001_);}
	.st18{fill:url(#SVGID_00000039098505710128926340000009443999716812272816_);}
	.st19{fill:url(#SVGID_00000018196553019183149310000005265169995590936233_);}
	.st20{fill:url(#SVGID_00000039122221931135994030000018077567067221693610_);}
	.st21{fill:url(#SVGID_00000074406101411003209580000018420014094638493073_);}
	.st22{fill:#B66A09;}
	.st23{fill:url(#SVGID_00000048459157714041356120000006264736987004782209_);}
	.st24{fill:url(#SVGID_00000058571487587362968000000004987002376683352753_);}
	.st25{fill:url(#SVGID_00000021083672633835320070000009611885875268068239_);}
	.st26{fill:#FFFFFF;}
	.st27{filter:url(#Adobe_OpacityMaskFilter);}
	.st28{opacity:0.2;mask:url(#SVGID_00000160869310840555007880000016185246293528269972_);}
	.st29{fill:#313131;}
	.st30{clip-path:url(#SVGID_00000037666340931853490980000004806036737596410543_);}
	.st31{clip-path:url(#SVGID_00000147941969876313414710000008938181466539582354_);}
</style>
<g>
	
		<image style="overflow:visible;opacity:0.2;" width="902" height="902" xlink:href="293D59D2C83A68BB.png"  transform="matrix(1 0 0 1 -4.5118 12.4882)">
	</image>
	<g>
		<g>
			<defs>
				<circle id="SVGID_1_" cx="446.5" cy="446.5" r="425.2"/>
			</defs>
			<clipPath id="SVGID_00000167371505034401969710000010415961213389036455_">
				<use xlink:href="#SVGID_1_"  style="overflow:visible;"/>
			</clipPath>
			<g style="clip-path:url(#SVGID_00000167371505034401969710000010415961213389036455_);">
				<g>
					<defs>
						<ellipse id="SVGID_00000115496884489279380470000010755895432946287005_" cx="446.5" cy="561" rx="415.4" ry="302.6"/>
					</defs>
					<clipPath id="SVGID_00000057834657140717768820000007242680938583510921_">
						<use xlink:href="#SVGID_00000115496884489279380470000010755895432946287005_"  style="overflow:visible;"/>
					</clipPath>
				</g>
				<g>
					<defs>
						<path id="SVGID_00000167357351845120616700000007988111685051751614_" d="M789.1,491.4c-19.9,10.8-22.4,26.6-22.4,26.6
							L446.5,667.2L126.3,518c0,0-2-16.8-22.4-26.6c-31.3-15-90-81.2-90-81.2l8.4,147.3l70.9,145.5l82.1,87.7l130.5,69l139.9,24.2
							l123.1-18.6l124.9-59.7l113.8-111.9L869,553.7l10-143.6C879.1,410.2,822.9,473.1,789.1,491.4z"/>
					</defs>
					<clipPath id="SVGID_00000036218919742228283860000003488517909446258566_">
						<use xlink:href="#SVGID_00000167357351845120616700000007988111685051751614_"  style="overflow:visible;"/>
					</clipPath>
				</g>
				<g>
					<defs>
						<path id="SVGID_00000134960070411464523370000011326355136423060622_" d="M800,693.6c-44.8,57.8-72.7,82.1-111.9,115.6
							c-60.5,51.9-137.3,69-235,69c-88.1,0-106.2-1.6-173.4-31.7c-108-48.4-95.1-52.2-171.6-119.4c-23.1-20.3-42.9-67.1-54.3-95.2
							C110.2,527,264.9,451.6,446.9,451.6c181.4,0,335.7,74.9,392.5,179.3C822.4,660,819.1,669,800,693.6z"/>
					</defs>
					<clipPath id="SVGID_00000085938860671231866890000018116154056784920991_">
						<use xlink:href="#SVGID_00000134960070411464523370000011326355136423060622_"  style="overflow:visible;"/>
					</clipPath>
				</g>
				<g>
					<defs>
						<polygon id="SVGID_00000018921677138833742750000017236705854232091038_" points="335.7,872.6 138,773.8 39.2,607.8 
							17.8,546.9 320.8,29.7 447.6,11 619.1,40.9 764.6,149 849.3,277.1 497.7,882.9 						"/>
					</defs>
					<clipPath id="SVGID_00000005248886686267711460000003597424615622225570_">
						<use xlink:href="#SVGID_00000018921677138833742750000017236705854232091038_"  style="overflow:visible;"/>
					</clipPath>
				</g>
				<g>
					<defs>
						<ellipse id="SVGID_00000023279254092983037050000008333454051427618960_" cx="446.5" cy="240.9" rx="323.2" ry="241.4"/>
					</defs>
					<clipPath id="SVGID_00000164489271471644199730000013426437586508221625_">
						<use xlink:href="#SVGID_00000023279254092983037050000008333454051427618960_"  style="overflow:visible;"/>
					</clipPath>
				</g>
				<g>
					<defs>
						<circle id="SVGID_00000018957502347894799250000011784532557395722883_" cx="447.3" cy="446.5" r="331.9"/>
					</defs>
					<clipPath id="SVGID_00000146495282676331202800000013571781519525270659_">
						<use xlink:href="#SVGID_00000018957502347894799250000011784532557395722883_"  style="overflow:visible;"/>
					</clipPath>
					<g style="clip-path:url(#SVGID_00000146495282676331202800000013571781519525270659_);">
						<defs>
							<ellipse id="SVGID_00000035512915751395503090000016236263429625836673_" cx="453.1" cy="394.2" rx="378" ry="363.1"/>
						</defs>
						<clipPath id="SVGID_00000116925615679959116530000013950724213345575556_">
							<use xlink:href="#SVGID_00000035512915751395503090000016236263429625836673_"  style="overflow:visible;"/>
						</clipPath>
					</g>
				</g>
			</g>
		</g>
		<g>
			<defs>
				<circle id="SVGID_00000167367002264701529490000016789118709873020294_" cx="446.5" cy="446.5" r="425.2"/>
			</defs>
			<clipPath id="SVGID_00000011743373647195106470000011355149095918986896_">
				<use xlink:href="#SVGID_00000167367002264701529490000016789118709873020294_"  style="overflow:visible;"/>
			</clipPath>
			<g style="clip-path:url(#SVGID_00000011743373647195106470000011355149095918986896_);">
				<circle class="st3" cx="446.5" cy="446.5" r="425.2"/>
				
					<linearGradient id="SVGID_00000176032348806570847410000016926156706823130288_" gradientUnits="userSpaceOnUse" x1="446.5" y1="54.0308" x2="446.5" y2="841.7892">
					<stop  offset="7.692307e-02" style="stop-color:#FDF9C7"/>
					<stop  offset="0.1744" style="stop-color:#FDD02E"/>
					<stop  offset="1" style="stop-color:#E9900C"/>
				</linearGradient>
				<circle style="fill:url(#SVGID_00000176032348806570847410000016926156706823130288_);" cx="446.5" cy="446.5" r="415.4"/>
				<g>
					<defs>
						<ellipse id="SVGID_00000047052441588799754440000011954037067305844361_" cx="446.5" cy="561" rx="415.4" ry="302.6"/>
					</defs>
					<clipPath id="SVGID_00000112619137636835269050000011196915783416480135_">
						<use xlink:href="#SVGID_00000047052441588799754440000011954037067305844361_"  style="overflow:visible;"/>
					</clipPath>
				</g>
				<g class="st5">
					<defs>
						<path id="SVGID_00000172419174357714203720000001485952246919492512_" class="st5" d="M789.1,491.4
							c-19.9,10.8-22.4,26.6-22.4,26.6L446.5,667.2L126.3,518c0,0-2-16.8-22.4-26.6c-31.3-15-90-81.2-90-81.2l8.4,147.3l70.9,145.5
							l82.1,87.7l130.5,69l139.9,24.2l123.1-18.6l124.9-59.7l113.8-111.9L869,553.7l10-143.6C879.1,410.2,822.9,473.1,789.1,491.4z"
							/>
					</defs>
					<clipPath id="SVGID_00000006686443812839073060000016106347590837369779_">
						<use xlink:href="#SVGID_00000172419174357714203720000001485952246919492512_"  style="overflow:visible;"/>
					</clipPath>
					
						<linearGradient id="SVGID_00000133524013036621435870000011011822358328184506_" gradientUnits="userSpaceOnUse" x1="446.5" y1="54.0308" x2="446.5" y2="841.7892">
						<stop  offset="0" style="stop-color:#FDC223"/>
						<stop  offset="1" style="stop-color:#E18702"/>
					</linearGradient>
					
						<circle style="clip-path:url(#SVGID_00000006686443812839073060000016106347590837369779_);fill:url(#SVGID_00000133524013036621435870000011011822358328184506_);" cx="446.5" cy="446.5" r="415.4"/>
				</g>
				<g>
					<defs>
						<path id="SVGID_00000152228193210676584150000013372093041255124123_" d="M800,693.6c-44.8,57.8-72.7,82.1-111.9,115.6
							c-60.5,51.9-137.3,69-235,69c-88.1,0-106.2-1.6-173.4-31.7c-108-48.4-95.1-52.2-171.6-119.4c-23.1-20.3-42.9-67.1-54.3-95.2
							C110.2,527,264.9,451.6,446.9,451.6c181.4,0,335.7,74.9,392.5,179.3C822.4,660,819.1,669,800,693.6z"/>
					</defs>
					<clipPath id="SVGID_00000025418211743177226620000007561363130354336940_">
						<use xlink:href="#SVGID_00000152228193210676584150000013372093041255124123_"  style="overflow:visible;"/>
					</clipPath>
					
						<radialGradient id="SVGID_00000044148197742100853170000002790993501175924415_" cx="470.0849" cy="860.2756" r="351.7102" gradientTransform="matrix(0.9438 0 0 0.9438 2.8292 30.7259)" gradientUnits="userSpaceOnUse">
						<stop  offset="0" style="stop-color:#CF7600;stop-opacity:0.9481"/>
						<stop  offset="0.5282" style="stop-color:#D37602;stop-opacity:0.7026"/>
						<stop  offset="1" style="stop-color:#E08B0D;stop-opacity:0"/>
					</radialGradient>
					
						<circle style="clip-path:url(#SVGID_00000025418211743177226620000007561363130354336940_);fill:url(#SVGID_00000044148197742100853170000002790993501175924415_);" cx="446.5" cy="446.5" r="415.4"/>
				</g>
				
					<linearGradient id="SVGID_00000023997201453061399640000003487479195554048681_" gradientUnits="userSpaceOnUse" x1="170.5943" y1="443.7454" x2="637.3935" y2="713.252">
					<stop  offset="0.4308" style="stop-color:#FDD705;stop-opacity:0"/>
					<stop  offset="0.6205" style="stop-color:#D47C00"/>
					<stop  offset="0.8103" style="stop-color:#C25B02;stop-opacity:0.2615"/>
					<stop  offset="1" style="stop-color:#FDBB07;stop-opacity:0"/>
				</linearGradient>
				<path style="fill:url(#SVGID_00000023997201453061399640000003487479195554048681_);" d="M36.9,516.3
					c33.2,196.2,203.9,345.6,409.6,345.6s376.4-149.4,409.6-345.6H36.9z"/>
				<g>
					<circle class="st9" cx="447.3" cy="446.5" r="331.9"/>
				</g>
				<g>
					<defs>
						<polygon id="SVGID_00000100347032220376711760000006462725003156135328_" points="335.7,872.6 138,773.8 39.2,607.8 
							17.8,546.9 320.8,29.7 447.6,11 619.1,40.9 764.6,149 849.3,277.1 497.7,882.9 						"/>
					</defs>
					<clipPath id="SVGID_00000088833311875690022610000006196719460403039166_">
						<use xlink:href="#SVGID_00000100347032220376711760000006462725003156135328_"  style="overflow:visible;"/>
					</clipPath>
					
						<linearGradient id="SVGID_00000119810472002706437460000008144022911963549828_" gradientUnits="userSpaceOnUse" x1="164.4706" y1="283.6728" x2="692.0162" y2="588.2514">
						<stop  offset="0.1897" style="stop-color:#FDEE6D;stop-opacity:0"/>
						<stop  offset="0.3179" style="stop-color:#FCF9F3;stop-opacity:0.4"/>
						<stop  offset="0.4821" style="stop-color:#F6F6F6;stop-opacity:0.8327"/>
						<stop  offset="0.5231" style="stop-color:#F5EFE1"/>
						<stop  offset="0.6154" style="stop-color:#F6E7AC;stop-opacity:0.8853"/>
						<stop  offset="0.6615" style="stop-color:#F7DB60;stop-opacity:0.8021"/>
						<stop  offset="0.7231" style="stop-color:#F9E063;stop-opacity:0.6615"/>
						<stop  offset="0.8051" style="stop-color:#F7E4A9;stop-opacity:8.820513e-02"/>
						<stop  offset="0.9385" style="stop-color:#F6E3BA;stop-opacity:0"/>
					</linearGradient>
					
						<circle style="clip-path:url(#SVGID_00000088833311875690022610000006196719460403039166_);fill:url(#SVGID_00000119810472002706437460000008144022911963549828_);" cx="446.5" cy="446.5" r="415.4"/>
				</g>
				<g>
					
						<radialGradient id="SVGID_00000016060970726119846550000005055271388922225854_" cx="467.0039" cy="439.2069" r="351.6745" gradientTransform="matrix(0.9438 0 0 0.9438 2.8292 30.7259)" gradientUnits="userSpaceOnUse">
						<stop  offset="0" style="stop-color:#F6D87A;stop-opacity:0"/>
						<stop  offset="0.9128" style="stop-color:#F5CA1C"/>
						<stop  offset="1" style="stop-color:#F5790C;stop-opacity:0.3"/>
					</radialGradient>
					<circle style="fill:url(#SVGID_00000016060970726119846550000005055271388922225854_);" cx="443.6" cy="445.3" r="331.9"/>
				</g>
				<g>
					<defs>
						<ellipse id="SVGID_00000105405485608331448910000015012349729515709323_" cx="446.5" cy="240.9" rx="323.2" ry="241.4"/>
					</defs>
					<clipPath id="SVGID_00000099626125856632807140000011038653261554582443_">
						<use xlink:href="#SVGID_00000105405485608331448910000015012349729515709323_"  style="overflow:visible;"/>
					</clipPath>
					<g style="clip-path:url(#SVGID_00000099626125856632807140000011038653261554582443_);">
						
							<radialGradient id="SVGID_00000119823105737569952780000001152216481486722461_" cx="470.9647" cy="259.0751" r="492.3911" gradientTransform="matrix(0.9438 0 0 0.9438 2.8292 30.7259)" gradientUnits="userSpaceOnUse">
							<stop  offset="0" style="stop-color:#FDF8EA"/>
							<stop  offset="0.4718" style="stop-color:#C7C393;stop-opacity:0"/>
						</radialGradient>
						<path style="fill:url(#SVGID_00000119823105737569952780000001152216481486722461_);" d="M448.6,778.6
							c-88.7,0-172.1-34.5-234.8-97.3s-97.3-146.1-97.3-234.8c0-88.7,34.5-172.1,97.3-234.8s146.1-97.3,234.8-97.3
							s172.1,34.5,234.8,97.3s97.3,146.1,97.3,234.8c0,88.7-34.5,172.1-97.3,234.8S537.3,778.6,448.6,778.6z"/>
						<path class="st14" d="M448.6,114.6c183.3,0,331.9,148.6,331.9,331.9S631.9,778.4,448.6,778.4S116.7,629.8,116.7,446.5
							S265.3,114.6,448.6,114.6 M448.6,114.2c-44.9,0-88.4,8.8-129.4,26.1c-39.6,16.7-75.1,40.7-105.6,71.2
							c-30.5,30.5-54.5,66.1-71.2,105.6c-17.3,41-26.1,84.5-26.1,129.4s8.8,88.4,26.1,129.4c16.7,39.6,40.7,75.1,71.2,105.6
							c30.5,30.5,66.1,54.5,105.6,71.2c41,17.3,84.5,26.1,129.4,26.1s88.4-8.8,129.4-26.1C617.5,736,653,712,683.6,681.5
							c30.5-30.5,54.5-66.1,71.2-105.6c17.3-41,26.1-84.5,26.1-129.4s-8.8-88.4-26.1-129.4c-16.7-39.6-40.7-75.1-71.2-105.6
							C653,181,617.5,157,577.9,140.3C537,123,493.4,114.2,448.6,114.2L448.6,114.2z"/>
					</g>
				</g>
				<g>
					<defs>
						<circle id="SVGID_00000129922913543307896620000013879033919063711107_" cx="447.3" cy="446.5" r="331.9"/>
					</defs>
					<clipPath id="SVGID_00000018228116039389626120000009430614610433277582_">
						<use xlink:href="#SVGID_00000129922913543307896620000013879033919063711107_"  style="overflow:visible;"/>
					</clipPath>
					<g style="clip-path:url(#SVGID_00000018228116039389626120000009430614610433277582_);">
						<defs>
							<ellipse id="SVGID_00000176749332340714941090000017939135024725371278_" cx="453.1" cy="394.2" rx="378" ry="363.1"/>
						</defs>
						
							<radialGradient id="SVGID_00000152242642074310025870000010989444501342252691_" cx="474.3152" cy="47.8206" r="372.0204" gradientTransform="matrix(0.9438 0 0 1.2077 2.8292 160.7764)" gradientUnits="userSpaceOnUse">
							<stop  offset="0.5846" style="stop-color:#F6DB86;stop-opacity:0.3"/>
							<stop  offset="1" style="stop-color:#F59430;stop-opacity:0"/>
						</radialGradient>
						
							<use xlink:href="#SVGID_00000176749332340714941090000017939135024725371278_"  style="overflow:visible;fill:url(#SVGID_00000152242642074310025870000010989444501342252691_);"/>
						<clipPath id="SVGID_00000064336702335394898690000005277639282169836695_">
							<use xlink:href="#SVGID_00000176749332340714941090000017939135024725371278_"  style="overflow:visible;"/>
						</clipPath>
					</g>
				</g>
				
					<linearGradient id="SVGID_00000092445076448786757080000009935187976525060745_" gradientUnits="userSpaceOnUse" x1="446.5" y1="791.2916" x2="446.5" y2="457.2543">
					<stop  offset="0" style="stop-color:#EB7A00"/>
					<stop  offset="0.9949" style="stop-color:#EEBF30;stop-opacity:0.6"/>
				</linearGradient>
				<path style="fill:url(#SVGID_00000092445076448786757080000009935187976525060745_);" d="M749.7,501.3H588.2
					c-73.4,0-45.7-44.1-45.7-44.1l-110.4,44.1h-20.5l-7,22.3l-9.3-13.5l26.3-33.7l-83.5-19.1c-29.2,50-70.4,44-70.4,44H143.3
					c-20.8,0-19.9,19.1-19.9,19.1c48.3,211,242.2,258.1,310.7,268.2l0.9,2.7c0,0,4.2-0.2,11.6-1c7.4,0.8,11.6,1,11.6,1l0-2.5
					c67.8-9.9,263-56.5,311.5-268.3C769.7,520.4,770.5,501.3,749.7,501.3z"/>
				
					<linearGradient id="SVGID_00000062176128542566258760000007600344142586062236_" gradientUnits="userSpaceOnUse" x1="447.3308" y1="792.5379" x2="447.3308" y2="100.4621">
					<stop  offset="4.615385e-02" style="stop-color:#F6DB86"/>
					<stop  offset="0.5949" style="stop-color:#F5F4F1;stop-opacity:3.076923e-02"/>
				</linearGradient>
				<path style="fill:url(#SVGID_00000062176128542566258760000007600344142586062236_);" d="M447.3,792.5
					c-46.7,0-92-9.1-134.7-27.2c-41.2-17.4-78.2-42.4-110-74.2c-31.8-31.8-56.7-68.8-74.2-110c-18-42.7-27.2-88-27.2-134.7
					c0-46.7,9.1-92,27.2-134.7c17.4-41.2,42.4-78.2,74.2-110c31.8-31.8,68.8-56.7,110-74.2c42.7-18,88-27.2,134.7-27.2
					c46.7,0,92,9.1,134.7,27.2c41.2,17.4,78.2,42.4,110,74.2c31.8,31.8,56.7,68.8,74.2,110c18,42.7,27.2,88,27.2,134.7
					c0,46.7-9.1,92-27.2,134.7c-17.4,41.2-42.4,78.2-74.2,110c-31.8,31.8-68.8,56.7-110,74.2C539.4,783.4,494,792.5,447.3,792.5z
					 M447.3,110.7c-185.2,0-335.8,150.6-335.8,335.8c0,185.2,150.6,335.8,335.8,335.8c185.2,0,335.8-150.6,335.8-335.8
					C783.1,261.3,632.5,110.7,447.3,110.7z"/>
				
					<linearGradient id="SVGID_00000120553546726119735750000002696822629227581094_" gradientUnits="userSpaceOnUse" x1="447.3308" y1="783.8142" x2="447.3308" y2="109.1858">
					<stop  offset="0" style="stop-color:#693619"/>
					<stop  offset="1" style="stop-color:#A1630C"/>
				</linearGradient>
				<path style="fill:url(#SVGID_00000120553546726119735750000002696822629227581094_);" d="M447.3,783.8
					c-45.5,0-89.7-8.9-131.3-26.5c-40.2-17-76.2-41.3-107.2-72.3c-31-31-55.3-67-72.3-107.2C118.9,536.2,110,492,110,446.5
					c0-45.5,8.9-89.7,26.5-131.3c17-40.2,41.3-76.2,72.3-107.2c31-31,67.1-55.3,107.2-72.3c41.6-17.6,85.8-26.5,131.3-26.5
					c45.5,0,89.7,8.9,131.3,26.5c40.2,17,76.2,41.3,107.2,72.3c31,31,55.3,67.1,72.3,107.2c17.6,41.6,26.5,85.8,26.5,131.3
					c0,45.5-8.9,89.7-26.5,131.3c-17,40.2-41.3,76.2-72.3,107.2c-31,31-67,55.3-107.2,72.3C537,774.9,492.9,783.8,447.3,783.8z
					 M447.3,119.2C266.8,119.2,120,266,120,446.5c0,180.5,146.8,327.3,327.3,327.3c180.5,0,327.3-146.8,327.3-327.3
					C774.7,266,627.8,119.2,447.3,119.2z"/>
				<g>
					<g>
						<g>
							
								<linearGradient id="SVGID_00000168077854761529083230000000886707113277434789_" gradientUnits="userSpaceOnUse" x1="443.5908" y1="548.5146" x2="443.5908" y2="636.6233">
								<stop  offset="0" style="stop-color:#945609;stop-opacity:0.5"/>
								<stop  offset="0.2643" style="stop-color:#864E09;stop-opacity:0.6322"/>
								<stop  offset="1" style="stop-color:#5E380C"/>
							</linearGradient>
							<path style="fill:url(#SVGID_00000168077854761529083230000000886707113277434789_);" d="M462,494.5
								c-10.9,14-79.5,29.7-79.5,29.7l11.5-30.4c-17.9,0-24.3,0.8-24.3,0.8l-81,139.5c0,0,267.5-0.3,267.2,0l42.8-73.7l-174.9,0
								L462,494.5z"/>
							<g>
								
									<radialGradient id="SVGID_00000141451612468771371550000017804345026049572513_" cx="474.2097" cy="455.1132" r="120.5184" gradientTransform="matrix(0.9438 0 0 1.5838 2.8292 -260.5623)" gradientUnits="userSpaceOnUse">
									<stop  offset="0" style="stop-color:#FDA802"/>
									<stop  offset="1" style="stop-color:#9A6322;stop-opacity:0"/>
								</radialGradient>
								<path style="fill:url(#SVGID_00000141451612468771371550000017804345026049572513_);" d="M462,494.5h58.9l21.6-37.2
									c0,0-25.2-0.1-57.9-0.1h-97.3c-28.5,0-49.4,0.1-49.3,0.2l-21.6,37.2h53.1l-81,139.5c0,0,267.5-0.3,267.2,0l42.8-73.7
									l-174.9,0L462,494.5z"/>
							</g>
							<g>
								
									<radialGradient id="SVGID_00000050664011054058162970000004892492776094301105_" cx="474.2097" cy="244.9294" r="120.5943" gradientTransform="matrix(0.9438 0 0 1.5838 2.8292 -126.0374)" gradientUnits="userSpaceOnUse">
									<stop  offset="0" style="stop-color:#FDA802"/>
									<stop  offset="1" style="stop-color:#9A6322;stop-opacity:0"/>
								</radialGradient>
								<path style="fill:url(#SVGID_00000050664011054058162970000004892492776094301105_);" d="M425.4,398.4
									c-30.5,0-53.3,0.1-53.1,0.2l-21.6,37.2h53l0,0H496l0,0H555l21.6-37.2c0,0-25.8-0.1-59-0.1L598.6,259c0,0-267.7-0.5-267.2,0
									l-42.8,73.7l174.9,0L425.4,398.4z"/>
							</g>
							<g>
								<path class="st22" d="M425.4,398.4c-30.5,0-53.3,0.1-53.1,0.2l-21.6,37.2h53l0,0H496l0,0H555l21.6-37.2c0,0-25.8-0.1-59-0.1
									L598.6,259c0,0-267.7-0.5-267.2,0l-42.8,73.7l174.9,0L425.4,398.4z"/>
							</g>
							<g>
								<path class="st22" d="M462,494.5h58.9l21.6-37.2c0,0-25.2-0.1-57.9-0.1h-97.3c-28.5,0-49.4,0.1-49.3,0.2l-21.6,37.2h53.1
									l-81,139.5c0,0,267.5-0.3,267.2,0l42.8-73.7l-174.9,0L462,494.5z"/>
							</g>
							<g>
								
									<radialGradient id="SVGID_00000056429357383763967710000003511386772159629484_" cx="473.6754" cy="229.6391" r="215.13" gradientTransform="matrix(0.9438 0 0 0.9438 2.8292 30.7259)" gradientUnits="userSpaceOnUse">
									<stop  offset="0" style="stop-color:#FDA802"/>
									<stop  offset="1" style="stop-color:#9A6322;stop-opacity:0"/>
								</radialGradient>
								<path style="fill:url(#SVGID_00000056429357383763967710000003511386772159629484_);" d="M425.4,398.4
									c-30.5,0-53.3,0.1-53.1,0.2l-21.6,37.2h53l0,0H496l0,0H555l21.6-37.2c0,0-25.8-0.1-59-0.1L598.6,259c0,0-267.7-0.5-267.2,0
									l-42.8,73.7l174.9,0L425.4,398.4z"/>
							</g>
							<g>
								
									<radialGradient id="SVGID_00000103225242629227456350000014500238285728870814_" cx="467.0037" cy="395.9759" r="133.7006" gradientTransform="matrix(0.9438 0 0 0.9438 2.8292 30.7259)" gradientUnits="userSpaceOnUse">
									<stop  offset="0" style="stop-color:#FDA802"/>
									<stop  offset="1" style="stop-color:#9A6322;stop-opacity:0"/>
								</radialGradient>
								<path style="fill:url(#SVGID_00000103225242629227456350000014500238285728870814_);" d="M484.6,457.1h-97.3
									c-28.5,0-49.4,0.1-49.3,0.2l-21.6,37.2h53.1l-81,139.5c0,0,267.5-0.3,267.2,0l42.8-73.7l-174.9,0l38.3-65.9h58.9"/>
							</g>
							
								<linearGradient id="SVGID_00000165227918290143851250000002603914459899013763_" gradientUnits="userSpaceOnUse" x1="443.5908" y1="548.9356" x2="443.5908" y2="629.703">
								<stop  offset="0" style="stop-color:#784508;stop-opacity:0.5"/>
								<stop  offset="0.2643" style="stop-color:#864E09;stop-opacity:0.6322"/>
								<stop  offset="1" style="stop-color:#5C350B"/>
							</linearGradient>
							<path style="fill:url(#SVGID_00000165227918290143851250000002603914459899013763_);" d="M462,494.5
								c-7.9,11.1-21.2,11.1-21.2,11.1h-50.6c-17.9,0-20.5-11-20.5-11l-81,139.5c0,0,267.5-0.3,267.2,0l42.8-73.7l-174.9,0
								L462,494.5z"/>
							<path class="st26" d="M462,494.5h58.9l21.6-37.2c0,0-25.2-0.1-57.9-0.1h-97.3c-28.5,0-49.4,0.1-49.3,0.2l-21.6,37.2h53.1
								l-81,139.5c0,0,267.5-0.3,267.2,0l42.8-73.7l-174.9,0L462,494.5z"/>
							<path class="st26" d="M425.4,398.4c-30.5,0-53.3,0.1-53.1,0.2l-21.6,37.2h53l0,0H496l0,0H555l21.6-37.2c0,0-25.8-0.1-59-0.1
								L598.6,259c0,0-267.7-0.5-267.2,0l-42.8,73.7l174.9,0L425.4,398.4z"/>
						</g>
					</g>
					<defs>
						<filter id="Adobe_OpacityMaskFilter" filterUnits="userSpaceOnUse" x="288.6" y="258.8" width="310" height="375.3">
							
								<feColorMatrix  type="matrix" values="-1 0 0 0 1  0 -1 0 0 1  0 0 -1 0 1  0 0 0 1 0" color-interpolation-filters="sRGB" result="source"/>
						</filter>
					</defs>
					
						<mask maskUnits="userSpaceOnUse" x="288.6" y="258.8" width="310" height="375.3" id="SVGID_00000012471532548253916890000005042042082263264163_">
						<g class="st27">
							
								<image style="overflow:visible;" width="315" height="381" xlink:href="293D59D2C83A68BE.jpg"  transform="matrix(1 0 0 1 286 256)">
							</image>
						</g>
					</mask>
					<g style="opacity:0.2;mask:url(#SVGID_00000012471532548253916890000005042042082263264163_);">
						<g>
							<path class="st29" d="M462,494.5c-10.9,14-79.5,29.7-79.5,29.7l11.5-30.4c-17.9,0-24.3,0.8-24.3,0.8l-81,139.5
								c0,0,267.5-0.3,267.2,0l42.8-73.7l-174.9,0L462,494.5z"/>
							<g>
								<path class="st29" d="M462,494.5h58.9l21.6-37.2c0,0-25.2-0.1-57.9-0.1h-97.3c-28.5,0-49.4,0.1-49.3,0.2l-21.6,37.2h53.1
									l-81,139.5c0,0,267.5-0.3,267.2,0l42.8-73.7l-174.9,0L462,494.5z"/>
							</g>
							<g>
								<path class="st29" d="M425.4,398.4c-30.5,0-53.3,0.1-53.1,0.2l-21.6,37.2h53l0,0H496l0,0H555l21.6-37.2c0,0-25.8-0.1-59-0.1
									L598.6,259c0,0-267.7-0.5-267.2,0l-42.8,73.7l174.9,0L425.4,398.4z"/>
							</g>
							<g>
								<path class="st29" d="M425.4,398.4c-30.5,0-53.3,0.1-53.1,0.2l-21.6,37.2h53l0,0H496l0,0H555l21.6-37.2c0,0-25.8-0.1-59-0.1
									L598.6,259c0,0-267.7-0.5-267.2,0l-42.8,73.7l174.9,0L425.4,398.4z"/>
							</g>
							<g>
								<path class="st29" d="M462,494.5h58.9l21.6-37.2c0,0-25.2-0.1-57.9-0.1h-97.3c-28.5,0-49.4,0.1-49.3,0.2l-21.6,37.2h53.1
									l-81,139.5c0,0,267.5-0.3,267.2,0l42.8-73.7l-174.9,0L462,494.5z"/>
							</g>
							<g>
								<path class="st29" d="M425.4,398.4c-30.5,0-53.3,0.1-53.1,0.2l-21.6,37.2h53l0,0H496l0,0H555l21.6-37.2c0,0-25.8-0.1-59-0.1
									L598.6,259c0,0-267.7-0.5-267.2,0l-42.8,73.7l174.9,0L425.4,398.4z"/>
							</g>
							<g>
								<path class="st29" d="M484.6,457.1h-97.3c-28.5,0-49.4,0.1-49.3,0.2l-21.6,37.2h53.1l-81,139.5c0,0,267.5-0.3,267.2,0
									l42.8-73.7l-174.9,0l38.3-65.9h58.9"/>
							</g>
							<path class="st29" d="M462,494.5c-7.9,11.1-21.2,11.1-21.2,11.1h-50.6c-17.9,0-20.5-11-20.5-11l-81,139.5
								c0,0,267.5-0.3,267.2,0l42.8-73.7l-174.9,0L462,494.5z"/>
							<path class="st29" d="M462,494.5h58.9l21.6-37.2c0,0-25.2-0.1-57.9-0.1h-97.3c-28.5,0-49.4,0.1-49.3,0.2l-21.6,37.2h53.1
								l-81,139.5c0,0,267.5-0.3,267.2,0l42.8-73.7l-174.9,0L462,494.5z"/>
							<path class="st29" d="M425.4,398.4c-30.5,0-53.3,0.1-53.1,0.2l-21.6,37.2h53l0,0H496l0,0H555l21.6-37.2c0,0-25.8-0.1-59-0.1
								L598.6,259c0,0-267.7-0.5-267.2,0l-42.8,73.7l174.9,0L425.4,398.4z"/>
						</g>
					</g>
				</g>
			</g>
		</g>
		<g>
			<defs>
				<circle id="SVGID_00000089555476024645998570000002220652781437312663_" cx="446.5" cy="446.5" r="425.2"/>
			</defs>
			<clipPath id="SVGID_00000065792715057068680980000008730825211925679024_">
				<use xlink:href="#SVGID_00000089555476024645998570000002220652781437312663_"  style="overflow:visible;"/>
			</clipPath>
			<g style="clip-path:url(#SVGID_00000065792715057068680980000008730825211925679024_);">
				<g>
					<defs>
						<ellipse id="SVGID_00000149358383093135368280000006846087733207820419_" cx="446.5" cy="561" rx="415.4" ry="302.6"/>
					</defs>
					<clipPath id="SVGID_00000024715860525575903350000011558557171229503107_">
						<use xlink:href="#SVGID_00000149358383093135368280000006846087733207820419_"  style="overflow:visible;"/>
					</clipPath>
				</g>
				<g>
					<defs>
						<path id="SVGID_00000009562780261101221910000013308611281824343717_" d="M789.1,491.4c-19.9,10.8-22.4,26.6-22.4,26.6
							L446.5,667.2L126.3,518c0,0-2-16.8-22.4-26.6c-31.3-15-90-81.2-90-81.2l8.4,147.3l70.9,145.5l82.1,87.7l130.5,69l139.9,24.2
							l123.1-18.6l124.9-59.7l113.8-111.9L869,553.7l10-143.6C879.1,410.2,822.9,473.1,789.1,491.4z"/>
					</defs>
					<clipPath id="SVGID_00000060744411506108731670000016636574521770953621_">
						<use xlink:href="#SVGID_00000009562780261101221910000013308611281824343717_"  style="overflow:visible;"/>
					</clipPath>
				</g>
				<g>
					<defs>
						<path id="SVGID_00000145755399921194024370000012257503301171530671_" d="M800,693.6c-44.8,57.8-72.7,82.1-111.9,115.6
							c-60.5,51.9-137.3,69-235,69c-88.1,0-106.2-1.6-173.4-31.7c-108-48.4-95.1-52.2-171.6-119.4c-23.1-20.3-42.9-67.1-54.3-95.2
							C110.2,527,264.9,451.6,446.9,451.6c181.4,0,335.7,74.9,392.5,179.3C822.4,660,819.1,669,800,693.6z"/>
					</defs>
					<clipPath id="SVGID_00000008845295065684778710000002426612692930768780_">
						<use xlink:href="#SVGID_00000145755399921194024370000012257503301171530671_"  style="overflow:visible;"/>
					</clipPath>
				</g>
				<g>
					<defs>
						<polygon id="SVGID_00000013877889469953054830000009710322430456147851_" points="335.7,872.6 138,773.8 39.2,607.8 
							17.8,546.9 320.8,29.7 447.6,11 619.1,40.9 764.6,149 849.3,277.1 497.7,882.9 						"/>
					</defs>
					<clipPath id="SVGID_00000007413075388422237030000016523176269783576986_">
						<use xlink:href="#SVGID_00000013877889469953054830000009710322430456147851_"  style="overflow:visible;"/>
					</clipPath>
				</g>
				<g>
					<defs>
						<ellipse id="SVGID_00000147207961987467922330000009313158227548239747_" cx="446.5" cy="240.9" rx="323.2" ry="241.4"/>
					</defs>
					<clipPath id="SVGID_00000152230492363096325370000015027818819989095857_">
						<use xlink:href="#SVGID_00000147207961987467922330000009313158227548239747_"  style="overflow:visible;"/>
					</clipPath>
				</g>
				<g>
					<defs>
						<circle id="SVGID_00000075157063287031591280000012184312002854147997_" cx="447.3" cy="446.5" r="331.9"/>
					</defs>
					<clipPath id="SVGID_00000034798159813266139280000008216546643159567507_">
						<use xlink:href="#SVGID_00000075157063287031591280000012184312002854147997_"  style="overflow:visible;"/>
					</clipPath>
					<g style="clip-path:url(#SVGID_00000034798159813266139280000008216546643159567507_);">
						<defs>
							<ellipse id="SVGID_00000179624460344894208390000014284548932286725304_" cx="453.1" cy="394.2" rx="378" ry="363.1"/>
						</defs>
						<clipPath id="SVGID_00000126293269478731838900000008404029981431799690_">
							<use xlink:href="#SVGID_00000179624460344894208390000014284548932286725304_"  style="overflow:visible;"/>
						</clipPath>
					</g>
				</g>
			</g>
		</g>
	</g>
</g>
<path class="st26" d="M0,0v893H893V0H0z M446.5,871.7c-234.8,0-425.2-190.4-425.2-425.2S211.7,21.3,446.5,21.3
	s425.2,190.4,425.2,425.2S681.3,871.7,446.5,871.7z"/>
</svg>
