<svg id="svg4719" xmlns="http://www.w3.org/2000/svg" viewBox="0 0 893 893"><title>runescape</title><circle cx="446.5" cy="446.5" r="446.5" style="fill:#111a21"/><circle cx="340.2" cy="72.94" r="29.25" style="fill:#5f6060"/><path d="M340.2,102.19a29.25,29.25,0,0,1,0-58.5Z" style="fill:#e9ecec"/><path d="M341.1,211.74h-93l-24,24,21.74,21.75,20.07-20.07s39.18-12.18,40.68,47.81l-1.5,156-15,23.25,13.5,12.74s10.5,178.5-12,247.49l49.5,91.5Z" style="fill:#e9ecec"/><path d="M341.1,211.74h93l24,24-21.74,21.75-20.07-20.07s-39.18-12.18-40.68,47.81l1.5,156,15,23.25-13.5,12.74s-10.5,178.5,12,247.49l-49.5,91.5Z" style="fill:#5f6060"/><path d="M316.1,211.74c-6-56,5-116,5-116h38.21s11,60,5,116Z" style="fill:#715544"/><path d="M548.09,490.4c87.34-69.33,80-152.66,80-152.66-4-138.67-172-124-172-124l20,22.66-14.66,15.34c77.33,38,78,106.66,78,106.66,6,140.67-98,138.67-98,138.67,53.24,143.16,228,237.12,310.9,274.74a449.35,449.35,0,0,0,45-49.06C640.06,638.12,548.09,490.4,548.09,490.4Z" style="fill:#5f6060"/><path d="M548.09,490.4l-58.66,25.34-25.89,27.47c69,117.31,215.13,195.18,288.79,228.6a449.35,449.35,0,0,0,45-49.06C640.06,638.12,548.09,490.4,548.09,490.4Z" style="fill:#939494"/><path d="M489.43,515.74c99.33-95.34,86.66-160,86.66-160-2-90.67-100-119.34-100-119.34l-14.66,15.34c77.33,38,78,106.66,78,106.66,6,140.67-98,138.67-98,138.67,53.24,143.16,228,237.12,310.9,274.74q9.06-8.52,17.64-17.53C557.85,647.4,489.43,515.74,489.43,515.74Z" style="fill:#e9ecec"/><path d="M489.43,515.74l-48-18.67c53.24,143.16,228,237.12,310.9,274.74q9.06-8.52,17.64-17.53C557.85,647.4,489.43,515.74,489.43,515.74Z" style="fill:#c5cdcd"/></svg>