<?xml version="1.0" encoding="utf-8"?>
<!-- Generator: Adobe Illustrator 23.1.1, SVG Export Plug-In . SVG Version: 6.00 Build 0)  -->
<svg version="1.1" id="Layer_1" xmlns="http://www.w3.org/2000/svg" xmlns:xlink="http://www.w3.org/1999/xlink" x="0px" y="0px"
	 viewBox="0 0 1000 1000" style="enable-background:new 0 0 1000 1000;" xml:space="preserve">
<style type="text/css">
	.st0{fill:#26CE7A;}
	.st1{fill:#FFFFFF;}
</style>
<circle class="st0" cx="502" cy="498" r="491"/>
<g>
	<g>
		<path class="st1" d="M902.2,484.3c-7.7,38.1-52.4,53.3-82,27.7c-20.1-17.4-41-33.7-63.3-48.1c-44.2-28.9-91.3-51.8-140.4-71
			c-34.2-13.4-69-24.6-104.5-33.9c-36.8-9.7-74.1-17.4-111.9-23c-43.3-6.3-86.7-10.2-130.3-9.6c-16.2,0.2-32.2,1.4-48.4,2.4
			c-9.9,0.6-19.2-0.9-27.9-5.5c-19.3-10-29.7-31.2-26-52.8c3.6-21,20.3-37.8,41.9-40.4c15.8-2,31.7-2.7,47.6-3.1
			c39.4-1.2,78.5,1.2,117.6,5.3c41.6,4.5,82.7,11.4,123.3,20.8c100.2,23.1,196,57.6,285,109.8c36.3,21.2,70.4,45.5,101.9,73.4
			c11.2,9.9,17.7,22.2,18,37.3C903,477.1,902.4,480.7,902.2,484.3z"/>
	</g>
	<g>
		<path class="st1" d="M402.6,506.3c-60.1-11.8-123.2-16.6-186.8-10.9c-10.4,0.9-20.2-0.8-29.1-6.7c-14.3-9.5-21.4-27.1-17.5-43.6
			c4-17.2,17.5-30.1,35.2-31.9c18-1.7,36-2.8,54.1-3.2c44.4-0.9,88.7,2.8,132.5,9.8c94.6,15.2,183.7,45.7,267.4,92.4
			c42.3,23.6,81.7,51.1,117.8,83.7c1.8,1.6,3.6,3.2,5.3,4.8c18.7,17.3,15.9,44,2.4,58.6c-15.5,16.7-40.8,17.9-58.6,2.5
			c-10-8.7-19.9-17.5-30.2-25.7c-47.7-37.6-100.4-66.5-156.5-89.2C495.5,529.4,450.9,516.2,402.6,506.3z"/>
	</g>
	<g>
		<path class="st1" d="M394.2,597.3c69,14.5,134.7,37.5,195.9,72.7c33.7,19.5,65.1,42.1,94.1,68.3c2.5,2.3,5.1,4.5,7.3,7
			c11.2,12.7,11,31.6-0.3,44.2c-11.1,12.2-29.8,14.3-43.4,4.7c-2.8-2-5.2-4.3-7.7-6.6c-49.1-44.1-104.9-76.7-166.8-99.2
			c-38-13.9-76.9-23.8-116.8-30.2c-51.6-8.2-103.6-11.3-155.7-10.3c-5.3,0.1-10.6,0.1-15.8-0.9c-15.5-2.9-26.3-16.5-26.1-32
			c0.2-16.3,11.1-29.6,26.7-32.4c3.3-0.6,6.7-0.7,10-0.8c42.7-1,85.4,0.3,127.8,5.2C347,589.9,370.5,593.8,394.2,597.3z"/>
	</g>
</g>
</svg>
