<?xml version="1.0" encoding="utf-8"?>
<!-- Generator: Adobe Illustrator 22.1.0, SVG Export Plug-In . SVG Version: 6.00 Build 0)  -->
<svg version="1.1" id="Layer_1" xmlns="http://www.w3.org/2000/svg" xmlns:xlink="http://www.w3.org/1999/xlink" x="0px" y="0px"
	 viewBox="0 0 1000 1000" style="enable-background:new 0 0 1000 1000;" xml:space="preserve">
<style type="text/css">
	.st0{fill:url(#SVGID_1_);}
	.st1{fill:#FFFFFF;}
</style>
<linearGradient id="SVGID_1_" gradientUnits="userSpaceOnUse" x1="3.1505" y1="1000.9056" x2="3.1505" y2="996.8154" gradientTransform="matrix(232.75 0 0 -233 -231.4989 233234)">
	<stop  offset="0" style="stop-color:#111D2E"/>
	<stop  offset="0.2125" style="stop-color:#051839"/>
	<stop  offset="0.4069" style="stop-color:#0A1B48"/>
	<stop  offset="0.5811" style="stop-color:#132E62"/>
	<stop  offset="0.7376" style="stop-color:#144B7E"/>
	<stop  offset="0.8728" style="stop-color:#136497"/>
	<stop  offset="1" style="stop-color:#1387B8"/>
</linearGradient>
<path class="st0" d="M44.8,636.6C103.6,832.9,285.7,976,501.3,976c263.2,0,476.5-213.3,476.5-476.5C977.8,236.3,764.4,23,501.3,23
	C248.7,23,42.1,219.4,25.8,467.8C56.6,519.6,68.7,551.6,44.8,636.6L44.8,636.6z"/>
<path class="st1" d="M476.7,380.2c0,0.8,0,1.6,0,2.4L360.2,551.9c-18.9-0.9-37.8,2.5-55.8,9.9c-7.9,3.2-15.3,7.2-22.3,11.8L26,468.1
	c0,0-5.9,97.5,18.8,170.1l181,74.7c9.1,40.6,37,76.2,78.1,93.4c67.3,28.1,144.8-3.9,172.8-71.2c7.3-17.6,10.7-36,10.2-54.4
	l166.8-119.2c1.3,0,2.7,0.1,4.1,0.1c99.8,0,181-81.4,181-181.3c0-100-81.1-181.3-181-181.3C557.9,198.9,476.7,280.2,476.7,380.2z
	 M448.7,723.4c-21.7,52-81.4,76.6-133.3,55c-24-10-42-28.3-52.5-50.1l58.9,24.4c38.3,16,82.2-2.2,98.2-40.5
	c16-38.3-2.1-82.3-40.4-98.3l-60.9-25.2c23.5-8.9,50.2-9.2,75.2,1.1c25.2,10.5,44.7,30.2,55,55.4
	C459.3,670.5,459.2,698.3,448.7,723.4 M657.7,501c-66.5,0-120.6-54.2-120.6-120.8c0-66.6,54.1-120.8,120.6-120.8
	c66.5,0,120.6,54.2,120.6,120.8C778.3,446.8,724.2,501,657.7,501 M567.4,380c0-50.1,40.6-90.8,90.6-90.8c50,0,90.6,40.6,90.6,90.8
	c0,50.1-40.6,90.7-90.6,90.7C607.9,470.7,567.4,430.1,567.4,380z"/>
</svg>
