<?xml version="1.0" encoding="utf-8"?>
<!-- Generator: Adobe Illustrator 23.0.1, SVG Export Plug-In . SVG Version: 6.00 Build 0)  -->
<svg version="1.1" id="Layer_1" xmlns="http://www.w3.org/2000/svg" xmlns:xlink="http://www.w3.org/1999/xlink" x="0px" y="0px"
	 viewBox="0 0 1000 1000" style="enable-background:new 0 0 1000 1000;" xml:space="preserve">
<style type="text/css">
	.st0{fill:#424242;}
	.st1{fill:#F58153;}
</style>
<title>toneofirst</title>
<path class="st0" d="M28.2,618.8c-46.7-364.4,969.7-352.4,969.7-352.4V6c0,0-933.5-7.5-999.8,501.4C-1.9,507.4-6.4,582.7,28.2,618.8
	z"/>
<path class="st0" d="M603.4,350.8v644.5H401.6V387C401.6,387,464.8,353.8,603.4,350.8z"/>
<path class="st1" d="M361,767.9V587.2c0,0-135.5-6-206.3-123.5c0,0-125,54.2-96.4,198.8C58.3,662.5,130.6,760.4,361,767.9z"/>
<path class="st1" d="M638,600.8v144.5c0,0,277.1-51.2,299.6-281.6C937.6,463.7,824.7,615.8,638,600.8z"/>
</svg>
