<?xml version="1.0" encoding="utf-8"?>
<!-- Generator: Adobe Illustrator 26.3.1, SVG Export Plug-In . SVG Version: 6.00 Build 0)  -->
<svg version="1.1" id="Layer_1" xmlns="http://www.w3.org/2000/svg" xmlns:xlink="http://www.w3.org/1999/xlink" x="0px" y="0px"
	 viewBox="0 0 1000 1000" style="enable-background:new 0 0 1000 1000;" xml:space="preserve">
<style type="text/css">
	.st0{fill:#DF1B12;}
</style>
<g>
	<path id="Arrow_R" class="st0" d="M443.1,178.2c0,0,177.6-59,326.6-51.1s385.2,76.8,86.5,302.5l10.4-23c0,0,156.6-122.4,60.6-191.6
		c-104.6-75.2-448.7,41.2-448.7,41.2l-59.2-20.9L443.1,178.2z"/>
	<path id="Arrow_L" class="st0" d="M370,206.7C370,206.7,3.9,351,0.1,539c0,0-12.4,128.9,252.8,108.7l-18.5-9c0,0-158.9,9-181.9-61
		s75.9-168.9,369.1-289.3l-71-25.1L370,206.7z"/>
</g>
<path id="C" class="st0" d="M893.5,447.5H623.7c-51.9,8.5-90,53.3-90.1,105.8v209.8c0,0-14.1,124.5,104,124.5H904v-82.3H704
	c0,0-78.7,13.2-78.7-59.5V558.3c8.3-27.3,34.5-45.2,62.9-43.1h205.3V447.5z"/>
<path id="T" d="M272,299v489.4c0,0,2.3,99.2,91.2,99.2h123.6v-68.4H402c0,0-35.1,0-35.1-45.6V528.2h119v-72.8H358V299H272z"/>
</svg>
