<?xml version="1.0" encoding="utf-8"?>
<!-- Generator: Adobe Illustrator 26.3.1, SVG Export Plug-In . SVG Version: 6.00 Build 0)  -->
<svg version="1.1" id="Layer_1" xmlns="http://www.w3.org/2000/svg" xmlns:xlink="http://www.w3.org/1999/xlink" x="0px" y="0px"
	 viewBox="0 0 1000 1000" style="enable-background:new 0 0 1000 1000;" xml:space="preserve">
<style type="text/css">
	.st0{fill:#FFFFFF;}
</style>
<g>
	<path d="M952,88.5v821.8c0,19.7-16,35.7-35.7,35.7H85.7C66,946,50,930,50,910.3V88.5c0-19.7,16-35.7,35.7-35.7h830.6
		C936,52.8,952,68.8,952,88.5z"/>
</g>
<g>
	<path class="st0" d="M268.4,581c30,0,53.2-23.2,53.2-57.5V389.9H354v216.5h-32.2v-20.1c-14.5,15.2-34.6,23.8-57.2,23.8
		c-46.4,0-82-33.7-82-84.7V389.9h32.5v133.6C215.2,558.5,238.1,581,268.4,581"/>
	<path class="st0" d="M378.2,389.9h31.2v78.9c14.2-14.5,34-23.5,56-23.5c46.4,0,82.9,36.8,82.9,82.6c0,45.5-36.5,82.3-82.9,82.3
		c-22,0-42.1-9-56.3-23.5v19.8h-30.9V389.9z M463.2,582.6c29.7,0,54.1-24.4,54.1-54.7c0-30.6-24.4-54.7-54.1-54.7
		c-30,0-54.4,24.1-54.4,54.7C408.8,558.1,432.9,582.6,463.2,582.6"/>
	<path class="st0" d="M641.6,445.6c45.5,0,78.9,34.9,78.9,82v10.2H592.2c4.3,25.7,25.7,44.8,52.3,44.8c18.2,0,33.7-7.4,45.5-23.2
		l22.6,16.7c-15.8,21-39.3,33.7-68,33.7c-47.3,0-83.8-35.3-83.8-82.3C560.6,483,595.6,445.6,641.6,445.6 M592.8,513H689
		c-5.3-24.1-24.7-40.2-47.9-40.2C617.8,472.8,598.3,488.9,592.8,513"/>
	<path class="st0" d="M804.3,476.5c-20.4,0-35.3,15.8-35.3,40.2v89.7h-31.2V448.7h30.9v19.5c7.7-12.7,20.4-20.7,37.7-20.7h10.8v29.1
		H804.3z"/>
</g>
</svg>
