<?xml version="1.0" encoding="utf-8"?>
<!-- Generator: Adobe Illustrator 24.1.3, SVG Export Plug-In . SVG Version: 6.00 Build 0)  -->
<svg version="1.1" id="Layer_1" xmlns="http://www.w3.org/2000/svg" xmlns:xlink="http://www.w3.org/1999/xlink" x="0px" y="0px"
	 viewBox="0 0 1000 1000" style="enable-background:new 0 0 1000 1000;" xml:space="preserve">
<style type="text/css">
	.st0{fill:#E21836;}
	.st1{fill:#00447C;}
	.st2{fill:#007B84;}
	.st3{fill:#FEFEFE;}
</style>
<g>
	<path class="st0" d="M213.6,205h235c32.8,0,53.2,26.7,45.6,59.7L384.8,734.4c-7.7,32.8-40.6,59.6-73.4,59.6h-235
		c-32.8,0-53.2-26.8-45.6-59.6l109.5-469.8C147.9,231.7,180.7,205,213.6,205"/>
	<path class="st1" d="M429.1,205h270.3c32.8,0,18,26.7,10.3,59.7L600.2,734.4c-7.7,32.8-5.3,59.6-38.2,59.6H291.8
		c-32.9,0-53.2-26.8-45.5-59.6l109.4-469.8C363.5,231.7,396.2,205,429.1,205"/>
	<path class="st2" d="M688.6,205h235c32.9,0,53.3,26.7,45.5,59.7L859.8,734.4c-7.7,32.8-40.6,59.6-73.4,59.6H551.4
		c-32.9,0-53.3-26.8-45.6-59.6l109.4-469.8C622.9,231.7,655.7,205,688.6,205"/>
	<path class="st3" d="M275,355.6c-24.2,0.2-31.3,0-33.6-0.5c-0.9,4.2-17.2,79.4-17.2,79.5c-3.5,15.2-6.1,26.1-14.7,33.1
		c-4.9,4.1-10.7,6-17.3,6c-10.7,0-17-5.3-18-15.4l-0.2-3.5c0,0,3.3-20.4,3.3-20.5c0,0,17.1-68.6,20.2-77.6c0.2-0.5,0.2-0.8,0.2-1
		c-33.3,0.3-39.2,0-39.6-0.5c-0.2,0.7-1,5-1,5l-17.5,77.3l-1.5,6.6l-2.9,21.4c0,6.4,1.2,11.5,3.7,15.9c8,13.9,30.7,16,43.5,16
		c16.6,0,32.1-3.5,42.6-9.9c18.2-10.8,23-27.6,27.2-42.5l2-7.7c0,0,17.6-71.2,20.6-80.5C274.8,356.1,274.8,355.8,275,355.6z
		 M335,413c-4.3,0-12,1-19,4.5c-2.5,1.3-4.9,2.8-7.5,4.3l2.3-8.2l-1.2-1.4c-14.8,3-18.1,3.4-31.8,5.3l-1.1,0.8
		c-1.6,13.2-3,23.1-8.9,48.9c-2.2,9.5-4.6,19.2-6.9,28.7l0.6,1.2c14-0.7,18.3-0.7,30.4-0.5l1-1.1c1.5-7.9,1.7-9.8,5.2-25.8
		c1.6-7.6,5-24.3,6.6-30.3c3-1.4,6-2.8,8.9-2.8c6.8,0,6,6,5.7,8.3c-0.3,4-2.8,17-5.3,28.1l-1.7,7.2c-1.2,5.3-2.5,10.5-3.7,15.8
		l0.5,1.1c13.8-0.7,18-0.7,29.8-0.5l1.4-1.1c2.1-12.4,2.8-15.7,6.5-33.7l1.9-8.3c3.7-16.2,5.6-24.4,2.8-31.1
		C348.6,414.8,341.5,413,335,413z M402,430c-7.3,1.4-12,2.3-16.7,3c-4.6,0.7-9.1,1.4-16.2,2.4l-0.6,0.5l-0.5,0.4
		c-0.7,5.3-1.3,9.8-2.2,15.2c-0.8,5.6-2.1,11.9-4.2,20.9c-1.6,6.9-2.4,9.4-3.4,11.8c-0.9,2.4-1.9,4.8-3.7,11.6l0.4,0.6l0.4,0.6
		c6.6-0.3,11-0.5,15.4-0.6c4.5-0.2,9.1,0,16.2,0l0.6-0.5l0.7-0.6c1-6.2,1.2-7.8,1.8-10.8c0.6-3.2,1.7-7.7,4.3-19.6
		c1.2-5.6,2.6-11.2,3.9-16.9c1.3-5.7,2.8-11.3,4.1-16.9l-0.2-0.7L402,430z M402.1,407.1c-6.7-3.9-18.4-2.7-26.2,2.7
		c-7.9,5.3-8.7,12.9-2.1,16.9c6.6,3.8,18.3,2.7,26.1-2.8C407.7,418.5,408.7,411,402.1,407.1z M442.5,498.2
		c13.5,0,27.3-3.7,37.7-14.8c8-8.9,11.7-22.3,13-27.7c4.1-18.2,0.9-26.7-3.1-31.8c-6.2-7.9-17-10.4-28.3-10.4
		c-6.8,0-22.9,0.7-35.6,12.3c-9.1,8.4-13.2,19.8-15.8,30.7c-2.5,11.1-5.5,31.2,12.9,38.6C429,497.6,437.2,498.2,442.5,498.2z
		 M441.4,457.3c3.1-13.8,6.8-25.3,16.2-25.3c7.3,0,7.9,8.6,4.6,22.4c-0.6,3.1-3.3,14.5-6.9,19.3c-2.5,3.6-5.5,5.8-8.8,5.8
		c-1,0-6.8,0-6.9-8.7C439.5,466.5,440.3,462.1,441.4,457.3z M526.9,496.5l1.1-1.1c1.5-7.9,1.7-9.8,5.1-25.8
		c1.7-7.6,5.1-24.3,6.7-30.3c3-1.4,6-2.8,9-2.8c6.8,0,6,6,5.7,8.3c-0.2,4-2.7,17-5.3,28.1l-1.6,7.2c-1.2,5.3-2.6,10.5-3.8,15.8
		l0.5,1.1c13.9-0.7,17.9-0.7,29.8-0.5l1.4-1.1c2.1-12.4,2.6-15.7,6.5-33.7l1.9-8.3c3.7-16.2,5.6-24.4,2.8-31.1
		c-3-7.5-10.2-9.3-16.6-9.3c-4.3,0-12.1,1-19,4.5c-2.5,1.3-5,2.8-7.4,4.3l2.1-8.2l-1.1-1.4c-14.8,3-18.2,3.4-31.8,5.3l-1,0.8
		c-1.7,13.2-3,23-8.9,48.9c-2.2,9.5-4.6,19.2-6.9,28.7l0.6,1.2C510.5,496.3,514.7,496.3,526.9,496.5z M628.6,497
		c0.9-4.3,6-29.4,6.1-29.4c0,0,4.4-18.5,4.7-19.2c0,0,1.4-1.9,2.8-2.7h2c19.2,0,41,0,58-12.5c11.6-8.6,19.5-21.3,23-36.7
		c0.9-3.8,1.6-8.3,1.6-12.8c0-5.9-1.2-11.7-4.6-16.3c-8.7-12.2-26-12.4-45.9-12.5c-0.1,0-9.8,0.1-9.8,0.1c-25.6,0.3-35.8,0.2-40-0.3
		c-0.4,1.9-1,5.2-1,5.2s-9.2,42.4-9.2,42.5c0,0-21.9,90.2-22.9,94.5C615.6,496.6,624.8,496.6,628.6,497z M645.6,421.6
		c0,0,9.7-42.3,9.7-42.2l0.3-2.2l0.1-1.7l3.9,0.4c0,0,20.1,1.7,20.5,1.8c7.9,3.1,11.2,11,8.9,21.3c-2.1,9.4-8.2,17.3-16,21.2
		c-6.5,3.2-14.4,3.5-22.6,3.5h-5.3L645.6,421.6z M706.2,458.1c-2.6,11-5.5,31,12.8,38.1c5.8,2.5,11.1,3.2,16.4,3
		c5.6-0.3,10.8-3.1,15.7-7.2c-0.4,1.7-0.9,3.3-1.3,5l0.8,1.1c13.2-0.6,17.3-0.6,31.6-0.4l1.3-1c2.1-12.3,4-24.2,9.5-47.6
		c2.6-11.2,5.3-22.4,8-33.5l-0.4-1.2c-14.7,2.7-18.7,3.3-32.9,5.3l-1.1,0.9c-0.1,1.1-0.3,2.2-0.4,3.3c-2.2-3.6-5.4-6.6-10.3-8.5
		c-6.3-2.5-21.1,0.7-33.9,12.3C712.9,435.9,708.6,447.2,706.2,458.1z M737.2,458.8c3.2-13.5,6.8-24.9,16.2-24.9
		c5.9,0,9.1,5.5,8.4,14.8c-0.5,2.3-1,4.8-1.7,7.6c-0.9,4-2,8-3,12c-1,2.7-2.2,5.3-3.5,7c-2.4,3.4-8.2,5.6-11.5,5.6
		c-0.9,0-6.7,0-6.9-8.5C735.2,468,736.1,463.6,737.2,458.8z M898.9,414.2l-1.1-1.3c-14.6,3-17.2,3.4-30.6,5.2l-1,1
		c0,0.2-0.1,0.4-0.2,0.6l0-0.2c-10,23-9.7,18.1-17.8,36.2c0-0.8,0-1.3-0.1-2.2l-2-39.3l-1.3-1.3c-15.3,3-15.6,3.4-29.8,5.2l-1.1,1
		c-0.2,0.5-0.2,1-0.2,1.5l0.1,0.2c1.8,9,1.3,7,3.1,21.2c0.8,7,1.9,14,2.7,20.9c1.4,11.5,2.2,17.2,3.9,34.8
		c-9.5,15.7-11.8,21.7-21,35.5l0.1,0.1l-6.5,10.2c-0.7,1.1-1.4,1.8-2.3,2.1c-1,0.5-2.4,0.6-4.2,0.6h-3.6l-5.3,17.7l18.3,0.3
		c10.7,0,17.5-5.1,21.1-11.8l11.5-19.7h-0.2l1.2-1.4C840.1,514.9,898.9,414.2,898.9,414.2z M706.2,646.7h-7.7l28.7-94.8h9.5l3-9.8
		l0.3,10.9c-0.4,6.7,4.9,12.7,18.8,11.7h16l5.5-18.3h-6c-3.5,0-5.1-0.9-4.9-2.8l-0.3-11.1h-29.7v0.1c-9.6,0.2-38.3,0.9-44.1,2.5
		c-7,1.8-14.4,7.1-14.4,7.1l2.9-9.8H656l-5.8,19.4l-29,96.3h-5.6l-5.5,18.1h55.4l-1.9,6h27.3l1.8-6h7.7L706.2,646.7z M683.5,571.1
		c-4.5,1.2-12.7,5-12.7,5l7.4-24.2h22.1l-5.3,17.7C694.9,569.5,688.1,569.9,683.5,571.1z M683.9,605.7c0,0-6.9,0.9-11.5,1.9
		c-4.5,1.4-12.9,5.7-12.9,5.7l7.6-25.2h22.2L683.9,605.7z M671.5,646.9h-22.2l6.4-21.3h22.1L671.5,646.9z M724.9,588.1h31.9
		l-4.6,14.9h-32.4l-4.9,16.2h28.3l-21.4,30.2c-1.5,2.2-2.8,3-4.3,3.6c-1.5,0.8-3.5,1.7-5.8,1.7h-7.9l-5.4,17.8h20.5
		c10.7,0,17-4.9,21.6-11.2l14.7-20.1l3.2,20.4c0.7,3.8,3.4,6.1,5.3,6.9c2.1,1,4.2,2.8,7.2,3.1c3.2,0.1,5.5,0.2,7.1,0.2h10.1
		l6.1-19.9h-4c-2.3,0-6.2-0.4-6.9-1.1c-0.7-0.9-0.7-2.2-1-4.3l-3.2-20.5h-13.1l5.8-6.8h32.3l5-16.2h-29.9l4.7-14.9h29.8l5.5-18.3
		h-88.9L724.9,588.1z M455.2,651l7.5-24.8h30.6l5.6-18.4h-30.7l4.7-15.3h30l5.6-17.9h-75l-5.4,17.9h17l-4.5,15.3h-17.1l-5.7,18.8h17
		l-9.9,32.8c-1.3,4.3,0.6,6,1.9,8c1.3,2,2.6,3.3,5.5,4c3,0.7,5.1,1.1,7.9,1.1h34.5l6.2-20.4l-15.3,2.1
		C462.5,654.1,454.3,653.7,455.2,651z M458.7,532.3l-7.8,14c-1.7,3.1-3.2,5-4.5,5.8c-1.2,0.7-3.5,1-6.9,1h-4.1l-5.4,17.9h13.5
		c6.5,0,11.4-2.4,13.8-3.6c2.5-1.4,3.2-0.6,5.2-2.5l4.5-3.9h42l5.6-18.7h-30.7l5.4-10.2H458.7z M520.7,651.4c-0.7-1-0.2-2.8,0.9-6.6
		l11.5-38h40.8c6-0.1,10.2-0.2,13-0.4c3-0.3,6.3-1.4,9.8-3.3c3.7-2,5.6-4.1,7.1-6.6c1.8-2.4,4.6-7.8,7.1-16l14.4-48.1l-42.4,0.2
		c0,0-13,1.9-18.8,4.1c-5.8,2.4-14.1,9-14.1,9l3.8-13.2h-26.2l-36.7,121.6c-1.3,4.7-2.2,8.1-2.4,10.2c-0.1,2.2,2.8,4.4,4.7,6.1
		c2.2,1.7,5.4,1.4,8.5,1.7c3.3,0.2,7.9,0.4,14.3,0.4h20.1l6.2-20.9l-18,1.7C522.7,653.3,521.3,652.2,520.7,651.4z M540.5,581.1h42.9
		l-2.7,8.5c-0.4,0.2-1.3-0.4-5.7,0.1h-37.1L540.5,581.1z M549.1,552.4h43.3l-3.1,10.3c0,0-20.4-0.2-23.7,0.4
		c-14.4,2.5-22.8,10.2-22.8,10.2L549.1,552.4z M581.6,618.3c-0.4,1.3-0.9,2.1-1.7,2.6c-0.9,0.6-2.3,0.8-4.4,0.8h-6.1l0.4-10.4h-25.4
		l-1,50.9c0,3.7,0.3,5.8,3,7.5c2.7,2.1,11,2.4,22.1,2.4h15.9l5.8-19l-13.9,0.8l-4.6,0.3c-0.6-0.3-1.2-0.5-1.9-1.2
		c-0.6-0.6-1.6-0.2-1.4-3.9l0.1-13l14.5-0.6c7.9,0,11.2-2.6,14.1-5c2.7-2.3,3.6-5,4.7-8.6l2.4-11.5h-20L581.6,618.3z"/>
</g>
</svg>
