<?xml version="1.0" encoding="utf-8"?>
<!-- Generator: Adobe Illustrator 25.2.3, SVG Export Plug-In . SVG Version: 6.00 Build 0)  -->
<svg version="1.1" id="Layer_1" xmlns="http://www.w3.org/2000/svg" xmlns:xlink="http://www.w3.org/1999/xlink" x="0px" y="0px"
	 viewBox="0 0 1000 1000" style="enable-background:new 0 0 1000 1000;" xml:space="preserve">
<style type="text/css">
	.st0{fill:#1A75CF;}
	.st1{fill:#FDBB30;}
</style>
<g>
	<rect y="0" class="st0" width="1000" height="1000"/>
</g>
<path class="st1" d="M499.9,393.8c15.2,0,27.8-7.9,29.5-18.2l15-170.1c0-16.8-19.7-30.6-44.5-30.6c-24.7,0-44.4,13.8-44.4,30.6
	l15,170.1C472.2,385.9,484.8,393.8,499.9,393.8L499.9,393.8 M408,446.9c7.6-13.2,7.1-28-1-34.6l-139.8-98.1
	c-14.5-8.4-36.3,1.7-48.7,23.2c-12.4,21.4-10.2,45.4,4.3,53.8l154.8,72.1c9.7,3.6,22.9-3.3,30.5-16.5L408,446.9 M591.9,446.8
	c7.6,13.2,20.8,20.1,30.4,16.5l154.8-72.1c14.6-8.4,16.7-32.4,4.4-53.8c-12.4-21.4-34.3-31.6-48.8-23.2L593,412.4
	c-8,6.6-8.6,21.4-1,34.6L591.9,446.8 M499.9,606.3c15.2,0,27.8,7.9,29.5,18.1l15,170.1c0,16.9-19.7,30.6-44.5,30.6
	c-24.7,0-44.4-13.8-44.4-30.6l15-170.1C472.2,614.1,484.8,606.3,499.9,606.3L499.9,606.3 M591.9,553.1c7.6-13.2,20.8-20.1,30.4-16.4
	l154.8,72c14.6,8.4,16.7,32.4,4.4,53.8c-12.4,21.4-34.3,31.5-48.8,23.1l-139.8-98C585,581.1,584.4,566.3,591.9,553.1L591.9,553.1
	 M408,553.1c7.6,13.2,7.1,28-1,34.6l-139.8,98c-14.5,8.4-36.3-1.8-48.7-23.1c-12.4-21.4-10.2-45.4,4.3-53.8l154.8-72
	C387.3,533.1,400.5,539.9,408,553.1L408,553.1"/>
</svg>
