<?xml version="1.0" encoding="utf-8"?>
<!-- Generator: Adobe Illustrator 22.1.0, SVG Export Plug-In . SVG Version: 6.00 Build 0)  -->
<svg version="1.1" id="Layer_1" xmlns="http://www.w3.org/2000/svg" xmlns:xlink="http://www.w3.org/1999/xlink" x="0px" y="0px"
	 viewBox="0 0 1000 1000" style="enable-background:new 0 0 1000 1000;" xml:space="preserve">
<style type="text/css">
	.st0{fill:url(#SVGID_1_);}
	.st1{fill:url(#SVGID_2_);}
	.st2{fill:url(#SVGID_3_);}
	.st3{fill:#2D2D3E;}
	.st4{fill:url(#SVGID_4_);}
	.st5{fill:url(#SVGID_5_);}
	.st6{fill:url(#SVGID_6_);}
	.st7{fill:url(#SVGID_7_);}
	.st8{fill:url(#SVGID_8_);}
	.st9{fill:#202228;}
	.st10{fill:url(#SVGID_9_);}
	.st11{fill:#792100;}
	.st12{fill:url(#SVGID_10_);}
	.st13{fill:url(#SVGID_11_);}
	.st14{fill:url(#SVGID_12_);}
	.st15{fill:url(#SVGID_13_);}
	.st16{fill:url(#SVGID_14_);}
	.st17{fill:url(#SVGID_15_);}
	.st18{fill:url(#SVGID_16_);}
	.st19{fill:url(#SVGID_17_);}
	.st20{fill:url(#SVGID_18_);}
</style>
<g>
	
		<linearGradient id="SVGID_1_" gradientUnits="userSpaceOnUse" x1="1422.053" y1="1620.1561" x2="1622.3654" y2="1419.8438" gradientTransform="matrix(6.123234e-17 1 -1 6.123234e-17 2022.2091 -1022.2091)">
		<stop  offset="0.2845" style="stop-color:#D08E29"/>
		<stop  offset="0.4446" style="stop-color:#F6E57F"/>
		<stop  offset="0.6137" style="stop-color:#E1D02D"/>
		<stop  offset="0.7653" style="stop-color:#D7652B"/>
		<stop  offset="0.8837" style="stop-color:#D08E29"/>
	</linearGradient>
	<polygon class="st0" points="873,129.2 672.7,129.2 131.4,670.5 131.4,870.8 331.7,870.8 873,329.5 	"/>
	<linearGradient id="SVGID_2_" gradientUnits="userSpaceOnUse" x1="402.0529" y1="600.1561" x2="602.3653" y2="399.8438">
		<stop  offset="0.2845" style="stop-color:#D08E29"/>
		<stop  offset="0.4446" style="stop-color:#F6E57F"/>
		<stop  offset="0.6137" style="stop-color:#E1D02D"/>
		<stop  offset="0.7653" style="stop-color:#D7652B"/>
		<stop  offset="0.8837" style="stop-color:#D08E29"/>
	</linearGradient>
	<polygon class="st1" points="131.4,129.2 131.4,329.5 672.7,870.8 873,870.8 873,670.5 331.7,129.2 	"/>
</g>
<linearGradient id="SVGID_3_" gradientUnits="userSpaceOnUse" x1="334.8343" y1="40.1414" x2="669.5839" y2="959.8586">
	<stop  offset="0" style="stop-color:#415673"/>
	<stop  offset="0.3163" style="stop-color:#2D3B50"/>
	<stop  offset="1" style="stop-color:#0C0E14"/>
</linearGradient>
<path class="st2" d="M959,514c0-90.7-26.4-175.3-71.9-246.4V129.2c0-7.8-6.3-14.1-14.1-14.1H726.2C659.7,77.4,582.9,56,501,56
	s-158.7,21.5-225.2,59.1H131.4c-7.8,0-14.1,6.3-14.1,14.1v134.6C70.3,335.7,43,421.6,43,514s27.3,178.2,74.3,250.2v106.7
	c0,7.8,6.3,14.1,14.1,14.1h100.9c75.5,54.8,168.3,87,268.7,87s193.2-32.3,268.7-87H873c7.8,0,14.1-6.3,14.1-14.1V760.4
	C932.6,689.2,959,604.7,959,514z M873,129.2v117.5c-33.4-46.4-75.3-86.4-123.4-117.5H873z M131.4,129.2h121
	c-47,30.4-88,69.2-121,114.2V129.2z M131.4,870.8v-86.3c23.6,32.2,51.4,61.2,82.4,86.3H131.4z M873,870.8h-84.9
	c32.1-25.9,60.7-56.1,84.9-89.6V870.8z"/>
<path class="st3" d="M593.1,116.2l-3.4,0.1l-161.1,6l-19.8,0.7l8.5,17.9c8.5,17.7,19,39.7,15.9,58.5c-5,28.4-14.8,66.4-23.5,99.8
	c-14.5,56.1-19.8,78.3-17.8,88.7l0.2,1l0.4,1c6.8,18.5,33.2,41.9,44.2,51.1c9.7,8.1,19.7,15.5,28.2,20.7c14.6,9,21.6,10.1,25.7,10.1
	c0.1,0,0.3,0,0.4,0l0.8,0l0.7-0.1c5.2-0.7,10.6-3.8,25.2-18.3c8.9-8.8,19.8-20.6,30.7-33.2c11.5-13.3,21.8-26,29.8-36.8
	c12.7-17.2,16-24.9,17.3-29.1c4.2-12,9-36.9,9.6-64.1c0.5-22.3-1.6-53.2-13.9-78.6c1.9-1.9,4.5-2.8,9.1-2.8c2.4,0,5,0.3,8,0.9
	l66.6,39.7l1.8,1.1l2,0.5c1.5,0.3,2.9,0.9,4.3,1.4c2.7,1,6.1,2.3,10.1,2.3c9.4,0,15.2-6.4,18.8-11.2l26.6-35.5l9.2-12.3l-13.7-7
	l-138.1-70.7L593.1,116.2L593.1,116.2z"/>
<g id="z_2_">
	
		<radialGradient id="SVGID_4_" cx="-2492.9895" cy="200.4882" r="154.311" gradientTransform="matrix(-1.110223e-16 -2.0703 -5.9626 -1.4609 1725.8171 -4720.4971)" gradientUnits="userSpaceOnUse">
		<stop  offset="0" style="stop-color:#E6F1FD"/>
		<stop  offset="0" style="stop-color:#BDD9F9"/>
		<stop  offset="6.500000e-02" style="stop-color:#BDD9F9"/>
		<stop  offset="1" style="stop-color:#1C3556;stop-opacity:0.1"/>
	</radialGradient>
	<path class="st4" d="M490.7,465.4c-13.6,0-41.5-22.4-49.7-29.3c-8.3-6.9-35.7-30.8-42.2-48.4l-0.2-0.5l-0.1-0.5
		c-1.8-9.4,5.1-37.3,17.7-85.8c8.7-33.6,18.5-71.7,23.6-100.4c3.4-20.7-7.6-43.8-16.5-62.4l-4.3-8.9l172.7-6.4l146.4,75l-31.2,41.7
		c-3,4-7.3,8.6-13.7,8.6c-2.9,0-5.4-0.9-7.9-1.8c-1.6-0.6-3.3-1.2-5.2-1.6l-1-0.2l-68.4-40.8c-3.8-0.8-7.3-1.2-10.4-1.2
		c-9.8,0-14.2,4.1-16.7,8.8c13.3,24.8,15.5,56.4,15,79c-0.6,26.6-5.3,50.8-9.3,62.3c-4.1,14.6-33.3,49.3-45.8,63.6
		c-10.8,12.4-21.6,24.1-30.3,32.8c-14.6,14.5-18.6,16.1-21.5,16.5l-0.4,0.1C491.3,465.3,490.7,465.4,490.7,465.4z"/>
</g>
<g id="A_2_">
	
		<radialGradient id="SVGID_5_" cx="-2563.1125" cy="399.1953" r="151.6612" gradientTransform="matrix(-9.992007e-16 -2.017 -6.7799 0.9944 2951.3252 -5267.7505)" gradientUnits="userSpaceOnUse">
		<stop  offset="0" style="stop-color:#E6F1FD"/>
		<stop  offset="0" style="stop-color:#BDD9F9"/>
		<stop  offset="6.500000e-02" style="stop-color:#BDD9F9"/>
		<stop  offset="1" style="stop-color:#1C3556;stop-opacity:0.1"/>
	</radialGradient>
	<path class="st5" d="M304.1,814.7c-5.5,0-17.2-7.1-62.5-37.9c-14-9.5-29.9-20.4-33-21.7c-16.6-5.6-29.8-24.4-40.5-57.7
		c-8.5-26.6-13.8-57.1-17.6-79.4c-1.9-11-4-23.4-5.4-27.3l-0.7-0.4l-0.8-2.1c-7.6-19.6-28.9-33.9-46-45.4l-4-2.7l50-170.7l56.3,24
		l32.1,39.8c6.7,2.5,13.3,4.9,19.7,7.1c45.2,16.2,84.2,30.1,113,73.1l1.3,2l-0.3,2.4c-2.3,20.9-44.9,28.4-45.3,28.5l-0.9,0.1
		l-0.9-0.1c-35.1-4.2-67.5-17.3-94.6-29.6c-1-0.2-1.8-0.3-2.6-0.3c-1.8,0-2.1,0.5-2.2,0.6c-3.7,5.2,4.1,27.5,7,35.9
		c1.6,4.6,2.9,8.2,3.5,11c10.2,11.4,36.4,42.8,60.2,75.2c13.6,18.6,24.1,34.3,31.2,46.8c9.7,17.2,12.9,27.9,10.4,34.8
		c-1.2,3.3-3.6,5.6-6.9,6.8c-2.1,6.1-4.4,25.8-5.9,39.3c-4.5,38.6-6,46.3-13.3,47.6C305.1,814.7,304.6,814.7,304.1,814.7
		C304.2,814.7,304.2,814.7,304.1,814.7z"/>
	<path class="st3" d="M147.9,378.4l48.1,20.5l32.2,39.9c54.6,20.4,99.4,30.8,131.3,78.4c-1.4,12.5-28.8,21-39.9,22.8
		c-33.1-4-63.5-15.8-93.4-29.4c-1.7-0.4-3.2-0.5-4.6-0.5c-22.2,0,0.9,47,2.4,57c21.1,23,125.8,151.3,97.1,154.8
		c-7.1,0.9-10.1,85.1-16.7,86.3c-0.1,0-0.1,0-0.2,0c-8,0-86.2-56.9-93.4-59.2c-46-15.2-53.6-158.8-61.1-163.1
		c-8.3-21.4-30.5-36.4-48.4-48.4L147.9,378.4 M139.5,360.7l-4.1,14L88.8,533.8l-2.7,9.1l7.9,5.3c16.3,10.9,36.6,24.6,43.5,42.3
		l1.7,4.3l0.4,0.2c1.2,4.9,3,15,4.5,24.1c3.9,22.5,9.2,53.3,17.8,80.3c11.3,35.1,25.7,55.3,44.2,61.7c3.8,1.9,19.3,12.5,31.9,21
		c51.7,35.2,59.1,39,66.1,39c0.9,0,1.7-0.1,2.6-0.2c5.9-1.1,10.1-5.4,12.4-12.9c0.9-2.8,1.6-6.3,2.4-11.2c1.4-8.1,2.6-18.9,3.8-29.2
		c1.3-10.9,3.2-28,5-35.5c3.4-2.1,6-5.2,7.5-9.1c3.4-9.1,0.2-20.8-10.8-40.3c-7.2-12.7-17.8-28.7-31.6-47.5
		c-23.1-31.5-48.5-62.2-59.5-74.5c-0.8-2.7-1.9-6-3.3-9.9c-2-5.8-4.5-12.9-6.1-19.3c-0.8-3.1-1.1-5.5-1.3-7.2
		c26.8,12,58.5,24.3,92.8,28.5l1.8,0.2l1.8-0.3c6.3-1,17.1-3.8,27-8.4c14.6-6.8,22.6-15.5,23.7-25.8l0.5-4.7l-2.6-4
		c-30-44.8-70-59.1-116.2-75.6c-5.9-2.1-11.9-4.2-18-6.5l-30-37.1l-2-2.5l-3-1.3L153,366.4L139.5,360.7L139.5,360.7z"/>
</g>
<g id="A_3_">
	<path class="st3" d="M840.9,329.8c-9.6,0-15.9,7.7-38.5,37c-6.7,8.7-17.1,22.3-22.5,27.8c-5.4,0-10.4,2.5-14.1,6.9
		c-6.5,8-12.3,25.8-5.6,96.7c3.4,35.5,9.1,74.3,12.4,91.9c-0.7,2.8-1.4,6.1-2.3,10.2c-1.2,6-2.8,13.4-4.8,19.7
		c-1,3.1-1.8,5.3-2.6,6.9c-16.8-24.1-37.6-50.9-64.9-72.2l-1.5-1.1l-1.7-0.7c-8.6-3.4-23.2-7.1-35.3-7.1c-11.9,0-20.6,3.5-25.8,10.3
		l-2.9,3.8l0.2,4.8c2.7,53.8,29.6,86.6,60.8,124.6c3.9,4.8,8,9.8,12.1,14.8l6.6,47.2l0.4,3.2l1.9,2.6l30.7,42.3l8.6,11.8l10.8-9.9
		L884.9,689l7-6.5l-4.1-8.6c-8.4-17.8-18.8-39.9-15.5-58.7l0.8-4.5l-0.2-0.4c1.5-4.8,5.2-14.4,8.5-23c8.3-21.3,19.6-50.4,26-78
		c8.4-35.9,6.4-60.7-6.1-75.7c-2.2-3.6-10.1-20.7-16.5-34.4c-6.3-13.6-13.4-29-19.4-41.1c-10-20.2-13.6-25.3-19.5-27.5
		C844.3,330.1,842.6,329.8,840.9,329.8L840.9,329.8z"/>
	
		<radialGradient id="SVGID_6_" cx="-2183.4961" cy="510.5001" r="151.6609" gradientTransform="matrix(0 -2.0734 -5.9206 -1.4777 3652.7034 -2962.7932)" gradientUnits="userSpaceOnUse">
		<stop  offset="0.3255" style="stop-color:#1C3556;stop-opacity:0.1"/>
		<stop  offset="1" style="stop-color:#BDD9F9;stop-opacity:0.5"/>
	</radialGradient>
	<path class="st6" d="M717.3,752.1l-7.1-50.6c-4.5-5.6-8.9-11-13.2-16.3c-30.4-37.1-56.7-69.2-59.3-120.8l-0.1-2.4l1.4-1.9
		c3.9-5.1,10.9-7.7,20.7-7.7c12.9,0,27.1,4.3,32.9,6.6l0.9,0.3l0.7,0.6c27.9,21.7,49,49.6,65.9,74.1c2.4,2.1,3.6,2.2,3.9,2.2
		c0.7,0,3.4-1.8,6.4-9.7c2.8-7.5,4.8-17.1,6.4-24.8c1-4.8,1.8-8.5,2.6-11.2c-2.8-14.5-8.9-53.7-12.6-92.8c-7.4-77.9,1-88.1,4.2-92
		c2.4-2.9,5.6-4.5,9-4.5c0.8,0,1.6,0.1,2.4,0.2c4.9-4.1,17-19.9,25.3-30.6c21.5-28,27.1-34.5,33.3-34.5c0.9,0,1.8,0.2,2.6,0.5
		c5,1.9,9.1,8.5,35.3,65.2c7.1,15.4,15.2,32.9,17.2,35.6c11.4,13.3,13,36.3,5,70.3c-6.4,27.2-17.6,56.1-25.8,77.2
		c-4,10.4-8.6,22.2-9.4,26.2l0.4,0.7l-0.4,2.3c-3.6,20.8,7.3,43.9,16.1,62.5l2,4.3L753.3,801.6L717.3,752.1z"/>
</g>
<linearGradient id="SVGID_7_" gradientUnits="userSpaceOnUse" x1="769.5256" y1="134.1105" x2="216.0651" y2="917.0079">
	<stop  offset="0" style="stop-color:#51290E"/>
	<stop  offset="0.2756" style="stop-color:#D08E29"/>
	<stop  offset="0.4633" style="stop-color:#E1D02D"/>
	<stop  offset="0.5896" style="stop-color:#F6E57F"/>
	<stop  offset="0.7415" style="stop-color:#D08E29"/>
	<stop  offset="1" style="stop-color:#452A15"/>
</linearGradient>
<path class="st7" d="M501,73.3C257.6,73.3,60.3,270.6,60.3,514S257.6,954.6,501,954.6S941.7,757.3,941.7,514S744.4,73.3,501,73.3z
	 M501,878c-201,0-364-163-364-364s163-364,364-364s364,163,364,364S702,878,501,878z"/>
<linearGradient id="SVGID_8_" gradientUnits="userSpaceOnUse" x1="202.0096" y1="157.6304" x2="818.2614" y2="892.0507">
	<stop  offset="0" style="stop-color:#51290E"/>
	<stop  offset="0.2756" style="stop-color:#D08E29"/>
	<stop  offset="0.4633" style="stop-color:#E1D02D"/>
	<stop  offset="0.5896" style="stop-color:#F6E57F"/>
	<stop  offset="0.7415" style="stop-color:#D08E29"/>
	<stop  offset="1" style="stop-color:#452A15"/>
</linearGradient>
<path class="st8" d="M501,73.3C257.6,73.3,60.3,270.6,60.3,514S257.6,954.6,501,954.6S941.7,757.3,941.7,514S744.4,73.3,501,73.3z
	 M501,916.9c-222.5,0-403-180.4-403-403s180.4-403,403-403s403,180.4,403,403S723.5,916.9,501,916.9z"/>
<path class="st9" d="M237.1,275.9c-4.3,0-8.2,2.1-10.7,5.6c-2.4,3.5-3,8-1.5,12l19.9,53.5l96.4,397.8l-8.4,45.5
	c-0.7,3.8,0.3,7.7,2.8,10.7s6.1,4.7,10,4.7h134.1c3.9,0,7.6-1.8,10.1-4.8c2.5-3,3.4-7,2.6-10.8l-8.7-41.9l15.8-60.1l19.5,63.1
	l-7.5,39.1c-0.7,3.8,0.3,7.7,2.7,10.7c2.5,3,6.1,4.7,10,4.7l151.1,0.3c0,0,0,0,0,0c4.3,0,8.3-2.1,10.7-5.6c2.4-3.5,3-8,1.5-12
	l-17.3-46l67.6-389l27-58.8c1.8-4,1.5-8.7-0.9-12.4c-2.4-3.7-6.5-6-10.9-6H621.5c-3.8,0-7.5,1.7-9.9,4.6c-2.5,2.9-3.5,6.8-2.9,10.6
	l7.5,43.5l-40.5,230.9l-64.8-250.5c-1.5-5.7-6.7-9.7-12.6-9.7c0,0,0,0,0,0c-5.9,0-11.1,4.1-12.6,9.8l-62.2,246.3l-50-226.9l4.7-44.3
	c0.4-3.7-0.8-7.3-3.3-10.1c-2.5-2.7-6-4.3-9.7-4.3L237.1,275.9C237.1,275.9,237.1,275.9,237.1,275.9L237.1,275.9z"/>
<g>
	<g>
		
			<linearGradient id="SVGID_9_" gradientUnits="userSpaceOnUse" x1="-1962.432" y1="124.6441" x2="-1855.9056" y2="-345.0401" gradientTransform="matrix(1 0 0 -1 2229.3999 417.58)">
			<stop  offset="0" style="stop-color:#DA940F"/>
			<stop  offset="0.235" style="stop-color:#EFD11A"/>
			<stop  offset="0.75" style="stop-color:#EFD11A"/>
			<stop  offset="0.908" style="stop-color:#EFD11A"/>
			<stop  offset="1" style="stop-color:#D3900E"/>
		</linearGradient>
		<polygon class="st10" points="247.9,290 313.2,338.3 400.9,745.7 344.6,793.7 353.8,746.9 261.8,336.5 		"/>
	</g>
	<g>
		<polygon class="st11" points="401,745.7 344.5,793.7 478.7,793.5 426.9,746 		"/>
	</g>
	<g>
		
			<linearGradient id="SVGID_10_" gradientUnits="userSpaceOnUse" x1="-1895.6821" y1="126.1932" x2="-1802.7126" y2="-316.5686" gradientTransform="matrix(1 0 0 -1 2229.3999 417.58)">
			<stop  offset="0" style="stop-color:#C63000"/>
			<stop  offset="0.491" style="stop-color:#DB9000"/>
			<stop  offset="0.8" style="stop-color:#DB9000"/>
			<stop  offset="1" style="stop-color:#C43B00"/>
		</linearGradient>
		<polygon class="st12" points="363.8,290.4 313.4,338.4 401,745.7 426.8,745.9 421.5,619.2 359.2,336.5 		"/>
	</g>
	<g>
		
			<linearGradient id="SVGID_11_" gradientUnits="userSpaceOnUse" x1="-1712.4497" y1="-83.2826" x2="-1780.2393" y2="-367.8047" gradientTransform="matrix(1 0 0 -1 2229.3999 417.58)">
			<stop  offset="0" style="stop-color:#AD2F00"/>
			<stop  offset="1" style="stop-color:#CB7500"/>
		</linearGradient>
		<polygon class="st13" points="478.7,793.7 427,746.1 499.5,467.9 499.8,633.3 469.3,748.8 		"/>
	</g>
	<g>
		
			<linearGradient id="SVGID_12_" gradientUnits="userSpaceOnUse" x1="-1712.1776" y1="51.8314" x2="-1810.9584" y2="-247.7982" gradientTransform="matrix(1 0 0 -1 2229.3999 417.58)">
			<stop  offset="0" style="stop-color:#ECD500"/>
			<stop  offset="0.869" style="stop-color:#ECD500"/>
			<stop  offset="1" style="stop-color:#FFEF57"/>
		</linearGradient>
		<polygon class="st14" points="497.2,319.6 499.7,466.7 427,746.3 422.2,620.5 		"/>
	</g>
	<g>
		
			<linearGradient id="SVGID_13_" gradientUnits="userSpaceOnUse" x1="-1924.7687" y1="130.2283" x2="-1899.5889" y2="78.7084" gradientTransform="matrix(1 0 0 -1 2229.3999 417.58)">
			<stop  offset="0" style="stop-color:#FFD511"/>
			<stop  offset="1" style="stop-color:#FDF8DC"/>
		</linearGradient>
		<polygon class="st15" points="247.8,290 313.5,338.4 364.2,290.1 		"/>
	</g>
	<g>
		
			<linearGradient id="SVGID_14_" gradientUnits="userSpaceOnUse" x1="-1748.6934" y1="60.9102" x2="-1636.3604" y2="-328.7823" gradientTransform="matrix(1 0 0 -1 2229.3999 417.58)">
			<stop  offset="0" style="stop-color:#BD3300"/>
			<stop  offset="0.188" style="stop-color:#BD3300"/>
			<stop  offset="0.411" style="stop-color:#CB8500"/>
			<stop  offset="1" style="stop-color:#C26F00"/>
		</linearGradient>
		<polygon class="st16" points="497,319.9 499.5,467.7 566,746.2 607.6,746.4 		"/>
	</g>
	<g>
		
			<linearGradient id="SVGID_15_" gradientUnits="userSpaceOnUse" x1="-1753.6954" y1="-90.4902" x2="-1678.1558" y2="-349.6393" gradientTransform="matrix(1 0 0 -1 2229.3999 417.58)">
			<stop  offset="0" style="stop-color:#FFD303"/>
			<stop  offset="0.902" style="stop-color:#FFD303"/>
			<stop  offset="1" style="stop-color:#D27E00"/>
		</linearGradient>
		<polygon class="st17" points="499.5,467.9 499.8,633 536.5,750.2 523.5,793.5 566.5,746.5 		"/>
	</g>
	<g>
		<polygon class="st11" points="607.6,746.3 566.8,746.5 523.3,793.8 674.2,794.1 		"/>
	</g>
	<g>
		
			<linearGradient id="SVGID_16_" gradientUnits="userSpaceOnUse" x1="-1506.822" y1="136.6796" x2="-1592.0459" y2="-373.2906" gradientTransform="matrix(1 0 0 -1 2229.3999 417.58)">
			<stop  offset="0" style="stop-color:#A51F00"/>
			<stop  offset="0.288" style="stop-color:#C67200"/>
			<stop  offset="0.644" style="stop-color:#C67200"/>
			<stop  offset="1" style="stop-color:#C25500"/>
		</linearGradient>
		<polygon class="st18" points="725,346.4 752,290.3 679.2,331.4 607.2,746.4 674.3,794.1 655.8,744.8 		"/>
	</g>
	<g>
		
			<linearGradient id="SVGID_17_" gradientUnits="userSpaceOnUse" x1="-1572.7271" y1="125.6452" x2="-1657.9462" y2="-325.0583" gradientTransform="matrix(1 0 0 -1 2229.3999 417.58)">
			<stop  offset="0" style="stop-color:#CD7C00"/>
			<stop  offset="0.314" style="stop-color:#EED700"/>
			<stop  offset="1" style="stop-color:#EED700"/>
		</linearGradient>
		<polygon class="st19" points="628.4,336 620.6,290.4 679.4,331.1 607.3,745.9 577.1,628.2 		"/>
	</g>
	<g>
		
			<linearGradient id="SVGID_18_" gradientUnits="userSpaceOnUse" x1="-1544.1938" y1="129.7508" x2="-1522.8867" y2="85.5908" gradientTransform="matrix(1 0 0 -1 2229.3999 417.58)">
			<stop  offset="0" style="stop-color:#FFD511"/>
			<stop  offset="1" style="stop-color:#FDF8DC"/>
		</linearGradient>
		<polygon class="st20" points="620.5,290.3 679,331.6 752.2,290.1 		"/>
	</g>
</g>
</svg>
