<?xml version="1.0" encoding="utf-8"?>
<!-- Generator: Adobe Illustrator 24.3.0, SVG Export Plug-In . SVG Version: 6.00 Build 0)  -->
<svg version="1.1" id="Layer_1" xmlns="http://www.w3.org/2000/svg" xmlns:xlink="http://www.w3.org/1999/xlink" x="0px" y="0px"
	 viewBox="0 0 2500 2472" style="enable-background:new 0 0 2500 2472;" xml:space="preserve">
<style type="text/css">
	.st0{fill:#555553;}
	.st1{fill:#FFFFFF;}
</style>
<rect class="st0" width="2500" height="2472"/>
<g>
	<path class="st1" d="M1352.2,1153.7C1351.6,1154.8,1352.6,1152.6,1352.2,1153.7c-32.4-27.5-66.7-52.4-102.3-81
		c-32.5,26.3-64.6,53-96.3,80.1v-0.1c-231.4,204.1-527.2,474.2-523.9,726.8c161.6,153.4,380.9,248,622.7,248
		c241.2,0,460.1-94.1,621.6-247C1876.9,1627.9,1582.6,1357.8,1352.2,1153.7z"/>
	<path class="st1" d="M779.9,481.9c0.3-0.2,1.2,0.2,1.7,0c190.1-5.6,364.6,80,471.1,145.9c106.8-66.2,280.9-151.4,470.5-145.8
		l1.2-0.6c-137.3-83.9-299-132.4-472.2-132.4s-335,48.5-472.2,132.4L779.9,481.9z"/>
	<path class="st1" d="M1010.8,864.6c-3.5-5.9-7.2-11.7-11-17.6c-78.3-103.8-221-229.2-363.4-256.6
		c-174.4,162.1-283.5,392.3-283.5,647.7c0,207.5,72.1,398.4,192.7,549.6C511.2,1469.9,892.9,1007,1010.8,864.6z"/>
	<path class="st1" d="M1504.6,849.2c-3.5,5.5-6.8,10.9-10.2,16.3c41.1,49.9,114,138.6,190,246.4c0.7,0.9,1.3,1.9,1.9,2.8
		c6.3,8.9,12.7,18.1,19,27.3c1.2,1.8,2.5,3.6,3.8,5.5c5.7,8.4,11.5,16.9,17.2,25.5c1.7,2.4,3.3,5,4.9,7.4
		c5.3,8.1,10.6,16.1,15.9,24.3c2,3,3.9,6.1,5.9,9.1c5,7.7,9.9,15.5,14.8,23.4c2.1,3.4,4.2,6.8,6.4,10.3c4.6,7.5,9.3,15.1,13.9,22.8
		c2.3,3.8,4.5,7.5,6.7,11.4c4.4,7.4,8.7,14.8,13,22.2c2.3,4.1,4.6,8.1,7,12.1c4.1,7.3,8.2,14.5,12.1,21.8c2.3,4.3,4.6,8.6,7,12.8
		c3.9,7.2,7.6,14.2,11.4,21.4c2.3,4.5,4.6,8.9,7,13.5c3.5,7,7.1,14,10.5,21.1c2.3,4.6,4.5,9.3,6.7,13.9c3.3,6.8,6.5,13.8,9.7,20.7
		c2.2,4.7,4.4,9.6,6.5,14.4c3,6.7,6,13.6,8.8,20.3c2.1,4.9,4.1,9.7,6.1,14.6c2.8,6.7,5.3,13.4,8,20.1c1.9,5,3.9,9.9,5.6,14.9
		c2.4,6.6,4.6,13.1,7,19.7c1.8,5,3.4,10.1,5.1,15c2.1,6.5,4,12.9,6,19.4c1.5,5,3.1,10.1,4.4,15c1.8,6.4,3.3,12.7,5,19.1
		c1.2,5,2.5,9.9,3.6,14.9c1.4,6.4,2.7,12.6,3.9,19c1,4.9,2,9.8,2.9,14.6c1.1,6.3,1.9,12.6,2.8,18.9c0.7,4.7,1.4,9.5,2,14.1
		c0.8,6.4,1.1,12.7,1.5,19.1c0.3,4.4,0.8,8.9,1,13.3c0.3,6.8,0.2,13.7,0.2,20.4c0,3.8,0.2,7.5,0.1,11.3c-0.3,9.9-1,19.8-2,29.5
		c0,0.2,0,0.3,0,0.6c121.4-151.5,194.1-343,194.1-551.4c0-255.1-108.8-484.9-282.9-647C1726,618.7,1583,744.7,1504.6,849.2z"/>
</g>
</svg>
