<?xml version="1.0" encoding="utf-8"?>
<!-- Generator: Adobe Illustrator 22.1.0, SVG Export Plug-In . SVG Version: 6.00 Build 0)  -->
<svg version="1.1" id="Layer_1" xmlns="http://www.w3.org/2000/svg" xmlns:xlink="http://www.w3.org/1999/xlink" x="0px" y="0px"
	 viewBox="0 0 2500 2472" style="enable-background:new 0 0 2500 2472;" xml:space="preserve">
<style type="text/css">
	.st0{fill:#666666;}
	.st1{fill:url(#SVGID_1_);}
	.st2{fill:#00A54D;}
	.st3{fill:url(#SVGID_2_);}
	.st4{fill:#02A74D;}
	.st5{fill:url(#SVGID_3_);}
	.st6{fill:url(#SVGID_4_);}
	.st7{fill:url(#SVGID_5_);}
</style>
<path class="st0" d="M2500,1236c0.2,682.5-559.4,1235.9-1249.8,1236C559.8,2472.1,0.1,1918.9,0,1236.4v-0.4
	C-0.1,553.4,559.5,0.1,1249.8,0C1940.2-0.1,2499.9,553.1,2500,1235.6L2500,1236L2500,1236z"/>
<radialGradient id="SVGID_1_" cx="-9782.9912" cy="1250.484" r="3.176" gradientTransform="matrix(0 729.4088 -647.6815 0 811137 7136901.5)" gradientUnits="userSpaceOnUse">
	<stop  offset="0.259" style="stop-color:#FFFFFF"/>
	<stop  offset="1" style="stop-color:#FFFFFF;stop-opacity:0"/>
</radialGradient>
<path class="st1" d="M2500,1236c0.2,682.5-559.4,1235.9-1249.8,1236C559.8,2472.1,0.1,1918.9,0,1236.4v-0.4
	C-0.1,553.4,559.5,0.1,1249.8,0C1940.2-0.1,2499.9,553.1,2500,1235.6L2500,1236L2500,1236z"/>
<path class="st2" d="M932.8,694.7C794.8,862,216.6,1542,267.9,2001.7c35.7,45.3,75,87.5,116.6,127.5
	c-6-352,406.9-728.6,729.3-1012.9L932.8,694.7L932.8,694.7z"/>
<g transform="matrix(1.0075 0 0 1.00084 1.107 -34.93)">
	
		<linearGradient id="SVGID_2_" gradientUnits="userSpaceOnUse" x1="-9573.9004" y1="1283.9839" x2="-9577.8564" y2="1279.3419" gradientTransform="matrix(443.7749 0 0 432.1571 4249447.5 -553274.0625)">
		<stop  offset="0" style="stop-color:#97CA43"/>
		<stop  offset="1" style="stop-color:#97CA43;stop-opacity:0"/>
	</linearGradient>
	<path class="st3" d="M924.7,729c-136.9,167.2-710.8,846.6-659.9,1306c35.4,45.2,74.5,87.4,115.7,127.4
		c-6-351.7,403.9-728,723.9-1012L924.7,729z"/>
</g>
<g transform="matrix(1.0075 0 0 1.00084 .968 -34.898)">
	<path class="st4" d="M588.1,219.6c-71.6,43.3-138,94.3-199.1,150.5c196.8,37.6,394.3,212,502.4,356.5
		c94.3,148.3,145.5,284.3,212.1,424.7c45-38.4,90.9-77.5,140.5-117.6l-0.3-609.6c-146.6-91.7-389-212.4-653.2-204.7
		C589.9,220,588.7,219.2,588.1,219.6L588.1,219.6z"/>
	
		<linearGradient id="SVGID_3_" gradientUnits="userSpaceOnUse" x1="-9573.3613" y1="1282.0778" x2="-9569.7383" y2="1274.0358" gradientTransform="matrix(443.7749 0 0 432.1571 4249194.5 -553271.4375)">
		<stop  offset="0" style="stop-color:#97CA43"/>
		<stop  offset="1" style="stop-color:#97CA43;stop-opacity:0"/>
	</linearGradient>
	<path class="st5" d="M588.1,219.6c-71.6,43.3-138,94.3-199.1,150.5c196.8,37.6,394.3,212,502.4,356.5
		c94.3,148.3,145.5,284.3,212.1,424.7c45-38.4,90.9-77.5,140.5-117.6l-0.3-609.6c-146.6-91.7-389-212.4-653.2-204.7
		C589.9,220,588.7,219.2,588.1,219.6L588.1,219.6z"/>
</g>
<g>
	<path class="st2" d="M1567.7,695.1c137.5,167.5,713.8,848,662.7,1308.1c-35.6,45.3-74.8,87.6-116.2,127.6
		c6-352.3-405.7-729.2-726.9-1013.8L1567.7,695.1L1567.7,695.1z"/>
	<g transform="matrix(-1.00417 0 0 1.00169 61.912 -34.932)">
		
			<linearGradient id="SVGID_4_" gradientUnits="userSpaceOnUse" x1="-1598.6409" y1="1281.2406" x2="-1602.595" y2="1276.6016" gradientTransform="matrix(437.9291 0 0 433.6184 698317.25 -554121.125)">
			<stop  offset="0" style="stop-color:#97CA43"/>
			<stop  offset="1" style="stop-color:#97CA43;stop-opacity:0"/>
		</linearGradient>
		<path class="st6" d="M-1499.5,728.8c-136.9,167.2-710.8,846.6-659.9,1305.9c35.4,45.2,74.5,87.4,115.7,127.4
			c-6-351.7,404-728,723.9-1012.1L-1499.5,728.8z"/>
	</g>
	<g transform="matrix(-1.00417 0 0 1.00169 62.051 -34.9)">
		<path class="st4" d="M-1836,219.4c-71.6,43.4-138.1,94.3-199.2,150.5c196.8,37.6,394.3,212.1,502.4,356.6
			c94.3,148.3,145.5,284.3,212.1,424.6c45-38.4,90.9-77.5,140.5-117.6l-0.3-609.6c-146.6-91.7-389-212.4-653.2-204.6
			C-1834.3,219.8-1835.5,219-1836,219.4L-1836,219.4z"/>
		
			<linearGradient id="SVGID_5_" gradientUnits="userSpaceOnUse" x1="-1597.9918" y1="1279.2096" x2="-1594.8948" y2="1274.1647" gradientTransform="matrix(437.9291 0 0 433.6184 698306.375 -554118.8125)">
			<stop  offset="0" style="stop-color:#97CA43"/>
			<stop  offset="1" style="stop-color:#97CA43;stop-opacity:0"/>
		</linearGradient>
		<path class="st7" d="M-1836,219.4c-71.6,43.4-138.1,94.3-199.2,150.5c196.8,37.6,394.3,212.1,502.4,356.6
			c94.3,148.3,145.5,284.3,212.1,424.6c45-38.4,90.9-77.5,140.5-117.6l-0.3-609.6c-146.6-91.7-389-212.4-653.2-204.6
			C-1834.3,219.8-1835.5,219-1836,219.4L-1836,219.4z"/>
	</g>
</g>
</svg>
