<svg id="flag-icon-css-ht" xmlns="http://www.w3.org/2000/svg" viewBox="0 0 640 480"><defs><style>.cls-1{fill:#f05252;}.cls-2{fill:#fff;}</style></defs><rect class="cls-1" width="640" height="480"/><path class="cls-2" d="M304.79,417.16c0-.66,1.14-1.9,1.81-1s.38,2.29,1.71,2.29,3.71.47,4.09-.1,2.09-1,2.09-2.09v-21.2c0-.76,3.23,0,3.23-1.24v-11a28.54,28.54,0,0,0,3-.38c.67-.19,3.05-1.43,3.62-1.05s1.32,1.71,1.71,1.23a3.53,3.53,0,0,1,2.28-1.42,11.72,11.72,0,0,0,2.16-.41,1.65,1.65,0,0,1-.26-.74c0-.81-5.79.16-6.75.48s-4,.8-5,.32-7.08,0-7.08,0l-1.12-1.13h-11.1a4.67,4.67,0,0,1-2.89-.8,3,3,0,0,0-3.06-.16c-1.12.48-.64-.64-1.44-.64a1.32,1.32,0,0,0-1.13.8l-1,.26c-.11,1,.76,2.79,1.81,4.21a25,25,0,0,1,3.14,6.56c.71,2.33,2.76,4.94,3.28,6.7s-.38,4.28.14,5.42a21.91,21.91,0,0,1,1.14,5c.29,1.95.43,6.08,2.19,7.79a14.89,14.89,0,0,1,2,2.57C304.2,417.57,304.79,417.67,304.79,417.16Z"/><path class="cls-2" d="M347.57,374.67l-.47-1-2.76.09c-1.81.47-1.81,1-1.81,1.62s-1.71,1.9-2.95,2.28-2.56,3.23-3.32,3.61-3.33-.57-4.09-.67a6.11,6.11,0,0,0-1.64.26c.47.83,1.47,1.83,1.83,1.83s.64,3.37,1.77,3.86,3.21,1.6,3.21,2.24,1.29,1.45,1.29,2.42a2.68,2.68,0,0,0,2.25,2.25c2.06-.07,2.27.78,2.27,1.36s2.71,0,3.07.57,3,.32,3.65.68c1.12-1.09,2.71-2.52,3.26-3.25.86-1.14.14-2.71.86-3.14s2.28-2.28,1.71-2.42-.14-1.57-1-2.43,1-1.28.86-2.85.28-4.7-.15-5-2.42-.43-3.7-1.28S347.57,374.67,347.57,374.67Z"/><path class="cls-2" d="M340.88,393.42a2.68,2.68,0,0,1-2.25-2.25c0-1-1.29-1.77-1.29-2.42s-2.09-1.76-3.21-2.24-1.29-3.86-1.77-3.86-1.36-1-1.83-1.83a11.72,11.72,0,0,1-2.16.41,3.53,3.53,0,0,0-2.28,1.42c-.39.48-1.14-.85-1.71-1.23s-2.95.86-3.62,1.05a28.54,28.54,0,0,1-3,.38v11c0,1.24-3.23.48-3.23,1.24v9.45c.7.26,1.36.6,1.52,1,.38.95,1.23,3,1,3.61s-.66.19-.66.76-.38,1.43.57,1.43,2.57.57,3.23-.2,2.85-2.47,2.95-3.32.57-2.76,2.18-1.71,1.72,1.23,3.81,1.23,2.66-.09,3-1.42,0-2.38,1.24-2.38,2.75-1.14,2.75-2,.57-2.18,1.33-2.18a3.28,3.28,0,0,0,2.57-1.9c.19-.95,1.52-.57,2-1.15.23-.27.69-.94,1.1-1.55h0C343.15,394.2,342.94,393.35,340.88,393.42Z"/><path class="cls-2" d="M350.46,407.63c-.8,0-2.19,1.92-2.19,2.31s1,2.92,2,3,1.72,0,1.79-.73a1.32,1.32,0,0,1,.54-.86c-.08-.63-.24-2-.3-2.77A4.51,4.51,0,0,0,350.46,407.63Z"/><path class="cls-2" d="M341.77,417.54c-.38-.76-2.85.58-3.23,1.34s-1.9,2.85-1.9,2.85l1.9,2.66,1.33.19s.38-.95.76-1.71,2.09.19,2.09-.57,1.14-1.52,1.14-2.28S342.15,418.31,341.77,417.54Z"/><path class="cls-2" d="M352.63,411.67s0-.13,0-.33a1.32,1.32,0,0,0-.54.86c-.07.73-.8.79-1.79.73s-2-2.59-2-3,1.39-2.31,2.19-2.31a4.51,4.51,0,0,1,1.83.94,3.08,3.08,0,0,1,0-.6c.07-.43.57-5.35-.29-5.85s-1.71-5.49-2-6-3.42-.21-3.77-.78-3,0-3.06-.56c-.41.61-.87,1.28-1.1,1.55-.48.58-1.81.2-2,1.15a3.28,3.28,0,0,1-2.57,1.9c-.76,0-1.33,1.33-1.33,2.18s-1.52,2-2.75,2-.86,1.05-1.24,2.38-.95,1.42-3,1.42-2.19-.19-3.81-1.23-2.09.85-2.18,1.71-2.28,2.56-2.95,3.32-2.28.2-3.23.2-.57-.86-.57-1.43.48-.19.66-.76-.66-2.66-1-3.61c-.16-.41-.82-.75-1.52-1v11.75c0,1.05-1.71,1.52-2.09,2.09s-2.76.1-4.09.1-1.05-1.34-1.71-2.29-1.81.29-1.81,1c0,.51-.59.41-1.38.34a22.17,22.17,0,0,1,2.43,5.13c.76,2.52,2.61,4.9,3.09,6.37s1,2.85,0,3-1,1,0,2.62.15,2.57,1,2.76.62.76,1.33.81,1.24.75,1.71,1.37a1.32,1.32,0,0,0,2.09-.14c.53-.76,2.14-1,3.8-1s1.34-.71,2.95-1.19a8.78,8.78,0,0,1,5,0,3.46,3.46,0,0,0,3.09-.38c.66-.43,1.94.66,2-.43s1.43-.91,2.66-.91,4.23-1.94,6.61-4.18a60,60,0,0,0,7.65-9.36,24.26,24.26,0,0,1,4.61-5.14c.82-.74,1.29-3.37,1.52-5.29A17.94,17.94,0,0,0,352.63,411.67Zm-9.91,10.63c0,.76-1.71-.19-2.09.57s-.76,1.71-.76,1.71l-1.33-.19-1.9-2.66s1.52-2.09,1.9-2.85,2.85-2.1,3.23-1.34,2.09,1.72,2.09,2.48S342.72,421.54,342.72,422.3Z"/><path class="cls-2" d="M291.85,378.15c.8,0,.32,1.12,1.44.64a3,3,0,0,1,3.06.16,4.67,4.67,0,0,0,2.89.8h11.1l1.12,1.13s6.11-.48,7.08,0,4,0,5-.32c.17-.06.48-.13.88-.22l-3.67-5,.33-10.69,4.77.16.83-.82.67-6.39a1,1,0,0,0-.87,0,6.45,6.45,0,0,1-2.85.28c-1,0-1.14,1-1.71.86s-.14-1.85,0-2.57-.85-2-1.57-2.57.86-4.13.43-4.56a4.27,4.27,0,0,1-.57-2.56c0-1-.71-.43-2.14-.43s-1.57-.72-1.57-.72a5,5,0,0,0-2.56,0c-.86.43-.72,3-1.28,2.86a10.27,10.27,0,0,0-3.71.57c-1.43.42-2-.29-2.71-2s-1.57-1.14-1.29-2.42a4.29,4.29,0,0,0-.57-2.71s-9.41-.15-10.41,0a5.53,5.53,0,0,0-1.81,1,48.61,48.61,0,0,0,2.81,6.71c.43.9-.52,1.71-.52,3.37s1.81,4.71,2,6.75-1.14,3.33-2.29,4.66a11.85,11.85,0,0,0-2.32,6.18c0,1.85-1.72,3.66-1.67,4.52a27.47,27.47,0,0,1-.43,4.32v.12l1-.26A1.32,1.32,0,0,1,291.85,378.15Z"/><path class="cls-2" d="M349.2,350.32a6.81,6.81,0,0,1-2.32-1.32c-.62.69-2.8.57-3.87.57s-.14,1.57-.86,2.14-1,1.43-.43,1.71-.14,2.71-.14,3.57-1.14,2.71-.71,3,1.14,2.28,2.14,2.57,1.71-.71,2.14-.71.42,1.28.42,2.28a1.77,1.77,0,0,1-.57,1.42s-1.57.57-2.28,0a4.73,4.73,0,0,1-1.28-2.71c0-.57-1.71-.57-2.43-.57s-1.42-1.28-1.71-1.85-1.14.14-1.14.57-.71.43-1.42.43-2.14-1.14-2.71-.86-1.14-1-1-1.57-1.43-.14-2,.15-.85-.72-.85-.72a2.3,2.3,0,0,0-.85-.82l-.67,6.39-.83.82-4.77-.16-.33,10.69,3.67,5c1.91-.38,5.87-.93,5.87-.26a1.65,1.65,0,0,0,.26.74,6.11,6.11,0,0,1,1.64-.26c.76.1,3.33,1.05,4.09.67s2.09-3.23,3.32-3.61,2.95-1.71,2.95-2.28,0-1.15,1.81-1.62l2.76-.09h.18l-.66-2.37s8.42-3.15,8.91-3.23c-.37-.76-.76-1.32-.57-1.41s.49-2.47.49-3.12,2-.17,1.32-.83-.49-4.44-.17-5.27,1.16,0,1.16-.65a10.55,10.55,0,0,0-1.48-3.46,14.45,14.45,0,0,0-4.12-1.81C351.34,351.31,350,350.32,349.2,350.32Z"/><path class="cls-2" d="M347.85,325.88a12.38,12.38,0,0,0-1.78.58,2.23,2.23,0,0,1-1.6.28.94.94,0,0,1-.39.3c-.79.29-.65,2.07-.65,2.07a.84.84,0,0,0-.71.93,1,1,0,0,0,.65.93,7.5,7.5,0,0,1,1.06.1c1.81.33,1.64-1,1.64-1s2.64.16,2.8-.66a4.37,4.37,0,0,0-.49-2.14Z"/><path class="cls-2" d="M389.21,291.18c.57.28,1.5,1.78,2.14,1.92s4.2,1.36,6.49,2.28a11.29,11.29,0,0,0,4.42,1c.71,0,1.78.22,1.14.71s-7.63,7.56-8.56,8.56-1.5.64-3.56.64-3.64,2.28-4.21,2.21a13.32,13.32,0,0,0-2.6.41l-1.54,2.25-1.48,2.3.17,11.52,1.59,2.53c1.26-1.68,4.64-4.92,7.14-7.55a16.88,16.88,0,0,1,5.61-4.28c1.52-.76,5.37-4.51,8-7.84,1.64-2.1,3.46-4.42,3.7-5.94s1.76-3.52,2.9-5,3-5.23,3-6.37.95-3.57,1.09-5.61-1.57-2.24-2.09-1.1-4.61,1.91-7.23,1.95-4.18.29-5.13,1.19-3.33-.24-4.18.76-4.24,1.86-5.33-.43a4.06,4.06,0,0,0-1.65-1.83c-.92.94-2,2.33-1.82,2.78A9.73,9.73,0,0,0,389.21,291.18Z"/><path class="cls-2" d="M223.94,231.69c-.05-2.11-.12-4.19-.07-4.39.1-.42,4.4-2.93,5.14-3.35s2.09.2,2.09-.63,1.78-.42,2.83-.63a1.91,1.91,0,0,0,1.68-1.89c0-.94,1.46-.73,2.41-.84s.83-.94,1.47-.94.31-.94.41-2,.11-.84,1-.84,1.89-.52,1.89-1.15,4.09-.21,4.72-.21.83-.74.73-1.26-.63-2.1-1.26-2.2-.21-1.68-.21-2.93a5.29,5.29,0,0,0-.94-3.36,5,5,0,0,1-.53-1c-1.15,0-2.54-.84-3.73-.87-1.66-.05-4.23.81-5.47-.57s-2.09-1.81-3-1.38-2.57,5.18-3.52,6.56-3.61,2.33-4.89,2.33-1.43,2-2.43,2.76-.61,2.09-1.8,3-.62,3.85,0,4.89-2.19,4.33-3.81,5.28-2.13,2.76-4.7,3.18a4.42,4.42,0,0,0-2.33,1.14h11.95C224.11,230.45,223.54,231,223.94,231.69Z"/><path class="cls-2" d="M279.41,201.94c.76,1.14-.19,3-1,3.42s-1.33,2.09-2.09,2.09,0,2.85,1.33,3.42A2,2,0,0,1,279,213c0,.57,1.9,1.14,2.47,1.9a16.84,16.84,0,0,1,1.52,5.71,1.35,1.35,0,0,0,.29.84,4.23,4.23,0,0,0,1.33-1.17,4.5,4.5,0,0,0,.57-2.57,1.29,1.29,0,0,1,.28-1.43c.43-.38,2.14-2.18,2.47-2.33s1.43.05,1.38-1a12,12,0,0,1,.1-1.68c-.77-.5-1.24-1.08-1.24-1.37,0-.61-.85-1.66-1.33-1.09s-2.28.1-2.52-1.09,1.19-1.14,2.52-2.24a2.78,2.78,0,0,0,.1-4.32c-1.43-1.14-.43-1.76.57-2.81s.09-1.61-.43-1.14-1.38.62-1.52-.52-3.23-1.33-4.42-.24a2.55,2.55,0,0,1-1.73.5C279.16,198.81,278.9,201.17,279.41,201.94Z"/><path class="cls-2" d="M246.82,208.44c0,1.25-.42,2.83.21,2.93s1.15,1.68,1.26,2.2-.11,1.26-.73,1.26-4.72-.42-4.72.21-1,1.15-1.89,1.15-.94-.21-1,.84.21,2-.41,2-.53.84-1.47.94-2.41-.1-2.41.84a1.91,1.91,0,0,1-1.68,1.89c-1.05.21-2.83-.21-2.83.63s-1.36.21-2.09.63-5,2.93-5.14,3.35c-.05.2,0,2.28.07,4.39a1.63,1.63,0,0,0,.63.57c1.59.91,30.29,19.9,31.2,20.8a17.33,17.33,0,0,1,2,2.94,10.65,10.65,0,0,1,3.62,1.13c1.58.9,1.58,3.39,1.58,3.39s2-.45,3.17-.68,5-1.58,5-1.58l5.87-4.75,13.79-8.59h0c-.43-1.52-.88-2.74-1.62-2.74s-1.42-.71-2.37-.71-2.14-.48-2.26-1.31.36-1.42-.35-2.49-1.42-1.54-1.42-2,1.2-1.4,1.39-1.59-.48-.95-.48-1.48-.47-1.42,0-2a1.71,1.71,0,0,0,.24-2.19c-.52-1,.72-2,.1-3.37s-1.57-2.47-1.48-2.95c0-.2.35-.43.72-.68a1.35,1.35,0,0,1-.29-.84,16.84,16.84,0,0,0-1.52-5.71c-.57-.76-2.47-1.33-2.47-1.9a2,2,0,0,0-1.33-2.09c-1.33-.57-2.09-3.42-1.33-3.42s1.33-1.71,2.09-2.09,1.71-2.28,1-3.42c-.51-.77-.25-3.13,0-5a11.08,11.08,0,0,1-3-.59c-.57-.19-2.23.28-3.28.33s-3.61,1.71-4.46.9-9.61.62-12.08.71-3.51,2.67-5,2.67a8.29,8.29,0,0,0-5,2.61,1.58,1.58,0,0,1-1.21.54,5,5,0,0,0,.53,1A5.29,5.29,0,0,1,246.82,208.44Z"/><path class="cls-2" d="M288,213.91c-.33.15-2,2-2.47,2.33a1.29,1.29,0,0,0-.28,1.43,4.5,4.5,0,0,1-.57,2.57c-.43.8-1.95,1.37-2.05,1.85s.86,1.57,1.48,2.95-.62,2.33-.1,3.37a1.71,1.71,0,0,1-.24,2.19c-.47.57,0,1.47,0,2s.67,1.29.48,1.48-1.39,1.11-1.39,1.59.71,1,1.42,2,.24,1.66.35,2.49,1.31,1.31,2.26,1.31,1.54.71,2.37.71,1.19,1.22,1.62,2.74c.35,0,3.43.05,4.71.9a7.16,7.16,0,0,1,2,2l5.43-2.94,24.54,13.2v-1.7h3V224.89c0-2.18-1-3.57,0-4.76s-.4-1.78.39-4c.1-.26.19-.53.3-.8a.64.64,0,0,1-.1-.13c-.23-.66-1.52-.71-4.32-1.14s-1.76-2.33-4.9-2.51-7.13,2.32-7.17,3.65,1.47,2.81.42,4.19a3.36,3.36,0,0,1-4.94,0,9.15,9.15,0,0,0-5.94-2.13c-1.95,0-3.33-1.24-3.19-2.28s-.47-1.53-2.09-1.86-3-1.66-5.84-1.19a5.21,5.21,0,0,1-3.71-.77,12,12,0,0,0-.1,1.68C289.39,214,288.3,213.77,288,213.91Z"/><path class="cls-2" d="M202.8,278.74c.66-.6,1.74.6,2.7.72a3.54,3.54,0,0,0,2-.54,6.15,6.15,0,0,0-1.75-.24c-1.56-.12-1.68-2-3.06-1.32a6.58,6.58,0,0,1-4.08.66c0,.53-.32,1.24-.41,1.94a7.38,7.38,0,0,1,.94-.2A8.2,8.2,0,0,0,202.8,278.74Z"/><path class="cls-2" d="M200.51,282.29a4.36,4.36,0,0,0,1.8-.72l4.69-.36a1.81,1.81,0,0,1,.82.21c0-.17,0-.29,0-.29s2.13.42,2.28.92,3.06.86,4.7.29l.36-.13a16.47,16.47,0,0,0,0-2,8.06,8.06,0,0,0-1.71-2.09c-.58-.57-.48-2-.48-2l-.59-.88s-.46-1.81-1.81-2.26S208.3,270,208.3,270h-1.13a7,7,0,0,0-1.81-1.58,3.78,3.78,0,0,0-2.49.23,12.06,12.06,0,0,1-2.94,0c-1.12-.23-.9,1.35-1.8,1.58l-.17,0a5.83,5.83,0,0,1-.73,2.57c-1,1.57.42,3.85,1.18,4.57a.69.69,0,0,1,.19.6,6.58,6.58,0,0,0,4.08-.66c1.38-.66,1.5,1.2,3.06,1.32a6.15,6.15,0,0,1,1.75.24,3.54,3.54,0,0,1-2,.54c-1-.12-2-1.32-2.7-.72a8.2,8.2,0,0,1-3.67,1,7.38,7.38,0,0,0-.94.2,1.79,1.79,0,0,0,.37,1.5l.32.38C200.51,281.43,200,282.24,200.51,282.29Z"/><path class="cls-2" d="M203.55,286.19c.71-.5,2.14-1.79,2.63-1.57s1.15-.22,1.15-.5-1-1.21-.22-1.5c.54-.19.67-.82.71-1.2a1.81,1.81,0,0,0-.82-.21l-4.69.36a4.36,4.36,0,0,1-1.8.72c-.5-.05,0-.86-1.63-.45.81,1,.92,1.53,2.58,2,1.85.53-.15,1.48,1.37,2.43a3,3,0,0,1,.37.27A2.07,2.07,0,0,1,203.55,286.19Z"/><path class="cls-2" d="M334.89,301.82c0-.59,0-1.19-1.19-2.18s-2-1.19-2-1.78-.4-.8-1.39-2a3.67,3.67,0,0,0-2.58-1.18l-.4-1L326,293.5s-.79-.6.4-1.19,0-2.19-.2-2.78a22.48,22.48,0,0,0-2.27-3,1.19,1.19,0,0,1-.56-.13c-.67-.38-2,.38-2.66,1s-.19,1.05-.67,1.52a36,36,0,0,0-3.13,3.23c-1.05,1.33-3.71.48-4.57,1s.38,1.24-.19,1.71a20.86,20.86,0,0,1-2.85,1.53c-.57.28-2.85.18-3.52,1s-1.42-.95-2.09,0-1.43,1.05-1.8.76a1.08,1.08,0,0,1-.29-.33,5.36,5.36,0,0,0-1.62,2c-.42,1.35-1.56,2.56-1.56,3.2s.42,1.5.42,2.64a3.7,3.7,0,0,0,.93,2.57,2.89,2.89,0,0,1,.5,1.92,6.82,6.82,0,0,0,.71,1.07c.5.64,1.93,1.57,2.07,2.07a1,1,0,0,0,.55.54c.07-.1.13-.21.2-.3a3.45,3.45,0,0,0,.59-2.38l1.79-.4,1.38-.39,2.78.39v-2.17s2-2.58,3.37-2.58,2.58,1.78,2.58,1.78L322.4,309s.39-1.78,1-2.18,1.78.4,2.57,0a7.56,7.56,0,0,1,3.38-1c1.38,0,2,.79,2.57-.4s3.57.4,3.57.4l2.38-.4-.79-2S334.89,302.42,334.89,301.82Z"/><path class="cls-2" d="M284.35,300c.38-.09,1.24.19,1.9-.28s2.1.66,2.29,1.61.76-.38,1.33-1.42,2.37-4.18,2.37-4.94,1.53-1.43,1.53-1.91-.1-1.52.38-1.71.85-1.61.76-2.09,1.61-3.14,1.9-3.52,1.8-.19,1.9-1,.38-1.81-.19-2-1.33-.85-1.33-1.33a8,8,0,0,1,.2-1.73c-.77-.11-.81-.87-1.25-1.31s-.47-.86-1.14-.67-1.42,1.81-2.28,2.09-2.09-.38-2.66-.66-3.24,0-4.09-.1-1.71,1.14-2.38,1.52a5.74,5.74,0,0,1-3.13,0c-.57-.19-1.91-1.33-2.48-1.33a5.72,5.72,0,0,0-2.66.76c-.95.57-1.23-1-1.8-1.71s-1.81-.09-2.57-.76-1.24.76-1.9.67-2.38-.48-2.95,0-.47,2.28-.76,2.57-1.43,1.61-1.43,2.28a.67.67,0,0,1-.3.63c.13.79.29,1.8.33,2.17.07.64.35,3.85-.36,4.56a7.24,7.24,0,0,0-1.21,1.86A3.6,3.6,0,0,0,261,294.6a21.92,21.92,0,0,0,.07,3.78c0,.86.64,1.47,1,2.53l0,0c.57.76,3.28.9,4.8,1.23s3.09,2.47,3,3.28a4.19,4.19,0,0,0,1.71,2.76c.71.38,2.47-.71,3.28-.71s3.71,0,4.28-.48a.38.38,0,0,1,.51,0,19.28,19.28,0,0,0,.94-3.45A45.32,45.32,0,0,1,284.35,300Z"/><path class="cls-2" d="M261,294.6a3.6,3.6,0,0,1,1.36-2.35,7.24,7.24,0,0,1,1.21-1.86c.71-.71.43-3.92.36-4.56,0-.37-.2-1.38-.33-2.17a1.12,1.12,0,0,1-1-.06c-.85-.38-.09-1.24-1-1.52s-1.33.76-1.14,1.52-.48.76-.86,1.23-2.09.57-2.66.57-1.24,1.05-1.81,1.24a1.34,1.34,0,0,1-.51,0c.13,2.51.55,2.32,1.75,3,1.35.79.07,1.85.64,2.42s.36,2,.5,3.78c.09,1.08.2,3.88.27,5.93a11.28,11.28,0,0,1,2.15-.2c1,0,1.64-1.35,2.2-.7-.35-1.06-1-1.67-1-2.53A21.92,21.92,0,0,1,261,294.6Z"/><path class="cls-2" d="M257,292.1c-.57-.57.71-1.63-.64-2.42-1.2-.69-1.62-.5-1.75-3-.69,0-1.7-.34-2.43-.41a.68.68,0,0,0-.39.07c.15.9.38,1.92.65,2.07a1.84,1.84,0,0,1,.78,1.92c-.07,1.07-.36,3.42.07,4.49a12.75,12.75,0,0,1,.86,4.42,9.7,9.7,0,0,0,1.17,3.71,3.77,3.77,0,0,0,.66-.43,4.1,4.1,0,0,1,1.79-.7c-.07-2.05-.18-4.85-.27-5.93C257.31,294.1,257.52,292.68,257,292.1Z"/><path class="cls-2" d="M289.68,314.91s7.54.39,8.53.2,4.56,1.58,4.56,1.58a8.63,8.63,0,0,1,.79-2.87,1,1,0,0,1-.55-.54c-.14-.5-1.57-1.43-2.07-2.07a6.82,6.82,0,0,1-.71-1.07,2.89,2.89,0,0,0-.5-1.92,3.7,3.7,0,0,1-.93-2.57c0-1.14-.42-2-.42-2.64s1.14-1.85,1.56-3.2a5.36,5.36,0,0,1,1.62-2,11.3,11.3,0,0,1-.95-2.33c-.38-1.24-1.43-1.61-2.66-2.75a2,2,0,0,1-.76-2.29c0-.47,1.61-.47,2.75-.38s1.81-.19,1.34-.47a6.36,6.36,0,0,1-1.34-4c.1-1.52-.47-2-.38-2.85s-1-3-2-3l-.18,0a8,8,0,0,0-.2,1.73c0,.48.76,1.14,1.33,1.33s.28,1.14.19,2-1.62.66-1.9,1-2,3.05-1.9,3.52-.29,1.9-.76,2.09-.38,1.24-.38,1.71-1.53,1.14-1.53,1.91-1.8,3.89-2.37,4.94-1.14,2.38-1.33,1.42-1.62-2.09-2.29-1.61-1.52.19-1.9.28a45.32,45.32,0,0,0-3.68,3.52,19.28,19.28,0,0,1-.94,3.45,7.64,7.64,0,0,1,1.34,1.78c.67.95,1.95.24,2.47.52s1.1,2.52.91,3.14-1,2.11-.61,2.85h4.45Z"/><path class="cls-2" d="M243,304.58a10.44,10.44,0,0,1-1.36-3.56c.07-.57,1.28-2.29,1.21-3.14s1.22-1.43,1.22-2.14a16.76,16.76,0,0,0-1.13-5,.83.83,0,0,1-.59-.31c-.57-.57-2.94-.47-3.8.48s-2.56-.86-2.85-1.33-1.52-1.52-2.47-.86-1.24.48-1.14-.38-1.43-.57-1.62.19-1.42,1.43-1.81.86-1.23-1.33-1.61-.48a.64.64,0,0,1-1.09.26c-.24,1.06-.53,2.27,0,2.57a1.24,1.24,0,0,1,.57,1.5c-.14.42,1.07,1.49.58,2s-1.15-.5-1.5.22.71,1.35.28,1.92-1.07.64-.92,1.78.07,1.93-.36,2.29.07.35,1.07,1,2.64,1.36,2.5,2.43-.56,1.19-1,3c1.94,0,5.41-1.37,9.49-2.08a14,14,0,0,1,6.24.37C243.08,305.55,243.19,304.87,243,304.58Z"/><path class="cls-2" d="M253.24,294.81c-.43-1.07-.14-3.42-.07-4.49a1.84,1.84,0,0,0-.78-1.92c-.27-.15-.5-1.17-.65-2.07-.57.25-.61,1.18-.85.78s-7.7-.76-8.08-.19.66,2.67.57,3.24c-.06.34-.22.57-.46.59a16.76,16.76,0,0,1,1.13,5c0,.71-1.29,1.28-1.22,2.14s-1.14,2.57-1.21,3.14a10.44,10.44,0,0,0,1.36,3.56c.21.29.1,1-.06,1.58,1.29.37,2.15.81,2.41.87.57.14,4.61-1.71,6.23-2.52,1.29-.65,2.72-1.05,3.71-1.57a9.7,9.7,0,0,1-1.17-3.71A12.75,12.75,0,0,0,253.24,294.81Z"/><path class="cls-2" d="M211.32,290.89c.07-.78.71-.5,1.5-.35s1.71-.5,2.42-.5,2.57,2.49,2.57,3.21a3.53,3.53,0,0,0,.42,1.92.67.67,0,0,1,.1.23,16.18,16.18,0,0,1,2.33-.41c.35,0,1.05,1.68.91,2.74s1.05,1.82,1.54,1.12,1.12-1.61,1.27-1c0,.18.3.34.63.48.18-.42.56-.58.85-1,.43-.57-.64-1.21-.28-1.92s1,.28,1.5-.22-.72-1.57-.58-2a1.24,1.24,0,0,0-.57-1.5c-.52-.3-.23-1.51,0-2.57a1.84,1.84,0,0,1-.43-.45c-.38-.57-.1-1.81-.76-1.81s-.57-.95,0-1.14-1.14-.85-1.14-1.52a4,4,0,0,0-1.24-2.37c-.38-.1-1.71,1.61-2.28,1.61s-1.81-1.14-2.19-.19-1.23-.47-1.8.29-.95-.86-.95-.86,0-.22,0-.53l-.36.13c-1.64.57-4.56.21-4.7-.29s-2.28-.92-2.28-.92.07,1.21-.72,1.49.22,1.21.22,1.5-.65.71-1.15.5-1.92,1.07-2.63,1.57a2.07,2.07,0,0,0-.35.34c1.1.88,1,1.87,2.3,2.82a10.79,10.79,0,0,1,3.62,3.95C210,292.52,211.27,291.43,211.32,290.89Z"/><path class="cls-2" d="M225.65,302.44c-1-.64-1.5-.64-1.07-1s.5-1.15.36-2.29a1.54,1.54,0,0,1,.07-.81c-.33-.14-.59-.3-.63-.48-.15-.63-.78.28-1.27,1s-1.68-.07-1.54-1.12S221,295,220.66,295a16.18,16.18,0,0,0-2.33.41c.16.51-.18,1.06-.31,1.62s-1.85,1.57-2.57,2.14a4.15,4.15,0,0,0-.73,1.09c1.34.84,2.91,1.83,4.18,2.79a41.94,41.94,0,0,0,7.51,4.7,2.32,2.32,0,0,0,.78.13c.4-1.81.83-2,1-3S226.65,303.08,225.65,302.44Z"/><path class="cls-2" d="M218,297c.14-.64.57-1.28.21-1.85a3.53,3.53,0,0,1-.42-1.92c0-.72-1.86-3.21-2.57-3.21s-1.64.64-2.42.5-1.43-.43-1.5.35c0,.54-1.28,1.63-2.2,2.41a9.06,9.06,0,0,1,.47,1.18,6.34,6.34,0,0,0,2.56,4c.5.41,1.46,1,2.57,1.73a4.15,4.15,0,0,1,.73-1.09C216.17,298.59,217.88,297.67,218,297Z"/><path class="cls-2" d="M209.72,247.32c0-.74,3.35-1.68,3.35-2.41v-8.59s10.49.2,10.8,0a25,25,0,0,0,.07-4.63c-.4-.68.17-1.24-2.31-1.24H209.68a7.69,7.69,0,0,0-1.76,3c-.57,1.52-4.13,3.76-4.28,5.9s-3.47,5.46-5.65,10a8.75,8.75,0,0,0-1,3h12.68Z"/><path class="cls-2" d="M199.93,268.66a12.06,12.06,0,0,0,2.94,0,3.78,3.78,0,0,1,2.49-.23,7,7,0,0,1,1.81,1.58h1.13s.9,2.49,2.26,2.94a2.82,2.82,0,0,1,1.52,1.52c1,0,1.72-.34,1.72-1,0-.86.43-2,1.87-.72s1.44.14,1.73-.29,1.3.15,2.16.15a5.64,5.64,0,0,0,2-.58s12,.14,12.55-.15.43-2.73.43-2.73l-1-1-3-28.41h5.42c-5.78-3.82-10.74-7.07-11.37-7.43a1.63,1.63,0,0,1-.63-.57,25,25,0,0,1-.07,4.63c-.31.2-10.8,0-10.8,0v8.59c0,.73-3.35,1.67-3.35,2.41v5H197c-.18,2.07,1.08,2.81,1.8,3.63,1,1.14-.76,3.14.71,5.18s-.33,5.18-1,6.32a7.61,7.61,0,0,0-.55,2.8l.17,0C199,270,198.81,268.43,199.93,268.66Z"/><path class="cls-2" d="M263,260.52s0-2.49-1.58-3.39A10.65,10.65,0,0,0,257.8,256a17.33,17.33,0,0,0-2-2.94c-.55-.54-11.13-7.62-19.83-13.37h-5.42l3,28.41,1,1s.14,2.45-.43,2.73-12.55.15-12.55.15a5.64,5.64,0,0,1-2,.58c-.86,0-1.87-.58-2.16-.15s-.29,1.59-1.73.29-1.87-.14-1.87.72c0,.7-.75,1-1.72,1a4.7,4.7,0,0,1,.29.74l.59.88s-.1,1.42.48,2a8.06,8.06,0,0,1,1.71,2.09,24,24,0,0,1,0,2.57s.37,1.62.95.86,1.42.66,1.8-.29,1.62.19,2.19.19,1.9-1.71,2.28-1.61a4,4,0,0,1,1.24,2.37c0,.67,1.71,1.33,1.14,1.52s-.67,1.14,0,1.14.38,1.24.76,1.81,1.14,1,1.52.19,1.23-.09,1.61.48,1.62-.1,1.81-.86,1.71-1.05,1.62-.19.19,1,1.14.38a1.25,1.25,0,0,1,.91-.19,21.13,21.13,0,0,1,.89-2.47c.29-.57-.66-1.9-.19-2.09s2.09.19,2.57-1.14a7,7,0,0,1,1.05-2s.19-2.85,1-2.38,1.9,1.24,2,.1,1.14-.48,1.42-1.52.86-1,1.53-.76,1.23-.1,1.23-.67,1.52-.28,2.76-1.14,1.9-1.52,2.37-1.05,3.62.38,4.09.2,1.43-1.05,2.57-.86,3.9-.48,5-.48,1.61-1,2-1.42.67-2.09,1-2.38.24-6.2.21-8.55C264.59,260.16,263,260.52,263,260.52Z"/><path class="cls-2" d="M260.39,283.56a2.36,2.36,0,0,0-1.3-.58c-.29,0-.07-1.57-.21-1.78s-1.07.42-1.65.21-.78-1.14-1.28-1.14-.57-.57-.57-1.21-.92-1.29-1.5-1.71-.71-1.64-1.07-1.86c-.2-.12-.12-1,0-1.72a4,4,0,0,1-2-.35c-.47-.47-1.14.2-2.37,1.05s-2.76.57-2.76,1.14-.57.86-1.23.67-1.24-.29-1.53.76-1.33.38-1.42,1.52-1.14.38-2-.1-1,2.38-1,2.38a7,7,0,0,0-1.05,2c-.48,1.33-2.09,1-2.57,1.14s.48,1.52.19,2.09a21.13,21.13,0,0,0-.89,2.47,2.65,2.65,0,0,1,1.56,1c.29.47,2,2.28,2.85,1.33s3.23-1.05,3.8-.48,1,.29,1-.28-.95-2.67-.57-3.24,7.79-.28,8.08.19.28-.95,1.24-.85,2.37.57,2.94.38,1.24-1.24,1.81-1.24,2.28-.09,2.66-.57,1-.47.86-1.23C260.39,283.59,260.39,283.58,260.39,283.56Z"/><path class="cls-2" d="M300.32,250.61c0-.47-.1-2.57-.18-4.13l-2.56,1.38a7.16,7.16,0,0,0-2-2c-1.35-.9-4.75-.9-4.75-.9L277,253.51l-5.87,4.75s-3.85,1.35-5,1.58l-.43.09c0,2.35.1,8.32-.21,8.55s-.67,2-1,2.38-.85,1.42-2,1.42-3.9.67-5,.48-2.09.66-2.57.86a9.32,9.32,0,0,1-2.09.15c-.1.72-.18,1.6,0,1.72.36.22.5,1.43,1.07,1.86s1.5,1.06,1.5,1.71.07,1.21.57,1.21.71.93,1.28,1.14,1.5-.43,1.65-.21-.08,1.78.21,1.78a2.36,2.36,0,0,1,1.3.58c-.17-.75.21-1.76,1.15-1.48s.19,1.14,1,1.52,1.33.09,1.33-.57,1.15-2,1.43-2.28.19-2.1.76-2.57,2.28-.1,2.95,0,1.14-1.33,1.9-.67,2,.1,2.57.76.85,2.28,1.8,1.71a5.72,5.72,0,0,1,2.66-.76c.57,0,1.91,1.14,2.48,1.33a5.74,5.74,0,0,0,3.13,0c.67-.38,1.52-1.61,2.38-1.52s3.52-.19,4.09.1,1.8.95,2.66.66,1.61-1.9,2.28-2.09a.8.8,0,0,1,.46,0c0-.37,0-.72,0-1,0-1.71.38-1.05.66-2.76s4.75-6.18,5.14-6.47.37-7,.37-8a13.19,13.19,0,0,1,.57-3.42c.38-1.33-.66-1.24-.57-2.47S300.32,251.37,300.32,250.61Z"/><path class="cls-2" d="M327.55,258.12,303,244.92l-2.87,1.56c.08,1.56.18,3.66.18,4.13,0,.76,1.43,1.71,1.33,2.95s1,1.14.57,2.47a13.19,13.19,0,0,0-.57,3.42c0,.95,0,7.7-.37,8s-4.85,4.76-5.14,6.47-.66,1.05-.66,2.76c0,.31,0,.66,0,1,.24.09.35.35.68.68.48.47.48,1.33,1.43,1.33s2.09,2.19,2,3,.48,1.33.38,2.85a6.36,6.36,0,0,0,1.34,4c.47.28-.2.57-1.34.47s-2.75-.09-2.75.38a2,2,0,0,0,.76,2.29c1.23,1.14,2.28,1.51,2.66,2.75a6.67,6.67,0,0,0,1.24,2.66c.37.29,1.14.19,1.8-.76s1.43.86,2.09,0,2.95-.76,3.52-1a20.86,20.86,0,0,0,2.85-1.53c.57-.47-.66-1.23.19-1.71s3.52.38,4.57-1a36,36,0,0,1,3.13-3.23c.48-.47,0-.85.67-1.52s2-1.43,2.66-1a1.19,1.19,0,0,0,.56.13l-.11-.12.4-1.39s-1.59-.79-1.59-2,.4-2.38-.59-2.38-1.19-1-.4-1.79-1.19-2.38.2-2.38.4-2.18,1.39-2.38,1.19-1,1.19-2,2.18-1.59,2.77-1.78.4-3.37.4-3.37Z"/><path class="cls-2" d="M362.41,223l-2.31-5.66a3.71,3.71,0,0,1-.36.5c-.38.38-1.95-.57-3.42-.19s-2.62-.14-4-.85-6.09.18-6.71,1.09-2.18.9-3.61.33a19.29,19.29,0,0,0-5.89-1.66c-2.44-.22-4.41-.57-4.85-1.16-.11.27-.2.54-.3.8-.79,2.18.6,2.78-.39,4s0,2.58,0,4.76v24.77h19.61l1.14-.76c.57-.38,1.52.57,1.52.57H357a2.59,2.59,0,0,0,1.71.95c.95,0,.38-1.52,1.91-1.52s1.14-2.29,2.09-2.29.76.2,1.71-1.13l.1-.14a4,4,0,0,1,0-1.29c.24-1.52-.81-1.43-1.47-3.56s-3.33-5.33-3.42-6.57-1.57-1.94-1.52-3.27-.72-1.48-2.19-3.57-1.9-5.75-1.47-5.89,1.66,3.09,2.13,4.13,2.1,4.23,3.24,4.23,1.57-4.8,1.95-4.56a.34.34,0,0,1,.08.14l.12-.87Z"/><path class="cls-2" d="M289.35,334.13c1.59,0,1-1,.4-2.59s1-1.39,2-1.39.59-1.79,1.39-1.79,1,2.19,1.79,2,1.39.6,2.38.4,1-2.19,1-3.78.2-2.78-.79-3.38-1.79-2-.6-2.58a1.45,1.45,0,0,0,.4-2.58c-1-.8-3.18.79-3.18,0,0-.44.18-2,.34-3.32-2.3-.07-4.78-.2-4.78-.2l-.59.17a21.58,21.58,0,0,1-.14,4.14s-3.57.2-4.37.2c-.17,0-.72.08-1.49.2a4.36,4.36,0,0,1-.54.67c-.43.43,1,1,1.23,1.62s-1.8.43-1.76,1.33a2.62,2.62,0,0,1-1.28,2c-.57.43,1.52,2.24,1.57,2.85s.52,1.19,2.33,2.95.9,2.11,3.18,4A1.78,1.78,0,0,1,289.35,334.13Z"/><path class="cls-2" d="M289,319.22a21.58,21.58,0,0,0,.14-4.14l-.8.22h-4.45a.42.42,0,0,0,0,.1,1.37,1.37,0,0,1-.76,2.09c-1,.33-.95,1.23-.15,1.28.5,0,.38.44.12.85.77-.12,1.32-.2,1.49-.2C285.38,319.42,289,319.22,289,319.22Z"/><path class="cls-2" d="M293.92,337.11c.6.2,1,1.19,2.19.2s2.58-.8,2.58.2.4.79,1.39-.2,2,.2,2-1.79,1.19-.2,1.19-2.39.2-4.37.2-5.36,2.78-2,2.78-3.58,2.39-4.77,2.39-6.76a4.89,4.89,0,0,1,1.19-3.38,5.17,5.17,0,0,0,.48-3.33v0l-2.78-.39-1.38.39-1.79.4a3.45,3.45,0,0,1-.59,2.38,7.54,7.54,0,0,0-1,3.17s-3.57-1.78-4.56-1.58a31.32,31.32,0,0,1-3.75,0c-.16,1.33-.34,2.88-.34,3.32,0,.79,2.19-.8,3.18,0a1.45,1.45,0,0,1-.4,2.58c-1.19.59-.4,2,.6,2.58s.79,1.79.79,3.38,0,3.58-1,3.78-1.59-.6-2.38-.4-1-2-1.79-2-.4,1.79-1.39,1.79-2.59-.2-2,1.39,1.19,2.59-.4,2.59a1.78,1.78,0,0,0-1.53.91,3.37,3.37,0,0,0,.34.27,9.31,9.31,0,0,1,2.75,3.4C292.23,337.8,293.59,337,293.92,337.11Z"/><path class="cls-2" d="M362.69,246.61c-.95,0-.58,2.29-2.09,2.29s-1,1.52-1.91,1.52a2.59,2.59,0,0,1-1.71-.95H352.8s-.95-.95-1.52-.57l-1.14.76H330.53v6.76h-3v10.51s.2,3.17-.4,3.37-2.77.79-2.77,1.78-.2,1.79-1.19,2,0,2.38-1.39,2.38.6,1.59-.2,2.38-.59,1.79.4,1.79.59,1.19.59,2.38,1.59,2,1.59,2l-.4,1.39a25.85,25.85,0,0,1,2.38,3.17c.2.59,1.39,2.18.2,2.78s-.4,1.19-.4,1.19l1.39.19.4,1a3.67,3.67,0,0,1,2.58,1.18c1,1.19,1.39,1.39,1.39,2s.79.79,2,1.78,1.19,1.59,1.19,2.18,2.18,1.59,2.18,1.59l.74,1.85a1.66,1.66,0,0,1,.83.84,3.71,3.71,0,0,0,1.39,1.59s1.2.8,2,0,1.79.2,1.79.2,1-.79,1.59-.4c.41.27,2.18,1.73,3.72,3.14a14,14,0,0,1,2.37-.7c.71-.07,1.71,1.14,2,.71a2.78,2.78,0,0,1,2.35-.78c.57.28,1.93.35,2-.14s.65-.68,1.08-1.05a1.12,1.12,0,0,0,.41-.52c.15-.57,1.86-1.57,2.57-1.71s1.57-.22,1.93.21a2.11,2.11,0,0,0,.8.49c.24-1.83.64-2.83.05-2.83a3.73,3.73,0,0,1-3-2.38c-.6-1.59-2.39-2.58-2.78-3.58s-2.59-.79-3-1.59.59-.79.59-1.79,2.39-.4,2.59-.6a13.91,13.91,0,0,0,.39-3.57c0-1.19,1.59-2.39,1-3s.59-.8,1.39-1.39.2-2.39,1-3.19,1.39-2.38,2-2.38a1.71,1.71,0,0,0,1.39-1.59c0-.79,1.39-2.38,1.2-3.78s-.8-3.18.19-4.37a3.82,3.82,0,0,0,1.2-3.18c-.2-1,1.19-1.19,1.79-1.79a10.49,10.49,0,0,0,3.07-2.86,7.31,7.31,0,0,0-2-1.84c-1.14-.52-1.9-2.52-1.9-5a27.57,27.57,0,0,0-.72-5.32,6,6,0,0,0-2.8-3.33,3.39,3.39,0,0,1-1.8-2.42l-.1.14C363.45,246.81,363.64,246.61,362.69,246.61Z"/><path class="cls-2" d="M386,281.69a19.52,19.52,0,0,1-1.56,2.24c-.7.8-.3,2.3-.1,2.7s1.2.3,1.81-.1c.46-.31.81-.13,1.51.53a12.45,12.45,0,0,1,1.33-1.59c-.79-.46-1.53-.54-1.72-.73s.95-1.28,1.85-1.48.48-1.23-.28-1.9l-.43-.39a4.18,4.18,0,0,0-.87.61C387.34,281.9,386.82,281.78,386,281.69Z"/><path class="cls-2" d="M370.65,266.15c-.6.6-2,.8-1.79,1.79a3.82,3.82,0,0,1-1.2,3.18c-1,1.19-.4,3-.2,4.35a5.88,5.88,0,0,1,2.69.14c.5.5.7,0,1-1s.9-.9,1.51-.4,1,1.3,2,.8.9-.2,1.4,0,2.51-.1,3.21,0,6.82,6.61,6.82,6.61l0,.07c.78.09,1.3.21,1.54-.11a4.18,4.18,0,0,1,.87-.61,35.36,35.36,0,0,1-3.42-3.84c-1.81-2.28-3.95-3.51-5.09-3.51s-1.33-1.95-2-2.05-2.33-2.9-2.38-4.71a7.23,7.23,0,0,0-1.8-3.57A10.49,10.49,0,0,1,370.65,266.15Z"/><path class="cls-2" d="M358.92,298.35c.39,1,2.18,2,2.78,3.58a3.73,3.73,0,0,0,3,2.38c.59,0,.19,1-.05,2.83a10.12,10.12,0,0,1,1.05.44c.5.28,2.57,0,3.28.64s3,2.14,3.71,2.14a14.21,14.21,0,0,1,3.71.64c.42.29,1-1.07,2.13-1.71s2.57-1.07,2.79-.57a1.26,1.26,0,0,0,1.56.64,9.53,9.53,0,0,1,1.61-.45,13.32,13.32,0,0,1,2.6-.41c.57.07,2.14-2.21,4.21-2.21s2.63.36,3.56-.64,7.92-8.06,8.56-8.56-.43-.71-1.14-.71a11.29,11.29,0,0,1-4.42-1c-2.29-.92-5.85-2.13-6.49-2.28s-1.57-1.64-2.14-1.92a9.73,9.73,0,0,1-2-2.93c-.1-.22.13-.68.49-1.19-.7-.66-1.05-.84-1.51-.53-.61.4-1.61.5-1.81.1s-.6-1.9.1-2.7a20.85,20.85,0,0,0,1.61-2.31s-6.12-6.51-6.82-6.61-2.71.2-3.21,0-.4-.5-1.4,0-1.4-.3-2-.8-1.21-.61-1.51.4-.5,1.5-1,1a5.88,5.88,0,0,0-2.69-.14v0c.19,1.4-1.2,3-1.2,3.78a1.71,1.71,0,0,1-1.39,1.59c-.6,0-1.19,1.59-2,2.38s-.19,2.59-1,3.19-2,.79-1.39,1.39-1,1.79-1,3a13.91,13.91,0,0,1-.39,3.57c-.2.2-2.59-.39-2.59.6s-1,1-.59,1.79S358.52,297.36,358.92,298.35Z"/><path class="cls-2" d="M367.13,207.34c.6-.53,1-2.61-1.56-2.5a2.86,2.86,0,0,0,0,.42c0,1-1.54,3-2.39,4.82l1.52.64A17.39,17.39,0,0,1,367.13,207.34Z"/><path class="cls-2" d="M367.13,207.34a17.39,17.39,0,0,0-2.46,3.38l.16.07.26,1.15,2.92,1.52a12.48,12.48,0,0,1,3-1.65c.89-.13,11.05-5.59,11.05-5.59s.89-1.39.76-1.9a3.58,3.58,0,0,1,.25-2.54c.51-.63-.63-1.65-.25-2.67s2-1.52,2-1.52l1.9-1.39-1.27-.38a9.28,9.28,0,0,1-3.55.5c-1.9-.12-2.28,1.27-4.32,1.27s-3.17.51-3.68-.12-.63-.26-2,.38-2.28.51-2.92,0-1.14.12-1.27.76.07,2-1.9,2.23c-.13.59-.37,1.19,0,1.62.51.63-.1,1.37-.25,2.38C368.09,204.73,367.73,206.81,367.13,207.34Z"/><path class="cls-2" d="M363.53,212.93c-.48.2-.67,2-.67,2.33a4.11,4.11,0,0,0,1.19,2c.18-1.41.22-3.26.35-3.77,0-.13.07-.35.11-.62A3.46,3.46,0,0,0,363.53,212.93Z"/><path class="cls-2" d="M362.27,223.34l.34.18a18.33,18.33,0,0,1,1-4.66,4.25,4.25,0,0,0,.41-1.56,4.11,4.11,0,0,1-1.19-2c0-.29.19-2.13.67-2.33a3.46,3.46,0,0,1,1,0c.09-.58.18-1.4.27-2.14l-1.63-.69a5.85,5.85,0,0,0-.51,1.51,20.07,20.07,0,0,1-2.54,5.72l2.31,5.66Z"/><path class="cls-2" d="M375.17,209.87a34.71,34.71,0,0,1-4.12,1.94,12.48,12.48,0,0,0-3,1.65l-2.92-1.52-.26-1.15-.05,0c-.13,1.1-.28,2.36-.38,2.76-.19.76-.19,4.57-.76,5.33a18.33,18.33,0,0,0-1,4.66,11.54,11.54,0,0,0,2.86,1.24,2.67,2.67,0,0,0,2.54-1.91c0-.76,1-.89,2-.89s1.14-1.14,1.9-1.52-1.65-2.54-2.41-2.79.63-1.9,3.17-2,1.91-1,3.3-1h.18c-.25-1.11-.55-2.45-.75-3.16A8.84,8.84,0,0,1,375.17,209.87Z"/><path class="cls-2" d="M387.41,179.12c1-.47,1.42.67,2.28,1.81l.14.21c1.17-.18,2.06-.52,3.25-.66a9.25,9.25,0,0,1,2.85.29c-.15-.27-.25-.52-.16-.7.28-.57,1.71.19,2.19.66a2.34,2.34,0,0,0,2.47.2c.47-.48-.76-1-1.05-1.43-.14-.24.24-.73.65-1.17-.83-.46-1.68-1.12-2-1s-.43-2-1-2-.57-.43-1.14-.43-2.71,0-3.28.43-1.28-1-2-1a3.09,3.09,0,0,1-2-1.29c-.43-.57-4,.29-5-.42a6.59,6.59,0,0,0-3.85-1.14,3.86,3.86,0,0,0-1.21.56c1.88,1.09,4.6.8,5,2.77.43,2.28,1.72,1.37,1.24,3.32a2.41,2.41,0,0,1-.74,1.1A10.06,10.06,0,0,0,387.41,179.12Z"/><path class="cls-2" d="M392.89,193.65c-.51-.12.25-2.91,0-3.42s-.89-2.67-.13-2.67-.07-1.56.84-1.65a3.23,3.23,0,0,0-.59-1.18c-.47-.38-1.9.38-2.47-1s0-1.61-.85-2.75-1.24-2.28-2.28-1.81a10.06,10.06,0,0,1-3.36.1c-1.55,1.41-4.93,2.37-6,2-1.29-.47-3.76.14-5.61.14s-2.38-1.33-3.81-1.23-1.42-1.29-2.85-1.29-.33-.71-4.8-1.28a13.34,13.34,0,0,0-9.74,3c-1.43,1.24-6.56.05-7,.39s.1,1.8-1.61,2.47-5.47,0-6.75.57-1.76,2.47-.67,2.38,1.66.42,1.33.9.9,1.8.29,2.38a1.46,1.46,0,0,0,.09,2.23c.77.57.91,1.62,0,1.76s1.57,1.19,1.62,1.66,2.09.71,2.09,1.28.62.77,1.62.48,1.38,1.09,2,2,4.14.29,4.14-.76,1-1.33,2.61-1.19,3.62,2.29,4.38,2.57,2.32-.57,3.32-.57,2.43-1.57,3-1.9,1.57,1.09,2.47.62,1.9-1,2.47-.67-1.38,1.81-.85,2.57a1.36,1.36,0,0,1,.07,1.09c2-.27,1.78-1.64,1.9-2.23s.64-1.27,1.27-.76,1.53.63,2.92,0,1.53-1,2-.38,1.65.12,3.68.12,2.42-1.39,4.32-1.27a9.28,9.28,0,0,0,3.55-.5l1.21.36c.5-.46.46-1,1.43-1.09,1.53-.19,2.1.95,2.86.57s3.17,2.21,3.39.54A4.46,4.46,0,0,0,392.89,193.65ZM339.35,181.4c1.14-.43,3.7.14,4.32-.43s-1.62-1.28-2.42-1.95a3.18,3.18,0,0,1-.79-1.66,1.32,1.32,0,0,1-1.3.24,6.32,6.32,0,0,0-3.28,0c-.36.14.28,1.35.28,2.14s-.92,1-.92,1.49-.34.65-.76,1.11a3.53,3.53,0,0,0,1.87.92C337.69,183.26,338.21,181.83,339.35,181.4Z"/><path class="cls-2" d="M298,128.76a5.42,5.42,0,0,1-.07,3.35c-.5.78-.29,1,.21,1.28a1.84,1.84,0,0,1,.71,1.57c0,.57.36.5.43,1.71a4.36,4.36,0,0,0,.79,2.57,1.45,1.45,0,0,1,.09,1.44,8,8,0,0,0,1.86,1.08c1.49.53,2,1,2.12,1.49s1.39,1.48,1.71.74,1.16-.32,1.8-.32.75.74.85,1.17,1.59.21,2.13.53.74,1.49,1.48,1.91,1.38-.53,1.91-.21a4,4,0,0,0,2.76.32c.85-.32,1.38.31,2.45.21a4.5,4.5,0,0,1,2.75.64,6.3,6.3,0,0,0,1.89.45c.21-.43-.2-1.78-.13-2.11a39.84,39.84,0,0,1,3-3.06c.43-.5,1.07-.5,1.42-1.14s-1-2.71-1.28-3.14a5.32,5.32,0,0,1-.21-2.85c.21-.72-1.07-1.14-1.07-1.64s1.21-1.36,1.85-1.64.43-2.29-.14-2.78a2.2,2.2,0,0,1-.5-2.43c.36-1-2.14-1.78-2.49-1.78-.06,0-.1-.06-.12-.15a34.87,34.87,0,0,1-8.36-.35l-1.63-.59a2,2,0,0,1-1.76.9c-1.37,0-1.47-1.38-1.51-2s-5.57.53-7,2-4.9.9-5,1.71c-.07.59-.58.89-.92.73A.72.72,0,0,0,298,128.76Z"/><path class="cls-2" d="M310.54,174.63c-.12-.64,1.92-3.58,2.43-3.58s.58-2.82.41-4.29a11.24,11.24,0,0,0-2.91-1.47,39.21,39.21,0,0,1-5-.49c-.71-.29-1.42.92-2.06.42a.9.9,0,0,0-1.42.85c.14.71,1.49,1.14,1.49,2.2s2.7,2.63,2.62,3.2c0,.4,1.62,1.48,2.62,2.94a17.84,17.84,0,0,1,1.65,1.22A3,3,0,0,0,310.54,174.63Z"/><path class="cls-2" d="M306.14,171.47c.08-.57-2.62-2.13-2.62-3.2s-1.35-1.49-1.49-2.2a.9.9,0,0,1,1.42-.85c.64.5,1.35-.71,2.06-.42a39.21,39.21,0,0,0,5,.49,11.24,11.24,0,0,1,2.91,1.47,3.17,3.17,0,0,0-.15-.69c-.39-.9,0-1.92-1-2.3-.52-.2-.74-1.11-.83-2l-1.11.33c-.85.21-2.66.1-3.3-.75a12,12,0,0,0-2.67-2,6.61,6.61,0,0,1-1.92,1.29c-.57.07-.22,1.57-.79,1.57s-1,1-1.14,1.42-1.42-.28-2-.07a16.66,16.66,0,0,1-2.27.44c.1.65.06,1.37.58,1.37.86,0,2.42-.09,2.47,1s2.09,3.66,2.85,4.51,2.47.67,2.57,1.38,1.33,1.38,2.76,1.47a3.25,3.25,0,0,1,1.35.57C307.76,173,306.1,171.87,306.14,171.47Z"/><path class="cls-2" d="M316.7,185.15c.71-.14.28-.71.78-1.21a5.36,5.36,0,0,0,1.14-1.85.16.16,0,0,1,.07-.09c-1-.73-1.64-1.25-1.86-2a7.37,7.37,0,0,1,.35-3.34,10.34,10.34,0,0,0-2.78-1.57c-.53,0-1.35,1.18-1.55,2.3,1.25.67,1.74,1.14.88,2s-1.09,3.94-.1,4.75,1.22,2.29,2.14,2.73C316,186.12,316.23,185.25,316.7,185.15Z"/><path class="cls-2" d="M303.14,150c-.85-.95-3-.95-3-.95a6.7,6.7,0,0,1-.53,1.48c-.27.45-1.81.44-2.8.18-.28.36-1.57.65-1.75,1.18s-1.78.29-1.28,2-.78,1.14-1.28.92a5.08,5.08,0,0,0-3.28.64,1.52,1.52,0,0,1-1.86.15,1.44,1.44,0,0,0-1.92.28c-.43.72-1.21-.57-1.85-.5s-.36,1.43-.36,1.72,1,1.14,1.64.85a2.3,2.3,0,0,1,2,.43c.57.36,1.64-.29,2-.64s2.36-.36,2.57-.36.28,1.14.64,1.36a10.74,10.74,0,0,0,2.92.42c1.22.07,3,.64,3.57.64s1.5-1,2.78-1,2-.79,2.21-.72h0c.09-.39.24-.71.52-.75.52-.08.15-1,.52-1.42s-.3-1.33.37-1.26,1.42.15,1.42-.82a1.18,1.18,0,0,1,.43-.85,11.65,11.65,0,0,1-1.27-2.68S304,151,303.14,150Z"/><path class="cls-2" d="M323.76,152.71a2.28,2.28,0,0,1-.76-.46,5.36,5.36,0,0,1-2-.72c-.53-.53-2.65-.85-3-1s-2.34,1.91-3,1.91-3.4.32-3.4,1.07-3.39.85-4.35,0a3.72,3.72,0,0,1-.43-.51,1.18,1.18,0,0,0-.43.85c0,1-.75.89-1.42.82s0,.82-.37,1.26,0,1.34-.52,1.42c-.28,0-.43.36-.52.75a5.35,5.35,0,0,1,.77,1.2l-.07.07a12,12,0,0,1,2.67,2c.64.85,2.45,1,3.3.75s4.46-1.38,4.46-1.38a10.92,10.92,0,0,0,1.38.42l.9.15a12.79,12.79,0,0,0,1.91-1.35c1-1,2.49-4.57,2.92-4.85s1.57-.93,2.14-1.36S324.4,152.93,323.76,152.71Z"/><path class="cls-2" d="M310.58,145.37c-.54-.32-2-.11-2.13-.53s-.21-1.17-.85-1.17-1.49-.42-1.8.32-1.6-.21-1.71-.74-.63-1-2.12-1.49a8,8,0,0,1-1.86-1.08,1.35,1.35,0,0,1-.17.34c-.28.43-1.28-.36-1.71.07s-1.85.5-2.64,1.21a8.35,8.35,0,0,1-3.35,1.29c-.92.21-.14,1.07.22,1.71s.35,2.21,1.07,2.71a23.14,23.14,0,0,1,3.35,2.49.21.21,0,0,1,0,.25c1,.26,2.53.27,2.8-.18a6.7,6.7,0,0,0,.53-1.48s2.12,0,3,.95,2.44.32,2.44.32.09.27.24.65c.22-.53.52-1,.89-1a4,4,0,0,0,3.07-1.53,5.56,5.56,0,0,1,1.86-1.54C311.21,146.38,311,145.62,310.58,145.37Z"/><path class="cls-2" d="M319.18,147.6c-1.07.1-1.6-.53-2.45-.21a4,4,0,0,1-2.76-.32c-.53-.32-1.16.63-1.91.21a1.51,1.51,0,0,1-.42-.38,5.56,5.56,0,0,0-1.86,1.54,4,4,0,0,1-3.07,1.53c-.37.05-.67.51-.89,1a7.35,7.35,0,0,0,1.46,2.54c1,.85,4.35.74,4.35,0s2.77-1.07,3.4-1.07,2.66-2,3-1.91,2.44.43,3,1a5.36,5.36,0,0,0,2,.72,1.73,1.73,0,0,1-.67-1.11,5.72,5.72,0,0,1,1.43-2.35s0-.06.06-.1a6.3,6.3,0,0,1-1.89-.45A4.5,4.5,0,0,0,319.18,147.6Z"/><path class="cls-2" d="M229.17,193.19c1.27-.23-.35-1.27-.7-1.62s.12-1.74.81-1.74,0-.8-.93-1.73,0-1.27.82-1.27-.24-1.39.57-2.2-.23-2.31-.23-3,1.16-.92,2.08-1.85-.81-.58-.81-1.27-1.15-.93-2-.35-.58,0-1.27,0-2,.23-2-.46-.58-.81-1.16-.12a1.25,1.25,0,0,1-.85.37,4.29,4.29,0,0,0,.08,2.18c.62,1-.76,6.27-2,7.7s0,1.81,1.23,2.8.43,4.61.43,5.47,1.14.62,2.47.62a16.2,16.2,0,0,0,2.57-.51,2.45,2.45,0,0,1-.47-1C227.89,194.46,227.89,193.42,229.17,193.19Z"/><path class="cls-2" d="M266.52,139.06a1.59,1.59,0,0,1,2.17.3c.59.58,1.46.72,2.33,1.59a6.5,6.5,0,0,0,.7.61,11.19,11.19,0,0,1,.37-2.46c.28-.67-.29-1.52.19-1.52s1.81,0,1.81-.86.38-.57.66-1.05-.85-1.42-1-1.71.85-.38,1.61-1.52a3.12,3.12,0,0,0-.09-2.18c-.13.34-.38.59-.81.33-.71-.43-1.81-.19-3.23.09s-1.86,1.67-1.34,2.24-1.37.85-1.51.09-1.57-.23-1.48.76-1.57,1.38-1.47,2.62-1.52,2.37-2.57,3l-.5.3a3.84,3.84,0,0,0,1.14.4A5.44,5.44,0,0,0,266.52,139.06Z"/><path class="cls-2" d="M271.92,144.59c-.63.36-1.21,1.12-1.12,2.73a7.76,7.76,0,0,1,2.12.24,4.72,4.72,0,0,0-1-2.66A.34.34,0,0,1,271.92,144.59Z"/><path class="cls-2" d="M260.59,141c.07.5.85,1.71,1.14,1.21s1,.65,1.64,1,1.92.79,2,1.21.29,1.36.93,1.07,1.43-1.28,1.43-.71.21,1.64.92,1.5.93,1.21,1.64,1.07a3.26,3.26,0,0,1,.52-.05c-.09-1.61.49-2.37,1.12-2.73.15-.28.58-.58.64-.93s-.94-1.43-.85-2c0,0,0-.07,0-.1a6.5,6.5,0,0,1-.7-.61c-.87-.87-1.74-1-2.33-1.59a1.59,1.59,0,0,0-2.17-.3,5.44,5.44,0,0,1-3.06,1,3.84,3.84,0,0,1-1.14-.4,7.75,7.75,0,0,1-2.15.92C260.32,140.79,260.54,140.69,260.59,141Z"/><path class="cls-2" d="M342.91,164.48c-.66-.1-1.52-.38-1.23-.76a.59.59,0,0,1,.08-.11c-.89-.72-1.12-3.05-.55-3.62.72-.73-1.17-3.49-2-4.51a29.85,29.85,0,0,1-2.12-3.62,3.89,3.89,0,0,0-1.55.74,2.65,2.65,0,0,1-1.81,1c-.57,0-1.14-.29-1.61.19s-1.14.66-1.43.38a3.45,3.45,0,0,0-1.9-.57c-.67,0-2.76-.57-3.23-.57a11.83,11.83,0,0,0-1.24.1c.11.21,0,.46-.31.7-.57.43-1.71,1.07-2.14,1.36s-1.92,3.85-2.92,4.85-1.93,1.14-2,1.49,1.14,1.29,1.14,1.86a1,1,0,0,0,1.07,1.14c.79,0-.07,1.85.43,2s3.56.35,3.56,1.07c0,.55.34,1,.19,1.4.87.15,1.5,1.32,1.84,1.23s2.94.48,3.42.38a21.45,21.45,0,0,1,3.42.1,2.91,2.91,0,0,0,2.28-.95c.67-.67,3.05-.76,3.81-.67s2.28.29,2.56.76a5.5,5.5,0,0,0,1.95.93,11.88,11.88,0,0,0,0-1.69c.05-1,.62-2.52,1.61-2.61s1.81-.1,1.67-1.76a.71.71,0,0,0,0-.15,3.76,3.76,0,0,0-1.13-.8C344.34,163.72,343.2,164.52,342.91,164.48Z"/><path class="cls-2" d="M344.24,154.4a2.52,2.52,0,0,0-2.28-1.71c-.66,0-1.8-1.52-2.56-1.42a16.46,16.46,0,0,0-2.35.59,29.85,29.85,0,0,0,2.12,3.62c.87,1,2.76,3.78,2,4.51-.57.57-.34,2.9.55,3.62.42-.54,1.82-2.3,1.82-2.84s.09-1.71,1.23-1.43,2.19.77,2.19.39a4.09,4.09,0,0,0-.76-2.1A10.11,10.11,0,0,1,344.24,154.4Z"/><path class="cls-2" d="M338.07,169c-.76-.09-3.14,0-3.81.67a2.91,2.91,0,0,1-2.28.95,21.45,21.45,0,0,0-3.42-.1c-.48.1-3-.47-3.42-.38s-1-1.08-1.84-1.23a.61.61,0,0,1-.26.31,1.45,1.45,0,0,0,0,2.21c.72.64,1.64,2.06,1,2.06a1.29,1.29,0,0,0-1.07,1.29c.07.43-.21,1.35,0,1.57a9.9,9.9,0,0,1,1.78,2.06c.07.38.68.57.63.9,1.2-.09,3.74-.23,4.32.06a15.43,15.43,0,0,0,3.42.56c.76,0,1.43-.28,1.24-.75s.83-.67,1.54-.74c-.12-.44-.21-.81,0-.88a6.32,6.32,0,0,1,3.28,0,1.32,1.32,0,0,0,1.3-.24c-.12-.4-.23-.72-.45-.76-.52-.09-1.33-2.28-.66-2.43s1.52-2.42,2.56-2.75a.88.88,0,0,0,.67-.69,5.5,5.5,0,0,1-1.95-.93C340.35,169.33,338.82,169.14,338.07,169Z"/><path class="cls-2" d="M318.69,182h0a.33.33,0,0,1,.12-.05h0l.18,0h0c.28,0,.65,0,1,0h.08l.25,0h.1a1.65,1.65,0,0,0,.32-.06c.86-.21,1.07-1.14,1.5-.92s2.71-.95,3-1.38a.24.24,0,0,0,.06-.15c.05-.33-.56-.52-.63-.9a9.9,9.9,0,0,0-1.78-2.06.44.44,0,0,1-.07-.22v0a2.13,2.13,0,0,1,0-.35c-2.23.32-5.54,1-5.54,1l-.19-.13a7.37,7.37,0,0,0-.35,3.34C317.05,180.75,317.72,181.27,318.69,182Z"/><path class="cls-2" d="M373.31,155.42c.5-.07,2-1.71,2.5-1.71s2.63.43,2.63.07.72-1.56.57-1.92-.85-.86-.71-1.21,1.14-.36,1.14-.79-.78-.64-.78-.92,1-.79.92-1.36-.92-.64-1.85-1.14-1.85-.29-2.71-.71-2.64-.15-2.64-.43-1.14-1.21-1.42-1.71-1.22-.22-1.79.14a1.39,1.39,0,0,1-1.64.14c-.57-.35-1.06-.92-1.56-.71s-1.43.07-1.22-.64-.92-2.28-1.42-2.5-2,.14-2.35-.57-1-1.28-.72-1.78a3.32,3.32,0,0,0-.43-2.42c-.35-.57-2.14-.5-2.63-.29s-1.64-.21-2.14.07-.79.79-1.5.79a.92.92,0,0,1-.88-.37,7.2,7.2,0,0,1-2.07.42s-1.9,1.52-1.9,2.09-.09,1.52-.57,1a4,4,0,0,0-2.94-.19c-.48.29-1.24-1.14-2.1-.66s-2-.67-2.09-.19-1.33.09-2.19-.29-2.37.19-2.94-.48-4.28-.66-5.52-.66-1.52.66-2.09,1.24a2,2,0,0,1-1.72.38,3.14,3.14,0,0,0,.27,1.09c.29.43,1.64,2.49,1.28,3.14s-1,.64-1.42,1.14a39.84,39.84,0,0,0-3,3.06c-.08.36.42,1.93.07,2.21a5.72,5.72,0,0,0-1.43,2.35c0,.58.78,1.36,1.43,1.57a.91.91,0,0,1,.52.37,11.83,11.83,0,0,1,1.24-.1c.47,0,2.56.57,3.23.57a3.45,3.45,0,0,1,1.9.57c.29.28,1,.09,1.43-.38s1-.19,1.61-.19a2.65,2.65,0,0,0,1.81-1c.28-.48,3.14-1.24,3.9-1.33s1.9,1.42,2.56,1.42a2.52,2.52,0,0,1,2.28,1.71,10.11,10.11,0,0,0,2,3.23,4.09,4.09,0,0,1,.76,2.1c0,.38-1.05-.1-2.19-.39s-1.23.86-1.23,1.43-1.62,2.57-1.9,2.95.57.66,1.23.76c.29,0,1.43-.76,1.81-.76a3.76,3.76,0,0,1,1.13.8c-.11-1.49.2-1.41,1.53-2.42s1.52-3,2.76-3.23,1.75-.81,3.56-.52-.9,1.42.33,2.09,5-.19,5.23.76-4.37,1.9-4.27,2.38,2.42.95,3.23,1.47-.24,2,.14,2.47,1.62.1,2.62-.62,1.8-.47,3.08-1.33,3.95-.09,4.28-.61-.76-1.05-3.23-.86a2.38,2.38,0,0,1-2.61-2.62c0-.47,2.56-2.42,4-2.56a11.71,11.71,0,0,0,4.08-1.24,13,13,0,0,1,2.62-.73C373.08,156.27,372.88,155.49,373.31,155.42Z"/><path class="cls-2" d="M353.85,128.33c-.58-.14-.93-1.43-1.86-1.78s-.71-1.5-1.5-2-.28-1.5-.35-2.28.14-2-.29-2.21-2.21-1.21-3-.86-1.36.64-1.71,0a1.34,1.34,0,0,0-1.64-.78,1.76,1.76,0,0,1-1.72-.5,1,1,0,0,1-.16-.23,2.4,2.4,0,0,0-1,.4c-.47.38-.57,1.14-1.23,1.14s-1.43-.29-2.19.28a1.79,1.79,0,0,0-.86,1.71c.1.48.19,1.24-.38,1.24s-.47.67-1,.86a3.18,3.18,0,0,0-1.62,1.52c-.09.47-.09,1.52-.48,1.52a3.65,3.65,0,0,0-2.09.66,1.52,1.52,0,0,1-1.61.76,17.18,17.18,0,0,0-2.36-.16.45.45,0,0,1,0,.28,2.2,2.2,0,0,0,.5,2.43c.57.49.78,2.49.14,2.78s-1.85,1.14-1.85,1.64,1.28.92,1.07,1.64a5.22,5.22,0,0,0-.06,1.76,2,2,0,0,0,1.72-.38c.57-.58.86-1.24,2.09-1.24s4.95,0,5.52.66,2.09.1,2.94.48,2.1.76,2.19.29,1.24.66,2.09.19,1.62.95,2.1.66a4,4,0,0,1,2.94.19c.48.48.57-.47.57-1s1.9-2.09,1.9-2.09a7.2,7.2,0,0,0,2.07-.42,4.11,4.11,0,0,1-.48-1.34c-.35-1.57-.92-2.5-.49-3s1.64.64,2.28.36,1.78-.86,1.64-1.5A3.09,3.09,0,0,0,353.85,128.33Z"/><path class="cls-2" d="M326,116.83c.87,0,2.9.44,4.07,0s1.16.88,1.89.73,2.17.87,3,1.6a12.62,12.62,0,0,0,1.62,1,2.36,2.36,0,0,1,.63-.7c.76-.57,1.52-.28,2.19-.28s.76-.76,1.23-1.14a2.4,2.4,0,0,1,1-.4c-.25-.53-.27-1.56-.69-2s-1.21-1.36-1-1.85a1.58,1.58,0,0,0-.36-1.79,2.29,2.29,0,0,1-.54-.82,14.68,14.68,0,0,0-3.07-.2c-.57.19-2.85-1.61-3.23-1.9a11.9,11.9,0,0,0-3.46,0c-.88,1-.25,1.69-.29,3.18s-1.72,1.24-2.62,1.24-2.38-2.71-2.85-3.33-2,.76-3.09,1.43-.52,2-1.28,2.56a2.24,2.24,0,0,0-.48,3s.05.11.08.17a5.56,5.56,0,0,0,2.55-.67C322.31,116.1,325.08,116.83,326,116.83Z"/><path class="cls-2" d="M320.55,122.06a2.15,2.15,0,0,0,1.92.71c.43-.21,1.79.5,1.79,1.07s-.36,2.28,0,2.28,2.37.64,2.51,1.5a17.18,17.18,0,0,1,2.36.16,1.52,1.52,0,0,0,1.61-.76,3.65,3.65,0,0,1,2.09-.66c.39,0,.39-1,.48-1.52a3.18,3.18,0,0,1,1.62-1.52c.57-.19.47-.86,1-.86s.48-.76.38-1.24a1.48,1.48,0,0,1,.23-1,12.62,12.62,0,0,1-1.62-1c-.88-.73-2.33-1.75-3-1.6s-.73-1.16-1.89-.73-3.2,0-4.07,0-3.64-.73-4.65,0a5.56,5.56,0,0,1-2.55.67,3.13,3.13,0,0,1-.32,3.49c-.52.58-.21.66.17.89C319.38,121.81,320.26,121.65,320.55,122.06Z"/><path class="cls-2" d="M284.9,158c-.64.29-1.64-.57-1.64-.85a4.68,4.68,0,0,1,0-1.36,13.14,13.14,0,0,0-1.85-.81,2.51,2.51,0,0,0-2.19.1,7.42,7.42,0,0,1-2.73.09c-.08.29-.2.48-.43.48a1.9,1.9,0,0,0-1.64,1.35c-.14.72-1.64,1.29-2.07,2.57s-.21,1.85.43,1.07,1.42-.5,1.42.14.86.71.57,1.57v0c1-.08,2.33-.19,2.74-.19.66,0,1.33-2.09,1.61-2.28s1.05,1.52,1.81,2.18.86-.57.86-1.14.66-.76,1.14-.66,1.52.28,1.52-.38.57-.38.95-.38.48-.76.48-.76l.62-.58A1.92,1.92,0,0,0,284.9,158Z"/><path class="cls-2" d="M275.32,132.44c-.76,1.14-1.8,1.24-1.61,1.52s1.33,1.24,1,1.71-.66.2-.66,1.05-1.34.86-1.81.86.09.85-.19,1.52a12.11,12.11,0,0,0-.38,2.56c-.09.57,1,1.53.85,2s-.85.86-.66,1.24a4.72,4.72,0,0,1,1,2.66,1.35,1.35,0,0,1,.71.38,2.54,2.54,0,0,0,2.07,1c.93,0,1.28.64,1.71.57s1.57.28.64,1.07a4.2,4.2,0,0,0-1.28,2.63c-.14.6-.13,1.44-.28,1.95a7.42,7.42,0,0,0,2.73-.09,2.51,2.51,0,0,1,2.19-.1,13.14,13.14,0,0,1,1.85.81.45.45,0,0,1,.36-.36c.64-.07,1.42,1.22,1.85.5a1.44,1.44,0,0,1,1.92-.28,1.52,1.52,0,0,0,1.86-.15,5.08,5.08,0,0,1,3.28-.64c.5.22,1.78.79,1.28-.92s1.07-1.36,1.28-2,2.07-.93,1.79-1.43a23.14,23.14,0,0,0-3.35-2.49c-.72-.5-.72-2.07-1.07-2.71s-1.14-1.5-.22-1.71a8.35,8.35,0,0,0,3.35-1.29c.79-.71,2.21-.78,2.64-1.21s1.43.36,1.71-.07a1.62,1.62,0,0,0,.08-1.78,4.36,4.36,0,0,1-.79-2.57c-.07-1.21-.43-1.14-.43-1.71a1.84,1.84,0,0,0-.71-1.57c-.5-.28-.71-.5-.21-1.28a5.42,5.42,0,0,0,.07-3.35.72.72,0,0,1,0-.39.51.51,0,0,1-.27-.4c-.14-.76-.66-1-1.9-1s.76-1.24.29-1.86-1.72,1.14-2.85.76-2.62,1.34-3.62,2.1-2.42-.15-1.66-1.24,0-1-1.14-.57-2.52-.09-2.38-1.14a1.1,1.1,0,0,0-.19-.74,3.45,3.45,0,0,1-1.19,0,12.55,12.55,0,0,0-2.93-.29c.38.55.78,1.09.56,1.52-.43.81.23,1.57.85,2.76s-1.33.52-1.38,1.28-1.8,0-2.37-.33-2.48-.1-2.43.38a1.62,1.62,0,0,1-.09.67A3.12,3.12,0,0,1,275.32,132.44Z"/><path class="cls-2" d="M347.28,91.09c.77-1.71,4.19-3,4.76-4.56.28-.77.38-1.14-.86-2.57s-4-2.38-4.08-3.14,2.09-.85,2-1.8-1.23-1-1.71-1.71.57-1.24.48-1.62-1.52-.57-1.62-1,.95-.38.76-1-1.14-1.61-.47-2.47,2.09,0,1-1.9-2.66-4.28-3-4.85.38-1.52,1-1.9,2-1.81,2-2.38-1.81-2.09-2.28-2.37-1.53-.19-2-1.15-.95-1.23-.48-1.8a2.36,2.36,0,0,0,.48-1.71c0-.57,1-.1,1.23-.95a2.61,2.61,0,0,1,.71-1.17,11.79,11.79,0,0,0,0-1.79c-.15-.92-2.75-1.23-3.36-2.3s-2.13-.61-2.59,0-3.21-.15-3.21.77-2,1.07-2,2.14.91,2.9-.62,2.75-.46.61-1.37,1.83-.92-.77-1.83-.46-2-.92-2.45-.15-2,.15-3.51-.16-2.29-2.44-3.51-2.59a2.29,2.29,0,0,0-2.14,1.57c1.19.76,2,1.85,3.51,2.55s4.73,1.68,4.58,2.75-.61,2.6.15,3.06-.15,2.44.77,2.9.61,2.75-.15,2.75.15,1.22.61,1.67a3.1,3.1,0,0,1,.45,1.59A15.78,15.78,0,0,1,331.08,71c1.28.57,1.09,1.48,1.14,2.47s.09,1.57-.57,1.14-1.38,0-1.76,1.43-2.19,3.14-3.28,3.23-1,1.24-1.9,1.48-1.76.76-1.71,1.76-1.33,1.09-2.24,1.09-.71,1.61-1.42,2-.58,1,.09,1.86.1,1.61.33,2.23,1.29,2,.57,3.61-1.47,3.52-.85,3.33,2,1.28,3,1.19,1,1.33,1.95,1,.9.86,3.52.77,7.89-2.29,10-2.29A12.14,12.14,0,0,0,340.8,97a13.73,13.73,0,0,1,1.54-2C343.67,93.75,346.53,92.8,347.28,91.09Z"/><path class="cls-2" d="M402.28,225.9s-4.95-.63-5.71-.63a6.47,6.47,0,0,1-3.81-1.27,92.72,92.72,0,0,0-7.74-5.72c-1-.5-5.21-3.55-6.35-3.68a18.21,18.21,0,0,0-2.67,0c-1.39,0-.76.89-3.3,1s-3.93,1.78-3.17,2,3.17,2.41,2.41,2.79S371.05,222,370,222s-2,.13-2,.89a2.67,2.67,0,0,1-2.54,1.91,13.7,13.7,0,0,1-3.2-1.42l-.33.92-.12.87c.22.67-.11,3.44.53,3.66s1.1,1.52,2.62,3.19,4.61,6.13,4.66,7.22.57,2.28,2.47,3.57,1.9,2.85,2.9,3.61.76,1.66.81,3.56.9,4.38,2.61,5.42a8.18,8.18,0,0,1,3.71,4.23,14.68,14.68,0,0,0,2.94,4.9c1.1,1.09.48,1.66,1.1,2.47a9.7,9.7,0,0,1,1.06,1.87,8.29,8.29,0,0,0,1.48-.81c.18-.37-.37-1.38-.09-1.75a3.38,3.38,0,0,1,1.38-1.19c.55-.19,1.19.55,2.38.36a9.64,9.64,0,0,1,3.95.37c.28.28,3.68.09,4.51.74s1.65.45,2.2-.83,4.41-4,5-4.32,4.69,0,6.34-.37,12.49-3.85,13-4.22,2.21-6.06,2.21-6.71-.83-2.39-1.66-2.29a55.2,55.2,0,0,1-8.08-.92,5.62,5.62,0,0,1-2.43-3.45,4.23,4.23,0,0,1-1.33-2.06,2.44,2.44,0,0,1-2.69-1.85c-.63-.43-2.29-2.81-1.71-3.47s-.38-2.51-1.43-3.47-3.18-2.71-3.28-3.8a6.16,6.16,0,0,0-.4-1.36l-2.56-.13Z"/><path class="cls-2" d="M430.3,240.08v2.44l-2,2.57-1.08,2.71a5,5,0,0,0,.65,0c.83-.1,1.66,1.65,1.66,2.29s-1.75,6.34-2.21,6.71-6.06,2.15-9.85,3.32c.82,1.71,2.46,5.1,3.94,8.13a8.65,8.65,0,0,0,.82-.4c1.8-1,3.85-.52,5.23-.9s0-1.52,1.23-2.52,2.9-.24,3.52-.57,1.05-2.52,2.09-2.94,2.19-.15,2-1.05.1-4.14,1.1-4.33,2.56-1.23,2.61-1.8,2.05-2.71,2.66-3.76.67-1.61-.23-1.76-2.33-2.66-2.71-3.37-3.14-.24-5.37-2a6.11,6.11,0,0,1-1.73-3.41l-1.12.63Z"/><path class="cls-2" d="M416,241.38a1.2,1.2,0,0,1,.07-.89c.61-1.05,1-3.76-.38-4.14s-2.14,2.38-2.14,3.14c0,.14-.09.13-.24,0A2.44,2.44,0,0,0,416,241.38Z"/><path class="cls-2" d="M419.76,246.89a56.24,56.24,0,0,0,7.43.91l1.08-2.71,2-2.57v-2.44h1.22l1.12-.63c-.48-2-.55-4-.89-4-.57,0-2.9,2.47-3.85,4.32a6.12,6.12,0,0,1-6.08,2.85,4,4,0,0,0-3.81,1c-.15.11-.4,0-.68-.18A5.62,5.62,0,0,0,419.76,246.89Z"/><path class="cls-2" d="M401.63,222.82c.41-.43.48-1,1.47-1.18.78-.11,1.27.4,2.13,1.2a3.62,3.62,0,0,1,1.4-.76c-.86-.89-1.89-1.91-1.81-2.53.13-1-1-1.52-1.14-2.16s.76-1.64.25-2.15-.64-1.78-1.52-1.91-3.69-1.52-3.56-2.41-1-1.52-1.52-1.78-1-2.53-.38-2.92.51-2.54,1.27-2.54.12-1.14.38-1.9-.63-1.14-1.27-1.14a2.32,2.32,0,0,1-1.78-1.91c0-.88-1.27-2.15-1.14-2.53-.22,1.67-2.64-.92-3.39-.54s-1.33-.76-2.86-.57c-1,.12-.93.63-1.43,1.09l.06,0-1.9,1.39s-1.65.51-2,1.52.76,2,.25,2.67a3.58,3.58,0,0,0-.25,2.54c.13.51-.76,1.9-.76,1.9s-3.78,2-6.93,3.65a8.84,8.84,0,0,0,.26,1.57c.2.71.5,2.05.75,3.16a15.9,15.9,0,0,1,2.49,0c1.14.13,5.33,3.18,6.35,3.68a92.72,92.72,0,0,1,7.74,5.72,6.47,6.47,0,0,0,3.81,1.27c.44,0,2.26.21,3.73.38A18.2,18.2,0,0,1,401.63,222.82Z"/><path class="cls-2" d="M402.28,225.9l1.65,1.4,2.56.13a33.16,33.16,0,0,1-1.55-4.06.77.77,0,0,1,.29-.53c-.86-.8-1.35-1.31-2.13-1.2-1,.15-1.06.75-1.47,1.18a18.2,18.2,0,0,0-1.33,2.83Z"/><path class="cls-2" d="M277.41,149.51c-.43.07-.78-.57-1.71-.57a2.54,2.54,0,0,1-2.07-1c-.42-.57-2.63-.71-3.35-.57s-.92-1.22-1.64-1.07-.92-.93-.92-1.5-.79.43-1.43.71-.86-.64-.93-1.07-1.35-.85-2-1.21-1.36-1.5-1.64-1-1.07-.71-1.14-1.21c0-.33-.27-.23-.42-.42a2.51,2.51,0,0,1-.72.06c-1.15,0-2.14.86-1.95,2.76s-1.38,2.09-3.33,2.24-1.28,1.66-2.09,2.28-3.66-.33-4-1.38-2.95,0-1.86,1.24,1,2.94.43,3.42-2-.76-2.8-.15-.91-.57-1.95-.94-1.48.47-3.14.33-2.61.81-2,1.52-.1,1.38.37,2,2.67.52,4.28,1.37,2,.14,2.81.77,1,.23,1,1.42a3.13,3.13,0,0,0,2.52,2.76c1.57.43.38,1.47.86,2.52s-.71,2.56-.48,3.85-.76,5.41-1.52,5.79a.58.58,0,0,1-.19,0c.71.36,1.46.67,1.83.91.69.46,2.2.92,3.12,1.5s2.55.47,2.55-.23.92-.23,1.5.35,2.78.69,3.82.92a19.28,19.28,0,0,0,3.3.1,6.07,6.07,0,0,0-.19-.83c-.57-1.85,1.09-2.94,2.66-3.18a13.1,13.1,0,0,1,5.89,1.28c.9.57,2.14.43,3.71-1.24a4.31,4.31,0,0,1,2-1.31,5.8,5.8,0,0,1,.36-1.09c.22-.57-.78-.42-1.49-.5a1,1,0,0,1-.72-1.56c.5-.79-.42-.86-.92-1.64s.21-.57.64-.79,1-1.07.64-1.28-.64-.71-.36-1.57-.57-.93-.57-1.57-.78-.93-1.42-.14-.86.21-.43-1.07,1.93-1.85,2.07-2.57a1.9,1.9,0,0,1,1.64-1.35c.64,0,.5-1.5.71-2.43a4.2,4.2,0,0,1,1.28-2.63C279,149.79,277.84,149.43,277.41,149.51Zm5.09,24.19c-.52,0-.67.9-2,1.71s0,4.46,1.33,4.28S283,173.75,282.5,173.7Z"/><path class="cls-2" d="M262.54,176.05a19.28,19.28,0,0,1-3.3-.1c-1-.23-3.24-.34-3.82-.92s-1.5-1-1.5-.35-1.62.81-2.55.23-2.43-1-3.12-1.5c-.37-.24-1.12-.55-1.83-.91-1,.19-3.73-.83-5.56-.61s-8.18-.28-10.6-.09-2.57-1-3.9-1-.76,1.62-2.66,1.66-2.09,1.24-.71,2.34c.78.62.69,1.93.58,3.14a1.25,1.25,0,0,0,.85-.37c.58-.69,1.16-.58,1.16.12s1.27.46,2,.46.46.58,1.27,0,2-.34,2,.35,1.74.35.81,1.27-2.08,1.16-2.08,1.85,1,2.2.23,3,.23,2.2-.57,2.2-1.74.34-.82,1.27,1.62,1.73.93,1.73-1.16,1.39-.81,1.74,2,1.39.7,1.62-1.28,1.27-1.28,2a2.45,2.45,0,0,0,.47,1,2.84,2.84,0,0,1,1.71.13c1.33.61,2.1,3.93,3.9,3.7.76-.09.38-.66.76-1s1.09-.1,1.85-.1,1.14-1.09,2.95-1.14,2.95-.19,4.09-.14,2-.33,2.33-1.14a3,3,0,0,1,2.52-1.71c1.28-.19,1.09-1.52,1.18-2.28s2.24-1.91,2.38-2.48-1.24-2.75.05-4.7,2.66-2,2.66-3.14,1.33-1.38,2.95-1.57,2.14-1.28,3.52-1.85A2.15,2.15,0,0,0,262.54,176.05Zm.28,10.39c-.24-1.62-3.5.48-2.8.95C261.44,188.34,263.06,188.06,262.82,186.44Z"/><path class="cls-2" d="M293.57,163.36a3.37,3.37,0,0,1,2.05-.26c.37.15.49.54.56,1a16.66,16.66,0,0,0,2.27-.44c.57-.21,1.85.5,2,.07s.57-1.42,1.14-1.42.22-1.5.79-1.57a7.21,7.21,0,0,0,2-1.36s-.57-1.14-.78-1.21-.93.72-2.21.72-2.21,1-2.78,1-2.35-.57-3.57-.64c-.42,0-.87-.06-1.28-.1A27.75,27.75,0,0,0,293.57,163.36Z"/><path class="cls-2" d="M335.9,178.48c-.71.07-1.7.33-1.54.74s-.48.75-1.24.75a15.43,15.43,0,0,1-3.42-.56c-.58-.29-3.12-.15-4.32-.06a.24.24,0,0,1-.06.15c-.28.43-2.56,1.59-3,1.38s-.64.71-1.5.92-2.14-.07-2.21.29a5.36,5.36,0,0,1-1.14,1.85c-.5.5-.07,1.07-.78,1.21-.47.1-.67,1-.93,1.74a.91.91,0,0,0,.14.07,2.66,2.66,0,0,1,1.71,2.76c-.14,1.19,1.53,1.62,2.29.76s2.9.48,2.9,1.05-2.19-.62-3.43.28.95,1.76.67,2.71a1.84,1.84,0,0,0,1.66,2.24c1.1,0,2.33,1.75,3,1.42s-.81-2.85-.57-3.23,1.56.66,2.23-.1-.47-1.33-1.47-1.28,0-1.33,1.14-.62,1.76-.19,2.33-.28.71-2.14-1.05-2.62-1.52,1.29-2.66.1,1-.72,1-1.71-1.75-2.43-2.61-3.62,1.19-1.76,1.66-.9,1.76.71,2.57.38-.86-1.85.62-2.42,1.47.42,1.95.61.9-1.18,2.42-1.18a3.88,3.88,0,0,1,2.17,1c.42-.46.76-.72.76-1.11s.92-.71.92-1.49A5.44,5.44,0,0,0,335.9,178.48Zm-2.68,24c-.77-.43-4.19.28-5.09-.57s-2.75.67-1.95.81c1.14.19,2.85,1.18,4.71,1.23s4.37-.85,4.32-1.33S334,202.89,333.22,202.46Z"/><path class="cls-2" d="M359.31,203.79c-.09-.53.62-1.62,1.71-2s.67-1.24,0-.62a8.24,8.24,0,0,1-4.57,1.38c-2.14.09-2.81,1.5-1.47,2.28C356.65,205.79,359.41,204.31,359.31,203.79Z"/><path class="cls-2" d="M231.2,127.67a6.21,6.21,0,0,1-1.06-1c-1.22-1.43-1.73-.28-1.87.58s-1.29-.29-2-.43.22-1.51.72-1.87a3.22,3.22,0,0,0,.87-1.83,1.07,1.07,0,0,1-.39-.07c-1.33-.52-3.19-.52-3.24.66s1.48.76,1.52,1.52-1.52.57-2.61,1.34-2.28-.53-3.42,0,1.23,1.24.38,2.43,0,1.14,1.47,2.28-.85,1.43-.85,2.71-1.76,1.24-2.14,2.09,1.52,2.57,3.18,2.57a9.75,9.75,0,0,0,5.56-2.28c1.62-1.53,2.47-.05,3.95-.81s.57-6.32,0-7.46A.66.66,0,0,1,231.2,127.67Z"/><path class="cls-2" d="M231.88,122.51c-1.2-1.16-2.75.66-4,.64A3.22,3.22,0,0,1,227,125c-.5.36-1.44,1.72-.72,1.87s1.87,1.29,2,.43.65-2,1.87-.58a6.21,6.21,0,0,0,1.06,1c.2-.65,1.7-.77,2.48-1.55C234.63,125.17,233.21,123.79,231.88,122.51Zm26,11.79c.09-1.43-3-2.43-3.38-1.67s-1,.67-1.57-.19.48-1.66,0-1.76a2,2,0,0,1-1-1.75c.14-.48-.81-3.52-2.42-3.9s-1.86-2.66-2.14-3.9-1.33-.57-2.14-1.62-2.19-.52-2.9-.47,0-1.33,1.14-2.09,2.47-4.81,2.47-5.61-5-.76-5.94-.29-1.9-.71-1.09-1,2.52-2,2.42-2.66,1.19-1.29.48-1.91-.81.81-1.43,1.29-2,.33-3.47,0-2,1.8-2,2.7-1.71,1.43-1.42,2.19-.34,1.33-.81.9-1-1.47-2-.71,1.09,1.76,2.33,1.9-.95,1-1.19,2.38,1.62.76,1.71,1.71-2.66,1.09-2.66,2,1.57-.42,2.28-.8-.38,2.23,1.33,1.95,1.24-2.62,1.86-2.52-.29,1.23.24,2.23-1.24,2.52-1.15,3.23,3.52.72,4.61-.42,1.62.09.86.95a1.13,1.13,0,0,0,.52,2c1,.33,1.29.42.86,1.18s-.05,2.19-.29,2.9-3.18.62-3.28.14-1.33-.14-1,.53-1.05,1.37-1,2,1.85.48,1.9,1.24-1.29,1.66-3.09,2.19.38,2,1.23,1.33.67.42,1.9.42,2,1,3.38.48,1.33,0,.28.81-2.61,0-3.56.47-4.82,4.15-4.09,5c.43.52,1-.76,2.38-1.33s1.61.38,2.38.48.8-1.57,1.42-1.43,1.19-.52,2.33-.33a3,3,0,0,0,2.52-.72c.57-.47,2.09,1,2.57.62a9.56,9.56,0,0,1,3.61-.67,10,10,0,0,0,4.46-1.85c.72-.66-.42-.8-1.37-.66s-.76-.95.23-1.9S257.78,135.72,257.88,134.3Zm-28.57-23.87c1.28,0,2.76-2.23,2.14-2.85S228.35,110.47,229.31,110.43Zm18.4-10.31c.8-.81,1.75-3.9.52-3.56S247.35,100.47,247.71,100.12Z"/><path class="cls-2" d="M231.88,122.51c-1.2-1.16-2.75.66-4,.64A3.22,3.22,0,0,1,227,125c-.5.36-1.44,1.72-.72,1.87s1.87,1.29,2,.43.65-2,1.87-.58a6.21,6.21,0,0,0,1.06,1c.2-.65,1.7-.77,2.48-1.55C234.63,125.17,233.21,123.79,231.88,122.51Zm26,11.79c.09-1.43-3-2.43-3.38-1.67s-1,.67-1.57-.19.48-1.66,0-1.76a2,2,0,0,1-1-1.75c.14-.48-.81-3.52-2.42-3.9s-1.86-2.66-2.14-3.9-1.33-.57-2.14-1.62-2.19-.52-2.9-.47,0-1.33,1.14-2.09,2.47-4.81,2.47-5.61-5-.76-5.94-.29-1.9-.71-1.09-1,2.52-2,2.42-2.66,1.19-1.29.48-1.91-.81.81-1.43,1.29-2,.33-3.47,0-2,1.8-2,2.7-1.71,1.43-1.42,2.19-.34,1.33-.81.9-1-1.47-2-.71,1.09,1.76,2.33,1.9-.95,1-1.19,2.38,1.62.76,1.71,1.71-2.66,1.09-2.66,2,1.57-.42,2.28-.8-.38,2.23,1.33,1.95,1.24-2.62,1.86-2.52-.29,1.23.24,2.23-1.24,2.52-1.15,3.23,3.52.72,4.61-.42,1.62.09.86.95a1.13,1.13,0,0,0,.52,2c1,.33,1.29.42.86,1.18s-.05,2.19-.29,2.9-3.18.62-3.28.14-1.33-.14-1,.53-1.05,1.37-1,2,1.85.48,1.9,1.24-1.29,1.66-3.09,2.19.38,2,1.23,1.33.67.42,1.9.42,2,1,3.38.48,1.33,0,.28.81-2.61,0-3.56.47-4.82,4.15-4.09,5c.43.52,1-.76,2.38-1.33s1.61.38,2.38.48.8-1.57,1.42-1.43,1.19-.52,2.33-.33a3,3,0,0,0,2.52-.72c.57-.47,2.09,1,2.57.62a9.56,9.56,0,0,1,3.61-.67,10,10,0,0,0,4.46-1.85c.72-.66-.42-.8-1.37-.66s-.76-.95.23-1.9S257.78,135.72,257.88,134.3Zm-28.57-23.87c1.28,0,2.76-2.23,2.14-2.85S228.35,110.47,229.31,110.43Zm18.4-10.31c.8-.81,1.75-3.9.52-3.56S247.35,100.47,247.71,100.12Z"/><path class="cls-2" d="M285.68,116a1.79,1.79,0,0,1-.09-2.24,2.66,2.66,0,0,0,.33-2.76c-.47-.47-2.19,0-2.33,1.29s-1.52.71-1.9,1,.76.85.14,1.42-.85-.85-1.85-.95-1.09,1.52-1.62,2.33-.19,2.52,0,3.66,1.57,1.85,1.24,2.81c-.15.44.16.93.49,1.42a12.55,12.55,0,0,1,2.93.29,3.45,3.45,0,0,0,1.19,0c-.42-.68-1.35-1.23-1.28-1.73.09-.66,1-.24,1.66.33s2.14.67,2.28,0c.09-.44-.24-2.47-1.14-2s-1.14.28-1.47-.19.66-1.24.9-2,1.81-.48,2-1.09S286.16,116.23,285.68,116Zm7.18,2.9c-.38-.24-.66.66-1.09.76s-.9-1.81-1.09-.76-1.15-.43-2.1.9.57,2.52,1.24,3-.05,1-.9.85-.34,1.24.85,1.43,2.47-2.09,2.33-2.66S293.31,119.18,292.86,118.9Z"/><path class="cls-2" d="M328,68.33c-.46-.45-1.38-1.67-.61-1.67s1.07-2.29.15-2.75,0-2.45-.77-2.9-.3-2-.15-3.06-2.9-2-4.58-2.75-2.44-2-3.82-2.75-1.83,1.22-1.83,2.45-1.22,1.37-2.14.61-2,0-3.36-.61-.76,1.37-.76,2.29-1.53.91-2.44.91-2.45.77-2.45,1.84-1.37,1.68-.92,2.29-.15,1.22-.76,1.68-1.22,2-1.68,2.44.31,1.22-.61,1.83-2,.15-2.44.61,0,1.53-.15,2.91a9.91,9.91,0,0,1-2.14,4.12c-.92,1.22.3,1.53.76,1.68s.46.92,0,1.83-1.53.31-2.14.16-2.29.61-3.21,2.13a3.14,3.14,0,0,0-.3,3.21c.3.76-.76,1.68,0,3.21s-.31,1.83-.15,3,2,1.07,2.13,2.29-.61,1.68-1.22,1.68-.46,1.22.16,1.53.45,2.44.15,3.06-2.29,0-2.14.76-.46,2-.46,2.6-.15,2.59-.76,2.13a1.44,1.44,0,0,0-1-.14,1.5,1.5,0,0,1,0,.3,3.88,3.88,0,0,0,1.43,3.23c1,.86.24,2.14,1.14,3.33s.62,2,1.61,2.9,1.1,1.33.67,2.43.86.8.9,1.47-.28,2,.05,2.71,1,0,2.52-.05,1.14-1,1.19-1.9.81-.48,1-1,1.57-.71,2.66-.24,1.66-.33,1.85-1.47.81.24,1.14.48,1.34-1.76,1.81-3-.05-1-1.14.19-.48-1.23-.05-2.23.38-3.9.52-4.56a2.2,2.2,0,0,1,1.81-1.95c1.38-.29,3.19-2,2.9-2.71s1.9-1.9,1.9-2.61-2.28-2.91-3-3.38-2.42-.1-2.28-.62a15.94,15.94,0,0,0-.38-3.61c-.19-1,1.18-2.14,1.18-3.14s0-2.14.86-2.47.33-1.19,1.52-1.47.95-2,2.24-2.52,1.37-1,3-1.76,4.47-2.71,4.94-3.71-1.71-2-.33-3.09.24-2.23,1.24-2.61a5.13,5.13,0,0,0,2.09-1.67c.71-.76,1.66,0,3.37-.33a4.36,4.36,0,0,1,1.74.08A3.1,3.1,0,0,0,328,68.33ZM312,110.15c-1.81,0-2.65,3.6-2.19,4.18S313.77,110.1,312,110.15Z"/><path class="cls-2" d="M340.16,104.09c.39-.85,1.42-1,.65-2.11a1.82,1.82,0,0,1-.7.33c-1.38.38-4.38-1-6.09-.62s-5.18.33-6,1.19-2.85,1.09-1.94,1.85,0,1.14.66,2,1,1.28,1.9,1.09,1.62.28.67,1.28l0,0a11.9,11.9,0,0,1,3.46,0c.38.29,2.66,2.09,3.23,1.9a14.68,14.68,0,0,1,3.07.2.76.76,0,0,1,.12-.89c.42-.35,1.35-.35.85-1.07a2.6,2.6,0,0,1-.71-1.71,9.72,9.72,0,0,1-.21-1.85C339.16,105.16,339.73,105,340.16,104.09Zm-16.83,2.3c-1.71.48-2,2.85-1.28,2.81.85,0,2.8-1.67,3.32-2.19S325,105.92,323.33,106.39Zm1.42-1.38c.39-.71-2.74-.4-2,.24A1.39,1.39,0,0,0,324.75,105Z"/><path class="cls-2" d="M381.45,313.46l1.48-2.3,1.54-2.25a9.53,9.53,0,0,0-1.61.45,1.26,1.26,0,0,1-1.56-.64c-.22-.5-1.65-.07-2.79.57s-1.71,2-2.13,1.71a14.21,14.21,0,0,0-3.71-.64c-.72,0-3-1.5-3.71-2.14s-2.78-.36-3.28-.64-1.5-.5-1.85-.93-1.21-.36-1.93-.21-2.42,1.14-2.57,1.71a1.12,1.12,0,0,1-.41.52l1.47,1.33.33,2.31,1.31,1.15a25.08,25.08,0,0,1-.16,2.64,7.86,7.86,0,0,1-2.14,3.78,7.39,7.39,0,0,0-1,2c1.25.31,2.19.79,2.12,1.17-.14.78-2.28.43-2.28,2.07,0,.11,0,.21,0,.32l12.14,6.45-.16,2s2.73,2,5.39,3.83a68.6,68.6,0,0,1,3.15-7c.71-1.09,1.43-.9,2.05-1.66s.8.38,1.75-1.14c.08-.12.17-.25.28-.39L381.62,325Z"/><path class="cls-2" d="M360.72,312.31l-.33-2.31-1.47-1.33c-.43.37-1,.71-1.08,1.05s-1.43.42-2,.14a2.78,2.78,0,0,0-2.35.78c-.29.43-1.29-.78-2-.71a15.31,15.31,0,0,0-2.42.71s-.29,2-.29,2.78,1.07.93,1.07,1.57-.85,1.21-.93,1.64-.64.71-1.35.93-.64,1.35-1.21,1.78-.43,1.5-.79,2.28a7.34,7.34,0,0,0-.57,2.78,4.12,4.12,0,0,1-.53,2.34,2.23,2.23,0,0,0,1.6-.28,30.51,30.51,0,0,1,3.29-1l2.68-.22c.6-1.67,1.48-3.2,2.45-3.48a8.93,8.93,0,0,1,4.29.11,7.39,7.39,0,0,1,1-2,7.86,7.86,0,0,0,2.14-3.78,25.08,25.08,0,0,0,.16-2.64Z"/><path class="cls-2" d="M348.52,48c-.19.72-1.47.58-1.42-.14s-2-1.28-2.1-1.62.86-.28,1.62.15,1.28.14,2.14-.67,2-.14,2.19-.85-1.38-1.19-1.67-1.62a2.72,2.72,0,0,0-2.42-.81c-1.05.19-1.09-.23-1.71-.8s-2.52.38-2.52,1.71-1.19,1-.76.28-.57-1.57.38-1.81.42-1.66-1.33-1.8-2.43,1.33-2,1.8-1.19,2.52-1.9,2.52.09-1.75.05-2.7-.72-.43-2.05,1.09-2.33,2.9-3.09,3-.66-1.38.57-2,1.29-2.48,2.09-2.48.81-1-.38-1.23-1.38,1-1.76,1.43-2.32-.67-2.28-.29-1,.52-.57,1.23-.23,1.34-.71.48-1.66-.19-2.23.76-1.34.9-.76,1.24a1.1,1.1,0,0,1-.34,1.85c-.85.24-.52-2.33-1.18-2.09s-.24-1.24.66-1.24a2.16,2.16,0,0,0,1.71-1.66c-.16-.56-1.14-.43-1.14.29s-1.43.57-2.61.52-1.15,1.38.19,2.14-.24,1.23-.91.66a2.34,2.34,0,0,0-2.42,0c-.71.33,1.71,1.19,1.81,1.62s-1.24-.53-1.53-.19-1.61-.24-1.71-1.05-2.23.33-1,.62.76,1,.76,2.09-1.38.24-1.1-.67-.85-.71-1.8-.14.14-1-.24-1.85-1.24,0-2.23.19-1.52.23-.91.9.53,1.62-.28,1.47-1.14,0-1,.77-1,.8-1.14.14-1.71-.48-2.19.28-1.8,1.33-1.66,2.19,1.19-.43,2.05-.14-.05.71.43,1.14.37,1.47-.29.85-1.52-.81-1.67.19-.85-.14-1.42-.85-1.14,1.33-1.76.85,1.24-1.94.76-2.66-.81.43-1.9,1.52-2.57,1-2,1.57-1.1.81-1.38,1.71-2.52,1.24-3.95,2.19.29,1,1.1.09,1.09-.38,2.37-1.18,2.66-1.48,3.14-1.15a1.26,1.26,0,0,0,1.9-.28,1.23,1.23,0,0,1,2-.14c.61.52-1.05.95-.29,1.71s-.9,1.18-.9.52-.95-1.23-1.29-.62-.9,1.28-1.52,1.33-1.28,1.19-1.28,2.33-1.09,0-1.19,1-1.61,2.76-2.94,4-.1,1.57-.53,2.38-2,.09-2.51.43.28,2.33-.43,2.94,0,1.48,0,2.19-1.86-.43-2,.28-1.76.53-2.23.72,1,1.33,1.8,2-.81,1.19-1,.43-1.37.48-2.85,1.14-.85,2-2,2-.81,1.85-1.57,2.42-.57-1.33-1.76-1.38-1.1.81-.38,1.81-1.1.24-1.76,1.09-2.57.43-3.09,1.14,1.42.72,1.71,1.29-1.71.28-2.76,0-.76,1.33-1.71,1.14-2.14.81-1.47,1.48-.52.76-1.19.33-1.24.62-1.47,1.43,1.28,1.23,1.23,1.61-1.23,1-.38,1.19.24,1-.33,1.19-.57.81,0,1.52-1,.86-.24,1.95,1.33-.29,1.67.52,1.23.1,2.28-.85,1.42,1,.57,1-1.86.47-1.67,1.33-1.33.71-1.28-.34-1.76.19-1.09.95-.24,1.19-.24,1.9,1.28.57,1.8-.23a.92.92,0,0,1,1.72.19c.33.81-.81.19-.81,1.28s-.71.14-1.33,1,2.42,2.42,3.37,2.66,1.86,1.28,3.76,1,5.51-3.8,6-4.42,1.52.09,2.23-.48.29-2,.81-2.32.81,1.56,1.28,1.75.74.51.76,1.46a1.44,1.44,0,0,1,1,.14c.61.46.76-1.52.76-2.13s.61-1.84.46-2.6,1.83-.15,2.14-.76.46-2.75-.15-3.06-.77-1.53-.16-1.53,1.38-.46,1.22-1.68-2-1.07-2.13-2.29.91-1.52.15-3,.3-2.45,0-3.21a3.14,3.14,0,0,1,.3-3.21c.92-1.52,2.6-2.29,3.21-2.13s1.68.76,2.14-.16.46-1.68,0-1.83-1.68-.46-.76-1.68a9.91,9.91,0,0,0,2.14-4.12c.15-1.38-.31-2.45.15-2.91s1.53,0,2.44-.61.15-1.37.61-1.83,1.07-2,1.68-2.44,1.22-1.07.76-1.68.92-1.23.92-2.29,1.53-1.84,2.45-1.84,2.44,0,2.44-.91-.61-2.91.76-2.29,2.45-.16,3.36.61,2.14.61,2.14-.61.46-3.21,1.83-2.45a3.28,3.28,0,0,1,.31.2,2.29,2.29,0,0,1,2.14-1.57c1.22.15,2,2.29,3.51,2.59s3,.92,3.51.16,1.53.45,2.45.15.91,1.68,1.83.46-.15-2,1.37-1.83.62-1.69.62-2.75,2-1.23,2-2.14,2.75-.16,3.21-.77,2-1.06,2.59,0,3.21,1.38,3.36,2.3a11.79,11.79,0,0,1,0,1.79,2.25,2.25,0,0,1,1.48-.73c.95,0,1.8-1.43,2.66-1.24s1.42,0,1.64-1.15C350.15,47.44,348.7,47.38,348.52,48Z"/><path class="cls-2" d="M408.22,361.74c-.42-1.56-.76.57-1.14.95a3.38,3.38,0,0,0-.47,2.28c.09.77-1.14,1.52-1.9,1.43s-2,.38-1.62,1.42-.57.86-.1,1.72-1,1.9-2.37,2-3,2.48-4.47,2.28-2.85,1-4.09.77-.38,2.56-1.33,4.27-.47,3.71.38,5.8,1.52,3.8-.76,6.56a7.32,7.32,0,0,0-1.24,7.7c.86,1.9.86,4.75,2.1,6.09s4.65,2.47,5.7,1.42,2.15.14,3.33-1.23,3-8.65,4.65-13.5,3.71-11.22,3.52-12.55,1.14-2.19.57-3.62.19-3.13.86-2,1.61,1.14,1.9-.38-1.14-3.9-1.24-6.09S408.51,362.79,408.22,361.74Z"/><path class="cls-2" d="M414.34,261c-1.65.37-5.79.1-6.34.37s-4.41,3-5,4.32-1.38,1.47-2.2.83-4.23-.46-4.51-.74a9.64,9.64,0,0,0-3.95-.37c-1.19.19-1.83-.55-2.38-.36a3.38,3.38,0,0,0-1.38,1.19c-.28.37.27,1.38.09,1.75a8.29,8.29,0,0,1-1.48.81,3.08,3.08,0,0,1,.27,2,7.23,7.23,0,0,0,.95,5.13c1,1.48.62,4.19,1.09,4.71s4.19.43,5.85-.67a6.71,6.71,0,0,1,4.14-1.28A5.71,5.71,0,0,0,403,277c.43-.57,2.38-.62,3.19-.52s1.61-.81,2.51-1.71,3.76-1.29,6.8-2.24,2.38-2.37,3.09-3.23,1.44-.51,2.75-1c-1.48-3-3.12-6.42-3.94-8.13C416,260.58,414.8,260.93,414.34,261Zm7.83,21.3c1.07,1.11,3.16-.18,3.27-.62S421,281.09,422.17,282.33Z"/><path class="cls-2" d="M344.86,345.08c-1.57-.86-2.21-11.62-1.43-11.91.11,0,.21.08.3.3l-.15-2.44a.85.85,0,0,1-.21-.06,1,1,0,0,1-.65-.93.84.84,0,0,1,.71-.93s-.14-1.78.65-2.07a.94.94,0,0,0,.39-.3,4.12,4.12,0,0,0,.53-2.34,7.34,7.34,0,0,1,.57-2.78c.36-.78.22-1.85.79-2.28s.5-1.57,1.21-1.78,1.28-.5,1.35-.93.93-1,.93-1.64-1.07-.78-1.07-1.57.29-2.78.29-2.78h.05c-1.54-1.41-3.31-2.87-3.72-3.14-.59-.39-1.59.4-1.59.4s-1-1-1.79-.2-2,0-2,0a3.71,3.71,0,0,1-1.39-1.59,1.66,1.66,0,0,0-.83-.84l.05.13-2.38.4s-3-1.59-3.57-.4-1.19.4-2.57.4a7.56,7.56,0,0,0-3.38,1c-.79.4-2-.4-2.57,0s-1,2.18-1,2.18l-6.15-1.19s-1.19-1.78-2.58-1.78-3.37,2.58-3.37,2.58v2.15a5.17,5.17,0,0,1-.48,3.33,4.89,4.89,0,0,0-1.19,3.38c0,2-2.39,5.17-2.39,6.76s-2.78,2.58-2.78,3.58-.2,3.18-.2,5.36-1.19.4-1.19,2.39-1,.79-2,1.79-1.39,1.19-1.39.2-1.39-1.2-2.58-.2-1.59,0-2.19-.2c-.33-.11-1.69.69-3,1.6a15.25,15.25,0,0,1,1.14,3.54l.09.33a5.53,5.53,0,0,1,1.81-1c1-.15,10.41,0,10.41,0a4.29,4.29,0,0,1,.57,2.71c-.28,1.28.57.71,1.29,2.42s1.28,2.42,2.71,2a10.27,10.27,0,0,1,3.71-.57c.56.14.42-2.43,1.28-2.86a5,5,0,0,1,2.56,0s.15.72,1.57.72,2.14-.57,2.14.43a4.27,4.27,0,0,0,.57,2.56c.43.43-1.14,4-.43,4.56s1.72,1.86,1.57,2.57-.57,2.42,0,2.57.72-.86,1.71-.86a6.45,6.45,0,0,0,2.85-.28,1,1,0,0,1,.87,0,2.3,2.3,0,0,1,.85.82s.28,1,.85.72,2.14-.72,2-.15.43,1.86,1,1.57,2,.86,2.71.86,1.42,0,1.42-.43.86-1.14,1.14-.57,1,1.85,1.71,1.85,2.43,0,2.43.57a4.73,4.73,0,0,0,1.28,2.71c.71.57,2.28,0,2.28,0a1.77,1.77,0,0,0,.57-1.42c0-1,0-2.28-.42-2.28s-1.14,1-2.14.71-1.71-2.28-2.14-2.57.71-2.14.71-3,.72-3.28.14-3.57-.28-1.14.43-1.71-.28-2.14.86-2.14,3.25.12,3.87-.57a1.49,1.49,0,0,0,.12-.14,4.4,4.4,0,0,0,.21-.5C346.47,347.16,345.74,345.56,344.86,345.08Z"/><path class="cls-2" d="M343.73,333.47a20.92,20.92,0,0,1,.8,3.35,13.35,13.35,0,0,1,1.38-.82c.82-.32,2.63-3.78,2.63-3.78l-.82-.49a5.39,5.39,0,0,0-.13-1.69,11,11,0,0,1-1.52,0s.17,1.32-1.64,1a7.5,7.5,0,0,0-1.06-.1.85.85,0,0,0,.21.06Z"/><path class="cls-2" d="M380.61,370.68a21.67,21.67,0,0,1-.81-6.28c.19-1.57-.29-5.7-.29-7.7,0,0,0-.08,0-.12a14.9,14.9,0,0,0-3.41,1.83c-.28.57-1.52-.09-2.28.57s-1.24.1-1.9-.09-1,.66-1.05,1.23-1.42.29-1.9.19-2,.38-2.76.38-.19-.66-1-.94-1.43.37-1.9.37c-.29,0-1.18-.1-1.83-.18a3.45,3.45,0,0,1-.17,1.11c-.62,1.61,1.29,5.26,1.38,6.8a18.78,18.78,0,0,1,1.95,1.88c.85,1,0,.95.09,3.23s-.95,1.33-1.8,2.09-.1,2.47-.29,2.95-2.76-3.33-2.95-3.9,1-2.85.67-4.18-2-.48-2.57-.38-1.9-1.52-2.18-1.52-8.94,3.23-8.94,3.23l.66,2.37h-.18l.47,1s2.85.14,4.14,1,3.28,1,3.7,1.28,0,3.42.15,5-1.71,2-.86,2.85.43,2.29,1,2.43-1,2-1.71,2.42,0,2-.86,3.14c-.55.73-2.14,2.16-3.26,3.25a.31.31,0,0,1,.12.1c.29.5,1.14,5.49,2,6s.36,5.42.29,5.85.35,3.7.35,3.7a17.94,17.94,0,0,1,2.4-.18c.07-.65.12-1.21.15-1.6.09-1.52-.95-.28-1.29-1.23s2.33-2.71,5-3.71,3.76-1.57,4-2.52-.05-3.61.34-4.66-.24-1.66-.57-4-1.2-2.76-1.57-4.09-.29-2.37.52-2.42.81-.43,1.47-1.71,1.43-.76,2.71-1.71,1.33-2.14,3.37-3.71,4.28-1.52,6.28-2.71S380.94,371.53,380.61,370.68Z"/><path class="cls-2" d="M377.23,353.66c-.09-2-1.24-2-1.19-3.28s.15-2.52-.33-2.66-.19-1.28.57-2.43-1.38-1.28-1.71-2.7c-.14-.61.54-2.66,1.41-4.89-2.66-1.84-5.39-3.83-5.39-3.83l.16-2-12.14-6.45a3.41,3.41,0,0,1-1.56,3c-.92.42,1.29,1.78.22,2s-3.5-1-5.21-.28c-1.15.48-.91-2.4,0-4.93l-2.68.22-1.51.41.53,1.4a4.37,4.37,0,0,1,.49,2.14c-.08.38-.67.54-1.28.62a5.39,5.39,0,0,1,.13,1.69l.82.49s-1.81,3.46-2.63,3.78a13.35,13.35,0,0,0-1.38.82c.49,2.42,1.08,5.31,2,6.12,1.64,1.5,1.36,3.21,1.71,4.21s1.78,2.14.79,2.56c-.65.28-1.22-.41-1.79-1.35a4.4,4.4,0,0,1-.21.5,1.49,1.49,0,0,1-.12.14,6.81,6.81,0,0,0,2.32,1.32c.82,0,2.14,1,3,1.15a14.45,14.45,0,0,1,4.12,1.81,2.61,2.61,0,0,1,.2.32,15.67,15.67,0,0,1,2.17,0,.69.69,0,0,1,.47-.18c1.09,0,2.37,4.12,2.31,6.52.65.08,1.54.18,1.83.18.47,0,1-.66,1.9-.37s.28.94,1,.94,2.28-.47,2.76-.38,1.81.38,1.9-.19.39-1.42,1.05-1.23,1.14.76,1.9.09,2,0,2.28-.57a14.9,14.9,0,0,1,3.41-1.83C379.41,354.75,377.32,355.57,377.23,353.66Z"/><path class="cls-2" d="M364.59,369.73a18.78,18.78,0,0,0-1.95-1.88.89.89,0,0,1-.1.55c-.83,1.21-3.21-2.57-3.49-4.92s1.35-3.5.36-5.71c-.84-1.85-1.36-3.63-.76-4.17a15.67,15.67,0,0,0-2.17,0,10.17,10.17,0,0,1,1.28,3.14c0,.65-.83-.17-1.16.65s-.49,4.61.17,5.27-1.32.17-1.32.83-.16,3-.49,3.12.2.65.57,1.41h0c.28,0,1.61,1.61,2.18,1.52s2.28-1,2.57.38-.86,3.61-.67,4.18,2.76,4.37,2.95,3.9-.57-2.19.29-2.95,1.9.19,1.8-2.09S365.44,370.77,364.59,369.73Z"/><path class="cls-2" d="M400,187.58c0-.76-2-1.43-2-2.38s-1.33-1.8-1.14-2.56c.13-.53-.54-1.27-.89-1.87a9.25,9.25,0,0,0-2.85-.29c-1.19.14-2.08.48-3.25.66.62,1,.18,1.21.71,2.54s2,.67,2.47,1a3.23,3.23,0,0,1,.59,1.18,1,1,0,0,1,.3,0,1,1,0,0,1,.85.71,7.8,7.8,0,0,1,1.57.74c.41.19.69-.36,1.51.55s.77,1,.68,1.72a5.38,5.38,0,0,0,2.08-.44A4.51,4.51,0,0,1,400,187.58Z"/><path class="cls-2" d="M409.84,182.64a40.15,40.15,0,0,0-2.87-3.71c-.4,1.17-1.8.84-2.08,1.52s-1-.14-1.42,0-1.43-1.57-2.43-1.71a3.16,3.16,0,0,1-1-.41c-.41.44-.79.93-.65,1.17.29.47,1.52.95,1.05,1.43a2.34,2.34,0,0,1-2.47-.2c-.48-.47-1.91-1.23-2.19-.66s1.24,1.81,1.05,2.57,1.14,1.61,1.14,2.56,2,1.62,2,2.38a4.51,4.51,0,0,0,.64,1.61,44.07,44.07,0,0,0,3.85-2.39c1.52-.76.89,2.42.63,2.92-.17.35,1,1.18,2.31,1.67a2.69,2.69,0,0,1,.56-1.91C409.55,187.49,410.79,184.35,409.84,182.64Zm-13.52,4.72a7.8,7.8,0,0,0-1.57-.74c.2.57.19,1.31,1.06,1.71,1.39.63-.64.88,2.16,1.26a4.9,4.9,0,0,0,.54,0c.09-.72,0-.92-.68-1.72S396.73,187.55,396.32,187.36Z"/><path class="cls-2" d="M299.09,192.38c-1.95.43-2.76.57-3.9,0s-3,.52-2.71,1.28c.19.53.95,1.19,3.33,1.81s2.66,2.23,3.66,2.28,1.09-.9.85-2.18,1.19-2.76,1.33-3S301,192,299.09,192.38Zm-18.4-10.79c-1,.9-1.9-.16-2.33.57-.52.9,1.62,2.28,1.19,4.14s.24,4.18,1.33,3.09,1.62-.57,2.24-1.38.09-3.8.52-5.23S281.74,180.69,280.69,181.59ZM304,180.07c-1.23-.76-.42-2-2.37-1.9s-4.28-2.33-5-5.14-3.76-2.94-4.52-4.61.71-1.85,0-3.23c-.37-.76.45-1.44,1.42-1.83a27.75,27.75,0,0,1,.17-4.26,5.89,5.89,0,0,1-1.64-.32c-.36-.22-.43-1.36-.64-1.36s-2.21,0-2.57.36-1.42,1-2,.64l-.4-.22-.62.58s-.1.76-.48.76-.95-.29-.95.38-1.05.47-1.52.38-1.14.09-1.14.66-.1,1.81-.86,1.14-1.52-2.37-1.81-2.18-.95,2.28-1.61,2.28c-.41,0-1.77.11-2.74.19-.26.82,0,1.31.36,1.52s-.21,1.07-.64,1.28-1.14,0-.64.79,1.42.85.92,1.64a1,1,0,0,0,.72,1.56c.71.08,1.71-.07,1.49.5a5.8,5.8,0,0,0-.36,1.09,7.53,7.53,0,0,0,1.55-.45c1-.52.57-1.42,2.24-1.9s3.85.91,4.51,1.9.86,1.1,1,1.91a6.19,6.19,0,0,0,3,3.89c2.29,1.48,3.19,3.14,4.38,3.76s2.37.48,3.09,1.33a7.3,7.3,0,0,0,2.8,1.85c1.14.53,1.19,1.76,2.28,1.91s.38,1.09,1.05,1.9a3.18,3.18,0,0,1,.14,3.47c-.71.95-.33,2.56.14,2.56s1.48-1.71,1.62-2.66,1.09-.9,1.85-1.9-1.14-1.24-1.47-2.52,1.43-2.42,3.09-1.38,2.33,1.76,2.42.15S305.22,180.83,304,180.07Z"/><path class="cls-2" d="M311.77,172.24a5.65,5.65,0,0,0-1.23,2.39,3,3,0,0,1-.13,1,17.68,17.68,0,0,0,2.27,1.68l.17.09c.19-1.05.92-2.14,1.45-2.27C313.56,174.22,312.47,173,311.77,172.24Z"/><path class="cls-2" d="M323,171.47a1.45,1.45,0,0,1,0-2.21c.65-.43.07-1,.07-1.71s-3.06-.93-3.56-1.07.36-2-.43-2a1,1,0,0,1-1.07-1.14c0-.57-1.21-1.5-1.14-1.86a.37.37,0,0,1,.09-.14l-.9-.15a10.92,10.92,0,0,1-1.38-.42s-2,.64-3.35,1c.09.84.31,1.75.83,2,1,.38.64,1.4,1,2.3s.25,5-.26,5c-.22,0-.71.53-1.2,1.19.7.71,1.79,2,2.53,2.89a.29.29,0,0,1,.1,0c.63,0,3,1.7,3,1.7s3.31-.69,5.54-1a4.92,4.92,0,0,0,.06-1,1.29,1.29,0,0,1,1.07-1.29C324.68,173.53,323.76,172.11,323,171.47Z"/></svg>