<?xml version="1.0" encoding="utf-8"?>
<!-- Generator: Adobe Illustrator 23.0.4, SVG Export Plug-In . SVG Version: 6.00 Build 0)  -->
<svg version="1.1" id="flag-icon-css-ml" xmlns="http://www.w3.org/2000/svg" xmlns:xlink="http://www.w3.org/1999/xlink" x="0px"
	 y="0px" viewBox="0 0 640 480" style="enable-background:new 0 0 640 480;" xml:space="preserve">
<style type="text/css">
	.st0{fill:#038E3B;}
	.st1{fill-rule:evenodd;clip-rule:evenodd;fill:#3A3734;}
	.st2{fill-rule:evenodd;clip-rule:evenodd;fill:#997B3D;stroke:#5D5D43;stroke-width:0.4615;}
	.st3{fill-rule:evenodd;clip-rule:evenodd;fill:#3A3734;stroke:#5D5D43;stroke-width:0.4615;}
	.st4{fill-rule:evenodd;clip-rule:evenodd;fill:#FFFFFF;}
	.st5{fill:none;stroke:#000000;stroke-width:0.9229;}
	.st6{fill-rule:evenodd;clip-rule:evenodd;fill:#F6F6EF;}
	.st7{fill-rule:evenodd;clip-rule:evenodd;fill:#5D5D43;}
	.st8{fill-rule:evenodd;clip-rule:evenodd;fill:#A43037;}
	.st9{fill-rule:evenodd;clip-rule:evenodd;fill:#0370B6;}
	.st10{fill-rule:evenodd;clip-rule:evenodd;fill:#FDE100;}
	.st11{fill-rule:evenodd;clip-rule:evenodd;fill:#997B3D;}
</style>
<g id="layer1" transform="translate(-121.64285,-110.07646)">
	<g id="g2250" transform="translate(-537.14286,-71.42858)">
		<path id="path2254" class="st0" d="M658.8,421.5v-240h320h320v240v240h-320h-320V421.5z"/>
	</g>
	<path id="path1875" class="st1" d="M636.5,348.3c0,104.3-85.6,188.8-191.2,188.8s-191.2-84.5-191.2-188.8s85.6-188.8,191.2-188.8
		S636.5,244,636.5,348.3z"/>
	<path id="path3651" class="st2" d="M591.4,263l-8.7,8.7l-6.4-0.5l-3.1-4.8L571,265l-0.3-1.2l-1.8-0.1l-0.1-3.9l-3.5-2.3l-2-5.4
		l-8.8-4.3l-12.1-13.7l-2-1.6l-1.5,0.1l-1.2,1.7l-5-0.8l0.7-7.2v-1.1l-17.9,0.1l-1.8-5.2l6.6-6.4l-0.8,6.6l17.9,1.1l5.4,2.3l1.4,5.1
		l4.2,6l15.9,13l4.2,1.7l3.5,2.1l-1.9,4.7l4.1,1.6l0.1,2.7l5.4,3.4l-2.2,2.1l0.1,1.5l4.7-0.4l5.2-5.4L591.4,263z"/>
	<path id="path3653" class="st2" d="M573.7,273l-2.3,0.3l0.1,3.5l2.8-0.4L573.7,273z"/>
	<path id="path3655" class="st2" d="M570.2,223.9l6,6.6l-4.1,2.7l-2.2-2.7l0.1-3.1l-3.4-2.3L570.2,223.9z"/>
	<path id="path3657" class="st3" d="M538.6,227.2l-2,0.1v2l2.4-0.1L538.6,227.2z"/>
	<path id="path7199" class="st2" d="M539.5,196.6l-11.8,19.6l-2.8-0.3l10-19.2L539.5,196.6z"/>
	<path id="path8086" class="st2" d="M526.4,191.4l-8,19.4l-4.8,4.9l-4.5-0.2l-2.8-2.6l-0.6-4.3l-23.6-0.8l-8.7-4.6l-3-5.7l1.2-5.2
		l-1.9,0.7l-3.6,4.3l-5.7,7.9l-4.4-1.9l-1.3-1.7l0.1-9.5l4.1-4.6l-0.4,6.9l1.3,4.5l5.7-5.3l5.2-5.5l2.7-1.1l1.8-1l1.8,2.2l-1.3,4.1
		l0.5,4.2l1.3,2.5l2.3,1.8l3,1.7l2.9,0.9l7.6,0.8l4.1,1.1l4.1-0.9l4.1-0.7l1.3-3.2l2.1-5.8l2.6-4.5l2.1-2.6l3-0.6l0.5,3.7l-1.9,1.2
		l-1.4,4.6l-2.4,4.5l-1.4,6l0.8,2.7l3.6,0.6l1.3-3.8l1.8-4.9l2.3-6.3l1.7-3.5l3.4-1.4L526.4,191.4z"/>
	<path id="path8973" class="st2" d="M497.9,187.6l-2.9,3.1l-7.3,0.4l-1.4-2.4l1.4-2.9l2.2,1.6h4l1.6-1.6l3,0.2L497.9,187.6z"/>
	<path id="path9860" class="st2" d="M450.1,174.2l1.6,12l0.5,10.3l-3.5-2.9l-0.2-20.1L450.1,174.2z"/>
	<path id="path10749" class="st2" d="M441,173.7l2.5,2.6l1.8,10.3l0.6,8.9l-1,2.3l-2.5,3.7l-4.3,1.5l-6.1,1.8l-3.9,2.5l-3.2,1.8
		l-2.6,3.2l-5.2,1.2l-2.3-3.8l1.9-6l1.4,0.8l-0.1,3.3l3.3-0.3l4.2-2.5l2.6-2.2l4.1-1.6l6.9-2.2l2.6-2l0.2-5.8l-1.2-5.5l-1.8-6.2
		l-0.8-3.8l2.9-2.3L441,173.7z"/>
	<path id="path11636" class="st2" d="M416.2,190.2l3.5-2.9l3.9-1.6l8,2.1l7.9,1l-0.6,3.5l-5.6,1.9l-5.4,2.2l-4.8,2.2l-7.3,1.5
		l-2.6,2.8L408,203l-3.5,1.8l-3.2,0.7l-1.2,3.9l-6,6.2l-2.8,2.2l-7,2l-4.1-0.2l-1.8-1.8l-2.7-2.6l-0.6-6l2,0.9l0.8,2l2.8,1.3
		l5.6,0.3l4.3-2.5l2.8-2.2l2.9-2.2l1.1-2l-1.7-4l0.3-4.5l1.1-0.9l1.4,0.1l0.9,2.8l2.7,0.9l3.7-0.1l1.2-5.7l2-1.5l3,0.4l2.6,1.7
		l5.5,0.4l2.8-0.2l0.5-1.2l0.2-1.3l-7.1,0.1L416.2,190.2z"/>
	<path id="path12523" class="st3" d="M411.4,195.3l-1.6,0.1l-0.1,1.8h1.9L411.4,195.3z"/>
	<path id="path13410" class="st2" d="M430,179l-5.3,1.1l-0.2,2.2l6.1,0.1L430,179z"/>
	<path id="path15182" class="st2" d="M402.2,177.4l1.7,5.7L402,184l-1.8-3l0.6-3.8L402.2,177.4z"/>
	<path id="path16069" class="st2" d="M387.2,188l3,0.8l0.8,3.6l-2.1,1.7l-4.2-1.6l0.2-2.7L387.2,188z"/>
	<path id="path16956" class="st2" d="M376.4,187.8l10.3,18.4l-1.3,3.1l-2.5-2.3l-8.2-12.4L376.4,187.8z"/>
	<path id="path17843" class="st2" d="M361.1,191.7l9.6,14.3l1.5,3.5l0.2,10.6l-4.8,5l-3.8,5.6l-2.5,3.7l-2.1,5.2l-3.4,2.1l-3.6-1.7
		l-0.8-5.6l2.3-0.2l1,1.5l2.7-0.6l1.7-4.1l3.6-6.8l7.1-7.3l0.6-3.7l-9.2-12.8l-1.9-3.9L361.1,191.7z"/>
	<path id="path18730" class="st2" d="M344.8,220.5l1-4.8l2.5-2.7l5-1l3.8-0.8l6.3-2.1l1.3,4.8l-3.6,3.9l-6.3,8.7l-6.3,3.9l-3.8-0.4
		l-1.5,2.3l-1,5.2l-2.5,3.9l-9.4,8.7l-2.1,1.7l2.1,2.3v3.7l-1.9,1.5L323,259l-1.3-1.7l-0.6,7.3l0.4,7l-0.8,3.9l-4.4,4.4l-2.7-0.4
		l-4.2-1.7l-1.7-4.8l0.2-1.9l2.7,0.8l0.4,1.9h3.1l2.3-2.3l0.8-9.7v-5.6l1.5-7.5l4.8-0.8l3.1-2.5l5.9-3.9l4.2-5.6l2.3-3.3l2.1-6.6
		l2.1-0.2l1.5,0.8l1.7-0.8l4.2-3.3l3.4-2.7l1.5-2.7l-2.5,0.4l-2.7,1.5l-2.1,1L344.8,220.5z"/>
	<path id="path19617" class="st2" d="M353.6,201.8l-5.2,5.8l1.7,2.5l2.5-0.4l3.8-5.4l-1.7-2.3L353.6,201.8z"/>
	<path id="path20504" class="st2" d="M325.5,223.6l-0.2,4.4l-3.1,2.1l-1-2.5l0.2-2.3l2.7-1.9L325.5,223.6z"/>
	<path id="path21391" class="st3" d="M325.6,253.5l-1.6,0.1l-0.1,1.8h1.9L325.6,253.5z"/>
	<path id="path21393" class="st2" d="M342.9,243.3l2.3-2.7l3.1,0.2l0.4,3.1l-1,1.9l-2.5,1l-2.1-2.1L342.9,243.3z"/>
	<path id="path21395" class="st2" d="M338.9,245.4l2.1-0.2l1.9,1.2l0.4,2.5l-0.4,1.5l-3.1,0.2l-1-2.5L338.9,245.4z"/>
	<path id="path22284" class="st2" d="M594.7,355.1l4.8-3.1l3.7,1.8l0.6,4.5l0.2,5.3l1.9,2.7l2.5-3.9l3.7-0.6l3.1,3.5l2.1,3.5
		l1.2,4.5l-0.4,5.5l-2.1,1.2l-2.3,3.3l-4.8,0.4l-3.3-1l0.4,13.1l-1.2,12.5l-2.5,5.5l-3.3,5.1l-1.2,1.6l2.3,3.9l2.7,5.1l0.2,8.4
		l-1,3.5l-5.2,6.5l-4.3,1l-3.5-1.2l-3.1-1.8l-2.1-2.7l-0.8-2.7h2.9l1.2,1.6l4.8,0.2l1.9-1.8l2.5-1l1.9-3.3l0.4-4.1l-0.8-5.5
		l-2.1-4.7l-1.7-2.9l-1.4-2.7l1.7-1.6l1.4-3.5l2.5-4.5l0.8-4.9l3.5-5.7v-2l0.4-1.6l-0.4-2.2l0.4-2l-0.4-1.8l0.6-1.6l-0.6-1.4l-1-1.8
		l-3.1-2l-5.2-1.4l-2.7-2.7l-1.2-2.7h1l2.9,1.8l4.1,2l2.3,1.6l4.8,0.4l2.9,1.6l1.4-1.2l2.7-1.4l1.7-1.8l0.2-3.3l-0.2-3.5l-2.7,1.4
		l-0.4,4.3l-2.9,1l-1.7-2l-1.2-2.5l-0.8-2.5l0.2-3.1l-3.7-3.1l-1.4-1l-2.5-1l-1.4-3.1L594.7,355.1z"/>
	<path id="path23171" class="st2" d="M619.3,364.5l2.1-1l2.7,0.8l0.8,2.9l-2.7,1.4l-3.1-1l-0.6-2L619.3,364.5z"/>
	<path id="path23173" class="st2" d="M613.3,392.5l-0.6,4.3l-2.3,2.7v2.7l3.1,0.2l1.7-4.1l0.6-4.9L613.3,392.5z"/>
	<path id="path24060" class="st2" d="M580.9,408.5l-2.5-1l-1.7,2.7l-1.4,1.4l-0.8,3.9l2.1,1.6l1.2-2.2l2.1-1.2l1.2-1.6L580.9,408.5z
		"/>
	<path id="path24947" class="st3" d="M600.3,356.5l-1.6,0.1l-0.1,1.8h1.9L600.3,356.5z"/>
	<path id="path24949" class="st2" d="M565.7,428.6l9.2,7l7.8,10.1l2,3.7l-1.8,1.9l-2.7-3.5l-4.3-3.7l-3.5-3.5l-3.1-3.5l-2-2.9
		L565.7,428.6z"/>
	<path id="path24951" class="st2" d="M562.1,434.6l11,11.2l1.4,2.9l1.2,7.2l-1.4,4.3l-6.5,0.4l-2.2,7.4l-4.3,3.3L559,474l-2.5,3.1
		l-2.4,5l-2.9,4.3l-8.8,8.7l-6.9,3.7l-8,0.6l-7.1-4.3l-2.2-4.7l-2.9-5l-2.2-4.1l-1-5l1.8-0.8l2,4.5l2.7,4.5l2.7,4.5l3.7,3.9l4.3,1.4
		l4.7-2.1l4.1-2.3l4.1-2.3l8.2-8.1l4.5-6.8l0.6-1.6l-5.9-1.4v-6.4l1.8-3.5l4.3-1.2l3.7,1l1.4,3.7l2.2-2.9l1.4-0.8l0.2-4.5l7.8-0.4
		l0.2-3.5l-3.1-3.9l-6.3-5.6L562.1,434.6z"/>
	<path id="path24953" class="st2" d="M541.2,463.5l-7.6,10.3l-4.3,7l1,2.5l3.3-4.3l2.2-2.5l2.2-3.3l2.4-3.1l2-4.1L541.2,463.5z"/>
	<path id="path24955" class="st2" d="M555.9,444.7l4.1,0.2l0.4,3.5l-4.5,0.4V444.7z"/>
	<path id="path24957" class="st2" d="M551.5,448.9l4.1,0.2l0.4,3.5l-4.5,0.4V448.9z"/>
	<path id="path24959" class="st2" d="M508.8,490.5l2.7-1.2l4.1,3.1l2.2,4.8l-1,5.6l0.4,7l-4.7,4.5l-2.5-0.6V511l2.2-1.6l1.6-2.5
		l1.8-3.9l-7.3-1.6l-0.4-5.8L508.8,490.5z"/>
	<path id="path24961" class="st2" d="M501.4,491.1v3.9l1.2,9.5l-1.8,9.3l-2,3.3l-6.1,5.4l-10.2-0.4l-3.5-2.7l-1.6-4.5l0.8-6.4
		l0.8-5.4l2.4-1.9l1.8,2.3l-2,3.5l0.8,2.5l1.8,4.1l3.7,2.3h2.7l3.7-2.9l4.7-3.9l0.8-3.9l-0.4-3.7l-1.4-3.9l1.4-5.6L501.4,491.1z"/>
	<path id="path24963" class="st2" d="M487.3,499.4l2.7-1.4l2.5,0.8l1.8,4.1l-2.7,2.1l-3.9-1L487.3,499.4z"/>
	<path id="path24965" class="st2" d="M473.8,489.1l0.4,20.8l-1.5,2.8l-2.3,4.9l-3.7,3.4l-3.8,0.6l-4.2-1.3l-0.7-1.1l-1.9,0.2l-2.6,4
		l-1.7,1.6l-8.1,1.1l0.3-2.7l2.5-2.1l2.9-1.6l2.1-2.7l3-0.7l1.2-2.7l0.7-3.1l0.5-4.5l2.1-1.1l0.4,3v3.6l2.5,2.3l2.3,1.8l2.6-0.3
		l1.5-2.6l2.2-4.1l-0.2-4.3l-0.4-4.9v-8.5L473.8,489.1z"/>
	<path id="path25852" class="st2" d="M443,500.7l3.7,1.8l1.1,3.6l0.3,4.1l-1.9,4l-1.5,3.8l-2.1,2.4l-2.1,2.5l-4.4,1.2l-3.1,1
		l-1.2-2.8l2.1-2.2l2.9-0.3l3.1-2.7l3.1-1.4l0.6-2.7l-3.1,0.3l-2.7-1l-0.2-5.8l1.7-1.6l0.9-2.8L443,500.7z"/>
	<path id="path26739" class="st2" d="M434.2,492.2l-2,8.5l-2.2,4.4l-2.1,4.2l-2.1,4.6l-3.6,3.5l-2.8,3.6l-2.4,1.6l-2.8,1.8l-8.2,0.6
		l-4.4-2.7l-2.3-2.6l-0.6-2.1l0.2-8.1l3.1-2.6l1.3,3.6l0.4,3l3.8,3.7l6.9,1l4.7-2.6l3.9-3.9l2.1-6.5l2.6-8.5l1.7-4.5l3.3-1.3
		L434.2,492.2z"/>
	<path id="path27626" class="st2" d="M421.8,491.6l-2.3,9.2l-5,7.2l-2.8,2.7l0.7-5.3l2.5-6.8l3.2-7.4l3.1-1.1L421.8,491.6z"/>
	<path id="path27628" class="st2" d="M413.9,492.2l-6.1,2.9l-9.8,1l-7.3-0.3l1.8,2.3l5.5,4.5l-4.4,2.8l-12,1.9l-7,0.1l-10.1-2.2
		l-5.9-2.3l-8.8-4.3l-12.9-10.6l-2.3-5.6l1.2-6.5l2.1-3.3l1.9-3.3l3.7-2.4l-1.9-2.7l-4.5-3.1l0.3-2.9l0.8-4.6l-3.9-0.8l-0.3,6
		l-5.7,0.6l-4.4-0.1l-1.3-1.9l-8,0.1l-0.8,2.9l0.5,4.7l1.5,1.7l2.6,2l3.1,2.4l-0.8,2l-3-0.3l-3.7-2.3l-5-1.9l-2.3-3.2l-0.4-7.8
		l3.1-1.8l2.7,0.1l1.2-0.9h7.6l3.4,0.8l4.9,1.1l0.3-1.7l-1-1.8l-2.3-1.1l-0.6-1.3l1.5-1.9h4.4l1,2.6l4.1-2l3.9,0.5l1.5,1.7l1.3,4.3
		l-1.4,1.5l1.9,4l2.1,0.9l3-1.8l1.9-1.7l3.2-1l0.5,2l-2.4,1.7l-2.6,2.4l-2.8,3.1l-1.8,2.3l-1.9,1.1l-0.5,4.1v4.7l1.3,3.1l9.4,9.4
		l3.9,2.2l2.8,1.9l4.9,2.2l7.2,2.3l8.5,2.2l6.6-0.5l-2.1-2.4l-2.6-3.2l1.4-2.6l3.7-0.9l5.4-1.9l7.2,0.3l2.6-0.1l9.5-1.3l1.4,1.1
		L413.9,492.2z"/>
	<path id="path28515" class="st2" d="M396.7,481.8l2.8,1.7v2.9l-1.7,2l-4.8-2l0.1-1.7l1.8-2.6L396.7,481.8z"/>
	<path id="path29402" class="st2" d="M335.1,465.1h2.8l1.2,1l-1.3,2.6h-2.3l-1.4-1.3L335.1,465.1z"/>
	<path id="path30289" class="st2" d="M330.5,468.1h2.8l1,0.8l-0.1,2.4l-2.1,1.3l-2.8-1.5L330.5,468.1z"/>
	<path id="path30291" class="st2" d="M321.7,461.7h5.9v4.3l-6.2,0.1L321.7,461.7z"/>
	<path id="path30293" class="st3" d="M443.6,506.5l-1.6,0.1l-0.1,1.8h1.9L443.6,506.5z"/>
	<path id="path30295" class="st3" d="M513.1,495.9l-1.6,0.1l-0.1,1.8h1.9L513.1,495.9z"/>
	<path id="path30297" class="st2" d="M329.3,445.4l-13.9,7.1L312,452l2-2.4l7.8-4.2l5.9-1.8L329.3,445.4z"/>
	<path id="path31184" class="st2" d="M330.9,436.1l-8.6,5.5l-9.6,1.2l-5.9-0.6l-2-3.2l0.4-4.4l-3.9-3.4l-6.7-6.5l-4.9-2.4l-3.9-2.2
		l-4.5-2.2l-3.7-2.4l0.8-2.6l1.6,0.2l3.7,2.6l5.9,2l5.5,2.2l4.3,3.6l3.5,2.6l2.2,2.4h2.2l1.4-3.6l3.1-0.4l4.9,1.4l2.2,2.2l0.4,5.2
		l-2,1.6l-5.9,1.6l1.6,3.2l3.5,0.4l4.9-3.4l4.9-1.6L330.9,436.1z"/>
	<path id="path32071" class="st2" d="M306.5,413.9l-0.8-7.5l-3.5-2.2l-4.1-4l-5.5-10.1l-2.4-7.3l-0.8-10.1l0.6-6.3l1.4-1.8l-1.8-2
		l-2.7-3.2l-3.1-1.2l-1.8-1.4l-2.2,0.8l2.4,3l1.6,2.2v2.4l-1.2,1.8l-0.6,7.9l1.8,6.7l-1,2.2l1,2.8l2,3.6l2.2,4.2l4.3,6.5l2.2,2.2
		l4.7,3.8l0.2,2.8l-0.6,1.8l2.7,1.6l1,1.6L306.5,413.9z"/>
	<path id="path32958" class="st2" d="M287.5,408.2l5.7,0.2v4h-6.1L287.5,408.2z"/>
	<path id="path33845" class="st2" d="M300.7,382l2.4,2.4l1.4,3.4l-2.4,1.6l-1.6-2.6L300.7,382z"/>
	<path id="path34732" class="st2" d="M283.4,396.1l-2.9-2l-2.9,1.8l0.6,3.2l3.7,1.2L283.4,396.1z"/>
	<path id="path35619" class="st2" d="M280.1,389.9l-2.9-2l-2.9,1.8l0.6,3.2l3.7,1.2L280.1,389.9z"/>
	<path id="path35621" class="st2" d="M299.3,355.5l2.4,2.6l-1.2,2.6l1,2.4l2.4,1.6l-2,3.4h-3.1l-0.2-4l-2.2-3.8l0.2-3.6L299.3,355.5
		z"/>
	<path id="path37395" class="st4" d="M582.1,348.6c0,72.8-60.8,131.8-135.7,131.8s-135.7-59-135.7-131.8
		c0-72.8,60.8-131.8,135.7-131.8S582.1,275.9,582.1,348.6z"/>
	<path id="path38282" class="st5" d="M444.2,218.2l-113.4,65.4l-1,130.3l115.9,65.4l114.9-65.4l2-1.5L562,285.1l-115.4-67.3
		L444.2,218.2z"/>
	<path id="path38284" class="st5" d="M346.5,294.9v109.8l99.1,58.1l101.1-58.6l-1-111.3l-99.6-56.6L346.5,294.9z"/>
	<path id="path38288" class="st5" d="M546.7,403.7l15.3,8.8"/>
	<path id="path38290" class="st5" d="M445.6,462.7v16.1"/>
	<path id="path38292" class="st5" d="M545.3,292.4l16.3-7.3"/>
	<path id="path38294" class="st5" d="M446.1,236.3v-18.5"/>
	<path id="path38296" class="st5" d="M346,404.2l-15.8,9.8"/>
	<path id="path38298" class="st5" d="M346.5,294.4l-15.8-10.2"/>
	<path id="path38300" class="st6" d="M332.4,284L445,219.1l0.1,16.7l-98.3,57.8L332.4,284z"/>
	<path id="path41848" class="st7" d="M447,219.1l0.3,16.9l98.1,55.5l14.4-6.5L447,219.1z"/>
	<path id="path43620" class="st8" d="M331.7,285.9l14.1,9.3l-0.2,108.3l-15.2,9.1L331.7,285.9z"/>
	<path id="path45392" class="st8" d="M546.7,292.8l14.3-6.4l0.5,124.7l-14.1-8.2L546.7,292.8z"/>
	<path id="path46279" class="st9" d="M345.9,405.4l99.1,58.2l-0.3,14.4L331.9,414L345.9,405.4z"/>
	<path id="path46281" class="st1" d="M547.1,405l13.5,7.9l-114.3,65l0.2-14.6L547.1,405z"/>
	<path id="path47168" class="st10" d="M347.5,311l9.4,9.3l3.5,2.9l2.5-1l0.5-4.4v-7.3h4.4l3.9-2l3-3.9l4.9-1.5l2.5-3.9l-6.4-7.8
		l4.9-3.4l5.4-3.9l4.4-2.4l9.9,3.4l9.4,4.4l6.9,2l3.9,5.9l5.4,4.4l15.3-0.5l3.5-7.3l3.9-2.4l5.4,1.5l7.4-2.4h4.9l8.4,9.8l2,3.9
		l7.9,2.9l6.4,2.9l3,2.4l11.8-1l6.9-2.4h6.4l3.9,6.3l7.4,2.9h6.9l7.9,0.5v-25.4l-99.1-56.6l-98.6,58.6V311z"/>
	<path id="path47170" class="st10" d="M347.5,315.4l1,2.9l7.9,8.8l4.4,6.3l3.9,7.8l5.4,6.3l6.9,7.3l1,3.9l1.5,3.9l5.4,3.4l3.9,2.9
		l3.9,11.7l3,12.2l13.3,8.8l1.5,2.9l2,6.3l3,4.4l1,2.9l12.3,3.9l3.9,2.4l6.9,6.3l6.9,5.4l2,3.4l-4.4,4.4v1.5l3.5,1l1.5-2.9l4.4,4.4
		l2.5,2.4l6.9,1.2l-17.3,10l-98.1-57.6L347.5,315.4z"/>
	<path id="path47172" class="st10" d="M438.7,405.6v6.8l5.9,11.7l4.9,9.8l4.4,1l12.3-10.2l6.4-2l7.4-4.9l7.4-6.3l8.9-4.9l6.4-4.4
		l3-8.8l-3-8.3l-3.5-5.9l-4.9-1l-5.4,4.4l-6.4,1.5l-5.9,3.9l-6.9,8.8l-5.9,9.3l-3-4.4l-5.9-2.9h-4.4l-5.9-0.5l-3,2.9L438.7,405.6z"
		/>
	<path id="path47174" class="st11" d="M365.3,315.8l2,6.8l5.4,3.4l12.8,16.6l4.4,7.3l8.4,4.4l4.9,6.8l1,5.9l3,6.8l4.4,4.4l4.9,1.5
		l4.4,3.4l1,3.9l4.4,2.4l2.5,5.9l9.4,11.2l5.4-7.3l8.9-0.5l5.5,1.5l3.4,2.3l2.5,4l12.3-18.1l5.4-3.5l3.2-1.3l4.2-1.1l2-1.7l3.2-1.9
		l4.5,0.7l2.3,2.7l2.2,3.9l1,3l2,4.4l6.6-2.2l5.4-3.9l3.9,0.5l2.9-3.7l-0.4-2.1l5.4-2.4l1-3.4l1.5-2.9l1-1.5l2-1l0.8-5.5l-1.8-4.3
		l4.9-4.4l2.5-7.3l2.5-3.9l-0.5-6.8l-5.9-3.9l-1.5-2.4l-9.4,0.5l-1-2.4h-2.5l-3.5-4.4l-2-4.4l-2-8.3l-2.5,1l-2.5,3.4l-2.5,7.3
		l-2,3.4l-4.4,3.9l-10.4,3.4l-3.9,1.5l-1-4.4l-1-5.9l-2.5-5.9l-2-0.5l-1.5,4.9l1.5,4.4l-0.5,2.4l-5.9-4.9l-2.5-3.9l-2-8.8l-5.9-2.9
		l-3.9-2l-1-4.4l-7.9-6.8l0.7-6.6l-4.2-0.8l-3.5,1.5l-3.9,8.3l-15.3,0.5l-8.2-8.7l-2.2-2.2l-25.2-10l-15.3,10.7l6.9,7.8l-3,4
		l-4.6,0.9l-3.7,4.9l-3,1.4h-3.9L365.3,315.8z"/>
	<path id="path47176" class="st9" d="M363.7,309.2l3.5,13.5l6.1,3.6l8.6,11.6l4.4,6.1l3.8,6.1l8.9,4.7l4.6,6.9l0.8,6l3.1,7l4.3,3.3
		l4.6,2.1l4.6,3.1l0.8,4.1l5.4,2.8l2.1,6.3l9.2,10l0.4,6.5l7.9,15.6l2.6,5.8l4.9,0.6l11.9-9.8l6.8-2.5l7.5-4.9l6.5-5.7l9.7-5.5
		l6.6-4.9l2.2-7.9l7.7-2.4l4.9-3.9l3.8,0.7l2.4-4l0.2-1.9l5.2-2.4l1.4-4.9l2.1-2.9l1.9-0.9l0.7-3.7v-2.6l-1.9-3.3l5.4-4.7l1.3-4.5
		l1.5-4.2l1.8-2.3l-0.7-7.2l-3.2-2.2l-2.4-1.6l-1.6-2.3l-9.2,1.1l-0.7-2.7l-2.6-0.2l-2.4-2.8L519,324l-1.6-5.4l-1.2-5.4l-2.1,0.9
		l-2.8,3.7l-2,7.5l-2.7,3.4l-3.5,3.3l-14.8,5.4l-1.9-7.8l-1.1-4.8l-1.4-3l-1.7-0.7l-1,4l1.2,5.4l-0.7,2l-7.3-5.6l-1.3-2.7l-0.9-2.9
		l-1.8-6.5l-9.5-4.2l-0.6-4.1l-8.5-7.6l1.1-6.5l2,0.3l6.1-2.1l5.9-0.5l8.5,10.3l1.8,3.5l13.5,5.6l3,2.5l13.5-1.1l6.1-2.1h5.9
		l3.5,5.4l7.2,3.8l2.9,0.1l7.3,0.2l5.2,0.3l0.5,84.9l-82.5,48.3l-7.3-1.2l-6.6-6.8l-1.6,2.3l-3.1-0.2l-0.5-1.4l4.5-4.4l-1.3-3.1
		l-9.3-7.9l-6.1-5.4l-15.3-5.4l-0.9-3.7l-2.8-3.5l-3.5-9.8l-13.1-8.3l-6.9-24.1l-9.3-6l-2.3-5.4l-0.5-2.6l-11.3-12.6l-2.1-3
		l-3.1-6.8l-10.2-12.1l-2.1-2.9l-0.7-1.4l0.2-5.4l12.2,11.7l2.7-0.5L363.7,309.2z"/>
	<path id="path47178" class="st11" d="M476,319.3l1.3,0l0.7-0.3l0.4,0.2l0.4,0.3l0.1,0.5l-0.1,0.4l-0.3,0.2l-0.5,0l0,0.5l-0.1,0.8
		l-0.2,0.9l-0.2,0.5l-0.2,0.8l-0.5,0.1l-0.5-0.5l-0.4-2l-0.1-0.6l-0.4-0.2l-0.7-0.4v-0.5l0.2-0.4h0.7H476z"/>
</g>
</svg>
