<!--?xml version="1.0" encoding="utf-8"?-->
<!-- Generator: Adobe Illustrator 15.0.0, SVG Export Plug-In . SVG Version: 6.00 Build 0)  -->

<svg xmlns="http://www.w3.org/2000/svg" xmlns:xlink="http://www.w3.org/1999/xlink" width="500px" height="500px" viewBox="0 0 500 500">
<path fill-rule="evenodd" clip-rule="evenodd" fill="#2980B9" d="M376,91c2.383,3.951,6.457,6.209,10,9
	c28.819,30.847,50.983,68.351,57,122c0.484,9.182,1.491,17.842,1,28c-2.28,1.387-0.373,6.961-1,10
	c-5.025,48.308-24.109,82.557-48,112c-4.36,2.307-5.935,7.398-10,10c-31.678,31.656-73.486,53.181-132,58
	c-2.378-1.66-11.622-1.66-14,0c-0.334,0-0.666,0-1,0s-0.666,0-1,0c-1.387-2.28-6.961-0.373-10-1c-46.115-5.218-80.752-21.915-109-45
	c-2.423-3.244-6.097-5.236-9-8c-3.248-4.085-6.915-7.752-11-11c-26.422-29.911-45.961-66.706-51-118c-0.627-3.039,1.28-8.613-1-10
	c0-3.333,0-6.666,0-10c2.301-2.367,0.357-8.975,1-13c5.018-46.648,21.832-81.502,45-110c3.244-2.423,5.236-6.097,8-9
	c4.085-3.248,7.752-6.915,11-11c2.526-2.474,6.066-3.934,8-7c28.459-22.207,62.316-39.017,108-44c4.1,0.1,8.197,0.197,11-1
	c2.378,1.66,11.622,1.66,14,0c0.333,0,0.667,0,1,0c1.387,2.28,6.961,0.373,10,1C311.711,47.956,346.291,67.042,376,91z M247,58
	c-5.297-1.15-12.012-0.476-21,1c-43.063,3.937-73.393,20.607-99,42c-9.164,5.503-16.225,13.109-22,22
	c-21.547,26.119-38.605,56.729-42,101c-2.28,1.387-0.373,6.961-1,10c-1.661,2.707-1.661,12.294,0,15c0.619,2.714-1.27,7.937,1,9
	c3.827,46.506,22.221,78.446,46,105c0,0.333,0,0.667,0,1c5.388,6.279,11.117,12.217,18,17c29.588,24.411,64.816,43.184,119,43
	c4.796,2.433,13.675,0.363,18-1c41.962-3.704,71.616-19.718,97-40c8.888-6.112,16.99-13.01,23-22
	c23.213-29.454,43.001-62.332,44-114c1.659-2.051,1.659-10.949,0-13c-0.97-36.211-13.019-69.286-29-94
	C371.342,97.23,310.773,56.098,247,58z" id="path-0" style="position: relative;"></path>
<path fill-rule="evenodd" clip-rule="evenodd" fill="#FFFFFF" d="M247,58c63.773-1.902,124.342,39.23,152,82
	c15.981,24.714,28.03,57.789,29,94c0,4.334,0,8.667,0,13c-0.999,51.668-20.787,84.546-44,114c-2.092,1.241-3.759,2.908-5,5
	c-3.752,2.915-7.085,6.248-10,10c-2.615,2.385-6.31,3.69-8,7c-25.384,20.282-55.038,36.296-97,40c-7.025-0.691-10.975,1.691-18,1
	c-54.184,0.184-89.412-18.589-119-43c-0.903-1.763-2.236-3.097-4-4c-4.249-5.084-8.916-9.751-14-14
	c-23.779-26.554-42.173-58.494-46-105c0-11.333,0-22.666,0-34c3.395-44.271,20.453-74.881,42-101c7-7.667,14.143-15.19,22-22
	c25.607-21.393,55.938-38.063,99-42C232.677,58.344,241.986,60.32,247,58z M243,74c-3.341-1.967-12.807-1.503-15,1
	c-10.882,0.118-18.178,3.822-28,5c7.016,14.984,18.756,25.244,28,38c18.352-14.315,36.604-28.73,60-38
	C275.109,75.89,259.998,74.002,243,74z M218,130c0-0.667,0-1.333,0-2c-13.771-11.895-21.887-29.447-35-42
	c-19.243,7.09-34.11,18.557-49,30c-5.174,4.16-9.84,8.826-14,14c-5.068,7.265-11.885,12.781-15,22
	c22.105,12.895,44.492,25.508,67,38c11.574-16.76,22.553-34.113,36-49C212.234,138.234,214.543,133.543,218,130z M306,92
	c-28.625,6.042-48.522,20.811-66,38c13.721,10.279,25.855,22.144,42,30c11.831-23.503,25.653-45.013,38-68c-1,0-2,0-3,0
	C315.6,90.343,307.4,90.343,306,92z M347,136c-1.964-14.37-4.588-28.079-14-35c-11.164,23.835-25.754,44.246-37,68
	c14.918,6.748,29.415,13.918,47,18c2.306-7.36,3.158-16.175,4-25c2.288-1.711,0.367-7.633,1-11c0-0.333,0-0.667,0-1
	C347.355,145.645,349.305,138.696,347,136z M372,132c-3.895-4.772-6.904-10.429-13-13c0.224,0.776,0.027,1.973,1,2
	c0.224,0.776,0.027,1.973,1,2c-0.066,5.067,1.719,8.281,1,14c0,7.333,0,14.667,0,22c0.429,12.762-2.464,22.203-4,33
	c13.372,1.294,25.216,4.118,39,5c0.623,1.84,12.987,1.77,9-1C398.758,170.576,386.879,149.788,372,132z M230,140
	c-17.35,16.984-32.219,36.448-44,59c20.164,8.503,35.984,21.35,56,30c10.874-17.793,21.557-35.776,31-55
	c-10.635-8.698-22.871-15.795-33-25C237.617,145.049,233.543,142.791,230,140z M103,271c13.215-0.882,20.567,4.1,33,4
	c6.033-26.967,18.038-47.962,28-71c-23.844-11.823-44.994-26.34-69-38c-11.887,26.815-21.167,63.364-15,102
	c-1.008,3.008,2.229,1.772,4,2C88.35,272.316,96.988,270.346,103,271z M289,183c-10.564,14.438-22.005,36.661-32,55
	c18.351,10.649,36.099,21.901,56,31c9.634-21.365,20.666-41.334,26-67C320.292,197.708,305.907,189.093,289,183z M388,211
	c-13.144,0.144-23.045-2.956-34-5c-5.923,27.41-18.265,48.402-28,72c23.799,11.201,43.791,26.209,68,37
	c10.596-18.071,16.399-40.934,18-68c1.661-2.706,1.661-12.293,0-15c-0.188-6.813-2.007-11.993-2-19
	C405.69,209.31,395.334,211.666,388,211z M178,213c-11.484,19.849-21.303,41.364-27,67c19.172,4.827,35.524,12.476,52,20
	c9.381-19.952,21.545-37.122,31-57C213.787,234.545,197.791,221.876,178,213z M269,333c12.049-16.284,25.5-31.166,35-50
	c-19.566-9.434-37.139-20.861-56-31c-9.844,19.489-21.947,36.72-31,57c14.266,8.401,27.701,17.633,39,29
	c1.286,1.714,2.067,3.933,5,4C264.648,339.981,266.41,336.076,269,333z M84,285c7.064,25.937,19.604,46.396,34,65
	c2.017,4.161,11.732,14.896,12,11c-1.14-4.86-2.492-9.507-2-16c0-8.667,0-17.333,0-26c-0.037-11.037,2.152-19.848,4-29
	c-12.549-1.452-24.047-3.952-37-5C93.6,283.343,85.4,283.343,84,285z M274,350c-0.333,0-0.667,0-1,0c-0.221,0.779-0.837,1.163-2,1
	c0.2,5.134,4.373,6.293,7,9c11.499,10.167,17.564,25.769,29,36c18.061-6.939,33.033-16.967,47-28c7.554-5.112,13.549-11.784,19-19
	c3.839-7.161,10.844-11.156,13-20c-24.273-10.727-44.594-25.406-68-37C304.115,312.115,290.526,332.526,274,350z M143,346
	c2.27,14.064,4.323,28.344,14,35c11.314-23.687,26-44,37-68c-14.493-7.84-30.857-13.81-48-19c-0.15,8.85-2.189,15.811-3,24
	c-2.308,3.025-0.353,10.314-1,15c0,0.333,0,0.667,0,1C142.639,337.695,140.705,343.962,143,346z M242,345
	c-11.561-7.439-20.283-17.717-34-23c-11.518,23.149-25.059,44.274-37,67c34.5,3.126,53.791-17.512,74-32
	c1.578-1.755,4.592-2.075,5-5C248.31,348.69,244.615,347.385,242,345z M269,372c-2.825-3.175-4.267-7.733-9-9
	c-2.092,1.241-3.759,2.908-5,5c-14.463,14.537-33.077,24.923-53,34c7.469,2.53,16.643,3.357,25,5c3.893,2.128,14.142,3.164,19,1
	c16.771,0.104,29.844-3.489,44-6C284.604,390.396,276.485,381.515,269,372z" id="path-1" style="position: relative;"></path>
<path fill-rule="evenodd" clip-rule="evenodd" fill="#2980B9" d="M347,162c-0.842,8.825-1.694,17.64-4,25
	c-17.585-4.082-32.082-11.252-47-18c11.246-23.754,25.836-44.165,37-68c9.412,6.921,12.036,20.63,14,35
	c0.645,4.355-1.305,11.304,1,14c0,0.333,0,0.667,0,1C345.712,152.711,347.633,158.633,347,162z" id="path-2" style="position: relative;"></path>
<path fill-rule="evenodd" clip-rule="evenodd" fill="#2980B9" d="M368,128c0.903,1.763,2.237,3.097,4,4
	c14.879,17.788,26.758,38.576,34,64c0,0.333,0,0.667,0,1c-3,0-6,0-9,0c-13.784-0.882-25.628-3.706-39-5
	c1.536-10.797,4.429-20.238,4-33c1.664-5.02,1.664-16.98,0-22c0.719-5.719-1.066-8.933-1-14
	C362.912,121.154,365.246,127.371,368,128z" id="path-3" style="position: relative;"></path>
<path fill-rule="evenodd" clip-rule="evenodd" fill="#2980B9" d="M230,140c2.549,3.785,6.811,5.856,10,9
	c10.129,9.205,22.365,16.302,33,25c-9.443,19.224-20.126,37.207-31,55c-20.016-8.65-35.836-21.497-56-30
	C197.781,176.448,212.65,156.984,230,140z" id="path-4" style="position: relative;"></path>
<path fill-rule="evenodd" clip-rule="evenodd" fill="#2980B9" d="M80,268c-6.167-38.636,3.113-75.185,15-102
	c24.006,11.66,45.156,26.177,69,38c-9.962,23.038-21.967,44.033-28,71c-12.433,0.1-19.785-4.882-33-4
	c-2.961-1.743-12.275-1.211-14-1C87.885,267.448,81.266,270.401,80,268z" id="path-5" style="position: relative;"></path>
<path fill-rule="evenodd" clip-rule="evenodd" fill="#2980B9" d="M234,243c-9.455,19.878-21.619,37.048-31,57
	c-16.476-7.524-32.828-15.173-52-20c5.697-25.636,15.516-47.151,27-67C197.791,221.876,213.787,234.545,234,243z" id="path-6" style="position: relative;"></path>
<path fill-rule="evenodd" clip-rule="evenodd" fill="#2980B9" d="M373,349c-6.544,6.123-12.207,13.126-19,19
	c-13.967,11.033-28.939,21.061-47,28c-11.436-10.231-17.501-25.833-29-36c-1.271-3.396-5.546-3.787-6-8c1.122-0.212,1.557-1.109,2-2
	c16.526-17.474,30.115-37.885,44-58c23.406,11.594,43.727,26.273,68,37C383.844,337.844,376.839,341.839,373,349z" id="path-7" style="position: relative;"></path>
<path fill-rule="evenodd" clip-rule="evenodd" fill="#2980B9" d="M255,368c2.614-0.719,3.065-3.602,6-4c3.507,1.827,4.186,6.48,8,8
	c7.485,9.515,15.604,18.396,21,30c-14.156,2.511-27.229,6.104-44,6c-1.078-1.655-8.922-1.655-10,0c-2.492-0.841-5.357-1.309-9-1
	c-8.357-1.643-17.531-2.47-25-5C221.923,392.923,240.537,382.537,255,368z" id="path-8" style="position: relative;"></path>
<path fill-rule="evenodd" clip-rule="evenodd" fill="#2980B9" d="M228,75c5.24-0.093,9.003-1.664,15-1
	c16.998,0.002,32.109,1.89,45,6c-23.396,9.27-41.648,23.685-60,38c-9.244-12.756-20.984-23.016-28-38
	C209.822,78.822,217.118,75.118,228,75z" id="path-9" style="position: relative;"></path>
<path fill-rule="evenodd" clip-rule="evenodd" fill="#2980B9" d="M134,116c14.89-11.443,29.757-22.91,49-30
	c13.113,12.553,21.229,30.105,35,42c0,0.667,0,1.333,0,2c-4.313,2.687-6.701,7.298-10,11c-13.447,14.887-24.426,32.24-36,49
	c-22.508-12.492-44.895-25.105-67-38c3.115-9.219,9.932-14.735,15-22C125.084,125.751,129.751,121.084,134,116z" id="path-10" style="position: relative;"></path>
<path fill-rule="evenodd" clip-rule="evenodd" fill="#2980B9" d="M306,92c3.667,0,7.333,0,11,0c1,0,2,0,3,0
	c-12.347,22.987-26.169,44.497-38,68c-16.145-7.856-28.279-19.721-42-30C257.478,112.811,277.375,98.042,306,92z" id="path-11" style="position: relative;"></path>
<path fill-rule="evenodd" clip-rule="evenodd" fill="#2980B9" d="M339,202c-5.334,25.666-16.366,45.635-26,67
	c-19.901-9.099-37.649-20.351-56-31c9.995-18.339,21.436-40.563,32-55C305.907,189.093,320.292,197.708,339,202z" id="path-12" style="position: relative;"></path>
<path fill-rule="evenodd" clip-rule="evenodd" fill="#2980B9" d="M412,247c-1.601,27.066-7.404,49.929-18,68
	c-24.209-10.791-44.201-25.799-68-37c9.735-23.598,22.077-44.59,28-72c10.955,2.044,20.856,5.144,34,5
	c6.242,1.758,14.988,1.012,22,2c-0.007,7.007,1.813,12.188,2,19C412,237,412,242,412,247z" id="path-13" style="position: relative;"></path>
<path fill-rule="evenodd" clip-rule="evenodd" fill="#2980B9" d="M256,338c-11.299-11.367-24.734-20.599-39-29
	c9.053-20.28,21.156-37.511,31-57c18.861,10.139,36.434,21.566,56,31c-9.5,18.834-22.951,33.716-35,50
	C264.888,335.718,261.409,345.235,256,338z" id="path-14" style="position: relative;"></path>
<path fill-rule="evenodd" clip-rule="evenodd" fill="#2980B9" d="M84,285c3.666,0,7.334,0,11,0c12.953,1.048,24.451,3.548,37,5
	c-1.848,9.152-4.037,17.963-4,29c-1.664,6.348-1.664,19.652,0,26c-0.492,6.493,0.86,11.14,2,16c-4.594-3.072-7.406-7.928-12-11
	C103.604,331.396,91.064,310.937,84,285z" id="path-15" style="position: relative;"></path>
<path fill-rule="evenodd" clip-rule="evenodd" fill="#2980B9" d="M143,318c0.811-8.189,2.85-15.15,3-24
	c17.143,5.19,33.507,11.16,48,19c-11,24-25.686,44.313-37,68c-9.677-6.656-11.73-20.936-14-35c-0.639-3.695,1.295-9.962-1-12
	c0-0.333,0-0.667,0-1C144.308,329.975,142.353,322.686,143,318z" id="path-16" style="position: relative;"></path>
<path fill-rule="evenodd" clip-rule="evenodd" fill="#2980B9" d="M245,357c-20.209,14.488-39.5,35.126-74,32
	c11.941-22.726,25.482-43.851,37-67c13.717,5.283,22.439,15.561,34,23c1.314,3.353,5.179,4.154,7,7
	C248.323,354.323,245.677,354.677,245,357z" id="path-17" style="position: relative;"></path>
</svg>
